<svg fill="none" height="16" viewBox="0 0 15 16" width="15" xmlns="http://www.w3.org/2000/svg"><path d="m7.24 15.2295c-1.01333 0-1.96667-.18-2.86-.54-.88-.3733-1.64667-.8866-2.3-1.54-.65333-.6533-1.166667-1.42-1.54-2.3-.36-.8933-.54-1.84664-.54-2.85997 0-1.02667.18-1.98.54-2.86.373333-.88.88667-1.64 1.54-2.28.65333-.65333 1.42-1.16 2.3-1.52.88-.373333 1.83333-.559999 2.86-.559999s1.98.186666 2.86.559999c.88.36 1.64.86667 2.28 1.52.6533.64 1.16 1.4 1.52 2.28.3733.88.56 1.83333.56 2.86 0 1.01333-.1867 1.96667-.56 2.85997-.36.88-.8667 1.6467-1.52 2.3-.64.6534-1.4 1.1667-2.28 1.54-.88.36-1.83333.54-2.86.54zm.3-2.92c-1.30667 0-2.34-.3933-3.1-1.18-.76-.8-1.14-1.85997-1.14-3.17997s.38-2.36 1.14-3.12 1.79333-1.14 3.1-1.14c.53333 0 1.06.09334 1.58.28.53333.17334.9667.42 1.3.74l-.56 1.24c-.32-.29333-.67333-.50667-1.06-.64-.38667-.14667-.76667-.22-1.14-.22-.81333 0-1.45333.25333-1.92.76-.45333.50667-.68 1.21334-.68 2.12 0 .89334.22667 1.60667.68 2.13997.46667.52 1.10667.78 1.92.78.37333 0 .75333-.0666 1.14-.2.38667-.1466.74-.3666 1.06-.66l.56 1.26c-.3333.3067-.76667.5534-1.3.74-.53333.1867-1.06.28-1.58.28zm-.3 1.96c.89333 0 1.71333-.1533 2.46-.46.76-.32 1.42-.7666 1.98-1.34.56-.5733.9933-1.24 1.3-2 .32-.75997.48-1.58664.48-2.47997s-.16-1.72-.48-2.48c-.3067-.76-.74-1.42-1.3-1.98-.56-.57333-1.22-1.01333-1.98-1.32-.74667-.32-1.56667-.48-2.46-.48s-1.72.16-2.48.48c-.76.30667-1.42.74667-1.98 1.32-.56.56-1 1.22-1.32 1.98-.30667.76-.46 1.58667-.46 2.48s.15333 1.72.46 2.47997c.32.76.76 1.4267 1.32 2 .56.5734 1.22 1.02 1.98 1.34.76.3067 1.58667.46 2.48.46z" fill="#fff"/></svg>