<svg width="15" height="16" viewBox="0 0 15 16" fill="none" xmlns="http://www.w3.org/2000/svg">
<path d="M7.24 15.2308C6.22667 15.2308 5.27333 15.0508 4.38 14.6908C3.5 14.3174 2.73333 13.8041 2.08 13.1508C1.42667 12.4974 0.913333 11.7308 0.54 10.8508C0.18 9.95742 0 9.00409 0 7.99075C0 6.96409 0.18 6.01075 0.54 5.13075C0.913333 4.25075 1.42667 3.49075 2.08 2.85075C2.73333 2.19742 3.5 1.69075 4.38 1.33075C5.26 0.957418 6.21333 0.770752 7.24 0.770752C8.26667 0.770752 9.22 0.957418 10.1 1.33075C10.98 1.69075 11.74 2.19742 12.38 2.85075C13.0333 3.49075 13.54 4.25075 13.9 5.13075C14.2733 6.01075 14.46 6.96409 14.46 7.99075C14.46 9.00409 14.2733 9.95742 13.9 10.8508C13.54 11.7308 13.0333 12.4974 12.38 13.1508C11.74 13.8041 10.98 14.3174 10.1 14.6908C9.22 15.0508 8.26667 15.2308 7.24 15.2308ZM7.54 12.3108C6.23333 12.3108 5.2 11.9174 4.44 11.1308C3.68 10.3308 3.3 9.27075 3.3 7.95075C3.3 6.63075 3.68 5.59075 4.44 4.83075C5.2 4.07075 6.23333 3.69075 7.54 3.69075C8.07333 3.69075 8.6 3.78409 9.12 3.97075C9.65333 4.14409 10.0867 4.39075 10.42 4.71075L9.86 5.95075C9.54 5.65742 9.18667 5.44409 8.8 5.31075C8.41333 5.16409 8.03333 5.09075 7.66 5.09075C6.84667 5.09075 6.20667 5.34409 5.74 5.85075C5.28667 6.35742 5.06 7.06409 5.06 7.97075C5.06 8.86409 5.28667 9.57742 5.74 10.1108C6.20667 10.6308 6.84667 10.8908 7.66 10.8908C8.03333 10.8908 8.41333 10.8241 8.8 10.6908C9.18667 10.5441 9.54 10.3241 9.86 10.0308L10.42 11.2908C10.0867 11.5974 9.65333 11.8441 9.12 12.0308C8.58667 12.2174 8.06 12.3108 7.54 12.3108ZM7.24 14.2708C8.13333 14.2708 8.95333 14.1174 9.7 13.8108C10.46 13.4908 11.12 13.0441 11.68 12.4708C12.24 11.8974 12.6733 11.2308 12.98 10.4708C13.3 9.71075 13.46 8.88409 13.46 7.99075C13.46 7.09742 13.3 6.27075 12.98 5.51075C12.6733 4.75075 12.24 4.09075 11.68 3.53075C11.12 2.95742 10.46 2.51742 9.7 2.21075C8.95333 1.89075 8.13333 1.73075 7.24 1.73075C6.34667 1.73075 5.52 1.89075 4.76 2.21075C4 2.51742 3.34 2.95742 2.78 3.53075C2.22 4.09075 1.78 4.75075 1.46 5.51075C1.15333 6.27075 1 7.09742 1 7.99075C1 8.88409 1.15333 9.71075 1.46 10.4708C1.78 11.2308 2.22 11.8974 2.78 12.4708C3.34 13.0441 4 13.4908 4.76 13.8108C5.52 14.1174 6.34667 14.2708 7.24 14.2708Z" fill="black"/>
</svg>
