<svg width="15" height="16" viewBox="0 0 15 16" fill="none" xmlns="http://www.w3.org/2000/svg">
<path d="M7.24 15.3543C6.22667 15.3543 5.27333 15.1743 4.38 14.8143C3.5 14.441 2.73333 13.9276 2.08 13.2743C1.42667 12.621 0.913333 11.8543 0.54 10.9743C0.18 10.081 0 9.12762 0 8.11429C0 7.08762 0.18 6.13429 0.54 5.25429C0.913333 4.37429 1.42667 3.61429 2.08 2.97429C2.73333 2.32095 3.5 1.81429 4.38 1.45429C5.26 1.08095 6.21333 0.894287 7.24 0.894287C8.26667 0.894287 9.22 1.08095 10.1 1.45429C10.98 1.81429 11.74 2.32095 12.38 2.97429C13.0333 3.61429 13.54 4.37429 13.9 5.25429C14.2733 6.13429 14.46 7.08762 14.46 8.11429C14.46 9.12762 14.2733 10.081 13.9 10.9743C13.54 11.8543 13.0333 12.621 12.38 13.2743C11.74 13.9276 10.98 14.441 10.1 14.8143C9.22 15.1743 8.26667 15.3543 7.24 15.3543ZM7.54 12.4343C6.23333 12.4343 5.2 12.041 4.44 11.2543C3.68 10.4543 3.3 9.39429 3.3 8.07429C3.3 6.75429 3.68 5.71429 4.44 4.95429C5.2 4.19429 6.23333 3.81429 7.54 3.81429C8.07333 3.81429 8.6 3.90762 9.12 4.09429C9.65333 4.26762 10.0867 4.51429 10.42 4.83429L9.86 6.07429C9.54 5.78095 9.18667 5.56762 8.8 5.43429C8.41333 5.28762 8.03333 5.21429 7.66 5.21429C6.84667 5.21429 6.20667 5.46762 5.74 5.97429C5.28667 6.48095 5.06 7.18762 5.06 8.09429C5.06 8.98762 5.28667 9.70095 5.74 10.2343C6.20667 10.7543 6.84667 11.0143 7.66 11.0143C8.03333 11.0143 8.41333 10.9476 8.8 10.8143C9.18667 10.6676 9.54 10.4476 9.86 10.1543L10.42 11.4143C10.0867 11.721 9.65333 11.9676 9.12 12.1543C8.58667 12.341 8.06 12.4343 7.54 12.4343ZM7.24 14.3943C8.13333 14.3943 8.95333 14.241 9.7 13.9343C10.46 13.6143 11.12 13.1676 11.68 12.5943C12.24 12.021 12.6733 11.3543 12.98 10.5943C13.3 9.83429 13.46 9.00762 13.46 8.11429C13.46 7.22095 13.3 6.39429 12.98 5.63429C12.6733 4.87429 12.24 4.21429 11.68 3.65429C11.12 3.08095 10.46 2.64095 9.7 2.33429C8.95333 2.01429 8.13333 1.85429 7.24 1.85429C6.34667 1.85429 5.52 2.01429 4.76 2.33429C4 2.64095 3.34 3.08095 2.78 3.65429C2.22 4.21429 1.78 4.87429 1.46 5.63429C1.15333 6.39429 1 7.22095 1 8.11429C1 9.00762 1.15333 9.83429 1.46 10.5943C1.78 11.3543 2.22 12.021 2.78 12.5943C3.34 13.1676 4 13.6143 4.76 13.9343C5.52 14.241 6.34667 14.3943 7.24 14.3943Z" fill="black"/>
</svg>
