<svg width="15" height="16" viewBox="0 0 15 16" fill="none" xmlns="http://www.w3.org/2000/svg">
<path d="M7.24 15.2315C6.22667 15.2315 5.27333 15.0515 4.38 14.6915C3.5 14.3182 2.73333 13.8048 2.08 13.1515C1.42667 12.4982 0.913333 11.7315 0.54 10.8515C0.18 9.95815 0 9.00482 0 7.99148C0 6.96482 0.18 6.01149 0.54 5.13148C0.913333 4.25148 1.42667 3.49148 2.08 2.85148C2.73333 2.19815 3.5 1.69148 4.38 1.33148C5.26 0.958151 6.21333 0.771484 7.24 0.771484C8.26667 0.771484 9.22 0.958151 10.1 1.33148C10.98 1.69148 11.74 2.19815 12.38 2.85148C13.0333 3.49148 13.54 4.25148 13.9 5.13148C14.2733 6.01149 14.46 6.96482 14.46 7.99148C14.46 9.00482 14.2733 9.95815 13.9 10.8515C13.54 11.7315 13.0333 12.4982 12.38 13.1515C11.74 13.8048 10.98 14.3182 10.1 14.6915C9.22 15.0515 8.26667 15.2315 7.24 15.2315ZM7.54 12.3115C6.23333 12.3115 5.2 11.9182 4.44 11.1315C3.68 10.3315 3.3 9.27148 3.3 7.95148C3.3 6.63148 3.68 5.59148 4.44 4.83148C5.2 4.07148 6.23333 3.69148 7.54 3.69148C8.07333 3.69148 8.6 3.78482 9.12 3.97149C9.65333 4.14482 10.0867 4.39148 10.42 4.71148L9.86 5.95148C9.54 5.65815 9.18667 5.44482 8.8 5.31148C8.41333 5.16482 8.03333 5.09148 7.66 5.09148C6.84667 5.09148 6.20667 5.34482 5.74 5.85149C5.28667 6.35815 5.06 7.06482 5.06 7.97149C5.06 8.86482 5.28667 9.57815 5.74 10.1115C6.20667 10.6315 6.84667 10.8915 7.66 10.8915C8.03333 10.8915 8.41333 10.8248 8.8 10.6915C9.18667 10.5448 9.54 10.3248 9.86 10.0315L10.42 11.2915C10.0867 11.5982 9.65333 11.8448 9.12 12.0315C8.58667 12.2182 8.06 12.3115 7.54 12.3115ZM7.24 14.2715C8.13333 14.2715 8.95333 14.1182 9.7 13.8115C10.46 13.4915 11.12 13.0448 11.68 12.4715C12.24 11.8982 12.6733 11.2315 12.98 10.4715C13.3 9.71148 13.46 8.88482 13.46 7.99148C13.46 7.09815 13.3 6.27148 12.98 5.51148C12.6733 4.75148 12.24 4.09148 11.68 3.53148C11.12 2.95815 10.46 2.51815 9.7 2.21148C8.95333 1.89149 8.13333 1.73148 7.24 1.73148C6.34667 1.73148 5.52 1.89149 4.76 2.21148C4 2.51815 3.34 2.95815 2.78 3.53148C2.22 4.09148 1.78 4.75148 1.46 5.51148C1.15333 6.27148 1 7.09815 1 7.99148C1 8.88482 1.15333 9.71148 1.46 10.4715C1.78 11.2315 2.22 11.8982 2.78 12.4715C3.34 13.0448 4 13.4915 4.76 13.8115C5.52 14.1182 6.34667 14.2715 7.24 14.2715Z" fill="black"/>
</svg>
