<svg fill="none" height="16" viewBox="0 0 16 16" width="16" xmlns="http://www.w3.org/2000/svg"><path d="m7.99195 15.23c-1.01333 0-1.96666-.18-2.86-.54-.88-.3733-1.64666-.8866-2.3-1.54-.65333-.6533-1.16666-1.42-1.54-2.3-.359997-.89331-.539997-1.84665-.539997-2.85998 0-1.02667.18-1.98.539997-2.86.37334-.88.88667-1.64 1.54-2.28.65334-.65333 1.42-1.16 2.3-1.52.88-.373334 1.83334-.56 2.86-.56 1.02667 0 1.98.186666 2.86005.56.88.36 1.64.86667 2.28 1.52.6533.64 1.16 1.4 1.52 2.28.3733.88.56 1.83333.56 2.86 0 1.01333-.1867 1.96667-.56 2.85998-.36.88-.8667 1.6467-1.52 2.3-.64.6534-1.4 1.1667-2.28 1.54-.88005.36-1.83338.54-2.86005.54zm.3-2.92c-1.30666 0-2.34-.3933-3.1-1.18-.76-.8-1.14-1.85998-1.14-3.17998s.38-2.36 1.14-3.12 1.79334-1.14 3.1-1.14c.53334 0 1.06.09333 1.58.28.53335.17333.96665.42 1.30005.74l-.56 1.24c-.32-.29333-.67338-.50667-1.06005-.64-.38666-.14667-.76666-.22-1.14-.22-.81333 0-1.45333.25333-1.92.76-.45333.50667-.68 1.21333-.68 2.12 0 .89333.22667 1.60667.68 2.13998.46667.52 1.10667.78 1.92.78.37334 0 .75334-.0666 1.14-.2.38667-.1466.74005-.3666 1.06005-.66l.56 1.26c-.3334.3067-.7667.5534-1.30005.74-.53333.1867-1.06.28-1.58.28zm-.3 1.96c.89334 0 1.71334-.1533 2.46005-.46.76-.32 1.42-.7666 1.98-1.34.56-.5733.9933-1.24 1.3-2 .32-.75998.48-1.58665.48-2.47998s-.16-1.72-.48-2.48c-.3067-.76-.74-1.42-1.3-1.98-.56-.57333-1.22-1.01333-1.98-1.32-.74671-.32-1.56671-.48-2.46005-.48-.89333 0-1.72.16-2.48.48-.76.30667-1.42.74667-1.98 1.32-.56.56-1 1.22-1.32 1.98-.30666.76-.46 1.58667-.46 2.48s.15334 1.72.46 2.47998c.32.76.76 1.4267 1.32 2 .56.5734 1.22 1.02 1.98 1.34.76.3067 1.58667.46 2.48.46z" fill="#000"/></svg>