<svg width="15" height="16" viewBox="0 0 15 16" fill="none" xmlns="http://www.w3.org/2000/svg">
<path d="M7.24 15.1587C6.22667 15.1587 5.27333 14.9787 4.38 14.6187C3.5 14.2454 2.73333 13.7321 2.08 13.0787C1.42667 12.4254 0.913333 11.6587 0.54 10.7787C0.18 9.8854 0 8.93206 0 7.91873C0 6.89206 0.18 5.93873 0.54 5.05873C0.913333 4.17873 1.42667 3.41873 2.08 2.77873C2.73333 2.1254 3.5 1.61873 4.38 1.25873C5.26 0.885397 6.21333 0.69873 7.24 0.69873C8.26667 0.69873 9.22 0.885397 10.1 1.25873C10.98 1.61873 11.74 2.1254 12.38 2.77873C13.0333 3.41873 13.54 4.17873 13.9 5.05873C14.2733 5.93873 14.46 6.89206 14.46 7.91873C14.46 8.93206 14.2733 9.8854 13.9 10.7787C13.54 11.6587 13.0333 12.4254 12.38 13.0787C11.74 13.7321 10.98 14.2454 10.1 14.6187C9.22 14.9787 8.26667 15.1587 7.24 15.1587ZM7.54 12.2387C6.23333 12.2387 5.2 11.8454 4.44 11.0587C3.68 10.2587 3.3 9.19873 3.3 7.87873C3.3 6.55873 3.68 5.51873 4.44 4.75873C5.2 3.99873 6.23333 3.61873 7.54 3.61873C8.07333 3.61873 8.6 3.71206 9.12 3.89873C9.65333 4.07206 10.0867 4.31873 10.42 4.63873L9.86 5.87873C9.54 5.5854 9.18667 5.37206 8.8 5.23873C8.41333 5.09206 8.03333 5.01873 7.66 5.01873C6.84667 5.01873 6.20667 5.27206 5.74 5.77873C5.28667 6.2854 5.06 6.99206 5.06 7.89873C5.06 8.79206 5.28667 9.5054 5.74 10.0387C6.20667 10.5587 6.84667 10.8187 7.66 10.8187C8.03333 10.8187 8.41333 10.7521 8.8 10.6187C9.18667 10.4721 9.54 10.2521 9.86 9.95873L10.42 11.2187C10.0867 11.5254 9.65333 11.7721 9.12 11.9587C8.58667 12.1454 8.06 12.2387 7.54 12.2387ZM7.24 14.1987C8.13333 14.1987 8.95333 14.0454 9.7 13.7387C10.46 13.4187 11.12 12.9721 11.68 12.3987C12.24 11.8254 12.6733 11.1587 12.98 10.3987C13.3 9.63873 13.46 8.81206 13.46 7.91873C13.46 7.0254 13.3 6.19873 12.98 5.43873C12.6733 4.67873 12.24 4.01873 11.68 3.45873C11.12 2.8854 10.46 2.4454 9.7 2.13873C8.95333 1.81873 8.13333 1.65873 7.24 1.65873C6.34667 1.65873 5.52 1.81873 4.76 2.13873C4 2.4454 3.34 2.8854 2.78 3.45873C2.22 4.01873 1.78 4.67873 1.46 5.43873C1.15333 6.19873 1 7.0254 1 7.91873C1 8.81206 1.15333 9.63873 1.46 10.3987C1.78 11.1587 2.22 11.8254 2.78 12.3987C3.34 12.9721 4 13.4187 4.76 13.7387C5.52 14.0454 6.34667 14.1987 7.24 14.1987Z" fill="black"/>
</svg>
