<svg width="16" height="16" viewBox="0 0 16 16" fill="none" xmlns="http://www.w3.org/2000/svg">
<path d="M8.01344 15.23C7.0001 15.23 6.04677 15.05 5.15344 14.69C4.27344 14.3167 3.50677 13.8034 2.85344 13.15C2.2001 12.4967 1.68677 11.73 1.31344 10.85C0.953438 9.95669 0.773438 9.00335 0.773438 7.99002C0.773438 6.96335 0.953438 6.01002 1.31344 5.13002C1.68677 4.25002 2.2001 3.49002 2.85344 2.85002C3.50677 2.19669 4.27344 1.69002 5.15344 1.33002C6.03344 0.956686 6.98677 0.77002 8.01344 0.77002C9.0401 0.77002 9.99344 0.956686 10.8734 1.33002C11.7534 1.69002 12.5134 2.19669 13.1534 2.85002C13.8068 3.49002 14.3134 4.25002 14.6734 5.13002C15.0468 6.01002 15.2334 6.96335 15.2334 7.99002C15.2334 9.00335 15.0468 9.95669 14.6734 10.85C14.3134 11.73 13.8068 12.4967 13.1534 13.15C12.5134 13.8034 11.7534 14.3167 10.8734 14.69C9.99344 15.05 9.0401 15.23 8.01344 15.23ZM8.31344 12.31C7.00677 12.31 5.97344 11.9167 5.21344 11.13C4.45344 10.33 4.07344 9.27002 4.07344 7.95002C4.07344 6.63002 4.45344 5.59002 5.21344 4.83002C5.97344 4.07002 7.00677 3.69002 8.31344 3.69002C8.84677 3.69002 9.37344 3.78335 9.89344 3.97002C10.4268 4.14335 10.8601 4.39002 11.1934 4.71002L10.6334 5.95002C10.3134 5.65669 9.9601 5.44335 9.57344 5.31002C9.18677 5.16335 8.80677 5.09002 8.43344 5.09002C7.6201 5.09002 6.9801 5.34335 6.51344 5.85002C6.0601 6.35669 5.83344 7.06335 5.83344 7.97002C5.83344 8.86335 6.0601 9.57669 6.51344 10.11C6.9801 10.63 7.6201 10.89 8.43344 10.89C8.80677 10.89 9.18677 10.8234 9.57344 10.69C9.9601 10.5434 10.3134 10.3234 10.6334 10.03L11.1934 11.29C10.8601 11.5967 10.4268 11.8434 9.89344 12.03C9.3601 12.2167 8.83344 12.31 8.31344 12.31ZM8.01344 14.27C8.90677 14.27 9.72677 14.1167 10.4734 13.81C11.2334 13.49 11.8934 13.0434 12.4534 12.47C13.0134 11.8967 13.4468 11.23 13.7534 10.47C14.0734 9.71002 14.2334 8.88335 14.2334 7.99002C14.2334 7.09669 14.0734 6.27002 13.7534 5.51002C13.4468 4.75002 13.0134 4.09002 12.4534 3.53002C11.8934 2.95669 11.2334 2.51669 10.4734 2.21002C9.72677 1.89002 8.90677 1.73002 8.01344 1.73002C7.1201 1.73002 6.29344 1.89002 5.53344 2.21002C4.77344 2.51669 4.11344 2.95669 3.55344 3.53002C2.99344 4.09002 2.55344 4.75002 2.23344 5.51002C1.92677 6.27002 1.77344 7.09669 1.77344 7.99002C1.77344 8.88335 1.92677 9.71002 2.23344 10.47C2.55344 11.23 2.99344 11.8967 3.55344 12.47C4.11344 13.0434 4.77344 13.49 5.53344 13.81C6.29344 14.1167 7.1201 14.27 8.01344 14.27Z" fill="black"/>
</svg>
