<svg fill="none" height="15" viewBox="0 0 15 15" width="15" xmlns="http://www.w3.org/2000/svg"><path d="m7.24 14.7022c-1.01333 0-1.96667-.18-2.86-.54-.88-.3733-1.64667-.8867-2.3-1.54s-1.166667-1.42-1.54-2.3c-.36-.89335-.54-1.84668-.54-2.86001 0-1.02667.18-1.98.54-2.86.373333-.88.88667-1.64 1.54-2.28.65333-.65334 1.42-1.16 2.3-1.520003.88-.373333 1.83333-.559999 2.86-.559999s1.98.186666 2.86.559999c.88.360003 1.64.866663 2.28 1.520003.6533.64 1.16 1.4 1.52 2.28.3733.88.56 1.83333.56 2.86 0 1.01333-.1867 1.96666-.56 2.86001-.36.88-.8667 1.6467-1.52 2.3-.64.6533-1.4 1.1667-2.28 1.54-.88.36-1.83333.54-2.86.54zm.3-2.92c-1.30667 0-2.34-.3933-3.1-1.18-.76-.80001-1.14-1.86001-1.14-3.18001s.38-2.36 1.14-3.12 1.79333-1.14 3.1-1.14c.53333 0 1.06.09333 1.58.28.53333.17333.9667.42 1.3.74l-.56 1.24c-.32-.29334-.67333-.50667-1.06-.64-.38667-.14667-.76667-.22-1.14-.22-.81333 0-1.45333.25333-1.92.76-.45333.50667-.68 1.21333-.68 2.12 0 .89333.22667 1.60666.68 2.14.46667.52001 1.10667.78001 1.92.78001.37333 0 .75333-.0667 1.14-.2.38667-.1467.74-.36668 1.06-.66001l.56 1.26001c-.3333.3067-.76667.5533-1.3.74s-1.06.28-1.58.28zm-.3 1.96c.89333 0 1.71333-.1533 2.46-.46.76-.32 1.42-.7667 1.98-1.34s.9933-1.24 1.3-2.00001c.32-.76.48-1.58667.48-2.48 0-.89334-.16-1.72-.48-2.48-.3067-.76-.74-1.42-1.3-1.98-.56-.57334-1.22-1.01334-1.98-1.32-.74667-.32-1.56667-.48-2.46-.48s-1.72.16-2.48.48c-.76.30666-1.42.74666-1.98 1.32-.56.56-1 1.22-1.32 1.98-.30667.76-.46 1.58666-.46 2.48 0 .89333.15333 1.72.46 2.48.32.76001.76 1.42671 1.32 2.00001s1.22 1.02 1.98 1.34c.76.3067 1.58667.46 2.48.46z" fill="#000"/></svg>