<svg fill="none" height="16" viewBox="0 0 16 16" width="16" xmlns="http://www.w3.org/2000/svg"><path d="m8.01344 15.232c-1.01334 0-1.96667-.18-2.86-.54-.88-.3734-1.64667-.8867-2.3-1.54-.65334-.6534-1.16667-1.42-1.54-2.3-.360002-.89336-.540002-1.84669-.540002-2.86003 0-1.02666.18-1.98.540002-2.86.37333-.88.88666-1.64 1.54-2.28.65333-.65333 1.42-1.16 2.3-1.52.88-.373331 1.83333-.559997 2.86-.559997 1.02666 0 1.98.186666 2.85996.559997.88.36 1.64.86667 2.28 1.52.6534.64 1.16 1.4 1.52 2.28.3734.88.56 1.83334.56 2.86 0 1.01334-.1866 1.96667-.56 2.86003-.36.88-.8666 1.6466-1.52 2.3-.64.6533-1.4 1.1666-2.28 1.54-.87996.36-1.8333.54-2.85996.54zm.3-2.92c-1.30667 0-2.34-.3934-3.1-1.18-.76-.8-1.14-1.86003-1.14-3.18003s.38-2.36 1.14-3.12 1.79333-1.14 3.1-1.14c.53333 0 1.06.09334 1.58.28.53336.17334.96666.42 1.29996.74l-.56 1.24c-.32-.29333-.6733-.50666-1.05996-.64-.38667-.14666-.76667-.22-1.14-.22-.81334 0-1.45334.25334-1.92.76-.45334.50667-.68 1.21334-.68 2.12 0 .89334.22666 1.60667.68 2.14003.46666.52 1.10666.78 1.92.78.37333 0 .75333-.0667 1.14-.2.38666-.1467.73996-.3667 1.05996-.66l.56 1.26c-.3333.3066-.7666.5533-1.29996.74-.53334.1866-1.06.28-1.58.28zm-.3 1.96c.89333 0 1.71333-.1534 2.45996-.46.76-.32 1.42-.7667 1.98-1.34.56-.5734.9934-1.24 1.3-2 .32-.76003.48-1.58669.48-2.48003 0-.89333-.16-1.72-.48-2.48-.3066-.76-.74-1.42-1.3-1.98-.56-.57333-1.22-1.01333-1.98-1.32-.74663-.32-1.56663-.48-2.45996-.48-.89334 0-1.72.16-2.48.48-.76.30667-1.42.74667-1.98 1.32-.56.56-1 1.22-1.32 1.98-.30667.76-.46 1.58667-.46 2.48 0 .89334.15333 1.72.46 2.48003.32.76.76 1.4266 1.32 2 .56.5733 1.22 1.02 1.98 1.34.76.3066 1.58666.46 2.48.46z" fill="#000"/></svg>