<svg fill="none" height="16" viewBox="0 0 16 16" width="16" xmlns="http://www.w3.org/2000/svg"><path d="m8.01344 15.2315c-1.01334 0-1.96667-.18-2.86-.54-.88-.3733-1.64667-.8867-2.3-1.54-.65334-.6533-1.16667-1.42-1.54-2.3-.360002-.89335-.540002-1.84668-.540002-2.86002 0-1.02666.18-1.97999.540002-2.86.37333-.88.88666-1.64 1.54-2.28.65333-.65333 1.42-1.16 2.3-1.52.88-.373329 1.83333-.559996 2.86-.559996 1.02666 0 1.98.186667 2.85996.559996.88.36 1.64.86667 2.28 1.52.6534.64 1.16 1.4 1.52 2.28.3734.88001.56 1.83334.56 2.86 0 1.01334-.1866 1.96667-.56 2.86002-.36.88-.8666 1.6467-1.52 2.3-.64.6533-1.4 1.1667-2.28 1.54-.87996.36-1.8333.54-2.85996.54zm.3-2.92c-1.30667 0-2.34-.3933-3.1-1.18-.76-.8-1.14-1.86002-1.14-3.18002s.38-2.36 1.14-3.12 1.79333-1.14 3.1-1.14c.53333 0 1.06.09334 1.58.28001.53336.17333.96666.41999 1.29996.73999l-.56 1.24c-.32-.29333-.6733-.50666-1.05996-.64-.38667-.14666-.76667-.22-1.14-.22-.81334 0-1.45334.25334-1.92.76001-.45334.50666-.68 1.21333-.68 2.12 0 .89333.22666 1.60666.68 2.14001.46666.52 1.10666.78 1.92.78.37333 0 .75333-.0667 1.14-.2.38666-.1467.73996-.3667 1.05996-.66l.56 1.26c-.3333.3067-.7666.5533-1.29996.74-.53334.1867-1.06.28-1.58.28zm-.3 1.96c.89333 0 1.71333-.1533 2.45996-.46.76-.32 1.42-.7667 1.98-1.34s.9934-1.24 1.3-2c.32-.76002.48-1.58668.48-2.48002 0-.89333-.16-1.72-.48-2.48-.3066-.76-.74-1.42-1.3-1.98-.56-.57333-1.22-1.01333-1.98-1.32-.74663-.31999-1.56663-.48-2.45996-.48-.89334 0-1.72.16001-2.48.48-.76.30667-1.42.74667-1.98 1.32-.56.56-1 1.22-1.32 1.98-.30667.76-.46 1.58667-.46 2.48 0 .89334.15333 1.72.46 2.48002.32.76.76 1.4267 1.32 2s1.22 1.02 1.98 1.34c.76.3067 1.58666.46 2.48.46z" fill="#000"/></svg>