<svg width="15" height="15" viewBox="0 0 15 15" fill="none" xmlns="http://www.w3.org/2000/svg">
<path d="M7.24 14.8897C6.22667 14.8897 5.27333 14.7097 4.38 14.3497C3.5 13.9764 2.73333 13.463 2.08 12.8097C1.42667 12.1564 0.913333 11.3897 0.54 10.5097C0.18 9.61636 0 8.66302 0 7.64969C0 6.62302 0.18 5.66969 0.54 4.78969C0.913333 3.90969 1.42667 3.14969 2.08 2.50969C2.73333 1.85635 3.5 1.34969 4.38 0.989687C5.26 0.616354 6.21333 0.429688 7.24 0.429688C8.26667 0.429688 9.22 0.616354 10.1 0.989687C10.98 1.34969 11.74 1.85635 12.38 2.50969C13.0333 3.14969 13.54 3.90969 13.9 4.78969C14.2733 5.66969 14.46 6.62302 14.46 7.64969C14.46 8.66302 14.2733 9.61636 13.9 10.5097C13.54 11.3897 13.0333 12.1564 12.38 12.8097C11.74 13.463 10.98 13.9764 10.1 14.3497C9.22 14.7097 8.26667 14.8897 7.24 14.8897ZM7.54 11.9697C6.23333 11.9697 5.2 11.5764 4.44 10.7897C3.68 9.98969 3.3 8.92969 3.3 7.60969C3.3 6.28969 3.68 5.24969 4.44 4.48969C5.2 3.72969 6.23333 3.34969 7.54 3.34969C8.07333 3.34969 8.6 3.44302 9.12 3.62969C9.65333 3.80302 10.0867 4.04969 10.42 4.36969L9.86 5.60969C9.54 5.31635 9.18667 5.10302 8.8 4.96969C8.41333 4.82302 8.03333 4.74969 7.66 4.74969C6.84667 4.74969 6.20667 5.00302 5.74 5.50969C5.28667 6.01635 5.06 6.72302 5.06 7.62969C5.06 8.52302 5.28667 9.23635 5.74 9.76969C6.20667 10.2897 6.84667 10.5497 7.66 10.5497C8.03333 10.5497 8.41333 10.483 8.8 10.3497C9.18667 10.203 9.54 9.98302 9.86 9.68969L10.42 10.9497C10.0867 11.2564 9.65333 11.503 9.12 11.6897C8.58667 11.8764 8.06 11.9697 7.54 11.9697ZM7.24 13.9297C8.13333 13.9297 8.95333 13.7764 9.7 13.4697C10.46 13.1497 11.12 12.703 11.68 12.1297C12.24 11.5564 12.6733 10.8897 12.98 10.1297C13.3 9.36969 13.46 8.54302 13.46 7.64969C13.46 6.75635 13.3 5.92969 12.98 5.16969C12.6733 4.40969 12.24 3.74969 11.68 3.18969C11.12 2.61635 10.46 2.17635 9.7 1.86969C8.95333 1.54969 8.13333 1.38969 7.24 1.38969C6.34667 1.38969 5.52 1.54969 4.76 1.86969C4 2.17635 3.34 2.61635 2.78 3.18969C2.22 3.74969 1.78 4.40969 1.46 5.16969C1.15333 5.92969 1 6.75635 1 7.64969C1 8.54302 1.15333 9.36969 1.46 10.1297C1.78 10.8897 2.22 11.5564 2.78 12.1297C3.34 12.703 4 13.1497 4.76 13.4697C5.52 13.7764 6.34667 13.9297 7.24 13.9297Z" fill="black"/>
</svg>
