<svg width="15" height="16" viewBox="0 0 15 16" fill="none" xmlns="http://www.w3.org/2000/svg">
<path d="M7.40504 15.2788C6.39171 15.2788 5.43837 15.0988 4.54504 14.7388C3.66504 14.3655 2.89837 13.8522 2.24504 13.1988C1.59171 12.5455 1.07837 11.7788 0.705039 10.8988C0.345039 10.0055 0.165039 9.05218 0.165039 8.03885C0.165039 7.01218 0.345039 6.05885 0.705039 5.17885C1.07837 4.29885 1.59171 3.53885 2.24504 2.89885C2.89837 2.24551 3.66504 1.73885 4.54504 1.37885C5.42504 1.00551 6.37837 0.818848 7.40504 0.818848C8.43171 0.818848 9.38504 1.00551 10.265 1.37885C11.145 1.73885 11.905 2.24551 12.545 2.89885C13.1984 3.53885 13.705 4.29885 14.065 5.17885C14.4384 6.05885 14.625 7.01218 14.625 8.03885C14.625 9.05218 14.4384 10.0055 14.065 10.8988C13.705 11.7788 13.1984 12.5455 12.545 13.1988C11.905 13.8522 11.145 14.3655 10.265 14.7388C9.38504 15.0988 8.43171 15.2788 7.40504 15.2788ZM7.70504 12.3588C6.39837 12.3588 5.36504 11.9655 4.60504 11.1788C3.84504 10.3788 3.46504 9.31885 3.46504 7.99885C3.46504 6.67885 3.84504 5.63885 4.60504 4.87885C5.36504 4.11885 6.39837 3.73885 7.70504 3.73885C8.23837 3.73885 8.76504 3.83218 9.28504 4.01885C9.81837 4.19218 10.2517 4.43885 10.585 4.75885L10.025 5.99885C9.70504 5.70551 9.35171 5.49218 8.96504 5.35885C8.57837 5.21218 8.19837 5.13885 7.82504 5.13885C7.01171 5.13885 6.37171 5.39218 5.90504 5.89885C5.45171 6.40552 5.22504 7.11218 5.22504 8.01885C5.22504 8.91218 5.45171 9.62551 5.90504 10.1588C6.37171 10.6788 7.01171 10.9388 7.82504 10.9388C8.19837 10.9388 8.57837 10.8722 8.96504 10.7388C9.35171 10.5922 9.70504 10.3722 10.025 10.0788L10.585 11.3388C10.2517 11.6455 9.81837 11.8922 9.28504 12.0788C8.75171 12.2655 8.22504 12.3588 7.70504 12.3588ZM7.40504 14.3188C8.29837 14.3188 9.11837 14.1655 9.86504 13.8588C10.625 13.5388 11.285 13.0922 11.845 12.5188C12.405 11.9455 12.8384 11.2788 13.145 10.5188C13.465 9.75885 13.625 8.93218 13.625 8.03885C13.625 7.14551 13.465 6.31885 13.145 5.55885C12.8384 4.79885 12.405 4.13885 11.845 3.57885C11.285 3.00551 10.625 2.56551 9.86504 2.25885C9.11837 1.93885 8.29837 1.77885 7.40504 1.77885C6.51171 1.77885 5.68504 1.93885 4.92504 2.25885C4.16504 2.56551 3.50504 3.00551 2.94504 3.57885C2.38504 4.13885 1.94504 4.79885 1.62504 5.55885C1.31837 6.31885 1.16504 7.14551 1.16504 8.03885C1.16504 8.93218 1.31837 9.75885 1.62504 10.5188C1.94504 11.2788 2.38504 11.9455 2.94504 12.5188C3.50504 13.0922 4.16504 13.5388 4.92504 13.8588C5.68504 14.1655 6.51171 14.3188 7.40504 14.3188Z" fill="black"/>
</svg>
