<svg width="15" height="16" viewBox="0 0 15 16" fill="none" xmlns="http://www.w3.org/2000/svg">
<path d="M7.24 15.23C6.22667 15.23 5.27333 15.05 4.38 14.69C3.5 14.3167 2.73333 13.8034 2.08 13.15C1.42667 12.4967 0.913333 11.73 0.54 10.85C0.18 9.95669 0 9.00335 0 7.99002C0 6.96335 0.18 6.01002 0.54 5.13002C0.913333 4.25002 1.42667 3.49002 2.08 2.85002C2.73333 2.19669 3.5 1.69002 4.38 1.33002C5.26 0.956686 6.21333 0.77002 7.24 0.77002C8.26667 0.77002 9.22 0.956686 10.1 1.33002C10.98 1.69002 11.74 2.19669 12.38 2.85002C13.0333 3.49002 13.54 4.25002 13.9 5.13002C14.2733 6.01002 14.46 6.96335 14.46 7.99002C14.46 9.00335 14.2733 9.95669 13.9 10.85C13.54 11.73 13.0333 12.4967 12.38 13.15C11.74 13.8034 10.98 14.3167 10.1 14.69C9.22 15.05 8.26667 15.23 7.24 15.23ZM7.54 12.31C6.23333 12.31 5.2 11.9167 4.44 11.13C3.68 10.33 3.3 9.27002 3.3 7.95002C3.3 6.63002 3.68 5.59002 4.44 4.83002C5.2 4.07002 6.23333 3.69002 7.54 3.69002C8.07333 3.69002 8.6 3.78335 9.12 3.97002C9.65333 4.14335 10.0867 4.39002 10.42 4.71002L9.86 5.95002C9.54 5.65669 9.18667 5.44335 8.8 5.31002C8.41333 5.16335 8.03333 5.09002 7.66 5.09002C6.84667 5.09002 6.20667 5.34335 5.74 5.85002C5.28667 6.35669 5.06 7.06335 5.06 7.97002C5.06 8.86335 5.28667 9.57669 5.74 10.11C6.20667 10.63 6.84667 10.89 7.66 10.89C8.03333 10.89 8.41333 10.8234 8.8 10.69C9.18667 10.5434 9.54 10.3234 9.86 10.03L10.42 11.29C10.0867 11.5967 9.65333 11.8434 9.12 12.03C8.58667 12.2167 8.06 12.31 7.54 12.31ZM7.24 14.27C8.13333 14.27 8.95333 14.1167 9.7 13.81C10.46 13.49 11.12 13.0434 11.68 12.47C12.24 11.8967 12.6733 11.23 12.98 10.47C13.3 9.71002 13.46 8.88335 13.46 7.99002C13.46 7.09669 13.3 6.27002 12.98 5.51002C12.6733 4.75002 12.24 4.09002 11.68 3.53002C11.12 2.95669 10.46 2.51669 9.7 2.21002C8.95333 1.89002 8.13333 1.73002 7.24 1.73002C6.34667 1.73002 5.52 1.89002 4.76 2.21002C4 2.51669 3.34 2.95669 2.78 3.53002C2.22 4.09002 1.78 4.75002 1.46 5.51002C1.15333 6.27002 1 7.09669 1 7.99002C1 8.88335 1.15333 9.71002 1.46 10.47C1.78 11.23 2.22 11.8967 2.78 12.47C3.34 13.0434 4 13.49 4.76 13.81C5.52 14.1167 6.34667 14.27 7.24 14.27Z" fill="black"/>
</svg>
