<svg width="14" height="16" viewBox="0 0 14 16" fill="none" xmlns="http://www.w3.org/2000/svg">
<path d="M6.40134 15.4756C6.73197 15.8062 7.26803 15.8062 7.59866 15.4756L12.9866 10.0877C13.3172 9.75708 13.3172 9.22102 12.9866 8.89039C12.6559 8.55977 12.1199 8.55977 11.7892 8.89039L7 13.6796L2.21075 8.89039C1.88012 8.55977 1.34407 8.55977 1.01344 8.89039C0.682812 9.22102 0.682812 9.75708 1.01344 10.0877L6.40134 15.4756ZM7.84663 1.33092C7.84663 0.863336 7.46758 0.484288 7 0.484288C6.53242 0.484288 6.15337 0.863336 6.15337 1.33092H7.84663ZM7.84663 14.877L7.84663 1.33092H6.15337L6.15337 14.877H7.84663Z" fill="white"/>
</svg>
