<svg width="17" height="14" viewBox="0 0 17 14" fill="none" xmlns="http://www.w3.org/2000/svg">
<path d="M15.8115 7.59866C16.1422 7.26803 16.1422 6.73197 15.8115 6.40134L10.4236 1.01344C10.093 0.682812 9.55696 0.682812 9.22633 1.01344C8.8957 1.34407 8.8957 1.88012 9.22633 2.21075L14.0156 7L9.22633 11.7892C8.8957 12.1199 8.8957 12.6559 9.22633 12.9866C9.55696 13.3172 10.093 13.3172 10.4236 12.9866L15.8115 7.59866ZM1.66685 6.15337C1.19927 6.15337 0.820226 6.53242 0.820226 7C0.820226 7.46758 1.19927 7.84663 1.66685 7.84663V6.15337ZM15.2129 6.15337L1.66685 6.15337V7.84663L15.2129 7.84663V6.15337Z" fill="white"/>
</svg>
