<svg width="17" height="14" viewBox="0 0 17 14" fill="none" xmlns="http://www.w3.org/2000/svg">
<path d="M15.8115 7.59963C16.1422 7.269 16.1422 6.73295 15.8115 6.40232L10.4236 1.01442C10.093 0.683789 9.55696 0.683789 9.22633 1.01442C8.8957 1.34505 8.8957 1.8811 9.22633 2.21173L14.0156 7.00098L9.22633 11.7902C8.8957 12.1209 8.8957 12.6569 9.22633 12.9875C9.55696 13.3182 10.093 13.3182 10.4236 12.9875L15.8115 7.59963ZM1.66685 6.15435C1.19927 6.15435 0.820226 6.5334 0.820226 7.00098C0.820226 7.46856 1.19927 7.8476 1.66685 7.8476V6.15435ZM15.2129 6.15435L1.66685 6.15435V7.8476L15.2129 7.8476V6.15435Z" fill="white"/>
</svg>
