<svg width="14" height="16" viewBox="0 0 14 16" fill="none" xmlns="http://www.w3.org/2000/svg">
<path d="M6.40134 15.376C6.73197 15.7066 7.26803 15.7066 7.59866 15.376L12.9866 9.9881C13.3172 9.65747 13.3172 9.12141 12.9866 8.79078C12.6559 8.46016 12.1199 8.46016 11.7892 8.79078L7 13.58L2.21075 8.79078C1.88012 8.46016 1.34407 8.46016 1.01344 8.79078C0.682812 9.12141 0.682812 9.65747 1.01344 9.9881L6.40134 15.376ZM7.84663 1.23131C7.84663 0.763726 7.46758 0.384679 7 0.384679C6.53242 0.384679 6.15337 0.763726 6.15337 1.23131H7.84663ZM7.84663 14.7773L7.84663 1.23131H6.15337L6.15337 14.7773H7.84663Z" fill="#0080FF"/>
</svg>
