<svg width="16" height="14" viewBox="0 0 16 14" fill="none" xmlns="http://www.w3.org/2000/svg">
<path d="M15.4776 7.59866C15.8082 7.26803 15.8082 6.73197 15.4776 6.40134L10.0897 1.01344C9.75903 0.682812 9.22298 0.682812 8.89235 1.01344C8.56172 1.34407 8.56172 1.88012 8.89235 2.21075L13.6816 7L8.89235 11.7892C8.56172 12.1199 8.56172 12.6559 8.89235 12.9866C9.22298 13.3172 9.75903 13.3172 10.0897 12.9866L15.4776 7.59866ZM1.33287 6.15337C0.865289 6.15337 0.486241 6.53242 0.486241 7C0.486241 7.46758 0.865289 7.84663 1.33287 7.84663V6.15337ZM14.8789 6.15337L1.33287 6.15337V7.84663L14.8789 7.84663V6.15337Z" fill="white"/>
</svg>
