<svg width="17" height="13" viewBox="0 0 17 13" fill="none" xmlns="http://www.w3.org/2000/svg">
<path d="M15.8716 7.09866C16.2022 6.76803 16.2022 6.23197 15.8716 5.90134L10.4837 0.513441C10.1531 0.182812 9.61702 0.182812 9.28639 0.513441C8.95576 0.844069 8.95576 1.38012 9.28639 1.71075L14.0756 6.5L9.28639 11.2892C8.95576 11.6199 8.95576 12.1559 9.28639 12.4866C9.61702 12.8172 10.1531 12.8172 10.4837 12.4866L15.8716 7.09866ZM1.72691 5.65337C1.25933 5.65337 0.880284 6.03242 0.880284 6.5C0.880284 6.96758 1.25933 7.34663 1.72691 7.34663V5.65337ZM15.2729 5.65337L1.72691 5.65337V7.34663L15.2729 7.34663V5.65337Z" fill="#0080FF"/>
</svg>
