<svg width="16" height="14" viewBox="0 0 16 14" fill="none" xmlns="http://www.w3.org/2000/svg">
<path d="M15.3716 7.59866C15.7022 7.26803 15.7022 6.73197 15.3716 6.40134L9.9837 1.01344C9.65307 0.682812 9.11702 0.682812 8.78639 1.01344C8.45576 1.34407 8.45576 1.88012 8.78639 2.21075L13.5756 7L8.78639 11.7892C8.45576 12.1199 8.45576 12.6559 8.78639 12.9866C9.11702 13.3172 9.65307 13.3172 9.9837 12.9866L15.3716 7.59866ZM1.22691 6.15337C0.759332 6.15337 0.380284 6.53242 0.380284 7C0.380284 7.46758 0.759332 7.84663 1.22691 7.84663V6.15337ZM14.7729 6.15337L1.22691 6.15337V7.84663L14.7729 7.84663V6.15337Z" fill="black"/>
</svg>
