<svg width="16" height="14" viewBox="0 0 16 14" fill="none" xmlns="http://www.w3.org/2000/svg">
<path d="M15.1455 7.59866C15.4762 7.26803 15.4762 6.73197 15.1455 6.40134L9.75763 1.01344C9.427 0.682812 8.89094 0.682812 8.56032 1.01344C8.22969 1.34407 8.22969 1.88012 8.56032 2.21075L13.3496 7L8.56032 11.7892C8.22969 12.1199 8.22969 12.6559 8.56032 12.9866C8.89094 13.3172 9.427 13.3172 9.75763 12.9866L15.1455 7.59866ZM1.00084 6.15337C0.533257 6.15337 0.15421 6.53242 0.15421 7C0.15421 7.46758 0.533257 7.84663 1.00084 7.84663V6.15337ZM14.5469 6.15337L1.00084 6.15337V7.84663L14.5469 7.84663V6.15337Z" fill="#0080FF"/>
</svg>
