<svg fill="none" height="11" viewBox="0 0 12 11" width="12" xmlns="http://www.w3.org/2000/svg"><path d="m11.6634 2.70561c.0811-.46048-.2263-.89959-.6868-.98078l-7.50388-1.323139c-.46048-.081194-.89959.226274-.98078.686749-.0812.46048.22627.89959.68675.98078l6.67012 1.17612-1.17612 6.67013c-.0812.46043.22627.89963.68675.98073.46047.0812.89956-.2262.98076-.6867zm-11.149241 6.04239c-.383019.26819-.4761036.7961-.207911 1.17912.268192.38298.796102.47608 1.179122.20788zm9.829841-6.88292-9.829841 6.88292.971211 1.387 9.82983-6.88289z" fill="#fff"/></svg>