<svg width="12" height="11" viewBox="0 0 12 11" fill="none" xmlns="http://www.w3.org/2000/svg">
<path d="M11.8286 2.75243C11.9098 2.29196 11.6024 1.85285 11.1419 1.77165L3.638 0.448513C3.17753 0.367319 2.73842 0.674788 2.65722 1.13526C2.57603 1.59574 2.8835 2.03485 3.34397 2.11604L10.0141 3.29217L8.83797 9.96229C8.75678 10.4228 9.06424 10.8619 9.52472 10.9431C9.9852 11.0243 10.4243 10.7168 10.5055 10.2563L11.8286 2.75243ZM0.679443 8.79482C0.296424 9.06301 0.203339 9.59092 0.471532 9.97394C0.739724 10.357 1.26763 10.45 1.65065 10.1819L0.679443 8.79482ZM10.5093 1.9119L0.679443 8.79482L1.65065 10.1819L11.4805 3.29893L10.5093 1.9119Z" fill="#0080FF"/>
</svg>
