<svg width="13" height="16" viewBox="0 0 13 16" fill="none" xmlns="http://www.w3.org/2000/svg">
<path d="M6.17478 15.3736C6.50541 15.7042 7.04146 15.7042 7.37209 15.3736L12.76 9.98572C13.0906 9.65509 13.0906 9.11903 12.76 8.7884C12.4294 8.45778 11.8933 8.45778 11.5627 8.7884L6.77344 13.5777L1.98419 8.7884C1.65356 8.45778 1.11751 8.45778 0.786878 8.7884C0.45625 9.11903 0.45625 9.65509 0.786878 9.98572L6.17478 15.3736ZM7.62006 1.22893C7.62006 0.761346 7.24102 0.382298 6.77344 0.382298C6.30586 0.382298 5.92681 0.761346 5.92681 1.22893H7.62006ZM7.62006 14.775L7.62006 1.22893H5.92681L5.92681 14.775H7.62006Z" fill="#0080FF"/>
</svg>
