<svg width="16" height="14" viewBox="0 0 16 14" fill="none" xmlns="http://www.w3.org/2000/svg">
<path d="M15.3098 7.64553C15.6405 7.3149 15.6405 6.77885 15.3098 6.44822L9.92193 1.06032C9.59131 0.729687 9.05525 0.729687 8.72462 1.06032C8.39399 1.39094 8.39399 1.927 8.72462 2.25763L13.5139 7.04688L8.72462 11.8361C8.39399 12.1668 8.39399 12.7028 8.72462 13.0334C9.05525 13.3641 9.59131 13.3641 9.92193 13.0334L15.3098 7.64553ZM1.16514 6.20025C0.697564 6.20025 0.318517 6.5793 0.318517 7.04687C0.318517 7.51445 0.697564 7.8935 1.16514 7.8935V6.20025ZM14.7112 6.20025L1.16514 6.20025V7.8935L14.7112 7.8935V6.20025Z" fill="white"/>
</svg>
