<svg width="17" height="13" viewBox="0 0 17 13" fill="none" xmlns="http://www.w3.org/2000/svg">
<path d="M15.8711 7.10061C16.2017 6.76998 16.2017 6.23393 15.8711 5.9033L10.4832 0.515394C10.1526 0.184765 9.61653 0.184765 9.2859 0.515394C8.95527 0.846022 8.95527 1.38208 9.2859 1.71271L14.0751 6.50195L9.2859 11.2912C8.95527 11.6218 8.95527 12.1579 9.2859 12.4885C9.61653 12.8191 10.1526 12.8191 10.4832 12.4885L15.8711 7.10061ZM1.72642 5.65533C1.25884 5.65533 0.879796 6.03437 0.879796 6.50195C0.879796 6.96953 1.25884 7.34858 1.72642 7.34858V5.65533ZM15.2725 5.65533L1.72642 5.65533V7.34858L15.2725 7.34858V5.65533Z" fill="#0080FF"/>
</svg>
