<svg width="13" height="11" viewBox="0 0 13 11" fill="none" xmlns="http://www.w3.org/2000/svg">
<path d="M12.1172 2.75049C12.1984 2.29001 11.8909 1.8509 11.4305 1.7697L3.92658 0.446567C3.4661 0.365373 3.02699 0.672841 2.9458 1.13332C2.8646 1.59379 3.17207 2.0329 3.63255 2.1141L10.3027 3.29022L9.12654 9.96034C9.04535 10.4208 9.35282 10.8599 9.81329 10.9411C10.2738 11.0223 10.7129 10.7148 10.7941 10.2544L12.1172 2.75049ZM0.968016 8.79287C0.584997 9.06106 0.491913 9.58897 0.760105 9.97199C1.0283 10.355 1.55621 10.4481 1.93923 10.1799L0.968016 8.79287ZM10.7978 1.90995L0.968016 8.79287L1.93923 10.1799L11.7691 3.29699L10.7978 1.90995Z" fill="#333333"/>
</svg>
