<svg width="17" height="13" viewBox="0 0 17 13" fill="none" xmlns="http://www.w3.org/2000/svg">
<path d="M15.8721 7.09866C16.2027 6.76803 16.2027 6.23197 15.8721 5.90134L10.4842 0.513441C10.1536 0.182812 9.61751 0.182812 9.28688 0.513441C8.95625 0.844069 8.95625 1.38012 9.28688 1.71075L14.0761 6.5L9.28688 11.2892C8.95625 11.6199 8.95625 12.1559 9.28688 12.4866C9.61751 12.8172 10.1536 12.8172 10.4842 12.4866L15.8721 7.09866ZM1.7274 5.65337C1.25982 5.65337 0.880773 6.03242 0.880773 6.5C0.880773 6.96758 1.25982 7.34663 1.7274 7.34663V5.65337ZM15.2734 5.65337L1.7274 5.65337V7.34663L15.2734 7.34663V5.65337Z" fill="#0080FF"/>
</svg>
