<svg width="16" height="14" viewBox="0 0 16 14" fill="none" xmlns="http://www.w3.org/2000/svg">
<path d="M15.6446 7.59866C15.9752 7.26803 15.9752 6.73197 15.6446 6.40134L10.2567 1.01344C9.92602 0.682812 9.38997 0.682812 9.05934 1.01344C8.72871 1.34407 8.72871 1.88012 9.05934 2.21075L13.8486 7L9.05934 11.7892C8.72871 12.1199 8.72871 12.6559 9.05934 12.9866C9.38997 13.3172 9.92602 13.3172 10.2567 12.9866L15.6446 7.59866ZM1.49986 6.15337C1.03228 6.15337 0.653234 6.53242 0.653234 7C0.653234 7.46758 1.03228 7.84663 1.49986 7.84663V6.15337ZM15.0459 6.15337L1.49986 6.15337V7.84663L15.0459 7.84663V6.15337Z" fill="white"/>
</svg>
