<svg width="16" height="14" viewBox="0 0 16 14" fill="none" xmlns="http://www.w3.org/2000/svg">
<path d="M15.1446 7.59866C15.4752 7.26803 15.4752 6.73197 15.1446 6.40134L9.75665 1.01344C9.42602 0.682812 8.88997 0.682812 8.55934 1.01344C8.22871 1.34407 8.22871 1.88012 8.55934 2.21075L13.3486 7L8.55934 11.7892C8.22871 12.1199 8.22871 12.6559 8.55934 12.9866C8.88997 13.3172 9.42602 13.3172 9.75665 12.9866L15.1446 7.59866ZM0.999861 6.15337C0.532281 6.15337 0.153233 6.53242 0.153233 7C0.153233 7.46758 0.532281 7.84663 0.999861 7.84663V6.15337ZM14.5459 6.15337L0.999861 6.15337V7.84663L14.5459 7.84663V6.15337Z" fill="white"/>
</svg>
