<svg width="16" height="14" viewBox="0 0 16 14" fill="none" xmlns="http://www.w3.org/2000/svg">
<path d="M15.6448 7.59866C15.9754 7.26803 15.9754 6.73197 15.6448 6.40134L10.2569 1.01344C9.92627 0.682812 9.39021 0.682812 9.05958 1.01344C8.72895 1.34407 8.72895 1.88012 9.05958 2.21075L13.8488 7L9.05958 11.7892C8.72895 12.1199 8.72895 12.6559 9.05958 12.9866C9.39021 13.3172 9.92627 13.3172 10.2569 12.9866L15.6448 7.59866ZM1.5001 6.15337C1.03253 6.15337 0.653478 6.53242 0.653478 7C0.653478 7.46758 1.03253 7.84663 1.5001 7.84663V6.15337ZM15.0461 6.15337L1.5001 6.15337V7.84663L15.0461 7.84663V6.15337Z" fill="white"/>
</svg>
