<svg width="13" height="11" viewBox="0 0 13 11" fill="none" xmlns="http://www.w3.org/2000/svg">
<path d="M12.1638 2.70555C12.245 2.24507 11.9376 1.80596 11.4771 1.72477L3.97321 0.40163C3.51273 0.320436 3.07362 0.627904 2.99243 1.08838C2.91123 1.54886 3.2187 1.98797 3.67918 2.06916L10.3493 3.24528L9.17318 9.9154C9.09198 10.3759 9.39945 10.815 9.85993 10.8962C10.3204 10.9774 10.7595 10.6699 10.8407 10.2094L12.1638 2.70555ZM1.01465 8.74793C0.631629 9.01613 0.538544 9.54404 0.806737 9.92706C1.07493 10.3101 1.60284 10.4032 1.98586 10.135L1.01465 8.74793ZM10.8445 1.86502L1.01465 8.74793L1.98586 10.135L11.8157 3.25205L10.8445 1.86502Z" fill="#0080FF"/>
</svg>
