<svg width="16" height="13" viewBox="0 0 16 13" fill="none" xmlns="http://www.w3.org/2000/svg">
<path d="M15.4776 7.25832C15.8082 6.9277 15.8082 6.39164 15.4776 6.06101L10.0897 0.673109C9.75903 0.34248 9.22298 0.34248 8.89235 0.673109C8.56172 1.00374 8.56172 1.53979 8.89235 1.87042L13.6816 6.65967L8.89235 11.4489C8.56172 11.7795 8.56172 12.3156 8.89235 12.6462C9.22298 12.9769 9.75903 12.9769 10.0897 12.6462L15.4776 7.25832ZM1.33287 5.81304C0.865289 5.81304 0.486241 6.19209 0.486241 6.65967C0.486241 7.12725 0.865289 7.5063 1.33287 7.5063V5.81304ZM14.8789 5.81304L1.33287 5.81304V7.5063L14.8789 7.5063V5.81304Z" fill="white"/>
</svg>
