<svg width="17" height="13" viewBox="0 0 17 13" fill="none" xmlns="http://www.w3.org/2000/svg">
<path d="M15.8717 7.09866C16.2023 6.76803 16.2023 6.23197 15.8717 5.90134L10.4838 0.513441C10.1531 0.182812 9.61708 0.182812 9.28645 0.513441C8.95582 0.844069 8.95582 1.38012 9.28645 1.71075L14.0757 6.5L9.28645 11.2892C8.95582 11.6199 8.95582 12.1559 9.28645 12.4866C9.61708 12.8172 10.1531 12.8172 10.4838 12.4866L15.8717 7.09866ZM1.72697 5.65337C1.25939 5.65337 0.880345 6.03242 0.880345 6.5C0.880345 6.96758 1.25939 7.34663 1.72697 7.34663V5.65337ZM15.273 5.65337L1.72697 5.65337V7.34663L15.273 7.34663V5.65337Z" fill="#0080FF"/>
</svg>
