<svg width="17" height="14" viewBox="0 0 17 14" fill="none" xmlns="http://www.w3.org/2000/svg">
<path d="M15.8872 7.59866C16.2179 7.26803 16.2179 6.73197 15.8872 6.40134L10.4993 1.01344C10.1687 0.682812 9.63264 0.682812 9.30201 1.01344C8.97139 1.34407 8.97139 1.88012 9.30201 2.21075L14.0913 7L9.30201 11.7892C8.97139 12.1199 8.97139 12.6559 9.30201 12.9866C9.63264 13.3172 10.1687 13.3172 10.4993 12.9866L15.8872 7.59866ZM1.74254 6.15337C1.27496 6.15337 0.895909 6.53242 0.895909 7C0.895909 7.46758 1.27496 7.84663 1.74254 7.84663V6.15337ZM15.2886 6.15337L1.74254 6.15337V7.84663L15.2886 7.84663V6.15337Z" fill="#0080FF"/>
</svg>
