<svg width="17" height="14" viewBox="0 0 17 14" fill="none" xmlns="http://www.w3.org/2000/svg">
<path d="M15.8111 7.59866C16.1417 7.26803 16.1417 6.73197 15.8111 6.40134L10.4232 1.01344C10.0925 0.682812 9.55647 0.682812 9.22584 1.01344C8.89521 1.34407 8.89521 1.88012 9.22584 2.21075L14.0151 7L9.22584 11.7892C8.89521 12.1199 8.89521 12.6559 9.22584 12.9866C9.55647 13.3172 10.0925 13.3172 10.4232 12.9866L15.8111 7.59866ZM1.66636 6.15337C1.19879 6.15337 0.819737 6.53242 0.819737 7C0.819737 7.46758 1.19879 7.84663 1.66636 7.84663V6.15337ZM15.2124 6.15337L1.66636 6.15337V7.84663L15.2124 7.84663V6.15337Z" fill="white"/>
</svg>
