<svg width="16" height="14" viewBox="0 0 16 14" fill="none" xmlns="http://www.w3.org/2000/svg">
<path d="M15.4776 7.59939C15.8082 7.26876 15.8082 6.73271 15.4776 6.40208L10.0897 1.01417C9.75903 0.683544 9.22298 0.683544 8.89235 1.01417C8.56172 1.3448 8.56172 1.88086 8.89235 2.21148L13.6816 7.00073L8.89235 11.79C8.56172 12.1206 8.56172 12.6567 8.89235 12.9873C9.22298 13.3179 9.75903 13.3179 10.0897 12.9873L15.4776 7.59939ZM1.33287 6.15411C0.865289 6.15411 0.486241 6.53315 0.486241 7.00073C0.486241 7.46831 0.865289 7.84736 1.33287 7.84736V6.15411ZM14.8789 6.15411L1.33287 6.15411V7.84736L14.8789 7.84736V6.15411Z" fill="white"/>
</svg>
