<svg width="14" height="16" viewBox="0 0 14 16" fill="none" xmlns="http://www.w3.org/2000/svg">
<path d="M6.56638 15.4185C6.89701 15.7492 7.43307 15.7492 7.7637 15.4185L13.1516 10.0306C13.4822 9.70002 13.4822 9.16396 13.1516 8.83333C12.821 8.50271 12.2849 8.50271 11.9543 8.83333L7.16504 13.6226L2.37579 8.83333C2.04516 8.50271 1.50911 8.50271 1.17848 8.83333C0.847851 9.16396 0.847851 9.70002 1.17848 10.0306L6.56638 15.4185ZM8.01167 1.27386C8.01167 0.806275 7.63262 0.427228 7.16504 0.427228C6.69746 0.427228 6.31841 0.806275 6.31841 1.27386H8.01167ZM8.01167 14.8199V1.27386H6.31841L6.31841 14.8199H8.01167Z" fill="#0080FF"/>
</svg>
