<svg fill="none" height="11" viewBox="0 0 12 11" width="12" xmlns="http://www.w3.org/2000/svg"><path d="m11.6873 2.70561c.0812-.46048-.2263-.89959-.6868-.98078l-7.50386-1.323139c-.46047-.081194-.89958.226274-.98078.686749-.08119.46048.22628.89959.68675.98078l6.67013 1.17612-1.17613 6.67013c-.08119.46043.22628.89963.68675.98073.46048.0812.89954-.2262.98074-.6867zm-11.149215 6.04239c-.383019.26819-.4761038.7961-.207911 1.17912.268192.38298.796106.47608 1.179126.20788zm9.829815-6.88292-9.829815 6.88292.971215 1.387 9.8298-6.88289z" fill="#fff"/></svg>