<svg width="12" height="11" viewBox="0 0 12 11" fill="none" xmlns="http://www.w3.org/2000/svg">
<path d="M11.6873 2.70561C11.7685 2.24513 11.461 1.80602 11.0005 1.72483L3.49664 0.401691C3.03617 0.320497 2.59706 0.627965 2.51586 1.08844C2.43467 1.54892 2.74214 1.98803 3.20261 2.06922L9.87274 3.24534L8.69661 9.91547C8.61542 10.3759 8.92289 10.8151 9.38336 10.8962C9.84384 10.9774 10.2829 10.67 10.3641 10.2095L11.6873 2.70561ZM0.538085 8.748C0.155066 9.01619 0.0619812 9.5441 0.330174 9.92712C0.598366 10.3101 1.12628 10.4032 1.5093 10.135L0.538085 8.748ZM10.3679 1.86508L0.538085 8.748L1.5093 10.135L11.3391 3.25211L10.3679 1.86508Z" fill="white"/>
</svg>
