<svg width="16" height="14" viewBox="0 0 16 14" fill="none" xmlns="http://www.w3.org/2000/svg">
<path d="M15.668 7.60061C15.9986 7.26998 15.9986 6.73393 15.668 6.4033L10.2801 1.01539C9.94946 0.684765 9.4134 0.684765 9.08278 1.01539C8.75215 1.34602 8.75215 1.88208 9.08278 2.21271L13.872 7.00195L9.08278 11.7912C8.75215 12.1218 8.75215 12.6579 9.08278 12.9885C9.4134 13.3191 9.94946 13.3191 10.2801 12.9885L15.668 7.60061ZM1.5233 6.15533C1.05572 6.15533 0.676671 6.53437 0.676671 7.00195C0.676671 7.46953 1.05572 7.84858 1.5233 7.84858V6.15533ZM15.0693 6.15533L1.5233 6.15533V7.84858L15.0693 7.84858V6.15533Z" fill="#0080FF"/>
</svg>
