<svg width="17" height="14" viewBox="0 0 17 14" fill="none" xmlns="http://www.w3.org/2000/svg">
<path d="M15.8557 7.64553C16.1864 7.3149 16.1864 6.77885 15.8557 6.44822L10.4678 1.06032C10.1372 0.729687 9.60115 0.729687 9.27052 1.06032C8.93989 1.39094 8.93989 1.927 9.27052 2.25763L14.0598 7.04688L9.27052 11.8361C8.93989 12.1668 8.93989 12.7028 9.27052 13.0334C9.60115 13.3641 10.1372 13.3641 10.4678 13.0334L15.8557 7.64553ZM1.71104 6.20025C1.24346 6.20025 0.864415 6.5793 0.864415 7.04687C0.864415 7.51445 1.24346 7.8935 1.71104 7.8935V6.20025ZM15.2571 6.20025L1.71104 6.20025V7.8935L15.2571 7.8935V6.20025Z" fill="white"/>
</svg>
