<svg width="16" height="14" viewBox="0 0 16 14" fill="none" xmlns="http://www.w3.org/2000/svg">
<path d="M15.1447 7.5967C15.4753 7.26607 15.4753 6.73002 15.1447 6.39939L9.75677 1.01149C9.42614 0.680859 8.89009 0.680859 8.55946 1.01149C8.22883 1.34212 8.22883 1.87817 8.55946 2.2088L13.3487 6.99805L8.55946 11.7873C8.22883 12.1179 8.22883 12.654 8.55946 12.9846C8.89009 13.3152 9.42614 13.3152 9.75677 12.9846L15.1447 7.5967ZM0.999983 6.15142C0.532403 6.15142 0.153356 6.53047 0.153356 6.99805C0.153356 7.46563 0.532403 7.84467 0.999983 7.84467V6.15142ZM14.546 6.15142L0.999983 6.15142V7.84467L14.546 7.84467V6.15142Z" fill="white"/>
</svg>
