<svg width="16" height="14" viewBox="0 0 16 14" fill="none" xmlns="http://www.w3.org/2000/svg">
<path d="M15.2653 7.59866C15.5959 7.26803 15.5959 6.73197 15.2653 6.40134L9.87738 1.01344C9.54675 0.682812 9.01069 0.682812 8.68007 1.01344C8.34944 1.34407 8.34944 1.88012 8.68007 2.21075L13.4693 7L8.68007 11.7892C8.34944 12.1199 8.34944 12.6559 8.68007 12.9866C9.01069 13.3172 9.54675 13.3172 9.87738 12.9866L15.2653 7.59866ZM1.12059 6.15337C0.653008 6.15337 0.273961 6.53242 0.273961 7C0.273961 7.46758 0.653008 7.84663 1.12059 7.84663V6.15337ZM14.6666 6.15337L1.12059 6.15337V7.84663L14.6666 7.84663V6.15337Z" fill="#0080FF"/>
</svg>
