<svg width="17" height="14" viewBox="0 0 17 14" fill="none" xmlns="http://www.w3.org/2000/svg">
<path d="M15.8716 7.59866C16.2022 7.26803 16.2022 6.73197 15.8716 6.40134L10.4837 1.01344C10.1531 0.682812 9.61702 0.682812 9.28639 1.01344C8.95576 1.34407 8.95576 1.88012 9.28639 2.21075L14.0756 7L9.28639 11.7892C8.95576 12.1199 8.95576 12.6559 9.28639 12.9866C9.61702 13.3172 10.1531 13.3172 10.4837 12.9866L15.8716 7.59866ZM1.72691 6.15337C1.25933 6.15337 0.880284 6.53242 0.880284 7C0.880284 7.46758 1.25933 7.84663 1.72691 7.84663V6.15337ZM15.2729 6.15337L1.72691 6.15337V7.84663L15.2729 7.84663V6.15337Z" fill="white"/>
</svg>
