<svg width="17" height="14" viewBox="0 0 17 14" fill="none" xmlns="http://www.w3.org/2000/svg">
<path d="M15.918 7.60061C16.2486 7.26998 16.2486 6.73393 15.918 6.4033L10.5301 1.01539C10.1995 0.684765 9.6634 0.684765 9.33278 1.01539C9.00215 1.34602 9.00215 1.88208 9.33278 2.21271L14.122 7.00195L9.33278 11.7912C9.00215 12.1218 9.00215 12.6579 9.33278 12.9885C9.6634 13.3191 10.1995 13.3191 10.5301 12.9885L15.918 7.60061ZM1.7733 6.15533C1.30572 6.15533 0.926671 6.53437 0.926671 7.00195C0.926671 7.46953 1.30572 7.84858 1.7733 7.84858V6.15533ZM15.3193 6.15533L1.7733 6.15533V7.84858L15.3193 7.84858V6.15533Z" fill="#0080FF"/>
</svg>
