<svg width="17" height="13" viewBox="0 0 17 13" fill="none" xmlns="http://www.w3.org/2000/svg">
<path d="M15.8716 7.10061C16.2022 6.76998 16.2022 6.23393 15.8716 5.9033L10.4837 0.515394C10.1531 0.184765 9.61702 0.184765 9.28639 0.515394C8.95576 0.846022 8.95576 1.38208 9.28639 1.71271L14.0756 6.50195L9.28639 11.2912C8.95576 11.6218 8.95576 12.1579 9.28639 12.4885C9.61702 12.8191 10.1531 12.8191 10.4837 12.4885L15.8716 7.10061ZM1.72691 5.65533C1.25933 5.65533 0.880284 6.03437 0.880284 6.50195C0.880284 6.96953 1.25933 7.34858 1.72691 7.34858V5.65533ZM15.2729 5.65533L1.72691 5.65533V7.34858L15.2729 7.34858V5.65533Z" fill="#0080FF"/>
</svg>
