<svg width="16" height="13" viewBox="0 0 16 13" fill="none" xmlns="http://www.w3.org/2000/svg">
<path d="M15.5987 6.86721C15.9293 6.53658 15.9293 6.00053 15.5987 5.6699L10.2108 0.281995C9.88012 -0.0486331 9.34407 -0.0486331 9.01344 0.281995C8.68281 0.612624 8.68281 1.14868 9.01344 1.47931L13.8027 6.26855L9.01344 11.0578C8.68281 11.3884 8.68281 11.9245 9.01344 12.2551C9.34407 12.5857 9.88012 12.5857 10.2108 12.2551L15.5987 6.86721ZM1.45396 5.42193C0.986382 5.42193 0.607335 5.80098 0.607335 6.26855C0.607335 6.73613 0.986382 7.11518 1.45396 7.11518V5.42193ZM15 5.42193L1.45396 5.42193V7.11518L15 7.11518V5.42193Z" fill="#0080FF"/>
</svg>
