<svg width="16" height="14" viewBox="0 0 16 14" fill="none" xmlns="http://www.w3.org/2000/svg">
<path d="M15.4776 7.59963C15.8082 7.269 15.8082 6.73295 15.4776 6.40232L10.0897 1.01442C9.75903 0.683789 9.22298 0.683789 8.89235 1.01442C8.56172 1.34505 8.56172 1.8811 8.89235 2.21173L13.6816 7.00098L8.89235 11.7902C8.56172 12.1209 8.56172 12.6569 8.89235 12.9875C9.22298 13.3182 9.75903 13.3182 10.0897 12.9875L15.4776 7.59963ZM1.33287 6.15435C0.865289 6.15435 0.486241 6.5334 0.486241 7.00098C0.486241 7.46856 0.865289 7.8476 1.33287 7.8476V6.15435ZM14.8789 6.15435L1.33287 6.15435V7.8476L14.8789 7.8476V6.15435Z" fill="white"/>
</svg>
