<svg width="14" height="16" viewBox="0 0 14 16" fill="none" xmlns="http://www.w3.org/2000/svg">
<path d="M6.40134 15.3721C6.73197 15.7027 7.26803 15.7027 7.59866 15.3721L12.9866 9.98419C13.3172 9.65356 13.3172 9.11751 12.9866 8.78688C12.6559 8.45625 12.1199 8.45625 11.7892 8.78688L7 13.5761L2.21075 8.78688C1.88012 8.45625 1.34407 8.45625 1.01344 8.78688C0.682812 9.11751 0.682812 9.65356 1.01344 9.98419L6.40134 15.3721ZM7.84663 1.2274C7.84663 0.75982 7.46758 0.380773 7 0.380773C6.53242 0.380773 6.15337 0.75982 6.15337 1.2274H7.84663ZM7.84663 14.7734L7.84663 1.2274H6.15337L6.15337 14.7734H7.84663Z" fill="#0080FF"/>
</svg>
