<svg width="13" height="16" viewBox="0 0 13 16" fill="none" xmlns="http://www.w3.org/2000/svg">
<path d="M6.17478 15.3736C6.50541 15.7042 7.04146 15.7042 7.37209 15.3736L12.76 9.98565C13.0906 9.65503 13.0906 9.11897 12.76 8.78834C12.4294 8.45771 11.8933 8.45771 11.5627 8.78834L6.77344 13.5776L1.98419 8.78834C1.65356 8.45771 1.11751 8.45771 0.786878 8.78834C0.45625 9.11897 0.45625 9.65503 0.786878 9.98565L6.17478 15.3736ZM7.62006 1.22886C7.62006 0.761285 7.24102 0.382237 6.77344 0.382237C6.30586 0.382237 5.92681 0.761285 5.92681 1.22886H7.62006ZM7.62006 14.7749L7.62006 1.22886H5.92681L5.92681 14.7749H7.62006Z" fill="#0080FF"/>
</svg>
