<svg width="17" height="14" viewBox="0 0 17 14" fill="none" xmlns="http://www.w3.org/2000/svg">
<path d="M15.9317 7.59866C16.2623 7.26803 16.2623 6.73197 15.9317 6.40134L10.5438 1.01344C10.2131 0.682812 9.67708 0.682812 9.34645 1.01344C9.01582 1.34407 9.01582 1.88012 9.34645 2.21075L14.1357 7L9.34645 11.7892C9.01582 12.1199 9.01582 12.6559 9.34645 12.9866C9.67708 13.3172 10.2131 13.3172 10.5438 12.9866L15.9317 7.59866ZM1.78697 6.15337C1.31939 6.15337 0.940343 6.53242 0.940343 7C0.940343 7.46758 1.31939 7.84663 1.78697 7.84663V6.15337ZM15.333 6.15337L1.78697 6.15337V7.84663L15.333 7.84663V6.15337Z" fill="#0080FF"/>
</svg>
