<svg fill="none" height="11" viewBox="0 0 12 11" width="12" xmlns="http://www.w3.org/2000/svg"><path d="m11.9522 2.70366c.0812-.46048-.2263-.89959-.6868-.98078l-7.50386-1.323142c-.46048-.081194-.89959.226274-.98078.686752-.0812.46047.22627.89958.68675.98078l6.67009 1.17612-1.17609 6.67012c-.0812.46049.22627.89959.68675.98079.46044.0812.89954-.2263.98074-.6868zm-11.149223 6.04238c-.383019.26819-.476103.79611-.207911 1.17912.268193.38304.796104.47614 1.179124.20794zm9.829823-6.88292-9.829823 6.88292.971213 1.38706 9.82981-6.88294z" fill="#333"/></svg>