<svg fill="none" height="11" viewBox="0 0 13 11" width="13" xmlns="http://www.w3.org/2000/svg"><path d="m12.1634 2.70561c.0811-.46048-.2263-.89959-.6868-.98078l-7.50388-1.323139c-.46048-.081194-.89959.226274-.98078.686749-.0812.46048.22627.89959.68675.98078l6.67011 1.17612-1.17611 6.67013c-.0812.46043.22627.89963.68675.98073.46046.0812.89956-.2262.98076-.6867zm-11.14924 6.04239c-.38302.26819-.476105.7961-.207912 1.17912.268192.38298.796102.47608 1.179122.20788zm9.82984-6.88292-9.82984 6.88292.97121 1.387 9.82983-6.88289z" fill="#fff"/></svg>