<svg width="16" height="14" viewBox="0 0 16 14" fill="none" xmlns="http://www.w3.org/2000/svg">
<path d="M15.3097 7.64748C15.6403 7.31686 15.6403 6.7808 15.3097 6.45017L9.92181 1.06227C9.59118 0.73164 9.05513 0.73164 8.7245 1.06227C8.39387 1.3929 8.39387 1.92895 8.7245 2.25958L13.5137 7.04883L8.7245 11.8381C8.39387 12.1687 8.39387 12.7048 8.7245 13.0354C9.05513 13.366 9.59118 13.366 9.92181 13.0354L15.3097 7.64748ZM1.16502 6.2022C0.697442 6.2022 0.318395 6.58125 0.318395 7.04883C0.318395 7.51641 0.697442 7.89546 1.16502 7.89546V6.2022ZM14.7111 6.2022L1.16502 6.2022V7.89546L14.7111 7.89546V6.2022Z" fill="white"/>
</svg>
