<svg fill="none" height="11" viewBox="0 0 12 11" width="12" xmlns="http://www.w3.org/2000/svg"><path d="m11.6636 2.70561c.0812-.46048-.2263-.89959-.6868-.98078l-7.50384-1.323139c-.46047-.081194-.89958.226274-.98078.686749-.08119.46048.22628.89959.68675.98078l6.67012 1.17612-1.17612 6.67013c-.08119.46043.22628.89963.68675.98073.46048.0812.89962-.2262.98082-.6867zm-11.149196 6.04238c-.383019.2682-.4761037.79611-.207911 1.17913.268192.38298.796107.47608 1.179117.20788zm9.829796-6.88291-9.829796 6.88291.971206 1.38701 9.82979-6.88289z" fill="#0080ff"/></svg>