<svg width="16" height="14" viewBox="0 0 16 14" fill="none" xmlns="http://www.w3.org/2000/svg">
<path d="M15.168 7.60061C15.4986 7.26998 15.4986 6.73393 15.168 6.4033L9.78009 1.01539C9.44946 0.684765 8.9134 0.684765 8.58278 1.01539C8.25215 1.34602 8.25215 1.88208 8.58278 2.21271L13.372 7.00195L8.58278 11.7912C8.25215 12.1218 8.25215 12.6579 8.58278 12.9885C8.9134 13.3191 9.44946 13.3191 9.78009 12.9885L15.168 7.60061ZM1.0233 6.15533C0.555718 6.15533 0.176671 6.53437 0.176671 7.00195C0.176671 7.46953 0.555718 7.84858 1.0233 7.84858V6.15533ZM14.5693 6.15533L1.0233 6.15533V7.84858L14.5693 7.84858V6.15533Z" fill="#0080FF"/>
</svg>
