<svg width="16" height="13" viewBox="0 0 16 13" fill="none" xmlns="http://www.w3.org/2000/svg">
<path d="M15.6446 7.10061C15.9752 6.76998 15.9752 6.23393 15.6446 5.9033L10.2567 0.515394C9.92602 0.184765 9.38997 0.184765 9.05934 0.515394C8.72871 0.846022 8.72871 1.38208 9.05934 1.71271L13.8486 6.50195L9.05934 11.2912C8.72871 11.6218 8.72871 12.1579 9.05934 12.4885C9.38997 12.8191 9.92602 12.8191 10.2567 12.4885L15.6446 7.10061ZM1.49986 5.65533C1.03228 5.65533 0.653234 6.03437 0.653234 6.50195C0.653234 6.96953 1.03228 7.34858 1.49986 7.34858V5.65533ZM15.0459 5.65533L1.49986 5.65533V7.34858L15.0459 7.34858V5.65533Z" fill="#0080FF"/>
</svg>
