<svg width="16" height="14" viewBox="0 0 16 14" fill="none" xmlns="http://www.w3.org/2000/svg">
<path d="M15.0523 7.64553C15.3829 7.3149 15.3829 6.77885 15.0523 6.44822L9.66437 1.06032C9.33374 0.729687 8.79768 0.729687 8.46705 1.06032C8.13643 1.39094 8.13643 1.927 8.46705 2.25763L13.2563 7.04688L8.46705 11.8361C8.13643 12.1668 8.13643 12.7028 8.46705 13.0334C8.79768 13.3641 9.33374 13.3641 9.66437 13.0334L15.0523 7.64553ZM0.907576 6.20025C0.439996 6.20025 0.0609484 6.5793 0.0609484 7.04687C0.0609484 7.51445 0.439996 7.8935 0.907576 7.8935V6.20025ZM14.4536 6.20025L0.907576 6.20025V7.8935L14.4536 7.8935V6.20025Z" fill="#0080FF"/>
</svg>
