<svg width="14" height="14" viewBox="0 0 14 14" fill="none" xmlns="http://www.w3.org/2000/svg">
<path d="M0.401344 6.40134C0.0707155 6.73197 0.0707155 7.26803 0.401344 7.59866L5.78925 12.9866C6.11988 13.3172 6.65593 13.3172 6.98656 12.9866C7.31719 12.6559 7.31719 12.1199 6.98656 11.7892L2.19731 7L6.98656 2.21075C7.31719 1.88012 7.31719 1.34407 6.98656 1.01344C6.65593 0.682812 6.11988 0.682812 5.78925 1.01344L0.401344 6.40134ZM13 7.84663C13.4676 7.84663 13.8466 7.46758 13.8466 7C13.8466 6.53242 13.4676 6.15337 13 6.15337V7.84663ZM1 7.84663H13V6.15337H1V7.84663Z" fill="#0080FF"/>
</svg>
