<svg width="17" height="13" viewBox="0 0 17 13" fill="none" xmlns="http://www.w3.org/2000/svg">
<path d="M15.8115 7.25832C16.1422 6.9277 16.1422 6.39164 15.8115 6.06101L10.4236 0.673109C10.093 0.34248 9.55696 0.34248 9.22633 0.673109C8.8957 1.00374 8.8957 1.53979 9.22633 1.87042L14.0156 6.65967L9.22633 11.4489C8.8957 11.7795 8.8957 12.3156 9.22633 12.6462C9.55696 12.9769 10.093 12.9769 10.4236 12.6462L15.8115 7.25832ZM1.66685 5.81304C1.19927 5.81304 0.820226 6.19209 0.820226 6.65967C0.820226 7.12725 1.19927 7.5063 1.66685 7.5063V5.81304ZM15.2129 5.81304L1.66685 5.81304V7.5063L15.2129 7.5063V5.81304Z" fill="white"/>
</svg>
