<svg fill="none" height="11" viewBox="0 0 12 11" width="12" xmlns="http://www.w3.org/2000/svg"><path d="m11.6636 2.70359c.0812-.46047-.2263-.89958-.6868-.98078l-7.50384-1.323133c-.46047-.081195-.89958.226274-.98078.686753-.08119.46047.22628.89958.68675.98078l6.67012 1.17612-1.17612 6.67012c-.08119.46045.22628.89955.68675.98075.46048.0812.89962-.2262.98082-.6867zm-11.149196 6.04239c-.383019.26819-.4761038.7961-.207911 1.17912.268192.383.796107.4761 1.179117.2079zm9.829796-6.88292-9.829796 6.88292.971206 1.38702 9.82979-6.8829z" fill="#0080ff"/></svg>