<svg width="17" height="14" viewBox="0 0 17 14" fill="none" xmlns="http://www.w3.org/2000/svg">
<path d="M15.8115 7.72292C16.1422 7.39229 16.1422 6.85624 15.8115 6.52561L10.4236 1.13771C10.093 0.80708 9.55696 0.80708 9.22633 1.13771C8.8957 1.46834 8.8957 2.00439 9.22633 2.33502L14.0156 7.12427L9.22633 11.9135C8.8957 12.2441 8.8957 12.7802 9.22633 13.1108C9.55696 13.4415 10.093 13.4415 10.4236 13.1108L15.8115 7.72292ZM1.66685 6.27764C1.19927 6.27764 0.820226 6.65669 0.820226 7.12427C0.820226 7.59185 1.19927 7.97089 1.66685 7.97089V6.27764ZM15.2129 6.27764L1.66685 6.27764V7.97089L15.2129 7.97089V6.27764Z" fill="white"/>
</svg>
