<svg fill="none" height="11" viewBox="0 0 13 11" width="13" xmlns="http://www.w3.org/2000/svg"><path d="m12.1638 2.70561c.0812-.46048-.2262-.89959-.6867-.98078l-7.50389-1.323139c-.46048-.081194-.89959.226274-.98078.686749-.0812.46048.22627.89959.68675.98078l6.67012 1.17612-1.17612 6.67013c-.0812.46043.22627.89963.68675.98073.46047.0812.89957-.2262.98077-.6867zm-11.14915 6.04238c-.383021.2682-.476106.79611-.207913 1.17913.268193.38298.796103.47608 1.179123.20788zm9.82985-6.88291-9.82985 6.88291.97121 1.38701 9.82984-6.88289z" fill="#0080ff"/></svg>