<svg width="12" height="12" viewBox="0 0 12 12" fill="none" xmlns="http://www.w3.org/2000/svg">
<path d="M11.9522 2.98588C12.0334 2.52541 11.7259 2.0863 11.2654 2.0051L3.76154 0.681964C3.30106 0.60077 2.86195 0.908239 2.78076 1.36871C2.69956 1.82919 3.00703 2.2683 3.46751 2.34949L10.1376 3.52562L8.96151 10.1957C8.88031 10.6562 9.18778 11.0953 9.64826 11.1765C10.1087 11.2577 10.5478 10.9502 10.629 10.4898L11.9522 2.98588ZM0.802977 9.02827C0.419958 9.29646 0.326874 9.82437 0.595066 10.2074C0.863259 10.5904 1.39117 10.6835 1.77419 10.4153L0.802977 9.02827ZM10.6328 2.14535L0.802977 9.02827L1.77419 10.4153L11.604 3.53238L10.6328 2.14535Z" fill="#333333"/>
</svg>
