<svg width="16" height="13" viewBox="0 0 16 13" fill="none" xmlns="http://www.w3.org/2000/svg">
<path d="M15.624 7.09866C15.9547 6.76803 15.9547 6.23197 15.624 5.90134L10.2361 0.513441C9.90551 0.182812 9.36946 0.182812 9.03883 0.513441C8.7082 0.844069 8.7082 1.38012 9.03883 1.71075L13.8281 6.5L9.03883 11.2892C8.7082 11.6199 8.7082 12.1559 9.03883 12.4866C9.36946 12.8172 9.90551 12.8172 10.2361 12.4866L15.624 7.09866ZM1.47935 5.65337C1.01177 5.65337 0.632726 6.03242 0.632726 6.5C0.632726 6.96758 1.01177 7.34663 1.47935 7.34663V5.65337ZM15.0254 5.65337L1.47935 5.65337V7.34663L15.0254 7.34663V5.65337Z" fill="#0080FF"/>
</svg>
