<svg width="16" height="14" viewBox="0 0 16 14" fill="none" xmlns="http://www.w3.org/2000/svg">
<path d="M15.6216 7.59866C15.9522 7.26803 15.9522 6.73197 15.6216 6.40134L10.2337 1.01344C9.90307 0.682812 9.36702 0.682812 9.03639 1.01344C8.70576 1.34407 8.70576 1.88012 9.03639 2.21075L13.8256 7L9.03639 11.7892C8.70576 12.1199 8.70576 12.6559 9.03639 12.9866C9.36702 13.3172 9.90307 13.3172 10.2337 12.9866L15.6216 7.59866ZM1.47691 6.15337C1.00933 6.15337 0.630284 6.53242 0.630284 7C0.630284 7.46758 1.00933 7.84663 1.47691 7.84663V6.15337ZM15.0229 6.15337L1.47691 6.15337V7.84663L15.0229 7.84663V6.15337Z" fill="black"/>
</svg>
