<svg fill="none" height="11" viewBox="0 0 12 11" width="12" xmlns="http://www.w3.org/2000/svg"><path d="m11.6638 2.70561c.0812-.46048-.2262-.89959-.6867-.98078l-7.50389-1.323139c-.46048-.081194-.89959.226274-.98078.686749-.0812.46048.22627.89959.68675.98078l6.67012 1.17612-1.17612 6.67013c-.0812.46043.22627.89963.68675.98073.46047.0812.89957-.2262.98077-.6867zm-11.149153 6.04239c-.383019.26819-.4761033.7961-.207911 1.17912.268193.38298.796104.47608 1.179124.20788zm9.829853-6.88292-9.829853 6.88292.971213 1.387 9.82984-6.88289z" fill="#fff"/></svg>