<svg width="17" height="14" viewBox="0 0 17 14" fill="none" xmlns="http://www.w3.org/2000/svg">
<path d="M15.8115 7.52737C16.1422 7.19674 16.1422 6.66068 15.8115 6.33005L10.4236 0.942152C10.093 0.611523 9.55696 0.611523 9.22633 0.942152C8.8957 1.27278 8.8957 1.80883 9.22633 2.13946L14.0156 6.92871L9.22633 11.718C8.8957 12.0486 8.8957 12.5846 9.22633 12.9153C9.55696 13.2459 10.093 13.2459 10.4236 12.9153L15.8115 7.52737ZM1.66685 6.08208C1.19927 6.08208 0.820226 6.46113 0.820226 6.92871C0.820226 7.39629 1.19927 7.77534 1.66685 7.77534V6.08208ZM15.2129 6.08208L1.66685 6.08208V7.77534L15.2129 7.77534V6.08208Z" fill="white"/>
</svg>
