<svg width="12" height="11" viewBox="0 0 12 11" fill="none" xmlns="http://www.w3.org/2000/svg">
<path d="M11.6638 2.70561C11.745 2.24513 11.4376 1.80602 10.9771 1.72483L3.47321 0.401691C3.01273 0.320497 2.57362 0.627965 2.49243 1.08844C2.41123 1.54892 2.7187 1.98803 3.17918 2.06922L9.8493 3.24534L8.67318 9.91547C8.59198 10.3759 8.89945 10.8151 9.35993 10.8962C9.8204 10.9774 10.2595 10.67 10.3407 10.2095L11.6638 2.70561ZM0.514648 8.74799C0.131629 9.01619 0.0385445 9.5441 0.306737 9.92712C0.57493 10.3101 1.10284 10.4032 1.48586 10.135L0.514648 8.74799ZM10.3445 1.86508L0.514648 8.74799L1.48586 10.135L11.3157 3.25211L10.3445 1.86508Z" fill="#0080FF"/>
</svg>
