<svg width="13" height="11" viewBox="0 0 13 11" fill="none" xmlns="http://www.w3.org/2000/svg">
<path d="M12.1638 2.70561C12.245 2.24513 11.9376 1.80602 11.4771 1.72483L3.97321 0.401691C3.51273 0.320497 3.07362 0.627965 2.99243 1.08844C2.91123 1.54892 3.2187 1.98803 3.67918 2.06922L10.3493 3.24534L9.17318 9.91547C9.09198 10.3759 9.39945 10.8151 9.85993 10.8962C10.3204 10.9774 10.7595 10.67 10.8407 10.2095L12.1638 2.70561ZM1.01465 8.74799C0.631629 9.01619 0.538544 9.5441 0.806737 9.92712C1.07493 10.3101 1.60284 10.4032 1.98586 10.135L1.01465 8.74799ZM10.8445 1.86508L1.01465 8.74799L1.98586 10.135L11.8157 3.25211L10.8445 1.86508Z" fill="#0080FF"/>
</svg>
