<svg fill="none" height="11" viewBox="0 0 13 11" width="13" xmlns="http://www.w3.org/2000/svg"><path d="m12.1638 2.70555c.0812-.46048-.2262-.89959-.6867-.98078l-7.50389-1.32314c-.46048-.081194-.89959.226274-.98078.68675-.0812.46048.22627.89959.68675.98078l6.67012 1.17612-1.17612 6.67012c-.0812.4605.22627.8996.68675.9808.46047.0812.89957-.2263.98077-.6868zm-11.14915 6.04238c-.383021.2682-.476106.79611-.207913 1.17913.268193.38304.796103.47614 1.179123.20794zm9.82985-6.88291-9.82985 6.88291.97121 1.38707 9.82984-6.88295z" fill="#0080ff"/></svg>