<svg width="16" height="14" viewBox="0 0 16 14" fill="none" xmlns="http://www.w3.org/2000/svg">
<path d="M15.4781 7.59866C15.8087 7.26803 15.8087 6.73197 15.4781 6.40134L10.0901 1.01344C9.75952 0.682812 9.22346 0.682812 8.89284 1.01344C8.56221 1.34407 8.56221 1.88012 8.89284 2.21075L13.6821 7L8.89284 11.7892C8.56221 12.1199 8.56221 12.6559 8.89284 12.9866C9.22346 13.3172 9.75952 13.3172 10.0901 12.9866L15.4781 7.59866ZM1.33336 6.15337C0.865777 6.15337 0.48673 6.53242 0.48673 7C0.48673 7.46758 0.865777 7.84663 1.33336 7.84663V6.15337ZM14.8794 6.15337L1.33336 6.15337V7.84663L14.8794 7.84663V6.15337Z" fill="white"/>
</svg>
