<svg width="16" height="13" viewBox="0 0 16 13" fill="none" xmlns="http://www.w3.org/2000/svg">
<path d="M15.1446 7.07131C15.4752 6.74068 15.4752 6.20463 15.1446 5.874L9.75665 0.486097C9.42602 0.155468 8.88997 0.155468 8.55934 0.486097C8.22871 0.816725 8.22871 1.35278 8.55934 1.68341L13.3486 6.47266L8.55934 11.2619C8.22871 11.5925 8.22871 12.1286 8.55934 12.4592C8.88997 12.7898 9.42602 12.7898 9.75665 12.4592L15.1446 7.07131ZM0.999861 5.62603C0.532281 5.62603 0.153234 6.00508 0.153234 6.47266C0.153234 6.94024 0.532281 7.31928 0.999861 7.31928V5.62603ZM14.5459 5.62603L0.999861 5.62603V7.31928L14.5459 7.31928V5.62603Z" fill="white"/>
</svg>
