<svg fill="none" height="11" viewBox="0 0 13 11" width="13" xmlns="http://www.w3.org/2000/svg"><path d="m12.1873 2.70561c.0812-.46048-.2263-.89959-.6868-.98078l-7.50386-1.323139c-.46047-.081194-.89958.226274-.98078.686749-.08119.46048.22628.89959.68675.98078l6.67009 1.17612-1.17609 6.67013c-.08119.46043.22628.89963.68675.98073.46044.0812.89954-.2262.98074-.6867zm-11.14922 6.04239c-.383014.26819-.476099.7961-.207906 1.17912.268196.38298.796106.47608 1.179126.20788zm9.82982-6.88292-9.82982 6.88292.97122 1.387 9.8298-6.88289z" fill="#fff"/></svg>