<svg width="16" height="14" viewBox="0 0 16 14" fill="none" xmlns="http://www.w3.org/2000/svg">
<path d="M15.1448 7.60061C15.4754 7.26998 15.4754 6.73393 15.1448 6.4033L9.7569 1.01539C9.42627 0.684765 8.89021 0.684765 8.55958 1.01539C8.22895 1.34602 8.22895 1.88208 8.55958 2.21271L13.3488 7.00195L8.55958 11.7912C8.22895 12.1218 8.22895 12.6579 8.55958 12.9885C8.89021 13.3191 9.42627 13.3191 9.7569 12.9885L15.1448 7.60061ZM1.0001 6.15533C0.532525 6.15533 0.153478 6.53437 0.153478 7.00195C0.153478 7.46953 0.532525 7.84858 1.0001 7.84858V6.15533ZM14.5461 6.15533L1.0001 6.15533V7.84858L14.5461 7.84858V6.15533Z" fill="white"/>
</svg>
