<svg width="16" height="14" viewBox="0 0 16 14" fill="none" xmlns="http://www.w3.org/2000/svg">
<path d="M15.1216 7.59866C15.4522 7.26803 15.4522 6.73197 15.1216 6.40134L9.7337 1.01344C9.40307 0.682812 8.86702 0.682812 8.53639 1.01344C8.20576 1.34407 8.20576 1.88012 8.53639 2.21075L13.3256 7L8.53639 11.7892C8.20576 12.1199 8.20576 12.6559 8.53639 12.9866C8.86702 13.3172 9.40307 13.3172 9.7337 12.9866L15.1216 7.59866ZM0.976912 6.15337C0.509332 6.15337 0.130284 6.53242 0.130284 7C0.130284 7.46758 0.509332 7.84663 0.976912 7.84663V6.15337ZM14.5229 6.15337L0.976912 6.15337V7.84663L14.5229 7.84663V6.15337Z" fill="white"/>
</svg>
