<svg width="16" height="14" viewBox="0 0 16 14" fill="none" xmlns="http://www.w3.org/2000/svg">
<path d="M15.1448 7.59866C15.4754 7.26803 15.4754 6.73197 15.1448 6.40134L9.7569 1.01344C9.42627 0.682812 8.89021 0.682812 8.55958 1.01344C8.22895 1.34407 8.22895 1.88012 8.55958 2.21075L13.3488 7L8.55958 11.7892C8.22895 12.1199 8.22895 12.6559 8.55958 12.9866C8.89021 13.3172 9.42627 13.3172 9.7569 12.9866L15.1448 7.59866ZM1.0001 6.15337C0.532526 6.15337 0.153478 6.53242 0.153478 7C0.153478 7.46758 0.532526 7.84663 1.0001 7.84663V6.15337ZM14.5461 6.15337L1.0001 6.15337V7.84663L14.5461 7.84663V6.15337Z" fill="#333333"/>
</svg>
