<svg width="16" height="14" viewBox="0 0 16 14" fill="none" xmlns="http://www.w3.org/2000/svg">
<path d="M15.1447 7.59866C15.4753 7.26803 15.4753 6.73197 15.1447 6.40134L9.75679 1.01344C9.42616 0.682812 8.8901 0.682812 8.55948 1.01344C8.22885 1.34407 8.22885 1.88012 8.55948 2.21075L13.3487 7L8.55948 11.7892C8.22885 12.1199 8.22885 12.6559 8.55948 12.9866C8.8901 13.3172 9.42616 13.3172 9.75679 12.9866L15.1447 7.59866ZM0.999998 6.15337C0.532418 6.15337 0.153371 6.53242 0.153371 7C0.153371 7.46758 0.532418 7.84663 0.999998 7.84663V6.15337ZM14.546 6.15337L0.999998 6.15337V7.84663L14.546 7.84663V6.15337Z" fill="#0080FF"/>
</svg>
