<svg width="17" height="14" viewBox="0 0 17 14" fill="none" xmlns="http://www.w3.org/2000/svg">
<path d="M15.8115 7.59939C16.1422 7.26876 16.1422 6.73271 15.8115 6.40208L10.4236 1.01417C10.093 0.683544 9.55696 0.683544 9.22633 1.01417C8.8957 1.3448 8.8957 1.88086 9.22633 2.21148L14.0156 7.00073L9.22633 11.79C8.8957 12.1206 8.8957 12.6567 9.22633 12.9873C9.55696 13.3179 10.093 13.3179 10.4236 12.9873L15.8115 7.59939ZM1.66685 6.15411C1.19927 6.15411 0.820226 6.53315 0.820226 7.00073C0.820226 7.46831 1.19927 7.84736 1.66685 7.84736V6.15411ZM15.2129 6.15411L1.66685 6.15411V7.84736L15.2129 7.84736V6.15411Z" fill="white"/>
</svg>
