<svg width="17" height="14" viewBox="0 0 17 14" fill="none" xmlns="http://www.w3.org/2000/svg">
<path d="M15.8113 7.59866C16.1419 7.26803 16.1419 6.73197 15.8113 6.40134L10.4234 1.01344C10.0928 0.682812 9.55672 0.682812 9.22609 1.01344C8.89546 1.34407 8.89546 1.88012 9.22609 2.21075L14.0153 7L9.22609 11.7892C8.89546 12.1199 8.89546 12.6559 9.22609 12.9866C9.55672 13.3172 10.0928 13.3172 10.4234 12.9866L15.8113 7.59866ZM1.66661 6.15337C1.19903 6.15337 0.819982 6.53242 0.819982 7C0.819982 7.46758 1.19903 7.84663 1.66661 7.84663V6.15337ZM15.2126 6.15337L1.66661 6.15337V7.84663L15.2126 7.84663V6.15337Z" fill="white"/>
</svg>
