<svg width="16" height="13" viewBox="0 0 16 13" fill="none" xmlns="http://www.w3.org/2000/svg">
<path d="M15.5987 7.11721C15.9293 6.78658 15.9293 6.25053 15.5987 5.9199L10.2108 0.531995C9.88012 0.201367 9.34407 0.201367 9.01344 0.531995C8.68281 0.862624 8.68281 1.39868 9.01344 1.72931L13.8027 6.51855L9.01344 11.3078C8.68281 11.6384 8.68281 12.1745 9.01344 12.5051C9.34407 12.8357 9.88012 12.8357 10.2108 12.5051L15.5987 7.11721ZM1.45396 5.67193C0.986382 5.67193 0.607335 6.05098 0.607335 6.51855C0.607335 6.98613 0.986382 7.36518 1.45396 7.36518V5.67193ZM15 5.67193L1.45396 5.67193V7.36518L15 7.36518V5.67193Z" fill="#0080FF"/>
</svg>
