<svg width="17" height="13" viewBox="0 0 17 13" fill="none" xmlns="http://www.w3.org/2000/svg">
<path d="M15.8711 7.09866C16.2017 6.76803 16.2017 6.23197 15.8711 5.90134L10.4832 0.513441C10.1526 0.182812 9.61653 0.182812 9.2859 0.513441C8.95527 0.844069 8.95527 1.38012 9.2859 1.71075L14.0751 6.5L9.2859 11.2892C8.95527 11.6199 8.95527 12.1559 9.2859 12.4866C9.61653 12.8172 10.1526 12.8172 10.4832 12.4866L15.8711 7.09866ZM1.72642 5.65337C1.25884 5.65337 0.879796 6.03242 0.879796 6.5C0.879796 6.96758 1.25884 7.34663 1.72642 7.34663V5.65337ZM15.2725 5.65337L1.72642 5.65337V7.34663L15.2725 7.34663V5.65337Z" fill="#0080FF"/>
</svg>
