<svg width="16" height="14" viewBox="0 0 16 14" fill="none" xmlns="http://www.w3.org/2000/svg">
<path d="M15.1446 7.60061C15.4752 7.26998 15.4752 6.73393 15.1446 6.4033L9.75665 1.01539C9.42602 0.684765 8.88997 0.684765 8.55934 1.01539C8.22871 1.34602 8.22871 1.88208 8.55934 2.21271L13.3486 7.00195L8.55934 11.7912C8.22871 12.1218 8.22871 12.6579 8.55934 12.9885C8.88997 13.3191 9.42602 13.3191 9.75665 12.9885L15.1446 7.60061ZM0.999861 6.15533C0.532281 6.15533 0.153233 6.53437 0.153233 7.00195C0.153233 7.46953 0.532281 7.84858 0.999861 7.84858V6.15533ZM14.5459 6.15533L0.999861 6.15533V7.84858L14.5459 7.84858V6.15533Z" fill="#0080FF"/>
</svg>
