<svg width="16" height="14" viewBox="0 0 16 14" fill="none" xmlns="http://www.w3.org/2000/svg">
<path d="M15.418 7.60061C15.7486 7.26998 15.7486 6.73393 15.418 6.4033L10.0301 1.01539C9.69946 0.684765 9.1634 0.684765 8.83278 1.01539C8.50215 1.34602 8.50215 1.88208 8.83278 2.21271L13.622 7.00195L8.83278 11.7912C8.50215 12.1218 8.50215 12.6579 8.83278 12.9885C9.1634 13.3191 9.69946 13.3191 10.0301 12.9885L15.418 7.60061ZM1.2733 6.15533C0.805718 6.15533 0.426671 6.53437 0.426671 7.00195C0.426671 7.46953 0.805718 7.84858 1.2733 7.84858V6.15533ZM14.8193 6.15533L1.2733 6.15533V7.84858L14.8193 7.84858V6.15533Z" fill="#0080FF"/>
</svg>
