<svg width="12" height="11" viewBox="0 0 12 11" fill="none" xmlns="http://www.w3.org/2000/svg">
<path d="M11.6636 2.70561C11.7448 2.24513 11.4373 1.80602 10.9768 1.72483L3.47296 0.401691C3.01249 0.320497 2.57338 0.627965 2.49218 1.08844C2.41099 1.54892 2.71846 1.98803 3.17893 2.06922L9.84905 3.24534L8.67293 9.91547C8.59174 10.3759 8.89921 10.8151 9.35968 10.8962C9.82016 10.9774 10.2593 10.67 10.3405 10.2095L11.6636 2.70561ZM0.514404 8.74799C0.131385 9.01619 0.0383003 9.5441 0.306493 9.92712C0.574685 10.3101 1.1026 10.4032 1.48561 10.135L0.514404 8.74799ZM10.3442 1.86508L0.514404 8.74799L1.48561 10.135L11.3154 3.25211L10.3442 1.86508Z" fill="#0080FF"/>
</svg>
