<svg width="16" height="14" viewBox="0 0 16 14" fill="none" xmlns="http://www.w3.org/2000/svg">
<path d="M15.1446 7.66116C15.4752 7.33053 15.4752 6.79447 15.1446 6.46384L9.75665 1.07594C9.42602 0.745312 8.88997 0.745312 8.55934 1.07594C8.22871 1.40657 8.22871 1.94262 8.55934 2.27325L13.3486 7.0625L8.55934 11.8517C8.22871 12.1824 8.22871 12.7184 8.55934 13.0491C8.88997 13.3797 9.42602 13.3797 9.75665 13.0491L15.1446 7.66116ZM0.999861 6.21587C0.532281 6.21587 0.153234 6.59492 0.153234 7.0625C0.153234 7.53008 0.532281 7.90913 0.999861 7.90913V6.21587ZM14.5459 6.21587L0.999861 6.21587V7.90913L14.5459 7.90913V6.21587Z" fill="#0080FF"/>
</svg>
