<svg width="16" height="14" viewBox="0 0 16 14" fill="none" xmlns="http://www.w3.org/2000/svg">
<path d="M15.4785 7.52737C15.8092 7.19674 15.8092 6.66068 15.4785 6.33005L10.0906 0.942152C9.76001 0.611523 9.22395 0.611523 8.89332 0.942152C8.56269 1.27278 8.56269 1.80883 8.89332 2.13946L13.6826 6.92871L8.89332 11.718C8.56269 12.0486 8.56269 12.5846 8.89332 12.9153C9.22395 13.2459 9.76001 13.2459 10.0906 12.9153L15.4785 7.52737ZM1.33385 6.08208C0.866266 6.08208 0.487218 6.46113 0.487218 6.92871C0.487218 7.39629 0.866266 7.77534 1.33385 7.77534V6.08208ZM14.8799 6.08208L1.33385 6.08208V7.77534L14.8799 7.77534V6.08208Z" fill="white"/>
</svg>
