<svg width="16" height="13" viewBox="0 0 16 13" fill="none" xmlns="http://www.w3.org/2000/svg">
<path d="M15.1446 7.11721C15.4752 6.78658 15.4752 6.25053 15.1446 5.9199L9.75665 0.531995C9.42602 0.201367 8.88997 0.201367 8.55934 0.531995C8.22871 0.862624 8.22871 1.39868 8.55934 1.72931L13.3486 6.51855L8.55934 11.3078C8.22871 11.6384 8.22871 12.1745 8.55934 12.5051C8.88997 12.8357 9.42602 12.8357 9.75665 12.5051L15.1446 7.11721ZM0.999861 5.67193C0.532281 5.67193 0.153234 6.05098 0.153234 6.51855C0.153234 6.98613 0.532281 7.36518 0.999861 7.36518V5.67193ZM14.5459 5.67193L0.999861 5.67193V7.36518L14.5459 7.36518V5.67193Z" fill="#0080FF"/>
</svg>
