<svg width="16" height="14" viewBox="0 0 16 14" fill="none" xmlns="http://www.w3.org/2000/svg">
<path d="M15.4776 7.72292C15.8082 7.39229 15.8082 6.85624 15.4776 6.52561L10.0897 1.13771C9.75903 0.80708 9.22298 0.80708 8.89235 1.13771C8.56172 1.46834 8.56172 2.00439 8.89235 2.33502L13.6816 7.12427L8.89235 11.9135C8.56172 12.2441 8.56172 12.7802 8.89235 13.1108C9.22298 13.4415 9.75903 13.4415 10.0897 13.1108L15.4776 7.72292ZM1.33287 6.27764C0.865289 6.27764 0.486241 6.65669 0.486241 7.12427C0.486241 7.59185 0.865289 7.97089 1.33287 7.97089V6.27764ZM14.8789 6.27764L1.33287 6.27764V7.97089L14.8789 7.97089V6.27764Z" fill="white"/>
</svg>
