<svg fill="none" height="12" viewBox="0 0 12 12" width="12" xmlns="http://www.w3.org/2000/svg"><path d="m11.9522 2.98588c.0812-.46047-.2263-.89958-.6868-.98078l-7.50386-1.323136c-.46048-.081194-.89959.226275-.98078.686746-.0812.46048.22627.89959.68675.98078l6.67009 1.17613-1.17609 6.67008c-.0812.4605.22627.8996.68675.9808.46044.0812.89954-.2263.98074-.6867zm-11.149223 6.04239c-.383019.26819-.476103.7961-.207911 1.17913.268193.383.796104.4761 1.179124.2079zm9.829823-6.88292-9.829823 6.88292.971213 1.38703 9.82981-6.88292z" fill="#333"/></svg>