<svg width="16" height="14" viewBox="0 0 16 14" fill="none" xmlns="http://www.w3.org/2000/svg">
<path d="M15.1455 7.37795C15.4762 7.04732 15.4762 6.51127 15.1455 6.18064L9.75763 0.792737C9.427 0.462109 8.89094 0.462109 8.56032 0.792737C8.22969 1.12337 8.22969 1.65942 8.56032 1.99005L13.3496 6.7793L8.56032 11.5685C8.22969 11.8992 8.22969 12.4352 8.56032 12.7659C8.89094 13.0965 9.427 13.0965 9.75763 12.7659L15.1455 7.37795ZM1.00084 5.93267C0.533257 5.93267 0.15421 6.31172 0.15421 6.7793C0.15421 7.24688 0.533257 7.62592 1.00084 7.62592V5.93267ZM14.5469 5.93267L1.00084 5.93267V7.62592L14.5469 7.62592V5.93267Z" fill="#0080FF"/>
</svg>
