<svg width="16" height="14" viewBox="0 0 16 14" fill="none" xmlns="http://www.w3.org/2000/svg">
<path d="M15.1446 7.66079C15.4752 7.33016 15.4752 6.79411 15.1446 6.46348L9.75665 1.07557C9.42602 0.744946 8.88997 0.744946 8.55934 1.07557C8.22871 1.4062 8.22871 1.94226 8.55934 2.27289L13.3486 7.06213L8.55934 11.8514C8.22871 12.182 8.22871 12.7181 8.55934 13.0487C8.88997 13.3793 9.42602 13.3793 9.75665 13.0487L15.1446 7.66079ZM0.999861 6.21551C0.532281 6.21551 0.153234 6.59455 0.153234 7.06213C0.153234 7.52971 0.532281 7.90876 0.999861 7.90876V6.21551ZM14.5459 6.21551L0.999861 6.21551V7.90876L14.5459 7.90876V6.21551Z" fill="#0080FF"/>
</svg>
