<svg fill="none" height="300" viewBox="0 0 300 300" width="300" xmlns="http://www.w3.org/2000/svg" xmlns:xlink="http://www.w3.org/1999/xlink"><clipPath id="a"><rect height="300" rx="24" width="300"/></clipPath><g clip-path="url(#a)"><rect fill="#56ccf2" height="300" rx="24" width="300"/><path d="m214.679 107.368 11.215-101.67952-53.362-.00001 10.299 103.95953c1.347 13.594-3.502 27.07-13.199 36.691l-7.765 7.703c-3.125 3.099-2.128 8.375 1.912 10.12 5.313 2.296 8.753 7.529 8.753 13.316v20.107c0 1.108.385 2.182 1.089 3.038l.391.475c1.559 1.894 4.177 2.54 6.439 1.588 1.525-.642 3.287-.32 4.485.822l1.379 1.313c1.992 1.896 5.004 2.233 7.364.822 1.401-.837 3.142-.868 4.571-.081l.692.381c2.306 1.27 5.142 1.069 7.246-.513 1.527-1.148 3.471-1.589 5.343-1.211l.284.057c2.906.587 5.754-1.236 6.438-4.121l4.119-17.364c2.295-9.678 1.631-19.877-1.869-29.188-5.529-14.713-7.547-30.611-5.824-46.235z" fill="#ffb7b7"/><path d="m122.482 89.9159-101.5933-4.1419v55.281l110.3963-12.388c10.469-1.175 20.96 2.008 29.011 8.803l5.147 4.343c3.332 2.813 8.433 1.613 10.163-2.39 2.401-5.556 7.875-9.154 13.928-9.154h22.996c1.108 0 2.182-.385 3.038-1.09l.475-.39c1.895-1.56 2.541-4.178 1.588-6.44-.642-1.525-.319-3.286.822-4.485l1.313-1.379c1.897-1.992 2.233-5.003.822-7.364-.837-1.401-.868-3.141-.08-4.571l.38-.691c1.27-2.306 1.069-5.1428-.513-7.2469-1.148-1.5265-1.588-3.471-1.21-5.3432l.049-.2465c.588-2.9115-1.27-5.7558-4.172-6.3879l-21.062-4.5873c-9.412-2.0499-19.215-1.3376-28.232 2.0513l-4.009 1.507c-12.531 4.7099-25.881 6.8558-39.257 6.3104z" fill="#683838"/><path d="m88.6793 184.223-11.2145 101.68h53.3622l-10.299-103.96c-1.347-13.593 3.501-27.07 13.199-36.69l7.765-7.703c3.124-3.1 2.127-8.375-1.913-10.121-5.312-2.295-8.752-7.528-8.752-13.316v-22.1026c0-1.1083-.385-2.1823-1.09-3.0382l-.39-.4749c-1.56-1.8947-4.178-2.5407-6.439-1.5884-1.526.6423-3.287.3196-4.486-.8218l-1.379-1.3132c-1.992-1.8963-5.003-2.2324-7.364-.8218-1.401.8373-3.141.868-4.571.0806l-.691-.3806c-2.306-1.2699-5.1427-1.0691-7.2468.513-1.5265 1.1479-3.471 1.5884-5.3432 1.2106l-.2604-.0526c-2.9097-.5872-5.7555 1.2574-6.4075 4.1532l-4.4108 19.5887c-2.1421 9.514-1.4554 19.446 1.9755 28.575l.1648.438c5.5299 14.713 7.5138 30.522 5.7907 46.145z" fill="#ff7f80"/><path d="m179.026 200.677 96.787-.635v-47.926l-107.899 10.429c-9.617.929-19.249-1.615-27.152-7.172l-5.385-3.786c-3.516-2.473-8.416-1.09-10.12 2.856-2.503 5.792-8.209 9.542-14.519 9.542h-19.2451c-1.1084 0-2.1824.385-3.0382 1.09l-.475.39c-1.8947 1.56-2.5406 4.178-1.5884 6.439.6423 1.526.3197 3.287-.8218 4.486l-1.3131 1.379c-1.8964 1.992-2.2325 5.003-.8219 7.364.8373 1.401.868 3.141.0806 4.571l-.3806.691c-1.2699 2.306-1.0691 5.143.5131 7.247 1.1478 1.526 1.5883 3.471 1.2105 5.343l-.0571.283c-.5866 2.907 1.2365 5.755 4.1215 6.439l15.6825 3.72c10.718 2.542 21.976 1.474 32.024-3.039l2.084-.936c12.681-5.695 26.411-8.684 40.313-8.775z" fill="#391f1f"/><path d="m223.45 161.443-5.414-14.404c-3.596-9.569-12.748-15.906-22.97-15.906-6.474 0-12.686 2.559-17.282 7.118l-15.917 15.791c-3.125 3.099-2.128 8.375 1.912 10.12 5.313 2.296 8.753 7.529 8.753 13.316v22.769c0 1.108.385 2.182 1.089 3.038l.391.475c1.559 1.895 4.177 2.541 6.439 1.588 1.525-.642 3.287-.319 4.485.822l1.379 1.313c1.992 1.897 5.004 2.233 7.364.822 1.401-.837 3.142-.868 4.571-.08l.692.38c2.306 1.27 5.142 1.069 7.246-.513 1.527-1.148 3.471-1.588 5.343-1.21l.254.051c2.91.587 5.755-1.264 6.397-4.163l6.21-28.046c.98-4.424.653-9.038-.942-13.281z" fill="#ffb7b7"/><path d="m22.8971 143.609c-.4021 2.172-2.1818 3.822-4.3777 4.06l-123.0194 13.331-6.557-81.5082 6.557-4.9918 133.0421 7.7354c3.0037.1746 5.174 2.9434 4.6262 5.9019z" fill="#000"/><path d="m163.436-34.9863 67.78 20.6744-5.338 77.9078c-.18 2.6226-2.36 4.6582-4.988 4.6582h-43.672c-2.589 0-4.75-1.9767-4.98-4.5558z" fill="#ff776e"/><path d="m257.842 156.853c0-2.586 1.972-4.746 4.548-4.979l70.664-6.411v54.238c0 2.761-2.238 5-5 5h-65.212c-2.762 0-5-2.239-5-5z" fill="#fff"/><path d="m273.15 153.33c0-2.59 1.979-4.752 4.56-4.98l128.29-11.35 5.401 9.001-15.86 55.084c-.616 2.141-2.576 3.616-4.805 3.616h-112.586c-2.761 0-5-2.238-5-5z" fill="#00f"/><path d="m77.4648 231.001c0-2.761 2.2386-5 5-5h43.9132c2.762 0 5 2.239 5 5v17.631h-53.9132z" fill="#9f9f9f"/><path d="m72.8066 244.978c0-2.762 2.2386-5 5-5h53.2314c2.762 0 5 2.238 5 5v88.694l-54.7709-13.829c-.322-.081-.6351-.194-.9346-.337l-7.5259-3.602z" fill="#c4c4c4"/></g></svg>