<svg fill="none" height="70" viewBox="0 0 140 70" width="140" xmlns="http://www.w3.org/2000/svg"><path d="m111.053 67.1644h-97.5152l-10.90499-21.045.24-.51 19.96499-42.48001h97.4252l10.875 21.10501zm-96.1502-2.25h94.7102l19.02-40.62-9.735-18.90001h-94.6202l-19.13999 40.68001z" fill="#2c269a"/><path d="m111.053 67.1644h-97.5152l-10.90499-21.045.24-.51 19.96499-42.48001h97.4252l10.875 21.10501zm-96.1502-2.25h94.7102l19.02-40.62-9.735-18.90001h-94.6202l-19.13999 40.68001z" fill="#82dbe1"/><path d="m22.8387 3.13062h96.0603l9.735 21.14998-19.02 40.635h-94.7103l-9.76503-18.84z" fill="#82dbe1"/><g fill="#2c269a"><path d="m27.8486 23.3975h6.165c6.21 0 11.28 5.04 11.28 11.28s-5.07 11.28-11.28 11.28h-6.165zm6.135 20.16c5.01 0 8.91-3.795 8.91-8.88s-3.9-8.88-8.91-8.88h-3.765v17.745h3.765z"/><path d="m64.2684 29.6675c0 3.495-2.79 6.24-6.285 6.24h-5.685v10.05h-2.4v-22.56h8.085c3.495 0 6.285 2.82 6.285 6.27zm-2.4.045c0-2.4-1.845-3.99-4.095-3.99h-5.46v7.905h5.46c2.25 0 4.095-1.44 4.095-3.915z"/><path d="m90.0389 34.0027v.675c0 6.39-5.19 11.58-11.58 11.58-6.435 0-11.58-5.19-11.58-11.58s5.16-11.58 11.58-11.58c4.32 0 8.085 2.37 10.035 5.865l-2.07 1.17c-1.545-2.79-4.545-4.62-7.965-4.62-5.085 0-9.18 4.065-9.18 9.18s4.095 9.18 9.18 9.18c4.545 0 8.31-3.24 9.03-7.605h-9.06v-2.25h11.61z"/><path d="m131.782 16.8542h-29.88v29.88h29.88z"/><path d="m137.185 26.2056-25.876-14.94-14.9404 25.8761 25.8764 14.94z"/><path d="m122.249 11.2629-25.876 14.94 14.94 25.8761 25.876-14.94z"/></g><path d="m109.283 32.0187 5.67 5.67 11.04-11.04" stroke="#fff" stroke-miterlimit="10" stroke-width="1.5"/></svg>