<svg fill="none" height="47" viewBox="0 0 93 47" width="93" xmlns="http://www.w3.org/2000/svg"><path d="m73.5202 44.5816h-65.00997l-7.27-14.03.16-.34 13.30997-28.32h64.95l7.25 14.07zm-64.09997-1.5h63.13997l12.68-27.08-6.49-12.6h-63.08l-12.75997 27.12z" fill="#2c269a"/><path d="m73.5202 44.5816h-65.00997l-7.27-14.03.16-.34 13.30997-28.32h64.95l7.25 14.07zm-64.09997-1.5h63.13997l12.68-27.08-6.49-12.6h-63.08l-12.75997 27.12z" fill="#82dbe1"/><path d="m14.7102 1.8916h64.04l6.49 14.1-12.68 27.09h-63.14004l-6.51-12.56z" fill="#82dbe1"/><g fill="#2c269a"><path d="m18.0503 15.4014h4.11c4.14 0 7.52 3.36 7.52 7.52s-3.38 7.52-7.52 7.52h-4.11zm4.09 13.44c3.34 0 5.94-2.53 5.94-5.92s-2.6-5.92-5.94-5.92h-2.51v11.83h2.51z"/><path d="m42.3305 19.5814c0 2.33-1.86 4.16-4.19 4.16h-3.79v6.7h-1.6v-15.04h5.39c2.33 0 4.19 1.88 4.19 4.18zm-1.6.03c0-1.6-1.23-2.66-2.73-2.66h-3.64v5.27h3.64c1.5 0 2.73-.96 2.73-2.61z"/><path d="m59.5103 22.4712v.45c0 4.26-3.46 7.72-7.72 7.72-4.29 0-7.72-3.46-7.72-7.72s3.44-7.72 7.72-7.72c2.88 0 5.39 1.58 6.69 3.91l-1.38.78c-1.03-1.86-3.03-3.08-5.31-3.08-3.39 0-6.12 2.71-6.12 6.12s2.73 6.12 6.12 6.12c3.03 0 5.54-2.16 6.02-5.07h-6.04v-1.5h7.74z"/><path d="m87.3404 11.042h-19.92v19.92h19.92z"/><path d="m90.9421 17.2764-17.2507-9.95999-9.96 17.25069 17.2507 9.96z"/><path d="m80.9846 7.31441-17.2507 9.95999 9.96 17.2507 17.2507-9.96z"/></g><path d="m72.3403 21.1513 3.78 3.78 7.36-7.36" stroke="#fff" stroke-miterlimit="10"/></svg>