<svg fill="none" height="217" viewBox="0 0 217 217" width="217" xmlns="http://www.w3.org/2000/svg" xmlns:xlink="http://www.w3.org/1999/xlink"><clipPath id="a"><path d="m0 0h216.551v216.551h-216.551z"/></clipPath><g clip-path="url(#a)"><path d="m74.2461 95.3857h28.8734v17.5303h-28.8734z" fill="#fff"/><path d="m82.9671 55.753 1.0766 6.1497c.1411.8054-.3931 1.574-1.1972 1.7227-.6492.12-1.3001-.2014-1.5995-.7899l-2.6615-5.2326c-1.373-2.6995-4.4879-4.0214-7.3834-3.1334l-3.0369.9313c-2.2763.6981-4.7294-.3036-5.8665-2.3955l-3.207-5.9001 17.2154 2.265c3.376.4442 6.0728 3.0287 6.66 6.3828z" fill="#0d06c1"/><path d="m88.8878 55.9712 1.9938 10.6007c.1755.9333-.4408 1.8317-1.3747 2.0039-.7554.1393-1.5112-.2405-1.8503-.9297l-3.6554-7.4306c-2.7326-5.5547-9.0829-8.317-15.0095-6.529l-2.4687.7448c-3.2878.9919-6.6082-1.4471-6.645-4.881l-.0564-5.271 17.9124 1.5801c5.5636.4907 10.1215 4.6228 11.1538 10.1118z" fill="#241ed3"/><path d="m89.4865 52.8754 7.168 11.0921c.5799.8974.2967 2.097-.6233 2.6403-.7643.4514-1.7401.3069-2.3409-.3465l-7.8528-8.5414c-4.0333-4.387-10.2282-6.0668-15.9252-4.3183l-3.3369 1.0241c-3.2949 1.0113-6.6352-1.4327-6.6685-4.8791l-.0455-4.6924 18.4933 1.4029c4.5412.3445 8.6599 2.7933 11.1318 6.6183z" fill="#403add"/><path d="m123.664 165.285-5.138 13.061c-.447 1.135.108 2.418 1.242 2.869 1.043.416 2.233-.015 2.768-1.002l2.575-4.753c3.344-6.171 10.208-9.57 17.142-8.491l9.194 1.431-6.446-13.42-7.976.534c-5.968.399-11.171 4.204-13.361 9.771z" fill="#0d06c1"/><path d="m118.104 160.129-14.716 13.389c-1.015.923-.908 2.55.219 3.333.705.491 1.636.51 2.362.051l5.095-3.228c7.036-4.456 15.173-6.868 23.502-6.965l11.579-.135-3.054-14.733-18.437 4.75c-2.439.628-4.687 1.842-6.55 3.538z" fill="#241ed3"/><path d="m117.155 155.991-23.6384 11.004c-.9894.461-1.5049 1.565-1.2225 2.62.326 1.216 1.5876 1.927 2.7971 1.577l15.6768-4.547c5.471-1.587 11.135-2.41 16.832-2.447l14.047-.091.564-11.667-20.2 2.197c-1.682.182-3.322.64-4.856 1.354z" fill="#403add"/><path d="m115.328 151.814-21.4651 8.18c-1.2754.486-1.9765 1.858-1.6233 3.176.3723 1.389 1.7807 2.232 3.1807 1.902l20.2977-4.774c2.388-.562 4.875-.548 7.256.041l14.32 3.543c1.681.416 1.816 2.753.194 3.359l-2.067.773c-2.216.829-4.553 1.291-6.919 1.368l-7.979.26c-1.665.055-2.966 1.459-2.893 3.124.063 1.453 1.163 2.65 2.605 2.838l19.16 2.488c5.795.753 11.675.515 17.39-.703l30.032-6.401c4.711-1.004 8.079-5.165 8.079-9.982 0-5.637-4.57-10.206-10.206-10.206h-27.948-35.905c-1.883 0-3.749.343-5.509 1.014z" fill="#5b57ca"/><ellipse cx="112.142" cy="107.245" rx="61.0983" ry="61.356" stroke="#5b57ca" stroke-width="1.03119"/><path clip-rule="evenodd" d="m51.0442 186.646c-9.9665 0-18.0459-8.08-18.0459-18.046 0-9.967 8.0794-18.046 18.0459-18.046h17.5303c.2847 0 .5156.231.5156.515v17.531c0 9.966-8.0794 18.046-18.0459 18.046z" fill="#5b57ca" fill-rule="evenodd"/><rect height="3.60918" rx="1.80459" stroke="#fff" stroke-width=".515597" transform="matrix(0 -1 1 0 -127.8675 226.3465)" width="3.60918" x="49.2395" y="177.107"/><rect height="3.60918" rx="1.80459" stroke="#fff" stroke-width=".515597" transform="matrix(0 -1 1 0 -121.1645 219.6435)" width="3.60918" x="49.2395" y="170.404"/><rect height="3.60918" rx="1.80459" stroke="#fff" stroke-width=".515597" transform="matrix(0 -1 1 0 -114.4625 212.9415)" width="3.60918" x="49.2395" y="163.702"/><rect fill="#5b57ca" height="4.12478" rx="2.06239" width="4.12478" x="79.9175" y="102.088"/><rect fill="#5b57ca" height="4.12478" rx="2.06239" width="4.12478" x="86.6204" y="102.088"/><rect fill="#5b57ca" height="4.12478" rx="2.06239" width="4.12478" x="93.323" y="102.088"/><circle cx="80.1754" cy="84.3004" fill="#fff500" r="6.96056"/><path d="m102.984 40.2168-5.5362 5.4138 5.5362 5.4137" stroke="#fff500" stroke-linecap="round" stroke-linejoin="round" stroke-width="1.03119"/><path d="m120.785 40.2168 5.536 5.4138-5.536 5.4137" stroke="#fff500" stroke-linecap="round" stroke-linejoin="round" stroke-width="1.03119"/><circle cx="111.627" cy="45.6306" fill="#fff500" r="3.86698"/><g fill="#5b57ca"><path d="m126.837 106.986c0 .285.231.516.516.516.284 0 .515-.231.515-.516zm70.228 37.746c.201-.202.201-.528 0-.73l-3.281-3.281c-.202-.201-.528-.201-.729 0-.202.202-.202.528 0 .729l2.916 2.917-2.916 2.917c-.202.201-.202.528 0 .729.201.201.527.201.729 0zm-107.8666-.881c-20.7973 0-37.6386-16.515-37.6386-36.865h-1.0312c0 20.94 17.323 37.897 38.6698 37.897zm-37.6386-36.865c0-20.3499 16.8413-36.8649 37.6386-36.8649v-1.0312c-21.3468 0-38.6698 16.9569-38.6698 37.8961zm37.6386-36.8649c20.7976 0 37.6386 16.515 37.6386 36.8649h1.031c0-20.9392-17.323-37.8961-38.6696-37.8961zm0 74.7619h107.5016v-1.032h-107.5016z"/><path d="m127.868 106.987c0-.285-.231-.516-.515-.516-.285 0-.516.231-.516.516zm22.429-22.4289v-.5156zm-48.058-.3646c-.201.2014-.201.5278 0 .7292l3.282 3.2812c.201.2014.527.2014.729 0 .201-.2013.201-.5278 0-.7291l-2.917-2.9167 2.917-2.9167c.201-.2013.201-.5278 0-.7291-.202-.2014-.528-.2014-.729 0zm48.058.8802c12.398 0 22.428 9.8217 22.428 21.9133h1.031c0-12.6831-10.514-22.9445-23.459-22.9445zm22.428 21.9133c0 12.091-10.03 21.912-22.428 21.912v1.032c12.945 0 23.459-10.262 23.459-22.944zm-22.428 21.912c-12.398 0-22.429-9.821-22.429-21.912h-1.031c0 12.682 10.514 22.944 23.46 22.944zm0-44.8565h-47.693v1.0312h47.693z"/><path d="m73.3612 42.0917c-.0736.2751.0896.5578.3646.6315l4.4823 1.201c.275.0737.5578-.0895.6315-.3646.0737-.275-.0896-.5577-.3646-.6314l-3.9842-1.0676 1.0675-3.9842c.0737-.2751-.0895-.5578-.3646-.6315-.275-.0737-.5577.0895-.6314.3646zm76.5658 132.6163c-.073.275.09.558.365.632l4.482 1.201c.275.073.558-.09.632-.365.073-.275-.09-.558-.365-.631l-3.984-1.068 1.067-3.984c.074-.275-.089-.558-.364-.632-.275-.073-.558.09-.632.365zm-75.8099-132.0363c37.1229-21.4328 84.2309-9.303 105.2269 27.063l.893-.5156c-21.291-36.876-69.037-49.1482-106.6355-27.4404zm105.2269 27.063c20.996 36.3663 7.946 83.2273-29.176 104.6603l.515.893c37.599-21.708 50.844-69.193 29.554-106.0689z"/><path d="m43.9324 129.779c.2014-.201.2014-.528 0-.729l-3.2812-3.281c-.2014-.202-.5278-.202-.7292 0-.2013.201-.2013.528 0 .729l2.9167 2.917-2.9167 2.916c-.2013.202-.2013.528 0 .729.2014.202.5278.202.7292 0zm-23.3086-22.793h.5156zm22.9441-22.4284v.5156zm36.6073.5156c.2848 0 .5156-.2308.5156-.5156 0-.2847-.2308-.5156-.5156-.5156zm-36.6074 43.8258c-12.398 0-22.4284-9.822-22.4284-21.913h-1.0312c0 12.683 10.5143 22.944 23.4596 22.944zm-22.4284-21.913c0-12.089 10.1699-21.9128 22.4285-21.9128v-1.0312c-12.8017 0-23.4597 10.2594-23.4597 22.944zm22.4285-21.9128h36.6073v-1.0312h-36.6073z"/></g><circle cx="111.369" cy="168.6" fill="#fff500" r="6.18716"/><path d="m176.85 160.864h12.371" stroke="#f55c5c" stroke-linecap="round" stroke-width="1.03119"/><path d="m183.035 154.679v12.37" stroke="#f55c5c" stroke-linecap="round" stroke-width="1.03119"/><path d="m90.1773 50.0852 10.9047 11.2502c.908.9364.701 2.4753-.422 3.1384-.6813.4022-1.5348.3688-2.1825-.0856l-10.6263-7.455c-3.8883-2.7278-8.8142-3.518-13.3606-2.1432l-7.5329 2.2778c-2.2078.6676-2.5235 3.663-.5035 4.7763l10.0898 5.5606c1.5221.8389 1.9622 2.8233.9375 4.2269-.6814.9333-1.8539 1.3699-2.9796 1.1095l-17.5167-4.051c-7.8277-1.9996-14.9699-6.0766-20.6718-11.8002l-12.359-12.4062c-4.5633-4.5807-3.5865-12.2344 1.9811-15.5221 3.4135-2.0158 7.7-1.8025 10.8966.5421l10.2092 7.4883c4.0238 2.9514 8.7019 4.8856 13.6352 5.6376l21.3552 3.2551c3.1012.4727 5.9622 1.9481 8.1456 4.2005z" fill="#5b57ca"/><path d="m31.0537 31.9668v10.5478" stroke="#f55c5c" stroke-linecap="round" stroke-width="1.03119"/><path d="m36.3276 37.2412h-10.5477" stroke="#f55c5c" stroke-linecap="round" stroke-width="1.03119"/><path d="m111.885 107.244h28.8734v17.5303h-28.8734z" fill="#5b57ca"/><path d="m121.593 111.885-4.037 4.125 4.037 4.124" stroke="#fff500" stroke-linecap="round" stroke-linejoin="round" stroke-width="1.03119"/><path d="m131.565 111.885 4.037 4.125-4.037 4.124" stroke="#fff500" stroke-linecap="round" stroke-linejoin="round" stroke-width="1.03119"/><path d="m.515597-.515597h8.140003" stroke="#fff500" stroke-linecap="round" stroke-linejoin="round" stroke-width="1.03119" transform="matrix(-.491918 .870642 -.861283 -.508126 128.434 111.885)"/><path d="m45.3726 120.649h28.8734v17.5303h-28.8734z" fill="#f55c5c"/><path d="m55.0806 125.29-4.0366 4.125 4.0366 4.125" stroke="#fff500" stroke-linecap="round" stroke-linejoin="round" stroke-width="1.03119"/><path d="m65.0535 125.29 4.0366 4.125-4.0366 4.125" stroke="#fff500" stroke-linecap="round" stroke-linejoin="round" stroke-width="1.03119"/><path d="m.515597-.515597h8.140003" stroke="#fff500" stroke-linecap="round" stroke-linejoin="round" stroke-width="1.03119" transform="matrix(-.491918 .870642 -.861283 -.508126 61.9221 125.29)"/><circle cx="111.885" cy="116.525" fill="#f66" r="3.09358"/><circle cx="74.2459" cy="104.151" fill="#f66" r="3.09358"/><circle cx="74.2459" cy="129.93" fill="#5b57ca" r="3.09358"/><circle cx="111.369" cy="168.6" fill="#5b57ca" r="3.09358"/><circle cx="50.7864" cy="105.955" fill="#fff500" r="3.86698"/><path d="m111.885 116.524c-14.1793 0-19.0774 13.664-37.8967 13.664" stroke="#5b57ca" stroke-linecap="round" stroke-width="1.03119"/><path d="m74.5037 104.15c-14.1789 0-12.1165-19.5924-30.9358-19.5924" stroke="#5b57ca" stroke-linecap="round" stroke-width="1.03119"/><path d="m111.111 168.858c-14.1786 0-18.0456-38.67-36.8649-38.67" stroke="#5b57ca" stroke-linecap="round" stroke-width="1.03119"/><circle cx="172.983" cy="105.955" fill="#fff500" r="3.86698"/><circle cx="68.8323" cy="150.812" fill="#fff500" r="3.86698"/><circle cx="134.313" cy="69.8636" fill="#fff500" r="11.6009"/><path d="m119.619 69.8631h-.516zm0 14.6945h-.516v.5156h.516zm14.694 0v-.5156zm0-28.8734c7.831 0 14.179 6.3481 14.179 14.1789h1.031c0-8.4003-6.81-15.2101-15.21-15.2101zm-14.179 14.1789c0-7.8308 6.348-14.1789 14.179-14.1789v-1.0312c-8.4 0-15.21 6.8098-15.21 15.2101zm0 14.6945v-14.6945h-1.031v14.6945zm14.179-.5156h-14.694v1.0312h14.694zm14.179-14.1789c0 7.8308-6.348 14.1789-14.179 14.1789v1.0312c8.4 0 15.21-6.8098 15.21-15.2101z" fill="#5b57ca"/><path d="m129.695 69.0484 3.77 5.4333 5.466-9.2366" stroke="#5b57ca" stroke-linecap="round" stroke-linejoin="round" stroke-width="1.03119"/></g></svg>