<svg fill="none" height="146" viewBox="0 0 118 146" width="118" xmlns="http://www.w3.org/2000/svg"><path d="m.361249 11.0917c-.073695.2751.089536.5578.364578.6315l4.482263 1.201c.27506.0737.55777-.0895.63148-.3646.0737-.275-.08953-.5577-.36459-.6314l-3.98423-1.0676 1.06757-3.98424c.0737-.27505-.08953-.55778-.36457-.63147-.27506-.0737-.55778.08953-.63148.36459zm76.566151 132.6163c-.0737.275.0895.558.3646.632l4.4822 1.201c.2751.073.5578-.09.6315-.365s-.0895-.558-.3646-.631l-3.9842-1.068 1.0676-3.984c.0737-.275-.0896-.558-.3646-.632-.2751-.073-.5578.09-.6315.365zm-75.81032-132.0363c37.12272-21.43282 84.23062-9.30302 105.22692 27.063l.893-.5156c-21.2907-36.87599-69.0365-49.1482-106.635519-27.4404zm105.22692 27.063c20.996 36.3661 7.946 83.2273-29.1764 104.6603l.5156.893c37.5988-21.708 50.8438-69.1929 29.5538-106.0689z" fill="#5b57ca"/></svg>