<svg fill="none" height="80" viewBox="0 0 148 80" width="148" xmlns="http://www.w3.org/2000/svg"><path d="m76.837 37.9863c0 .2847.2308.5156.5156.5156.2847 0 .5155-.2309.5155-.5156zm70.228 37.7453c.201-.2013.201-.5278 0-.7291l-3.281-3.2813c-.202-.2013-.528-.2013-.729 0-.202.2014-.202.5278 0 .7292l2.916 2.9166-2.916 2.9167c-.202.2014-.202.5278 0 .7292.201.2013.527.2013.729 0zm-107.8666-.8802c-20.7973 0-37.63861-16.515-37.63861-36.8651h-1.031198c0 20.9395 17.323008 37.8963 38.669808 37.8963zm-37.63861-36.8651c0-20.3502 16.84131-36.86523 37.63861-36.86523v-1.0311984c-21.3468 0-38.669808 16.9569284-38.669808 37.8964284zm37.63861-36.86523c20.7972 0 37.6386 16.51503 37.6386 36.86523h1.0311c0-20.9395-17.323-37.8964284-38.6697-37.8964284zm0 74.76153h107.5016v-1.0312h-107.5016z" fill="#5b57ca"/></svg>