<svg fill="none" height="50" viewBox="0 0 72 50" width="72" xmlns="http://www.w3.org/2000/svg"><path d="m25.8682 26.9866c0-.2848-.2309-.5156-.5156-.5156-.2848 0-.5156.2308-.5156.5156zm22.4285-22.4285v-.5156zm-48.057354-.36459c-.2013477.20135-.2013477.52781 0 .72917l3.281244 3.28124c.20135.20135.52781.20135.72916 0 .20136-.20136.20136-.52782 0-.72917l-2.91665-2.91665 2.91665-2.91666c.20136-.20136.20136-.52781 0-.729169-.20135-.201351-.52781-.201351-.72916 0zm48.057354.88018c12.398 0 22.4284 9.82171 22.4284 21.91291h1.0312c0-12.6827-10.5143-22.9441-23.4596-22.9441zm22.4284 21.91291c0 12.0911-10.0304 21.9128-22.4284 21.9128v1.0312c12.9453 0 23.4596-10.2614 23.4596-22.944zm-22.4284 21.9128c-12.3981 0-22.4285-9.8217-22.4285-21.9128h-1.0312c0 12.6826 10.5143 22.944 23.4597 22.944zm0-44.8569h-47.692768l-.000001 1.03119h47.692769z" fill="#5b57ca"/></svg>