<svg fill="none" height="236" viewBox="0 0 436 236" width="436" xmlns="http://www.w3.org/2000/svg"><path d="m227.196 113.319c0 .845.684 1.53 1.529 1.53.844 0 1.529-.685 1.529-1.53zm208.294 111.952c.598-.597.598-1.565 0-2.162l-9.732-9.732c-.597-.598-1.565-.598-2.162 0-.598.597-.598 1.565 0 2.162l8.65 8.651-8.65 8.651c-.598.597-.598 1.565 0 2.163.597.597 1.565.597 2.162 0zm-319.93-2.61c-61.6838 0-111.63497-48.983-111.63497-109.342h-3.058498c0 62.107 51.379868 112.4 114.693468 112.4zm-111.63497-109.342c0-60.3578 49.95117-109.34094 111.63497-109.34094v-3.058504c-63.3136 0-114.693468 50.293744-114.693468 112.399444zm111.63497-109.34094c61.684 0 111.636 48.98314 111.636 109.34094h3.058c0-62.1057-51.38-112.399444-114.694-112.399444zm0 221.74094h318.849v-3.058h-318.849z" fill="#5b57ca"/></svg>