<svg width="214" height="147" viewBox="0 0 214 147" fill="none" xmlns="http://www.w3.org/2000/svg">
<path d="M77.2541 78.3195C77.2541 77.4749 76.5694 76.7902 75.7249 76.7902C74.8803 76.7902 74.1956 77.4749 74.1956 78.3195L77.2541 78.3195ZM143.777 11.7971L143.777 10.2678L143.777 11.7971ZM1.23951 10.7157C0.6423 11.3129 0.6423 12.2812 1.23951 12.8784L10.9716 22.6105C11.5688 23.2077 12.5371 23.2077 13.1343 22.6105C13.7315 22.0133 13.7315 21.045 13.1343 20.4478L4.48353 11.7971L13.1343 3.14631C13.7315 2.54912 13.7315 1.58084 13.1343 0.98364C12.5371 0.386427 11.5688 0.386427 10.9716 0.98364L1.23951 10.7157ZM143.777 13.3263C180.549 13.3263 210.299 42.4573 210.299 78.3195L213.357 78.3195C213.357 40.703 182.172 10.2678 143.777 10.2678L143.777 13.3263ZM210.299 78.3195C210.299 114.182 180.549 143.313 143.776 143.313L143.776 146.371C182.172 146.371 213.357 115.936 213.357 78.3195L210.299 78.3195ZM143.776 143.313C107.004 143.313 77.2541 114.182 77.2541 78.3195L74.1956 78.3195C74.1956 115.936 105.381 146.371 143.776 146.371L143.776 143.313ZM143.777 10.2678L2.32084 10.2678L2.32086 13.3263L143.777 13.3263L143.777 10.2678Z" fill="#5B57CA"/>
</svg>
