<svg fill="none" height="147" viewBox="0 0 214 147" width="214" xmlns="http://www.w3.org/2000/svg"><path d="m77.2541 78.3195c0-.8446-.6847-1.5293-1.5292-1.5293-.8446 0-1.5293.6847-1.5293 1.5293zm66.5229-66.5224v-1.5293zm-142.53749-1.0814c-.59721.5972-.59721 1.5655 0 2.1627l9.73209 9.7321c.5972.5972 1.5655.5972 2.1627 0s.5972-1.5655 0-2.1627l-8.65077-8.6507 8.65077-8.65079c.5972-.59719.5972-1.56547 0-2.16267-.5972-.597213-1.5655-.597213-2.1627 0zm142.53749 2.6106c36.772 0 66.522 29.131 66.522 64.9932h3.058c0-37.6165-31.185-68.0517-69.58-68.0517zm66.522 64.9932c0 35.8625-29.75 64.9935-66.523 64.9935v3.058c38.396 0 69.581-30.435 69.581-68.0515zm-66.523 64.9935c-36.772 0-66.5219-29.131-66.5219-64.9935h-3.0585c0 37.6165 31.1854 68.0515 69.5804 68.0515zm.001-133.0452h-141.45616l.00002 3.0585h141.45614z" fill="#5b57ca"/></svg>