<svg fill="none" height="432" viewBox="0 0 348 432" width="348" xmlns="http://www.w3.org/2000/svg"><path d="m.58767 32.8426c-.218603.8158.265528 1.6543 1.08133 1.8729l13.2943 3.5622c.8158.2186 1.6543-.2656 1.8729-1.0813.2186-.8159-.2655-1.6544-1.0813-1.873l-11.81715-3.1664 3.16638-11.8171c.21861-.8158-.26552-1.6544-1.08134-1.873-.81579-.2186-1.65434.2656-1.87294 1.0814zm227.09333 393.3374c-.218.816.266 1.655 1.082 1.873l13.294 3.562c.816.219 1.654-.265 1.873-1.081.218-.816-.266-1.654-1.081-1.873l-11.818-3.166 3.167-11.817c.218-.816-.266-1.655-1.082-1.873-.815-.219-1.654.265-1.873 1.081zm-224.85158-391.6173c110.10558-63.5692 249.82658-27.59251 312.09958 80.2683l2.649-1.529c-63.147-109.37362-204.76-145.7729-316.27781-81.388zm312.09958 80.2683c62.274 107.861 23.57 246.851-86.535 310.421l1.529 2.648c111.518-64.384 150.802-205.225 87.655-314.598z" fill="#5b57ca"/></svg>