<svg fill="none" height="33" viewBox="0 0 149 33" width="149" xmlns="http://www.w3.org/2000/svg" xmlns:xlink="http://www.w3.org/1999/xlink"><clipPath id="a"><path d="m.942871.27002h148v32h-148z"/></clipPath><g clip-path="url(#a)" fill="#000"><path d="m18.4036 19.3984h-10.83446v11.6551c0 .2005-.07965.3928-.22145.5346s-.33412.2215-.53465.2215h-4.73027c-.20054 0-.39285-.0797-.53465-.2215s-.22146-.3341-.22146-.5346v-29.50663c.00481-.19732.08659-.38493.22787-.52277.14128-.137831.33086-.214955.52824-.214896h19.55733c.2006 0 .3928.079661.5347.221456.1417.1418.2215.33412.2215.53465v4.25079c0 .20054-.0798.39286-.2215.53466-.1419.1418-.3341.22145-.5347.22145h-14.07096v7.08149h10.83446c.2005 0 .3928.0798.5347.2215.1417.1419.2214.3341.2214.5347v4.2508c-.0048.1973-.0866.3849-.2278.5228-.1414.1378-.331.2149-.5283.2149z"/><path d="m43.1037.272058c2.077-.030485 4.1414.329208 6.0857 1.060392 1.6352.59668 3.1339 1.51537 4.4076 2.7017 1.1189 1.11401 2.0528 2.39961 2.7663 3.80819.712 1.33966 1.2393 2.76956 1.5674 4.25076.2928 1.3669.4412 2.7608.4427 4.1586-.0008 1.4192-.1491 2.8346-.4427 4.2231-.3256 1.4879-.853 2.9243-1.5674 4.2693-.7132 1.4087-1.6471 2.6944-2.7663 3.8082-1.2713 1.1828-2.7713 2.0928-4.4076 2.674-1.9476.717-4.0104 1.0702-6.0857 1.042-2.0904.0309-4.1688-.3223-6.1318-1.042-1.6364-.5811-3.1364-1.4911-4.4076-2.674-1.1369-1.1135-2.0921-2.3986-2.8308-3.8082-.7294-1.3412-1.2664-2.7784-1.5952-4.2693-.2937-1.3885-.442-2.8039-.4425-4.2231.0012-1.3978.1496-2.7917.4425-4.1586.3312-1.4843.8682-2.91501 1.5952-4.25076.7418-1.4101 1.7-2.69513 2.84-3.80819 1.2735-1.18653 2.7724-2.10525 4.4076-2.7017 1.9568-.732348 4.0335-1.092005 6.1226-1.060392zm0 26.205542c1.342.0189 2.6702-.2713 3.882-.8483 1.0112-.4632 1.9036-1.1506 2.6094-2.0101.6407-.822 1.1536-1.7359 1.5215-2.7109.338-.8522.5912-1.7355.7561-2.6372.1118-.6736.1703-1.355.1752-2.0378-.0049-.6829-.0634-1.3642-.1752-2.0378-.1638-.893-.4172-1.7673-.7561-2.6095-.362-.956-.8623-1.85382-1.4845-2.66482-.7138-.86224-1.6203-1.5445-2.6464-1.99169-1.2199-.54488-2.5464-.80955-3.882-.77455-1.3723-.02635-2.7332.25403-3.9834.82064-1.0156.43496-1.9154 1.1012-2.628 1.9456-.6213.81984-1.1242 1.72312-1.4937 2.68322-.3527.8375-.6064 1.7132-.7561 2.6095-.2068 1.3506-.2068 2.7249 0 4.0756.1517.8988.4053 1.7774.7561 2.6188.3692.9677.8753 1.8776 1.5031 2.7016.7122.8644 1.6148 1.5524 2.637 2.0101 1.2422.5716 2.5982.8523 3.965.8207z"/><path d="m70.5608 9.03269c.0123.47253.156.93232.4149 1.32781.3639.4678.8351.841 1.3739 1.088.6455.3381 1.1925.5963 1.6413.7746.4487.1783 1.2018.4426 2.2591.793l2.1669.7561c.4119.1474 1.0972.421 2.0563.8206.7383.2868 1.4483.6419 2.1207 1.0604.4549.3074 1.0236.7346 1.7058 1.2818.5967.4529 1.1007 1.0164 1.4846 1.6597.37.6483.661 1.3387.8668 2.0561.2232.8444.3042 1.7202.2397 2.5911-.0608 1.2436-.3936 2.4587-.9752 3.5596-.5815 1.1009-1.3975 2.0608-2.3904 2.812-2.2701 1.7436-5.0789 2.6373-7.9391 2.5265-3.9449.002-7.8321-.9469-11.3324-2.7662-.0869-.044-.1633-.1064-.2238-.1828-.0606-.0764-.1036-.1651-.1266-.2598-.0729-.1836-.0729-.3881 0-.5717l2.0379-3.8543c.0411-.0908.0996-.1725.1724-.2406.0728-.068.1584-.121.2517-.1559.09-.0396.1874-.0601.2859-.0601.0984 0 .1957.0205.2857.0601 2.5744 1.3275 5.4054 2.0824 8.2988 2.2129 1.1858.0447 2.3615-.2326 3.4024-.8021.405-.2152.7558-.5195 1.0256-.8901.27-.3707.4522-.7978.5328-1.2491.0974-.4816.0484-.9813-.1405-1.4349-.1891-.4535-.5093-.8402-.9199-1.11-1.188-.7994-2.4996-1.3975-3.882-1.7704-2.1881-.5934-4.3201-1.3771-6.3716-2.3422-3.0736-1.6536-4.6104-4.1124-4.6104-7.3766-.0594-1.23563.1582-2.46891.6368-3.60963.4786-1.14071 1.2062-2.15999 2.1295-2.98325 2.0332-1.68346 4.6196-2.551072 7.2568-2.434302 3.6867.087355 7.3144.944802 10.65 2.517282.0977.03382.1864.08936.2595.16247.073.07309.1285.16184.1622.25952.0338.09768.0448.20175.0326.30436-.0124.1026-.0479.20105-.1039.28793l-1.6413 3.85431c-.0344.09793-.0887.18772-.1594.26377-.0706.07604-.1562.13672-.2514.17824s-.1979.063-.3016.06311c-.1039.00009-.2067-.02119-.3019-.06252-2.4772-1.15037-5.1483-1.82595-7.8745-1.99169-2.711 0-4.1126.95896-4.2047 2.87689z"/><path d="m98.9785 9.03284c.0206.47526.1739.93525.4426 1.32776.364.4678.8349.841 1.3739 1.0881.646.3381 1.193.5963 1.641.7745.449.1783 1.202.4426 2.259.793l2.167.7561c.412.1476 1.098.4211 2.057.8207.738.2865 1.448.6414 2.12 1.0604.455.3073 1.024.7345 1.706 1.2817.597.4528 1.101 1.0163 1.485 1.6597.344.652.61 1.3422.793 2.0563.224.8443.304 1.72.24 2.591-.061 1.2436-.394 2.4586-.976 3.5595-.581 1.101-1.397 2.0609-2.39 2.8121-2.265 1.7394-5.067 2.633-7.921 2.5265-3.945.002-7.8319-.9469-11.3321-2.7663-.087-.044-.1634-.1064-.2239-.1828s-.1037-.1651-.1265-.2597c-.073-.1836-.073-.3881 0-.5718l2.0377-3.8542c.0452-.0892.1076-.1684.1835-.2334.076-.0649.1641-.1141.2592-.1448.09-.0396.1874-.06.2858-.06s.1958.0204.2858.06c2.5744 1.3275 5.4055 2.0825 8.2985 2.2131 1.179.044 2.348-.2299 3.384-.7931.41-.2167.765-.5249 1.037-.9006.271-.3757.453-.8089.531-1.2661.096-.4816.046-.9809-.142-1.4342-.189-.4533-.509-.84-.919-1.1108-1.182-.7972-2.487-1.3952-3.863-1.7704-2.188-.5933-4.3201-1.3771-6.3716-2.3421-3.0736-1.6536-4.6104-4.1125-4.6104-7.37666-.0595-1.23562.158-2.4689.6367-3.60961.4786-1.14072 1.2061-2.16 2.1294-2.98327 2.0328-1.68424 4.6199-2.551952 7.2569-2.434293 3.696.083235 7.334.940793 10.678 2.517283.097.03381.186.08936.259.16247.073.0731.129.16184.162.25952.034.09768.045.20176.033.30436s-.048.20106-.104.28794l-1.641 3.8543c-.035.09793-.089.18772-.16.26377-.07.07604-.156.13672-.251.17824s-.198.063-.302.06311c-.104.00009-.206-.02119-.302-.06252-2.485-1.15372-5.166-1.82938-7.902-1.9917-2.717 0-4.1185.95896-4.2045 2.8769z"/><path d="m134.875.81961 13.628 30.24429c.037.0777.056.1628.056.2489s-.019.1712-.056.2489c-.036.0767-.093.141-.165.1852-.072.0443-.155.0664-.24.0639h-5.532c-.23.0236-.46-.0347-.651-.1645-.191-.13-.329-.3232-.392-.5455l-2.673-6.5468h-9.692l-2.646 6.5099c-.071.2184-.213.4068-.404.5353-.19.1287-.418.1901-.647.1747h-5.616c-.084.0026-.168-.0196-.24-.0639-.072-.0441-.129-.1085-.165-.1851-.044-.0762-.071-.161-.079-.2485-.008-.0876.003-.1759.032-.2587l13.546-30.207312c.114-.130814.256-.234341.416-.302958.159-.068618.332-.10058.506-.093536.19-.024111.382.000486.559.071473.178.070985.335.186019.455.334243zm-.922 11.81189-2.766 6.9525h5.532z"/></g></svg>