<svg width="216" height="14" viewBox="0 0 216 14" fill="none" xmlns="http://www.w3.org/2000/svg">
<path d="M215.599 7.59951C215.929 7.26888 215.929 6.73283 215.599 6.4022L210.211 1.01431C209.88 0.68368 209.344 0.68368 209.013 1.01431C208.683 1.34494 208.683 1.88099 209.013 2.21162L213.803 7.00085L209.013 11.7901C208.683 12.1207 208.683 12.6568 209.013 12.9874C209.344 13.318 209.88 13.318 210.211 12.9874L215.599 7.59951ZM201.454 6.15423C200.986 6.15423 200.607 6.53328 200.607 7.00085C200.607 7.46843 200.986 7.84748 201.454 7.84748V6.15423ZM215 6.15423L201.454 6.15423V7.84748L215 7.84748V6.15423Z" fill="#BBBBBB"/>
</svg>
