<svg width="216" height="14" viewBox="0 0 216 14" fill="none" xmlns="http://www.w3.org/2000/svg">
<path d="M215.599 7.64748C215.929 7.31686 215.929 6.7808 215.599 6.45017L210.211 1.06227C209.88 0.73164 209.344 0.73164 209.013 1.06227C208.683 1.3929 208.683 1.92895 209.013 2.25958L213.803 7.04883L209.013 11.8381C208.683 12.1687 208.683 12.7048 209.013 13.0354C209.344 13.366 209.88 13.366 210.211 13.0354L215.599 7.64748ZM201.454 6.2022C200.986 6.2022 200.607 6.58125 200.607 7.04883C200.607 7.51641 200.986 7.89546 201.454 7.89546V6.2022ZM215 6.2022L201.454 6.2022V7.89546L215 7.89546V6.2022Z" fill="#BBBBBB"/>
</svg>
