<svg fill="none" height="107" viewBox="0 0 204 107" width="204" xmlns="http://www.w3.org/2000/svg"><path d="m.239746.030029h203.76v106.48h-203.76z" fill="#011be7"/><path clip-rule="evenodd" d="m54.9597 19.63h2.32v-2.32c0-.72.56-1.28 1.28-1.28s1.36.56 1.36 1.28v2.32h2.32c.72 0 1.36.56 1.36 1.28s-.64 1.36-1.36 1.36h-2.32v2.32c0 .72-.64 1.36-1.36 1.36s-1.28-.64-1.28-1.36v-2.4h-2.32c-.72 0-1.28-.64-1.28-1.36.08-.64.64-1.2 1.28-1.2zm-10.72 0h-1.76c-.72 0-1.28.56-1.28 1.28s.56 1.36 1.28 1.36h1.76v1.68c0 .72.56 1.36 1.28 1.36s1.36-.64 1.36-1.36v-1.76h1.68c.72 0 1.36-.64 1.36-1.36s-.64-1.28-1.36-1.28h-1.68v-1.68c0-.72-.64-1.28-1.36-1.28s-1.28.56-1.28 1.28zm-14.24 0h1.12v-1.12c0-.72.56-1.28 1.28-1.28s1.36.56 1.36 1.28v1.12h1.12c.72 0 1.36.56 1.36 1.28s-.64 1.36-1.36 1.36h-1.12v1.12c0 .72-.64 1.36-1.36 1.36s-1.28-.64-1.28-1.36v-1.2h-1.12c-.72 0-1.28-.64-1.28-1.36 0-.64.56-1.2 1.28-1.2zm-12.48 0h.56v-.56c0-.72.56-1.28 1.28-1.28s1.36.56 1.36 1.28v.56h.48c.72 0 1.36.56 1.36 1.28s-.72 1.28-1.36 1.28h-.56v.48c0 .72-.64 1.36-1.36 1.36-.64 0-1.2-.64-1.2-1.28v-.56h-.56c-.72 0-1.28-.64-1.28-1.28s.56-1.28 1.28-1.28zm.56 16.16h-.56c-.72 0-1.28.56-1.28 1.28s.56 1.36 1.28 1.36h.56v.48c0 .72.56 1.36 1.28 1.36s1.36-.64 1.36-1.36v-.48h.48c.72 0 1.36-.64 1.36-1.36s-.64-1.28-1.36-1.28h-.56v-.56c0-.72-.64-1.28-1.36-1.28s-1.28.56-1.28 1.28zm11.92 0h1.12v-1.12c0-.72.56-1.28 1.28-1.28s1.36.56 1.36 1.28v1.12h1.12c.72 0 1.36.56 1.36 1.28s-.64 1.36-1.36 1.36h-1.12v1.12c0 .72-.64 1.36-1.36 1.36s-1.28-.64-1.28-1.36v-1.12h-1.12c-.72 0-1.28-.64-1.28-1.36s.56-1.28 1.28-1.28zm14.24 0h-1.76c-.72 0-1.28.56-1.28 1.28s.56 1.36 1.28 1.36h1.76v1.68c0 .72.56 1.36 1.28 1.36s1.36-.64 1.36-1.36v-1.68h1.68c.72 0 1.36-.64 1.36-1.36s-.64-1.28-1.36-1.28h-1.68v-1.76c0-.72-.64-1.28-1.36-1.28s-1.28.56-1.28 1.28zm10.72 0h2.32v-2.32c0-.72.56-1.28 1.28-1.28s1.36.56 1.36 1.28v2.32h2.32c.72 0 1.36.56 1.36 1.28s-.64 1.36-1.36 1.36h-2.32v2.32c0 .72-.64 1.36-1.36 1.36s-1.28-.64-1.28-1.36v-2.32h-2.32c-.72 0-1.28-.64-1.28-1.36.08-.72.64-1.28 1.28-1.28zm15.52 0h-2.96c-.72 0-1.28.56-1.28 1.28s.56 1.36 1.28 1.36h2.96v2.96c0 .72.56 1.36 1.28 1.36s1.36-.64 1.36-1.36v-2.96h2.9601c.72 0 1.3599-.64 1.3599-1.36s-.6399-1.28-1.3599-1.28h-3.0401v-2.96c0-.72-.64-1.28-1.36-1.28-.7199 0-1.28.56-1.28 1.28zm-52.96 16.08h.56v-.56c0-.72.56-1.28 1.28-1.28s1.36.56 1.36 1.28v.56h.48c.72 0 1.36.56 1.36 1.28s-.72 1.28-1.36 1.28h-.56v.48c0 .72-.64 1.36-1.36 1.36s-1.28-.64-1.28-1.36v-.48h-.48c-.72 0-1.28-.64-1.28-1.28s.56-1.28 1.28-1.28zm13.6 0h-1.12c-.72 0-1.28.56-1.28 1.28s.56 1.36 1.28 1.36h1.12v1.12c0 .72.56 1.36 1.28 1.36s1.36-.64 1.36-1.36v-1.2h1.12c.72 0 1.36-.64 1.36-1.36s-.64-1.28-1.36-1.28h-1.12v-1.12c0-.72-.64-1.28-1.36-1.28s-1.28.56-1.28 1.28zm11.36 0h1.76v-1.76c0-.72.56-1.28 1.28-1.28s1.36.56 1.36 1.28v1.76h1.68c.72 0 1.36.56 1.36 1.28s-.64 1.36-1.36 1.36h-1.68v1.68c0 .72-.64 1.36-1.36 1.36s-1.28-.64-1.28-1.36v-1.76h-1.76c-.72 0-1.28-.64-1.28-1.36 0-.64.56-1.2 1.28-1.2zm14.88 0h-2.32c-.72 0-1.28.56-1.28 1.28s.56 1.36 1.28 1.36h2.32v2.32c0 .72.56 1.36 1.28 1.36s1.36-.64 1.36-1.36v-2.4h2.32c.72 0 1.36-.64 1.36-1.36s-.64-1.28-1.36-1.28h-2.32v-2.32c0-.72-.64-1.28-1.36-1.28s-1.28.56-1.28 1.28zm10.16 0h2.96v-2.96c0-.72.56-1.28 1.28-1.28s1.36.56 1.36 1.28v2.96h2.9601c.72 0 1.3599.56 1.3599 1.28s-.72 1.28-1.44 1.28h-2.96v2.96c0 .72-.64 1.36-1.36 1.36-.7199 0-1.28-.64-1.28-1.36v-2.96h-2.96c-.72 0-1.28-.64-1.28-1.36s.64-1.2 1.36-1.2zm-49.44 16.16h-.56c-.72 0-1.28.56-1.28 1.28s.56 1.36 1.28 1.36h.56v.48c0 .72.56 1.36 1.28 1.36s1.36-.64 1.36-1.36v-.48h.48c.72 0 1.36-.64 1.36-1.36-.08-.72-.72-1.28-1.36-1.28h-.56v-.56c0-.72-.64-1.28-1.36-1.28s-1.28.56-1.28 1.28v.56zm11.92 0h1.12v-1.12c0-.72.56-1.28 1.28-1.28s1.36.56 1.36 1.28v1.12h1.12c.72 0 1.36.56 1.36 1.28s-.64 1.36-1.36 1.36h-1.12v1.12c0 .72-.64 1.36-1.36 1.36s-1.28-.64-1.28-1.36v-1.12h-1.12c-.72 0-1.28-.64-1.28-1.36s.56-1.28 1.28-1.28zm14.24 0h-1.76c-.72 0-1.28.56-1.28 1.28s.56 1.36 1.28 1.36h1.76v1.68c0 .72.56 1.36 1.28 1.36s1.36-.64 1.36-1.36v-1.68h1.68c.72 0 1.36-.64 1.36-1.36s-.64-1.28-1.36-1.28h-1.68v-1.76c0-.72-.64-1.28-1.36-1.28s-1.28.56-1.28 1.28zm10.72 0h2.32v-2.32c0-.72.56-1.28 1.28-1.28s1.36.56 1.36 1.28v2.32h2.32c.72 0 1.36.56 1.36 1.28s-.64 1.36-1.36 1.36h-2.32v2.32c0 .72-.64 1.36-1.36 1.36s-1.28-.64-1.28-1.36v-2.32h-2.32c-.72 0-1.28-.64-1.28-1.36.08-.72.64-1.28 1.28-1.28zm15.52 0h-2.96c-.72 0-1.28.56-1.28 1.28s.56 1.36 1.28 1.36h2.96v2.96c0 .72.56 1.36 1.28 1.36s1.36-.64 1.36-1.36v-2.96h2.9601c.72 0 1.3599-.64 1.3599-1.36s-.6399-1.28-1.3599-1.28h-3.0401v-2.96c0-.72-.64-1.28-1.36-1.28-.7199 0-1.28.56-1.28 1.28zm-52.96 16.16h.56v-.56c0-.72.56-1.28 1.28-1.28s1.36.56 1.36 1.28v.56h.48c.72 0 1.36.56 1.36 1.28s-.64 1.36-1.36 1.36h-.56v.48c0 .72-.64 1.36-1.36 1.36s-1.28-.64-1.28-1.36v-.48h-.48c-.72 0-1.28-.64-1.28-1.36s.56-1.28 1.28-1.28zm13.6 0h-1.12c-.72 0-1.28.56-1.28 1.28s.56 1.36 1.28 1.36h1.12v1.12c0 .72.56 1.36 1.28 1.36s1.36-.64 1.36-1.36v-1.12h1.12c.72 0 1.36-.64 1.36-1.36s-.64-1.28-1.36-1.28h-1.12v-1.12c0-.72-.64-1.28-1.36-1.28s-1.28.56-1.28 1.28zm11.36 0h1.76v-1.76c0-.72.56-1.28 1.28-1.28s1.36.56 1.36 1.28v1.76h1.68c.72 0 1.36.56 1.36 1.28s-.64 1.36-1.36 1.36h-1.68v1.68c0 .72-.64 1.36-1.36 1.36s-1.28-.64-1.28-1.36v-1.68h-1.76c-.72 0-1.28-.64-1.28-1.36s.56-1.28 1.28-1.28zm14.88 0h-2.32c-.72 0-1.28.56-1.28 1.28s.56 1.36 1.28 1.36h2.32v2.32c0 .72.56 1.36 1.28 1.36s1.36-.64 1.36-1.36v-2.32h2.32c.72 0 1.36-.64 1.36-1.36s-.64-1.28-1.36-1.28h-2.32v-2.32c0-.72-.64-1.28-1.36-1.28s-1.28.56-1.28 1.28zm48.8003-47.92v-14h-5.84v-2.64h14.88v2.64h-5.84v13.92zm15.68-1.12h.32v1.04h2.88v-7.36c0-3.2-2.24-4.8-5.36-4.8-2 0-3.68.56-5.04 1.52v2.16h.56c1.28-.8 2.56-1.2 4.08-1.2 1.36 0 2.32.64 2.64 1.6l-.32.24c-.8.08-2.16.24-2.96.4-3.12.48-4.8 1.76-4.8 4 0 2.16 1.92 3.76 4.8 3.76 1.44 0 2.48-.56 3.2-1.36zm.16-4.4v1.68c-.08 1.04-1.68 1.84-3.28 1.76-1.36 0-2-.56-2-1.44 0-1.04.8-1.36 2.08-1.68zm8.88-11.6v17.12h-2.96v-17.12zm6.24 17.04v-17.04h-2.96v17.12zm3.12-13.76v-3.2h2.96v3.2zm0 13.84v-11.84h2.96v11.84zm12-9.36c1.68 0 2.48 1.04 2.48 2.56l-.08 6.88h3.12v-7.52c0-2.96-1.36-4.64-4.48-4.64-1.92 0-3.2 1.04-3.6 2.56h-.4v-2.32h-2.96v11.84h3.12v-7.04c0-1.36 1.44-2.32 2.8-2.32zm16.8 2.48c0-1.52-.72-2.56-2.48-2.56-1.36 0-2.8 1.04-2.88 2.4v7.04h-3.12v-11.84h2.96v2.32h.4c.4-1.52 1.68-2.56 3.6-2.56 3.12 0 4.48 1.68 4.48 4.64v7.44h-3.12zm-61.76 15.44h-5.6v16.64h5.6c4.64 0 8.32-3.68 8.32-8.32s-3.68-8.32-8.32-8.32zm-2.4 14v-11.28h2.48c2.72 0 5.04 2.4 5.04 5.6s-2.4 5.68-5.04 5.68zm12.96-11.2v-3.12h2.96v3.12zm0 13.92v-11.92h2.96v11.84h-2.96zm14.32-1.28h.24l-.08.56c0 2.56-1.28 3.12-3.36 3.12-1.52 0-3.2-.56-4.32-1.28h-.64v2.56c1.28.8 3.28 1.28 4.96 1.28 3.76 0 6.4-1.68 6.4-5.44v-11.44h-2.8v1.44h-.16c-.4-1.04-1.52-1.76-3.2-1.76-3.44 0-6.08 2.72-6.08 6.24 0 3.44 2.48 6.16 5.68 6.16 1.36 0 2.64-.4 3.36-1.44zm.24-6.4v2.8c-.08 1.28-1.36 2.4-2.96 2.4-1.76 0-3.28-1.36-3.28-3.52 0-2.24 1.6-3.6 3.36-3.6 1.36 0 2.8.72 2.88 1.92zm6-6.24v-3.12h2.96v3.12zm0 13.92v-11.92h2.96v11.84h-2.96zm12.48-11.92h-2.8l-.08-3.84h-2.96v3.84h-1.68v2.4h1.68v5.84c0 2.56 1.36 3.68 3.2 3.68h2.48v-2.32h-1.6c-.64 0-1.04-.24-1.04-1.52v-5.68h2.8zm9.84 10.8h-.16c-.72.8-1.76 1.36-3.2 1.36-2.88 0-4.8-1.6-4.8-3.76 0-2.24 1.68-3.6 4.8-4 .8-.16 2.16-.32 2.96-.4l.32-.24c-.32-.96-1.28-1.6-2.64-1.6-1.6 0-2.88.4-4.08 1.2h-.56v-2.16c1.36-.96 3.04-1.52 5.04-1.52 3.12 0 5.36 1.6 5.36 4.8v7.36h-2.8v-1.04zm0-2.72v-1.68l-3.2.4c-1.28.24-2.08.64-2.08 1.68 0 .88.64 1.44 2 1.44 1.6-.08 3.28-.88 3.28-1.84zm8.96 3.76v-17.12h-2.96v17.12zm-68.8 20.4h.64c1.84 1.44 4 2.24 5.84 2.24 2 0 3.2-.8 3.2-1.92 0-1.36-1.28-1.92-3.76-2.4-3.36-.64-6-1.68-6-5.04 0-3.12 2.88-5.04 6.56-5.04 2.64 0 4.64.88 5.76 1.84v2.88h-.56c-1.36-1.04-3.12-1.84-5.36-1.84-1.92 0-3.2.8-3.2 2 0 1.28 1.28 1.76 4 2.32 3.36.72 5.68 2 5.68 5.12 0 2.88-2.64 4.96-6.48 4.96-2.88 0-4.96-.8-6.4-2.24v-3.04h.08zm20.72 2.4c-1.6 0-2.48-.96-2.48-2.48v-6.96h-3.12v7.44c0 3.04 1.36 4.64 4.56 4.64 1.92 0 3.2-1.04 3.52-2.56h.48v2.32h2.96v-11.84h-3.12v6.88c0 1.44-1.36 2.56-2.8 2.56zm17.12-4.56c0-1.44-1.04-2.32-2.48-2.32-1.36 0-2.72 1.04-2.8 2.4v7.04h-3.12v-11.92h2.96v2.32h.4c.24-1.36 1.52-2.56 3.28-2.56 2 0 3.44.88 4.08 2.4h.24c.48-1.52 2.24-2.4 3.92-2.4 2.8 0 4.72 1.52 4.72 4.48v7.6h-3.12v-7.04c0-1.44-1.04-2.32-2.48-2.32-1.52 0-2.72 1.04-2.8 2.4v7.04h-3.12v-7.12zm20.16-2.32c1.36 0 2.48.88 2.48 2.32h-.16v7.12h3.12v-7.04c.08-1.36 1.28-2.4 2.8-2.4 1.36 0 2.48.88 2.48 2.32v7.04h3.12v-7.52c0-2.96-1.92-4.48-4.72-4.48-1.68 0-3.44.88-3.92 2.4h-.24c-.64-1.52-2.08-2.4-4.08-2.4-1.76 0-3.04 1.2-3.28 2.56h-.4v-2.32h-2.96v11.84h3.12v-7.04c-.08-1.44 1.2-2.4 2.64-2.4zm16.8-4.48v-3.12h2.96v3.12zm0 13.84v-11.84h2.96v11.84zm12.32-11.84h-2.8l-.08-3.84h-2.96v3.76h-1.68v2.4h1.68v5.84c0 2.56 1.36 3.68 3.2 3.68h2.48v-2.32h-1.6c-.64 0-1.04-.24-1.04-1.52v-5.52h2.8z" fill="#f0f1f2" fill-rule="evenodd"/></svg>