<svg width="204" height="107" viewBox="0 0 204 107" fill="none" xmlns="http://www.w3.org/2000/svg">
<rect width="203.76" height="106.48" transform="translate(0.239746 0.0300293)" fill="#011BE7"/>
<path fill-rule="evenodd" clip-rule="evenodd" d="M54.9597 19.63H57.2797V17.31C57.2797 16.59 57.8397 16.03 58.5597 16.03C59.2797 16.03 59.9197 16.59 59.9197 17.31V19.63H62.2397C62.9597 19.63 63.5997 20.19 63.5997 20.91C63.5997 21.63 62.9597 22.27 62.2397 22.27H59.9197V24.59C59.9197 25.31 59.2797 25.95 58.5597 25.95C57.8397 25.95 57.2797 25.31 57.2797 24.59V22.19H54.9597C54.2397 22.19 53.6797 21.55 53.6797 20.83C53.7597 20.19 54.3197 19.63 54.9597 19.63ZM44.2397 19.63H42.4797C41.7597 19.63 41.1997 20.19 41.1997 20.91C41.1997 21.63 41.7597 22.27 42.4797 22.27H44.2397V23.95C44.2397 24.67 44.7997 25.31 45.5197 25.31C46.2397 25.31 46.8797 24.67 46.8797 23.95V22.19H48.5597C49.2797 22.19 49.9197 21.55 49.9197 20.83C49.9197 20.11 49.2797 19.55 48.5597 19.55H46.8797V17.87C46.8797 17.15 46.2397 16.59 45.5197 16.59C44.7997 16.59 44.2397 17.15 44.2397 17.87V19.63ZM29.9997 19.63H31.1197V18.51C31.1197 17.79 31.6797 17.23 32.3997 17.23C33.1197 17.23 33.7597 17.79 33.7597 18.51V19.63H34.8797C35.5997 19.63 36.2397 20.19 36.2397 20.91C36.2397 21.63 35.5997 22.27 34.8797 22.27H33.7597V23.39C33.7597 24.11 33.1197 24.75 32.3997 24.75C31.6797 24.75 31.1197 24.11 31.1197 23.39V22.19H29.9997C29.2797 22.19 28.7197 21.55 28.7197 20.83C28.7197 20.19 29.2797 19.63 29.9997 19.63ZM17.5197 19.63H18.0797V19.07C18.0797 18.35 18.6397 17.79 19.3597 17.79C20.0797 17.79 20.7197 18.35 20.7197 19.07V19.63H21.1997C21.9197 19.63 22.5597 20.19 22.5597 20.91C22.5597 21.63 21.8397 22.19 21.1997 22.19H20.6397V22.67C20.6397 23.39 19.9997 24.03 19.2797 24.03C18.6397 24.03 18.0797 23.39 18.0797 22.75V22.19H17.5197C16.7997 22.19 16.2397 21.55 16.2397 20.91C16.2397 20.27 16.7997 19.63 17.5197 19.63ZM18.0797 35.79H17.5197C16.7997 35.79 16.2397 36.35 16.2397 37.07C16.2397 37.79 16.7997 38.43 17.5197 38.43H18.0797V38.91C18.0797 39.63 18.6397 40.27 19.3597 40.27C20.0797 40.27 20.7197 39.63 20.7197 38.91V38.43H21.1997C21.9197 38.43 22.5597 37.79 22.5597 37.07C22.5597 36.35 21.9197 35.79 21.1997 35.79H20.6397V35.23C20.6397 34.51 19.9997 33.95 19.2797 33.95C18.5597 33.95 17.9997 34.51 17.9997 35.23L18.0797 35.79ZM29.9997 35.79H31.1197V34.67C31.1197 33.95 31.6797 33.39 32.3997 33.39C33.1197 33.39 33.7597 33.95 33.7597 34.67V35.79H34.8797C35.5997 35.79 36.2397 36.35 36.2397 37.07C36.2397 37.79 35.5997 38.43 34.8797 38.43H33.7597V39.55C33.7597 40.27 33.1197 40.91 32.3997 40.91C31.6797 40.91 31.1197 40.27 31.1197 39.55V38.43H29.9997C29.2797 38.43 28.7197 37.79 28.7197 37.07C28.7197 36.35 29.2797 35.79 29.9997 35.79ZM44.2397 35.79H42.4797C41.7597 35.79 41.1997 36.35 41.1997 37.07C41.1997 37.79 41.7597 38.43 42.4797 38.43H44.2397V40.11C44.2397 40.83 44.7997 41.47 45.5197 41.47C46.2397 41.47 46.8797 40.83 46.8797 40.11V38.43H48.5597C49.2797 38.43 49.9197 37.79 49.9197 37.07C49.9197 36.35 49.2797 35.79 48.5597 35.79H46.8797V34.03C46.8797 33.31 46.2397 32.75 45.5197 32.75C44.7997 32.75 44.2397 33.31 44.2397 34.03V35.79ZM54.9597 35.79H57.2797V33.47C57.2797 32.75 57.8397 32.19 58.5597 32.19C59.2797 32.19 59.9197 32.75 59.9197 33.47V35.79H62.2397C62.9597 35.79 63.5997 36.35 63.5997 37.07C63.5997 37.79 62.9597 38.43 62.2397 38.43H59.9197V40.75C59.9197 41.47 59.2797 42.11 58.5597 42.11C57.8397 42.11 57.2797 41.47 57.2797 40.75V38.43H54.9597C54.2397 38.43 53.6797 37.79 53.6797 37.07C53.7597 36.35 54.3197 35.79 54.9597 35.79ZM70.4797 35.79H67.5197C66.7997 35.79 66.2397 36.35 66.2397 37.07C66.2397 37.79 66.7997 38.43 67.5197 38.43H70.4797V41.39C70.4797 42.11 71.0397 42.75 71.7597 42.75C72.4797 42.75 73.1197 42.11 73.1197 41.39V38.43H76.0798C76.7998 38.43 77.4397 37.79 77.4397 37.07C77.4397 36.35 76.7998 35.79 76.0798 35.79H73.0397V32.83C73.0397 32.11 72.3997 31.55 71.6797 31.55C70.9598 31.55 70.3997 32.11 70.3997 32.83L70.4797 35.79ZM17.5197 51.87H18.0797V51.31C18.0797 50.59 18.6397 50.03 19.3597 50.03C20.0797 50.03 20.7197 50.59 20.7197 51.31V51.87H21.1997C21.9197 51.87 22.5597 52.43 22.5597 53.15C22.5597 53.87 21.8397 54.43 21.1997 54.43H20.6397V54.91C20.6397 55.63 19.9997 56.27 19.2797 56.27C18.5597 56.27 17.9997 55.63 17.9997 54.91V54.43H17.5197C16.7997 54.43 16.2397 53.79 16.2397 53.15C16.2397 52.51 16.7997 51.87 17.5197 51.87ZM31.1197 51.87H29.9997C29.2797 51.87 28.7197 52.43 28.7197 53.15C28.7197 53.87 29.2797 54.51 29.9997 54.51H31.1197V55.63C31.1197 56.35 31.6797 56.99 32.3997 56.99C33.1197 56.99 33.7597 56.35 33.7597 55.63V54.43H34.8797C35.5997 54.43 36.2397 53.79 36.2397 53.07C36.2397 52.35 35.5997 51.79 34.8797 51.79H33.7597V50.67C33.7597 49.95 33.1197 49.39 32.3997 49.39C31.6797 49.39 31.1197 49.95 31.1197 50.67V51.87ZM42.4797 51.87H44.2397V50.11C44.2397 49.39 44.7997 48.83 45.5197 48.83C46.2397 48.83 46.8797 49.39 46.8797 50.11V51.87H48.5597C49.2797 51.87 49.9197 52.43 49.9197 53.15C49.9197 53.87 49.2797 54.51 48.5597 54.51H46.8797V56.19C46.8797 56.91 46.2397 57.55 45.5197 57.55C44.7997 57.55 44.2397 56.91 44.2397 56.19V54.43H42.4797C41.7597 54.43 41.1997 53.79 41.1997 53.07C41.1997 52.43 41.7597 51.87 42.4797 51.87ZM57.3597 51.87H55.0397C54.3197 51.87 53.7597 52.43 53.7597 53.15C53.7597 53.87 54.3197 54.51 55.0397 54.51H57.3597V56.83C57.3597 57.55 57.9197 58.19 58.6397 58.19C59.3597 58.19 59.9997 57.55 59.9997 56.83V54.43H62.3197C63.0397 54.43 63.6797 53.79 63.6797 53.07C63.6797 52.35 63.0397 51.79 62.3197 51.79H59.9997V49.47C59.9997 48.75 59.3597 48.19 58.6397 48.19C57.9197 48.19 57.3597 48.75 57.3597 49.47V51.87ZM67.5197 51.87H70.4797V48.91C70.4797 48.19 71.0397 47.63 71.7597 47.63C72.4797 47.63 73.1197 48.19 73.1197 48.91V51.87H76.0798C76.7998 51.87 77.4397 52.43 77.4397 53.15C77.4397 53.87 76.7197 54.43 75.9997 54.43H73.0397V57.39C73.0397 58.11 72.3997 58.75 71.6797 58.75C70.9598 58.75 70.3997 58.11 70.3997 57.39V54.43H67.4397C66.7197 54.43 66.1597 53.79 66.1597 53.07C66.1597 52.35 66.7997 51.87 67.5197 51.87ZM18.0797 68.03H17.5197C16.7997 68.03 16.2397 68.59 16.2397 69.31C16.2397 70.03 16.7997 70.67 17.5197 70.67H18.0797V71.15C18.0797 71.87 18.6397 72.51 19.3597 72.51C20.0797 72.51 20.7197 71.87 20.7197 71.15V70.67H21.1997C21.9197 70.67 22.5597 70.03 22.5597 69.31C22.4797 68.59 21.8397 68.03 21.1997 68.03H20.6397V67.47C20.6397 66.75 19.9997 66.19 19.2797 66.19C18.5597 66.19 17.9997 66.75 17.9997 67.47V68.03H18.0797ZM29.9997 68.03H31.1197V66.91C31.1197 66.19 31.6797 65.63 32.3997 65.63C33.1197 65.63 33.7597 66.19 33.7597 66.91V68.03H34.8797C35.5997 68.03 36.2397 68.59 36.2397 69.31C36.2397 70.03 35.5997 70.67 34.8797 70.67H33.7597V71.79C33.7597 72.51 33.1197 73.15 32.3997 73.15C31.6797 73.15 31.1197 72.51 31.1197 71.79V70.67H29.9997C29.2797 70.67 28.7197 70.03 28.7197 69.31C28.7197 68.59 29.2797 68.03 29.9997 68.03ZM44.2397 68.03H42.4797C41.7597 68.03 41.1997 68.59 41.1997 69.31C41.1997 70.03 41.7597 70.67 42.4797 70.67H44.2397V72.35C44.2397 73.07 44.7997 73.71 45.5197 73.71C46.2397 73.71 46.8797 73.07 46.8797 72.35V70.67H48.5597C49.2797 70.67 49.9197 70.03 49.9197 69.31C49.9197 68.59 49.2797 68.03 48.5597 68.03H46.8797V66.27C46.8797 65.55 46.2397 64.99 45.5197 64.99C44.7997 64.99 44.2397 65.55 44.2397 66.27V68.03ZM54.9597 68.03H57.2797V65.71C57.2797 64.99 57.8397 64.43 58.5597 64.43C59.2797 64.43 59.9197 64.99 59.9197 65.71V68.03H62.2397C62.9597 68.03 63.5997 68.59 63.5997 69.31C63.5997 70.03 62.9597 70.67 62.2397 70.67H59.9197V72.99C59.9197 73.71 59.2797 74.35 58.5597 74.35C57.8397 74.35 57.2797 73.71 57.2797 72.99V70.67H54.9597C54.2397 70.67 53.6797 70.03 53.6797 69.31C53.7597 68.59 54.3197 68.03 54.9597 68.03ZM70.4797 68.03H67.5197C66.7997 68.03 66.2397 68.59 66.2397 69.31C66.2397 70.03 66.7997 70.67 67.5197 70.67H70.4797V73.63C70.4797 74.35 71.0397 74.99 71.7597 74.99C72.4797 74.99 73.1197 74.35 73.1197 73.63V70.67H76.0798C76.7998 70.67 77.4397 70.03 77.4397 69.31C77.4397 68.59 76.7998 68.03 76.0798 68.03H73.0397V65.07C73.0397 64.35 72.3997 63.79 71.6797 63.79C70.9598 63.79 70.3997 64.35 70.3997 65.07L70.4797 68.03ZM17.5197 84.19H18.0797V83.63C18.0797 82.91 18.6397 82.35 19.3597 82.35C20.0797 82.35 20.7197 82.91 20.7197 83.63V84.19H21.1997C21.9197 84.19 22.5597 84.75 22.5597 85.47C22.5597 86.19 21.9197 86.83 21.1997 86.83H20.6397V87.31C20.6397 88.03 19.9997 88.67 19.2797 88.67C18.5597 88.67 17.9997 88.03 17.9997 87.31V86.83H17.5197C16.7997 86.83 16.2397 86.19 16.2397 85.47C16.2397 84.75 16.7997 84.19 17.5197 84.19ZM31.1197 84.19H29.9997C29.2797 84.19 28.7197 84.75 28.7197 85.47C28.7197 86.19 29.2797 86.83 29.9997 86.83H31.1197V87.95C31.1197 88.67 31.6797 89.31 32.3997 89.31C33.1197 89.31 33.7597 88.67 33.7597 87.95V86.83H34.8797C35.5997 86.83 36.2397 86.19 36.2397 85.47C36.2397 84.75 35.5997 84.19 34.8797 84.19H33.7597V83.07C33.7597 82.35 33.1197 81.79 32.3997 81.79C31.6797 81.79 31.1197 82.35 31.1197 83.07V84.19ZM42.4797 84.19H44.2397V82.43C44.2397 81.71 44.7997 81.15 45.5197 81.15C46.2397 81.15 46.8797 81.71 46.8797 82.43V84.19H48.5597C49.2797 84.19 49.9197 84.75 49.9197 85.47C49.9197 86.19 49.2797 86.83 48.5597 86.83H46.8797V88.51C46.8797 89.23 46.2397 89.87 45.5197 89.87C44.7997 89.87 44.2397 89.23 44.2397 88.51V86.83H42.4797C41.7597 86.83 41.1997 86.19 41.1997 85.47C41.1997 84.75 41.7597 84.19 42.4797 84.19ZM57.3597 84.19H55.0397C54.3197 84.19 53.7597 84.75 53.7597 85.47C53.7597 86.19 54.3197 86.83 55.0397 86.83H57.3597V89.15C57.3597 89.87 57.9197 90.51 58.6397 90.51C59.3597 90.51 59.9997 89.87 59.9997 89.15V86.83H62.3197C63.0397 86.83 63.6797 86.19 63.6797 85.47C63.6797 84.75 63.0397 84.19 62.3197 84.19H59.9997V81.87C59.9997 81.15 59.3597 80.59 58.6397 80.59C57.9197 80.59 57.3597 81.15 57.3597 81.87V84.19ZM106.16 36.27V22.27H100.32V19.63H115.2V22.27H109.36V36.19L106.16 36.27ZM121.84 35.15H122.16V36.19H125.04V28.83C125.04 25.63 122.8 24.03 119.68 24.03C117.68 24.03 116 24.59 114.64 25.55V27.71H115.2C116.48 26.91 117.76 26.51 119.28 26.51C120.64 26.51 121.6 27.15 121.92 28.11L121.6 28.35C120.8 28.43 119.44 28.59 118.64 28.75C115.52 29.23 113.84 30.51 113.84 32.75C113.84 34.91 115.76 36.51 118.64 36.51C120.08 36.51 121.12 35.95 121.84 35.15ZM122 30.75V32.43C121.92 33.47 120.32 34.27 118.72 34.19C117.36 34.19 116.72 33.63 116.72 32.75C116.72 31.71 117.52 31.39 118.8 31.07L122 30.75ZM130.88 19.15V36.27H127.92V19.15H130.88ZM137.12 36.19V19.15H134.16V36.27L137.12 36.19ZM140.24 22.43V19.23H143.2V22.43H140.24ZM140.24 36.27V24.43H143.2V36.27H140.24ZM152.24 26.91C153.92 26.91 154.72 27.95 154.72 29.47L154.64 36.35H157.76V28.83C157.76 25.87 156.4 24.19 153.28 24.19C151.36 24.19 150.08 25.23 149.68 26.75H149.28V24.43H146.32V36.27H149.44V29.23C149.44 27.87 150.88 26.91 152.24 26.91ZM169.04 29.39C169.04 27.87 168.32 26.83 166.56 26.83C165.2 26.83 163.76 27.87 163.68 29.23V36.27H160.56V24.43H163.52V26.75H163.92C164.32 25.23 165.6 24.19 167.52 24.19C170.64 24.19 172 25.87 172 28.83V36.27H168.88L169.04 29.39ZM107.28 44.83H101.68V61.47H107.28C111.92 61.47 115.6 57.79 115.6 53.15C115.6 48.51 111.92 44.83 107.28 44.83ZM104.88 58.83V47.55H107.36C110.08 47.55 112.4 49.95 112.4 53.15C112.4 56.35 110 58.83 107.36 58.83H104.88ZM117.84 47.63V44.51H120.8V47.63H117.84ZM117.84 61.55V49.63H120.8V61.47H117.84V61.55ZM132.16 60.27H132.4L132.32 60.83C132.32 63.39 131.04 63.95 128.96 63.95C127.44 63.95 125.76 63.39 124.64 62.67H124V65.23C125.28 66.03 127.28 66.51 128.96 66.51C132.72 66.51 135.36 64.83 135.36 61.07V49.63H132.56V51.07H132.4C132 50.03 130.88 49.31 129.2 49.31C125.76 49.31 123.12 52.03 123.12 55.55C123.12 58.99 125.6 61.71 128.8 61.71C130.16 61.71 131.44 61.31 132.16 60.27ZM132.4 53.87V56.67C132.32 57.95 131.04 59.07 129.44 59.07C127.68 59.07 126.16 57.71 126.16 55.55C126.16 53.31 127.76 51.95 129.52 51.95C130.88 51.95 132.32 52.67 132.4 53.87ZM138.4 47.63V44.51H141.36V47.63H138.4ZM138.4 61.55V49.63H141.36V61.47H138.4V61.55ZM150.88 49.63H148.08L148 45.79H145.04V49.63H143.36V52.03H145.04V57.87C145.04 60.43 146.4 61.55 148.24 61.55H150.72V59.23H149.12C148.48 59.23 148.08 58.99 148.08 57.71V52.03H150.88V49.63ZM160.72 60.43H160.56C159.84 61.23 158.8 61.79 157.36 61.79C154.48 61.79 152.56 60.19 152.56 58.03C152.56 55.79 154.24 54.43 157.36 54.03C158.16 53.87 159.52 53.71 160.32 53.63L160.64 53.39C160.32 52.43 159.36 51.79 158 51.79C156.4 51.79 155.12 52.19 153.92 52.99H153.36V50.83C154.72 49.87 156.4 49.31 158.4 49.31C161.52 49.31 163.76 50.91 163.76 54.11V61.47H160.96V60.43H160.72ZM160.72 57.71V56.03L157.52 56.43C156.24 56.67 155.44 57.07 155.44 58.11C155.44 58.99 156.08 59.55 157.44 59.55C159.04 59.47 160.72 58.67 160.72 57.71ZM169.68 61.47V44.35H166.72V61.47H169.68ZM100.88 81.87H101.52C103.36 83.31 105.52 84.11 107.36 84.11C109.36 84.11 110.56 83.31 110.56 82.19C110.56 80.83 109.28 80.27 106.8 79.79C103.44 79.15 100.8 78.11 100.8 74.75C100.8 71.63 103.68 69.71 107.36 69.71C110 69.71 112 70.59 113.12 71.55V74.43H112.56C111.2 73.39 109.44 72.59 107.2 72.59C105.28 72.59 104 73.39 104 74.59C104 75.87 105.28 76.35 108 76.91C111.36 77.63 113.68 78.91 113.68 82.03C113.68 84.91 111.04 86.99 107.2 86.99C104.32 86.99 102.24 86.19 100.8 84.75V81.71H100.88V81.87ZM121.6 84.27C120 84.27 119.12 83.31 119.12 81.79V74.83H116V82.27C116 85.31 117.36 86.91 120.56 86.91C122.48 86.91 123.76 85.87 124.08 84.35H124.56V86.67H127.52V74.83H124.4V81.71C124.4 83.15 123.04 84.27 121.6 84.27ZM138.72 79.71C138.72 78.27 137.68 77.39 136.24 77.39C134.88 77.39 133.52 78.43 133.44 79.79V86.83H130.32V74.91H133.28V77.23H133.68C133.92 75.87 135.2 74.67 136.96 74.67C138.96 74.67 140.4 75.55 141.04 77.07H141.28C141.76 75.55 143.52 74.67 145.2 74.67C148 74.67 149.92 76.19 149.92 79.15V86.75H146.8V79.71C146.8 78.27 145.76 77.39 144.32 77.39C142.8 77.39 141.6 78.43 141.52 79.79V86.83H138.4V79.71H138.72ZM158.88 77.39C160.24 77.39 161.36 78.27 161.36 79.71H161.2V86.83H164.32V79.79C164.4 78.43 165.6 77.39 167.12 77.39C168.48 77.39 169.6 78.27 169.6 79.71V86.75H172.72V79.23C172.72 76.27 170.8 74.75 168 74.75C166.32 74.75 164.56 75.63 164.08 77.15H163.84C163.2 75.63 161.76 74.75 159.76 74.75C158 74.75 156.72 75.95 156.48 77.31H156.08V74.99H153.12V86.83H156.24V79.79C156.16 78.35 157.44 77.39 158.88 77.39ZM175.68 72.91V69.79H178.64V72.91H175.68ZM175.68 86.75V74.91H178.64V86.75H175.68ZM188 74.91H185.2L185.12 71.07H182.16V74.83H180.48V77.23H182.16V83.07C182.16 85.63 183.52 86.75 185.36 86.75H187.84V84.43H186.24C185.6 84.43 185.2 84.19 185.2 82.91V77.39H188V74.91Z" fill="#F0F1F2"/>
</svg>
