<svg fill="none" height="25" viewBox="0 0 24 25" width="24" xmlns="http://www.w3.org/2000/svg" xmlns:xlink="http://www.w3.org/1999/xlink"><clipPath id="a"><path d="m0 .5h24v24h-24z"/></clipPath><g clip-path="url(#a)"><path clip-rule="evenodd" d="m12 .5c-6.62577 0-12 5.50943-12 12.3019 0 5.4339 3.46012 10.0377 8.17178 11.6981.58896.0755.80982-.3019.80982-.6038s0-1.0566 0-2.1132c-3.31289.7547-4.04908-1.6604-4.04908-1.6604-.51534-1.4339-1.32516-1.8113-1.32516-1.8113-1.10429-.7547.07362-.7547.07362-.7547 1.17792.0755 1.84049 1.283 1.84049 1.283 1.1043 1.8868 2.79755 1.3585 3.46013 1.0566.07361-.8302.44171-1.3585.73619-1.6603-2.65031-.3019-5.44785-1.3585-5.44785-6.1133 0-1.3584.44172-2.41505 1.25153-3.32071-.07362-.22642-.51534-1.50944.14724-3.16981 0 0 1.03068-.30189 3.31289 1.28301.95705-.30188 1.9877-.37735 3.0184-.37735s2.0613.15094 3.0184.37735c2.2822-1.5849 3.3129-1.28301 3.3129-1.28301.6626 1.66037.2208 2.94339.1472 3.24528.7362.83019 1.2516 1.96224 1.2516 3.32074 0 4.7547-2.7976 5.7359-5.4479 6.0378.4417.3773.8098 1.132.8098 2.2641v3.3962c0 .3019.2209.6793.8098.6038 4.7853-1.6604 8.1718-6.2642 8.1718-11.6981-.0736-6.79247-5.4478-12.3019-12.0736-12.3019z" fill="#000" fill-rule="evenodd"/></g></svg>