<svg fill="none" height="28" viewBox="0 0 29 28" width="29" xmlns="http://www.w3.org/2000/svg" xmlns:xlink="http://www.w3.org/1999/xlink"><clipPath id="a"><path d="m.118652 0h28.0519v28h-28.0519z"/></clipPath><g clip-path="url(#a)"><path clip-rule="evenodd" d="m14.1446 0c-7.74438 0-14.025948 6.42767-14.025948 14.3522 0 6.3396 4.044298 11.7107 9.551428 13.6478.68842.0881.94652-.3522.94652-.7044s0-1.2327 0-2.4654c-3.87218.8805-4.73267-1.9371-4.73267-1.9371-.60234-1.673-1.54888-2.1132-1.54888-2.1132-1.29073-.8805.08605-.8805.08605-.8805 1.37678.088 2.15122 1.4968 2.15122 1.4968 1.29074 2.2013 3.26986 1.5849 4.04428 1.2327.0861-.9685.5163-1.5849.8605-1.9371-3.09775-.3522-6.36761-1.5849-6.36761-7.1321 0-1.5849.51629-2.8176 1.46283-3.87416-.08605-.26416-.60234-1.76101.1721-3.69812 0 0 1.20468-.3522 3.87218 1.49686 1.1187-.3522 2.3233-.44025 3.528-.44025s2.4094.1761 3.528.44025c2.6676-1.84906 3.8722-1.49686 3.8722-1.49686.7745 1.93711.2582 3.43396.1721 3.78617.8605.96851 1.4629 2.28931 1.4629 3.87421 0 5.5472-3.2699 6.6918-6.3677 7.044.5163.4403.9466 1.3208.9466 2.6415v3.9623c0 .3522.2581.7925.9465.7044 5.5932-1.9371 9.5515-7.3082 9.5515-13.6478-.0861-7.92453-6.3677-14.3522-14.1121-14.3522z" fill="#000" fill-rule="evenodd"/></g></svg>