<svg width="24" height="25" viewBox="0 0 24 25" fill="none" xmlns="http://www.w3.org/2000/svg">
<g clip-path="url(#clip0_3288_2561)">
<path fill-rule="evenodd" clip-rule="evenodd" d="M12 0.501953C5.37423 0.501953 0 6.01139 0 12.8038C0 18.2378 3.46012 22.8416 8.17178 24.502C8.76074 24.5774 8.9816 24.2001 8.9816 23.8982C8.9816 23.5963 8.9816 22.8416 8.9816 21.785C5.66871 22.5397 4.93252 20.1246 4.93252 20.1246C4.41718 18.6906 3.60736 18.3133 3.60736 18.3133C2.50307 17.5586 3.68098 17.5586 3.68098 17.5586C4.8589 17.634 5.52147 18.8416 5.52147 18.8416C6.62577 20.7284 8.31902 20.2001 8.9816 19.8982C9.05521 19.068 9.42331 18.5397 9.71779 18.2378C7.06748 17.9359 4.26994 16.8793 4.26994 12.1246C4.26994 10.7661 4.71166 9.7095 5.52147 8.80384C5.44785 8.57743 5.00613 7.29441 5.66871 5.63403C5.66871 5.63403 6.69939 5.33214 8.9816 6.91705C9.93865 6.61516 10.9693 6.53969 12 6.53969C13.0307 6.53969 14.0613 6.69063 15.0184 6.91705C17.3006 5.33214 18.3313 5.63403 18.3313 5.63403C18.9939 7.29441 18.5521 8.57743 18.4785 8.87931C19.2147 9.7095 19.7301 10.8416 19.7301 12.2001C19.7301 16.9548 16.9325 17.9359 14.2822 18.2378C14.7239 18.6152 15.092 19.3699 15.092 20.502C15.092 22.1623 15.092 23.4454 15.092 23.8982C15.092 24.2001 15.3129 24.5774 15.9018 24.502C20.6871 22.8416 24.0736 18.2378 24.0736 12.8038C24 6.01139 18.6258 0.501953 12 0.501953Z" fill="black"/>
</g>
<defs>
<clipPath id="clip0_3288_2561">
<rect width="24" height="24" fill="white" transform="translate(0 0.501953)"/>
</clipPath>
</defs>
</svg>
