<svg width="29" height="28" viewBox="0 0 29 28" fill="none" xmlns="http://www.w3.org/2000/svg">
<g clip-path="url(#clip0_3190_3488)">
<path fill-rule="evenodd" clip-rule="evenodd" d="M14.1446 0C6.40022 0 0.118652 6.42767 0.118652 14.3522C0.118652 20.6918 4.16295 26.0629 9.67008 28C10.3585 28.0881 10.6166 27.6478 10.6166 27.2956C10.6166 26.9434 10.6166 26.0629 10.6166 24.8302C6.74442 25.7107 5.88393 22.8931 5.88393 22.8931C5.28159 21.2201 4.33505 20.7799 4.33505 20.7799C3.04432 19.8994 4.4211 19.8994 4.4211 19.8994C5.79788 19.9874 6.57232 21.3962 6.57232 21.3962C7.86306 23.5975 9.84218 22.9811 10.6166 22.6289C10.7027 21.6604 11.1329 21.044 11.4771 20.6918C8.37935 20.3396 5.10949 19.1069 5.10949 13.5597C5.10949 11.9748 5.62578 10.7421 6.57232 9.68554C6.48627 9.42138 5.96998 7.92453 6.74442 5.98742C6.74442 5.98742 7.9491 5.63522 10.6166 7.48428C11.7353 7.13208 12.9399 7.04403 14.1446 7.04403C15.3493 7.04403 16.554 7.22013 17.6726 7.48428C20.3402 5.63522 21.5448 5.98742 21.5448 5.98742C22.3193 7.92453 21.803 9.42138 21.7169 9.77359C22.5774 10.7421 23.1798 12.0629 23.1798 13.6478C23.1798 19.195 19.9099 20.3396 16.8121 20.6918C17.3284 21.1321 17.7587 22.0126 17.7587 23.3333C17.7587 25.2704 17.7587 26.7673 17.7587 27.2956C17.7587 27.6478 18.0168 28.0881 18.7052 28C24.2984 26.0629 28.2567 20.6918 28.2567 14.3522C28.1706 6.42767 21.889 0 14.1446 0Z" fill="black"/>
</g>
<defs>
<clipPath id="clip0_3190_3488">
<rect width="28.0519" height="28" fill="white" transform="translate(0.118652)"/>
</clipPath>
</defs>
</svg>
