<svg fill="none" height="29" viewBox="0 0 29 29" width="29" xmlns="http://www.w3.org/2000/svg" xmlns:xlink="http://www.w3.org/1999/xlink"><clipPath id="a"><path d="m.118652.472656h28.0519v28h-28.0519z"/></clipPath><g clip-path="url(#a)"><path clip-rule="evenodd" d="m14.1446.472656c-7.74438 0-14.025948 6.427674-14.025948 14.352244 0 6.3396 4.044298 11.7106 9.551428 13.6478.68842.088.94652-.3522.94652-.7044s0-1.2327 0-2.4655c-3.87218.8805-4.73267-1.9371-4.73267-1.9371-.60234-1.6729-1.54888-2.1132-1.54888-2.1132-1.29073-.8805.08605-.8805.08605-.8805 1.37678.0881 2.15122 1.4969 2.15122 1.4969 1.29074 2.2012 3.26986 1.5849 4.04428 1.2327.0861-.9686.5163-1.5849.8605-1.9371-3.09775-.3522-6.36761-1.5849-6.36761-7.1321 0-1.5849.51629-2.8176 1.46283-3.8742-.08605-.26416-.60234-1.76102.1721-3.69812 0 0 1.20468-.3522 3.87218 1.49685 1.1187-.3522 2.3233-.44025 3.528-.44025s2.4094.1761 3.528.44025c2.6676-1.84905 3.8722-1.49685 3.8722-1.49685.7745 1.9371.2582 3.43396.1721 3.78612.8605.9686 1.4629 2.2894 1.4629 3.8743 0 5.5471-3.2699 6.6918-6.3677 7.044.5163.4402.9466 1.3207.9466 2.6415v3.9623c0 .3522.2581.7924.9465.7044 5.5932-1.9372 9.5515-7.3082 9.5515-13.6478-.0861-7.92457-6.3677-14.352244-14.1121-14.352244z" fill="#000" fill-rule="evenodd"/></g></svg>