<svg width="29" height="28" viewBox="0 0 29 28" fill="none" xmlns="http://www.w3.org/2000/svg">
<g clip-path="url(#clip0_3097_2414)">
<path fill-rule="evenodd" clip-rule="evenodd" d="M14.1447 0C6.40032 0 0.118744 6.42767 0.118744 14.3522C0.118744 20.6918 4.16304 26.0629 9.67018 28C10.3586 28.0881 10.6167 27.6478 10.6167 27.2956C10.6167 26.9434 10.6167 26.0629 10.6167 24.8302C6.74451 25.7107 5.88402 22.8931 5.88402 22.8931C5.28168 21.2201 4.33514 20.7799 4.33514 20.7799C3.04441 19.8994 4.42119 19.8994 4.42119 19.8994C5.79797 19.9874 6.57241 21.3962 6.57241 21.3962C7.86315 23.5975 9.84227 22.9811 10.6167 22.6289C10.7028 21.6604 11.133 21.044 11.4772 20.6918C8.37944 20.3396 5.10958 19.1069 5.10958 13.5597C5.10958 11.9748 5.62588 10.7421 6.57241 9.68554C6.48636 9.42138 5.97007 7.92453 6.74451 5.98742C6.74451 5.98742 7.9492 5.63522 10.6167 7.48428C11.7353 7.13208 12.94 7.04403 14.1447 7.04403C15.3494 7.04403 16.5541 7.22013 17.6727 7.48428C20.3402 5.63522 21.5449 5.98742 21.5449 5.98742C22.3194 7.92453 21.8031 9.42138 21.717 9.77359C22.5775 10.7421 23.1799 12.0629 23.1799 13.6478C23.1799 19.195 19.91 20.3396 16.8122 20.6918C17.3285 21.1321 17.7588 22.0126 17.7588 23.3333C17.7588 25.2704 17.7588 26.7673 17.7588 27.2956C17.7588 27.6478 18.0169 28.0881 18.7053 28C24.2985 26.0629 28.2567 20.6918 28.2567 14.3522C28.1707 6.42767 21.8891 0 14.1447 0Z" fill="black"/>
</g>
<defs>
<clipPath id="clip0_3097_2414">
<rect width="28.0519" height="28" fill="white" transform="translate(0.118744)"/>
</clipPath>
</defs>
</svg>
