<svg fill="none" height="100" viewBox="0 0 103 100" width="103" xmlns="http://www.w3.org/2000/svg" xmlns:xlink="http://www.w3.org/1999/xlink"><clipPath id="a"><path d="m0 0h102.516v100h-102.516z"/></clipPath><g clip-path="url(#a)"><path clip-rule="evenodd" d="m51.2579 0c-28.3019 0-51.2579 22.956-51.2579 51.2579 0 22.6415 14.7799 41.8239 34.9057 48.7421 2.5157.314 3.4591-1.2579 3.4591-2.5157 0-1.2579 0-4.4025 0-8.805-14.151 3.1446-17.2956-6.9183-17.2956-6.9183-2.2013-5.9748-5.6604-7.5472-5.6604-7.5472-4.717-3.1446.3145-3.1446.3145-3.1446 5.0314.3145 7.8616 5.3459 7.8616 5.3459 4.717 7.8616 11.9497 5.6604 14.7799 4.4025.3144-3.4591 1.8868-5.6604 3.1446-6.9182-11.3207-1.2579-23.2704-5.6604-23.2704-25.4717 0-5.6604 1.8868-10.0629 5.3459-13.8365-.3145-.9434-2.2013-6.2893.6289-13.2076 0 0 4.4026-1.2578 14.151 5.346 4.088-1.2579 8.4905-1.5724 12.8931-1.5724 4.4025 0 8.805.629 12.893 1.5724 9.7485-6.6038 14.151-5.346 14.151-5.346 2.8302 6.9183.9434 12.2642.6289 13.5221 3.1447 3.4591 5.3459 8.1761 5.3459 13.8364 0 19.8114-11.9497 23.8994-23.2704 25.1573 1.8868 1.5723 3.4591 4.717 3.4591 9.4339v14.151c0 1.2578.9434 2.8297 3.4591 2.5157 20.4403-6.9182 34.9055-26.1006 34.9055-48.7421-.314-28.3019-23.2702-51.2579-51.5721-51.2579z" fill="#191717" fill-rule="evenodd"/></g></svg>