<svg fill="none" height="253" viewBox="0 0 88 253" width="88" xmlns="http://www.w3.org/2000/svg"><path d="m15.351 121.848-14.441912 130.943 65.810012.001-12.7019-128.212c-1.6608-16.764 4.3183-33.3845 16.2781-45.2489l9.5765-9.5001c3.8533-3.8225 2.6238-10.3286-2.3586-12.4814-6.5518-2.8309-10.7941-9.2852-10.7941-16.4225v-27.2589c0-1.3669-.4749-2.6914-1.3435-3.74695l-.482-.5857c-1.9229-2.33674-5.1521-3.13334-7.9411-1.95901-1.8815.79219-4.0535.39427-5.5319-1.01344l-1.7009-1.6195c-2.4561-2.33873-6.1702-2.75323-9.0815-1.01354-1.728 1.03259-3.8743 1.07041-5.6376.09938l-.8524-.46943c-2.8439-1.56611-6.3421-1.31845-8.937.63276-1.8826 1.41562-4.2806 1.95892-6.5896 1.49295l-.3212-.06484c-3.5884-.72416-7.0981 1.55074-7.9022 5.12212l-6.20562 27.5601c-2.14216 9.5137-1.45548 19.4462 1.97549 28.5746l3.39222 9.0253c5.52991 14.7129 7.51381 30.522 5.79071 46.145z" fill="#ff7f80"/></svg>