<svg width="17" height="16" viewBox="0 0 17 16" fill="none" xmlns="http://www.w3.org/2000/svg">
<path fill-rule="evenodd" clip-rule="evenodd" d="M2.27344 8C2.27344 6.27609 2.95826 4.62279 4.17724 3.40381C5.39623 2.18482 7.04953 1.5 8.77344 1.5C10.4973 1.5 12.1506 2.18482 13.3696 3.40381C14.5886 4.62279 15.2734 6.27609 15.2734 8C15.2734 9.72391 14.5886 11.3772 13.3696 12.5962C12.1506 13.8152 10.4973 14.5 8.77344 14.5C7.04953 14.5 5.39623 13.8152 4.17724 12.5962C2.95826 11.3772 2.27344 9.72391 2.27344 8ZM8.77344 0C6.65171 0 4.61687 0.842855 3.11658 2.34315C1.61629 3.84344 0.773438 5.87827 0.773438 8C0.773438 10.1217 1.61629 12.1566 3.11658 13.6569C4.61687 15.1571 6.65171 16 8.77344 16C10.8952 16 12.93 15.1571 14.4303 13.6569C15.9306 12.1566 16.7734 10.1217 16.7734 8C16.7734 5.87827 15.9306 3.84344 14.4303 2.34315C12.93 0.842855 10.8952 0 8.77344 0V0ZM9.27344 4.75C9.27344 4.55109 9.19442 4.36032 9.05377 4.21967C8.91311 4.07902 8.72235 4 8.52344 4C8.32453 4 8.13376 4.07902 7.99311 4.21967C7.85246 4.36032 7.77344 4.55109 7.77344 4.75V8.25C7.77347 8.39978 7.81835 8.54612 7.9023 8.67017C7.98624 8.79421 8.10541 8.89028 8.24444 8.946L10.7444 9.946C10.9276 10.0129 11.1295 10.0058 11.3075 9.92633C11.4856 9.84684 11.6256 9.70115 11.6981 9.52014C11.7705 9.33914 11.7696 9.13705 11.6955 8.95669C11.6215 8.77634 11.4802 8.63191 11.3014 8.554L9.27344 7.742V4.75Z" fill="black"/>
</svg>
