<svg fill="none" height="14" viewBox="0 0 15 14" width="15" xmlns="http://www.w3.org/2000/svg" xmlns:xlink="http://www.w3.org/1999/xlink"><clipPath id="a"><path d="m.273438.001953h14v14h-14z"/></clipPath><g clip-path="url(#a)"><path clip-rule="evenodd" d="m7.27344 1.30195c3.13996 0 5.69996 2.56 5.69996 5.7 0 3.14005-2.56 5.70005-5.69996 5.70005-1.51092-.0027-2.95921-.6041-4.02759-1.6725-1.06839-1.06834-1.66977-2.51663-1.67241-4.02755 0-3.14 2.56-5.7 5.7-5.7zm0-1.29999688c-3.86 0-7.000002 3.13999688-7.000002 6.99999688 0 3.86005 3.140002 7.00005 7.000002 7.00005 3.85996 0 6.99996-3.14 6.99996-7.00005 0-3.86-3.14-6.99999688-6.99996-6.99999688zm1 2.99999688h-2v5h2zm0 6h-2v2.00005h2z" fill="#000" fill-rule="evenodd"/></g></svg>