<svg width="14" height="15" viewBox="0 0 14 15" fill="none" xmlns="http://www.w3.org/2000/svg">
<g clip-path="url(#clip0_3288_3424)">
<path fill-rule="evenodd" clip-rule="evenodd" d="M11.6254 10.3427V4.84766C11.5992 4.16516 11.3279 3.56141 10.8029 3.04516C10.2779 2.52891 9.68294 2.24891 9.00044 2.22266H8.12544V0.472656L5.50044 3.09766L8.12544 5.72266V3.97266H9.00044C9.23669 3.99016 9.42043 4.06891 9.60419 4.24391C9.78794 4.41891 9.86669 4.61141 9.87544 4.84766V10.3427C9.54231 10.5345 9.28192 10.8311 9.13477 11.1863C8.98761 11.5414 8.96194 11.9352 9.06174 12.3065C9.16154 12.6778 9.38122 13.0056 9.68661 13.2391C9.99201 13.4726 10.366 13.5987 10.7504 13.5977C11.1349 13.5987 11.5089 13.4726 11.8143 13.2391C12.1197 13.0056 12.3393 12.6778 12.4391 12.3065C12.5389 11.9352 12.5133 11.5414 12.3661 11.1863C12.2189 10.8311 11.9586 10.5345 11.6254 10.3427ZM10.7504 12.8977C10.1729 12.8977 9.70044 12.4164 9.70044 11.8477C9.70044 11.2789 10.1817 10.7977 10.7504 10.7977C11.3192 10.7977 11.8004 11.2789 11.8004 11.8477C11.8004 12.4164 11.3192 12.8977 10.7504 12.8977ZM5.50044 3.09766C5.50044 2.12641 4.72169 1.34766 3.75044 1.34766C3.366 1.34664 2.99201 1.47268 2.68661 1.70619C2.38122 1.93969 2.16154 2.26756 2.06174 2.63881C1.96194 3.01007 1.98762 3.40389 2.13477 3.75905C2.28192 4.1142 2.54231 4.41078 2.87544 4.60266V10.3427C2.54231 10.5345 2.28192 10.8311 2.13477 11.1863C1.98762 11.5414 1.96194 11.9352 2.06174 12.3065C2.16154 12.6778 2.38122 13.0056 2.68661 13.2391C2.99201 13.4726 3.366 13.5987 3.75044 13.5977C4.13487 13.5987 4.50886 13.4726 4.81426 13.2391C5.11965 13.0056 5.33933 12.6778 5.43913 12.3065C5.53893 11.9352 5.51326 11.5414 5.3661 11.1863C5.21895 10.8311 4.95856 10.5345 4.62544 10.3427V4.60266C5.14169 4.30516 5.50044 3.74516 5.50044 3.09766ZM4.80044 11.8477C4.80044 12.4252 4.31919 12.8977 3.75044 12.8977C3.18169 12.8977 2.70044 12.4164 2.70044 11.8477C2.70044 11.2789 3.18169 10.7977 3.75044 10.7977C4.31919 10.7977 4.80044 11.2789 4.80044 11.8477ZM3.75044 4.14766C3.17294 4.14766 2.70044 3.66641 2.70044 3.09766C2.70044 2.52891 3.18169 2.04766 3.75044 2.04766C4.31919 2.04766 4.80044 2.52891 4.80044 3.09766C4.80044 3.66641 4.31919 4.14766 3.75044 4.14766Z" fill="black"/>
</g>
<defs>
<clipPath id="clip0_3288_3424">
<rect width="14" height="14" fill="white" transform="translate(0 0.472656)"/>
</clipPath>
</defs>
</svg>
