<svg width="16" height="16" viewBox="0 0 16 16" fill="none" xmlns="http://www.w3.org/2000/svg">
<path fill-rule="evenodd" clip-rule="evenodd" d="M8.74991 1.62427C8.74991 1.42536 8.67089 1.23459 8.53024 1.09394C8.38958 0.953285 8.19882 0.874268 7.99991 0.874268C7.80099 0.874268 7.61023 0.953285 7.46958 1.09394C7.32892 1.23459 7.24991 1.42536 7.24991 1.62427V2.87427H6.26591C5.96091 2.87427 5.66191 2.95427 5.39691 3.10427L4.10891 3.84127C4.07085 3.86304 4.02775 3.87442 3.98391 3.87427H1.74991C1.55099 3.87427 1.36023 3.95329 1.21958 4.09394C1.07892 4.23459 0.999907 4.42536 0.999907 4.62427C0.999907 4.82318 1.07892 5.01395 1.21958 5.1546C1.36023 5.29525 1.55099 5.37427 1.74991 5.37427H2.17791L0.0659066 10.0663C0.00352465 10.2051 -0.0151535 10.3596 0.0123529 10.5093C0.0398593 10.6589 0.112248 10.7967 0.219907 10.9043L0.749907 10.3743L0.219907 10.9043V10.9053L0.221907 10.9073L0.223907 10.9093L0.229907 10.9153L0.245907 10.9303L0.290907 10.9703C0.501218 11.1465 0.731454 11.2976 0.976907 11.4203C1.60661 11.7273 2.2994 11.8828 2.99991 11.8743C3.87991 11.8743 4.55591 11.6543 5.02291 11.4203C5.26835 11.2976 5.49859 11.1465 5.70891 10.9703L5.75391 10.9303L5.76991 10.9153L5.77591 10.9093L5.77791 10.9073L5.77891 10.9053L5.24991 10.3743L5.77991 10.9043C5.88757 10.7967 5.95995 10.6589 5.98746 10.5093C6.01497 10.3596 5.99629 10.2051 5.93391 10.0663L3.82191 5.37427H3.98391C4.28891 5.37427 4.58791 5.29427 4.85291 5.14427L6.14191 4.40727C6.17967 4.38567 6.22241 4.37429 6.26591 4.37427H7.24991V13.8743H4.74991C4.55099 13.8743 4.36023 13.9533 4.21958 14.0939C4.07892 14.2346 3.99991 14.4254 3.99991 14.6243C3.99991 14.8232 4.07892 15.0139 4.21958 15.1546C4.36023 15.2952 4.55099 15.3743 4.74991 15.3743H11.2499C11.4488 15.3743 11.6396 15.2952 11.7802 15.1546C11.9209 15.0139 11.9999 14.8232 11.9999 14.6243C11.9999 14.4254 11.9209 14.2346 11.7802 14.0939C11.6396 13.9533 11.4488 13.8743 11.2499 13.8743H8.74991V4.37427H9.73391C9.77741 4.37429 9.82015 4.38567 9.85791 4.40727L11.1479 5.14327C11.4119 5.29527 11.7109 5.37427 12.0159 5.37427H12.1779L10.0659 10.0663C10.0035 10.2051 9.98485 10.3596 10.0124 10.5093C10.0399 10.6589 10.1122 10.7967 10.2199 10.9043L10.7499 10.3743L10.2199 10.9043V10.9053L10.2219 10.9073L10.2239 10.9093L10.2299 10.9153L10.2459 10.9303L10.2909 10.9703C10.5012 11.1465 10.7315 11.2975 10.9769 11.4203C11.6066 11.7273 12.2994 11.8828 12.9999 11.8743C13.8799 11.8743 14.5559 11.6543 15.0229 11.4203C15.2684 11.2976 15.4986 11.1466 15.7089 10.9703L15.7539 10.9303L15.7639 10.9203L15.7699 10.9153L15.7759 10.9093L15.7779 10.9073L15.7789 10.9053L15.2499 10.3743L15.7799 10.9043C15.8876 10.7967 15.96 10.6589 15.9875 10.5093C16.015 10.3596 15.9963 10.2051 15.9339 10.0663L13.8229 5.37427H14.2499C14.4488 5.37427 14.6396 5.29525 14.7802 5.1546C14.9209 5.01395 14.9999 4.82318 14.9999 4.62427C14.9999 4.42536 14.9209 4.23459 14.7802 4.09394C14.6396 3.95329 14.4488 3.87427 14.2499 3.87427H12.0159C11.9724 3.87424 11.9297 3.86287 11.8919 3.84127L10.6019 3.10527C10.3379 2.95423 10.0391 2.87461 9.73491 2.87427H8.74991V1.62427ZM1.69491 10.1013C1.97991 10.2363 2.41291 10.3743 2.99991 10.3743C3.58691 10.3743 4.01991 10.2363 4.30491 10.1013L2.99991 7.20127L1.69491 10.1013ZM11.6949 10.1013C11.9799 10.2363 12.4129 10.3743 12.9999 10.3743C13.5869 10.3743 14.0199 10.2363 14.3049 10.1013L12.9999 7.20127L11.6949 10.1013Z" fill="black"/>
</svg>
