<svg width="16" height="17" viewBox="0 0 16 17" fill="none" xmlns="http://www.w3.org/2000/svg">
<path fill-rule="evenodd" clip-rule="evenodd" d="M1.5 8.12427C1.5 6.40036 2.18482 4.74706 3.40381 3.52807C4.62279 2.30909 6.27609 1.62427 8 1.62427C9.72391 1.62427 11.3772 2.30909 12.5962 3.52807C13.8152 4.74706 14.5 6.40036 14.5 8.12427C14.5 9.84817 13.8152 11.5015 12.5962 12.7205C11.3772 13.9394 9.72391 14.6243 8 14.6243C6.27609 14.6243 4.62279 13.9394 3.40381 12.7205C2.18482 11.5015 1.5 9.84817 1.5 8.12427V8.12427ZM8 0.124268C5.87827 0.124268 3.84344 0.967122 2.34315 2.46741C0.842855 3.9677 0 6.00254 0 8.12427C0 10.246 0.842855 12.2808 2.34315 13.7811C3.84344 15.2814 5.87827 16.1243 8 16.1243C10.1217 16.1243 12.1566 15.2814 13.6569 13.7811C15.1571 12.2808 16 10.246 16 8.12427C16 6.00254 15.1571 3.9677 13.6569 2.46741C12.1566 0.967122 10.1217 0.124268 8 0.124268V0.124268ZM8.5 4.87427C8.5 4.67536 8.42098 4.48459 8.28033 4.34394C8.13968 4.20329 7.94891 4.12427 7.75 4.12427C7.55109 4.12427 7.36032 4.20329 7.21967 4.34394C7.07902 4.48459 7 4.67536 7 4.87427V8.37427C7.00003 8.52405 7.04492 8.67039 7.12886 8.79443C7.21281 8.91848 7.33197 9.01455 7.471 9.07027L9.971 10.0703C10.1541 10.1371 10.3561 10.1301 10.5341 10.0506C10.7121 9.9711 10.8522 9.82542 10.9246 9.64441C10.997 9.46341 10.9961 9.26131 10.9221 9.08096C10.8481 8.90061 10.7067 8.75617 10.528 8.67827L8.5 7.86627V4.87427Z" fill="black"/>
</svg>
