<svg width="72" height="73" viewBox="0 0 72 73" fill="none" xmlns="http://www.w3.org/2000/svg">
<path d="M0 32.5186C0 21.3175 0 15.717 2.17987 11.4387C4.09734 7.6755 7.15695 4.61589 10.9202 2.69842C15.1984 0.518555 20.799 0.518555 32 0.518555H40C51.201 0.518555 56.8016 0.518555 61.0798 2.69842C64.843 4.61589 67.9027 7.6755 69.8201 11.4387C72 15.717 72 21.3175 72 32.5186V40.5186C72 51.7196 72 57.3201 69.8201 61.5984C67.9027 65.3616 64.843 68.4212 61.0798 70.3387C56.8016 72.5186 51.201 72.5186 40 72.5186H32C20.7989 72.5186 15.1984 72.5186 10.9202 70.3387C7.15695 68.4212 4.09734 65.3616 2.17987 61.5984C0 57.3201 0 51.7196 0 40.5186V32.5186Z" fill="url(#paint0_linear_4041_5269)"/>
<circle cx="35.5881" cy="36.5185" r="28.8" stroke="#666666" stroke-linecap="round" stroke-dasharray="10 3"/>
<path d="M35.5879 17.3496L17.5879 26.3496L18.7937 46.4381L35.5879 57.5265L52.3821 46.4381L53.5879 26.3496L35.5879 17.3496Z" fill="#FFF61F"/>
<path d="M17.5879 26.3496L35.5879 17.3496L53.5879 26.3496L35.5879 35.3496L17.5879 26.3496Z" fill="#DDDDDD"/>
<path d="M35.5879 57.5265L36.7937 37.4381L53.5879 26.3496L52.3821 46.4381L35.5879 57.5265Z" fill="#727272"/>
<path d="M17.5879 26.3496L34.3821 37.4381L35.5879 57.5265L18.7937 46.4381L17.5879 26.3496Z" fill="#C0C0C0"/>
<path d="M10.3606 47.8011C12.1954 47.8434 14.2413 51.3871 13.3606 52.9972L4.86817 54.4362L10.3606 47.8011Z" fill="#48D746"/>
<path d="M12.457 50.0967L25.4474 42.5967" stroke="#48D746" stroke-linecap="round"/>
<path d="M58.7188 50.0967L45.7284 42.5967" stroke="#FF3F3F" stroke-linecap="round"/>
<path d="M57.8152 52.9971C56.9345 51.3869 58.9804 47.8433 60.8152 47.801L66.3076 54.4361L57.8152 52.9971Z" fill="#FF3F3F"/>
<path d="M35.5879 11.2175V26.2175" stroke="#1F1FFF" stroke-linecap="round"/>
<path d="M38.5879 10.6066C37.6338 12.1744 33.542 12.1744 32.5879 10.6066L35.5879 2.53247L38.5879 10.6066Z" fill="#1F1FFF"/>
<path d="M49.9878 11.5772C43.1004 7.60071 31.0699 15.5439 23.117 29.3187C15.1641 43.0935 14.3004 57.4838 21.1878 61.4602" stroke="#FF3F3F" stroke-linecap="round"/>
<path d="M21.1162 11.5772C28.0036 7.60071 40.0341 15.5439 47.987 29.3187C55.9399 43.0935 56.8036 57.4838 49.9162 61.4602" stroke="#48D746" stroke-linecap="round"/>
<path d="M64.3881 37.252C64.3881 45.2049 51.4939 51.652 35.5881 51.652C19.6823 51.652 6.78809 45.2049 6.78809 37.252" stroke="#1F1FFF" stroke-linecap="round"/>
<defs>
<linearGradient id="paint0_linear_4041_5269" x1="36" y1="0.518555" x2="36" y2="72.5186" gradientUnits="userSpaceOnUse">
<stop stop-color="#79C2F8"/>
<stop offset="1" stop-color="#C887F0"/>
</linearGradient>
</defs>
</svg>
