<svg width="16" height="16" viewBox="0 0 16 16" fill="none" xmlns="http://www.w3.org/2000/svg">
<path fill-rule="evenodd" clip-rule="evenodd" d="M1.5 8.00073C1.5 6.27683 2.18482 4.62352 3.40381 3.40454C4.62279 2.18555 6.27609 1.50073 8 1.50073C9.72391 1.50073 11.3772 2.18555 12.5962 3.40454C13.8152 4.62352 14.5 6.27683 14.5 8.00073C14.5 9.72464 13.8152 11.3779 12.5962 12.5969C11.3772 13.8159 9.72391 14.5007 8 14.5007C6.27609 14.5007 4.62279 13.8159 3.40381 12.5969C2.18482 11.3779 1.5 9.72464 1.5 8.00073V8.00073ZM8 0.000732422C5.87827 0.000732422 3.84344 0.843587 2.34315 2.34388C0.842855 3.84417 0 5.879 0 8.00073C0 10.1225 0.842855 12.1573 2.34315 13.6576C3.84344 15.1579 5.87827 16.0007 8 16.0007C10.1217 16.0007 12.1566 15.1579 13.6569 13.6576C15.1571 12.1573 16 10.1225 16 8.00073C16 5.879 15.1571 3.84417 13.6569 2.34388C12.1566 0.843587 10.1217 0.000732422 8 0.000732422V0.000732422ZM8.5 4.75073C8.5 4.55182 8.42098 4.36105 8.28033 4.2204C8.13968 4.07975 7.94891 4.00073 7.75 4.00073C7.55109 4.00073 7.36032 4.07975 7.21967 4.2204C7.07902 4.36105 7 4.55182 7 4.75073V8.25073C7.00003 8.40051 7.04492 8.54685 7.12886 8.6709C7.21281 8.79494 7.33197 8.89101 7.471 8.94673L9.971 9.94673C10.1541 10.0136 10.3561 10.0066 10.5341 9.92706C10.7121 9.84757 10.8522 9.70188 10.9246 9.52088C10.997 9.33987 10.9961 9.13778 10.9221 8.95743C10.8481 8.77707 10.7067 8.63264 10.528 8.55473L8.5 7.74273V4.75073Z" fill="black"/>
</svg>
