<svg width="16" height="16" viewBox="0 0 16 16" fill="none" xmlns="http://www.w3.org/2000/svg">
<path fill-rule="evenodd" clip-rule="evenodd" d="M8 2.30146C11.14 2.30146 13.7 4.86146 13.7 8.00146C13.7 11.1415 11.14 13.7015 8 13.7015C6.48908 13.6988 5.0408 13.0974 3.97241 12.0291C2.90403 10.9607 2.30264 9.51239 2.3 8.00146C2.3 4.86146 4.86 2.30146 8 2.30146ZM8 1.00146C4.14 1.00146 1 4.14146 1 8.00146C1 11.8615 4.14 15.0015 8 15.0015C11.86 15.0015 15 11.8615 15 8.00146C15 4.14146 11.86 1.00146 8 1.00146ZM9 4.00146H7V9.00146H9V4.00146ZM9 10.0015H7V12.0015H9V10.0015Z" fill="black"/>
</svg>
