<svg fill="none" height="15" viewBox="0 0 16 15" width="16" xmlns="http://www.w3.org/2000/svg"><path clip-rule="evenodd" d="m8.74991.972656c0-.198912-.07902-.389678-.21967-.53033-.14066-.140652-.33142-.21967-.53033-.21967-.19892 0-.38968.079018-.53033.21967-.14066.140652-.21967.331418-.21967.53033v1.250004h-.984c-.305 0-.604.08-.869.23l-1.288.737c-.03806.02177-.08116.03315-.125.033h-2.234c-.19892 0-.38968.07901-.53033.21967-.14066.14065-.219673.33141-.219673.53033 0 .19891.079013.38967.219673.53033.14065.14065.33141.21967.53033.21967h.428l-2.1120034 4.692c-.06238195.13881-.0810601.29331-.0535537.44299.0275064.14965.0998951.28745.2075541.39505l.53-.53004-.53.53004v.001l.002.002.002.002.006.006.016.015.045.04c.210311.1762.440547.3273.686.45.629703.307 1.322493.4624 2.023003.454.88 0 1.556-.22 2.023-.454.24544-.1228.47568-.2738.686-.45l.045-.04.016-.015.006-.006.002-.002.001-.002-.529-.53104.53.53004c.10766-.1076.18004-.2454.20755-.39505.02751-.14968.00883-.30418-.05355-.44299l-2.112-4.692h.162c.305 0 .604-.08.869-.23l1.289-.737c.03776-.0216.0805-.03298.124-.033h.984v9.50004h-2.5c-.19892 0-.38968.079-.53033.2196-.14066.1407-.21967.3314-.21967.5304 0 .1989.07901.3896.21967.5303.14065.1406.33141.2197.53033.2197h6.49999c.1989 0 .3897-.0791.5303-.2197.1407-.1407.2197-.3314.2197-.5303 0-.199-.079-.3897-.2197-.5304-.1406-.1406-.3314-.2196-.5303-.2196h-2.49999v-9.50004h.984c.0435.00002.08624.0114.124.033l1.28999.736c.264.152.563.231.868.231h.162l-2.112 4.692c-.0624.13881-.08105.29331-.0535.44299.0275.14965.0998.28745.2075.39505l.53-.53004-.53.53004v.001l.002.002.002.002.006.006.016.015.045.04c.2103.1762.4406.3272.686.45.6297.307 1.3225.4624 2.023.454.88 0 1.556-.22 2.023-.454.2455-.1227.4757-.2738.686-.45l.045-.04.01-.01.006-.005.006-.006.002-.002.001-.002-.529-.53104.53.53004c.1077-.1076.1801-.2454.2076-.39505.0275-.14968.0088-.30418-.0536-.44299l-2.111-4.692h.427c.1989 0 .3897-.07902.5303-.21967.1407-.14066.2197-.33142.2197-.53033 0-.19892-.079-.38968-.2197-.53033-.1406-.14066-.3314-.21967-.5303-.21967h-2.234c-.0435-.00003-.0862-.0114-.124-.033l-1.29-.736c-.264-.15104-.5628-.23066-.86699-.231h-.985zm-7.055 8.477004c.285.135.718.273 1.305.273s1.02-.138 1.305-.273l-1.305-2.9zm9.99999 0c.285.135.718.273 1.305.273s1.02-.138 1.305-.273l-1.305-2.9z" fill="#000" fill-rule="evenodd"/></svg>