<svg fill="none" height="14" viewBox="0 0 14 14" width="14" xmlns="http://www.w3.org/2000/svg" xmlns:xlink="http://www.w3.org/1999/xlink"><clipPath id="a"><path d="m0 0h14v14h-14z"/></clipPath><g clip-path="url(#a)"><path clip-rule="evenodd" d="m7 1.3c3.14 0 5.7 2.56 5.7 5.7s-2.56 5.7-5.7 5.7c-1.51092-.0026-2.9592-.604-4.02759-1.6724-1.06838-1.0684-1.66977-2.51668-1.67241-4.0276 0-3.14 2.56-5.7 5.7-5.7zm0-1.3c-3.86 0-7 3.14-7 7s3.14 7 7 7 7-3.14 7-7-3.14-7-7-7zm1 3h-2v5h2zm0 6h-2v2h2z" fill="#000" fill-rule="evenodd"/></g></svg>