<svg fill="none" height="16" viewBox="0 0 16 16" width="16" xmlns="http://www.w3.org/2000/svg"><path clip-rule="evenodd" d="m1.5 8c0-1.72391.68482-3.37721 1.90381-4.59619 1.21898-1.21899 2.87228-1.90381 4.59619-1.90381s3.3772.68482 4.5962 1.90381c1.219 1.21898 1.9038 2.87228 1.9038 4.59619s-.6848 3.3772-1.9038 4.5962-2.87229 1.9038-4.5962 1.9038-3.37721-.6848-4.59619-1.9038c-1.21899-1.219-1.90381-2.87229-1.90381-4.5962zm6.5-8c-2.12173 0-4.15656.842855-5.65685 2.34315-1.500295 1.50029-2.34315 3.53512-2.34315 5.65685 0 2.1217.842855 4.1566 2.34315 5.6569 1.50029 1.5002 3.53512 2.3431 5.65685 2.3431 2.1217 0 4.1566-.8429 5.6569-2.3431 1.5002-1.5003 2.3431-3.5352 2.3431-5.6569 0-2.12173-.8429-4.15656-2.3431-5.65685-1.5003-1.500295-3.5352-2.34315-5.6569-2.34315zm.5 4.75c0-.19891-.07902-.38968-.21967-.53033s-.33142-.21967-.53033-.21967-.38968.07902-.53033.21967-.21967.33142-.21967.53033v3.5c.00003.14978.04492.29612.12886.42017.08395.12404.20311.22011.34214.27583l2.5 1c.1831.0669.3851.0598.5631-.01967.178-.07949.3181-.22518.3905-.40619.0724-.181.0715-.38309-.0025-.56345-.074-.18035-.2154-.32478-.3941-.40269l-2.028-.812z" fill="#fff" fill-rule="evenodd"/></svg>