<svg width="70" height="72" viewBox="0 0 70 72" fill="none" xmlns="http://www.w3.org/2000/svg">
<path d="M0 32C0 20.7989 0 15.1984 2.17987 10.9202C4.09734 7.15695 7.15695 4.09734 10.9202 2.17987C15.1984 0 20.799 0 32 0H40C51.201 0 56.8016 0 61.0798 2.17987C64.843 4.09734 67.9027 7.15695 69.8201 10.9202C72 15.1984 72 20.799 72 32V40C72 51.201 72 56.8016 69.8201 61.0798C67.9027 64.843 64.843 67.9027 61.0798 69.8201C56.8016 72 51.201 72 40 72H32C20.7989 72 15.1984 72 10.9202 69.8201C7.15695 67.9027 4.09734 64.843 2.17987 61.0798C0 56.8016 0 51.201 0 40V32Z" fill="url(#paint0_linear_4041_5311)"/>
<circle cx="35.5881" cy="36" r="28.8" stroke="#666666" stroke-linecap="round" stroke-dasharray="10 3"/>
<path d="M35.5879 16.8312L17.5879 25.8312L18.7937 45.9196L35.5879 57.0081L52.3821 45.9196L53.5879 25.8312L35.5879 16.8312Z" fill="#FFF61F"/>
<path d="M17.5879 25.8312L35.5879 16.8312L53.5879 25.8312L35.5879 34.8312L17.5879 25.8312Z" fill="#DDDDDD"/>
<path d="M35.5879 57.0081L36.7937 36.9196L53.5879 25.8312L52.3821 45.9196L35.5879 57.0081Z" fill="#727272"/>
<path d="M17.5879 25.8312L34.3821 36.9196L35.5879 57.0081L18.7937 45.9196L17.5879 25.8312Z" fill="#C0C0C0"/>
<path d="M10.3606 47.2825C12.1954 47.3249 14.2413 50.8685 13.3606 52.4787L4.86817 53.9177L10.3606 47.2825Z" fill="#48D746"/>
<path d="M12.457 49.5782L25.4474 42.0782" stroke="#48D746" stroke-linecap="round"/>
<path d="M58.7188 49.5782L45.7284 42.0782" stroke="#FF3F3F" stroke-linecap="round"/>
<path d="M57.8152 52.4788C56.9345 50.8686 58.9804 47.325 60.8152 47.2826L66.3076 53.9178L57.8152 52.4788Z" fill="#FF3F3F"/>
<path d="M35.5879 10.6991V25.6991" stroke="#1F1FFF" stroke-linecap="round"/>
<path d="M38.5879 10.0882C37.6338 11.656 33.542 11.656 32.5879 10.0882L35.5879 2.01404L38.5879 10.0882Z" fill="#1F1FFF"/>
<path d="M49.9878 11.0585C43.1004 7.08203 31.0699 15.0252 23.117 28.8C15.1641 42.5748 14.3004 56.9651 21.1878 60.9415" stroke="#FF3F3F" stroke-linecap="round"/>
<path d="M21.1162 11.0585C28.0036 7.08203 40.0341 15.0252 47.987 28.8C55.9399 42.5748 56.8036 56.9651 49.9162 60.9415" stroke="#48D746" stroke-linecap="round"/>
<path d="M64.3881 36.7335C64.3881 44.6864 51.4939 51.1335 35.5881 51.1335C19.6823 51.1335 6.78809 44.6864 6.78809 36.7335" stroke="#1F1FFF" stroke-linecap="round"/>
<defs>
<linearGradient id="paint0_linear_4041_5311" x1="36" y1="0" x2="36" y2="72" gradientUnits="userSpaceOnUse">
<stop stop-color="#79C2F8"/>
<stop offset="1" stop-color="#C887F0"/>
</linearGradient>
</defs>
</svg>
