<svg fill="none" height="16" viewBox="0 0 17 16" width="17" xmlns="http://www.w3.org/2000/svg"><path clip-rule="evenodd" d="m2.25195 8c0-1.72391.68482-3.37721 1.90381-4.59619 1.21899-1.21899 2.87229-1.90381 4.59619-1.90381 1.72395 0 3.37725.68482 4.59615 1.90381 1.219 1.21898 1.9039 2.87228 1.9039 4.59619s-.6849 3.3772-1.9039 4.5962c-1.2189 1.219-2.8722 1.9038-4.59615 1.9038-1.7239 0-3.3772-.6848-4.59619-1.9038s-1.90381-2.87229-1.90381-4.5962zm6.5-8c-2.12173 0-4.15656.842855-5.65685 2.34315-1.50029 1.50029-2.343147 3.53512-2.343147 5.65685 0 2.1217.842857 4.1566 2.343147 5.6569 1.50029 1.5002 3.53512 2.3431 5.65685 2.3431 2.12175 0 4.15655-.8429 5.65685-2.3431 1.5003-1.5003 2.3432-3.5352 2.3432-5.6569 0-2.12173-.8429-4.15656-2.3432-5.65685-1.5003-1.500295-3.5351-2.34315-5.65685-2.34315zm.5 4.75c0-.19891-.07901-.38968-.21967-.53033-.14065-.14065-.33141-.21967-.53033-.21967-.19891 0-.38967.07902-.53033.21967-.14065.14065-.21967.33142-.21967.53033v3.5c.00004.14978.04492.29612.12886.42017.08395.12404.20311.22011.34214.27583l2.50005 1c.1831.0669.3851.0598.5631-.01967.178-.07949.318-.22518.3905-.40619.0724-.181.0715-.38309-.0025-.56345-.0741-.18035-.2154-.32478-.3941-.40269l-2.02805-.812z" fill="#000" fill-rule="evenodd"/></svg>