<svg width="16" height="16" viewBox="0 0 16 16" fill="none" xmlns="http://www.w3.org/2000/svg">
<path fill-rule="evenodd" clip-rule="evenodd" d="M8.74991 1.50073C8.74991 1.30182 8.67089 1.11105 8.53024 0.970402C8.38958 0.82975 8.19882 0.750732 7.99991 0.750732C7.80099 0.750732 7.61023 0.82975 7.46958 0.970402C7.32892 1.11105 7.24991 1.30182 7.24991 1.50073V2.75073H6.26591C5.96091 2.75073 5.66191 2.83073 5.39691 2.98073L4.10891 3.71773C4.07085 3.7395 4.02775 3.75088 3.98391 3.75073H1.74991C1.55099 3.75073 1.36023 3.82975 1.21958 3.9704C1.07892 4.11105 0.999907 4.30182 0.999907 4.50073C0.999907 4.69964 1.07892 4.89041 1.21958 5.03106C1.36023 5.17171 1.55099 5.25073 1.74991 5.25073H2.17791L0.0659066 9.94273C0.00352465 10.0815 -0.0151535 10.236 0.0123529 10.3857C0.0398593 10.5354 0.112248 10.6732 0.219907 10.7807L0.749907 10.2507L0.219907 10.7807V10.7817L0.221907 10.7837L0.223907 10.7857L0.229907 10.7917L0.245907 10.8067L0.290907 10.8467C0.501218 11.023 0.731454 11.174 0.976907 11.2967C1.60661 11.6037 2.2994 11.7592 2.99991 11.7507C3.87991 11.7507 4.55591 11.5307 5.02291 11.2967C5.26835 11.174 5.49859 11.023 5.70891 10.8467L5.75391 10.8067L5.76991 10.7917L5.77591 10.7857L5.77791 10.7837L5.77891 10.7817L5.24991 10.2507L5.77991 10.7807C5.88756 10.6732 5.95995 10.5354 5.98746 10.3857C6.01497 10.236 5.99629 10.0815 5.93391 9.94273L3.82191 5.25073H3.98391C4.28891 5.25073 4.58791 5.17073 4.85291 5.02073L6.14191 4.28373C6.17967 4.26213 6.22241 4.25076 6.26591 4.25073H7.24991V13.7507H4.74991C4.55099 13.7507 4.36023 13.8298 4.21958 13.9704C4.07892 14.1111 3.99991 14.3018 3.99991 14.5007C3.99991 14.6996 4.07892 14.8904 4.21958 15.0311C4.36023 15.1717 4.55099 15.2507 4.74991 15.2507H11.2499C11.4488 15.2507 11.6396 15.1717 11.7802 15.0311C11.9209 14.8904 11.9999 14.6996 11.9999 14.5007C11.9999 14.3018 11.9209 14.1111 11.7802 13.9704C11.6396 13.8298 11.4488 13.7507 11.2499 13.7507H8.74991V4.25073H9.73391C9.77741 4.25076 9.82015 4.26213 9.85791 4.28373L11.1479 5.01973C11.4119 5.17173 11.7109 5.25073 12.0159 5.25073H12.1779L10.0659 9.94273C10.0035 10.0815 9.98485 10.236 10.0124 10.3857C10.0399 10.5354 10.1122 10.6732 10.2199 10.7807L10.7499 10.2507L10.2199 10.7807V10.7817L10.2219 10.7837L10.2239 10.7857L10.2299 10.7917L10.2459 10.8067L10.2909 10.8467C10.5012 11.023 10.7315 11.174 10.9769 11.2967C11.6066 11.6037 12.2994 11.7592 12.9999 11.7507C13.8799 11.7507 14.5559 11.5307 15.0229 11.2967C15.2684 11.174 15.4986 11.023 15.7089 10.8467L15.7539 10.8067L15.7639 10.7967L15.7699 10.7917L15.7759 10.7857L15.7779 10.7837L15.7789 10.7817L15.2499 10.2507L15.7799 10.7807C15.8876 10.6732 15.96 10.5354 15.9875 10.3857C16.015 10.236 15.9963 10.0815 15.9339 9.94273L13.8229 5.25073H14.2499C14.4488 5.25073 14.6396 5.17171 14.7802 5.03106C14.9209 4.89041 14.9999 4.69964 14.9999 4.50073C14.9999 4.30182 14.9209 4.11105 14.7802 3.9704C14.6396 3.82975 14.4488 3.75073 14.2499 3.75073H12.0159C11.9724 3.75071 11.9297 3.73933 11.8919 3.71773L10.6019 2.98173C10.3379 2.8307 10.0391 2.75108 9.73491 2.75073H8.74991V1.50073ZM1.69491 9.97773C1.97991 10.1127 2.41291 10.2507 2.99991 10.2507C3.58691 10.2507 4.01991 10.1127 4.30491 9.97773L2.99991 7.07773L1.69491 9.97773ZM11.6949 9.97773C11.9799 10.1127 12.4129 10.2507 12.9999 10.2507C13.5869 10.2507 14.0199 10.1127 14.3049 9.97773L12.9999 7.07773L11.6949 9.97773Z" fill="black"/>
</svg>
