<svg width="16" height="17" viewBox="0 0 16 17" fill="none" xmlns="http://www.w3.org/2000/svg">
<path fill-rule="evenodd" clip-rule="evenodd" d="M1.5 8.92871C1.5 7.2048 2.18482 5.5515 3.40381 4.33252C4.62279 3.11353 6.27609 2.42871 8 2.42871C9.72391 2.42871 11.3772 3.11353 12.5962 4.33252C13.8152 5.5515 14.5 7.2048 14.5 8.92871C14.5 10.6526 13.8152 12.3059 12.5962 13.5249C11.3772 14.7439 9.72391 15.4287 8 15.4287C6.27609 15.4287 4.62279 14.7439 3.40381 13.5249C2.18482 12.3059 1.5 10.6526 1.5 8.92871V8.92871ZM8 0.928711C5.87827 0.928711 3.84344 1.77157 2.34315 3.27186C0.842855 4.77215 0 6.80698 0 8.92871C0 11.0504 0.842855 13.0853 2.34315 14.5856C3.84344 16.0859 5.87827 16.9287 8 16.9287C10.1217 16.9287 12.1566 16.0859 13.6569 14.5856C15.1571 13.0853 16 11.0504 16 8.92871C16 6.80698 15.1571 4.77215 13.6569 3.27186C12.1566 1.77157 10.1217 0.928711 8 0.928711V0.928711ZM8.5 5.67871C8.5 5.4798 8.42098 5.28903 8.28033 5.14838C8.13968 5.00773 7.94891 4.92871 7.75 4.92871C7.55109 4.92871 7.36032 5.00773 7.21967 5.14838C7.07902 5.28903 7 5.4798 7 5.67871V9.17871C7.00003 9.32849 7.04492 9.47483 7.12886 9.59888C7.21281 9.72292 7.33197 9.81899 7.471 9.87471L9.971 10.8747C10.1541 10.9416 10.3561 10.9345 10.5341 10.855C10.7121 10.7755 10.8522 10.6299 10.9246 10.4489C10.997 10.2679 10.9961 10.0658 10.9221 9.8854C10.8481 9.70505 10.7067 9.56062 10.528 9.48271L8.5 8.67071V5.67871Z" fill="black"/>
</svg>
