<svg width="16" height="16" viewBox="0 0 16 16" fill="none" xmlns="http://www.w3.org/2000/svg">
<path fill-rule="evenodd" clip-rule="evenodd" d="M8.74991 1.42871C8.74991 1.2298 8.67089 1.03903 8.53024 0.898381C8.38958 0.757729 8.19882 0.678711 7.99991 0.678711C7.80099 0.678711 7.61023 0.757729 7.46958 0.898381C7.32892 1.03903 7.24991 1.2298 7.24991 1.42871V2.67871H6.26591C5.96091 2.67871 5.66191 2.75871 5.39691 2.90871L4.10891 3.64571C4.07085 3.66748 4.02775 3.67886 3.98391 3.67871H1.74991C1.55099 3.67871 1.36023 3.75773 1.21958 3.89838C1.07892 4.03903 0.999907 4.2298 0.999907 4.42871C0.999907 4.62762 1.07892 4.81839 1.21958 4.95904C1.36023 5.09969 1.55099 5.17871 1.74991 5.17871H2.17791L0.0659066 9.87071C0.00352465 10.0095 -0.0151535 10.164 0.0123529 10.3137C0.0398593 10.4634 0.112248 10.6011 0.219907 10.7087L0.749907 10.1787L0.219907 10.7087V10.7097L0.221907 10.7117L0.223907 10.7137L0.229907 10.7197L0.245907 10.7347L0.290907 10.7747C0.501218 10.951 0.731454 11.102 0.976907 11.2247C1.60661 11.5317 2.2994 11.6872 2.99991 11.6787C3.87991 11.6787 4.55591 11.4587 5.02291 11.2247C5.26835 11.102 5.49859 10.951 5.70891 10.7747L5.75391 10.7347L5.76991 10.7197L5.77591 10.7137L5.77791 10.7117L5.77891 10.7097L5.24991 10.1787L5.77991 10.7087C5.88756 10.6011 5.95995 10.4634 5.98746 10.3137C6.01497 10.164 5.99629 10.0095 5.93391 9.87071L3.82191 5.17871H3.98391C4.28891 5.17871 4.58791 5.09871 4.85291 4.94871L6.14191 4.21171C6.17967 4.19011 6.22241 4.17874 6.26591 4.17871H7.24991V13.6787H4.74991C4.55099 13.6787 4.36023 13.7577 4.21958 13.8984C4.07892 14.039 3.99991 14.2298 3.99991 14.4287C3.99991 14.6276 4.07892 14.8184 4.21958 14.959C4.36023 15.0997 4.55099 15.1787 4.74991 15.1787H11.2499C11.4488 15.1787 11.6396 15.0997 11.7802 14.959C11.9209 14.8184 11.9999 14.6276 11.9999 14.4287C11.9999 14.2298 11.9209 14.039 11.7802 13.8984C11.6396 13.7577 11.4488 13.6787 11.2499 13.6787H8.74991V4.17871H9.73391C9.77741 4.17874 9.82015 4.19011 9.85791 4.21171L11.1479 4.94771C11.4119 5.09971 11.7109 5.17871 12.0159 5.17871H12.1779L10.0659 9.87071C10.0035 10.0095 9.98485 10.164 10.0124 10.3137C10.0399 10.4634 10.1122 10.6011 10.2199 10.7087L10.7499 10.1787L10.2199 10.7087V10.7097L10.2219 10.7117L10.2239 10.7137L10.2299 10.7197L10.2459 10.7347L10.2909 10.7747C10.5012 10.951 10.7315 11.102 10.9769 11.2247C11.6066 11.5317 12.2994 11.6872 12.9999 11.6787C13.8799 11.6787 14.5559 11.4587 15.0229 11.2247C15.2684 11.102 15.4986 10.951 15.7089 10.7747L15.7539 10.7347L15.7639 10.7247L15.7699 10.7197L15.7759 10.7137L15.7779 10.7117L15.7789 10.7097L15.2499 10.1787L15.7799 10.7087C15.8876 10.6011 15.96 10.4634 15.9875 10.3137C16.015 10.164 15.9963 10.0095 15.9339 9.87071L13.8229 5.17871H14.2499C14.4488 5.17871 14.6396 5.09969 14.7802 4.95904C14.9209 4.81839 14.9999 4.62762 14.9999 4.42871C14.9999 4.2298 14.9209 4.03903 14.7802 3.89838C14.6396 3.75773 14.4488 3.67871 14.2499 3.67871H12.0159C11.9724 3.67869 11.9297 3.66731 11.8919 3.64571L10.6019 2.90971C10.3379 2.75867 10.0391 2.67906 9.73491 2.67871H8.74991V1.42871ZM1.69491 9.90571C1.97991 10.0407 2.41291 10.1787 2.99991 10.1787C3.58691 10.1787 4.01991 10.0407 4.30491 9.90571L2.99991 7.00571L1.69491 9.90571ZM11.6949 9.90571C11.9799 10.0407 12.4129 10.1787 12.9999 10.1787C13.5869 10.1787 14.0199 10.0407 14.3049 9.90571L12.9999 7.00571L11.6949 9.90571Z" fill="black"/>
</svg>
