<svg fill="none" height="17" viewBox="0 0 16 17" width="16" xmlns="http://www.w3.org/2000/svg"><path clip-rule="evenodd" d="m1.5 8.56104c0-1.72391.68482-3.37721 1.90381-4.5962 1.21898-1.21899 2.87228-1.9038 4.59619-1.9038s3.3772.68481 4.5962 1.9038 1.9038 2.87229 1.9038 4.5962c0 1.72386-.6848 3.37716-1.9038 4.59616s-2.87229 1.9038-4.5962 1.9038-3.37721-.6848-4.59619-1.9038c-1.21899-1.219-1.90381-2.8723-1.90381-4.59616zm6.5-8.000005c-2.12173 0-4.15656.842855-5.65685 2.343145-1.500295 1.50029-2.34315 3.53512-2.34315 5.65686 0 2.12176.842855 4.15656 2.34315 5.65686 1.50029 1.5003 3.53512 2.3431 5.65685 2.3431 2.1217 0 4.1566-.8428 5.6569-2.3431 1.5002-1.5003 2.3431-3.5351 2.3431-5.65686 0-2.12174-.8429-4.15657-2.3431-5.65686-1.5003-1.50029-3.5352-2.343145-5.6569-2.343145zm.5 4.750005c0-.19892-.07902-.38968-.21967-.53034-.14065-.14065-.33142-.21966-.53033-.21966s-.38968.07901-.53033.21966c-.14065.14066-.21967.33142-.21967.53034v3.5c.00003.14978.04492.29611.12886.42016.08395.12405.20311.22012.34214.27584l2.5.99996c.1831.0669.3851.0599.5631-.0196s.3181-.2252.3905-.4062c.0724-.18103.0715-.38312-.0025-.56347s-.2154-.32479-.3941-.40269l-2.028-.812z" fill="#000" fill-rule="evenodd"/></svg>