<svg fill="none" height="16" viewBox="0 0 17 16" width="17" xmlns="http://www.w3.org/2000/svg"><path clip-rule="evenodd" d="m9.52334 1.50195c0-.19891-.07901-.38967-.21967-.530327-.14065-.140652-.33141-.21967-.53033-.21967-.19891 0-.38967.079018-.53033.21967-.14065.140657-.21967.331417-.21967.530327v1.25h-.984c-.305 0-.604.08-.869.23l-1.288.737c-.03805.02177-.08116.03315-.125.033h-2.234c-.19891 0-.38967.07902-.53033.21967-.14065.14066-.21967.33142-.21967.53033 0 .19892.07902.38968.21967.53033.14066.14066.33142.21967.53033.21967h.428l-2.111996 4.692c-.062382.13885-.08106.29335-.053554.44295.027507.1497.099896.2875.207554.3951l.529996-.53-.529996.53v.001l.002.002.002.002.005996.006.016.015.045.04c.21032.1762.44055.3273.686.45.62971.307 1.32249.4624 2.023.454.88 0 1.556-.22 2.023-.454.24545-.1228.47569-.2738.686-.45l.045-.04.016-.015.006-.006.002-.002.001-.002-.529-.531.53.53c.10766-.1076.18005-.2454.20756-.3951.0275-.1496.00883-.3041-.05356-.44295l-2.112-4.692h.162c.305 0 .604-.08.869-.23l1.289-.737c.03776-.0216.0805-.03297.124-.033h.984v9.50005h-2.5c-.19891 0-.38967.079-.53033.2196-.14065.1407-.21967.3314-.21967.5304 0 .1989.07902.3896.21967.5303.14066.1406.33142.2197.53033.2197h6.49996c.199 0 .3897-.0791.5304-.2197.1406-.1407.2196-.3314.2196-.5303 0-.199-.079-.3897-.2196-.5304-.1407-.1406-.3314-.2196-.5304-.2196h-2.49996v-9.50005h.98396c.0435.00003.0863.0114.124.033l1.29.736c.264.152.563.231.868.231h.162l-2.112 4.692c-.0623.13885-.081.29335-.0535.44295.0275.1497.0999.2875.2075.3951l.53-.53-.53.53v.001l.002.002.002.002.006.006.016.015.045.04c.2104.1762.4406.3272.686.45.6297.307 1.3225.4624 2.023.454.88 0 1.556-.22 2.023-.454.2455-.1227.4757-.2738.686-.45l.045-.04.01-.01.006-.005.006-.006.002-.002.001-.002-.529-.531.53.53c.1077-.1076.1801-.2454.2076-.3951.0275-.1496.0088-.3041-.0536-.44295l-2.111-4.692h.427c.199 0 .3897-.07901.5304-.21967.1406-.14065.2196-.33141.2196-.53033 0-.19891-.079-.38967-.2196-.53033-.1407-.14065-.3314-.21967-.5304-.21967h-2.234c-.0435-.00002-.0862-.0114-.124-.033l-1.29-.736c-.264-.15103-.5628-.23065-.867-.231h-.98496zm-7.055 8.477c.285.13505.718.27305 1.305.27305s1.02-.138 1.305-.27305l-1.305-2.9zm9.99996 0c.285.13505.718.27305 1.305.27305s1.02-.138 1.305-.27305l-1.305-2.9z" fill="#000" fill-rule="evenodd"/></svg>