<svg width="72" height="73" viewBox="0 0 72 73" fill="none" xmlns="http://www.w3.org/2000/svg">
<path d="M0 32.5186C0 21.3175 0 15.717 2.17987 11.4387C4.09734 7.6755 7.15695 4.61589 10.9202 2.69842C15.1984 0.518555 20.799 0.518555 32 0.518555H40C51.201 0.518555 56.8016 0.518555 61.0798 2.69842C64.843 4.61589 67.9027 7.6755 69.8201 11.4387C72 15.717 72 21.3175 72 32.5186V40.5186C72 51.7196 72 57.3201 69.8201 61.5984C67.9027 65.3616 64.843 68.4212 61.0798 70.3387C56.8016 72.5186 51.201 72.5186 40 72.5186H32C20.7989 72.5186 15.1984 72.5186 10.9202 70.3387C7.15695 68.4212 4.09734 65.3616 2.17987 61.5984C0 57.3201 0 51.7196 0 40.5186V32.5186Z" fill="url(#paint0_linear_4041_5270)"/>
<path d="M47.2737 28.4541L55.8637 32.7491C56.9693 33.3019 56.9693 34.8796 55.8637 35.4324L38.2366 44.2459C36.8289 44.9497 35.1721 44.9497 33.7644 44.2459L16.1373 35.4324C15.0317 34.8796 15.0317 33.3019 16.1373 32.7491L24.7272 28.4541" stroke="#DDFFBA" stroke-width="1.5" stroke-linecap="round" stroke-linejoin="round"/>
<path d="M55.8637 41.2515C56.9693 41.8043 56.9693 43.382 55.8637 43.9347L38.2366 52.7483C36.8289 53.4521 35.1721 53.4521 33.7644 52.7483L16.1373 43.9347C15.0317 43.382 15.0317 41.8043 16.1373 41.2515" stroke="#88FB7E" stroke-width="1.5" stroke-linecap="round" stroke-linejoin="round"/>
<path d="M55.8637 49.7534C56.9693 50.3062 56.9693 51.8839 55.8637 52.4367L38.2366 61.2503C36.8289 61.9541 35.1721 61.9541 33.7644 61.2503L16.1373 52.4367C15.0317 51.8839 15.0317 50.3062 16.1373 49.7534" stroke="#4FF6E2" stroke-width="1.5" stroke-linecap="round" stroke-linejoin="round"/>
<path d="M44.0441 16.4051C44.0441 19.6309 39.7038 27.8282 37.4737 31.8272C36.9032 32.8501 35.4646 32.8501 34.8941 31.8272C32.664 27.8282 28.3237 19.6309 28.3237 16.4051C28.3237 12.064 31.8428 8.54492 36.1839 8.54492C40.525 8.54492 44.0441 12.064 44.0441 16.4051Z" stroke="white" stroke-width="1.5" stroke-linecap="round"/>
<circle cx="36.1839" cy="16.4051" r="2.94756" stroke="white" stroke-width="1.5" stroke-linecap="round"/>
<defs>
<linearGradient id="paint0_linear_4041_5270" x1="36" y1="0.518555" x2="36" y2="72.5186" gradientUnits="userSpaceOnUse">
<stop stop-color="#327FAA"/>
<stop offset="1" stop-color="#5FD6AB"/>
</linearGradient>
</defs>
</svg>
