<svg fill="none" height="16" viewBox="0 0 16 16" width="16" xmlns="http://www.w3.org/2000/svg"><path clip-rule="evenodd" d="m1.5 8.00195c0-1.7239.68482-3.3772 1.90381-4.59619 1.21898-1.21899 2.87228-1.90381 4.59619-1.90381s3.3772.68482 4.5962 1.90381 1.9038 2.87229 1.9038 4.59619c0 1.72391-.6848 3.37725-1.9038 4.59615-1.219 1.219-2.87229 1.9039-4.5962 1.9039s-3.37721-.6849-4.59619-1.9039c-1.21899-1.2189-1.90381-2.87224-1.90381-4.59615zm6.5-7.99999687c-2.12173 0-4.15656.84285487-5.65685 2.34314687-1.500295 1.50029-2.34315 3.53512-2.34315 5.65685 0 2.12175.842855 4.15655 2.34315 5.65685 1.50029 1.5003 3.53512 2.3432 5.65685 2.3432 2.1217 0 4.1566-.8429 5.6569-2.3432 1.5002-1.5003 2.3431-3.5351 2.3431-5.65685 0-2.12173-.8429-4.15656-2.3431-5.65685-1.5003-1.500292-3.5352-2.34314687-5.6569-2.34314688zm.5 4.74999687c0-.19891-.07902-.38967-.21967-.53033-.14065-.14065-.33142-.21967-.53033-.21967s-.38968.07902-.53033.21967c-.14065.14066-.21967.33142-.21967.53033v3.5c.00003.14978.04492.29612.12886.42017.08395.12404.20311.22011.34214.27583l2.5 1c.1831.06685.3851.05985.5631-.01967.178-.07949.3181-.22518.3905-.40618.0724-.18101.0715-.3831-.0025-.56345-.074-.18036-.2154-.32479-.3941-.4027l-2.028-.812z" fill="#000" fill-rule="evenodd"/></svg>