<svg fill="none" height="16" viewBox="0 0 17 16" width="17" xmlns="http://www.w3.org/2000/svg"><path clip-rule="evenodd" d="m9.50186 1.49976c0-.19892-.07902-.38968-.21967-.530334-.14065-.140653-.33142-.21967-.53033-.21967s-.38968.079017-.53033.21967c-.14065.140654-.21967.331414-.21967.530334v1.25h-.984c-.305 0-.604.08-.869.23l-1.288.737c-.03805.02177-.08116.03315-.125.033h-2.234c-.19891 0-.38968.07901-.53033.21967-.14065.14065-.21967.33141-.21967.53033 0 .19891.07902.38967.21967.53033.14065.14065.33142.21967.53033.21967h.428l-2.112 4.692c-.062382.13884-.08106.29334-.053554.44294.027506.1497.099896.2875.207554.3951l.53-.53-.53.53v.001l.002.002.002.002.006.006.016.015.045.04c.21031.1762.44055.3273.686.45.6297.307 1.32249.4624 2.023.454.88 0 1.556-.22 2.023-.454.24545-.1228.47568-.2738.686-.45l.045-.04.016-.015.006-.006.002-.002.001-.002-.529-.531.53.53c.10766-.1076.18005-.2454.20755-.3951.02751-.1496.00883-.3041-.05355-.44294l-2.112-4.692h.162c.305 0 .604-.08.869-.23l1.289-.737c.03776-.0216.0805-.03298.124-.033h.984v9.50004h-2.5c-.19891 0-.38968.079-.53033.2196-.14065.1407-.21967.3314-.21967.5304 0 .1989.07902.3896.21967.5303.14065.1406.33142.2197.53033.2197h6.50004c.1989 0 .3896-.0791.5303-.2197.1406-.1407.2197-.3314.2197-.5303 0-.199-.0791-.3897-.2197-.5304-.1407-.1406-.3314-.2196-.5303-.2196h-2.50004v-9.50004h.98404c.0435.00002.0862.0114.124.033l1.29.736c.264.152.563.231.868.231h.162l-2.112 4.692c-.0624.13884-.0811.29334-.0536.44294.0275.1497.0999.2875.2076.3951l.53-.53-.53.53v.001l.002.002.002.002.006.006.016.015.045.04c.2103.1762.4405.3272.686.45.6297.307 1.3224.4624 2.023.454.88 0 1.556-.22 2.023-.454.2454-.1227.4757-.2738.686-.45l.045-.04.01-.01.006-.005.006-.006.002-.002.001-.002-.529-.531.53.53c.1076-.1076.18-.2454.2075-.3951.0275-.1496.0088-.3041-.0535-.44294l-2.111-4.692h.427c.1989 0 .3896-.07902.5303-.21967.1406-.14066.2197-.33142.2197-.53033 0-.19892-.0791-.38968-.2197-.53033-.1407-.14066-.3314-.21967-.5303-.21967h-2.234c-.0435-.00003-.0863-.0114-.124-.033l-1.29-.736c-.2641-.15104-.5629-.23066-.867-.231h-.98504zm-7.055 8.477c.285.13504.718.27304 1.305.27304s1.02-.138 1.305-.27304l-1.305-2.9zm10.00004 0c.285.13504.718.27304 1.305.27304s1.02-.138 1.305-.27304l-1.305-2.9z" fill="#000" fill-rule="evenodd"/></svg>