<svg fill="none" height="16" viewBox="0 0 17 16" width="17" xmlns="http://www.w3.org/2000/svg"><path clip-rule="evenodd" d="m9.52334 1.5c0-.19891-.07901-.38968-.21967-.53033-.14065-.140652-.33141-.21967-.53033-.21967-.19891 0-.38967.079018-.53033.21967-.14065.14065-.21967.33142-.21967.53033v1.25h-.984c-.305 0-.604.08-.869.23l-1.288.737c-.03805.02177-.08116.03315-.125.033h-2.234c-.19891 0-.38967.07902-.53033.21967-.14065.14065-.21967.33142-.21967.53033s.07902.38968.21967.53033c.14066.14065.33142.21967.53033.21967h.428l-2.111996 4.692c-.062382.1388-.08106.2933-.053554.443.027507.1497.099896.2874.207554.395l.529996-.53-.529996.53v.001l.002.002.002.002.005996.006.016.015.045.04c.21032.1763.44055.3273.686.45.62971.307 1.32249.4625 2.023.454.88 0 1.556-.22 2.023-.454.24545-.1227.47569-.2737.686-.45l.045-.04.016-.015.006-.006.002-.002.001-.002-.529-.531.53.53c.10766-.1076.18005-.2453.20756-.395.0275-.1497.00883-.3042-.05356-.443l-2.112-4.692h.162c.305 0 .604-.08.869-.23l1.289-.737c.03776-.0216.0805-.03298.124-.033h.984v9.5h-2.5c-.19891 0-.38967.079-.53033.2197-.14065.1406-.21967.3314-.21967.5303s.07902.3897.21967.5303c.14066.1407.33142.2197.53033.2197h6.49996c.199 0 .3897-.079.5304-.2197.1406-.1406.2196-.3314.2196-.5303s-.079-.3897-.2196-.5303c-.1407-.1407-.3314-.2197-.5304-.2197h-2.49996v-9.5h.98396c.0435.00002.0863.0114.124.033l1.29.736c.264.152.563.231.868.231h.162l-2.112 4.692c-.0623.1388-.081.2933-.0535.443s.0999.2874.2075.395l.53-.53-.53.53v.001l.002.002.002.002.006.006.016.015.045.04c.2104.1762.4406.3273.686.45.6297.307 1.3225.4625 2.023.454.88 0 1.556-.22 2.023-.454.2455-.1227.4757-.2737.686-.45l.045-.04.01-.01.006-.005.006-.006.002-.002.001-.002-.529-.531.53.53c.1077-.1076.1801-.2453.2076-.395s.0088-.3042-.0536-.443l-2.111-4.692h.427c.199 0 .3897-.07902.5304-.21967.1406-.14065.2196-.33142.2196-.53033s-.079-.38968-.2196-.53033c-.1407-.14065-.3314-.21967-.5304-.21967h-2.234c-.0435-.00002-.0862-.0114-.124-.033l-1.29-.736c-.264-.15104-.5628-.23065-.867-.231h-.98496zm-7.055 8.477c.285.135.718.273 1.305.273s1.02-.138 1.305-.273l-1.305-2.9zm9.99996 0c.285.135.718.273 1.305.273s1.02-.138 1.305-.273l-1.305-2.9z" fill="#000" fill-rule="evenodd"/></svg>