<svg fill="none" height="16" viewBox="0 0 17 16" width="17" xmlns="http://www.w3.org/2000/svg"><path clip-rule="evenodd" d="m9.50186 1.5c0-.19891-.07902-.38968-.21967-.53033-.14065-.140652-.33142-.21967-.53033-.21967s-.38968.079018-.53033.21967c-.14065.14065-.21967.33142-.21967.53033v1.25h-.984c-.305 0-.604.08-.869.23l-1.288.737c-.03805.02177-.08116.03315-.125.033h-2.234c-.19891 0-.38968.07902-.53033.21967s-.21967.33142-.21967.53033.07902.38968.21967.53033.33142.21967.53033.21967h.428l-2.112 4.692c-.062382.1388-.08106.2933-.053554.443s.099896.2874.207554.395l.53-.53-.53.53v.001l.002.002.002.002.006.006.016.015.045.04c.21031.1763.44055.3273.686.45.6297.307 1.32249.4625 2.023.454.88 0 1.556-.22 2.023-.454.24545-.1227.47568-.2737.686-.45l.045-.04.016-.015.006-.006.002-.002.001-.002-.529-.531.53.53c.10766-.1076.18005-.2453.20755-.395.02751-.1497.00883-.3042-.05355-.443l-2.112-4.692h.162c.305 0 .604-.08.869-.23l1.289-.737c.03776-.0216.0805-.03298.124-.033h.984v9.5h-2.5c-.19891 0-.38968.079-.53033.2197-.14065.1406-.21967.3314-.21967.5303s.07902.3897.21967.5303c.14065.1407.33142.2197.53033.2197h6.50004c.1989 0 .3896-.079.5303-.2197.1406-.1406.2197-.3314.2197-.5303s-.0791-.3897-.2197-.5303c-.1407-.1407-.3314-.2197-.5303-.2197h-2.50004v-9.5h.98404c.0435.00002.0862.0114.124.033l1.29.736c.264.152.563.231.868.231h.162l-2.112 4.692c-.0624.1388-.0811.2933-.0536.443s.0999.2874.2076.395l.53-.53-.53.53v.001l.002.002.002.002.006.006.016.015.045.04c.2103.1762.4405.3273.686.45.6297.307 1.3224.4625 2.023.454.88 0 1.556-.22 2.023-.454.2454-.1227.4757-.2737.686-.45l.045-.04.01-.01.006-.005.006-.006.002-.002.001-.002-.529-.531.53.53c.1076-.1076.18-.2453.2075-.395s.0088-.3042-.0535-.443l-2.111-4.692h.427c.1989 0 .3896-.07902.5303-.21967.1406-.14065.2197-.33142.2197-.53033s-.0791-.38968-.2197-.53033c-.1407-.14065-.3314-.21967-.5303-.21967h-2.234c-.0435-.00002-.0863-.0114-.124-.033l-1.29-.736c-.2641-.15104-.5629-.23065-.867-.231h-.98504zm-7.055 8.477c.285.135.718.273 1.305.273s1.02-.138 1.305-.273l-1.305-2.9zm10.00004 0c.285.135.718.273 1.305.273s1.02-.138 1.305-.273l-1.305-2.9z" fill="#000" fill-rule="evenodd"/></svg>