<svg fill="none" height="15" viewBox="0 0 14 15" width="14" xmlns="http://www.w3.org/2000/svg" xmlns:xlink="http://www.w3.org/1999/xlink"><clipPath id="a"><path d="m0 .472656h14v14h-14z"/></clipPath><g clip-path="url(#a)"><path clip-rule="evenodd" d="m7 1.77266c3.14 0 5.7 2.56 5.7 5.7 0 3.14004-2.56 5.70004-5.7 5.70004-1.51092-.0027-2.9592-.6041-4.02759-1.6725-1.06838-1.0683-1.66977-2.51662-1.67241-4.02754 0-3.14 2.56-5.7 5.7-5.7zm0-1.300004c-3.86 0-7 3.140004-7 7.000004 0 3.86004 3.14 7.00004 7 7.00004s7-3.14 7-7.00004c0-3.86-3.14-7.000004-7-7.000004zm1 3.000004h-2v5h2zm0 6h-2v2.00004h2z" fill="#000" fill-rule="evenodd"/></g></svg>