<svg fill="none" height="15" viewBox="0 0 14 15" width="14" xmlns="http://www.w3.org/2000/svg" xmlns:xlink="http://www.w3.org/1999/xlink"><clipPath id="a"><path d="m0 .472656h14v14h-14z"/></clipPath><g clip-path="url(#a)"><path clip-rule="evenodd" d="m11.6254 10.3427v-5.49504c-.0262-.6825-.2975-1.28625-.8225-1.8025s-1.11996-.79625-1.80246-.8225h-.875v-1.750004l-2.625 2.625004 2.625 2.625v-1.75h.875c.23625.0175.41999.09625.60375.27125.18375.175.2625.3675.27125.60375v5.49504c-.33313.1918-.59352.4884-.74067.8436-.14716.3551-.17283.7489-.07303 1.1202s.31948.6991.62487.9326c.3054.2335.67939.3596 1.06379.3586.3845.001.7585-.1251 1.0639-.3586s.525-.5613.6248-.9326.0742-.7651-.073-1.1202c-.1472-.3552-.4075-.6518-.7407-.8436zm-.875 2.555c-.5775 0-1.04996-.4813-1.04996-1.05 0-.5688.48126-1.05 1.04996-1.05.5688 0 1.05.4812 1.05 1.05 0 .5687-.4812 1.05-1.05 1.05zm-5.24996-9.80004c0-.97125-.77875-1.75-1.75-1.75-.38444-.00102-.75843.12502-1.06383.35853-.30539.2335-.52507.56137-.62487.93262-.0998.37126-.07412.76508.07303 1.12024.14715.35515.40754.65173.74067.84361v5.74004c-.33313.1918-.59352.4884-.74067.8436-.14715.3551-.17283.7489-.07303 1.1202s.31948.6991.62487.9326c.3054.2335.67939.3596 1.06383.3586.38443.001.75842-.1251 1.06382-.3586.30539-.2335.52507-.5613.62487-.9326s.07413-.7651-.07303-1.1202c-.14715-.3552-.40754-.6518-.74066-.8436v-5.74004c.51625-.2975.875-.8575.875-1.505zm-.7 8.75004c0 .5775-.48125 1.05-1.05 1.05s-1.05-.4813-1.05-1.05c0-.5688.48125-1.05 1.05-1.05s1.05.4812 1.05 1.05zm-1.05-7.70004c-.5775 0-1.05-.48125-1.05-1.05s.48125-1.05 1.05-1.05 1.05.48125 1.05 1.05-.48125 1.05-1.05 1.05z" fill="#000" fill-rule="evenodd"/></g></svg>