<svg width="14" height="15" viewBox="0 0 14 15" fill="none" xmlns="http://www.w3.org/2000/svg">
<g clip-path="url(#clip0_3288_3526)">
<path fill-rule="evenodd" clip-rule="evenodd" d="M7 1.77266C10.14 1.77266 12.7 4.33266 12.7 7.47266C12.7 10.6127 10.14 13.1727 7 13.1727C5.48908 13.17 4.0408 12.5686 2.97241 11.5002C1.90403 10.4319 1.30264 8.98358 1.3 7.47266C1.3 4.33266 3.86 1.77266 7 1.77266ZM7 0.472656C3.14 0.472656 0 3.61266 0 7.47266C0 11.3327 3.14 14.4727 7 14.4727C10.86 14.4727 14 11.3327 14 7.47266C14 3.61266 10.86 0.472656 7 0.472656ZM8 3.47266H6V8.47266H8V3.47266ZM8 9.47266H6V11.4727H8V9.47266Z" fill="black"/>
</g>
<defs>
<clipPath id="clip0_3288_3526">
<rect width="14" height="14" fill="white" transform="translate(0 0.472656)"/>
</clipPath>
</defs>
</svg>
