<svg fill="none" height="17" viewBox="0 0 16 17" width="16" xmlns="http://www.w3.org/2000/svg"><path clip-rule="evenodd" d="m1.5 8.7793c0-1.72391.68482-3.37721 1.90381-4.5962 1.21898-1.21898 2.87228-1.9038 4.59619-1.9038s3.3772.68482 4.5962 1.9038c1.219 1.21899 1.9038 2.87229 1.9038 4.5962 0 1.7239-.6848 3.3772-1.9038 4.5962s-2.87229 1.9038-4.5962 1.9038-3.37721-.6848-4.59619-1.9038c-1.21899-1.219-1.90381-2.8723-1.90381-4.5962zm6.5-8.000003c-2.12173 0-4.15656.842853-5.65685 2.343143-1.500295 1.50029-2.34315 3.53513-2.34315 5.65686 0 2.1217.842855 4.1566 2.34315 5.6569 1.50029 1.5002 3.53512 2.3431 5.65685 2.3431 2.1217 0 4.1566-.8429 5.6569-2.3431 1.5002-1.5003 2.3431-3.5352 2.3431-5.6569 0-2.12173-.8429-4.15657-2.3431-5.65686-1.5003-1.50029-3.5352-2.343143-5.6569-2.343143zm.5 4.750003c0-.19892-.07902-.38968-.21967-.53033-.14065-.14066-.33142-.21967-.53033-.21967s-.38968.07901-.53033.21967c-.14065.14065-.21967.33141-.21967.53033v3.5c.00003.14978.04492.29612.12886.42016.08395.12405.20311.22012.34214.27584l2.5 1c.1831.0669.3851.0598.5631-.0197s.3181-.2252.3905-.4062.0715-.38306-.0025-.56341-.2154-.32479-.3941-.40269l-2.028-.812z" fill="#000" fill-rule="evenodd"/></svg>