<svg width="16" height="15" viewBox="0 0 16 15" fill="none" xmlns="http://www.w3.org/2000/svg">
<path fill-rule="evenodd" clip-rule="evenodd" d="M8.74991 1.15967C8.74991 0.960756 8.67089 0.76999 8.53024 0.629338C8.38958 0.488686 8.19882 0.409668 7.99991 0.409668C7.80099 0.409668 7.61023 0.488686 7.46958 0.629338C7.32892 0.76999 7.24991 0.960756 7.24991 1.15967V2.40967H6.26591C5.96091 2.40967 5.66191 2.48967 5.39691 2.63967L4.10891 3.37667C4.07085 3.39844 4.02775 3.40982 3.98391 3.40967H1.74991C1.55099 3.40967 1.36023 3.48869 1.21958 3.62934C1.07892 3.76999 0.999907 3.96076 0.999907 4.15967C0.999907 4.35858 1.07892 4.54935 1.21958 4.69C1.36023 4.83065 1.55099 4.90967 1.74991 4.90967H2.17791L0.0659066 9.60167C0.00352465 9.74048 -0.0151535 9.89498 0.0123529 10.0447C0.0398593 10.1943 0.112248 10.3321 0.219907 10.4397L0.749907 9.90967L0.219907 10.4397V10.4407L0.221907 10.4427L0.223907 10.4447L0.229907 10.4507L0.245907 10.4657L0.290907 10.5057C0.501218 10.6819 0.731454 10.833 0.976907 10.9557C1.60661 11.2627 2.2994 11.4182 2.99991 11.4097C3.87991 11.4097 4.55591 11.1897 5.02291 10.9557C5.26835 10.833 5.49859 10.6819 5.70891 10.5057L5.75391 10.4657L5.76991 10.4507L5.77591 10.4447L5.77791 10.4427L5.77891 10.4407L5.24991 9.90967L5.77991 10.4397C5.88756 10.3321 5.95995 10.1943 5.98746 10.0447C6.01497 9.89498 5.99629 9.74048 5.93391 9.60167L3.82191 4.90967H3.98391C4.28891 4.90967 4.58791 4.82967 4.85291 4.67967L6.14191 3.94267C6.17967 3.92107 6.22241 3.90969 6.26591 3.90967H7.24991V13.4097H4.74991C4.55099 13.4097 4.36023 13.4887 4.21958 13.6293C4.07892 13.77 3.99991 13.9608 3.99991 14.1597C3.99991 14.3586 4.07892 14.5493 4.21958 14.69C4.36023 14.8306 4.55099 14.9097 4.74991 14.9097H11.2499C11.4488 14.9097 11.6396 14.8306 11.7802 14.69C11.9209 14.5493 11.9999 14.3586 11.9999 14.1597C11.9999 13.9608 11.9209 13.77 11.7802 13.6293C11.6396 13.4887 11.4488 13.4097 11.2499 13.4097H8.74991V3.90967H9.73391C9.77741 3.90969 9.82015 3.92107 9.85791 3.94267L11.1479 4.67867C11.4119 4.83067 11.7109 4.90967 12.0159 4.90967H12.1779L10.0659 9.60167C10.0035 9.74048 9.98485 9.89498 10.0124 10.0447C10.0399 10.1943 10.1122 10.3321 10.2199 10.4397L10.7499 9.90967L10.2199 10.4397V10.4407L10.2219 10.4427L10.2239 10.4447L10.2299 10.4507L10.2459 10.4657L10.2909 10.5057C10.5012 10.6819 10.7315 10.8329 10.9769 10.9557C11.6066 11.2627 12.2994 11.4182 12.9999 11.4097C13.8799 11.4097 14.5559 11.1897 15.0229 10.9557C15.2684 10.833 15.4986 10.682 15.7089 10.5057L15.7539 10.4657L15.7639 10.4557L15.7699 10.4507L15.7759 10.4447L15.7779 10.4427L15.7789 10.4407L15.2499 9.90967L15.7799 10.4397C15.8876 10.3321 15.96 10.1943 15.9875 10.0447C16.015 9.89498 15.9963 9.74048 15.9339 9.60167L13.8229 4.90967H14.2499C14.4488 4.90967 14.6396 4.83065 14.7802 4.69C14.9209 4.54935 14.9999 4.35858 14.9999 4.15967C14.9999 3.96076 14.9209 3.76999 14.7802 3.62934C14.6396 3.48869 14.4488 3.40967 14.2499 3.40967H12.0159C11.9724 3.40964 11.9297 3.39827 11.8919 3.37667L10.6019 2.64067C10.3379 2.48963 10.0391 2.41001 9.73491 2.40967H8.74991V1.15967ZM1.69491 9.63667C1.97991 9.77167 2.41291 9.90967 2.99991 9.90967C3.58691 9.90967 4.01991 9.77167 4.30491 9.63667L2.99991 6.73667L1.69491 9.63667ZM11.6949 9.63667C11.9799 9.77167 12.4129 9.90967 12.9999 9.90967C13.5869 9.90967 14.0199 9.77167 14.3049 9.63667L12.9999 6.73667L11.6949 9.63667Z" fill="black"/>
</svg>
