<svg fill="none" height="14" viewBox="0 0 14 14" width="14" xmlns="http://www.w3.org/2000/svg"><path clip-rule="evenodd" d="m11.6254 9.87v-5.495c-.0262-.6825-.2975-1.28625-.8225-1.8025s-1.11996-.79625-1.80246-.8225h-.875v-1.75l-2.625 2.625 2.625 2.625v-1.75h.875c.23625.0175.41999.09625.60375.27125.18375.175.2625.3675.27125.60375v5.495c-.33313.1919-.59352.4885-.74067.8436-.14716.3552-.17283.749-.07303 1.1202.0998.3713.31948.6992.62487.9327.3054.2335.67939.3595 1.06379.3585.3845.001.7585-.125 1.0639-.3585s.525-.5614.6248-.9327c.0998-.3712.0742-.765-.073-1.1202-.1472-.3551-.4075-.6517-.7407-.8436zm-.875 2.555c-.5775 0-1.04996-.4812-1.04996-1.05s.48126-1.05 1.04996-1.05c.5688 0 1.05.4812 1.05 1.05s-.4812 1.05-1.05 1.05zm-5.24996-9.8c0-.97125-.77875-1.75-1.75-1.75-.38444-.001016-.75843.12503-1.06383.35853-.30539.2335-.52507.56137-.62487.93263-.0998.37125-.07412.76508.07303 1.12023.14715.35516.40754.65173.74067.84361v5.74c-.33313.1919-.59352.4885-.74067.8436-.14715.3552-.17283.749-.07303 1.1202.0998.3713.31948.6992.62487.9327.3054.2335.67939.3595 1.06383.3585.38443.001.75842-.125 1.06382-.3585.30539-.2335.52507-.5614.62487-.9327.0998-.3712.07413-.765-.07303-1.1202-.14715-.3551-.40754-.6517-.74066-.8436v-5.74c.51625-.2975.875-.8575.875-1.505zm-.7 8.75c0 .5775-.48125 1.05-1.05 1.05s-1.05-.4812-1.05-1.05.48125-1.05 1.05-1.05 1.05.4812 1.05 1.05zm-1.05-7.7c-.5775 0-1.05-.48125-1.05-1.05s.48125-1.05 1.05-1.05 1.05.48125 1.05 1.05-.48125 1.05-1.05 1.05z" fill="#000" fill-rule="evenodd"/></svg>