<svg fill="none" height="14" viewBox="0 0 15 14" width="15" xmlns="http://www.w3.org/2000/svg" xmlns:xlink="http://www.w3.org/1999/xlink"><clipPath id="a"><path d="m.273438.001953h14v14h-14z"/></clipPath><g clip-path="url(#a)"><path clip-rule="evenodd" d="m11.8989 9.87195v-5.495c-.0263-.6825-.2975-1.28625-.8225-1.8025s-1.12003-.79625-1.80253-.8225h-.875v-1.74999688l-2.625 2.62499688 2.625 2.625v-1.75h.875c.23625.0175.42.09625.60375.27125.18378.175.26248.3675.27128.60375v5.495c-.33315.19185-.59354.48845-.74069.84365-.14716.3551-.17283.7489-.07303 1.1202s.31948.6991.62487.9326c.30535.2335.67935.3596 1.06385.3586.3844.001.7584-.1251 1.0638-.3586s.5251-.5613.6249-.9326.0741-.7651-.0731-1.1202c-.1471-.3552-.4075-.6518-.7406-.84365zm-.875 2.55505c-.5775 0-1.05003-.4813-1.05003-1.05 0-.5688.48123-1.05 1.05003-1.05.5687 0 1.05.4812 1.05 1.05 0 .5687-.4813 1.05-1.05 1.05zm-5.25003-9.80005c0-.97125-.77875-1.749997-1.75-1.749997-.38443-.001016-.75842.125027-1.06382.358527-.30539.2335-.52507.56138-.62487.93263s-.07413.76508.07303 1.12024c.14715.35515.40754.65173.74066.8436v5.74c-.33312.19185-.59351.48845-.74066.84365-.14716.3551-.17283.7489-.07303 1.1202s.31948.6991.62487.9326c.3054.2335.67939.3596 1.06382.3586.38444.001.75843-.1251 1.06383-.3586.30539-.2335.52507-.5613.62487-.9326s.07413-.7651-.07303-1.1202c-.14715-.3552-.40754-.6518-.74067-.84365v-5.74c.51625-.2975.875-.8575.875-1.505zm-.7 8.75005c0 .5775-.48125 1.05-1.05 1.05s-1.05-.4813-1.05-1.05c0-.5688.48125-1.05 1.05-1.05s1.05.4812 1.05 1.05zm-1.05-7.70005c-.5775 0-1.05-.48125-1.05-1.05s.48125-1.05 1.05-1.05 1.05.48125 1.05 1.05-.48125 1.05-1.05 1.05z" fill="#000" fill-rule="evenodd"/></g></svg>