<svg width="16" height="17" viewBox="0 0 16 17" fill="none" xmlns="http://www.w3.org/2000/svg">
<path fill-rule="evenodd" clip-rule="evenodd" d="M1.5 8.65967C1.5 6.93576 2.18482 5.28246 3.40381 4.06347C4.62279 2.84449 6.27609 2.15967 8 2.15967C9.72391 2.15967 11.3772 2.84449 12.5962 4.06347C13.8152 5.28246 14.5 6.93576 14.5 8.65967C14.5 10.3836 13.8152 12.0369 12.5962 13.2559C11.3772 14.4748 9.72391 15.1597 8 15.1597C6.27609 15.1597 4.62279 14.4748 3.40381 13.2559C2.18482 12.0369 1.5 10.3836 1.5 8.65967V8.65967ZM8 0.659668C5.87827 0.659668 3.84344 1.50252 2.34315 3.00281C0.842855 4.5031 0 6.53794 0 8.65967C0 10.7814 0.842855 12.8162 2.34315 14.3165C3.84344 15.8168 5.87827 16.6597 8 16.6597C10.1217 16.6597 12.1566 15.8168 13.6569 14.3165C15.1571 12.8162 16 10.7814 16 8.65967C16 6.53794 15.1571 4.5031 13.6569 3.00281C12.1566 1.50252 10.1217 0.659668 8 0.659668V0.659668ZM8.5 5.40967C8.5 5.21076 8.42098 5.01999 8.28033 4.87934C8.13968 4.73869 7.94891 4.65967 7.75 4.65967C7.55109 4.65967 7.36032 4.73869 7.21967 4.87934C7.07902 5.01999 7 5.21076 7 5.40967V8.90967C7.00003 9.05945 7.04492 9.20579 7.12886 9.32983C7.21281 9.45388 7.33197 9.54995 7.471 9.60567L9.971 10.6057C10.1541 10.6725 10.3561 10.6655 10.5341 10.586C10.7121 10.5065 10.8522 10.3608 10.9246 10.1798C10.997 9.99881 10.9961 9.79671 10.9221 9.61636C10.8481 9.43601 10.7067 9.29157 10.528 9.21367L8.5 8.40167V5.40967Z" fill="black"/>
</svg>
