<svg fill="none" height="246" viewBox="0 0 495 246" width="495" xmlns="http://www.w3.org/2000/svg"><rect fill="#56ccf2" height="246" rx="12" width="495"/><path d="m237.194 49.1836h65.1079v82.207h-65.1079z" fill="#fff"/><path d="m243.772 55.7607h65.1079v82.207h-65.1079z" fill="#000"/><g stroke="#fff" stroke-linecap="round" stroke-linejoin="round" stroke-width="1.70639"><path d="m236.534 89.8284h-71.627c-19.282 0-34.913 15.6306-34.913 34.9126s15.631 34.913 34.913 34.913h18.686"/><path d="m228.308 80.7512 9.113 9.1133-9.113 9.1133"/><path d="m309.711 89.7292c19.282 0 34.913 15.6308 34.913 34.9128s-15.631 34.913-34.913 34.913h-71.628"/><path d="m246.31 168.632-9.113-9.113 9.113-9.113"/></g><path d="m170.345 107.715h65.1079v82.207h-65.1079z" fill="#fff500" transform="matrix(.96592583 .25881905 -.25881905 .96592583 33.683059 -40.418231)"/><path d="m191.352 132.706v45.912" stroke="#f66" stroke-width=".853196"/><path d="m212.199 155.529h-41.432" stroke="#f66" stroke-width=".853196"/><path d="m0-.426598h25.7552" stroke="#f66" stroke-width=".853196" transform="matrix(-.707107 -.707106 .707107 -.707106 201.3 164.356)"/><path d="m200.483 146.445-18.212 18.212" stroke="#f66" stroke-width=".853196"/><path d="m275.821 70.8631c.191-.9009 1.477-.9009 1.669 0l2.493 11.7225c.137.6423.917.8959 1.405.4566l8.908-8.0181c.685-.6162 1.725.1396 1.35.981l-4.873 10.9494c-.267.5999.216 1.264.869 1.1954l11.919-1.251c.916-.0962 1.313 1.1267.516 1.5873l-10.378 5.9939c-.569.3284-.569 1.1492 0 1.4776l10.378 5.9943c.797.46.4 1.683-.516 1.587l-11.919-1.251c-.653-.069-1.136.595-.869 1.195l4.873 10.95c.375.841-.665 1.597-1.35.981l-8.908-8.018c-.488-.44-1.268-.186-1.405.456l-2.493 11.723c-.192.901-1.478.901-1.669 0l-2.494-11.723c-.136-.642-.917-.896-1.405-.456l-8.908 8.018c-.684.616-1.724-.14-1.35-.981l4.873-10.95c.267-.6-.215-1.264-.868-1.195l-11.92 1.251c-.916.096-1.313-1.127-.515-1.587l10.378-5.9943c.568-.3284.568-1.1492 0-1.4776l-10.378-5.9939c-.798-.4606-.401-1.6835.515-1.5873l11.92 1.251c.653.0686 1.135-.5955.868-1.1954l-4.873-10.9493c-.374-.8415.666-1.5973 1.35-.9811l8.908 8.0181c.488.4393 1.269.1857 1.405-.4566z" fill="#fff500"/><circle cx="237.195" cy="89.959" fill="#fff500" r="5.26125"/><path d="m299.015 159.669s-8.539 8.549-19.072 8.549-19.072-8.549-19.072-8.549 8.539-8.55 19.072-8.55 19.072 8.55 19.072 8.55z" fill="#fff" stroke="#fff" stroke-linecap="round" stroke-linejoin="round" stroke-width="1.70639"/><circle cx="279.943" cy="159.669" fill="#00ba8d" r="7.23422"/><circle cx="279.943" cy="159.669" fill="#000" r="3.94594"/></svg>