<svg fill="none" height="687" viewBox="0 0 829 687" width="829" xmlns="http://www.w3.org/2000/svg"><path d="m486.705 803.539c164.169 0 297.254-132.264 297.254-295.419s-133.085-295.418-297.254-295.418-297.254 132.263-297.254 295.418 133.085 295.419 297.254 295.419z" stroke="#fff" stroke-width="4.43314"/><path d="m487.899 803.539c82.085 0 148.627-132.264 148.627-295.419s-66.542-295.418-148.627-295.418c-82.084 0-148.627 132.263-148.627 295.418s66.543 295.419 148.627 295.419z" stroke="#fff" stroke-width="4.43314"/><path d="m699.503 299.537c-116.55 115.83-305.513 115.83-422.063 0" stroke="#fff" stroke-width="4.43314"/><path d="m277.44 717.849c116.55-115.83 305.513-115.83 422.063 0" stroke="#fff" stroke-width="4.43314"/><path d="m489.086 210.338v595.563" stroke="#fff" stroke-width="4.43314"/><path d="m786.342 510.484h-599.264" stroke="#fff" stroke-width="4.43314"/><path d="m566.913 456.299c-5.251-6.641-4.081-16.238 2.618-21.438 6.697-5.199 16.385-4.032 21.636 2.609l2.758 3.486c6.378 8.062 3.101 19.933-6.53 23.646-6.33 2.441-13.531.484-17.723-4.817z" fill="#0d06c1"/><path d="m614.76 443.644c9.107 5.226 12.227 16.799 6.97 25.85l-25.985 44.731c-6.083 10.468-19.55 14.053-30.084 8.01-11.396-6.54-14.516-21.488-6.675-31.993l30.959-41.484c5.764-7.721 16.437-9.921 24.815-5.114z" fill="#241ed3"/><path d="m420.388 535.973 8.166 12.112c9.602 14.251 26.22 22.211 43.418 20.802l119.296-9.765c8.057-.659 15.355-4.977 19.781-11.701l41.825-63.534c5.488-8.34 3.778-19.448-3.967-25.775-8.05-6.579-19.868-5.764-26.929 1.856l-51.872 55.973-64.808-2.12c-16.934-.553-32.292-10.018-40.32-24.846l-3.053-5.641z" fill="#403add"/><path d="m428.888 585.286c7.888 3.141 11.703 12.035 8.518 19.867-3.184 7.829-12.161 11.632-20.049 8.491l-4.142-1.647c-9.581-3.815-12.713-15.723-6.243-23.723 4.255-5.261 11.477-7.142 17.774-4.637z" fill="#0d06c1"/><path d="m393.822 620.021c-10.515 0-19.041-8.473-19.041-18.924v-51.648c0-12.089 9.86-21.887 22.021-21.887 13.162 0 23.383 11.396 21.878 24.39l-5.94 51.31c-1.109 9.551-9.244 16.759-18.918 16.759z" fill="#241ed3"/><path d="m523.566 423.04-18.011-9.042c-15.567-7.813-34.189-6.532-48.524 3.337l-98.117 67.542c-6.644 4.576-10.794 11.94-11.244 19.961l-4.256 75.807c-.559 9.95 6.511 18.72 16.401 20.353 10.283 1.695 20.106-4.883 22.389-14.991l16.761-74.249 57.191-30.369c14.944-7.936 33.005-7.371 47.418 1.482l5.481 3.368z" fill="#403add"/><path d="m555.24 636.734 57.496-28.443c10.142-5.018 12.007-18.614 3.586-26.16-4.052-3.632-9.681-4.977-14.951-3.569l-31.383 8.385c-24.95 6.67-51.555-1.375-68.56-20.724l-2.521-2.869c-13.048-14.849-.248-37.759 19.328-34.59l74.071 11.994c10.024 1.624 19.702-4.384 22.625-14.045 3.008-9.933-2.083-20.516-11.755-24.435l-160.907-65.209c-57.21-23.187-118.785-33.801-180.492-31.111l-78.671 3.427c-42.562 1.853-76.09 36.662-76.09 78.997 0 50.658 47.232 88.316 96.991 77.326l52.324-11.554c30.991-6.845 63.403-3.219 92.104 10.302l154.495 72.772c16.597 7.815 35.878 7.636 52.31-.494z" fill="#5f5ae0"/><path d="m639.892 481.153-121.776-60.79-41.216 14.374 43.021 44.634c13.778 14.296 4.86 38.033-14.963 39.834l-100.193 9.104c-9.848.895-17.743 8.442-19.017 18.174-1.408 10.751 5.662 20.816 16.318 23.229l214.957 48.676c31.273 7.083 63.244 10.656 95.307 10.656h57.384c40.726 0 73.7-32.732 73.7-73.162 0-46.801-43.58-81.701-89.635-71.78l-33.4 7.197c-27.19 5.858-55.601 2.276-80.487-10.146z" fill="#403add"/><path d="m592.294 540.72-145.172-23.806c-.533-.087-1.011-.368-1.343-.789-24.558-31.057 8.235-74.297 45.037-59.384l112.804 45.717c9.42 3.817 14.378 14.126 11.448 23.801l-.131.437c-2.927 9.666-12.618 15.669-22.643 14.024z" fill="#5f5ae0"/><path d="m609.176 673.555c8.537 0 15.457-6.878 15.457-15.362s-6.92-15.362-15.457-15.362-15.457 6.878-15.457 15.362 6.92 15.362 15.457 15.362z" fill="#fff500"/><path d="m361.861 668.828c5.91 0 10.701-4.762 10.701-10.635 0-5.874-4.791-10.635-10.701-10.635s-10.701 4.761-10.701 10.635c0 5.873 4.791 10.635 10.701 10.635z" fill="#fff500"/><path d="m487.899 231.609c9.85 0 17.835-7.935 17.835-17.725 0-9.789-7.985-17.725-17.835-17.725s-17.836 7.936-17.836 17.725c0 9.79 7.986 17.725 17.836 17.725z" fill="#fff500"/><path d="m487.894 397.043c5.91 0 10.701-4.762 10.701-10.635 0-5.874-4.791-10.636-10.701-10.636s-10.701 4.762-10.701 10.636c0 5.873 4.791 10.635 10.701 10.635z" fill="#fff500"/><path d="m359.482 363.957c5.91 0 10.702-4.762 10.702-10.635 0-5.874-4.792-10.635-10.702-10.635s-10.701 4.761-10.701 10.635c0 5.873 4.791 10.635 10.701 10.635z" fill="#fff500"/><path d="m613.93 368.683c5.91 0 10.701-4.761 10.701-10.635 0-5.873-4.791-10.635-10.701-10.635s-10.701 4.762-10.701 10.635c0 5.874 4.791 10.635 10.701 10.635z" fill="#fff500"/><path d="m697.163 309.6c5.91 0 10.701-4.762 10.701-10.635 0-5.874-4.791-10.635-10.701-10.635s-10.701 4.761-10.701 10.635c0 5.873 4.791 10.635 10.701 10.635z" fill="#fff500"/><path d="m697.163 337.961c21.671 0 39.238-17.459 39.238-38.996 0-21.536-17.567-38.995-39.238-38.995-21.67 0-39.237 17.459-39.237 38.995 0 21.537 17.567 38.996 39.237 38.996z" stroke="#fff500" stroke-width="2.21657"/><path d="m276.251 309.6c5.91 0 10.701-4.762 10.701-10.635 0-5.874-4.791-10.635-10.701-10.635s-10.701 4.761-10.701 10.635c0 5.873 4.791 10.635 10.701 10.635z" fill="#fff500"/><g stroke="#fff"><path d="m277.494 84.7759v137.3951" stroke-width="2.21657"/><path d="m340.371 152.979h-124.761" stroke-width="2.21657"/><path d="m306.7 180.325-54.837-54.5" stroke-width="2.21657"/><path d="m305.01 125.825-54.837 54.5" stroke-width="2.21657"/><path d="m640.787 37.2036v66.1734" stroke-width="2.21657"/><path d="m670.454 70.6641h-60.089" stroke-width="2.21657"/><path d="m653.8 83.6562-26.41-26.249" stroke-width="2.21657"/><path d="m653.857 57.4058-26.411 26.2492" stroke-width="2.21657"/></g><path d="m496.218 189.069v-7.09h-16.646v7.09z" fill="#fff500"/></svg>