<svg width="260" height="200" viewBox="0 0 260 200" fill="none" xmlns="http://www.w3.org/2000/svg">
<rect width="260" height="200" rx="12" fill="#56CCF2"/>
<rect x="119.194" y="26.1836" width="65.1079" height="82.207" fill="white"/>
<rect x="125.772" y="32.7607" width="65.1079" height="82.207" fill="black"/>
<path d="M118.534 66.8281L46.9069 66.8281C27.625 66.8281 11.9939 82.4592 11.9939 101.741C11.9939 121.023 27.625 136.654 46.9069 136.654L65.5929 136.654" stroke="white" stroke-width="1.70639" stroke-linecap="round" stroke-linejoin="round"/>
<path d="M110.308 57.751L119.421 66.8643L110.308 75.9776" stroke="white" stroke-width="1.70639" stroke-linecap="round" stroke-linejoin="round"/>
<path d="M191.711 66.7292C210.993 66.7292 226.624 82.3603 226.624 101.642C226.624 120.924 210.993 136.555 191.711 136.555L120.083 136.555" stroke="white" stroke-width="1.70639" stroke-linecap="round" stroke-linejoin="round"/>
<path d="M128.31 145.632L119.197 136.519L128.31 127.406" stroke="white" stroke-width="1.70639" stroke-linecap="round" stroke-linejoin="round"/>
<rect x="52.3447" y="84.7153" width="65.1079" height="82.207" transform="rotate(15 52.3447 84.7153)" fill="#FFF500"/>
<line x1="73.3524" y1="109.706" x2="73.3524" y2="155.618" stroke="#FF6666" stroke-width="0.853196"/>
<line x1="94.1992" y1="132.529" x2="52.7669" y2="132.529" stroke="#FF6666" stroke-width="0.853196"/>
<line y1="-0.426598" x2="25.7552" y2="-0.426598" transform="matrix(-0.707107 -0.707106 0.707107 -0.707106 83.3003 141.355)" stroke="#FF6666" stroke-width="0.853196"/>
<line x1="82.4828" y1="123.445" x2="64.2711" y2="141.657" stroke="#FF6666" stroke-width="0.853196"/>
<path d="M157.821 47.8633C158.012 46.9624 159.298 46.9624 159.49 47.8633L161.983 59.5858C162.12 60.2281 162.9 60.4818 163.388 60.0424L172.296 52.0243C172.981 51.4081 174.021 52.1639 173.646 53.0054L168.773 63.9547C168.506 64.5546 168.989 65.2187 169.642 65.1501L181.561 63.8991C182.477 63.803 182.874 65.0258 182.077 65.4865L171.699 71.4803C171.13 71.8087 171.13 72.6296 171.699 72.958L182.077 78.9518C182.874 79.4125 182.477 80.6353 181.561 80.5392L169.642 79.2882C168.989 79.2196 168.506 79.8837 168.773 80.4836L173.646 91.4329C174.021 92.2744 172.981 93.0302 172.296 92.414L163.388 84.3959C162.9 83.9565 162.12 84.2102 161.983 84.8525L159.49 96.575C159.298 97.4759 158.012 97.4759 157.821 96.575L155.327 84.8525C155.191 84.2102 154.41 83.9565 153.922 84.3959L145.014 92.414C144.33 93.0302 143.29 92.2744 143.664 91.4329L148.537 80.4836C148.804 79.8837 148.322 79.2196 147.669 79.2882L135.749 80.5392C134.833 80.6353 134.436 79.4125 135.234 78.9518L145.612 72.958C146.18 72.6296 146.18 71.8087 145.612 71.4803L135.234 65.4865C134.436 65.0258 134.833 63.803 135.749 63.8991L147.669 65.1501C148.322 65.2187 148.804 64.5546 148.537 63.9547L143.664 53.0054C143.29 52.1639 144.33 51.4081 145.014 52.0243L153.922 60.0424C154.41 60.4818 155.191 60.2281 155.327 59.5858L157.821 47.8633Z" fill="#FFF500"/>
<circle cx="119.195" cy="66.959" r="5.26125" fill="#FFF500"/>
<path d="M181.015 136.669C181.015 136.669 172.476 145.219 161.943 145.219C151.41 145.219 142.871 136.669 142.871 136.669C142.871 136.669 151.41 128.12 161.943 128.12C172.476 128.12 181.015 136.669 181.015 136.669Z" fill="white" stroke="white" stroke-width="1.70639" stroke-linecap="round" stroke-linejoin="round"/>
<circle cx="161.943" cy="136.669" r="7.23422" fill="#00BA8D"/>
<circle cx="161.943" cy="136.669" r="3.94594" fill="black"/>
</svg>
