<svg width="447" height="246" viewBox="0 0 447 246" fill="none" xmlns="http://www.w3.org/2000/svg">
<rect width="447" height="246" rx="12" fill="#56CCF2"/>
<rect x="213.194" y="49.1836" width="65.1079" height="82.207" fill="white"/>
<rect x="219.772" y="55.7607" width="65.1079" height="82.207" fill="black"/>
<path d="M212.534 89.8284L140.907 89.8284C121.625 89.8284 105.994 105.459 105.994 124.741C105.994 144.023 121.625 159.654 140.907 159.654L159.593 159.654" stroke="white" stroke-width="1.70639" stroke-linecap="round" stroke-linejoin="round"/>
<path d="M204.308 80.7512L213.421 89.8645L204.308 98.9778" stroke="white" stroke-width="1.70639" stroke-linecap="round" stroke-linejoin="round"/>
<path d="M285.711 89.7292C304.993 89.7292 320.624 105.36 320.624 124.642C320.624 143.924 304.993 159.555 285.711 159.555L214.083 159.555" stroke="white" stroke-width="1.70639" stroke-linecap="round" stroke-linejoin="round"/>
<path d="M222.31 168.632L213.197 159.519L222.31 150.406" stroke="white" stroke-width="1.70639" stroke-linecap="round" stroke-linejoin="round"/>
<rect x="146.345" y="107.715" width="65.1079" height="82.207" transform="rotate(15 146.345 107.715)" fill="#FFF500"/>
<line x1="167.352" y1="132.706" x2="167.352" y2="178.618" stroke="#FF6666" stroke-width="0.853196"/>
<line x1="188.199" y1="155.529" x2="146.767" y2="155.529" stroke="#FF6666" stroke-width="0.853196"/>
<line y1="-0.426598" x2="25.7552" y2="-0.426598" transform="matrix(-0.707107 -0.707106 0.707107 -0.707106 177.3 164.356)" stroke="#FF6666" stroke-width="0.853196"/>
<line x1="176.483" y1="146.445" x2="158.271" y2="164.657" stroke="#FF6666" stroke-width="0.853196"/>
<path d="M251.821 70.8631C252.012 69.9622 253.298 69.9622 253.49 70.8631L255.983 82.5856C256.12 83.2279 256.9 83.4815 257.388 83.0422L266.296 75.0241C266.981 74.4079 268.021 75.1637 267.646 76.0051L262.773 86.9545C262.506 87.5544 262.989 88.2185 263.642 88.1499L275.561 86.8989C276.477 86.8027 276.874 88.0256 276.077 88.4862L265.699 94.4801C265.13 94.8085 265.13 95.6293 265.699 95.9577L276.077 101.952C276.874 102.412 276.477 103.635 275.561 103.539L263.642 102.288C262.989 102.219 262.506 102.883 262.773 103.483L267.646 114.433C268.021 115.274 266.981 116.03 266.296 115.414L257.388 107.396C256.9 106.956 256.12 107.21 255.983 107.852L253.49 119.575C253.298 120.476 252.012 120.476 251.821 119.575L249.327 107.852C249.191 107.21 248.41 106.956 247.922 107.396L239.014 115.414C238.33 116.03 237.29 115.274 237.664 114.433L242.537 103.483C242.804 102.883 242.322 102.219 241.669 102.288L229.749 103.539C228.833 103.635 228.436 102.412 229.234 101.952L239.612 95.9577C240.18 95.6293 240.18 94.8085 239.612 94.4801L229.234 88.4862C228.436 88.0256 228.833 86.8027 229.749 86.8989L241.669 88.1499C242.322 88.2185 242.804 87.5544 242.537 86.9545L237.664 76.0052C237.29 75.1637 238.33 74.4079 239.014 75.0241L247.922 83.0422C248.41 83.4815 249.191 83.2279 249.327 82.5856L251.821 70.8631Z" fill="#FFF500"/>
<circle cx="213.195" cy="89.959" r="5.26125" fill="#FFF500"/>
<path d="M275.015 159.669C275.015 159.669 266.476 168.218 255.943 168.218C245.41 168.218 236.871 159.669 236.871 159.669C236.871 159.669 245.41 151.119 255.943 151.119C266.476 151.119 275.015 159.669 275.015 159.669Z" fill="white" stroke="white" stroke-width="1.70639" stroke-linecap="round" stroke-linejoin="round"/>
<circle cx="255.943" cy="159.669" r="7.23422" fill="#00BA8D"/>
<circle cx="255.943" cy="159.669" r="3.94594" fill="black"/>
</svg>
