<svg width="792" height="680" viewBox="0 0 792 680" fill="none" xmlns="http://www.w3.org/2000/svg">
<path d="M464.935 774.21C623.305 774.21 751.689 646.774 751.689 489.574C751.689 332.374 623.305 204.938 464.935 204.938C306.564 204.938 178.18 332.374 178.18 489.574C178.18 646.774 306.564 774.21 464.935 774.21Z" stroke="white" stroke-width="3.83333"/>
<path d="M466.086 774.21C545.271 774.21 609.464 646.774 609.464 489.574C609.464 332.374 545.271 204.938 466.086 204.938C386.901 204.938 322.709 332.374 322.709 489.574C322.709 646.774 386.901 774.21 466.086 774.21Z" stroke="white" stroke-width="3.83333"/>
<path d="M670.217 288.603C557.784 400.205 375.495 400.205 263.062 288.603" stroke="white" stroke-width="3.83333"/>
<path d="M263.062 691.648C375.495 580.045 557.784 580.045 670.217 691.648" stroke="white" stroke-width="3.83333"/>
<path d="M467.229 202.661V776.487" stroke="white" stroke-width="3.83333"/>
<path d="M753.986 491.851H175.889" stroke="white" stroke-width="3.83333"/>
<path d="M542.309 439.645C537.244 433.246 538.372 423.999 544.835 418.989C551.295 413.979 560.64 415.104 565.706 421.503L568.367 424.862C574.519 432.629 571.358 444.067 562.067 447.644C555.961 449.996 549.014 448.111 544.97 443.003L542.309 439.645Z" fill="#0D06C1"/>
<path d="M588.468 427.451C597.254 432.485 600.263 443.636 595.191 452.357L570.124 495.456C564.256 505.541 551.265 508.995 541.103 503.173C530.11 496.872 527.1 482.47 534.663 472.348L564.529 432.378C570.09 424.939 580.386 422.819 588.468 427.451Z" fill="#241ED3"/>
<path d="M400.957 516.41L408.835 528.08C418.098 541.811 434.129 549.48 450.719 548.123L565.802 538.714C573.574 538.079 580.615 533.918 584.884 527.44L625.231 466.225C630.526 458.189 628.877 447.487 621.405 441.391C613.64 435.052 602.238 435.837 595.427 443.178L545.387 497.109L482.868 495.067C466.532 494.534 451.717 485.414 443.973 471.128L441.027 465.692L400.957 516.41Z" fill="#403ADD"/>
<path d="M409.16 563.924C416.769 566.95 420.449 575.519 417.377 583.065C414.306 590.609 405.646 594.273 398.036 591.246L394.04 589.659C384.797 585.984 381.776 574.51 388.018 566.802C392.122 561.733 399.089 559.921 405.164 562.334L409.16 563.924Z" fill="#0D06C1"/>
<path d="M375.33 597.39C365.186 597.39 356.962 589.226 356.962 579.157V529.394C356.962 517.746 366.473 508.305 378.205 508.305C390.902 508.305 400.762 519.286 399.31 531.805L393.58 581.243C392.511 590.445 384.663 597.39 375.33 597.39Z" fill="#241ED3"/>
<path d="M500.492 407.599L483.117 398.887C468.1 391.359 450.136 392.593 436.307 402.102L341.655 467.179C335.246 471.587 331.243 478.683 330.809 486.411L326.703 559.451C326.164 569.038 332.984 577.488 342.525 579.062C352.444 580.694 361.921 574.357 364.123 564.618L380.291 493.079L435.463 463.818C449.879 456.172 467.302 456.716 481.206 465.246L486.494 468.491L500.492 407.599Z" fill="#403ADD"/>
<path d="M531.048 613.493L586.514 586.088C596.298 581.254 598.096 568.154 589.973 560.883C586.064 557.384 580.634 556.088 575.55 557.445L545.276 565.524C521.207 571.95 495.541 564.199 479.137 545.556L476.705 542.792C464.117 528.485 476.466 506.411 495.351 509.464L566.805 521.021C576.475 522.585 585.812 516.797 588.631 507.488C591.533 497.917 586.621 487.721 577.291 483.945L422.068 421.116C366.878 398.775 307.478 388.549 247.95 391.14L172.059 394.442C130.999 396.227 98.6553 429.766 98.6553 470.556C98.6553 519.365 144.219 555.648 192.221 545.06L242.697 533.927C272.593 527.333 303.861 530.826 331.547 543.853L480.586 613.969C496.596 621.499 515.196 621.326 531.048 613.493Z" fill="#5F5AE0"/>
<path d="M612.71 463.59L495.235 405.019L455.475 418.868L496.976 461.873C510.268 475.648 501.665 498.519 482.542 500.254L385.887 509.025C376.388 509.888 368.772 517.159 367.542 526.536C366.184 536.894 373.004 546.593 383.284 548.918L590.649 595.817C620.818 602.641 651.659 606.084 682.589 606.084H737.947C777.234 606.084 809.043 574.546 809.043 535.592C809.043 490.499 767.003 456.873 722.574 466.432L690.355 473.366C664.124 479.011 636.718 475.559 612.71 463.59Z" fill="#403ADD"/>
<path d="M566.794 520.985L426.75 498.047C426.236 497.963 425.775 497.692 425.454 497.287C401.763 467.364 433.398 425.702 468.9 440.07L577.72 484.118C586.807 487.796 591.59 497.729 588.764 507.051L588.638 507.472C585.814 516.786 576.465 522.569 566.794 520.985Z" fill="#5F5AE0"/>
<path d="M583.079 648.971C591.314 648.971 597.99 642.344 597.99 634.17C597.99 625.995 591.314 619.368 583.079 619.368C574.844 619.368 568.168 625.995 568.168 634.17C568.168 642.344 574.844 648.971 583.079 648.971Z" fill="#FFF500"/>
<path d="M412.175 699.067C422.31 699.067 430.527 690.911 430.527 680.85C430.527 670.789 422.31 662.633 412.175 662.633C402.039 662.633 393.822 670.789 393.822 680.85C393.822 690.911 402.039 699.067 412.175 699.067Z" fill="#FFF500"/>
<path d="M344.5 644.416C350.201 644.416 354.823 639.829 354.823 634.169C354.823 628.51 350.201 623.922 344.5 623.922C338.799 623.922 334.177 628.51 334.177 634.169C334.177 639.829 338.799 644.416 344.5 644.416Z" fill="#FFF500"/>
<path d="M355.97 685.404C361.671 685.404 366.293 680.816 366.293 675.157C366.293 669.498 361.671 664.91 355.97 664.91C350.268 664.91 345.646 669.498 345.646 675.157C345.646 680.816 350.268 685.404 355.97 685.404Z" fill="#FFF500"/>
<path d="M466.084 223.155C475.586 223.155 483.289 215.509 483.289 206.076C483.289 196.644 475.586 188.998 466.084 188.998C456.582 188.998 448.879 196.644 448.879 206.076C448.879 215.509 456.582 223.155 466.084 223.155Z" fill="#FFF500"/>
<path d="M466.081 382.551C471.782 382.551 476.404 377.963 476.404 372.304C476.404 366.645 471.782 362.057 466.081 362.057C460.38 362.057 455.758 366.645 455.758 372.304C455.758 377.963 460.38 382.551 466.081 382.551Z" fill="#FFF500"/>
<path d="M342.205 350.672C347.906 350.672 352.528 346.084 352.528 340.425C352.528 334.765 347.906 330.178 342.205 330.178C336.504 330.178 331.882 334.765 331.882 340.425C331.882 346.084 336.504 350.672 342.205 350.672Z" fill="#FFF500"/>
<path d="M587.666 355.226C593.367 355.226 597.989 350.638 597.989 344.979C597.989 339.32 593.367 334.732 587.666 334.732C581.965 334.732 577.343 339.32 577.343 344.979C577.343 350.638 581.965 355.226 587.666 355.226Z" fill="#FFF500"/>
<path d="M667.958 298.299C673.659 298.299 678.281 293.711 678.281 288.052C678.281 282.393 673.659 277.805 667.958 277.805C662.257 277.805 657.635 282.393 657.635 288.052C657.635 293.711 662.257 298.299 667.958 298.299Z" fill="#FFF500"/>
<path d="M667.959 325.624C688.864 325.624 705.811 308.802 705.811 288.052C705.811 267.301 688.864 250.48 667.959 250.48C647.054 250.48 630.107 267.301 630.107 288.052C630.107 308.802 647.054 325.624 667.959 325.624Z" stroke="#FFF500" stroke-width="1.91667"/>
<path d="M261.913 298.299C267.614 298.299 272.236 293.711 272.236 288.052C272.236 282.393 267.614 277.805 261.913 277.805C256.212 277.805 251.59 282.393 251.59 288.052C251.59 293.711 256.212 298.299 261.913 298.299Z" fill="#FFF500"/>
<path d="M263.111 81.6806V214.061" stroke="white" stroke-width="1.91667"/>
<path d="M323.769 147.395H203.414" stroke="white" stroke-width="1.91667"/>
<path d="M291.286 173.742L238.386 121.231" stroke="white" stroke-width="1.91667"/>
<path d="M289.656 121.231L236.756 173.742" stroke="white" stroke-width="1.91667"/>
<path d="M613.574 35.8442V99.6027" stroke="white" stroke-width="1.91667"/>
<path d="M642.193 68.0846H584.227" stroke="white" stroke-width="1.91667"/>
<path d="M626.127 80.6012L600.649 55.3103" stroke="white" stroke-width="1.91667"/>
<path d="M626.182 55.31L600.704 80.6012" stroke="white" stroke-width="1.91667"/>
<path d="M474.112 182.167V175.336H458.054V182.167H474.112Z" fill="#FFF500"/>
</svg>
