<svg width="437" height="246" viewBox="0 0 437 246" fill="none" xmlns="http://www.w3.org/2000/svg">
<rect width="437" height="246" rx="12" fill="#56CCF2"/>
<rect x="208.194" y="49.1836" width="65.1079" height="82.207" fill="white"/>
<rect x="214.772" y="55.7607" width="65.1079" height="82.207" fill="black"/>
<path d="M207.534 89.8284L135.907 89.8284C116.625 89.8284 100.994 105.459 100.994 124.741C100.994 144.023 116.625 159.654 135.907 159.654L154.593 159.654" stroke="white" stroke-width="1.70639" stroke-linecap="round" stroke-linejoin="round"/>
<path d="M199.308 80.7512L208.421 89.8645L199.308 98.9778" stroke="white" stroke-width="1.70639" stroke-linecap="round" stroke-linejoin="round"/>
<path d="M280.711 89.7292C299.993 89.7292 315.624 105.36 315.624 124.642C315.624 143.924 299.993 159.555 280.711 159.555L209.083 159.555" stroke="white" stroke-width="1.70639" stroke-linecap="round" stroke-linejoin="round"/>
<path d="M217.31 168.632L208.197 159.519L217.31 150.406" stroke="white" stroke-width="1.70639" stroke-linecap="round" stroke-linejoin="round"/>
<rect x="141.345" y="107.715" width="65.1079" height="82.207" transform="rotate(15 141.345 107.715)" fill="#FFF500"/>
<line x1="162.352" y1="132.706" x2="162.352" y2="178.618" stroke="#FF6666" stroke-width="0.853196"/>
<line x1="183.199" y1="155.529" x2="141.767" y2="155.529" stroke="#FF6666" stroke-width="0.853196"/>
<line y1="-0.426598" x2="25.7552" y2="-0.426598" transform="matrix(-0.707107 -0.707106 0.707107 -0.707106 172.3 164.356)" stroke="#FF6666" stroke-width="0.853196"/>
<line x1="171.483" y1="146.445" x2="153.271" y2="164.657" stroke="#FF6666" stroke-width="0.853196"/>
<path d="M246.821 70.8631C247.012 69.9622 248.298 69.9622 248.49 70.8631L250.983 82.5856C251.12 83.2279 251.9 83.4815 252.388 83.0422L261.296 75.0241C261.981 74.4079 263.021 75.1637 262.646 76.0051L257.773 86.9545C257.506 87.5544 257.989 88.2185 258.642 88.1499L270.561 86.8989C271.477 86.8027 271.874 88.0256 271.077 88.4862L260.699 94.4801C260.13 94.8085 260.13 95.6293 260.699 95.9577L271.077 101.952C271.874 102.412 271.477 103.635 270.561 103.539L258.642 102.288C257.989 102.219 257.506 102.883 257.773 103.483L262.646 114.433C263.021 115.274 261.981 116.03 261.296 115.414L252.388 107.396C251.9 106.956 251.12 107.21 250.983 107.852L248.49 119.575C248.298 120.476 247.012 120.476 246.821 119.575L244.327 107.852C244.191 107.21 243.41 106.956 242.922 107.396L234.014 115.414C233.33 116.03 232.29 115.274 232.664 114.433L237.537 103.483C237.804 102.883 237.322 102.219 236.669 102.288L224.749 103.539C223.833 103.635 223.436 102.412 224.234 101.952L234.612 95.9577C235.18 95.6293 235.18 94.8085 234.612 94.4801L224.234 88.4862C223.436 88.0256 223.833 86.8027 224.749 86.8989L236.669 88.1499C237.322 88.2185 237.804 87.5544 237.537 86.9545L232.664 76.0052C232.29 75.1637 233.33 74.4079 234.014 75.0241L242.922 83.0422C243.41 83.4815 244.191 83.2279 244.327 82.5856L246.821 70.8631Z" fill="#FFF500"/>
<circle cx="208.195" cy="89.959" r="5.26125" fill="#FFF500"/>
<path d="M270.015 159.669C270.015 159.669 261.476 168.218 250.943 168.218C240.41 168.218 231.871 159.669 231.871 159.669C231.871 159.669 240.41 151.119 250.943 151.119C261.476 151.119 270.015 159.669 270.015 159.669Z" fill="white" stroke="white" stroke-width="1.70639" stroke-linecap="round" stroke-linejoin="round"/>
<circle cx="250.943" cy="159.669" r="7.23422" fill="#00BA8D"/>
<circle cx="250.943" cy="159.669" r="3.94594" fill="black"/>
</svg>
