<svg fill="none" height="301" viewBox="0 0 345 301" width="345" xmlns="http://www.w3.org/2000/svg"><rect fill="#56ccf2" height="300" rx="12" width="345" y=".5"/><path d="m162.194 76.6836h65.1079v82.207h-65.1079z" fill="#fff"/><path d="m168.772 83.2607h65.1079v82.207h-65.1079z" fill="#000"/><g stroke="#fff" stroke-linecap="round" stroke-linejoin="round" stroke-width="1.70639"><path d="m161.534 117.328h-71.6271c-19.2819 0-34.913 15.631-34.913 34.913s15.6311 34.913 34.913 34.913h18.6861"/><path d="m153.308 108.251 9.113 9.113-9.113 9.114"/><path d="m234.711 117.229c19.282 0 34.913 15.631 34.913 34.913s-15.631 34.913-34.913 34.913h-71.628"/><path d="m171.31 196.132-9.113-9.113 9.113-9.113"/></g><path d="m95.3447 135.215h65.1079v82.207h-65.1079z" fill="#fff500" transform="matrix(.96592583 .25881905 -.25881905 .96592583 38.245009 -20.069685)"/><path d="m116.352 160.206v45.912" stroke="#f66" stroke-width=".853196"/><path d="m137.199 183.029h-41.4321" stroke="#f66" stroke-width=".853196"/><path d="m0-.426598h25.7552" stroke="#f66" stroke-width=".853196" transform="matrix(-.707107 -.707106 .707107 -.707106 126.3 191.856)"/><path d="m125.483 173.945-18.212 18.212" stroke="#f66" stroke-width=".853196"/><path d="m200.821 98.3631c.191-.9009 1.477-.9009 1.669 0l2.493 11.7229c.137.642.917.896 1.405.456l8.908-8.018c.685-.616 1.725.14 1.35.981l-4.873 10.949c-.267.6.216 1.264.869 1.196l11.919-1.251c.916-.096 1.313 1.127.516 1.587l-10.378 5.994c-.569.329-.569 1.149 0 1.478l10.378 5.994c.797.46.4 1.683-.516 1.587l-11.919-1.251c-.653-.069-1.136.595-.869 1.195l4.873 10.95c.375.841-.665 1.597-1.35.981l-8.908-8.018c-.488-.44-1.268-.186-1.405.456l-2.493 11.723c-.192.901-1.478.901-1.669 0l-2.494-11.723c-.136-.642-.917-.896-1.405-.456l-8.908 8.018c-.684.616-1.724-.14-1.35-.981l4.873-10.95c.267-.6-.215-1.264-.868-1.195l-11.92 1.251c-.916.096-1.313-1.127-.515-1.587l10.378-5.994c.568-.329.568-1.149 0-1.478l-10.378-5.994c-.798-.46-.401-1.683.515-1.587l11.92 1.251c.653.068 1.135-.596.868-1.196l-4.873-10.949c-.374-.841.666-1.597 1.35-.981l8.908 8.018c.488.44 1.269.186 1.405-.456z" fill="#fff500"/><circle cx="162.195" cy="117.459" fill="#fff500" r="5.26125"/><path d="m224.015 187.169s-8.539 8.549-19.072 8.549-19.072-8.549-19.072-8.549 8.539-8.55 19.072-8.55 19.072 8.55 19.072 8.55z" fill="#fff" stroke="#fff" stroke-linecap="round" stroke-linejoin="round" stroke-width="1.70639"/><circle cx="204.943" cy="187.169" fill="#00ba8d" r="7.23422"/><circle cx="204.943" cy="187.169" fill="#000" r="3.94594"/></svg>