<svg width="242" height="241" viewBox="0 0 242 241" fill="none" xmlns="http://www.w3.org/2000/svg">
<path d="M122.495 202.741C163.879 202.741 197.428 169.369 197.428 128.203C197.428 87.0376 163.879 53.666 122.495 53.666C81.111 53.666 47.5625 87.0376 47.5625 128.203C47.5625 169.369 81.111 202.741 122.495 202.741Z" stroke="white" stroke-width="0.805412"/>
<path d="M122.796 202.741C143.488 202.741 160.262 169.369 160.262 128.203C160.262 87.0376 143.488 53.666 122.796 53.666C102.104 53.666 85.3296 87.0376 85.3296 128.203C85.3296 169.369 102.104 202.741 122.796 202.741Z" stroke="white" stroke-width="0.805412"/>
<path d="M176.138 75.5752C146.758 104.8 99.1234 104.8 69.7432 75.5752" stroke="white" stroke-width="0.805412"/>
<path d="M69.7432 181.12C99.1234 151.895 146.758 151.895 176.138 181.12" stroke="white" stroke-width="0.805412"/>
<path d="M123.095 53.0703V203.338" stroke="white" stroke-width="0.805412"/>
<path d="M198.028 128.8H46.9641" stroke="white" stroke-width="0.805412"/>
<path d="M142.714 115.129C141.39 113.453 141.685 111.032 143.374 109.72C145.062 108.408 147.504 108.703 148.828 110.378L149.523 111.258C151.131 113.292 150.305 116.287 147.877 117.224C146.281 117.84 144.466 117.346 143.409 116.009L142.714 115.129Z" fill="#0D06C1"/>
<path d="M154.776 111.935C157.072 113.253 157.858 116.173 156.533 118.457L149.982 129.743C148.449 132.384 145.054 133.289 142.399 131.764C139.526 130.114 138.739 126.343 140.716 123.692L148.52 113.225C149.973 111.277 152.664 110.722 154.776 111.935Z" fill="#241ED3"/>
<path d="M105.777 135.231L107.836 138.287C110.256 141.883 114.445 143.891 118.781 143.536L148.853 141.072C150.884 140.906 152.724 139.816 153.84 138.12L164.383 122.089C165.766 119.985 165.335 117.182 163.383 115.586C161.354 113.926 158.374 114.132 156.595 116.054L143.519 130.177L127.181 129.642C122.913 129.503 119.041 127.114 117.018 123.373L116.248 121.95L105.777 135.231Z" fill="#403ADD"/>
<path d="M107.921 147.674C109.909 148.466 110.871 150.71 110.068 152.686C109.265 154.662 107.002 155.621 105.014 154.829L103.97 154.413C101.554 153.451 100.765 150.446 102.396 148.427C103.468 147.1 105.289 146.625 106.876 147.257L107.921 147.674Z" fill="#0D06C1"/>
<path d="M99.0804 156.438C96.4296 156.438 94.2805 154.3 94.2805 151.663V138.632C94.2805 135.582 96.7659 133.109 99.8316 133.109C103.15 133.109 105.726 135.985 105.347 139.263L103.849 152.209C103.57 154.619 101.519 156.438 99.0804 156.438Z" fill="#241ED3"/>
<path d="M131.787 106.737L127.247 104.455C123.323 102.484 118.628 102.807 115.015 105.297L90.2811 122.339C88.6062 123.493 87.5601 125.352 87.4468 127.375L86.3738 146.502C86.2329 149.013 88.0151 151.226 90.5083 151.638C93.1003 152.065 95.5767 150.406 96.1522 147.855L100.377 129.121L114.794 121.459C118.561 119.456 123.114 119.599 126.748 121.833L128.129 122.682L131.787 106.737Z" fill="#403ADD"/>
<path d="M139.772 160.654L154.265 153.477C156.822 152.211 157.292 148.781 155.169 146.877C154.148 145.96 152.729 145.621 151.401 145.976L143.489 148.092C137.2 149.775 130.493 147.745 126.206 142.863L125.571 142.139C122.282 138.393 125.509 132.612 130.443 133.412L149.115 136.438C151.642 136.848 154.082 135.332 154.819 132.894C155.577 130.388 154.294 127.718 151.856 126.729L111.294 110.276C96.8718 104.426 81.3499 101.748 65.7945 102.426L45.963 103.291C35.2336 103.758 26.7817 112.541 26.7817 123.223C26.7817 136.005 38.6882 145.506 51.2316 142.733L64.4217 139.818C72.2339 138.091 80.4045 139.006 87.6394 142.417L126.585 160.778C130.769 162.75 135.629 162.705 139.772 160.654Z" fill="#5F5AE0"/>
<path d="M161.111 121.4L130.413 106.062L120.023 109.688L130.868 120.95C134.342 124.557 132.094 130.546 127.096 131.001L101.839 133.298C99.3569 133.524 97.3667 135.428 97.0454 137.883C96.6905 140.596 98.4727 143.135 101.159 143.744L155.346 156.026C163.23 157.813 171.289 158.714 179.371 158.714H193.837C204.103 158.714 212.415 150.455 212.415 140.255C212.415 128.446 201.43 119.64 189.82 122.144L181.4 123.959C174.546 125.438 167.384 124.534 161.111 121.4Z" fill="#403ADD"/>
<path d="M149.112 136.429L112.517 130.422C112.383 130.4 112.262 130.329 112.178 130.223C105.988 122.387 114.254 111.477 123.532 115.24L151.968 126.775C154.342 127.738 155.592 130.339 154.853 132.78L154.82 132.89C154.083 135.329 151.64 136.844 149.112 136.429Z" fill="#5F5AE0"/>
<path d="M122.795 194.393C126.934 194.393 130.288 191.056 130.288 186.939C130.288 182.822 126.934 179.485 122.795 179.485C118.657 179.485 115.302 182.822 115.302 186.939C115.302 191.056 118.657 194.393 122.795 194.393Z" fill="#FFF500"/>
<path d="M153.368 169.944C155.52 169.944 157.264 168.209 157.264 166.068C157.264 163.928 155.52 162.192 153.368 162.192C151.216 162.192 149.471 163.928 149.471 166.068C149.471 168.209 151.216 169.944 153.368 169.944Z" fill="#FFF500"/>
<path d="M108.708 183.063C111.357 183.063 113.504 180.927 113.504 178.293C113.504 175.658 111.357 173.522 108.708 173.522C106.06 173.522 103.913 175.658 103.913 178.293C103.913 180.927 106.06 183.063 108.708 183.063Z" fill="#FFF500"/>
<path d="M109.907 191.412C110.9 191.412 111.706 190.611 111.706 189.623C111.706 188.635 110.9 187.834 109.907 187.834C108.914 187.834 108.109 188.635 108.109 189.623C108.109 190.611 108.914 191.412 109.907 191.412Z" fill="#FFF500"/>
<path d="M69.4432 183.66C70.9331 183.66 72.1408 182.458 72.1408 180.976C72.1408 179.494 70.9331 178.293 69.4432 178.293C67.9534 178.293 66.7456 179.494 66.7456 180.976C66.7456 182.458 67.9534 183.66 69.4432 183.66Z" fill="#FFF500"/>
<path d="M91.0242 168.752C92.5141 168.752 93.7218 167.551 93.7218 166.069C93.7218 164.587 92.5141 163.386 91.0242 163.386C89.5344 163.386 88.3267 164.587 88.3267 166.069C88.3267 167.551 89.5344 168.752 91.0242 168.752Z" fill="#FFF500"/>
<path d="M176.147 183.66C177.637 183.66 178.845 182.458 178.845 180.976C178.845 179.494 177.637 178.293 176.147 178.293C174.657 178.293 173.45 179.494 173.45 180.976C173.45 182.458 174.657 183.66 176.147 183.66Z" fill="#FFF500"/>
<path d="M122.795 205.722C124.285 205.722 125.493 204.521 125.493 203.039C125.493 201.557 124.285 200.355 122.795 200.355C121.305 200.355 120.097 201.557 120.097 203.039C120.097 204.521 121.305 205.722 122.795 205.722Z" fill="#FFF500"/>
<path d="M94.0213 179.486C95.5111 179.486 96.7189 178.284 96.7189 176.802C96.7189 175.321 95.5111 174.119 94.0213 174.119C92.5315 174.119 91.3237 175.321 91.3237 176.802C91.3237 178.284 92.5315 179.486 94.0213 179.486Z" fill="#FFF500"/>
<path d="M122.796 58.4367C125.279 58.4367 127.292 56.4344 127.292 53.9644C127.292 51.4945 125.279 49.4922 122.796 49.4922C120.313 49.4922 118.3 51.4945 118.3 53.9644C118.3 56.4344 120.313 58.4367 122.796 58.4367Z" fill="#FFF500"/>
<path d="M122.795 100.178C124.285 100.178 125.493 98.9769 125.493 97.4949C125.493 96.0129 124.285 94.8115 122.795 94.8115C121.305 94.8115 120.097 96.0129 120.097 97.4949C120.097 98.9769 121.305 100.178 122.795 100.178Z" fill="#FFF500"/>
<path d="M90.4246 91.8296C91.9145 91.8296 93.1222 90.6282 93.1222 89.1462C93.1222 87.6643 91.9145 86.4629 90.4246 86.4629C88.9348 86.4629 87.7271 87.6643 87.7271 89.1462C87.7271 90.6282 88.9348 91.8296 90.4246 91.8296Z" fill="#FFF500"/>
<path d="M154.566 93.022C156.056 93.022 157.264 91.8206 157.264 90.3386C157.264 88.8566 156.056 87.6553 154.566 87.6553C153.077 87.6553 151.869 88.8566 151.869 90.3386C151.869 91.8206 153.077 93.022 154.566 93.022Z" fill="#FFF500"/>
<path d="M175.548 78.1147C177.038 78.1147 178.245 76.9133 178.245 75.4314C178.245 73.9494 177.038 72.748 175.548 72.748C174.058 72.748 172.85 73.9494 172.85 75.4314C172.85 76.9133 174.058 78.1147 175.548 78.1147Z" fill="#FFF500"/>
<path d="M175.548 85.2707C181.011 85.2707 185.439 80.8656 185.439 75.4317C185.439 69.9978 181.011 65.5928 175.548 65.5928C170.085 65.5928 165.657 69.9978 165.657 75.4317C165.657 80.8656 170.085 85.2707 175.548 85.2707Z" stroke="#FFF500" stroke-width="0.402706"/>
<path d="M69.4432 78.1147C70.9331 78.1147 72.1408 76.9133 72.1408 75.4314C72.1408 73.9494 70.9331 72.748 69.4432 72.748C67.9534 72.748 66.7456 73.9494 66.7456 75.4314C66.7456 76.9133 67.9534 78.1147 69.4432 78.1147Z" fill="#FFF500"/>
<path d="M69.7566 21.3887V56.0551" stroke="white" stroke-width="0.402706"/>
<path d="M85.6069 38.5977H54.1567" stroke="white" stroke-width="0.402706"/>
<path d="M77.1187 45.4971L63.2952 31.7461" stroke="white" stroke-width="0.402706"/>
<path d="M76.6925 31.7461L62.8689 45.4972" stroke="white" stroke-width="0.402706"/>
<path d="M161.336 9.38574V26.0821" stroke="white" stroke-width="0.402706"/>
<path d="M168.815 17.8281H153.668" stroke="white" stroke-width="0.402706"/>
<path d="M164.617 21.1063L157.959 14.4834" stroke="white" stroke-width="0.402706"/>
<path d="M164.631 14.4834L157.973 21.1064" stroke="white" stroke-width="0.402706"/>
<path d="M124.894 209.897V208.108H120.697V209.897H124.894Z" fill="#FFF500"/>
<path d="M124.894 47.7039V45.915H120.697V47.7039H124.894Z" fill="#FFF500"/>
</svg>
