<svg width="828" height="688" viewBox="0 0 828 688" fill="none" xmlns="http://www.w3.org/2000/svg">
<path d="M485.932 803.879C650.1 803.879 783.185 671.616 783.185 508.461C783.185 345.306 650.1 213.043 485.932 213.043C321.763 213.043 188.678 345.306 188.678 508.461C188.678 671.616 321.763 803.879 485.932 803.879Z" stroke="white" stroke-width="4.43314"/>
<path d="M487.126 803.879C569.21 803.879 635.753 671.616 635.753 508.461C635.753 345.306 569.21 213.043 487.126 213.043C405.042 213.043 338.499 345.306 338.499 508.461C338.499 671.616 405.042 803.879 487.126 803.879Z" stroke="white" stroke-width="4.43314"/>
<path d="M698.73 299.877C582.18 415.707 393.217 415.707 276.667 299.877" stroke="white" stroke-width="4.43314"/>
<path d="M276.667 718.189C393.217 602.359 582.18 602.359 698.73 718.189" stroke="white" stroke-width="4.43314"/>
<path d="M488.312 210.679V806.242" stroke="white" stroke-width="4.43314"/>
<path d="M785.568 510.824H186.305" stroke="white" stroke-width="4.43314"/>
<path d="M566.14 456.64C560.889 449.999 562.059 440.402 568.758 435.202C575.454 430.003 585.142 431.17 590.393 437.811L593.152 441.297C599.53 449.359 596.253 461.23 586.622 464.943C580.291 467.384 573.091 465.427 568.898 460.126L566.14 456.64Z" fill="#0D06C1"/>
<path d="M613.986 443.984C623.094 449.21 626.214 460.783 620.956 469.835L594.972 514.566C588.889 525.033 575.422 528.618 564.887 522.575C553.492 516.036 550.372 501.087 558.212 490.582L589.172 449.099C594.936 441.378 605.608 439.177 613.986 443.984Z" fill="#241ED3"/>
<path d="M419.614 536.313L427.78 548.425C437.383 562.676 454.001 570.636 471.199 569.227L590.495 559.462C598.552 558.803 605.85 554.485 610.275 547.761L652.1 484.227C657.589 475.887 655.879 464.779 648.134 458.452C640.084 451.873 628.265 452.688 621.205 460.308L569.333 516.281L504.524 514.161C487.59 513.608 472.233 504.143 464.205 489.315L461.151 483.674L419.614 536.313Z" fill="#403ADD"/>
<path d="M428.115 585.627C436.003 588.768 439.817 597.661 436.633 605.493C433.449 613.323 424.472 617.126 416.584 613.985L412.441 612.338C402.86 608.523 399.728 596.614 406.199 588.614C410.453 583.354 417.675 581.472 423.972 583.978L428.115 585.627Z" fill="#0D06C1"/>
<path d="M393.049 620.361C382.533 620.361 374.008 611.888 374.008 601.437V549.789C374.008 537.7 383.867 527.902 396.028 527.902C409.191 527.902 419.412 539.298 417.907 552.292L411.966 603.602C410.858 613.152 402.723 620.361 393.049 620.361Z" fill="#241ED3"/>
<path d="M522.793 423.381L504.781 414.338C489.215 406.525 470.593 407.806 456.258 417.675L358.14 485.218C351.496 489.793 347.346 497.157 346.897 505.178L342.64 580.985C342.081 590.935 349.151 599.705 359.042 601.338C369.324 603.033 379.148 596.456 381.431 586.347L398.191 512.098L455.383 481.729C470.326 473.793 488.387 474.358 502.801 483.211L508.282 486.579L522.793 423.381Z" fill="#403ADD"/>
<path d="M554.467 637.074L611.963 608.632C622.105 603.614 623.969 590.018 615.549 582.472C611.496 578.839 605.868 577.494 600.598 578.903L569.215 587.288C544.265 593.958 517.659 585.913 500.654 566.564L498.133 563.695C485.085 548.846 497.886 525.936 517.462 529.105L591.533 541.099C601.556 542.723 611.235 536.715 614.157 527.054C617.166 517.121 612.074 506.537 602.403 502.619L441.496 437.41C384.285 414.223 322.711 403.609 261.003 406.299L182.333 409.725C139.77 411.578 106.242 446.388 106.242 488.723C106.242 539.381 153.475 577.038 203.233 566.049L255.558 554.494C286.548 547.65 318.961 551.276 347.661 564.796L502.157 637.568C518.753 645.384 538.034 645.204 554.467 637.074Z" fill="#5F5AE0"/>
<path d="M639.119 481.493L517.342 420.703L476.126 435.077L519.147 479.711C532.926 494.007 524.008 517.745 504.185 519.545L403.991 528.649C394.144 529.545 386.249 537.091 384.974 546.823C383.566 557.574 390.636 567.64 401.292 570.053L616.249 618.728C647.523 625.811 679.493 629.384 711.556 629.384H768.94C809.666 629.384 842.64 596.652 842.64 556.222C842.64 509.421 799.061 474.521 753.005 484.443L719.606 491.639C692.415 497.498 664.005 493.915 639.119 481.493Z" fill="#403ADD"/>
<path d="M591.52 541.062L446.349 517.255C445.816 517.168 445.338 516.887 445.005 516.466C420.447 485.409 453.24 442.169 490.043 457.082L602.847 502.799C612.266 506.616 617.224 516.925 614.295 526.6L614.164 527.037C611.236 536.703 601.546 542.706 591.52 541.062Z" fill="#5F5AE0"/>
<path d="M608.403 673.896C616.939 673.896 623.86 667.018 623.86 658.534C623.86 650.05 616.939 643.172 608.403 643.172C599.866 643.172 592.945 650.05 592.945 658.534C592.945 667.018 599.866 673.896 608.403 673.896Z" fill="#FFF500"/>
<path d="M361.088 669.169C366.998 669.169 371.789 664.407 371.789 658.534C371.789 652.66 366.998 647.899 361.088 647.899C355.178 647.899 350.387 652.66 350.387 658.534C350.387 664.407 355.178 669.169 361.088 669.169Z" fill="#FFF500"/>
<path d="M487.125 231.949C496.975 231.949 504.96 224.013 504.96 214.224C504.96 204.435 496.975 196.499 487.125 196.499C477.275 196.499 469.29 204.435 469.29 214.224C469.29 224.013 477.275 231.949 487.125 231.949Z" fill="#FFF500"/>
<path d="M487.121 397.384C493.031 397.384 497.822 392.622 497.822 386.749C497.822 380.875 493.031 376.114 487.121 376.114C481.211 376.114 476.42 380.875 476.42 386.749C476.42 392.622 481.211 397.384 487.121 397.384Z" fill="#FFF500"/>
<path d="M358.709 364.297C364.619 364.297 369.41 359.536 369.41 353.662C369.41 347.788 364.619 343.027 358.709 343.027C352.799 343.027 348.008 347.788 348.008 353.662C348.008 359.536 352.799 364.297 358.709 364.297Z" fill="#FFF500"/>
<path d="M613.156 369.024C619.066 369.024 623.857 364.263 623.857 358.389C623.857 352.515 619.066 347.754 613.156 347.754C607.246 347.754 602.455 352.515 602.455 358.389C602.455 364.263 607.246 369.024 613.156 369.024Z" fill="#FFF500"/>
<path d="M696.39 309.94C702.3 309.94 707.091 305.179 707.091 299.305C707.091 293.432 702.3 288.67 696.39 288.67C690.48 288.67 685.688 293.432 685.688 299.305C685.688 305.179 690.48 309.94 696.39 309.94Z" fill="#FFF500"/>
<path d="M696.39 338.3C718.06 338.3 735.627 320.842 735.627 299.305C735.627 277.769 718.06 260.31 696.39 260.31C674.72 260.31 657.152 277.769 657.152 299.305C657.152 320.842 674.72 338.3 696.39 338.3Z" stroke="#FFF500" stroke-width="2.21657"/>
<path d="M275.478 309.94C281.388 309.94 286.179 305.179 286.179 299.305C286.179 293.432 281.388 288.67 275.478 288.67C269.567 288.67 264.776 293.432 264.776 299.305C264.776 305.179 269.567 309.94 275.478 309.94Z" fill="#FFF500"/>
<path d="M276.721 85.116V222.511" stroke="white" stroke-width="2.21657"/>
<path d="M339.598 153.32H214.837" stroke="white" stroke-width="2.21657"/>
<path d="M305.927 180.665L251.09 126.165" stroke="white" stroke-width="2.21657"/>
<path d="M304.237 126.165L249.399 180.665" stroke="white" stroke-width="2.21657"/>
<path d="M640.014 37.5437V103.717" stroke="white" stroke-width="2.21657"/>
<path d="M669.68 71.0054H609.592" stroke="white" stroke-width="2.21657"/>
<path d="M653.027 83.996L626.616 57.7471" stroke="white" stroke-width="2.21657"/>
<path d="M653.083 57.7471L626.673 83.9963" stroke="white" stroke-width="2.21657"/>
<path d="M495.444 189.409V182.319H478.798V189.409H495.444Z" fill="#FFF500"/>
</svg>
