<svg fill="none" height="688" viewBox="0 0 828 688" width="828" xmlns="http://www.w3.org/2000/svg"><path d="m485.932 803.879c164.168 0 297.253-132.263 297.253-295.418s-133.085-295.418-297.253-295.418c-164.169 0-297.254 132.263-297.254 295.418s133.085 295.418 297.254 295.418z" stroke="#fff" stroke-width="4.43314"/><path d="m487.126 803.879c82.084 0 148.627-132.263 148.627-295.418s-66.543-295.418-148.627-295.418-148.627 132.263-148.627 295.418 66.543 295.418 148.627 295.418z" stroke="#fff" stroke-width="4.43314"/><path d="m698.73 299.877c-116.55 115.83-305.513 115.83-422.063 0" stroke="#fff" stroke-width="4.43314"/><path d="m276.667 718.189c116.55-115.83 305.513-115.83 422.063 0" stroke="#fff" stroke-width="4.43314"/><path d="m488.312 210.679v595.563" stroke="#fff" stroke-width="4.43314"/><path d="m785.568 510.824h-599.263" stroke="#fff" stroke-width="4.43314"/><path d="m566.14 456.64c-5.251-6.641-4.081-16.238 2.618-21.438 6.696-5.199 16.384-4.032 21.635 2.609l2.759 3.486c6.378 8.062 3.101 19.933-6.53 23.646-6.331 2.441-13.531.484-17.724-4.817z" fill="#0d06c1"/><path d="m613.986 443.984c9.108 5.226 12.228 16.799 6.97 25.851l-25.984 44.731c-6.083 10.467-19.55 14.052-30.085 8.009-11.395-6.539-14.515-21.488-6.675-31.993l30.96-41.483c5.764-7.721 16.436-9.922 24.814-5.115z" fill="#241ed3"/><path d="m419.614 536.313 8.166 12.112c9.603 14.251 26.221 22.211 43.419 20.802l119.296-9.765c8.057-.659 15.355-4.977 19.78-11.701l41.825-63.534c5.489-8.34 3.779-19.448-3.966-25.775-8.05-6.579-19.869-5.764-26.929 1.856l-51.872 55.973-64.809-2.12c-16.934-.553-32.291-10.018-40.319-24.846l-3.054-5.641z" fill="#403add"/><path d="m428.115 585.627c7.888 3.141 11.702 12.034 8.518 19.866-3.184 7.83-12.161 11.633-20.049 8.492l-4.143-1.647c-9.581-3.815-12.713-15.724-6.242-23.724 4.254-5.26 11.476-7.142 17.773-4.636z" fill="#0d06c1"/><path d="m393.049 620.361c-10.516 0-19.041-8.473-19.041-18.924v-51.648c0-12.089 9.859-21.887 22.02-21.887 13.163 0 23.384 11.396 21.879 24.39l-5.941 51.31c-1.108 9.55-9.243 16.759-18.917 16.759z" fill="#241ed3"/><path d="m522.793 423.381-18.012-9.043c-15.566-7.813-34.188-6.532-48.523 3.337l-98.118 67.543c-6.644 4.575-10.794 11.939-11.243 19.96l-4.257 75.807c-.559 9.95 6.511 18.72 16.402 20.353 10.282 1.695 20.106-4.882 22.389-14.991l16.76-74.249 57.192-30.369c14.943-7.936 33.004-7.371 47.418 1.482l5.481 3.368z" fill="#403add"/><path d="m554.467 637.074 57.496-28.442c10.142-5.018 12.006-18.614 3.586-26.16-4.053-3.633-9.681-4.978-14.951-3.569l-31.383 8.385c-24.95 6.67-51.556-1.375-68.561-20.724l-2.521-2.869c-13.048-14.849-.247-37.759 19.329-34.59l74.071 11.994c10.023 1.624 19.702-4.384 22.624-14.045 3.009-9.933-2.083-20.517-11.754-24.435l-160.907-65.209c-57.211-23.187-118.785-33.801-180.493-31.111l-78.67 3.426c-42.563 1.853-76.091 36.663-76.091 78.998 0 50.658 47.233 88.315 96.991 77.326l52.325-11.555c30.99-6.844 63.403-3.218 92.103 10.302l154.496 72.772c16.596 7.816 35.877 7.636 52.31-.494z" fill="#5f5ae0"/><path d="m639.119 481.493-121.777-60.79-41.216 14.374 43.021 44.634c13.779 14.296 4.861 38.034-14.962 39.834l-100.194 9.104c-9.847.896-17.742 8.442-19.017 18.174-1.408 10.751 5.662 20.817 16.318 23.23l214.957 48.675c31.274 7.083 63.244 10.656 95.307 10.656h57.384c40.726 0 73.7-32.732 73.7-73.162 0-46.801-43.579-81.701-89.635-71.779l-33.399 7.196c-27.191 5.859-55.601 2.276-80.487-10.146z" fill="#403add"/><path d="m591.52 541.062-145.171-23.807c-.533-.087-1.011-.368-1.344-.789-24.558-31.057 8.235-74.297 45.038-59.384l112.804 45.717c9.419 3.817 14.377 14.126 11.448 23.801l-.131.437c-2.928 9.666-12.618 15.669-22.644 14.025z" fill="#5f5ae0"/><path d="m608.403 673.896c8.536 0 15.457-6.878 15.457-15.362s-6.921-15.362-15.457-15.362c-8.537 0-15.458 6.878-15.458 15.362s6.921 15.362 15.458 15.362z" fill="#fff500"/><path d="m361.088 669.169c5.91 0 10.701-4.762 10.701-10.635 0-5.874-4.791-10.635-10.701-10.635s-10.701 4.761-10.701 10.635c0 5.873 4.791 10.635 10.701 10.635z" fill="#fff500"/><path d="m487.125 231.949c9.85 0 17.835-7.936 17.835-17.725s-7.985-17.725-17.835-17.725-17.835 7.936-17.835 17.725 7.985 17.725 17.835 17.725z" fill="#fff500"/><path d="m487.121 397.384c5.91 0 10.701-4.762 10.701-10.635 0-5.874-4.791-10.635-10.701-10.635s-10.701 4.761-10.701 10.635c0 5.873 4.791 10.635 10.701 10.635z" fill="#fff500"/><path d="m358.709 364.297c5.91 0 10.701-4.761 10.701-10.635s-4.791-10.635-10.701-10.635-10.701 4.761-10.701 10.635 4.791 10.635 10.701 10.635z" fill="#fff500"/><path d="m613.156 369.024c5.91 0 10.701-4.761 10.701-10.635s-4.791-10.635-10.701-10.635-10.701 4.761-10.701 10.635 4.791 10.635 10.701 10.635z" fill="#fff500"/><path d="m696.39 309.94c5.91 0 10.701-4.761 10.701-10.635 0-5.873-4.791-10.635-10.701-10.635s-10.702 4.762-10.702 10.635c0 5.874 4.792 10.635 10.702 10.635z" fill="#fff500"/><path d="m696.39 338.3c21.67 0 39.237-17.458 39.237-38.995 0-21.536-17.567-38.995-39.237-38.995s-39.238 17.459-39.238 38.995c0 21.537 17.568 38.995 39.238 38.995z" stroke="#fff500" stroke-width="2.21657"/><path d="m275.478 309.94c5.91 0 10.701-4.761 10.701-10.635 0-5.873-4.791-10.635-10.701-10.635-5.911 0-10.702 4.762-10.702 10.635 0 5.874 4.791 10.635 10.702 10.635z" fill="#fff500"/><g stroke="#fff"><path d="m276.721 85.116v137.395" stroke-width="2.21657"/><path d="m339.598 153.32h-124.761" stroke-width="2.21657"/><path d="m305.927 180.665-54.837-54.5" stroke-width="2.21657"/><path d="m304.237 126.165-54.838 54.5" stroke-width="2.21657"/><path d="m640.014 37.5437v66.1733" stroke-width="2.21657"/><path d="m669.68 71.0054h-60.088" stroke-width="2.21657"/><path d="m653.027 83.996-26.411-26.2489" stroke-width="2.21657"/><path d="m653.083 57.7471-26.41 26.2492" stroke-width="2.21657"/></g><path d="m495.444 189.409v-7.09h-16.646v7.09z" fill="#fff500"/></svg>