<svg fill="none" height="200" viewBox="0 0 240 200" width="240" xmlns="http://www.w3.org/2000/svg"><rect fill="#56ccf2" height="200" rx="12" width="240"/><path d="m109.194 26.1836h65.1079v82.207h-65.1079z" fill="#fff"/><path d="m115.772 32.7607h65.1079v82.207h-65.1079z" fill="#000"/><g stroke="#fff" stroke-linecap="round" stroke-linejoin="round" stroke-width="1.70639"><path d="m108.534 66.8281h-71.6271c-19.2819 0-34.91298 15.6311-34.91298 34.9129 0 19.282 15.63108 34.913 34.91298 34.913h18.686"/><path d="m100.308 57.751 9.113 9.1133-9.113 9.1133"/><path d="m181.711 66.7292c19.282 0 34.913 15.6311 34.913 34.9128 0 19.282-15.631 34.913-34.913 34.913h-71.628"/><path d="m118.31 145.632-9.113-9.113 9.113-9.113"/></g><path d="m42.3447 84.7153h65.1079v82.207h-65.1079z" fill="#fff500" transform="matrix(.96592583 .25881905 -.25881905 .96592583 23.368794 -8.073011)"/><path d="m63.3524 109.706v45.912" stroke="#f66" stroke-width=".853196"/><path d="m84.1992 132.529h-41.4323" stroke="#f66" stroke-width=".853196"/><path d="m0-.426598h25.7552" stroke="#f66" stroke-width=".853196" transform="matrix(-.707107 -.707106 .707107 -.707106 73.3003 141.355)"/><path d="m72.4828 123.445-18.2117 18.212" stroke="#f66" stroke-width=".853196"/><path d="m147.821 47.8633c.191-.9009 1.477-.9009 1.669 0l2.493 11.7225c.137.6423.917.896 1.405.4566l8.908-8.018c.685-.6163 1.725.1395 1.35.981l-4.873 10.9493c-.267.5999.216 1.264.869 1.1954l11.919-1.251c.916-.0961 1.313 1.1267.516 1.5874l-10.378 5.9938c-.569.3284-.569 1.1493 0 1.4777l10.378 5.9938c.797.4607.4 1.6835-.516 1.5874l-11.919-1.251c-.653-.0686-1.136.5955-.869 1.1954l4.873 10.9493c.375.8415-.665 1.5973-1.35.9811l-8.908-8.0181c-.488-.4394-1.268-.1857-1.405.4566l-2.493 11.7225c-.192.9009-1.478.9009-1.669 0l-2.494-11.7225c-.136-.6423-.917-.896-1.405-.4566l-8.908 8.0181c-.684.6162-1.724-.1396-1.35-.9811l4.873-10.9493c.267-.5999-.215-1.264-.868-1.1954l-11.92 1.251c-.916.0961-1.313-1.1267-.515-1.5874l10.378-5.9938c.568-.3284.568-1.1493 0-1.4777l-10.378-5.9938c-.798-.4607-.401-1.6835.515-1.5874l11.92 1.251c.653.0686 1.135-.5955.868-1.1954l-4.873-10.9493c-.374-.8415.666-1.5973 1.35-.9811l8.908 8.0181c.488.4394 1.269.1857 1.405-.4566z" fill="#fff500"/><circle cx="109.195" cy="66.959" fill="#fff500" r="5.26125"/><path d="m171.015 136.669s-8.539 8.55-19.072 8.55-19.072-8.55-19.072-8.55 8.539-8.549 19.072-8.549 19.072 8.549 19.072 8.549z" fill="#fff" stroke="#fff" stroke-linecap="round" stroke-linejoin="round" stroke-width="1.70639"/><circle cx="151.943" cy="136.669" fill="#00ba8d" r="7.23422"/><circle cx="151.943" cy="136.669" fill="#000" r="3.94594"/></svg>