<svg fill="none" height="480" viewBox="0 0 484 480" width="484" xmlns="http://www.w3.org/2000/svg" xmlns:xlink="http://www.w3.org/1999/xlink"><clipPath id="a"><path d="m0 0h483.179v480h-483.179z"/></clipPath><g clip-path="url(#a)"><path d="m483.179 0h-483.179v480h483.179z" fill="#56ccf2"/><path d="m244.576 417.004c89.899 0 162.777-72.339 162.777-161.574s-72.878-161.5743-162.777-161.5743-162.777 72.3393-162.777 161.5743 72.878 161.574 162.777 161.574z" fill="#56ccf2"/><path d="m244.575 403.936c82.628 0 149.611-66.489 149.611-148.506 0-82.018-66.983-148.506-149.611-148.506s-149.6111 66.488-149.6111 148.506c0 82.017 66.9831 148.506 149.6111 148.506z" stroke="#fff" stroke-width="2"/><path d="m245.176 403.936c41.314 0 74.805-66.489 74.805-148.506 0-82.018-33.491-148.506-74.805-148.506s-74.806 66.488-74.806 148.506c0 82.017 33.492 148.506 74.806 148.506z" stroke="#fff" stroke-width="2"/><path d="m351.679 150.575c-58.661 58.228-153.768 58.228-212.429 0" stroke="#fff" stroke-width="2"/><path d="m139.25 360.86c58.661-58.228 153.768-58.228 212.429 0" stroke="#fff" stroke-width="2"/><path d="m245.773 105.736v299.388" stroke="#fff" stroke-width="2"/><path d="m395.385 256.618h-301.6159" stroke="#fff" stroke-width="2"/><path d="m284.944 229.38c-2.643-3.339-2.054-8.163 1.318-10.777 3.37-2.614 8.246-2.027 10.889 1.312l1.388 1.752c3.21 4.052 1.561 10.02-3.286 11.886-3.186 1.228-6.811.244-8.921-2.421z" fill="#0d06c1"/><path d="m309.026 223.018c4.585 2.626 6.155 8.444 3.509 12.995l-13.079 22.486c-3.061 5.262-9.839 7.064-15.142 4.026-5.735-3.287-7.305-10.802-3.359-16.083l15.582-20.853c2.901-3.882 8.273-4.988 12.489-2.571z" fill="#241ed3"/><path d="m211.196 269.431 4.11 6.089c4.833 7.164 13.197 11.165 21.853 10.457l60.043-4.909c4.055-.331 7.728-2.502 9.956-5.882l21.051-31.938c2.762-4.193 1.902-9.777-1.997-12.957-4.051-3.308-10-2.898-13.553.933l-26.108 28.137-32.619-1.065c-8.523-.278-16.252-5.037-20.293-12.49l-1.537-2.836z" fill="#403add"/><path d="m215.475 294.221c3.97 1.579 5.89 6.05 4.288 9.987-1.603 3.936-6.121 5.847-10.091 4.268l-2.085-.828c-4.823-1.917-6.399-7.904-3.142-11.925 2.141-2.645 5.776-3.59 8.945-2.331z" fill="#0d06c1"/><path d="m197.825 311.682c-5.292 0-9.583-4.26-9.583-9.513v-25.964c0-6.076 4.962-11.002 11.083-11.002 6.625 0 11.769 5.729 11.012 12.261l-2.99 25.793c-.558 4.801-4.653 8.425-9.522 8.425z" fill="#241ed3"/><path d="m263.128 212.66-9.066-4.545c-7.835-3.928-17.207-3.284-24.422 1.677l-49.384 33.954c-3.344 2.3-5.433 6.002-5.659 10.034l-2.142 38.108c-.281 5.001 3.277 9.41 8.255 10.231 5.175.852 10.119-2.454 11.268-7.536l8.436-37.325 28.785-15.266c7.522-3.989 16.612-3.705 23.866.745l2.759 1.693z" fill="#403add"/><path d="m279.069 320.083 28.939-14.298c5.104-2.522 6.043-9.357 1.805-13.15-2.04-1.826-4.873-2.502-7.525-1.794l-15.796 4.215c-12.557 3.353-25.948-.691-34.507-10.418l-1.269-1.442c-6.567-7.465-.124-18.982 9.729-17.388l37.28 6.029c5.045.816 9.916-2.204 11.387-7.061 1.515-4.993-1.048-10.313-5.916-12.283l-80.986-32.78c-28.795-11.656-59.786-16.992-90.844-15.64l-39.5957 1.723c-21.4223.931-38.2973 18.43-38.2973 39.711 0 25.466 23.7726 44.397 48.817 38.872l26.335-5.808c15.598-3.441 31.912-1.618 46.357 5.178l77.759 36.583c8.353 3.929 18.058 3.838 26.328-.249z" fill="#5f5ae0"/><path d="m321.676 241.873-61.291-30.559-20.745 7.226 21.653 22.437c6.935 7.187 2.446 19.12-7.531 20.025l-50.428 4.576c-4.957.451-8.93 4.244-9.572 9.136-.708 5.405 2.85 10.465 8.213 11.678l108.191 24.469c15.74 3.56 31.831 5.357 47.969 5.357h28.882c20.498 0 37.094-16.455 37.094-36.779 0-23.527-21.934-41.071-45.115-36.083l-16.81 3.618c-13.685 2.945-27.984 1.144-40.51-5.101z" fill="#403add"/><path d="m297.719 271.818-73.066-11.967c-.268-.044-.509-.186-.677-.397-12.36-15.612 4.145-37.349 22.668-29.852l56.776 22.982c4.741 1.918 7.236 7.1 5.762 11.964l-.066.22c-1.474 4.859-6.351 7.877-11.397 7.05z" fill="#5f5ae0"/><g fill="#fff500"><path d="m245.174 387.303c8.263 0 14.961-6.649 14.961-14.85 0-8.202-6.698-14.851-14.961-14.851-8.262 0-14.961 6.649-14.961 14.851 0 8.201 6.699 14.85 14.961 14.85z"/><path d="m306.216 338.593c4.297 0 7.78-3.457 7.78-7.722s-3.483-7.722-7.78-7.722-7.78 3.457-7.78 7.722 3.483 7.722 7.78 7.722z"/><path d="m217.048 364.73c5.288 0 9.575-4.255 9.575-9.504s-4.287-9.504-9.575-9.504-9.575 4.255-9.575 9.504 4.287 9.504 9.575 9.504z"/><path d="m219.442 381.363c1.983 0 3.59-1.596 3.59-3.564s-1.607-3.564-3.59-3.564-3.591 1.596-3.591 3.564 1.608 3.564 3.591 3.564z"/><path d="m138.651 365.918c2.975 0 5.386-2.393 5.386-5.346 0-2.952-2.411-5.346-5.386-5.346-2.974 0-5.386 2.394-5.386 5.346 0 2.953 2.412 5.346 5.386 5.346z"/><path d="m181.74 336.217c2.975 0 5.386-2.393 5.386-5.346s-2.411-5.346-5.386-5.346-5.386 2.393-5.386 5.346 2.411 5.346 5.386 5.346z"/><path d="m351.697 365.918c2.975 0 5.386-2.393 5.386-5.346 0-2.952-2.411-5.346-5.386-5.346-2.974 0-5.386 2.394-5.386 5.346 0 2.953 2.412 5.346 5.386 5.346z"/><path d="m245.174 409.876c2.974 0 5.386-2.394 5.386-5.346 0-2.953-2.412-5.346-5.386-5.346-2.975 0-5.386 2.393-5.386 5.346 0 2.952 2.411 5.346 5.386 5.346z"/><path d="m187.724 357.602c2.974 0 5.386-2.394 5.386-5.346 0-2.953-2.412-5.346-5.386-5.346-2.975 0-5.386 2.393-5.386 5.346 0 2.952 2.411 5.346 5.386 5.346z"/><path d="m245.175 116.429c4.958 0 8.977-3.99 8.977-8.911s-4.019-8.9102-8.977-8.9102c-4.957 0-8.976 3.9892-8.976 8.9102s4.019 8.911 8.976 8.911z"/><path d="m245.174 199.592c2.974 0 5.386-2.394 5.386-5.346 0-2.953-2.412-5.347-5.386-5.347-2.975 0-5.386 2.394-5.386 5.347 0 2.952 2.411 5.346 5.386 5.346z"/><path d="m180.543 182.959c2.974 0 5.386-2.393 5.386-5.346s-2.412-5.346-5.386-5.346c-2.975 0-5.386 2.393-5.386 5.346s2.411 5.346 5.386 5.346z"/><path d="m308.609 185.335c2.974 0 5.386-2.393 5.386-5.346s-2.412-5.346-5.386-5.346c-2.975 0-5.386 2.393-5.386 5.346s2.411 5.346 5.386 5.346z"/><path d="m350.5 155.634c2.975 0 5.386-2.393 5.386-5.346s-2.411-5.346-5.386-5.346c-2.974 0-5.386 2.393-5.386 5.346s2.412 5.346 5.386 5.346z"/></g><path d="m350.501 169.891c10.907 0 19.748-8.777 19.748-19.603s-8.841-19.603-19.748-19.603-19.749 8.777-19.749 19.603 8.842 19.603 19.749 19.603z" stroke="#fff500"/><path d="m138.651 155.634c2.975 0 5.386-2.393 5.386-5.346s-2.411-5.346-5.386-5.346c-2.974 0-5.386 2.393-5.386 5.346s2.412 5.346 5.386 5.346z" fill="#fff500"/><path d="m139.277 42.616v69.068" stroke="#fff"/><path d="m170.924 76.9016h-62.794" stroke="#fff"/><path d="m153.976 90.6481-27.6-27.3971" stroke="#fff"/><path d="m153.125 63.2509-27.6 27.3972" stroke="#fff"/><path d="m322.126 18.7013v33.2653" stroke="#fff"/><path d="m337.058 35.5224h-30.243" stroke="#fff"/><path d="m328.676 42.0528-13.293-13.1953" stroke="#fff"/><path d="m328.704 28.8574-13.293 13.1954" stroke="#fff"/><path d="m249.363 418.192v-3.564h-8.378v3.564z" fill="#fff500"/><path d="m249.363 95.0437v-3.5641h-8.378v3.5641z" fill="#fff500"/><path d="m231.409 79.5991c10.577 0 19.151-8.5105 19.151-19.0087 0-10.4983-8.574-19.0088-19.151-19.0088-10.576 0-19.15 8.5105-19.15 19.0088 0 10.4982 8.574 19.0087 19.15 19.0087z" fill="#403add"/><path d="m258.939 79.5991c10.576 0 19.15-8.5105 19.15-19.0087 0-10.4983-8.574-19.0088-19.15-19.0088-10.577 0-19.15 8.5105-19.15 19.0088 0 10.4982 8.573 19.0087 19.15 19.0087z" fill="#5b57ca"/><path clip-rule="evenodd" d="m245.175 73.8065c3.334-3.4206 5.386-8.0806 5.386-13.2161 0-5.1356-2.052-9.7956-5.386-13.2162-3.335 3.4206-5.386 8.0806-5.386 13.2162 0 5.1355 2.051 9.7955 5.386 13.2161z" fill="#fff500" fill-rule="evenodd"/></g></svg>