<svg fill="none" height="80" viewBox="0 0 80 80" width="80" xmlns="http://www.w3.org/2000/svg" xmlns:xlink="http://www.w3.org/1999/xlink"><clipPath id="a"><rect height="80" rx="40" width="80"/></clipPath><g clip-path="url(#a)"><path d="m96.25-20h-112.5v112.5h112.5z" fill="#fff"/><path d="m63.4283-20h-46.8844v82.0406h46.8844z" fill="#154373"/><path d="m40.8164 40.7504h-.8156v-2.25h.8156zm3.6844-9.9563h-.8156v-2.25h.8156zm-15.1031-3.9093c-.0563 0-.4782 0-.4782.0843 0 .0844.1969.0563.4782.0844.6468.1125.9.45 1.35.45.4218 0 .8437-.2812.675-.8719-.0282-.0843-.0844-.0843-.0844 0-.0563.2532-.3938.4219-.7594.4219-.4219-.0281-.5062-.1687-1.1812-.1687zm-4.4719 2.25c.0844.0843.8437 1.0968-.3375 1.4906-.0563.0281-.0844.0562 0 .1125.8719.3656 1.2937-.3094 1.2937-.3094.45 1.0125-.225 1.5469-.225 1.5469.0844.1687.5063.4781 1.1532.6187.225-.1406.5625-.3656.7031-.7593 0 0 .1687.45 0 .8437 1.7719.1688 2.4187-1.2656 3.7969-1.0125.0562 0 .0562-.0281.0562-.0562 0-.8719-.5344-2.475-2.25-2.8125-1.6875-.3375-1.2375-1.0125-1.2375-1.0125.7031-.0282 1.125.2812 1.125.2812.1406-.225-.0562-.45-.0562-.45.0562-.0844.1125-.3656.1125-.3656-.7875 0-1.0125-.1688-1.0125-.1688-.1407-.4781.225-1.1531 1.4062-.4218.3094-.2532.2813-.675.2813-.675.0843-.0563.1406-.1688.1406-.2532 0-.1968-.9563-.7312-1.2094-.7875-.0562-.2812-.4219-.7031-1.5469-.5625-.5343.0563-.9281-.0843-.7312-.3937.0281-.0563-.0563-.0563-.1125 0-.1406.1406-.2813.4781.1687.7031.5063.2531.5344.7875.5625.8438 0 .1125-.1406.1125-.1406 0-.225-.8719-1.4344-1.0688-2.1375-.5907.0563.4782.5344.7875.8156.7875.1688 0 .3657-.1687.3657-.3656 0-.1125.0562-.0844.0843 0 .1125.3094-.3375.9563-1.0125.5625-.7031.7031-.4218 1.5469-.3656 1.8563.1406.5625-.1406 1.125-.6469.8718-.0281 0-.0562-.0281-.0562.0563 0 .3375.45.7312 1.0125.4219zm3.7969-3.4875c-.3094.3656-.8438.2812-.9844-.3094.675-.0281.9562.0281.9844.3094zm20.6718 1.3781c-.3656 0-.675-.1406-.7594-.4219 0-.0562-.0843-.0844-.0843 0-.1688.5906.2531.8719.675.8719.45 0 .7031-.3375 1.35-.45.2812-.0563.4781 0 .4781-.0844s-.4219-.0844-.4781-.0844c-.6469.0282-.7313.1688-1.1813.1688zm6.6938 1.6594c0-.0563-.0281-.0563-.0563-.0563-.5062.2531-.7875-.3094-.6469-.8719.0844-.3093.3657-1.1812-.3656-1.8562-.675.3937-1.1531-.2531-1.0125-.5625.0281-.0844.0844-.0844.0844 0 0 .225.225.3656.3656.3656.2813 0 .7875-.3094.8156-.7875-.7031-.45-1.8843-.2812-2.1375.5906-.0281.1125-.1687.0844-.1406 0 0-.0843.0281-.5906.5625-.8437.4781-.225.3094-.5625.1688-.7031-.0563-.0563-.1407-.0563-.1125 0 .1687.3093-.1969.45-.7313.3937-1.125-.1406-1.4906.2531-1.5469.5625-.2531.0563-1.2093.5906-1.2093.7875 0 .0563.0562.1969.1406.2531 0 0-.0281.3938.2812.675 1.1813-.7312 1.5188-.0562 1.4063.4219 0 0-.225.1688-1.0125.1688 0 0 .0563.2812.1125.3656 0 0-.1687.225-.0562.45 0 0 .4218-.3094 1.125-.2813 0 0 .4499.7032-1.2376 1.0125-1.6875.3094-2.25 1.9407-2.25 2.8125 0 .0563.0282.0563.0563.0563 1.3781-.2531 1.9969 1.1812 3.7969 1.0125-.1688-.4219 0-.8438 0-.8438.1406.3657.4781.6188.7031.7594.6187-.1406 1.0406-.45 1.1531-.6187 0 0-.675-.5625-.225-1.5469 0 0 .4219.675 1.2938.3094.0844-.0282.0562-.0844 0-.1125-1.1813-.3938-.4219-1.3782-.3375-1.4907.5625.3375 1.0125-.0562 1.0125-.4218zm-3.8532-3.3469c-.1406.5906-.6468.675-.9843.3094.0562-.2813.3375-.3375.9843-.3094zm-12.5437-10.0125c0 .1406.0563.2812.1125.3656.1125.1406.0844.225.0563.2813-.0563.0562-.1407.0562-.2813-.0563-.0844-.0562-.1969-.1125-.3656-.1125-.2531 0-.3938.1688-.3938.3094s.1407.3094.3938.3094c.1406 0 .2812-.0563.3656-.1125.1406-.1125.225-.0844.2813-.0563.0562.0563-.0282.5625-.0844.9563-.4219.0843-.6188.4218-.6188.6187 0 .5063.5344.8156.8719.9844.3094-.1688.8719-.4781.8719-.9844 0-.1969-.1969-.5344-.6188-.6187-.0562-.3938-.1406-.9282-.0843-.9563.0562-.0562.1406-.0562.2812.0563.0844.0562.1969.1125.3656.1125.2532 0 .3938-.1688.3938-.3094s-.1406-.3094-.3938-.3094c-.1406 0-.2812.0563-.3656.1125-.1406.1125-.225.0844-.2812.0563-.0563-.0563-.0563-.1407.0562-.2813.0563-.0844.1125-.1969.1125-.3656 0-.2531-.1687-.3938-.3094-.3938-.1968 0-.3656.1407-.3656.3938zm.3094 3.7969c-.3375 0-.6188.2812-.6188.6187s.2813.6188.6188.6188.6187-.2813.6187-.6188-.2812-.6187-.6187-.6187zm0 6.0187c2.5031 0 3.9093.4781 3.9093.4781 0-1.2656.0001-1.9687.7313-1.8562-.3937-1.0688 1.3219-1.4906 1.3219-2.8688 0-.9-.6469-1.0125-.8438-1.0125-.5625 0-.4781.3657-.9562.3657-.0563 0-.1125 0-.1125.0281 0 .1687.1406.4219.3656.4219.3094 0 .3094-.3094.5344-.3094.0844 0 .225.0844.225.3937 0 .5907-.3938 1.2375-.8438 1.7438-.1125-.1406-.2531-.225-.4219-.225-.2531 0-.5062.2812-.5062.6187 0 .1407.0281.225.0563.3375-.1407.0844-.2813.1407-.3938.1407-.1969 0-.5062-.0844-.5062-.5344 0-1.0125 1.3499-1.8844 1.3499-3.15 0-.6188-.3937-1.2094-1.2374-1.2094-.9 0-.7313.8438-1.5188.8438-.0281 0-.0562 0-.0562.0562 0 .0563.1406.5063.5343.5063.45 0 .5625-.7594.9282-.7594.1406 0 .3656.0844.3656.5906 0 .3938-.1969 1.0406-.4781 1.6594-.1126-.1125-.2532-.1688-.3938-.1688-.3375 0-.5625.3375-.5625.7032 0 .2531.0844.4781.2531.6468-.1968.2532-.3937.45-.675.45-.5343 0-.7875-.3093-.7875-.6468 0-.3657.6469-.4782.6469-1.0688 0-.3937-.2531-.6187-.4781-.6187-.2531 0-.3938.1687-.4219.1687s-.1687-.1687-.4219-.1687c-.2531 0-.4781.225-.4781.6187 0 .5625.6469.7031.6469 1.0688 0 .3375-.225.6468-.7875.6468-.2813 0-.4781-.1968-.675-.45.1687-.1687.2531-.3937.2531-.6468 0-.3938-.2531-.7032-.5625-.7032-.1688 0-.3094.0844-.3937.1688-.2813-.6188-.4782-1.2656-.4782-1.6594 0-.5062.225-.5906.3657-.5906.3937 0 .5062.7594.9281.7594.3937 0 .5344-.45.5344-.5063 0-.0281-.0282-.0562-.0563-.0562-.7875 0-.6187-.8438-1.5187-.8438-.8438 0-1.2375.6188-1.2375 1.2094 0 1.2656 1.35 2.1656 1.35 3.15 0 .45-.3094.5344-.5063.5344-.1125 0-.225-.0563-.3937-.1407.0562-.1125.0562-.1968.0562-.3375 0-.3656-.225-.6187-.5062-.6187-.1688 0-.3094.0844-.4219.225-.45-.5063-.8438-1.1531-.8438-1.7438 0-.3093.1407-.3937.225-.3937.225 0 .225.3094.5344.3094.225 0 .3656-.2813.3656-.4219 0-.0563-.0562-.0281-.1125-.0281-.4781 0-.3937-.3657-.9562-.3657-.1969 0-.8438.1125-.8438 1.0125 0 1.3782 1.7157 1.8 1.3219 2.8688.7313-.1125.7031.5906.7313 1.8562-.0563 0 1.35-.4781 3.8531-.4781zm-4.5844 1.8563c-.675.1406-1.1812.2812-1.3781.3656 0-.3094.1406-.5625.3937-.6469.0282 0 .0563-.0562 0-.0844-.6187-.3937-.9281.3657-.9281.3938-.225-.0281-.5344.0562-.5344.3375 0 .8719-1.9687 1.35-2.4468 1.4062.8156.3094 1.1531 1.3219 1.1531 1.3219.5906-.5906 1.2656-1.0969 1.4344-1.0969.1687 0 .225.1969.225.3094 0 .0563.0562.0563.0562.0281.3094-.45.1688-.5625.1406-.7031-.0281-.1125 0-.5062.45-.45v5.7938l-.225.0562c-.1125.0281-.9562-.7031-1.9406-1.3781-.9562-.675-1.4906-.2531-2.5875.3375-1.4625.7875-2.8969.0844-2.8969.0844-1.2375.9-1.6593 3.4875-1.6593 3.4875-.2532.1125-.6469.225-1.0688.225-.9562 0-1.125-.5625-1.125-.9282 0-1.4625 1.8563-2.1093 1.8563-3.5437 0-.3656-.1688-1.7719-1.9407-1.7719-.225 0-1.575 0-1.575 0-.6468 0-.8437-.4781-.9281-.6469-.0281-.0562-.0844-.0281-.0844.0282.0563.1125-.0843.3093-.0843.675 0 .5906.3375.9281.9843.9281.3094 0 .5625-.0844.6469-.1406.0563-.0282.0844.0281.0563.0562-.2813.3375-.3094.9281-.1969 1.0969.0281.0281.0562.0281.0562 0 .1688-.6188.7313-1.2094 1.5188-1.2094.9562 0 .9562.8156.9562 1.0125 0 1.1813-2.0812 2.0531-2.0812 3.6563 0 1.6593 1.7437 1.9968 2.7562 1.7437-.0562 1.6594-1.9406 2.1938-1.9968 1.0406 0-.0562-.0563-.0843-.0844 0-.225.5907-.1406 1.0969.5906 1.2657.0563 0 .0281.0562-.0281.0843-.7031.4782-.3094 2.3063-.2813 2.8407.0563.7593-.7031.675-.7875.6468-.0281 0-.0562 0 0 .0563.5344.6469 1.2094.0562 1.2094.0562.5063.1688.1969.5907-.1406.8157-.0563.0281-.0563.0843 0 .0843.0844 0 .8719.0844 1.0125-.5625.3656.4219.8719.2532.9562.225.1407-.0843.8719-.3375.9563.4782 0 .0562.0562.0281.0562 0 .5625-.7032-.0562-1.125-.3656-1.1813.0281-.0562.4781-.3937.8719.1125.0281.0281.0562.0563.0562-.0281.0563-.8719-.675-.9563-1.1531-.5906-.0281-.0844-.1687-.5907.5344-.5625.0281 0 .0562-.0282 0-.0563-.5344-.5625-1.0125-.0562-1.0969.0844-.2531.2812-.8437.1687-.9.1687.1969-3.0656 2.8969-1.9968 3.2625-3.4875.0281-.0843.0563-.0562.0563-.0281.1125.3656 1.0125.4219 1.1812-.3094 0-.0562 0-.0843-.0281-.0562-.7875.7875-2.5594-1.6594-.1406-3.6563 2.0531-1.6875 3.9093-.7593 4.6125-.1968.0281.2531-.1125.3375-.1969.3656-.0281 0-.0563.0562 0 .0562.1969.0844.4781.0563.6187-.1406.45.3094.0563.7031-.1125.8156-.0562.0282-.0281.0563 0 .0563.3938.0844.7313-.3375.7594-.5625l.0563.0562v1.7438c0 2.5031 2.8687 2.8406 6.0187 4.95 3.15-2.1094 6.0188-2.475 6.0188-4.95v-1.7438l.0562-.0562c.0281.225.3656.6469.7594.5625.0562 0 .0562-.0281 0-.0563-.1688-.1125-.5625-.5062-.1125-.8156.1406.1688.3937.1969.6187.1406.0563-.0281.0563-.0562 0-.0562-.0843-.0281-.2531-.1125-.1968-.3656.7031-.5625 2.5593-1.4907 4.6124.1968 2.4188 1.9969.6469 4.4438-.1406 3.6563-.0281-.0281-.0562 0-.0281.0562.1687.7313 1.0969.675 1.1813.3094 0-.0281.0562-.0562.0562.0281.3656 1.4907 3.0937.3938 3.2625 3.4875-.0563 0-.6469.1125-.9-.1687-.1125-.1406-.5625-.6469-1.0969-.0844-.0281.0281 0 .0563 0 .0563.7031-.0282.5625.4781.5344.5625-.4781-.3938-1.1813-.3094-1.1531.5906 0 .0844.0281.0562.0562.0281.3938-.5062.8438-.1406.8719-.1125-.3375.0563-.9281.4781-.3656 1.1813.0281.0281.0562.0843.0562 0 .0844-.8438.8156-.5625.9563-.4782.1125.0563.6187.1969.9562-.225.1407.6188.9282.5625 1.0125.5625.0563 0 .0563-.0562 0-.0843-.3375-.225-.6468-.6469-.1406-.8157 0 0 .675.6188 1.2094-.0562.0562-.0563.0281-.0844 0-.0563-.0563.0282-.8438.1125-.7875-.6468.0281-.5344.4219-2.3625-.3094-2.8125-.0562-.0282-.0844-.0563-.0281-.0844.7312-.1688.8437-.675.5906-1.2656-.0281-.0844-.0844-.0563-.0844 0-.0562 1.1812-1.9406.6187-1.9969-1.0407 1.0125.2532 2.7563-.0843 2.7563-1.7437 0-1.6313-2.0812-2.5031-2.0812-3.6563 0-.1968 0-1.0125.9562-1.0125.7875 0 1.35.5907 1.5187 1.2094 0 .0281.0563.0563.0563 0 .1125-.1406.0844-.7594-.1969-1.0969-.0281-.0281 0-.0843.0563-.0562.0844.0562.3656.1406.6468.1406.6469 0 .9844-.3656.9844-.9281 0-.3656-.1406-.5625-.0843-.675.0281-.0563-.0563-.0844-.0844-.0281-.0844.1687-.2532.6468-.9282.6468 0 0-1.35 0-1.575 0-1.7718 0-1.9406 1.4344-1.9406 1.7719 0 1.4625 1.8563 2.0813 1.8563 3.5438 0 .3375-.1688.9281-1.125.9281-.3938 0-.7875-.1125-1.0688-.225 0 0-.4219-2.5875-1.6594-3.4875 0 0-1.4624.7031-2.8968-.0844-1.0969-.5906-1.6313-1.0125-2.5875-.3375-.9563.675-1.8281 1.4063-1.9125 1.3781l-.225-.0562v-5.7938c.45-.0562.4781.3657.45.45-.0282.1407-.1688.2532.1406.7032.0281.0281.0563.0281.0563-.0282 0-.1125.0843-.3093.2249-.3093.1407 0 .8438.5343 1.4344 1.0968 0 0 .3375-1.0125 1.1532-1.3218-.45-.0844-2.4469-.5625-2.4469-1.4063 0-.2812-.3375-.3656-.5344-.3375 0-.0281-.3375-.7875-.9281-.3937-.0281.0281-.0281.0562 0 .0843.2531.0563.3937.3375.3937.6469-.5625-.1687-3.0375-.8719-5.9625-.8719-1.4062 0-2.7281.1688-3.7687.3657v2.025h-.7875v-1.9125zm-5.4 20.5875c-.225-.0844-.3656-.225-.3656-.5063v-1.2656c-.3656-.1406-1.3219-.5063-3.2906-.5063-1.6313 0-2.1375.3657-2.1657.4782l-.4218 2.3625s.6468-.5907 3.0093-.45c2.8407.1687 5.7657 1.8562 5.7657.0843v-1.0406c-2.1938.0281-2.5313.7313-2.5313.8438zm17.4094-.8157v1.0407c0 1.7718 2.925.1125 5.7656-.0844 2.3344-.1406 3.0094.45 3.0094.45l-.4219-2.3625c-.0281-.1406-.5344-.4781-2.1656-.4781-1.9407 0-2.925.3656-3.2907.5062v1.2375c0 .2813-.1406.4219-.3656.5063.0281-.1125-.3094-.8157-2.5312-.8157zm-7.425-1.0687c4.5562 0 9.1969.225 9.7875.9281.0562.0563.0562 0 .0562-.0562v-2.4188c0-.7031-4.7812-1.125-9.8437-1.125s-9.8438.3938-9.8438 1.125v2.4188c0 .0562.0282.0843.0563.0562.5906-.7031 5.2312-.9281 9.7875-.9281zm-4.05-11.3906-.45-.1125-.0563.0562-.5343-.225h.4781c.0562 0 .0562-.0281.0281-.0562-.225-.225-.3937-.3938-.3937-.3938s.225.0844.5343.1969c.0282 0 .0563 0 .0282-.0281-.1407-.225-.3657-.5063-.3657-.5063s.4219.2813.5344.3656c.0281.0282.0563 0 .0563-.0281-.1125-.2812-.2532-.6187-.2532-.6187l.4782.45c.0281.0281.0562 0 .0562-.0282-.0562-.225-.1406-.6187-.1406-.6187l.3656.5062c.0281.0282.0563.0282.0563 0 0-.0843 0-.5625 0-.5625s.1406.3375.225.5063c0 .0281.0562.0281.0562 0 .0281-.0563.1688-.4219.1688-.4219l.0281.5625h-.0844l-.0844.7031c.7032-.1687 1.5469-1.35 2.1938-1.35.7875 0 1.0687.9282 2.5031.45.3656.5344.4781 1.0125.6188 1.6594.5625.5344 1.3499.3656 1.3499-.1969 0-.7593-.8156-.9-.8156-1.6593 0-.3657.2532-.8438.9282-.8438.3656 0 .8718.1406 1.1812.1406.3656 0 .4219-.2531.4781-.3656.0281-.0844.1407-.0562.1125 0 0 .0844.0563.1688.0563.3375 0 .4781-.7313.5625-.8157.5063-.0281-.0282-.0562 0-.0281.0281.1125.0844.0844.3937-.0562.5625 0 .0281-.0282.0281-.0563 0-.0844-.3656-.4781-.7875-.8718-.7875-.1407 0-.3938.0844-.3938.3937 0 .45.9.8438.9 1.7719 0 .9563-.9562 1.1813-1.9125.9563.0281.9 1.3781 1.4625 1.4063.7875 0-.0563.0281-.0282.0562 0 .1969.2812.1125.4781-.1406.5906.225.1125.2812.5906.3656.8719.1125.4218.5625.1968.5625.1687.0281 0 .0281 0 .0281.0281-.1687.45-.6187.2813-.6187.2813-.225.1687.0562.3094.2531.3937.0281 0 .0281.0282 0 .0563-.1687.0562-.5062.1687-.6469-.1125-.1125.3094-.3656.2812-.4781.2812-.1687 0-.2812.1688-.2531.4219 0 .0281 0 .0281-.0281 0-.4219-.2812-.1688-.5906 0-.675-.0282-.0281-.3094-.1406-.45.1969 0 .0281-.0282.0281-.0282 0-.1687-.4781.225-.6188.5063-.5063-.0281-.0562-.1688-.3093-.5344-.225-.0281 0-.0281 0-.0281-.0281.0562-.1406.2531-.3656.5906-.1406.1688.1125.4781-.0563.5063-.0563-.6188-1.2093-1.7719-.1968-2.0532-1.1531 0-.0281-.0281-.0281-.0562 0-.0563.1969-.5625.225-.675-.1687 0-.0282 0-.0282.0281 0 .0844.0843.225.1406.45-.1688.1406-.1969.1688-.4781.1688-.6469 0-.7312-.7313-1.9687-1.8844-1.9687-.7313 0-1.4907.2812-2.0813.7031l.5344.1406c-.0562.5344-.5625.8719-1.0687.7313l.0843-.6188c-.0843.0282-.3093.0844-.3937.2532h-.0281c-.0844-.3657.1968-.5344.2812-.5625-.2531 0-.3937.1687-.45.2531h-.0281c-.0844-.1688-.1406-.3656 0-.4781zm1.575 4.1906c-.1969.2531-.3938 0-.6469 0s-.3094.225-.3094.3094c0 0 0 .0281-.0281 0-.2812-.3938.0281-.6188.225-.6469-.0281-.0281-.3094-.225-.4781.0562 0 .0282-.0281 0-.0281 0 0-.4781.3656-.5343.6187-.3093.0563-.1688-.0844-.3094-.2812-.3094-.0282 0-.0282-.0281-.0282-.0281.0844-.0844.1688-.1407.2532-.1407.2531 0 .3093.3375.4781.3375.2531 0 .6469-.3656.675-.3937 0-.0281-.2531-.7031-.225-1.125 0-.0281 0-.0281-.0281 0-.1407.0844-.45.0844-.45-.3375 0-.0281-.0001-.0281.0281 0 .1406.1969.3656-.0281.4781-.1688.1406-.1406.7875-1.0968 1.6875-1.0968.1969 0 .45.1125.6469.2531-.3094.3656 0 .7312.225.7031.0281 0 .0281.0281 0 .0281-1.1813.45-1.7156.6188-1.7156 1.6032 0 .5062.1687.7875.4781.7312.0281 0 .0281 0 0 .0281-.1125.1407-.225.1688-.3375.1688-.2531 0-.2813-.1406-.4219-.1406s-.5625.2531-.5625.4781c0 .0844.0563.1969.1969.3094v.0281c-.0281-.0281-.3656-.0281-.45-.3375zm3.1219-9.6188c-.3657-.0281-.6188.0563-.5907.1688.1688.225.3938.1969.5907-.1688zm-1.3782.9282c.2531-.0563.5344-.0282.5625-.0282.0563 0 .0563.0844 0 .0844-.5344.0844-.5625.3094-.9281.3094-.225 0-.4781-.225-.3937-.5625 0-.0563.0562-.0563.0562 0 .0844.1406.2813.3094.7031.1969zm-7.0593 12.0375c.3656.45.7031.0281 1.1812.0281.225 0 .5063.0844.5625.5344 0 .0281.0281.0281.0563 0 .5062-.7032-.0844-1.0969-.3938-1.1532.0844-.0562.5625-.3656.9.0844.0281.0281.0563.0281.0563-.0281 0-.8719-.675-.9563-1.1532-.5625-.0843-.3656.1688-.5625.5063-.5625.0562 0 .0562-.0281.0281-.0563-.5906-.6468-1.0406.1688-1.1531.2813-.225.3094-1.0969-.2813-1.4344-.6188 0 0 .7594-.7875.7594-1.5187 0-.0563 0-.1125 0-.1406 0-.0282 0-.0282.0281-.0282.0844.0563.1688.0844.2813.0844.1687 0 .5062-.0562.5062-.6469 0-.0562-.0281-.0562-.0562-.0281-.0844.1406-.1969.1688-.2532.1688-.6187 0-1.8843-2.025-3.375-2.025-.3937 0-1.125.2812-1.4906.675.1688.1125.225.3375.1969.4781-.0281.2531-.225.3937-.45.45-.0281 0-.0563.0281 0 .0562.7594.2813 2.1375.8157 2.4469 1.0688.3656.3094.3093.9281.0843 1.7719-.1968.7875-.6468.7031-.8156.6468-.0281 0-.0281 0-.0281.0282.1969.2531.45.3375.6469.3375.3937 0 .5343-.2532.7593-.2532.3375 0 1.0688.4782 1.0688.8719 0 .225-.1688.3938-.3656.5344v.0281c.1125.0281.7875.0844.9-.5062zm16.5375.5343c.0281 0 .0281-.0281 0-.0281-.225-.1406-.3657-.3375-.3657-.5344 0-.3656.7032-.8718 1.0688-.8718.1969 0 .3656.2531.7593.2531.1969 0 .4501-.0844.6469-.3375 0-.0281 0-.0281-.0281-.0281-.1688.0281-.6187.1406-.8156-.6469-.225-.8438-.2813-1.4344.0843-1.7719.3094-.2531 1.6876-.7875 2.4469-1.0687.0563-.0282.0282-.0563 0-.0563-.225-.0562-.4218-.1687-.45-.45-.0281-.1687 0-.3937.1969-.4781-.3656-.3938-1.0969-.675-1.4906-.675-1.4907 0-2.7563 2.025-3.375 2.025-.0844 0-.1688-.0281-.2532-.1688-.0281-.0281-.0562-.0281-.0562.0282 0 .6187.3094.6468.5063.6468.0843 0 .1968-.0281.2812-.0843.0281 0 .0281 0 .0281.0281v.1406c0 .7313.7594 1.5188.7594 1.5188-.3375.3656-1.1812.9562-1.4344.6187-.1125-.1406-.5344-.9281-1.1531-.2812-.0281.0281 0 .0562.0281.0562.3375 0 .5907.225.5063.5625-.4781-.3937-1.1531-.3094-1.1531.5625 0 .0281.0281.0563.0562.0281.3094-.45.8156-.1406.9-.0843-.3375.0562-.9281.45-.3938 1.1531.0282.0281.0563.0281.0563 0 .0562-.45.3375-.5344.5625-.5344.4781 0 .8156.45 1.1812-.0281.0563.5625.7313.5062.9001.5062zm-12.0938-11.7c-.0562.0563-.1969 0-.2531-.0281-.0281 0 0 0 0 0 .0562.0844.1969.3375.4219.3375.1125 0 .2531-.0562.2812-.1406 0 0 .8719.2812 1.3219.3937-.1688.225-.2813.5063-.3094.7875-.3656-.225-1.7719-.9562-1.7719-.9562l-.45.5906c-.0843.0844-.4218-.1687-.3656-.2531l.3375-.45c-.1125-.1125-.3656-.0563-.45-.0281 0 0-.0281 0 0-.0282.0563-.0843.1969-.3656.6188-.2531 0-.2531-.3657-.1687-.4782-.1406.1125-.1125.3938-.3656.7594-.1406l.1406-.1969-.3093-.3094.1968-.2531.225.2812 1.6313-2.2218c.0562-.0563.3656-.1407.4781-.1688 0 .1406.0281.45 0 .5063l-1.6031 2.25.3375.1125-.1688.2531-.3937-.1688zm5.6813-.3656c0 .1969.1406.5063.3937.4219h.0281c-.0562.225-.45.45-.6187.1687-.1688.3657-.1406.675.225.8719.0281 0 .0281.0281 0 .0563-.225.1406-.5344.1125-.7032-.1688-.2812.225-.2531.675-.0843.8438 0 0-.8156.4781-1.5469.1406-.4781-.225-.8719-.5344-1.4906-.4781.0844-.8719.5344-1.0969 1.3219-1.2375.6468-.1125.7312-.3938.6187-.6188-.225-.0562-.6187.1406-.6187.1406-.0844-.1125.0281-.2531.0281-.2531-.0563-.0562-.0563-.225-.0563-.225.45 0 .5344-.0844.5344-.0844.0844-.4781-.3937-.5343-.7594-.2531-.1687-.1406-.1406-.3656-.1406-.3656-.0562-.0281-.0844-.1125-.0844-.1406 0-.1125.5344-.4219.675-.45.0281-.1688.225-.3657.7875-.3094.0563-.1406-.0562-.7031-.1125-.8438-.0281-.0562 0-.0843.0563-.0562.1969.1406.3937.5906.5344.5906 0 0 .6468-.3375.675-.3094.0281.0282.1125.7313.1125.7313.0843.1125.5625 0 .7875.0844.0562.0281.0562.0562 0 .0843-.1688.0282-.675.2532-.7594.3938.3375.45.1969 1.0969.1969 1.2656z" fill="#fff"/></g></svg>