<svg fill="none" height="64" viewBox="0 0 64 64" width="64" xmlns="http://www.w3.org/2000/svg" xmlns:xlink="http://www.w3.org/1999/xlink"><clipPath id="a"><rect height="64" rx="32" width="64"/></clipPath><g clip-path="url(#a)"><path d="m77-16h-90v90h90z" fill="#fff"/><path d="m50.7419-16h-37.5075v65.6325h37.5075z" fill="#154373"/><path d="m32.6523 32.6003h-.6525v-1.8h.6525zm2.9475-7.965h-.6525v-1.8h.6525zm-12.0825-3.1275c-.045 0-.3825 0-.3825.0675s.1575.045.3825.0675c.5175.09.72.36 1.08.36.3375 0 .675-.225.54-.6975-.0225-.0675-.0675-.0675-.0675 0-.045.2025-.315.3375-.6075.3375-.3375-.0225-.405-.135-.945-.135zm-3.5775 1.8c.0675.0675.675.8775-.27 1.1925-.045.0225-.0675.045 0 .09.6975.2925 1.035-.2475 1.035-.2475.36.81-.18 1.2375-.18 1.2375.0675.135.405.3825.9225.495.18-.1125.45-.2925.5625-.6075 0 0 .135.36 0 .675 1.4175.135 1.935-1.0125 3.0375-.81.045 0 .045-.0225.045-.045 0-.6975-.4275-1.98-1.8-2.25-1.35-.27-.99-.81-.99-.81.5625-.0225.9.225.9.225.1125-.18-.045-.36-.045-.36.045-.0675.09-.2925.09-.2925-.63 0-.81-.135-.81-.135-.1125-.3825.18-.9225 1.125-.3375.2475-.2025.225-.54.225-.54.0675-.045.1125-.135.1125-.2025 0-.1575-.765-.585-.9675-.63-.045-.225-.3375-.5625-1.2375-.45-.4275.045-.7425-.0675-.585-.315.0225-.045-.045-.045-.09 0-.1125.1125-.225.3825.135.5625.405.2025.4275.63.45.675 0 .09-.1125.09-.1125 0-.18-.6975-1.1475-.855-1.71-.4725.045.3825.4275.63.6525.63.135 0 .2925-.135.2925-.2925 0-.09.045-.0675.0675 0 .09.2475-.27.765-.81.45-.5625.5625-.3375 1.2375-.2925 1.485.1125.45-.1125.9-.5175.6975-.0225 0-.045-.0225-.045.045 0 .27.36.585.81.3375zm3.0375-2.79c-.2475.2925-.675.225-.7875-.2475.54-.0225.765.0225.7875.2475zm16.5375 1.1025c-.2925 0-.54-.1125-.6075-.3375 0-.045-.0675-.0675-.0675 0-.135.4725.2025.6975.54.6975.36 0 .5625-.27 1.08-.36.225-.045.3825 0 .3825-.0675s-.3375-.0675-.3825-.0675c-.5175.0225-.585.135-.945.135zm5.355 1.3275c0-.045-.0225-.045-.045-.045-.405.2025-.63-.2475-.5175-.6975.0675-.2475.2925-.945-.2925-1.485-.54.315-.9225-.2025-.81-.45.0225-.0675.0675-.0675.0675 0 0 .18.18.2925.2925.2925.225 0 .63-.2475.6525-.63-.5625-.36-1.5075-.225-1.71.4725-.0225.09-.135.0675-.1125 0 0-.0675.0225-.4725.45-.675.3825-.18.2475-.45.135-.5625-.045-.045-.1125-.045-.09 0 .135.2475-.1575.36-.585.315-.9-.1125-1.1925.2025-1.2375.45-.2025.045-.9675.4725-.9675.63 0 .045.045.1575.1125.2025 0 0-.0225.315.225.54.945-.585 1.215-.045 1.125.3375 0 0-.18.135-.81.135 0 0 .045.225.09.2925 0 0-.135.18-.045.36 0 0 .3375-.2475.9-.225 0 0 .36.5625-.99.81s-1.8 1.5525-1.8 2.25c0 .045.0225.045.045.045 1.1025-.2025 1.5975.945 3.0375.81-.135-.3375 0-.675 0-.675.1125.2925.3825.495.5625.6075.495-.1125.8325-.36.9225-.495 0 0-.54-.45-.18-1.2375 0 0 .3375.54 1.035.2475.0675-.0225.045-.0675 0-.09-.945-.315-.3375-1.1025-.27-1.1925.45.27.81-.045.81-.3375zm-3.0825-2.6775c-.1125.4725-.5175.54-.7875.2475.045-.225.27-.27.7875-.2475zm-10.035-8.01c0 .1125.045.225.09.2925.09.1125.0675.18.045.225-.045.045-.1125.045-.225-.045-.0675-.045-.1575-.09-.2925-.09-.2025 0-.315.135-.315.2475s.1125.2475.315.2475c.1125 0 .225-.045.2925-.09.1125-.09.18-.0675.225-.045.045.045-.0225.45-.0675.765-.3375.0675-.495.3375-.495.495 0 .405.4275.6525.6975.7875.2475-.135.6975-.3825.6975-.7875 0-.1575-.1575-.4275-.495-.495-.045-.315-.1125-.7425-.0675-.765.045-.045.1125-.045.225.045.0675.045.1575.09.2925.09.2025 0 .315-.135.315-.2475s-.1125-.2475-.315-.2475c-.1125 0-.225.045-.2925.09-.1125.09-.18.0675-.225.045-.045-.045-.045-.1125.045-.225.045-.0675.09-.1575.09-.2925 0-.2025-.135-.315-.2475-.315-.1575 0-.2925.1125-.2925.315zm.2475 3.0375c-.27 0-.495.225-.495.495s.225.495.495.495.495-.225.495-.495-.225-.495-.495-.495zm0 4.815c2.0025 0 3.1275.3825 3.1275.3825 0-1.0125 0-1.575.585-1.485-.315-.855 1.0575-1.1925 1.0575-2.295 0-.72-.5175-.81-.675-.81-.45 0-.3825.2925-.765.2925-.045 0-.09 0-.09.0225 0 .135.1125.3375.2925.3375.2475 0 .2475-.2475.4275-.2475.0675 0 .18.0675.18.315 0 .4725-.315.99-.675 1.395-.09-.1125-.2025-.18-.3375-.18-.2025 0-.405.225-.405.495 0 .1125.0225.18.045.27-.1125.0675-.225.1125-.315.1125-.1575 0-.405-.0675-.405-.4275 0-.81 1.08-1.5075 1.08-2.52 0-.495-.315-.9675-.99-.9675-.72 0-.585.675-1.215.675-.0225 0-.045 0-.045.045s.1125.405.4275.405c.36 0 .45-.6075.7425-.6075.1125 0 .2925.0675.2925.4725 0 .315-.1575.8325-.3825 1.3275-.09-.09-.2025-.135-.315-.135-.27 0-.45.27-.45.5625 0 .2025.0675.3825.2025.5175-.1575.2025-.315.36-.54.36-.4275 0-.63-.2475-.63-.5175 0-.2925.5175-.3825.5175-.855 0-.315-.2025-.495-.3825-.495-.2025 0-.315.135-.3375.135s-.135-.135-.3375-.135-.3825.18-.3825.495c0 .45.5175.5625.5175.855 0 .27-.18.5175-.63.5175-.225 0-.3825-.1575-.54-.36.135-.135.2025-.315.2025-.5175 0-.315-.2025-.5625-.45-.5625-.135 0-.2475.0675-.315.135-.225-.495-.3825-1.0125-.3825-1.3275 0-.405.18-.4725.2925-.4725.315 0 .405.6075.7425.6075.315 0 .4275-.36.4275-.405 0-.0225-.0225-.045-.045-.045-.63 0-.495-.675-1.215-.675-.675 0-.99.495-.99.9675 0 1.0125 1.08 1.7325 1.08 2.52 0 .36-.2475.4275-.405.4275-.09 0-.18-.045-.315-.1125.045-.09.045-.1575.045-.27 0-.2925-.18-.495-.405-.495-.135 0-.2475.0675-.3375.18-.36-.405-.675-.9225-.675-1.395 0-.2475.1125-.315.18-.315.18 0 .18.2475.4275.2475.18 0 .2925-.225.2925-.3375 0-.045-.045-.0225-.09-.0225-.3825 0-.315-.2925-.765-.2925-.1575 0-.675.09-.675.81 0 1.1025 1.3725 1.44 1.0575 2.295.585-.09.5625.4725.585 1.485-.045 0 1.08-.3825 3.0825-.3825zm-3.6675 1.485c-.54.1125-.945.225-1.1025.2925 0-.2475.1125-.45.315-.5175.0225 0 .045-.045 0-.0675-.495-.315-.7425.2925-.7425.315-.18-.0225-.4275.045-.4275.27 0 .6975-1.575 1.08-1.9575 1.125.6525.2475.9225 1.0575.9225 1.0575.4725-.4725 1.0125-.8775 1.1475-.8775s.18.1575.18.2475c0 .045.045.045.045.0225.2475-.36.135-.45.1125-.5625-.0225-.09 0-.405.36-.36v4.635l-.18.045c-.09.0225-.765-.5625-1.5525-1.1025-.765-.54-1.1925-.2025-2.07.27-1.17.63-2.3175.0675-2.3175.0675-.99.72-1.3275 2.79-1.3275 2.79-.2025.09-.5175.18-.855.18-.765 0-.9-.45-.9-.7425 0-1.17 1.485-1.6875 1.485-2.835 0-.2925-.135-1.4175-1.5525-1.4175-.18 0-1.26 0-1.26 0-.5175 0-.675-.3825-.7425-.5175-.0225-.045-.0675-.0225-.0675.0225.045.09-.0675.2475-.0675.54 0 .4725.27.7425.7875.7425.2475 0 .45-.0675.5175-.1125.045-.0225.0675.0225.045.045-.225.27-.2475.7425-.1575.8775.0225.0225.045.0225.045 0 .135-.495.585-.9675 1.215-.9675.765 0 .765.6525.765.81 0 .945-1.665 1.6425-1.665 2.925 0 1.3275 1.395 1.5975 2.205 1.395-.045 1.3275-1.5525 1.755-1.5975.8325 0-.045-.045-.0675-.0675 0-.18.4725-.1125.8775.4725 1.0125.045 0 .0225.045-.0225.0675-.5625.3825-.2475 1.845-.225 2.2725.045.6075-.5625.54-.63.5175-.0225 0-.045 0 0 .045.4275.5175.9675.045.9675.045.405.135.1575.4725-.1125.6525-.045.0225-.045.0675 0 .0675.0675 0 .6975.0675.81-.45.2925.3375.6975.2025.765.18.1125-.0675.6975-.27.765.3825 0 .045.045.0225.045 0 .45-.5625-.045-.9-.2925-.945.0225-.045.3825-.315.6975.09.0225.0225.045.045.045-.0225.045-.6975-.54-.765-.9225-.4725-.0225-.0675-.135-.4725.4275-.45.0225 0 .045-.0225 0-.045-.4275-.45-.81-.045-.8775.0675-.2025.225-.675.135-.72.135.1575-2.4525 2.3175-1.5975 2.61-2.79.0225-.0675.045-.045.045-.0225.09.2925.81.3375.945-.2475 0-.045 0-.0675-.0225-.045-.63.63-2.0475-1.3275-.1125-2.925 1.6425-1.35 3.1275-.6075 3.69-.1575.0225.2025-.09.27-.1575.2925-.0225 0-.045.045 0 .045.1575.0675.3825.045.495-.1125.36.2475.045.5625-.09.6525-.045.0225-.0225.045 0 .045.315.0675.585-.27.6075-.45l.045.045v1.395c0 2.0025 2.295 2.2725 4.815 3.96 2.52-1.6875 4.815-1.98 4.815-3.96v-1.395l.045-.045c.0225.18.2925.5175.6075.45.045 0 .045-.0225 0-.045-.135-.09-.45-.405-.09-.6525.1125.135.315.1575.495.1125.045-.0225.045-.045 0-.045-.0675-.0225-.2025-.09-.1575-.2925.5625-.45 2.0475-1.1925 3.69.1575 1.935 1.5975.5175 3.555-.1125 2.925-.0225-.0225-.045 0-.0225.045.135.585.8775.54.945.2475 0-.0225.045-.045.045.0225.2925 1.1925 2.475.315 2.61 2.79-.045 0-.5175.09-.72-.135-.09-.1125-.45-.5175-.8775-.0675-.0225.0225 0 .045 0 .045.5625-.0225.45.3825.4275.45-.3825-.315-.945-.2475-.9225.4725 0 .0675.0225.045.045.0225.315-.405.675-.1125.6975-.09-.27.045-.7425.3825-.2925.945.0225.0225.045.0675.045 0 .0675-.675.6525-.45.765-.3825.09.045.495.1575.765-.18.1125.495.7425.45.81.45.045 0 .045-.045 0-.0675-.27-.18-.5175-.5175-.1125-.6525 0 0 .54.495.9675-.045.045-.045.0225-.0675 0-.045-.045.0225-.675.09-.63-.5175.0225-.4275.3375-1.89-.2475-2.25-.045-.0225-.0675-.045-.0225-.0675.585-.135.675-.54.4725-1.0125-.0225-.0675-.0675-.045-.0675 0-.045.945-1.5525.495-1.5975-.8325.81.2025 2.205-.0675 2.205-1.395 0-1.305-1.665-2.0025-1.665-2.925 0-.1575 0-.81.765-.81.63 0 1.08.4725 1.215.9675 0 .0225.045.045.045 0 .09-.1125.0675-.6075-.1575-.8775-.0225-.0225 0-.0675.045-.045.0675.045.2925.1125.5175.1125.5175 0 .7875-.2925.7875-.7425 0-.2925-.1125-.45-.0675-.54.0225-.045-.045-.0675-.0675-.0225-.0675.135-.2025.5175-.7425.5175 0 0-1.08 0-1.26 0-1.4175 0-1.5525 1.1475-1.5525 1.4175 0 1.17 1.485 1.665 1.485 2.835 0 .27-.135.7425-.9.7425-.315 0-.63-.09-.855-.18 0 0-.3375-2.07-1.3275-2.79 0 0-1.17.5625-2.3175-.0675-.8775-.4725-1.305-.81-2.07-.27s-1.4625 1.125-1.53 1.1025l-.18-.045v-4.635c.36-.045.3825.2925.36.36-.0225.1125-.135.2025.1125.5625.0225.0225.045.0225.045-.0225 0-.09.0675-.2475.18-.2475s.675.4275 1.1475.8775c0 0 .27-.81.9225-1.0575-.36-.0675-1.9575-.45-1.9575-1.125 0-.225-.27-.2925-.4275-.27 0-.0225-.27-.63-.7425-.315-.0225.0225-.0225.045 0 .0675.2025.045.315.27.315.5175-.45-.135-2.43-.6975-4.77-.6975-1.125 0-2.1825.135-3.015.2925v1.62h-.63v-1.53zm-4.32 16.47c-.18-.0675-.2925-.18-.2925-.405v-1.0125c-.2925-.1125-1.0575-.405-2.6325-.405-1.305 0-1.71.2925-1.7325.3825l-.3375 1.89s.5175-.4725 2.4075-.36c2.2725.135 4.6125 1.485 4.6125.0675v-.8325c-1.755.0225-2.025.585-2.025.675zm13.9275-.6525v.8325c0 1.4175 2.34.09 4.6125-.0675 1.8675-.1125 2.4075.36 2.4075.36l-.3375-1.89c-.0225-.1125-.4275-.3825-1.7325-.3825-1.5525 0-2.34.2925-2.6325.405v.99c0 .225-.1125.3375-.2925.405.0225-.09-.2475-.6525-2.025-.6525zm-5.94-.855c3.645 0 7.3575.18 7.83.7425.045.045.045 0 .045-.045v-1.935c0-.5625-3.825-.9-7.875-.9s-7.875.315-7.875.9v1.935c0 .045.0225.0675.045.045.4725-.5625 4.185-.7425 7.83-.7425zm-3.24-9.1125-.36-.09-.045.045-.4275-.18h.3825c.045 0 .045-.0225.0225-.045-.18-.18-.315-.315-.315-.315s.18.0675.4275.1575c.0225 0 .045 0 .0225-.0225-.1125-.18-.2925-.405-.2925-.405s.3375.225.4275.2925c.0225.0225.045 0 .045-.0225-.09-.225-.2025-.495-.2025-.495l.3825.36c.0225.0225.045 0 .045-.0225-.045-.18-.1125-.495-.1125-.495l.2925.405c.0225.0225.045.0225.045 0 0-.0675 0-.45 0-.45s.1125.27.18.405c0 .0225.045.0225.045 0 .0225-.045.135-.3375.135-.3375l.0225.45h-.0675l-.0675.5625c.5625-.135 1.2375-1.08 1.755-1.08.63 0 .855.7425 2.0025.36.2925.4275.3825.81.495 1.3275.45.4275 1.08.2925 1.08-.1575 0-.6075-.6525-.72-.6525-1.3275 0-.2925.2025-.675.7425-.675.2925 0 .6975.1125.945.1125.2925 0 .3375-.2025.3825-.2925.0225-.0675.1125-.045.09 0 0 .0675.045.135.045.27 0 .3825-.585.45-.6525.405-.0225-.0225-.045 0-.0225.0225.09.0675.0675.315-.045.45 0 .0225-.0225.0225-.045 0-.0675-.2925-.3825-.63-.6975-.63-.1125 0-.315.0675-.315.315 0 .36.72.675.72 1.4175 0 .765-.765.945-1.53.765.0225.72 1.1025 1.17 1.125.63 0-.045.0225-.0225.045 0 .1575.225.09.3825-.1125.4725.18.09.225.4725.2925.6975.09.3375.45.1575.45.135.0225 0 .0225 0 .0225.0225-.135.36-.495.225-.495.225-.18.135.045.2475.2025.315.0225 0 .0225.0225 0 .045-.135.045-.405.135-.5175-.09-.09.2475-.2925.225-.3825.225-.135 0-.225.135-.2025.3375 0 .0225 0 .0225-.0225 0-.3375-.225-.135-.4725 0-.54-.0225-.0225-.2475-.1125-.36.1575 0 .0225-.0225.0225-.0225 0-.135-.3825.18-.495.405-.405-.0225-.045-.135-.2475-.4275-.18-.0225 0-.0225 0-.0225-.0225.045-.1125.2025-.2925.4725-.1125.135.09.3825-.045.405-.045-.495-.9675-1.4175-.1575-1.6425-.9225 0-.0225-.0225-.0225-.045 0-.045.1575-.45.18-.54-.135 0-.0225 0-.0225.0225 0 .0675.0675.18.1125.36-.135.1125-.1575.135-.3825.135-.5175 0-.585-.585-1.575-1.5075-1.575-.585 0-1.1925.225-1.665.5625l.4275.1125c-.045.4275-.45.6975-.855.585l.0675-.495c-.0675.0225-.2475.0675-.315.2025h-.0225c-.0675-.2925.1575-.4275.225-.45-.2025 0-.315.135-.36.2025h-.0225c-.0675-.135-.1125-.2925 0-.3825zm1.26 3.3525c-.1575.2025-.315 0-.5175 0s-.2475.18-.2475.2475c0 0 0 .0225-.0225 0-.225-.315.0225-.495.18-.5175-.0225-.0225-.2475-.18-.3825.045 0 .0225-.0225 0-.0225 0 0-.3825.2925-.4275.495-.2475.045-.135-.0675-.2475-.225-.2475-.0225 0-.0225-.0225-.0225-.0225.0675-.0675.135-.1125.2025-.1125.2025 0 .2475.27.3825.27.2025 0 .5175-.2925.54-.315 0-.0225-.2025-.5625-.18-.9 0-.0225 0-.0225-.0225 0-.1125.0675-.36.0675-.36-.27 0-.0225 0-.0225.0225 0 .1125.1575.2925-.0225.3825-.135.1125-.1125.63-.8775 1.35-.8775.1575 0 .36.09.5175.2025-.2475.2925 0 .585.18.5625.0225 0 .0225.0225 0 .0225-.945.36-1.3725.495-1.3725 1.2825 0 .405.135.63.3825.585.0225 0 .0225 0 0 .0225-.09.1125-.18.135-.27.135-.2025 0-.225-.1125-.3375-.1125s-.45.2025-.45.3825c0 .0675.045.1575.1575.2475v.0225c-.0225-.0225-.2925-.0225-.36-.27zm2.4975-7.695c-.2925-.0225-.495.045-.4725.135.135.18.315.1575.4725-.135zm-1.1025.7425c.2025-.045.4275-.0225.45-.0225.045 0 .045.0675 0 .0675-.4275.0675-.45.2475-.7425.2475-.18 0-.3825-.18-.315-.45 0-.045.045-.045.045 0 .0675.1125.225.2475.5625.1575zm-5.6475 9.63c.2925.36.5625.0225.945.0225.18 0 .405.0675.45.4275 0 .0225.0225.0225.045 0 .405-.5625-.0675-.8775-.315-.9225.0675-.045.45-.2925.72.0675.0225.0225.045.0225.045-.0225 0-.6975-.54-.765-.9225-.45-.0675-.2925.135-.45.405-.45.045 0 .045-.0225.0225-.045-.4725-.5175-.8325.135-.9225.225-.18.2475-.8775-.225-1.1475-.495 0 0 .6075-.63.6075-1.215 0-.045 0-.09 0-.1125s0-.0225.0225-.0225c.0675.045.135.0675.225.0675.135 0 .405-.045.405-.5175 0-.045-.0225-.045-.045-.0225-.0675.1125-.1575.135-.2025.135-.495 0-1.5075-1.62-2.7-1.62-.315 0-.9.225-1.1925.54.135.09.18.27.1575.3825-.0225.2025-.18.315-.36.36-.0225 0-.045.0225 0 .045.6075.225 1.71.6525 1.9575.855.2925.2475.2475.7425.0675 1.4175-.1575.63-.5175.5625-.6525.5175-.0225 0-.0225 0-.0225.0225.1575.2025.36.27.5175.27.315 0 .4275-.2025.6075-.2025.27 0 .855.3825.855.6975 0 .18-.135.315-.2925.4275v.0225c.09.0225.63.0675.72-.405zm13.23.4275c.0225 0 .0225-.0225 0-.0225-.18-.1125-.2925-.27-.2925-.4275 0-.2925.5625-.6975.855-.6975.1575 0 .2925.2025.6075.2025.1575 0 .36-.0675.5175-.27 0-.0225 0-.0225-.0225-.0225-.135.0225-.495.1125-.6525-.5175-.18-.675-.225-1.1475.0675-1.4175.2475-.2025 1.35-.63 1.9575-.855.045-.0225.0225-.045 0-.045-.18-.045-.3375-.135-.36-.36-.0225-.135 0-.315.1575-.3825-.2925-.315-.8775-.54-1.1925-.54-1.1925 0-2.205 1.62-2.7 1.62-.0675 0-.135-.0225-.2025-.135-.0225-.0225-.045-.0225-.045.0225 0 .495.2475.5175.405.5175.0675 0 .1575-.0225.225-.0675.0225 0 .0225 0 .0225.0225v.1125c0 .585.6075 1.215.6075 1.215-.27.2925-.945.765-1.1475.495-.09-.1125-.4275-.7425-.9225-.225-.0225.0225 0 .045.0225.045.27 0 .4725.18.405.45-.3825-.315-.9225-.2475-.9225.45 0 .0225.0225.045.045.0225.2475-.36.6525-.1125.72-.0675-.27.045-.7425.36-.315.9225.0225.0225.045.0225.045 0 .045-.36.27-.4275.45-.4275.3825 0 .6525.36.945-.0225.045.45.585.405.72.405zm-9.675-9.36c-.045.045-.1575 0-.2025-.0225-.0225 0 0 0 0 0 .045.0675.1575.27.3375.27.09 0 .2025-.045.225-.1125 0 0 .6975.225 1.0575.315-.135.18-.225.405-.2475.63-.2925-.18-1.4175-.765-1.4175-.765l-.36.4725c-.0675.0675-.3375-.135-.2925-.2025l.27-.36c-.09-.09-.2925-.045-.36-.0225 0 0-.0225 0 0-.0225.045-.0675.1575-.2925.495-.2025 0-.2025-.2925-.135-.3825-.1125.09-.09.315-.2925.6075-.1125l.1125-.1575-.2475-.2475.1575-.2025.18.225 1.305-1.7775c.045-.045.2925-.1125.3825-.135 0 .1125.0225.36 0 .405l-1.2825 1.8.27.09-.135.2025-.315-.135zm4.545-.2925c0 .1575.1125.405.315.3375h.0225c-.045.18-.36.36-.495.135-.135.2925-.1125.54.18.6975.0225 0 .0225.0225 0 .045-.18.1125-.4275.09-.5625-.135-.225.18-.2025.54-.0675.675 0 0-.6525.3825-1.2375.1125-.3825-.18-.6975-.4275-1.1925-.3825.0675-.6975.4275-.8775 1.0575-.99.5175-.09.585-.315.495-.495-.18-.045-.495.1125-.495.1125-.0675-.09.0225-.2025.0225-.2025-.045-.045-.045-.18-.045-.18.36 0 .4275-.0675.4275-.0675.0675-.3825-.315-.4275-.6075-.2025-.135-.1125-.1125-.2925-.1125-.2925-.045-.0225-.0675-.09-.0675-.1125 0-.09.4275-.3375.54-.36.0225-.135.18-.2925.63-.2475.045-.1125-.045-.5625-.09-.675-.0225-.045 0-.0675.045-.045.1575.1125.315.4725.4275.4725 0 0 .5175-.27.54-.2475s.09.585.09.585c.0675.09.45 0 .63.0675.045.0225.045.045 0 .0675-.135.0225-.54.2025-.6075.315.27.36.1575.8775.1575 1.0125z" fill="#fff"/></g></svg>