<svg fill="none" height="81" viewBox="0 0 80 81" width="80" xmlns="http://www.w3.org/2000/svg" xmlns:xlink="http://www.w3.org/1999/xlink"><clipPath id="a"><rect height="80" rx="40" width="80" y=".501953"/></clipPath><g clip-path="url(#a)"><path d="m96.25-19.498h-112.5v112.5h112.5z" fill="#fff"/><path d="m63.4286-19.498h-46.8844v82.0406h46.8844z" fill="#154373"/><path d="m40.8171 41.2523h-.8156v-2.25h.8156zm3.6844-9.9562h-.8156v-2.25h.8156zm-15.1031-3.9094c-.0563 0-.4781 0-.4781.0844s.1968.0562.4781.0844c.6469.1125.9.45 1.35.45.4219 0 .8437-.2813.675-.8719-.0281-.0844-.0844-.0844-.0844 0-.0562.2531-.3937.4219-.7594.4219-.4218-.0282-.5062-.1688-1.1812-.1688zm-4.4719 2.25c.0844.0844.8438 1.0969-.3375 1.4906-.0562.0282-.0844.0563 0 .1125.8719.3657 1.2938-.3093 1.2938-.3093.45 1.0125-.225 1.5468-.225 1.5468.0843.1688.5062.4782 1.1531.6188.225-.1406.5625-.3656.7031-.7594 0 0 .1688.45 0 .8438 1.7719.1687 2.4188-1.2657 3.7969-1.0125.0562 0 .0562-.0282.0562-.0563 0-.8719-.5343-2.475-2.25-2.8125-1.6875-.3375-1.2375-1.0125-1.2375-1.0125.7032-.0281 1.125.2813 1.125.2813.1407-.225-.0562-.45-.0562-.45.0562-.0844.1125-.3657.1125-.3657-.7875 0-1.0125-.1687-1.0125-.1687-.1406-.4781.225-1.1531 1.4062-.4219.3094-.2531.2813-.675.2813-.675.0844-.0562.1406-.1687.1406-.2531 0-.1969-.9562-.7313-1.2094-.7875-.0562-.2813-.4218-.7031-1.5468-.5625-.5344.0562-.9282-.0844-.7313-.3938.0281-.0562-.0562-.0562-.1125 0-.1406.1407-.2812.4782.1688.7032.5062.2531.5343.7875.5625.8437 0 .1125-.1407.1125-.1407 0-.225-.8719-1.4343-1.0687-2.1375-.5906.0563.4781.5344.7875.8157.7875.1687 0 .3656-.1688.3656-.3656 0-.1125.0562-.0844.0844 0 .1125.3093-.3375.9562-1.0125.5625-.7032.7031-.4219 1.5468-.3657 1.8562.1407.5625-.1406 1.125-.6468.8719-.0282 0-.0563-.0281-.0563.0562 0 .3375.45.7313 1.0125.4219zm3.7969-3.4875c-.3094.3656-.8438.2813-.9844-.3094.675-.0281.9563.0282.9844.3094zm20.6719 1.3781c-.3657 0-.675-.1406-.7594-.4218 0-.0563-.0844-.0844-.0844 0-.1687.5906.2531.8718.675.8718.45 0 .7031-.3375 1.35-.45.2813-.0562.4781 0 .4781-.0843 0-.0844-.4218-.0844-.4781-.0844-.6469.0281-.7312.1687-1.1812.1687zm6.6937 1.6594c0-.0562-.0281-.0562-.0562-.0562-.5063.2531-.7875-.3094-.6469-.8719.0844-.3094.3656-1.1813-.3656-1.8563-.675.3938-1.1532-.2531-1.0125-.5625.0281-.0843.0843-.0843.0843 0 0 .225.225.3657.3657.3657.2812 0 .7875-.3094.8156-.7875-.7031-.45-1.8844-.2813-2.1375.5906-.0281.1125-.1688.0844-.1406 0 0-.0844.0281-.5906.5625-.8438.4781-.225.3093-.5625.1687-.7031-.0562-.0562-.1406-.0562-.1125 0 .1688.3094-.1969.45-.7312.3938-1.125-.1407-1.4907.2531-1.5469.5625-.2531.0562-1.2094.5906-1.2094.7875 0 .0562.0563.1968.1406.2531 0 0-.0281.3937.2813.675 1.1812-.7313 1.5187-.0563 1.4062.4219 0 0-.225.1687-1.0125.1687 0 0 .0563.2813.1125.3656 0 0-.1687.225-.0562.45 0 0 .4219-.3093 1.125-.2812 0 0 .45.7031-1.2375 1.0125s-2.25 1.9406-2.25 2.8125c0 .0562.0281.0562.0562.0562 1.3782-.2531 1.9969 1.1813 3.7969 1.0125-.1687-.4218 0-.8437 0-.8437.1406.3656.4781.6187.7031.7594.6188-.1407 1.0407-.45 1.1532-.6188 0 0-.675-.5625-.225-1.5469 0 0 .4218.675 1.2937.3094.0844-.0281.0563-.0844 0-.1125-1.1812-.3937-.4219-1.3781-.3375-1.4906.5625.3375 1.0125-.0563 1.0125-.4219zm-3.8531-3.3469c-.1406.5907-.6469.675-.9844.3094.0563-.2812.3375-.3375.9844-.3094zm-12.5438-10.0125c0 .1407.0563.2813.1125.3657.1125.1406.0844.225.0563.2812-.0563.0563-.1406.0563-.2813-.0562-.0843-.0563-.1968-.1125-.3656-.1125-.2531 0-.3937.1687-.3937.3093 0 .1407.1406.3094.3937.3094.1406 0 .2813-.0562.3656-.1125.1407-.1125.225-.0844.2813-.0562.0562.0562-.0281.5625-.0844.9562-.4219.0844-.6187.4219-.6187.6188 0 .5062.5343.8156.8718.9843.3094-.1687.8719-.4781.8719-.9843 0-.1969-.1969-.5344-.6187-.6188-.0563-.3937-.1407-.9281-.0844-.9562.0562-.0563.1406-.0563.2812.0562.0844.0563.1969.1125.3657.1125.2531 0 .3937-.1687.3937-.3094 0-.1406-.1406-.3093-.3937-.3093-.1407 0-.2813.0562-.3657.1125-.1406.1125-.225.0843-.2812.0562-.0563-.0562-.0563-.1406.0562-.2812.0563-.0844.1125-.1969.1125-.3657 0-.2531-.1687-.3937-.3093-.3937-.1969 0-.3657.1406-.3657.3937zm.3094 3.7969c-.3375 0-.6187.2813-.6187.6188s.2812.6187.6187.6187.6188-.2812.6188-.6187-.2813-.6188-.6188-.6188zm0 6.0188c2.5031 0 3.9094.4781 3.9094.4781 0-1.2656 0-1.9688.7312-1.8563-.3937-1.0687 1.3219-1.4906 1.3219-2.8687 0-.9-.6469-1.0125-.8437-1.0125-.5625 0-.4782.3656-.9563.3656-.0562 0-.1125 0-.1125.0281 0 .1688.1406.4219.3656.4219.3094 0 .3094-.3094.5344-.3094.0844 0 .225.0844.225.3938 0 .5906-.3937 1.2375-.8437 1.7437-.1125-.1406-.2532-.225-.4219-.225-.2531 0-.5063.2813-.5063.6188 0 .1406.0282.225.0563.3375-.1406.0844-.2813.1406-.3938.1406-.1968 0-.5062-.0844-.5062-.5344 0-1.0125 1.35-1.8843 1.35-3.15 0-.6187-.3938-1.2093-1.2375-1.2093-.9 0-.7313.8437-1.5188.8437-.0281 0-.0562 0-.0562.0563 0 .0562.1406.5062.5344.5062.45 0 .5625-.7594.9281-.7594.1406 0 .3656.0844.3656.5907 0 .3937-.1969 1.0406-.4781 1.6593-.1125-.1125-.2531-.1687-.3938-.1687-.3375 0-.5625.3375-.5625.7031 0 .2531.0844.4781.2532.6469-.1969.2531-.3938.45-.675.45-.5344 0-.7875-.3094-.7875-.6469 0-.3656.6468-.4781.6468-1.0687 0-.3938-.2531-.6188-.4781-.6188-.2531 0-.3937.1688-.4219.1688-.0281 0-.1687-.1688-.4218-.1688-.2532 0-.4782.225-.4782.6188 0 .5625.6469.7031.6469 1.0687 0 .3375-.225.6469-.7875.6469-.2812 0-.4781-.1969-.675-.45.1688-.1688.2531-.3938.2531-.6469 0-.3937-.2531-.7031-.5625-.7031-.1687 0-.3093.0844-.3937.1687-.2813-.6187-.4781-1.2656-.4781-1.6593 0-.5063.225-.5907.3656-.5907.3937 0 .5062.7594.9281.7594.3938 0 .5344-.45.5344-.5062 0-.0282-.0281-.0563-.0563-.0563-.7875 0-.6187-.8437-1.5187-.8437-.8438 0-1.2375.6187-1.2375 1.2093 0 1.2657 1.35 2.1657 1.35 3.15 0 .45-.3094.5344-.5063.5344-.1125 0-.225-.0562-.3937-.1406.0562-.1125.0562-.1969.0562-.3375 0-.3656-.225-.6188-.5062-.6188-.1688 0-.3094.0844-.4219.225-.45-.5062-.8437-1.1531-.8437-1.7437 0-.3094.1406-.3938.225-.3938.225 0 .225.3094.5343.3094.225 0 .3657-.2812.3657-.4219 0-.0562-.0563-.0281-.1125-.0281-.4782 0-.3938-.3656-.9563-.3656-.1969 0-.8437.1125-.8437 1.0125 0 1.3781 1.7156 1.8 1.3218 2.8687.7313-.1125.7032.5907.7313 1.8563-.0563 0 1.35-.4781 3.8531-.4781zm-4.5844 1.8562c-.675.1406-1.1812.2813-1.3781.3656 0-.3093.1406-.5625.3938-.6468.0281 0 .0562-.0563 0-.0844-.6188-.3938-.9282.3656-.9282.3937-.225-.0281-.5343.0563-.5343.3375 0 .8719-1.9688 1.35-2.4469 1.4063.8156.3094 1.1531 1.3219 1.1531 1.3219.5906-.5907 1.2656-1.0969 1.4344-1.0969.1687 0 .225.1969.225.3094 0 .0562.0562.0562.0562.0281.3094-.45.1688-.5625.1407-.7031-.0282-.1125 0-.5063.45-.45v5.7937l-.225.0563c-.1125.0281-.9563-.7032-1.9407-1.3782-.9562-.675-1.4906-.2531-2.5875.3375-1.4625.7875-2.8968.0844-2.8968.0844-1.2375.9-1.6594 3.4875-1.6594 3.4875-.2531.1125-.6469.225-1.0688.225-.9562 0-1.125-.5625-1.125-.9281 0-1.4625 1.8563-2.1094 1.8563-3.5438 0-.3656-.1688-1.7718-1.9406-1.7718-.225 0-1.575 0-1.575 0-.6469 0-.8438-.4782-.9282-.6469-.0281-.0563-.0843-.0281-.0843.0281.0562.1125-.0844.3094-.0844.675 0 .5906.3375.9281.9844.9281.3093 0 .5625-.0843.6468-.1406.0563-.0281.0844.0281.0563.0563-.2813.3375-.3094.9281-.1969 1.0968.0281.0282.0563.0282.0563 0 .1687-.6187.7312-1.2093 1.5187-1.2093.9563 0 .9563.8156.9563 1.0125 0 1.1812-2.0813 2.0531-2.0813 3.6562 0 1.6594 1.7438 1.9969 2.7563 1.7438-.0563 1.6593-1.9407 2.1937-1.9969 1.0406 0-.0563-.0563-.0844-.0844 0-.225.5906-.1406 1.0969.5906 1.2656.0563 0 .0282.0563-.0281.0844-.7031.4781-.3094 2.3062-.2812 2.8406.0562.7594-.7032.675-.7875.6469-.0282 0-.0563 0 0 .0562.5343.6469 1.2093.0563 1.2093.0563.5063.1687.1969.5906-.1406.8156-.0562.0281-.0562.0844 0 .0844.0844 0 .8719.0844 1.0125-.5625.3656.4219.8719.2531.9563.225.1406-.0844.8718-.3375.9562.4781 0 .0563.0563.0281.0563 0 .5625-.7031-.0563-1.125-.3657-1.1812.0282-.0563.4782-.3938.8719.1125.0281.0281.0563.0562.0563-.0282.0562-.8718-.675-.9562-1.1532-.5906-.0281-.0844-.1687-.5906.5344-.5625.0281 0 .0563-.0281 0-.0562-.5344-.5625-1.0125-.0563-1.0969.0843-.2531.2813-.8437.1688-.9.1688.1969-3.0656 2.8969-1.9969 3.2625-3.4875.0282-.0844.0563-.0563.0563-.0281.1125.3656 1.0125.4218 1.1812-.3094 0-.0563 0-.0844-.0281-.0563-.7875.7875-2.5594-1.6593-.1406-3.6562 2.0531-1.6875 3.9094-.7594 4.6125-.1969.0281.2531-.1125.3375-.1969.3656-.0281 0-.0562.0563 0 .0563.1969.0844.4781.0562.6188-.1406.45.3093.0562.7031-.1125.8156-.0563.0281-.0282.0562 0 .0562.3937.0844.7312-.3375.7593-.5625l.0563.0563v1.7437c0 2.5032 2.8687 2.8407 6.0187 4.95 3.15-2.1093 6.0188-2.475 6.0188-4.95v-1.7437l.0562-.0563c.0282.225.3657.6469.7594.5625.0563 0 .0563-.0281 0-.0562-.1687-.1125-.5625-.5063-.1125-.8156.1406.1687.3938.1968.6188.1406.0562-.0281.0562-.0563 0-.0563-.0844-.0281-.2532-.1125-.1969-.3656.7031-.5625 2.5594-1.4906 4.6125.1969 2.4187 1.9969.6469 4.4437-.1406 3.6562-.0282-.0281-.0563 0-.0282.0563.1688.7312 1.0969.675 1.1813.3094 0-.0282.0562-.0563.0562.0281.3657 1.4906 3.0938.3937 3.2625 3.4875-.0562 0-.6468.1125-.9-.1688-.1125-.1406-.5625-.6468-1.0968-.0843-.0282.0281 0 .0562 0 .0562.7031-.0281.5625.4781.5343.5625-.4781-.3937-1.1812-.3094-1.1531.5906 0 .0844.0281.0563.0563.0282.3937-.5063.8437-.1407.8718-.1125-.3375.0562-.9281.4781-.3656 1.1812.0281.0281.0563.0844.0563 0 .0843-.8437.8156-.5625.9562-.4781.1125.0562.6188.1969.9563-.225.1406.6187.9281.5625 1.0125.5625.0562 0 .0562-.0563 0-.0844-.3375-.225-.6469-.6469-.1407-.8156 0 0 .675.6187 1.2094-.0563.0563-.0562.0281-.0843 0-.0562-.0562.0281-.8437.1125-.7875-.6469.0281-.5344.4219-2.3625-.3094-2.8125-.0562-.0281-.0843-.0562-.0281-.0844.7313-.1687.8438-.675.5906-1.2656-.0281-.0844-.0843-.0562-.0843 0-.0563 1.1813-1.9407.6188-1.9969-1.0406 1.0125.2531 2.7562-.0844 2.7562-1.7438 0-1.6312-2.0812-2.5031-2.0812-3.6562 0-.1969 0-1.0125.9562-1.0125.7875 0 1.35.5906 1.5188 1.2094 0 .0281.0562.0562.0562 0 .1125-.1407.0844-.7594-.1968-1.0969-.0282-.0281 0-.0844.0562-.0563.0844.0563.3656.1407.6469.1407.6469 0 .9844-.3657.9844-.9282 0-.3656-.1407-.5625-.0844-.675.0281-.0562-.0563-.0843-.0844-.0281-.0844.1688-.2531.6469-.9281.6469 0 0-1.35 0-1.575 0-1.7719 0-1.9406 1.4344-1.9406 1.7719 0 1.4625 1.8562 2.0812 1.8562 3.5437 0 .3375-.1687.9281-1.125.9281-.3937 0-.7875-.1125-1.0687-.225 0 0-.4219-2.5875-1.6594-3.4875 0 0-1.4625.7032-2.8969-.0843-1.0969-.5907-1.6312-1.0125-2.5875-.3375-.9562.675-1.8281 1.4062-1.9125 1.3781l-.225-.0563v-5.7937c.45-.0563.4781.3656.45.45-.0281.1406-.1687.2531.1406.7031.0282.0281.0563.0281.0563-.0281 0-.1125.0844-.3094.225-.3094s.8437.5344 1.4344 1.0969c0 0 .3375-1.0125 1.1531-1.3219-.45-.0844-2.4469-.5625-2.4469-1.4062 0-.2813-.3375-.3657-.5344-.3375 0-.0282-.3375-.7875-.9281-.3938-.0281.0281-.0281.0563 0 .0844.2531.0562.3938.3375.3938.6469-.5625-.1688-3.0375-.8719-5.9625-.8719-1.4063 0-2.7282.1687-3.7688.3656v2.025h-.7875v-1.9125zm-5.4 20.5875c-.225-.0844-.3656-.225-.3656-.5062v-1.2657c-.3656-.1406-1.3219-.5062-3.2906-.5062-1.6313 0-2.1375.3656-2.1656.4781l-.4219 2.3625s.6469-.5906 3.0094-.45c2.8406.1688 5.7656 1.8563 5.7656.0844v-1.0406c-2.1938.0281-2.5313.7312-2.5313.8437zm17.4094-.8156v1.0406c0 1.7719 2.925.1125 5.7656-.0844 2.3344-.1406 3.0094.45 3.0094.45l-.4219-2.3625c-.0281-.1406-.5343-.4781-2.1656-.4781-1.9406 0-2.925.3656-3.2906.5063v1.2375c0 .2812-.1406.4218-.3656.5062.0281-.1125-.3094-.8156-2.5313-.8156zm-7.425-1.0688c4.5563 0 9.1969.225 9.7875.9282.0563.0562.0563 0 .0563-.0563v-2.4187c0-.7032-4.7813-1.125-9.8438-1.125s-9.8437.3937-9.8437 1.125v2.4187c0 .0563.0281.0844.0562.0563.5906-.7032 5.2313-.9282 9.7875-.9282zm-4.05-11.3906-.45-.1125-.0562.0563-.5344-.225h.4781c.0563 0 .0563-.0282.0281-.0563-.225-.225-.3937-.3937-.3937-.3937s.225.0843.5344.1968c.0281 0 .0562 0 .0281-.0281-.1406-.225-.3656-.5062-.3656-.5062s.4218.2812.5343.3656c.0282.0281.0563 0 .0563-.0281-.1125-.2813-.2531-.6188-.2531-.6188l.4781.45c.0281.0281.0562 0 .0562-.0281-.0562-.225-.1406-.6188-.1406-.6188l.3656.5063c.0282.0281.0563.0281.0563 0 0-.0844 0-.5625 0-.5625s.1406.3375.225.5062c0 .0282.0562.0282.0562 0 .0282-.0562.1688-.4218.1688-.4218l.0281.5625h-.0844l-.0843.7031c.7031-.1688 1.5468-1.35 2.1937-1.35.7875 0 1.0688.9281 2.5031.45.3657.5344.4782 1.0125.6188 1.6594.5625.5343 1.35.3656 1.35-.1969 0-.7594-.8156-.9-.8156-1.6594 0-.3656.2531-.8437.9281-.8437.3656 0 .8719.1406 1.1812.1406.3657 0 .4219-.2531.4782-.3656.0281-.0844.1406-.0563.1125 0 0 .0843.0562.1687.0562.3375 0 .4781-.7312.5625-.8156.5062-.0281-.0281-.0563 0-.0281.0281.1125.0844.0843.3938-.0563.5625 0 .0282-.0281.0282-.0562 0-.0844-.3656-.4782-.7875-.8719-.7875-.1406 0-.3938.0844-.3938.3938 0 .45.9.8437.9 1.7719 0 .9562-.9562 1.1812-1.9125.9562.0282.9 1.3782 1.4625 1.4063.7875 0-.0562.0281-.0281.0562 0 .1969.2813.1125.4781-.1406.5906.225.1125.2813.5907.3656.8719.1125.4219.5625.1969.5625.1688.0282 0 .0282 0 .0282.0281-.1688.45-.6188.2812-.6188.2812-.225.1688.0563.3094.2531.3938.0282 0 .0282.0281 0 .0562-.1687.0563-.5062.1688-.6468-.1125-.1125.3094-.3657.2813-.4782.2813-.1687 0-.2812.1687-.2531.4219 0 .0281 0 .0281-.0281 0-.4219-.2813-.1688-.5907 0-.675-.0281-.0282-.3094-.1407-.45.1968 0 .0282-.0281.0282-.0281 0-.1688-.4781.225-.6187.5062-.5062-.0281-.0563-.1687-.3094-.5344-.225-.0281 0-.0281 0-.0281-.0281.0563-.1407.2531-.3657.5906-.1407.1688.1125.4782-.0562.5063-.0562-.6188-1.2094-1.7719-.1969-2.0531-1.1531 0-.0282-.0282-.0282-.0563 0-.0562.1968-.5625.225-.675-.1688 0-.0281 0-.0281.0281 0 .0844.0844.225.1406.45-.1687.1407-.1969.1688-.4782.1688-.6469 0-.7313-.7313-1.9688-1.8844-1.9688-.7312 0-1.4906.2813-2.0812.7032l.5343.1406c-.0562.5344-.5625.8719-1.0687.7312l.0844-.6187c-.0844.0281-.3094.0844-.3938.2531h-.0281c-.0844-.3656.1969-.5344.2812-.5625-.2531 0-.3937.1688-.45.2531h-.0281c-.0844-.1687-.1406-.3656 0-.4781zm1.575 4.1906c-.1969.2532-.3937 0-.6469 0-.2531 0-.3093.225-.3093.3094 0 0 0 .0281-.0282 0-.2812-.3937.0282-.6187.225-.6469-.0281-.0281-.3093-.225-.4781.0563 0 .0281-.0281 0-.0281 0 0-.4781.3656-.5344.6187-.3094.0563-.1687-.0843-.3094-.2812-.3094-.0281 0-.0281-.0281-.0281-.0281.0843-.0844.1687-.1406.2531-.1406.2531 0 .3094.3375.4781.3375.2531 0 .6469-.3656.675-.3938 0-.0281-.2531-.7031-.225-1.125 0-.0281 0-.0281-.0281 0-.1406.0844-.45.0844-.45-.3375 0-.0281 0-.0281.0281 0 .1406.1969.3656-.0281.4781-.1687.1407-.1406.7875-1.0969 1.6875-1.0969.1969 0 .45.1125.6469.2531-.3094.3657 0 .7313.225.7032.0281 0 .0281.0281 0 .0281-1.1812.45-1.7156.6187-1.7156 1.6031 0 .5063.1687.7875.4781.7313.0281 0 .0281 0 0 .0281-.1125.1406-.225.1687-.3375.1687-.2531 0-.2812-.1406-.4219-.1406-.1406 0-.5625.2531-.5625.4781 0 .0844.0563.1969.1969.3094v.0281c-.0281-.0281-.3656-.0281-.45-.3375zm3.1219-9.6187c-.3656-.0281-.6188.0562-.5906.1687.1687.225.3937.1969.5906-.1687zm-1.3781.9281c.2531-.0562.5343-.0281.5625-.0281.0562 0 .0562.0844 0 .0844-.5344.0843-.5625.3093-.9282.3093-.225 0-.4781-.225-.3937-.5625 0-.0562.0562-.0562.0562 0 .0844.1407.2813.3094.7032.1969zm-7.0594 12.0375c.3656.45.7031.0281 1.1812.0281.225 0 .5063.0844.5625.5344 0 .0281.0282.0281.0563 0 .5062-.7031-.0844-1.0969-.3938-1.1531.0844-.0563.5625-.3656.9.0844.0282.0281.0563.0281.0563-.0282 0-.8718-.675-.9562-1.1531-.5625-.0844-.3656.1687-.5625.5062-.5625.0563 0 .0563-.0281.0281-.0562-.5906-.6469-1.0406.1687-1.1531.2812-.225.3094-1.0969-.2812-1.4344-.6187 0 0 .7594-.7875.7594-1.5188 0-.0562 0-.1125 0-.1406s0-.0281.0281-.0281c.0844.0562.1688.0844.2813.0844.1687 0 .5062-.0563.5062-.6469 0-.0563-.0281-.0563-.0562-.0281-.0844.1406-.1969.1687-.2531.1687-.6188 0-1.8844-2.025-3.375-2.025-.3938 0-1.125.2813-1.4907.675.1688.1125.225.3375.1969.4781-.0281.2532-.225.3938-.45.45-.0281 0-.0562.0282 0 .0563.7594.2812 2.1375.8156 2.4469 1.0687.3656.3094.3094.9282.0844 1.7719-.1969.7875-.6469.7031-.8157.6469-.0281 0-.0281 0-.0281.0281.1969.2531.45.3375.6469.3375.3937 0 .5344-.2531.7594-.2531.3375 0 1.0687.4781 1.0687.8719 0 .225-.1687.3937-.3656.5343v.0282c.1125.0281.7875.0843.9-.5063zm16.5375.5344c.0281 0 .0281-.0281 0-.0281-.225-.1407-.3656-.3375-.3656-.5344 0-.3656.7031-.8719 1.0687-.8719.1969 0 .3656.2531.7594.2531.1969 0 .45-.0843.6469-.3375 0-.0281 0-.0281-.0282-.0281-.1687.0281-.6187.1406-.8156-.6469-.225-.8437-.2812-1.4343.0844-1.7718.3094-.2532 1.6875-.7875 2.4469-1.0688.0562-.0281.0281-.0562 0-.0562-.225-.0563-.4219-.1688-.45-.45-.0282-.1688 0-.3938.1968-.4782-.3656-.3937-1.0968-.675-1.4906-.675-1.4906 0-2.7562 2.025-3.375 2.025-.0844 0-.1687-.0281-.2531-.1687-.0281-.0281-.0563-.0281-.0563.0281 0 .6188.3094.6469.5063.6469.0844 0 .1969-.0281.2812-.0844.0282 0 .0282 0 .0282.0281v.1407c0 .7312.7593 1.5187.7593 1.5187-.3375.3656-1.1812.9563-1.4343.6188-.1125-.1407-.5344-.9282-1.1532-.2813-.0281.0281 0 .0563.0282.0563.3375 0 .5906.225.5062.5625-.4781-.3938-1.1531-.3094-1.1531.5625 0 .0281.0281.0562.0562.0281.3094-.45.8157-.1406.9-.0844-.3375.0563-.9281.45-.3937 1.1531.0281.0282.0562.0282.0562 0 .0563-.45.3375-.5343.5625-.5343.4782 0 .8157.45 1.1813-.0282.0562.5625.7312.5063.9.5063zm-12.0938-11.7c-.0562.0562-.1968 0-.2531-.0281-.0281 0 0 0 0 0 .0563.0843.1969.3375.4219.3375.1125 0 .2531-.0563.2812-.1407 0 0 .8719.2813 1.3219.3938-.1687.225-.2812.5062-.3094.7875-.3656-.225-1.7718-.9563-1.7718-.9563l-.45.5907c-.0844.0843-.4219-.1688-.3657-.2532l.3375-.45c-.1125-.1125-.3656-.0562-.45-.0281 0 0-.0281 0 0-.0281.0563-.0844.1969-.3656.6188-.2531 0-.2532-.3656-.1688-.4781-.1407.1125-.1125.3937-.3656.7593-.1406l.1407-.1969-.3094-.3093.1969-.2532.225.2813 1.6312-2.2219c.0563-.0562.3656-.1406.4781-.1687 0 .1406.0282.45 0 .5062l-1.6031 2.25.3375.1125-.1687.2531-.3938-.1687zm5.6813-.3656c0 .1968.1406.5062.3937.4218h.0282c-.0563.225-.45.45-.6188.1688-.1687.3656-.1406.675.225.8719.0281 0 .0281.0281 0 .0562-.225.1406-.5344.1125-.7031-.1687-.2813.225-.2531.675-.0844.8437 0 0-.8156.4781-1.5469.1406-.4781-.225-.8718-.5343-1.4906-.4781.0844-.8719.5344-1.0969 1.3219-1.2375.6469-.1125.7312-.3937.6187-.6187-.225-.0563-.6187.1406-.6187.1406-.0844-.1125.0281-.2531.0281-.2531-.0562-.0563-.0562-.225-.0562-.225.45 0 .5343-.0844.5343-.0844.0844-.4781-.3937-.5344-.7593-.2531-.1688-.1407-.1407-.3657-.1407-.3657-.0562-.0281-.0843-.1125-.0843-.1406 0-.1125.5343-.4219.675-.45.0281-.1687.225-.3656.7875-.3094.0562-.1406-.0563-.7031-.1125-.8437-.0282-.0563 0-.0844.0562-.0563.1969.1407.3938.5907.5344.5907 0 0 .6469-.3375.675-.3094s.1125.7312.1125.7312c.0844.1125.5625 0 .7875.0844.0562.0281.0562.0563 0 .0844-.1688.0281-.675.2531-.7594.3937.3375.45.1969 1.0969.1969 1.2657z" fill="#fff"/></g></svg>