<svg width="64" height="64" viewBox="0 0 64 64" fill="none" xmlns="http://www.w3.org/2000/svg">
<g clip-path="url(#clip0_1337_2536)">
<path d="M77 -16H-13V74H77V-16Z" fill="white"/>
<path d="M50.7419 -16H13.2344V49.6325H50.7419V-16Z" fill="#154373"/>
<path d="M32.6523 32.6003H31.9998V30.8003H32.6523V32.6003ZM35.5998 24.6353H34.9473V22.8353H35.5998V24.6353ZM23.5173 21.5078C23.4723 21.5078 23.1348 21.5078 23.1348 21.5753C23.1348 21.6428 23.2923 21.6203 23.5173 21.6428C24.0348 21.7328 24.2373 22.0028 24.5973 22.0028C24.9348 22.0028 25.2723 21.7778 25.1373 21.3053C25.1148 21.2378 25.0698 21.2378 25.0698 21.3053C25.0248 21.5078 24.7548 21.6428 24.4623 21.6428C24.1248 21.6203 24.0573 21.5078 23.5173 21.5078ZM19.9398 23.3078C20.0073 23.3753 20.6148 24.1853 19.6698 24.5003C19.6248 24.5228 19.6023 24.5453 19.6698 24.5903C20.3673 24.8828 20.7048 24.3428 20.7048 24.3428C21.0648 25.1528 20.5248 25.5803 20.5248 25.5803C20.5923 25.7153 20.9298 25.9628 21.4473 26.0753C21.6273 25.9628 21.8973 25.7828 22.0098 25.4678C22.0098 25.4678 22.1448 25.8278 22.0098 26.1428C23.4273 26.2778 23.9448 25.1303 25.0473 25.3328C25.0923 25.3328 25.0923 25.3103 25.0923 25.2878C25.0923 24.5903 24.6648 23.3078 23.2923 23.0378C21.9423 22.7678 22.3023 22.2278 22.3023 22.2278C22.8648 22.2053 23.2023 22.4528 23.2023 22.4528C23.3148 22.2728 23.1573 22.0928 23.1573 22.0928C23.2023 22.0253 23.2473 21.8003 23.2473 21.8003C22.6173 21.8003 22.4373 21.6653 22.4373 21.6653C22.3248 21.2828 22.6173 20.7428 23.5623 21.3278C23.8098 21.1253 23.7873 20.7878 23.7873 20.7878C23.8548 20.7428 23.8998 20.6528 23.8998 20.5853C23.8998 20.4278 23.1348 20.0003 22.9323 19.9553C22.8873 19.7303 22.5948 19.3928 21.6948 19.5053C21.2673 19.5503 20.9523 19.4378 21.1098 19.1903C21.1323 19.1453 21.0648 19.1453 21.0198 19.1903C20.9073 19.3028 20.7948 19.5728 21.1548 19.7528C21.5598 19.9553 21.5823 20.3828 21.6048 20.4278C21.6048 20.5178 21.4923 20.5178 21.4923 20.4278C21.3123 19.7303 20.3448 19.5728 19.7823 19.9553C19.8273 20.3378 20.2098 20.5853 20.4348 20.5853C20.5698 20.5853 20.7273 20.4503 20.7273 20.2928C20.7273 20.2028 20.7723 20.2253 20.7948 20.2928C20.8848 20.5403 20.5248 21.0578 19.9848 20.7428C19.4223 21.3053 19.6473 21.9803 19.6923 22.2278C19.8048 22.6778 19.5798 23.1278 19.1748 22.9253C19.1523 22.9253 19.1298 22.9028 19.1298 22.9703C19.1298 23.2403 19.4898 23.5553 19.9398 23.3078ZM22.9773 20.5178C22.7298 20.8103 22.3023 20.7428 22.1898 20.2703C22.7298 20.2478 22.9548 20.2928 22.9773 20.5178ZM39.5148 21.6203C39.2223 21.6203 38.9748 21.5078 38.9073 21.2828C38.9073 21.2378 38.8398 21.2153 38.8398 21.2828C38.7048 21.7553 39.0423 21.9803 39.3798 21.9803C39.7398 21.9803 39.9423 21.7103 40.4598 21.6203C40.6848 21.5753 40.8423 21.6203 40.8423 21.5528C40.8423 21.4853 40.5048 21.4853 40.4598 21.4853C39.9423 21.5078 39.8748 21.6203 39.5148 21.6203ZM44.8698 22.9478C44.8698 22.9028 44.8473 22.9028 44.8248 22.9028C44.4198 23.1053 44.1948 22.6553 44.3073 22.2053C44.3748 21.9578 44.5998 21.2603 44.0148 20.7203C43.4748 21.0353 43.0923 20.5178 43.2048 20.2703C43.2273 20.2028 43.2723 20.2028 43.2723 20.2703C43.2723 20.4503 43.4523 20.5628 43.5648 20.5628C43.7898 20.5628 44.1948 20.3153 44.2173 19.9328C43.6548 19.5728 42.7098 19.7078 42.5073 20.4053C42.4848 20.4953 42.3723 20.4728 42.3948 20.4053C42.3948 20.3378 42.4173 19.9328 42.8448 19.7303C43.2273 19.5503 43.0923 19.2803 42.9798 19.1678C42.9348 19.1228 42.8673 19.1228 42.8898 19.1678C43.0248 19.4153 42.7323 19.5278 42.3048 19.4828C41.4048 19.3703 41.1123 19.6853 41.0673 19.9328C40.8648 19.9778 40.0998 20.4053 40.0998 20.5628C40.0998 20.6078 40.1448 20.7203 40.2123 20.7653C40.2123 20.7653 40.1898 21.0803 40.4373 21.3053C41.3823 20.7203 41.6523 21.2603 41.5623 21.6428C41.5623 21.6428 41.3823 21.7778 40.7523 21.7778C40.7523 21.7778 40.7973 22.0028 40.8423 22.0703C40.8423 22.0703 40.7073 22.2503 40.7973 22.4303C40.7973 22.4303 41.1348 22.1828 41.6973 22.2053C41.6973 22.2053 42.0573 22.7678 40.7073 23.0153C39.3573 23.2628 38.9073 24.5678 38.9073 25.2653C38.9073 25.3103 38.9298 25.3103 38.9523 25.3103C40.0548 25.1078 40.5498 26.2553 41.9898 26.1203C41.8548 25.7828 41.9898 25.4453 41.9898 25.4453C42.1023 25.7378 42.3723 25.9403 42.5523 26.0528C43.0473 25.9403 43.3848 25.6928 43.4748 25.5578C43.4748 25.5578 42.9348 25.1078 43.2948 24.3203C43.2948 24.3203 43.6323 24.8603 44.3298 24.5678C44.3973 24.5453 44.3748 24.5003 44.3298 24.4778C43.3848 24.1628 43.9923 23.3753 44.0598 23.2853C44.5098 23.5553 44.8698 23.2403 44.8698 22.9478ZM41.7873 20.2703C41.6748 20.7428 41.2698 20.8103 40.9998 20.5178C41.0448 20.2928 41.2698 20.2478 41.7873 20.2703ZM31.7523 12.2603C31.7523 12.3728 31.7973 12.4853 31.8423 12.5528C31.9323 12.6653 31.9098 12.7328 31.8873 12.7778C31.8423 12.8228 31.7748 12.8228 31.6623 12.7328C31.5948 12.6878 31.5048 12.6428 31.3698 12.6428C31.1673 12.6428 31.0548 12.7778 31.0548 12.8903C31.0548 13.0028 31.1673 13.1378 31.3698 13.1378C31.4823 13.1378 31.5948 13.0928 31.6623 13.0478C31.7748 12.9578 31.8423 12.9803 31.8873 13.0028C31.9323 13.0478 31.8648 13.4528 31.8198 13.7678C31.4823 13.8353 31.3248 14.1053 31.3248 14.2628C31.3248 14.6678 31.7523 14.9153 32.0223 15.0503C32.2698 14.9153 32.7198 14.6678 32.7198 14.2628C32.7198 14.1053 32.5623 13.8353 32.2248 13.7678C32.1798 13.4528 32.1123 13.0253 32.1573 13.0028C32.2023 12.9578 32.2698 12.9578 32.3823 13.0478C32.4498 13.0928 32.5398 13.1378 32.6748 13.1378C32.8773 13.1378 32.9898 13.0028 32.9898 12.8903C32.9898 12.7778 32.8773 12.6428 32.6748 12.6428C32.5623 12.6428 32.4498 12.6878 32.3823 12.7328C32.2698 12.8228 32.2023 12.8003 32.1573 12.7778C32.1123 12.7328 32.1123 12.6653 32.2023 12.5528C32.2473 12.4853 32.2923 12.3953 32.2923 12.2603C32.2923 12.0578 32.1573 11.9453 32.0448 11.9453C31.8873 11.9453 31.7523 12.0578 31.7523 12.2603ZM31.9998 15.2978C31.7298 15.2978 31.5048 15.5228 31.5048 15.7928C31.5048 16.0628 31.7298 16.2878 31.9998 16.2878C32.2698 16.2878 32.4948 16.0628 32.4948 15.7928C32.4948 15.5228 32.2698 15.2978 31.9998 15.2978ZM31.9998 20.1128C34.0023 20.1128 35.1273 20.4953 35.1273 20.4953C35.1273 19.4828 35.1273 18.9203 35.7123 19.0103C35.3973 18.1553 36.7698 17.8178 36.7698 16.7153C36.7698 15.9953 36.2523 15.9053 36.0948 15.9053C35.6448 15.9053 35.7123 16.1978 35.3298 16.1978C35.2848 16.1978 35.2398 16.1978 35.2398 16.2203C35.2398 16.3553 35.3523 16.5578 35.5323 16.5578C35.7798 16.5578 35.7798 16.3103 35.9598 16.3103C36.0273 16.3103 36.1398 16.3778 36.1398 16.6253C36.1398 17.0978 35.8248 17.6153 35.4648 18.0203C35.3748 17.9078 35.2623 17.8403 35.1273 17.8403C34.9248 17.8403 34.7223 18.0653 34.7223 18.3353C34.7223 18.4478 34.7448 18.5153 34.7673 18.6053C34.6548 18.6728 34.5423 18.7178 34.4523 18.7178C34.2948 18.7178 34.0473 18.6503 34.0473 18.2903C34.0473 17.4803 35.1273 16.7828 35.1273 15.7703C35.1273 15.2753 34.8123 14.8028 34.1373 14.8028C33.4173 14.8028 33.5523 15.4778 32.9223 15.4778C32.8998 15.4778 32.8773 15.4778 32.8773 15.5228C32.8773 15.5678 32.9898 15.9278 33.3048 15.9278C33.6648 15.9278 33.7548 15.3203 34.0473 15.3203C34.1598 15.3203 34.3398 15.3878 34.3398 15.7928C34.3398 16.1078 34.1823 16.6253 33.9573 17.1203C33.8673 17.0303 33.7548 16.9853 33.6423 16.9853C33.3723 16.9853 33.1923 17.2553 33.1923 17.5478C33.1923 17.7503 33.2598 17.9303 33.3948 18.0653C33.2373 18.2678 33.0798 18.4253 32.8548 18.4253C32.4273 18.4253 32.2248 18.1778 32.2248 17.9078C32.2248 17.6153 32.7423 17.5253 32.7423 17.0528C32.7423 16.7378 32.5398 16.5578 32.3598 16.5578C32.1573 16.5578 32.0448 16.6928 32.0223 16.6928C31.9998 16.6928 31.8873 16.5578 31.6848 16.5578C31.4823 16.5578 31.3023 16.7378 31.3023 17.0528C31.3023 17.5028 31.8198 17.6153 31.8198 17.9078C31.8198 18.1778 31.6398 18.4253 31.1898 18.4253C30.9648 18.4253 30.8073 18.2678 30.6498 18.0653C30.7848 17.9303 30.8523 17.7503 30.8523 17.5478C30.8523 17.2328 30.6498 16.9853 30.4023 16.9853C30.2673 16.9853 30.1548 17.0528 30.0873 17.1203C29.8623 16.6253 29.7048 16.1078 29.7048 15.7928C29.7048 15.3878 29.8848 15.3203 29.9973 15.3203C30.3123 15.3203 30.4023 15.9278 30.7398 15.9278C31.0548 15.9278 31.1673 15.5678 31.1673 15.5228C31.1673 15.5003 31.1448 15.4778 31.1223 15.4778C30.4923 15.4778 30.6273 14.8028 29.9073 14.8028C29.2323 14.8028 28.9173 15.2978 28.9173 15.7703C28.9173 16.7828 29.9973 17.5028 29.9973 18.2903C29.9973 18.6503 29.7498 18.7178 29.5923 18.7178C29.5023 18.7178 29.4123 18.6728 29.2773 18.6053C29.3223 18.5153 29.3223 18.4478 29.3223 18.3353C29.3223 18.0428 29.1423 17.8403 28.9173 17.8403C28.7823 17.8403 28.6698 17.9078 28.5798 18.0203C28.2198 17.6153 27.9048 17.0978 27.9048 16.6253C27.9048 16.3778 28.0173 16.3103 28.0848 16.3103C28.2648 16.3103 28.2648 16.5578 28.5123 16.5578C28.6923 16.5578 28.8048 16.3328 28.8048 16.2203C28.8048 16.1753 28.7598 16.1978 28.7148 16.1978C28.3323 16.1978 28.3998 15.9053 27.9498 15.9053C27.7923 15.9053 27.2748 15.9953 27.2748 16.7153C27.2748 17.8178 28.6473 18.1553 28.3323 19.0103C28.9173 18.9203 28.8948 19.4828 28.9173 20.4953C28.8723 20.4953 29.9973 20.1128 31.9998 20.1128ZM28.3323 21.5978C27.7923 21.7103 27.3873 21.8228 27.2298 21.8903C27.2298 21.6428 27.3423 21.4403 27.5448 21.3728C27.5673 21.3728 27.5898 21.3278 27.5448 21.3053C27.0498 20.9903 26.8023 21.5978 26.8023 21.6203C26.6223 21.5978 26.3748 21.6653 26.3748 21.8903C26.3748 22.5878 24.7998 22.9703 24.4173 23.0153C25.0698 23.2628 25.3398 24.0728 25.3398 24.0728C25.8123 23.6003 26.3523 23.1953 26.4873 23.1953C26.6223 23.1953 26.6673 23.3528 26.6673 23.4428C26.6673 23.4878 26.7123 23.4878 26.7123 23.4653C26.9598 23.1053 26.8473 23.0153 26.8248 22.9028C26.8023 22.8128 26.8248 22.4978 27.1848 22.5428V27.1778L27.0048 27.2228C26.9148 27.2453 26.2398 26.6603 25.4523 26.1203C24.6873 25.5803 24.2598 25.9178 23.3823 26.3903C22.2123 27.0203 21.0648 26.4578 21.0648 26.4578C20.0748 27.1778 19.7373 29.2478 19.7373 29.2478C19.5348 29.3378 19.2198 29.4278 18.8823 29.4278C18.1173 29.4278 17.9823 28.9778 17.9823 28.6853C17.9823 27.5153 19.4673 26.9978 19.4673 25.8503C19.4673 25.5578 19.3323 24.4328 17.9148 24.4328C17.7348 24.4328 16.6548 24.4328 16.6548 24.4328C16.1373 24.4328 15.9798 24.0503 15.9123 23.9153C15.8898 23.8703 15.8448 23.8928 15.8448 23.9378C15.8898 24.0278 15.7773 24.1853 15.7773 24.4778C15.7773 24.9503 16.0473 25.2203 16.5648 25.2203C16.8123 25.2203 17.0148 25.1528 17.0823 25.1078C17.1273 25.0853 17.1498 25.1303 17.1273 25.1528C16.9023 25.4228 16.8798 25.8953 16.9698 26.0303C16.9923 26.0528 17.0148 26.0528 17.0148 26.0303C17.1498 25.5353 17.5998 25.0628 18.2298 25.0628C18.9948 25.0628 18.9948 25.7153 18.9948 25.8728C18.9948 26.8178 17.3298 27.5153 17.3298 28.7978C17.3298 30.1253 18.7248 30.3953 19.5348 30.1928C19.4898 31.5203 17.9823 31.9478 17.9373 31.0253C17.9373 30.9803 17.8923 30.9578 17.8698 31.0253C17.6898 31.4978 17.7573 31.9028 18.3423 32.0378C18.3873 32.0378 18.3648 32.0828 18.3198 32.1053C17.7573 32.4878 18.0723 33.9503 18.0948 34.3778C18.1398 34.9853 17.5323 34.9178 17.4648 34.8953C17.4423 34.8953 17.4198 34.8953 17.4648 34.9403C17.8923 35.4578 18.4323 34.9853 18.4323 34.9853C18.8373 35.1203 18.5898 35.4578 18.3198 35.6378C18.2748 35.6603 18.2748 35.7053 18.3198 35.7053C18.3873 35.7053 19.0173 35.7728 19.1298 35.2553C19.4223 35.5928 19.8273 35.4578 19.8948 35.4353C20.0073 35.3678 20.5923 35.1653 20.6598 35.8178C20.6598 35.8628 20.7048 35.8403 20.7048 35.8178C21.1548 35.2553 20.6598 34.9178 20.4123 34.8728C20.4348 34.8278 20.7948 34.5578 21.1098 34.9628C21.1323 34.9853 21.1548 35.0078 21.1548 34.9403C21.1998 34.2428 20.6148 34.1753 20.2323 34.4678C20.2098 34.4003 20.0973 33.9953 20.6598 34.0178C20.6823 34.0178 20.7048 33.9953 20.6598 33.9728C20.2323 33.5228 19.8498 33.9278 19.7823 34.0403C19.5798 34.2653 19.1073 34.1753 19.0623 34.1753C19.2198 31.7228 21.3798 32.5778 21.6723 31.3853C21.6948 31.3178 21.7173 31.3403 21.7173 31.3628C21.8073 31.6553 22.5273 31.7003 22.6623 31.1153C22.6623 31.0703 22.6623 31.0478 22.6398 31.0703C22.0098 31.7003 20.5923 29.7428 22.5273 28.1453C24.1698 26.7953 25.6548 27.5378 26.2173 27.9878C26.2398 28.1903 26.1273 28.2578 26.0598 28.2803C26.0373 28.2803 26.0148 28.3253 26.0598 28.3253C26.2173 28.3928 26.4423 28.3703 26.5548 28.2128C26.9148 28.4603 26.5998 28.7753 26.4648 28.8653C26.4198 28.8878 26.4423 28.9103 26.4648 28.9103C26.7798 28.9778 27.0498 28.6403 27.0723 28.4603L27.1173 28.5053V29.9003C27.1173 31.9028 29.4123 32.1728 31.9323 33.8603C34.4523 32.1728 36.7473 31.8803 36.7473 29.9003V28.5053L36.7923 28.4603C36.8148 28.6403 37.0848 28.9778 37.3998 28.9103C37.4448 28.9103 37.4448 28.8878 37.3998 28.8653C37.2648 28.7753 36.9498 28.4603 37.3098 28.2128C37.4223 28.3478 37.6248 28.3703 37.8048 28.3253C37.8498 28.3028 37.8498 28.2803 37.8048 28.2803C37.7373 28.2578 37.6023 28.1903 37.6473 27.9878C38.2098 27.5378 39.6948 26.7953 41.3373 28.1453C43.2723 29.7428 41.8548 31.7003 41.2248 31.0703C41.2023 31.0478 41.1798 31.0703 41.2023 31.1153C41.3373 31.7003 42.0798 31.6553 42.1473 31.3628C42.1473 31.3403 42.1923 31.3178 42.1923 31.3853C42.4848 32.5778 44.6673 31.7003 44.8023 34.1753C44.7573 34.1753 44.2848 34.2653 44.0823 34.0403C43.9923 33.9278 43.6323 33.5228 43.2048 33.9728C43.1823 33.9953 43.2048 34.0178 43.2048 34.0178C43.7673 33.9953 43.6548 34.4003 43.6323 34.4678C43.2498 34.1528 42.6873 34.2203 42.7098 34.9403C42.7098 35.0078 42.7323 34.9853 42.7548 34.9628C43.0698 34.5578 43.4298 34.8503 43.4523 34.8728C43.1823 34.9178 42.7098 35.2553 43.1598 35.8178C43.1823 35.8403 43.2048 35.8853 43.2048 35.8178C43.2723 35.1428 43.8573 35.3678 43.9698 35.4353C44.0598 35.4803 44.4648 35.5928 44.7348 35.2553C44.8473 35.7503 45.4773 35.7053 45.5448 35.7053C45.5898 35.7053 45.5898 35.6603 45.5448 35.6378C45.2748 35.4578 45.0273 35.1203 45.4323 34.9853C45.4323 34.9853 45.9723 35.4803 46.3998 34.9403C46.4448 34.8953 46.4223 34.8728 46.3998 34.8953C46.3548 34.9178 45.7248 34.9853 45.7698 34.3778C45.7923 33.9503 46.1073 32.4878 45.5223 32.1278C45.4773 32.1053 45.4548 32.0828 45.4998 32.0603C46.0848 31.9253 46.1748 31.5203 45.9723 31.0478C45.9498 30.9803 45.9048 31.0028 45.9048 31.0478C45.8598 31.9928 44.3523 31.5428 44.3073 30.2153C45.1173 30.4178 46.5123 30.1478 46.5123 28.8203C46.5123 27.5153 44.8473 26.8178 44.8473 25.8953C44.8473 25.7378 44.8473 25.0853 45.6123 25.0853C46.2423 25.0853 46.6923 25.5578 46.8273 26.0528C46.8273 26.0753 46.8723 26.0978 46.8723 26.0528C46.9623 25.9403 46.9398 25.4453 46.7148 25.1753C46.6923 25.1528 46.7148 25.1078 46.7598 25.1303C46.8273 25.1753 47.0523 25.2428 47.2773 25.2428C47.7948 25.2428 48.0648 24.9503 48.0648 24.5003C48.0648 24.2078 47.9523 24.0503 47.9973 23.9603C48.0198 23.9153 47.9523 23.8928 47.9298 23.9378C47.8623 24.0728 47.7273 24.4553 47.1873 24.4553C47.1873 24.4553 46.1073 24.4553 45.9273 24.4553C44.5098 24.4553 44.3748 25.6028 44.3748 25.8728C44.3748 27.0428 45.8598 27.5378 45.8598 28.7078C45.8598 28.9778 45.7248 29.4503 44.9598 29.4503C44.6448 29.4503 44.3298 29.3603 44.1048 29.2703C44.1048 29.2703 43.7673 27.2003 42.7773 26.4803C42.7773 26.4803 41.6073 27.0428 40.4598 26.4128C39.5823 25.9403 39.1548 25.6028 38.3898 26.1428C37.6248 26.6828 36.9273 27.2678 36.8598 27.2453L36.6798 27.2003V22.5653C37.0398 22.5203 37.0623 22.8578 37.0398 22.9253C37.0173 23.0378 36.9048 23.1278 37.1523 23.4878C37.1748 23.5103 37.1973 23.5103 37.1973 23.4653C37.1973 23.3753 37.2648 23.2178 37.3773 23.2178C37.4898 23.2178 38.0523 23.6453 38.5248 24.0953C38.5248 24.0953 38.7948 23.2853 39.4473 23.0378C39.0873 22.9703 37.4898 22.5878 37.4898 21.9128C37.4898 21.6878 37.2198 21.6203 37.0623 21.6428C37.0623 21.6203 36.7923 21.0128 36.3198 21.3278C36.2973 21.3503 36.2973 21.3728 36.3198 21.3953C36.5223 21.4403 36.6348 21.6653 36.6348 21.9128C36.1848 21.7778 34.2048 21.2153 31.8648 21.2153C30.7398 21.2153 29.6823 21.3503 28.8498 21.5078V23.1278H28.2198V21.5978H28.3323ZM24.0123 38.0678C23.8323 38.0003 23.7198 37.8878 23.7198 37.6628V36.6503C23.4273 36.5378 22.6623 36.2453 21.0873 36.2453C19.7823 36.2453 19.3773 36.5378 19.3548 36.6278L19.0173 38.5178C19.0173 38.5178 19.5348 38.0453 21.4248 38.1578C23.6973 38.2928 26.0373 39.6428 26.0373 38.2253V37.3928C24.2823 37.4153 24.0123 37.9778 24.0123 38.0678ZM37.9398 37.4153V38.2478C37.9398 39.6653 40.2798 38.3378 42.5523 38.1803C44.4198 38.0678 44.9598 38.5403 44.9598 38.5403L44.6223 36.6503C44.5998 36.5378 44.1948 36.2678 42.8898 36.2678C41.3373 36.2678 40.5498 36.5603 40.2573 36.6728V37.6628C40.2573 37.8878 40.1448 38.0003 39.9648 38.0678C39.9873 37.9778 39.7173 37.4153 37.9398 37.4153ZM31.9998 36.5603C35.6448 36.5603 39.3573 36.7403 39.8298 37.3028C39.8748 37.3478 39.8748 37.3028 39.8748 37.2578V35.3228C39.8748 34.7603 36.0498 34.4228 31.9998 34.4228C27.9498 34.4228 24.1248 34.7378 24.1248 35.3228V37.2578C24.1248 37.3028 24.1473 37.3253 24.1698 37.3028C24.6423 36.7403 28.3548 36.5603 31.9998 36.5603ZM28.7598 27.4478L28.3998 27.3578L28.3548 27.4028L27.9273 27.2228C27.9273 27.2228 28.2423 27.2228 28.3098 27.2228C28.3548 27.2228 28.3548 27.2003 28.3323 27.1778C28.1523 26.9978 28.0173 26.8628 28.0173 26.8628C28.0173 26.8628 28.1973 26.9303 28.4448 27.0203C28.4673 27.0203 28.4898 27.0203 28.4673 26.9978C28.3548 26.8178 28.1748 26.5928 28.1748 26.5928C28.1748 26.5928 28.5123 26.8178 28.6023 26.8853C28.6248 26.9078 28.6473 26.8853 28.6473 26.8628C28.5573 26.6378 28.4448 26.3678 28.4448 26.3678L28.8273 26.7278C28.8498 26.7503 28.8723 26.7278 28.8723 26.7053C28.8273 26.5253 28.7598 26.2103 28.7598 26.2103L29.0523 26.6153C29.0748 26.6378 29.0973 26.6378 29.0973 26.6153C29.0973 26.5478 29.0973 26.1653 29.0973 26.1653C29.0973 26.1653 29.2098 26.4353 29.2773 26.5703C29.2773 26.5928 29.3223 26.5928 29.3223 26.5703C29.3448 26.5253 29.4573 26.2328 29.4573 26.2328L29.4798 26.6828H29.4123L29.3448 27.2453C29.9073 27.1103 30.5823 26.1653 31.0998 26.1653C31.7298 26.1653 31.9548 26.9078 33.1023 26.5253C33.3948 26.9528 33.4848 27.3353 33.5973 27.8528C34.0473 28.2803 34.6773 28.1453 34.6773 27.6953C34.6773 27.0878 34.0248 26.9753 34.0248 26.3678C34.0248 26.0753 34.2273 25.6928 34.7673 25.6928C35.0598 25.6928 35.4648 25.8053 35.7123 25.8053C36.0048 25.8053 36.0498 25.6028 36.0948 25.5128C36.1173 25.4453 36.2073 25.4678 36.1848 25.5128C36.1848 25.5803 36.2298 25.6478 36.2298 25.7828C36.2298 26.1653 35.6448 26.2328 35.5773 26.1878C35.5548 26.1653 35.5323 26.1878 35.5548 26.2103C35.6448 26.2778 35.6223 26.5253 35.5098 26.6603C35.5098 26.6828 35.4873 26.6828 35.4648 26.6603C35.3973 26.3678 35.0823 26.0303 34.7673 26.0303C34.6548 26.0303 34.4523 26.0978 34.4523 26.3453C34.4523 26.7053 35.1723 27.0203 35.1723 27.7628C35.1723 28.5278 34.4073 28.7078 33.6423 28.5278C33.6648 29.2478 34.7448 29.6978 34.7673 29.1578C34.7673 29.1128 34.7898 29.1353 34.8123 29.1578C34.9698 29.3828 34.9023 29.5403 34.6998 29.6303C34.8798 29.7203 34.9248 30.1028 34.9923 30.3278C35.0823 30.6653 35.4423 30.4853 35.4423 30.4628C35.4648 30.4628 35.4648 30.4628 35.4648 30.4853C35.3298 30.8453 34.9698 30.7103 34.9698 30.7103C34.7898 30.8453 35.0148 30.9578 35.1723 31.0253C35.1948 31.0253 35.1948 31.0478 35.1723 31.0703C35.0373 31.1153 34.7673 31.2053 34.6548 30.9803C34.5648 31.2278 34.3623 31.2053 34.2723 31.2053C34.1373 31.2053 34.0473 31.3403 34.0698 31.5428C34.0698 31.5653 34.0698 31.5653 34.0473 31.5428C33.7098 31.3178 33.9123 31.0703 34.0473 31.0028C34.0248 30.9803 33.7998 30.8903 33.6873 31.1603C33.6873 31.1828 33.6648 31.1828 33.6648 31.1603C33.5298 30.7778 33.8448 30.6653 34.0698 30.7553C34.0473 30.7103 33.9348 30.5078 33.6423 30.5753C33.6198 30.5753 33.6198 30.5753 33.6198 30.5528C33.6648 30.4403 33.8223 30.2603 34.0923 30.4403C34.2273 30.5303 34.4748 30.3953 34.4973 30.3953C34.0023 29.4278 33.0798 30.2378 32.8548 29.4728C32.8548 29.4503 32.8323 29.4503 32.8098 29.4728C32.7648 29.6303 32.3598 29.6528 32.2698 29.3378C32.2698 29.3153 32.2698 29.3153 32.2923 29.3378C32.3598 29.4053 32.4723 29.4503 32.6523 29.2028C32.7648 29.0453 32.7873 28.8203 32.7873 28.6853C32.7873 28.1003 32.2023 27.1103 31.2798 27.1103C30.6948 27.1103 30.0873 27.3353 29.6148 27.6728L30.0423 27.7853C29.9973 28.2128 29.5923 28.4828 29.1873 28.3703L29.2548 27.8753C29.1873 27.8978 29.0073 27.9428 28.9398 28.0778H28.9173C28.8498 27.7853 29.0748 27.6503 29.1423 27.6278C28.9398 27.6278 28.8273 27.7628 28.7823 27.8303H28.7598C28.6923 27.6953 28.6473 27.5378 28.7598 27.4478ZM30.0198 30.8003C29.8623 31.0028 29.7048 30.8003 29.5023 30.8003C29.2998 30.8003 29.2548 30.9803 29.2548 31.0478C29.2548 31.0478 29.2548 31.0703 29.2323 31.0478C29.0073 30.7328 29.2548 30.5528 29.4123 30.5303C29.3898 30.5078 29.1648 30.3503 29.0298 30.5753C29.0298 30.5978 29.0073 30.5753 29.0073 30.5753C29.0073 30.1928 29.2998 30.1478 29.5023 30.3278C29.5473 30.1928 29.4348 30.0803 29.2773 30.0803C29.2548 30.0803 29.2548 30.0578 29.2548 30.0578C29.3223 29.9903 29.3898 29.9453 29.4573 29.9453C29.6598 29.9453 29.7048 30.2153 29.8398 30.2153C30.0423 30.2153 30.3573 29.9228 30.3798 29.9003C30.3798 29.8778 30.1773 29.3378 30.1998 29.0003C30.1998 28.9778 30.1998 28.9778 30.1773 29.0003C30.0648 29.0678 29.8173 29.0678 29.8173 28.7303C29.8173 28.7078 29.8173 28.7078 29.8398 28.7303C29.9523 28.8878 30.1323 28.7078 30.2223 28.5953C30.3348 28.4828 30.8523 27.7178 31.5723 27.7178C31.7298 27.7178 31.9323 27.8078 32.0898 27.9203C31.8423 28.2128 32.0898 28.5053 32.2698 28.4828C32.2923 28.4828 32.2923 28.5053 32.2698 28.5053C31.3248 28.8653 30.8973 29.0003 30.8973 29.7878C30.8973 30.1928 31.0323 30.4178 31.2798 30.3728C31.3023 30.3728 31.3023 30.3728 31.2798 30.3953C31.1898 30.5078 31.0998 30.5303 31.0098 30.5303C30.8073 30.5303 30.7848 30.4178 30.6723 30.4178C30.5598 30.4178 30.2223 30.6203 30.2223 30.8003C30.2223 30.8678 30.2673 30.9578 30.3798 31.0478C30.3798 31.0478 30.3798 31.0478 30.3798 31.0703C30.3573 31.0478 30.0873 31.0478 30.0198 30.8003ZM32.5173 23.1053C32.2248 23.0828 32.0223 23.1503 32.0448 23.2403C32.1798 23.4203 32.3598 23.3978 32.5173 23.1053ZM31.4148 23.8478C31.6173 23.8028 31.8423 23.8253 31.8648 23.8253C31.9098 23.8253 31.9098 23.8928 31.8648 23.8928C31.4373 23.9603 31.4148 24.1403 31.1223 24.1403C30.9423 24.1403 30.7398 23.9603 30.8073 23.6903C30.8073 23.6453 30.8523 23.6453 30.8523 23.6903C30.9198 23.8028 31.0773 23.9378 31.4148 23.8478ZM25.7673 33.4778C26.0598 33.8378 26.3298 33.5003 26.7123 33.5003C26.8923 33.5003 27.1173 33.5678 27.1623 33.9278C27.1623 33.9503 27.1848 33.9503 27.2073 33.9278C27.6123 33.3653 27.1398 33.0503 26.8923 33.0053C26.9598 32.9603 27.3423 32.7128 27.6123 33.0728C27.6348 33.0953 27.6573 33.0953 27.6573 33.0503C27.6573 32.3528 27.1173 32.2853 26.7348 32.6003C26.6673 32.3078 26.8698 32.1503 27.1398 32.1503C27.1848 32.1503 27.1848 32.1278 27.1623 32.1053C26.6898 31.5878 26.3298 32.2403 26.2398 32.3303C26.0598 32.5778 25.3623 32.1053 25.0923 31.8353C25.0923 31.8353 25.6998 31.2053 25.6998 30.6203C25.6998 30.5753 25.6998 30.5303 25.6998 30.5078C25.6998 30.4853 25.6998 30.4853 25.7223 30.4853C25.7898 30.5303 25.8573 30.5528 25.9473 30.5528C26.0823 30.5528 26.3523 30.5078 26.3523 30.0353C26.3523 29.9903 26.3298 29.9903 26.3073 30.0128C26.2398 30.1253 26.1498 30.1478 26.1048 30.1478C25.6098 30.1478 24.5973 28.5278 23.4048 28.5278C23.0898 28.5278 22.5048 28.7528 22.2123 29.0678C22.3473 29.1578 22.3923 29.3378 22.3698 29.4503C22.3473 29.6528 22.1898 29.7653 22.0098 29.8103C21.9873 29.8103 21.9648 29.8328 22.0098 29.8553C22.6173 30.0803 23.7198 30.5078 23.9673 30.7103C24.2598 30.9578 24.2148 31.4528 24.0348 32.1278C23.8773 32.7578 23.5173 32.6903 23.3823 32.6453C23.3598 32.6453 23.3598 32.6453 23.3598 32.6678C23.5173 32.8703 23.7198 32.9378 23.8773 32.9378C24.1923 32.9378 24.3048 32.7353 24.4848 32.7353C24.7548 32.7353 25.3398 33.1178 25.3398 33.4328C25.3398 33.6128 25.2048 33.7478 25.0473 33.8603V33.8828C25.1373 33.9053 25.6773 33.9503 25.7673 33.4778ZM38.9973 33.9053C39.0198 33.9053 39.0198 33.8828 38.9973 33.8828C38.8173 33.7703 38.7048 33.6128 38.7048 33.4553C38.7048 33.1628 39.2673 32.7578 39.5598 32.7578C39.7173 32.7578 39.8523 32.9603 40.1673 32.9603C40.3248 32.9603 40.5273 32.8928 40.6848 32.6903C40.6848 32.6678 40.6848 32.6678 40.6623 32.6678C40.5273 32.6903 40.1673 32.7803 40.0098 32.1503C39.8298 31.4753 39.7848 31.0028 40.0773 30.7328C40.3248 30.5303 41.4273 30.1028 42.0348 29.8778C42.0798 29.8553 42.0573 29.8328 42.0348 29.8328C41.8548 29.7878 41.6973 29.6978 41.6748 29.4728C41.6523 29.3378 41.6748 29.1578 41.8323 29.0903C41.5398 28.7753 40.9548 28.5503 40.6398 28.5503C39.4473 28.5503 38.4348 30.1703 37.9398 30.1703C37.8723 30.1703 37.8048 30.1478 37.7373 30.0353C37.7148 30.0128 37.6923 30.0128 37.6923 30.0578C37.6923 30.5528 37.9398 30.5753 38.0973 30.5753C38.1648 30.5753 38.2548 30.5528 38.3223 30.5078C38.3448 30.5078 38.3448 30.5078 38.3448 30.5303C38.3448 30.5528 38.3448 30.5978 38.3448 30.6428C38.3448 31.2278 38.9523 31.8578 38.9523 31.8578C38.6823 32.1503 38.0073 32.6228 37.8048 32.3528C37.7148 32.2403 37.3773 31.6103 36.8823 32.1278C36.8598 32.1503 36.8823 32.1728 36.9048 32.1728C37.1748 32.1728 37.3773 32.3528 37.3098 32.6228C36.9273 32.3078 36.3873 32.3753 36.3873 33.0728C36.3873 33.0953 36.4098 33.1178 36.4323 33.0953C36.6798 32.7353 37.0848 32.9828 37.1523 33.0278C36.8823 33.0728 36.4098 33.3878 36.8373 33.9503C36.8598 33.9728 36.8823 33.9728 36.8823 33.9503C36.9273 33.5903 37.1523 33.5228 37.3323 33.5228C37.7148 33.5228 37.9848 33.8828 38.2773 33.5003C38.3223 33.9503 38.8623 33.9053 38.9973 33.9053ZM29.3223 24.5453C29.2773 24.5903 29.1648 24.5453 29.1198 24.5228C29.0973 24.5228 29.1198 24.5228 29.1198 24.5228C29.1648 24.5903 29.2773 24.7928 29.4573 24.7928C29.5473 24.7928 29.6598 24.7478 29.6823 24.6803C29.6823 24.6803 30.3798 24.9053 30.7398 24.9953C30.6048 25.1753 30.5148 25.4003 30.4923 25.6253C30.1998 25.4453 29.0748 24.8603 29.0748 24.8603L28.7148 25.3328C28.6473 25.4003 28.3773 25.1978 28.4223 25.1303L28.6923 24.7703C28.6023 24.6803 28.3998 24.7253 28.3323 24.7478C28.3323 24.7478 28.3098 24.7478 28.3323 24.7253C28.3773 24.6578 28.4898 24.4328 28.8273 24.5228C28.8273 24.3203 28.5348 24.3878 28.4448 24.4103C28.5348 24.3203 28.7598 24.1178 29.0523 24.2978L29.1648 24.1403L28.9173 23.8928L29.0748 23.6903L29.2548 23.9153L30.5598 22.1378C30.6048 22.0928 30.8523 22.0253 30.9423 22.0028C30.9423 22.1153 30.9648 22.3628 30.9423 22.4078L29.6598 24.2078L29.9298 24.2978L29.7948 24.5003L29.4798 24.3653L29.3223 24.5453ZM33.8673 24.2528C33.8673 24.4103 33.9798 24.6578 34.1823 24.5903H34.2048C34.1598 24.7703 33.8448 24.9503 33.7098 24.7253C33.5748 25.0178 33.5973 25.2653 33.8898 25.4228C33.9123 25.4228 33.9123 25.4453 33.8898 25.4678C33.7098 25.5803 33.4623 25.5578 33.3273 25.3328C33.1023 25.5128 33.1248 25.8728 33.2598 26.0078C33.2598 26.0078 32.6073 26.3903 32.0223 26.1203C31.6398 25.9403 31.3248 25.6928 30.8298 25.7378C30.8973 25.0403 31.2573 24.8603 31.8873 24.7478C32.4048 24.6578 32.4723 24.4328 32.3823 24.2528C32.2023 24.2078 31.8873 24.3653 31.8873 24.3653C31.8198 24.2753 31.9098 24.1628 31.9098 24.1628C31.8648 24.1178 31.8648 23.9828 31.8648 23.9828C32.2248 23.9828 32.2923 23.9153 32.2923 23.9153C32.3598 23.5328 31.9773 23.4878 31.6848 23.7128C31.5498 23.6003 31.5723 23.4203 31.5723 23.4203C31.5273 23.3978 31.5048 23.3303 31.5048 23.3078C31.5048 23.2178 31.9323 22.9703 32.0448 22.9478C32.0673 22.8128 32.2248 22.6553 32.6748 22.7003C32.7198 22.5878 32.6298 22.1378 32.5848 22.0253C32.5623 21.9803 32.5848 21.9578 32.6298 21.9803C32.7873 22.0928 32.9448 22.4528 33.0573 22.4528C33.0573 22.4528 33.5748 22.1828 33.5973 22.2053C33.6198 22.2278 33.6873 22.7903 33.6873 22.7903C33.7548 22.8803 34.1373 22.7903 34.3173 22.8578C34.3623 22.8803 34.3623 22.9028 34.3173 22.9253C34.1823 22.9478 33.7773 23.1278 33.7098 23.2403C33.9798 23.6003 33.8673 24.1178 33.8673 24.2528Z" fill="white"/>
</g>
<defs>
<clipPath id="clip0_1337_2536">
<rect width="64" height="64" rx="32" fill="white"/>
</clipPath>
</defs>
</svg>
