<svg width="64" height="64" viewBox="0 0 64 64" fill="none" xmlns="http://www.w3.org/2000/svg">
<g clip-path="url(#clip0_3422_4812)">
<path d="M77 -16H-13V74H77V-16Z" fill="white"/>
<path d="M50.7429 -16H13.2354V49.6325H50.7429V-16Z" fill="#154373"/>
<path d="M32.6543 32.6003H32.0018V30.8003H32.6543V32.6003ZM35.6018 24.6353H34.9493V22.8353H35.6018V24.6353ZM23.5193 21.5078C23.4743 21.5078 23.1368 21.5078 23.1368 21.5753C23.1368 21.6428 23.2943 21.6203 23.5193 21.6428C24.0368 21.7328 24.2393 22.0028 24.5993 22.0028C24.9368 22.0028 25.2743 21.7778 25.1393 21.3053C25.1168 21.2378 25.0718 21.2378 25.0718 21.3053C25.0268 21.5078 24.7568 21.6428 24.4643 21.6428C24.1268 21.6203 24.0593 21.5078 23.5193 21.5078ZM19.9418 23.3078C20.0093 23.3753 20.6168 24.1853 19.6718 24.5003C19.6268 24.5228 19.6043 24.5453 19.6718 24.5903C20.3693 24.8828 20.7068 24.3428 20.7068 24.3428C21.0668 25.1528 20.5268 25.5803 20.5268 25.5803C20.5943 25.7153 20.9318 25.9628 21.4493 26.0753C21.6293 25.9628 21.8993 25.7828 22.0118 25.4678C22.0118 25.4678 22.1468 25.8278 22.0118 26.1428C23.4293 26.2778 23.9468 25.1303 25.0493 25.3328C25.0943 25.3328 25.0943 25.3103 25.0943 25.2878C25.0943 24.5903 24.6668 23.3078 23.2943 23.0378C21.9443 22.7678 22.3043 22.2278 22.3043 22.2278C22.8668 22.2053 23.2043 22.4528 23.2043 22.4528C23.3168 22.2728 23.1593 22.0928 23.1593 22.0928C23.2043 22.0253 23.2493 21.8003 23.2493 21.8003C22.6193 21.8003 22.4393 21.6653 22.4393 21.6653C22.3268 21.2828 22.6193 20.7428 23.5643 21.3278C23.8118 21.1253 23.7893 20.7878 23.7893 20.7878C23.8568 20.7428 23.9018 20.6528 23.9018 20.5853C23.9018 20.4278 23.1368 20.0003 22.9343 19.9553C22.8893 19.7303 22.5968 19.3928 21.6968 19.5053C21.2693 19.5503 20.9543 19.4378 21.1118 19.1903C21.1343 19.1453 21.0668 19.1453 21.0218 19.1903C20.9093 19.3028 20.7968 19.5728 21.1568 19.7528C21.5618 19.9553 21.5843 20.3828 21.6068 20.4278C21.6068 20.5178 21.4943 20.5178 21.4943 20.4278C21.3143 19.7303 20.3468 19.5728 19.7843 19.9553C19.8293 20.3378 20.2118 20.5853 20.4368 20.5853C20.5718 20.5853 20.7293 20.4503 20.7293 20.2928C20.7293 20.2028 20.7743 20.2253 20.7968 20.2928C20.8868 20.5403 20.5268 21.0578 19.9868 20.7428C19.4243 21.3053 19.6493 21.9803 19.6943 22.2278C19.8068 22.6778 19.5818 23.1278 19.1768 22.9253C19.1543 22.9253 19.1318 22.9028 19.1318 22.9703C19.1318 23.2403 19.4918 23.5553 19.9418 23.3078ZM22.9793 20.5178C22.7318 20.8103 22.3043 20.7428 22.1918 20.2703C22.7318 20.2478 22.9568 20.2928 22.9793 20.5178ZM39.5168 21.6203C39.2243 21.6203 38.9768 21.5078 38.9093 21.2828C38.9093 21.2378 38.8418 21.2153 38.8418 21.2828C38.7068 21.7553 39.0443 21.9803 39.3818 21.9803C39.7418 21.9803 39.9443 21.7103 40.4618 21.6203C40.6868 21.5753 40.8443 21.6203 40.8443 21.5528C40.8443 21.4853 40.5068 21.4853 40.4618 21.4853C39.9443 21.5078 39.8768 21.6203 39.5168 21.6203ZM44.8718 22.9478C44.8718 22.9028 44.8493 22.9028 44.8268 22.9028C44.4218 23.1053 44.1968 22.6553 44.3093 22.2053C44.3768 21.9578 44.6018 21.2603 44.0168 20.7203C43.4768 21.0353 43.0943 20.5178 43.2068 20.2703C43.2293 20.2028 43.2743 20.2028 43.2743 20.2703C43.2743 20.4503 43.4543 20.5628 43.5668 20.5628C43.7918 20.5628 44.1968 20.3153 44.2193 19.9328C43.6568 19.5728 42.7118 19.7078 42.5093 20.4053C42.4868 20.4953 42.3743 20.4728 42.3968 20.4053C42.3968 20.3378 42.4193 19.9328 42.8468 19.7303C43.2293 19.5503 43.0943 19.2803 42.9818 19.1678C42.9368 19.1228 42.8693 19.1228 42.8918 19.1678C43.0268 19.4153 42.7343 19.5278 42.3068 19.4828C41.4068 19.3703 41.1143 19.6853 41.0693 19.9328C40.8668 19.9778 40.1018 20.4053 40.1018 20.5628C40.1018 20.6078 40.1468 20.7203 40.2143 20.7653C40.2143 20.7653 40.1918 21.0803 40.4393 21.3053C41.3843 20.7203 41.6543 21.2603 41.5643 21.6428C41.5643 21.6428 41.3843 21.7778 40.7543 21.7778C40.7543 21.7778 40.7993 22.0028 40.8443 22.0703C40.8443 22.0703 40.7093 22.2503 40.7993 22.4303C40.7993 22.4303 41.1368 22.1828 41.6993 22.2053C41.6993 22.2053 42.0593 22.7678 40.7093 23.0153C39.3593 23.2628 38.9093 24.5678 38.9093 25.2653C38.9093 25.3103 38.9318 25.3103 38.9543 25.3103C40.0568 25.1078 40.5518 26.2553 41.9918 26.1203C41.8568 25.7828 41.9918 25.4453 41.9918 25.4453C42.1043 25.7378 42.3743 25.9403 42.5543 26.0528C43.0493 25.9403 43.3868 25.6928 43.4768 25.5578C43.4768 25.5578 42.9368 25.1078 43.2968 24.3203C43.2968 24.3203 43.6343 24.8603 44.3318 24.5678C44.3993 24.5453 44.3768 24.5003 44.3318 24.4778C43.3868 24.1628 43.9943 23.3753 44.0618 23.2853C44.5118 23.5553 44.8718 23.2403 44.8718 22.9478ZM41.7893 20.2703C41.6768 20.7428 41.2718 20.8103 41.0018 20.5178C41.0468 20.2928 41.2718 20.2478 41.7893 20.2703ZM31.7543 12.2603C31.7543 12.3728 31.7993 12.4853 31.8443 12.5528C31.9343 12.6653 31.9118 12.7328 31.8893 12.7778C31.8443 12.8228 31.7768 12.8228 31.6643 12.7328C31.5968 12.6878 31.5068 12.6428 31.3718 12.6428C31.1693 12.6428 31.0568 12.7778 31.0568 12.8903C31.0568 13.0028 31.1693 13.1378 31.3718 13.1378C31.4843 13.1378 31.5968 13.0928 31.6643 13.0478C31.7768 12.9578 31.8443 12.9803 31.8893 13.0028C31.9343 13.0478 31.8668 13.4528 31.8218 13.7678C31.4843 13.8353 31.3268 14.1053 31.3268 14.2628C31.3268 14.6678 31.7543 14.9153 32.0243 15.0503C32.2718 14.9153 32.7218 14.6678 32.7218 14.2628C32.7218 14.1053 32.5643 13.8353 32.2268 13.7678C32.1818 13.4528 32.1143 13.0253 32.1593 13.0028C32.2043 12.9578 32.2718 12.9578 32.3843 13.0478C32.4518 13.0928 32.5418 13.1378 32.6768 13.1378C32.8793 13.1378 32.9918 13.0028 32.9918 12.8903C32.9918 12.7778 32.8793 12.6428 32.6768 12.6428C32.5643 12.6428 32.4518 12.6878 32.3843 12.7328C32.2718 12.8228 32.2043 12.8003 32.1593 12.7778C32.1143 12.7328 32.1143 12.6653 32.2043 12.5528C32.2493 12.4853 32.2943 12.3953 32.2943 12.2603C32.2943 12.0578 32.1593 11.9453 32.0468 11.9453C31.8893 11.9453 31.7543 12.0578 31.7543 12.2603ZM32.0018 15.2978C31.7318 15.2978 31.5068 15.5228 31.5068 15.7928C31.5068 16.0628 31.7318 16.2878 32.0018 16.2878C32.2718 16.2878 32.4968 16.0628 32.4968 15.7928C32.4968 15.5228 32.2718 15.2978 32.0018 15.2978ZM32.0018 20.1128C34.0043 20.1128 35.1293 20.4953 35.1293 20.4953C35.1293 19.4828 35.1293 18.9203 35.7143 19.0103C35.3993 18.1553 36.7718 17.8178 36.7718 16.7153C36.7718 15.9953 36.2543 15.9053 36.0968 15.9053C35.6468 15.9053 35.7143 16.1978 35.3318 16.1978C35.2868 16.1978 35.2418 16.1978 35.2418 16.2203C35.2418 16.3553 35.3543 16.5578 35.5343 16.5578C35.7818 16.5578 35.7818 16.3103 35.9618 16.3103C36.0293 16.3103 36.1418 16.3778 36.1418 16.6253C36.1418 17.0978 35.8268 17.6153 35.4668 18.0203C35.3768 17.9078 35.2643 17.8403 35.1293 17.8403C34.9268 17.8403 34.7243 18.0653 34.7243 18.3353C34.7243 18.4478 34.7468 18.5153 34.7693 18.6053C34.6568 18.6728 34.5443 18.7178 34.4543 18.7178C34.2968 18.7178 34.0493 18.6503 34.0493 18.2903C34.0493 17.4803 35.1293 16.7828 35.1293 15.7703C35.1293 15.2753 34.8143 14.8028 34.1393 14.8028C33.4193 14.8028 33.5543 15.4778 32.9243 15.4778C32.9018 15.4778 32.8793 15.4778 32.8793 15.5228C32.8793 15.5678 32.9918 15.9278 33.3068 15.9278C33.6668 15.9278 33.7568 15.3203 34.0493 15.3203C34.1618 15.3203 34.3418 15.3878 34.3418 15.7928C34.3418 16.1078 34.1843 16.6253 33.9593 17.1203C33.8693 17.0303 33.7568 16.9853 33.6443 16.9853C33.3743 16.9853 33.1943 17.2553 33.1943 17.5478C33.1943 17.7503 33.2618 17.9303 33.3968 18.0653C33.2393 18.2678 33.0818 18.4253 32.8568 18.4253C32.4293 18.4253 32.2268 18.1778 32.2268 17.9078C32.2268 17.6153 32.7443 17.5253 32.7443 17.0528C32.7443 16.7378 32.5418 16.5578 32.3618 16.5578C32.1593 16.5578 32.0468 16.6928 32.0243 16.6928C32.0018 16.6928 31.8893 16.5578 31.6868 16.5578C31.4843 16.5578 31.3043 16.7378 31.3043 17.0528C31.3043 17.5028 31.8218 17.6153 31.8218 17.9078C31.8218 18.1778 31.6418 18.4253 31.1918 18.4253C30.9668 18.4253 30.8093 18.2678 30.6518 18.0653C30.7868 17.9303 30.8543 17.7503 30.8543 17.5478C30.8543 17.2328 30.6518 16.9853 30.4043 16.9853C30.2693 16.9853 30.1568 17.0528 30.0893 17.1203C29.8643 16.6253 29.7068 16.1078 29.7068 15.7928C29.7068 15.3878 29.8868 15.3203 29.9993 15.3203C30.3143 15.3203 30.4043 15.9278 30.7418 15.9278C31.0568 15.9278 31.1693 15.5678 31.1693 15.5228C31.1693 15.5003 31.1468 15.4778 31.1243 15.4778C30.4943 15.4778 30.6293 14.8028 29.9093 14.8028C29.2343 14.8028 28.9193 15.2978 28.9193 15.7703C28.9193 16.7828 29.9993 17.5028 29.9993 18.2903C29.9993 18.6503 29.7518 18.7178 29.5943 18.7178C29.5043 18.7178 29.4143 18.6728 29.2793 18.6053C29.3243 18.5153 29.3243 18.4478 29.3243 18.3353C29.3243 18.0428 29.1443 17.8403 28.9193 17.8403C28.7843 17.8403 28.6718 17.9078 28.5818 18.0203C28.2218 17.6153 27.9068 17.0978 27.9068 16.6253C27.9068 16.3778 28.0193 16.3103 28.0868 16.3103C28.2668 16.3103 28.2668 16.5578 28.5143 16.5578C28.6943 16.5578 28.8068 16.3328 28.8068 16.2203C28.8068 16.1753 28.7618 16.1978 28.7168 16.1978C28.3343 16.1978 28.4018 15.9053 27.9518 15.9053C27.7943 15.9053 27.2768 15.9953 27.2768 16.7153C27.2768 17.8178 28.6493 18.1553 28.3343 19.0103C28.9193 18.9203 28.8968 19.4828 28.9193 20.4953C28.8743 20.4953 29.9993 20.1128 32.0018 20.1128ZM28.3343 21.5978C27.7943 21.7103 27.3893 21.8228 27.2318 21.8903C27.2318 21.6428 27.3443 21.4403 27.5468 21.3728C27.5693 21.3728 27.5918 21.3278 27.5468 21.3053C27.0518 20.9903 26.8043 21.5978 26.8043 21.6203C26.6243 21.5978 26.3768 21.6653 26.3768 21.8903C26.3768 22.5878 24.8018 22.9703 24.4193 23.0153C25.0718 23.2628 25.3418 24.0728 25.3418 24.0728C25.8143 23.6003 26.3543 23.1953 26.4893 23.1953C26.6243 23.1953 26.6693 23.3528 26.6693 23.4428C26.6693 23.4878 26.7143 23.4878 26.7143 23.4653C26.9618 23.1053 26.8493 23.0153 26.8268 22.9028C26.8043 22.8128 26.8268 22.4978 27.1868 22.5428V27.1778L27.0068 27.2228C26.9168 27.2453 26.2418 26.6603 25.4543 26.1203C24.6893 25.5803 24.2618 25.9178 23.3843 26.3903C22.2143 27.0203 21.0668 26.4578 21.0668 26.4578C20.0768 27.1778 19.7393 29.2478 19.7393 29.2478C19.5368 29.3378 19.2218 29.4278 18.8843 29.4278C18.1193 29.4278 17.9843 28.9778 17.9843 28.6853C17.9843 27.5153 19.4693 26.9978 19.4693 25.8503C19.4693 25.5578 19.3343 24.4328 17.9168 24.4328C17.7368 24.4328 16.6568 24.4328 16.6568 24.4328C16.1393 24.4328 15.9818 24.0503 15.9143 23.9153C15.8918 23.8703 15.8468 23.8928 15.8468 23.9378C15.8918 24.0278 15.7793 24.1853 15.7793 24.4778C15.7793 24.9503 16.0493 25.2203 16.5668 25.2203C16.8143 25.2203 17.0168 25.1528 17.0843 25.1078C17.1293 25.0853 17.1518 25.1303 17.1293 25.1528C16.9043 25.4228 16.8818 25.8953 16.9718 26.0303C16.9943 26.0528 17.0168 26.0528 17.0168 26.0303C17.1518 25.5353 17.6018 25.0628 18.2318 25.0628C18.9968 25.0628 18.9968 25.7153 18.9968 25.8728C18.9968 26.8178 17.3318 27.5153 17.3318 28.7978C17.3318 30.1253 18.7268 30.3953 19.5368 30.1928C19.4918 31.5203 17.9843 31.9478 17.9393 31.0253C17.9393 30.9803 17.8943 30.9578 17.8718 31.0253C17.6918 31.4978 17.7593 31.9028 18.3443 32.0378C18.3893 32.0378 18.3668 32.0828 18.3218 32.1053C17.7593 32.4878 18.0743 33.9503 18.0968 34.3778C18.1418 34.9853 17.5343 34.9178 17.4668 34.8953C17.4443 34.8953 17.4218 34.8953 17.4668 34.9403C17.8943 35.4578 18.4343 34.9853 18.4343 34.9853C18.8393 35.1203 18.5918 35.4578 18.3218 35.6378C18.2768 35.6603 18.2768 35.7053 18.3218 35.7053C18.3893 35.7053 19.0193 35.7728 19.1318 35.2553C19.4243 35.5928 19.8293 35.4578 19.8968 35.4353C20.0093 35.3678 20.5943 35.1653 20.6618 35.8178C20.6618 35.8628 20.7068 35.8403 20.7068 35.8178C21.1568 35.2553 20.6618 34.9178 20.4143 34.8728C20.4368 34.8278 20.7968 34.5578 21.1118 34.9628C21.1343 34.9853 21.1568 35.0078 21.1568 34.9403C21.2018 34.2428 20.6168 34.1753 20.2343 34.4678C20.2118 34.4003 20.0993 33.9953 20.6618 34.0178C20.6843 34.0178 20.7068 33.9953 20.6618 33.9728C20.2343 33.5228 19.8518 33.9278 19.7843 34.0403C19.5818 34.2653 19.1093 34.1753 19.0643 34.1753C19.2218 31.7228 21.3818 32.5778 21.6743 31.3853C21.6968 31.3178 21.7193 31.3403 21.7193 31.3628C21.8093 31.6553 22.5293 31.7003 22.6643 31.1153C22.6643 31.0703 22.6643 31.0478 22.6418 31.0703C22.0118 31.7003 20.5943 29.7428 22.5293 28.1453C24.1718 26.7953 25.6568 27.5378 26.2193 27.9878C26.2418 28.1903 26.1293 28.2578 26.0618 28.2803C26.0393 28.2803 26.0168 28.3253 26.0618 28.3253C26.2193 28.3928 26.4443 28.3703 26.5568 28.2128C26.9168 28.4603 26.6018 28.7753 26.4668 28.8653C26.4218 28.8878 26.4443 28.9103 26.4668 28.9103C26.7818 28.9778 27.0518 28.6403 27.0743 28.4603L27.1193 28.5053V29.9003C27.1193 31.9028 29.4143 32.1728 31.9343 33.8603C34.4543 32.1728 36.7493 31.8803 36.7493 29.9003V28.5053L36.7943 28.4603C36.8168 28.6403 37.0868 28.9778 37.4018 28.9103C37.4468 28.9103 37.4468 28.8878 37.4018 28.8653C37.2668 28.7753 36.9518 28.4603 37.3118 28.2128C37.4243 28.3478 37.6268 28.3703 37.8068 28.3253C37.8518 28.3028 37.8518 28.2803 37.8068 28.2803C37.7393 28.2578 37.6043 28.1903 37.6493 27.9878C38.2118 27.5378 39.6968 26.7953 41.3393 28.1453C43.2743 29.7428 41.8568 31.7003 41.2268 31.0703C41.2043 31.0478 41.1818 31.0703 41.2043 31.1153C41.3393 31.7003 42.0818 31.6553 42.1493 31.3628C42.1493 31.3403 42.1943 31.3178 42.1943 31.3853C42.4868 32.5778 44.6693 31.7003 44.8043 34.1753C44.7593 34.1753 44.2868 34.2653 44.0843 34.0403C43.9943 33.9278 43.6343 33.5228 43.2068 33.9728C43.1843 33.9953 43.2068 34.0178 43.2068 34.0178C43.7693 33.9953 43.6568 34.4003 43.6343 34.4678C43.2518 34.1528 42.6893 34.2203 42.7118 34.9403C42.7118 35.0078 42.7343 34.9853 42.7568 34.9628C43.0718 34.5578 43.4318 34.8503 43.4543 34.8728C43.1843 34.9178 42.7118 35.2553 43.1618 35.8178C43.1843 35.8403 43.2068 35.8853 43.2068 35.8178C43.2743 35.1428 43.8593 35.3678 43.9718 35.4353C44.0618 35.4803 44.4668 35.5928 44.7368 35.2553C44.8493 35.7503 45.4793 35.7053 45.5468 35.7053C45.5918 35.7053 45.5918 35.6603 45.5468 35.6378C45.2768 35.4578 45.0293 35.1203 45.4343 34.9853C45.4343 34.9853 45.9743 35.4803 46.4018 34.9403C46.4468 34.8953 46.4243 34.8728 46.4018 34.8953C46.3568 34.9178 45.7268 34.9853 45.7718 34.3778C45.7943 33.9503 46.1093 32.4878 45.5243 32.1278C45.4793 32.1053 45.4568 32.0828 45.5018 32.0603C46.0868 31.9253 46.1768 31.5203 45.9743 31.0478C45.9518 30.9803 45.9068 31.0028 45.9068 31.0478C45.8618 31.9928 44.3543 31.5428 44.3093 30.2153C45.1193 30.4178 46.5143 30.1478 46.5143 28.8203C46.5143 27.5153 44.8493 26.8178 44.8493 25.8953C44.8493 25.7378 44.8493 25.0853 45.6143 25.0853C46.2443 25.0853 46.6943 25.5578 46.8293 26.0528C46.8293 26.0753 46.8743 26.0978 46.8743 26.0528C46.9643 25.9403 46.9418 25.4453 46.7168 25.1753C46.6943 25.1528 46.7168 25.1078 46.7618 25.1303C46.8293 25.1753 47.0543 25.2428 47.2793 25.2428C47.7968 25.2428 48.0668 24.9503 48.0668 24.5003C48.0668 24.2078 47.9543 24.0503 47.9993 23.9603C48.0218 23.9153 47.9543 23.8928 47.9318 23.9378C47.8643 24.0728 47.7293 24.4553 47.1893 24.4553C47.1893 24.4553 46.1093 24.4553 45.9293 24.4553C44.5118 24.4553 44.3768 25.6028 44.3768 25.8728C44.3768 27.0428 45.8618 27.5378 45.8618 28.7078C45.8618 28.9778 45.7268 29.4503 44.9618 29.4503C44.6468 29.4503 44.3318 29.3603 44.1068 29.2703C44.1068 29.2703 43.7693 27.2003 42.7793 26.4803C42.7793 26.4803 41.6093 27.0428 40.4618 26.4128C39.5843 25.9403 39.1568 25.6028 38.3918 26.1428C37.6268 26.6828 36.9293 27.2678 36.8618 27.2453L36.6818 27.2003V22.5653C37.0418 22.5203 37.0643 22.8578 37.0418 22.9253C37.0193 23.0378 36.9068 23.1278 37.1543 23.4878C37.1768 23.5103 37.1993 23.5103 37.1993 23.4653C37.1993 23.3753 37.2668 23.2178 37.3793 23.2178C37.4918 23.2178 38.0543 23.6453 38.5268 24.0953C38.5268 24.0953 38.7968 23.2853 39.4493 23.0378C39.0893 22.9703 37.4918 22.5878 37.4918 21.9128C37.4918 21.6878 37.2218 21.6203 37.0643 21.6428C37.0643 21.6203 36.7943 21.0128 36.3218 21.3278C36.2993 21.3503 36.2993 21.3728 36.3218 21.3953C36.5243 21.4403 36.6368 21.6653 36.6368 21.9128C36.1868 21.7778 34.2068 21.2153 31.8668 21.2153C30.7418 21.2153 29.6843 21.3503 28.8518 21.5078V23.1278H28.2218V21.5978H28.3343ZM24.0143 38.0678C23.8343 38.0003 23.7218 37.8878 23.7218 37.6628V36.6503C23.4293 36.5378 22.6643 36.2453 21.0893 36.2453C19.7843 36.2453 19.3793 36.5378 19.3568 36.6278L19.0193 38.5178C19.0193 38.5178 19.5368 38.0453 21.4268 38.1578C23.6993 38.2928 26.0393 39.6428 26.0393 38.2253V37.3928C24.2843 37.4153 24.0143 37.9778 24.0143 38.0678ZM37.9418 37.4153V38.2478C37.9418 39.6653 40.2818 38.3378 42.5543 38.1803C44.4218 38.0678 44.9618 38.5403 44.9618 38.5403L44.6243 36.6503C44.6018 36.5378 44.1968 36.2678 42.8918 36.2678C41.3393 36.2678 40.5518 36.5603 40.2593 36.6728V37.6628C40.2593 37.8878 40.1468 38.0003 39.9668 38.0678C39.9893 37.9778 39.7193 37.4153 37.9418 37.4153ZM32.0018 36.5603C35.6468 36.5603 39.3593 36.7403 39.8318 37.3028C39.8768 37.3478 39.8768 37.3028 39.8768 37.2578V35.3228C39.8768 34.7603 36.0518 34.4228 32.0018 34.4228C27.9518 34.4228 24.1268 34.7378 24.1268 35.3228V37.2578C24.1268 37.3028 24.1493 37.3253 24.1718 37.3028C24.6443 36.7403 28.3568 36.5603 32.0018 36.5603ZM28.7618 27.4478L28.4018 27.3578L28.3568 27.4028L27.9293 27.2228C27.9293 27.2228 28.2443 27.2228 28.3118 27.2228C28.3568 27.2228 28.3568 27.2003 28.3343 27.1778C28.1543 26.9978 28.0193 26.8628 28.0193 26.8628C28.0193 26.8628 28.1993 26.9303 28.4468 27.0203C28.4693 27.0203 28.4918 27.0203 28.4693 26.9978C28.3568 26.8178 28.1768 26.5928 28.1768 26.5928C28.1768 26.5928 28.5143 26.8178 28.6043 26.8853C28.6268 26.9078 28.6493 26.8853 28.6493 26.8628C28.5593 26.6378 28.4468 26.3678 28.4468 26.3678L28.8293 26.7278C28.8518 26.7503 28.8743 26.7278 28.8743 26.7053C28.8293 26.5253 28.7618 26.2103 28.7618 26.2103L29.0543 26.6153C29.0768 26.6378 29.0993 26.6378 29.0993 26.6153C29.0993 26.5478 29.0993 26.1653 29.0993 26.1653C29.0993 26.1653 29.2118 26.4353 29.2793 26.5703C29.2793 26.5928 29.3243 26.5928 29.3243 26.5703C29.3468 26.5253 29.4593 26.2328 29.4593 26.2328L29.4818 26.6828H29.4143L29.3468 27.2453C29.9093 27.1103 30.5843 26.1653 31.1018 26.1653C31.7318 26.1653 31.9568 26.9078 33.1043 26.5253C33.3968 26.9528 33.4868 27.3353 33.5993 27.8528C34.0493 28.2803 34.6793 28.1453 34.6793 27.6953C34.6793 27.0878 34.0268 26.9753 34.0268 26.3678C34.0268 26.0753 34.2293 25.6928 34.7693 25.6928C35.0618 25.6928 35.4668 25.8053 35.7143 25.8053C36.0068 25.8053 36.0518 25.6028 36.0968 25.5128C36.1193 25.4453 36.2093 25.4678 36.1868 25.5128C36.1868 25.5803 36.2318 25.6478 36.2318 25.7828C36.2318 26.1653 35.6468 26.2328 35.5793 26.1878C35.5568 26.1653 35.5343 26.1878 35.5568 26.2103C35.6468 26.2778 35.6243 26.5253 35.5118 26.6603C35.5118 26.6828 35.4893 26.6828 35.4668 26.6603C35.3993 26.3678 35.0843 26.0303 34.7693 26.0303C34.6568 26.0303 34.4543 26.0978 34.4543 26.3453C34.4543 26.7053 35.1743 27.0203 35.1743 27.7628C35.1743 28.5278 34.4093 28.7078 33.6443 28.5278C33.6668 29.2478 34.7468 29.6978 34.7693 29.1578C34.7693 29.1128 34.7918 29.1353 34.8143 29.1578C34.9718 29.3828 34.9043 29.5403 34.7018 29.6303C34.8818 29.7203 34.9268 30.1028 34.9943 30.3278C35.0843 30.6653 35.4443 30.4853 35.4443 30.4628C35.4668 30.4628 35.4668 30.4628 35.4668 30.4853C35.3318 30.8453 34.9718 30.7103 34.9718 30.7103C34.7918 30.8453 35.0168 30.9578 35.1743 31.0253C35.1968 31.0253 35.1968 31.0478 35.1743 31.0703C35.0393 31.1153 34.7693 31.2053 34.6568 30.9803C34.5668 31.2278 34.3643 31.2053 34.2743 31.2053C34.1393 31.2053 34.0493 31.3403 34.0718 31.5428C34.0718 31.5653 34.0718 31.5653 34.0493 31.5428C33.7118 31.3178 33.9143 31.0703 34.0493 31.0028C34.0268 30.9803 33.8018 30.8903 33.6893 31.1603C33.6893 31.1828 33.6668 31.1828 33.6668 31.1603C33.5318 30.7778 33.8468 30.6653 34.0718 30.7553C34.0493 30.7103 33.9368 30.5078 33.6443 30.5753C33.6218 30.5753 33.6218 30.5753 33.6218 30.5528C33.6668 30.4403 33.8243 30.2603 34.0943 30.4403C34.2293 30.5303 34.4768 30.3953 34.4993 30.3953C34.0043 29.4278 33.0818 30.2378 32.8568 29.4728C32.8568 29.4503 32.8343 29.4503 32.8118 29.4728C32.7668 29.6303 32.3618 29.6528 32.2718 29.3378C32.2718 29.3153 32.2718 29.3153 32.2943 29.3378C32.3618 29.4053 32.4743 29.4503 32.6543 29.2028C32.7668 29.0453 32.7893 28.8203 32.7893 28.6853C32.7893 28.1003 32.2043 27.1103 31.2818 27.1103C30.6968 27.1103 30.0893 27.3353 29.6168 27.6728L30.0443 27.7853C29.9993 28.2128 29.5943 28.4828 29.1893 28.3703L29.2568 27.8753C29.1893 27.8978 29.0093 27.9428 28.9418 28.0778H28.9193C28.8518 27.7853 29.0768 27.6503 29.1443 27.6278C28.9418 27.6278 28.8293 27.7628 28.7843 27.8303H28.7618C28.6943 27.6953 28.6493 27.5378 28.7618 27.4478ZM30.0218 30.8003C29.8643 31.0028 29.7068 30.8003 29.5043 30.8003C29.3018 30.8003 29.2568 30.9803 29.2568 31.0478C29.2568 31.0478 29.2568 31.0703 29.2343 31.0478C29.0093 30.7328 29.2568 30.5528 29.4143 30.5303C29.3918 30.5078 29.1668 30.3503 29.0318 30.5753C29.0318 30.5978 29.0093 30.5753 29.0093 30.5753C29.0093 30.1928 29.3018 30.1478 29.5043 30.3278C29.5493 30.1928 29.4368 30.0803 29.2793 30.0803C29.2568 30.0803 29.2568 30.0578 29.2568 30.0578C29.3243 29.9903 29.3918 29.9453 29.4593 29.9453C29.6618 29.9453 29.7068 30.2153 29.8418 30.2153C30.0443 30.2153 30.3593 29.9228 30.3818 29.9003C30.3818 29.8778 30.1793 29.3378 30.2018 29.0003C30.2018 28.9778 30.2018 28.9778 30.1793 29.0003C30.0668 29.0678 29.8193 29.0678 29.8193 28.7303C29.8193 28.7078 29.8193 28.7078 29.8418 28.7303C29.9543 28.8878 30.1343 28.7078 30.2243 28.5953C30.3368 28.4828 30.8543 27.7178 31.5743 27.7178C31.7318 27.7178 31.9343 27.8078 32.0918 27.9203C31.8443 28.2128 32.0918 28.5053 32.2718 28.4828C32.2943 28.4828 32.2943 28.5053 32.2718 28.5053C31.3268 28.8653 30.8993 29.0003 30.8993 29.7878C30.8993 30.1928 31.0343 30.4178 31.2818 30.3728C31.3043 30.3728 31.3043 30.3728 31.2818 30.3953C31.1918 30.5078 31.1018 30.5303 31.0118 30.5303C30.8093 30.5303 30.7868 30.4178 30.6743 30.4178C30.5618 30.4178 30.2243 30.6203 30.2243 30.8003C30.2243 30.8678 30.2693 30.9578 30.3818 31.0478C30.3818 31.0478 30.3818 31.0478 30.3818 31.0703C30.3593 31.0478 30.0893 31.0478 30.0218 30.8003ZM32.5193 23.1053C32.2268 23.0828 32.0243 23.1503 32.0468 23.2403C32.1818 23.4203 32.3618 23.3978 32.5193 23.1053ZM31.4168 23.8478C31.6193 23.8028 31.8443 23.8253 31.8668 23.8253C31.9118 23.8253 31.9118 23.8928 31.8668 23.8928C31.4393 23.9603 31.4168 24.1403 31.1243 24.1403C30.9443 24.1403 30.7418 23.9603 30.8093 23.6903C30.8093 23.6453 30.8543 23.6453 30.8543 23.6903C30.9218 23.8028 31.0793 23.9378 31.4168 23.8478ZM25.7693 33.4778C26.0618 33.8378 26.3318 33.5003 26.7143 33.5003C26.8943 33.5003 27.1193 33.5678 27.1643 33.9278C27.1643 33.9503 27.1868 33.9503 27.2093 33.9278C27.6143 33.3653 27.1418 33.0503 26.8943 33.0053C26.9618 32.9603 27.3443 32.7128 27.6143 33.0728C27.6368 33.0953 27.6593 33.0953 27.6593 33.0503C27.6593 32.3528 27.1193 32.2853 26.7368 32.6003C26.6693 32.3078 26.8718 32.1503 27.1418 32.1503C27.1868 32.1503 27.1868 32.1278 27.1643 32.1053C26.6918 31.5878 26.3318 32.2403 26.2418 32.3303C26.0618 32.5778 25.3643 32.1053 25.0943 31.8353C25.0943 31.8353 25.7018 31.2053 25.7018 30.6203C25.7018 30.5753 25.7018 30.5303 25.7018 30.5078C25.7018 30.4853 25.7018 30.4853 25.7243 30.4853C25.7918 30.5303 25.8593 30.5528 25.9493 30.5528C26.0843 30.5528 26.3543 30.5078 26.3543 30.0353C26.3543 29.9903 26.3318 29.9903 26.3093 30.0128C26.2418 30.1253 26.1518 30.1478 26.1068 30.1478C25.6118 30.1478 24.5993 28.5278 23.4068 28.5278C23.0918 28.5278 22.5068 28.7528 22.2143 29.0678C22.3493 29.1578 22.3943 29.3378 22.3718 29.4503C22.3493 29.6528 22.1918 29.7653 22.0118 29.8103C21.9893 29.8103 21.9668 29.8328 22.0118 29.8553C22.6193 30.0803 23.7218 30.5078 23.9693 30.7103C24.2618 30.9578 24.2168 31.4528 24.0368 32.1278C23.8793 32.7578 23.5193 32.6903 23.3843 32.6453C23.3618 32.6453 23.3618 32.6453 23.3618 32.6678C23.5193 32.8703 23.7218 32.9378 23.8793 32.9378C24.1943 32.9378 24.3068 32.7353 24.4868 32.7353C24.7568 32.7353 25.3418 33.1178 25.3418 33.4328C25.3418 33.6128 25.2068 33.7478 25.0493 33.8603V33.8828C25.1393 33.9053 25.6793 33.9503 25.7693 33.4778ZM38.9993 33.9053C39.0218 33.9053 39.0218 33.8828 38.9993 33.8828C38.8193 33.7703 38.7068 33.6128 38.7068 33.4553C38.7068 33.1628 39.2693 32.7578 39.5618 32.7578C39.7193 32.7578 39.8543 32.9603 40.1693 32.9603C40.3268 32.9603 40.5293 32.8928 40.6868 32.6903C40.6868 32.6678 40.6868 32.6678 40.6643 32.6678C40.5293 32.6903 40.1693 32.7803 40.0118 32.1503C39.8318 31.4753 39.7868 31.0028 40.0793 30.7328C40.3268 30.5303 41.4293 30.1028 42.0368 29.8778C42.0818 29.8553 42.0593 29.8328 42.0368 29.8328C41.8568 29.7878 41.6993 29.6978 41.6768 29.4728C41.6543 29.3378 41.6768 29.1578 41.8343 29.0903C41.5418 28.7753 40.9568 28.5503 40.6418 28.5503C39.4493 28.5503 38.4368 30.1703 37.9418 30.1703C37.8743 30.1703 37.8068 30.1478 37.7393 30.0353C37.7168 30.0128 37.6943 30.0128 37.6943 30.0578C37.6943 30.5528 37.9418 30.5753 38.0993 30.5753C38.1668 30.5753 38.2568 30.5528 38.3243 30.5078C38.3468 30.5078 38.3468 30.5078 38.3468 30.5303C38.3468 30.5528 38.3468 30.5978 38.3468 30.6428C38.3468 31.2278 38.9543 31.8578 38.9543 31.8578C38.6843 32.1503 38.0093 32.6228 37.8068 32.3528C37.7168 32.2403 37.3793 31.6103 36.8843 32.1278C36.8618 32.1503 36.8843 32.1728 36.9068 32.1728C37.1768 32.1728 37.3793 32.3528 37.3118 32.6228C36.9293 32.3078 36.3893 32.3753 36.3893 33.0728C36.3893 33.0953 36.4118 33.1178 36.4343 33.0953C36.6818 32.7353 37.0868 32.9828 37.1543 33.0278C36.8843 33.0728 36.4118 33.3878 36.8393 33.9503C36.8618 33.9728 36.8843 33.9728 36.8843 33.9503C36.9293 33.5903 37.1543 33.5228 37.3343 33.5228C37.7168 33.5228 37.9868 33.8828 38.2793 33.5003C38.3243 33.9503 38.8643 33.9053 38.9993 33.9053ZM29.3243 24.5453C29.2793 24.5903 29.1668 24.5453 29.1218 24.5228C29.0993 24.5228 29.1218 24.5228 29.1218 24.5228C29.1668 24.5903 29.2793 24.7928 29.4593 24.7928C29.5493 24.7928 29.6618 24.7478 29.6843 24.6803C29.6843 24.6803 30.3818 24.9053 30.7418 24.9953C30.6068 25.1753 30.5168 25.4003 30.4943 25.6253C30.2018 25.4453 29.0768 24.8603 29.0768 24.8603L28.7168 25.3328C28.6493 25.4003 28.3793 25.1978 28.4243 25.1303L28.6943 24.7703C28.6043 24.6803 28.4018 24.7253 28.3343 24.7478C28.3343 24.7478 28.3118 24.7478 28.3343 24.7253C28.3793 24.6578 28.4918 24.4328 28.8293 24.5228C28.8293 24.3203 28.5368 24.3878 28.4468 24.4103C28.5368 24.3203 28.7618 24.1178 29.0543 24.2978L29.1668 24.1403L28.9193 23.8928L29.0768 23.6903L29.2568 23.9153L30.5618 22.1378C30.6068 22.0928 30.8543 22.0253 30.9443 22.0028C30.9443 22.1153 30.9668 22.3628 30.9443 22.4078L29.6618 24.2078L29.9318 24.2978L29.7968 24.5003L29.4818 24.3653L29.3243 24.5453ZM33.8693 24.2528C33.8693 24.4103 33.9818 24.6578 34.1843 24.5903H34.2068C34.1618 24.7703 33.8468 24.9503 33.7118 24.7253C33.5768 25.0178 33.5993 25.2653 33.8918 25.4228C33.9143 25.4228 33.9143 25.4453 33.8918 25.4678C33.7118 25.5803 33.4643 25.5578 33.3293 25.3328C33.1043 25.5128 33.1268 25.8728 33.2618 26.0078C33.2618 26.0078 32.6093 26.3903 32.0243 26.1203C31.6418 25.9403 31.3268 25.6928 30.8318 25.7378C30.8993 25.0403 31.2593 24.8603 31.8893 24.7478C32.4068 24.6578 32.4743 24.4328 32.3843 24.2528C32.2043 24.2078 31.8893 24.3653 31.8893 24.3653C31.8218 24.2753 31.9118 24.1628 31.9118 24.1628C31.8668 24.1178 31.8668 23.9828 31.8668 23.9828C32.2268 23.9828 32.2943 23.9153 32.2943 23.9153C32.3618 23.5328 31.9793 23.4878 31.6868 23.7128C31.5518 23.6003 31.5743 23.4203 31.5743 23.4203C31.5293 23.3978 31.5068 23.3303 31.5068 23.3078C31.5068 23.2178 31.9343 22.9703 32.0468 22.9478C32.0693 22.8128 32.2268 22.6553 32.6768 22.7003C32.7218 22.5878 32.6318 22.1378 32.5868 22.0253C32.5643 21.9803 32.5868 21.9578 32.6318 21.9803C32.7893 22.0928 32.9468 22.4528 33.0593 22.4528C33.0593 22.4528 33.5768 22.1828 33.5993 22.2053C33.6218 22.2278 33.6893 22.7903 33.6893 22.7903C33.7568 22.8803 34.1393 22.7903 34.3193 22.8578C34.3643 22.8803 34.3643 22.9028 34.3193 22.9253C34.1843 22.9478 33.7793 23.1278 33.7118 23.2403C33.9818 23.6003 33.8693 24.1178 33.8693 24.2528Z" fill="white"/>
</g>
<defs>
<clipPath id="clip0_3422_4812">
<rect width="64" height="64" rx="32" fill="white"/>
</clipPath>
</defs>
</svg>
