<svg width="80" height="81" viewBox="0 0 80 81" fill="none" xmlns="http://www.w3.org/2000/svg">
<g clip-path="url(#clip0_3422_604)">
<path d="M96.25 -19.498H-16.25V93.002H96.25V-19.498Z" fill="white"/>
<path d="M63.4286 -19.498H16.5442V62.5426H63.4286V-19.498Z" fill="#154373"/>
<path d="M40.8171 41.2523H40.0015V39.0023H40.8171V41.2523ZM44.5015 31.2961H43.6859V29.0461H44.5015V31.2961ZM29.3984 27.3867C29.3421 27.3867 28.9203 27.3867 28.9203 27.4711C28.9203 27.5555 29.1171 27.5273 29.3984 27.5555C30.0453 27.668 30.2984 28.0055 30.7484 28.0055C31.1703 28.0055 31.5921 27.7242 31.4234 27.1336C31.3953 27.0492 31.339 27.0492 31.339 27.1336C31.2828 27.3867 30.9453 27.5555 30.5796 27.5555C30.1578 27.5273 30.0734 27.3867 29.3984 27.3867ZM24.9265 29.6367C25.0109 29.7211 25.7703 30.7336 24.589 31.1273C24.5328 31.1555 24.5046 31.1836 24.589 31.2398C25.4609 31.6055 25.8828 30.9305 25.8828 30.9305C26.3328 31.943 25.6578 32.4773 25.6578 32.4773C25.7421 32.6461 26.164 32.9555 26.8109 33.0961C27.0359 32.9555 27.3734 32.7305 27.514 32.3367C27.514 32.3367 27.6828 32.7867 27.514 33.1805C29.2859 33.3492 29.9328 31.9148 31.3109 32.168C31.3671 32.168 31.3671 32.1398 31.3671 32.1117C31.3671 31.2398 30.8328 29.6367 29.1171 29.2992C27.4296 28.9617 27.8796 28.2867 27.8796 28.2867C28.5828 28.2586 29.0046 28.568 29.0046 28.568C29.1453 28.343 28.9484 28.118 28.9484 28.118C29.0046 28.0336 29.0609 27.7523 29.0609 27.7523C28.2734 27.7523 28.0484 27.5836 28.0484 27.5836C27.9078 27.1055 28.2734 26.4305 29.4546 27.1617C29.764 26.9086 29.7359 26.4867 29.7359 26.4867C29.8203 26.4305 29.8765 26.318 29.8765 26.2336C29.8765 26.0367 28.9203 25.5023 28.6671 25.4461C28.6109 25.1648 28.2453 24.743 27.1203 24.8836C26.5859 24.9398 26.1921 24.7992 26.389 24.4898C26.4171 24.4336 26.3328 24.4336 26.2765 24.4898C26.1359 24.6305 25.9953 24.968 26.4453 25.193C26.9515 25.4461 26.9796 25.9805 27.0078 26.0367C27.0078 26.1492 26.8671 26.1492 26.8671 26.0367C26.6421 25.1648 25.4328 24.968 24.7296 25.4461C24.7859 25.9242 25.264 26.2336 25.5453 26.2336C25.714 26.2336 25.9109 26.0648 25.9109 25.868C25.9109 25.7555 25.9671 25.7836 25.9953 25.868C26.1078 26.1773 25.6578 26.8242 24.9828 26.4305C24.2796 27.1336 24.5609 27.9773 24.6171 28.2867C24.7578 28.8492 24.4765 29.4117 23.9703 29.1586C23.9421 29.1586 23.914 29.1305 23.914 29.2148C23.914 29.5523 24.364 29.9461 24.9265 29.6367ZM28.7234 26.1492C28.414 26.5148 27.8796 26.4305 27.739 25.8398C28.414 25.8117 28.6953 25.868 28.7234 26.1492ZM49.3953 27.5273C49.0296 27.5273 48.7203 27.3867 48.6359 27.1055C48.6359 27.0492 48.5515 27.0211 48.5515 27.1055C48.3828 27.6961 48.8046 27.9773 49.2265 27.9773C49.6765 27.9773 49.9296 27.6398 50.5765 27.5273C50.8578 27.4711 51.0546 27.5273 51.0546 27.443C51.0546 27.3586 50.6328 27.3586 50.5765 27.3586C49.9296 27.3867 49.8453 27.5273 49.3953 27.5273ZM56.089 29.1867C56.089 29.1305 56.0609 29.1305 56.0328 29.1305C55.5265 29.3836 55.2453 28.8211 55.3859 28.2586C55.4703 27.9492 55.7515 27.0773 55.0203 26.4023C54.3453 26.7961 53.8671 26.1492 54.0078 25.8398C54.0359 25.7555 54.0921 25.7555 54.0921 25.8398C54.0921 26.0648 54.3171 26.2055 54.4578 26.2055C54.739 26.2055 55.2453 25.8961 55.2734 25.418C54.5703 24.968 53.389 25.1367 53.1359 26.0086C53.1078 26.1211 52.9671 26.093 52.9953 26.0086C52.9953 25.9242 53.0234 25.418 53.5578 25.1648C54.0359 24.9398 53.8671 24.6023 53.7265 24.4617C53.6703 24.4055 53.5859 24.4055 53.614 24.4617C53.7828 24.7711 53.4171 24.9117 52.8828 24.8555C51.7578 24.7148 51.3921 25.1086 51.3359 25.418C51.0828 25.4742 50.1265 26.0086 50.1265 26.2055C50.1265 26.2617 50.1828 26.4023 50.2671 26.4586C50.2671 26.4586 50.239 26.8523 50.5484 27.1336C51.7296 26.4023 52.0671 27.0773 51.9546 27.5555C51.9546 27.5555 51.7296 27.7242 50.9421 27.7242C50.9421 27.7242 50.9984 28.0055 51.0546 28.0898C51.0546 28.0898 50.8859 28.3148 50.9984 28.5398C50.9984 28.5398 51.4203 28.2305 52.1234 28.2586C52.1234 28.2586 52.5734 28.9617 50.8859 29.2711C49.1984 29.5805 48.6359 31.2117 48.6359 32.0836C48.6359 32.1398 48.664 32.1398 48.6921 32.1398C50.0703 31.8867 50.689 33.3211 52.489 33.1523C52.3203 32.7305 52.489 32.3086 52.489 32.3086C52.6296 32.6742 52.9671 32.9273 53.1921 33.068C53.8109 32.9273 54.2328 32.618 54.3453 32.4492C54.3453 32.4492 53.6703 31.8867 54.1203 30.9023C54.1203 30.9023 54.5421 31.5773 55.414 31.2117C55.4984 31.1836 55.4703 31.1273 55.414 31.0992C54.2328 30.7055 54.9921 29.7211 55.0765 29.6086C55.639 29.9461 56.089 29.5523 56.089 29.1867ZM52.2359 25.8398C52.0953 26.4305 51.589 26.5148 51.2515 26.1492C51.3078 25.868 51.589 25.8117 52.2359 25.8398ZM39.6921 15.8273C39.6921 15.968 39.7484 16.1086 39.8046 16.193C39.9171 16.3336 39.889 16.418 39.8609 16.4742C39.8046 16.5305 39.7203 16.5305 39.5796 16.418C39.4953 16.3617 39.3828 16.3055 39.214 16.3055C38.9609 16.3055 38.8203 16.4742 38.8203 16.6148C38.8203 16.7555 38.9609 16.9242 39.214 16.9242C39.3546 16.9242 39.4953 16.868 39.5796 16.8117C39.7203 16.6992 39.8046 16.7273 39.8609 16.7555C39.9171 16.8117 39.8328 17.318 39.7765 17.7117C39.3546 17.7961 39.1578 18.1336 39.1578 18.3305C39.1578 18.8367 39.6921 19.1461 40.0296 19.3148C40.339 19.1461 40.9015 18.8367 40.9015 18.3305C40.9015 18.1336 40.7046 17.7961 40.2828 17.7117C40.2265 17.318 40.1421 16.7836 40.1984 16.7555C40.2546 16.6992 40.339 16.6992 40.4796 16.8117C40.564 16.868 40.6765 16.9242 40.8453 16.9242C41.0984 16.9242 41.239 16.7555 41.239 16.6148C41.239 16.4742 41.0984 16.3055 40.8453 16.3055C40.7046 16.3055 40.564 16.3617 40.4796 16.418C40.339 16.5305 40.2546 16.5023 40.1984 16.4742C40.1421 16.418 40.1421 16.3336 40.2546 16.193C40.3109 16.1086 40.3671 15.9961 40.3671 15.8273C40.3671 15.5742 40.1984 15.4336 40.0578 15.4336C39.8609 15.4336 39.6921 15.5742 39.6921 15.8273ZM40.0015 19.6242C39.664 19.6242 39.3828 19.9055 39.3828 20.243C39.3828 20.5805 39.664 20.8617 40.0015 20.8617C40.339 20.8617 40.6203 20.5805 40.6203 20.243C40.6203 19.9055 40.339 19.6242 40.0015 19.6242ZM40.0015 25.643C42.5046 25.643 43.9109 26.1211 43.9109 26.1211C43.9109 24.8555 43.9109 24.1523 44.6421 24.2648C44.2484 23.1961 45.964 22.7742 45.964 21.3961C45.964 20.4961 45.3171 20.3836 45.1203 20.3836C44.5578 20.3836 44.6421 20.7492 44.164 20.7492C44.1078 20.7492 44.0515 20.7492 44.0515 20.7773C44.0515 20.9461 44.1921 21.1992 44.4171 21.1992C44.7265 21.1992 44.7265 20.8898 44.9515 20.8898C45.0359 20.8898 45.1765 20.9742 45.1765 21.2836C45.1765 21.8742 44.7828 22.5211 44.3328 23.0273C44.2203 22.8867 44.0796 22.8023 43.9109 22.8023C43.6578 22.8023 43.4046 23.0836 43.4046 23.4211C43.4046 23.5617 43.4328 23.6461 43.4609 23.7586C43.3203 23.843 43.1796 23.8992 43.0671 23.8992C42.8703 23.8992 42.5609 23.8148 42.5609 23.3648C42.5609 22.3523 43.9109 21.4805 43.9109 20.2148C43.9109 19.5961 43.5171 19.0055 42.6734 19.0055C41.7734 19.0055 41.9421 19.8492 41.1546 19.8492C41.1265 19.8492 41.0984 19.8492 41.0984 19.9055C41.0984 19.9617 41.239 20.4117 41.6328 20.4117C42.0828 20.4117 42.1953 19.6523 42.5609 19.6523C42.7015 19.6523 42.9265 19.7367 42.9265 20.243C42.9265 20.6367 42.7296 21.2836 42.4484 21.9023C42.3359 21.7898 42.1953 21.7336 42.0546 21.7336C41.7171 21.7336 41.4921 22.0711 41.4921 22.4367C41.4921 22.6898 41.5765 22.9148 41.7453 23.0836C41.5484 23.3367 41.3515 23.5336 41.0703 23.5336C40.5359 23.5336 40.2828 23.2242 40.2828 22.8867C40.2828 22.5211 40.9296 22.4086 40.9296 21.818C40.9296 21.4242 40.6765 21.1992 40.4515 21.1992C40.1984 21.1992 40.0578 21.368 40.0296 21.368C40.0015 21.368 39.8609 21.1992 39.6078 21.1992C39.3546 21.1992 39.1296 21.4242 39.1296 21.818C39.1296 22.3805 39.7765 22.5211 39.7765 22.8867C39.7765 23.2242 39.5515 23.5336 38.989 23.5336C38.7078 23.5336 38.5109 23.3367 38.314 23.0836C38.4828 22.9148 38.5671 22.6898 38.5671 22.4367C38.5671 22.043 38.314 21.7336 38.0046 21.7336C37.8359 21.7336 37.6953 21.818 37.6109 21.9023C37.3296 21.2836 37.1328 20.6367 37.1328 20.243C37.1328 19.7367 37.3578 19.6523 37.4984 19.6523C37.8921 19.6523 38.0046 20.4117 38.4265 20.4117C38.8203 20.4117 38.9609 19.9617 38.9609 19.9055C38.9609 19.8773 38.9328 19.8492 38.9046 19.8492C38.1171 19.8492 38.2859 19.0055 37.3859 19.0055C36.5421 19.0055 36.1484 19.6242 36.1484 20.2148C36.1484 21.4805 37.4984 22.3805 37.4984 23.3648C37.4984 23.8148 37.189 23.8992 36.9921 23.8992C36.8796 23.8992 36.7671 23.843 36.5984 23.7586C36.6546 23.6461 36.6546 23.5617 36.6546 23.4211C36.6546 23.0555 36.4296 22.8023 36.1484 22.8023C35.9796 22.8023 35.839 22.8867 35.7265 23.0273C35.2765 22.5211 34.8828 21.8742 34.8828 21.2836C34.8828 20.9742 35.0234 20.8898 35.1078 20.8898C35.3328 20.8898 35.3328 21.1992 35.6421 21.1992C35.8671 21.1992 36.0078 20.918 36.0078 20.7773C36.0078 20.7211 35.9515 20.7492 35.8953 20.7492C35.4171 20.7492 35.5015 20.3836 34.939 20.3836C34.7421 20.3836 34.0953 20.4961 34.0953 21.3961C34.0953 22.7742 35.8109 23.1961 35.4171 24.2648C36.1484 24.1523 36.1203 24.8555 36.1484 26.1211C36.0921 26.1211 37.4984 25.643 40.0015 25.643ZM35.4171 27.4992C34.7421 27.6398 34.2359 27.7805 34.039 27.8648C34.039 27.5555 34.1796 27.3023 34.4328 27.218C34.4609 27.218 34.489 27.1617 34.4328 27.1336C33.814 26.7398 33.5046 27.4992 33.5046 27.5273C33.2796 27.4992 32.9703 27.5836 32.9703 27.8648C32.9703 28.7367 31.0015 29.2148 30.5234 29.2711C31.339 29.5805 31.6765 30.593 31.6765 30.593C32.2671 30.0023 32.9421 29.4961 33.1109 29.4961C33.2796 29.4961 33.3359 29.693 33.3359 29.8055C33.3359 29.8617 33.3921 29.8617 33.3921 29.8336C33.7015 29.3836 33.5609 29.2711 33.5328 29.1305C33.5046 29.018 33.5328 28.6242 33.9828 28.6805V34.4742L33.7578 34.5305C33.6453 34.5586 32.8015 33.8273 31.8171 33.1523C30.8609 32.4773 30.3265 32.8992 29.2296 33.4898C27.7671 34.2773 26.3328 33.5742 26.3328 33.5742C25.0953 34.4742 24.6734 37.0617 24.6734 37.0617C24.4203 37.1742 24.0265 37.2867 23.6046 37.2867C22.6484 37.2867 22.4796 36.7242 22.4796 36.3586C22.4796 34.8961 24.3359 34.2492 24.3359 32.8148C24.3359 32.4492 24.1671 31.043 22.3953 31.043C22.1703 31.043 20.8203 31.043 20.8203 31.043C20.1734 31.043 19.9765 30.5648 19.8921 30.3961C19.864 30.3398 19.8078 30.368 19.8078 30.4242C19.864 30.5367 19.7234 30.7336 19.7234 31.0992C19.7234 31.6898 20.0609 32.0273 20.7078 32.0273C21.0171 32.0273 21.2703 31.943 21.3546 31.8867C21.4109 31.8586 21.439 31.9148 21.4109 31.943C21.1296 32.2805 21.1015 32.8711 21.214 33.0398C21.2421 33.068 21.2703 33.068 21.2703 33.0398C21.439 32.4211 22.0015 31.8305 22.789 31.8305C23.7453 31.8305 23.7453 32.6461 23.7453 32.843C23.7453 34.0242 21.664 34.8961 21.664 36.4992C21.664 38.1586 23.4078 38.4961 24.4203 38.243C24.364 39.9023 22.4796 40.4367 22.4234 39.2836C22.4234 39.2273 22.3671 39.1992 22.339 39.2836C22.114 39.8742 22.1984 40.3805 22.9296 40.5492C22.9859 40.5492 22.9578 40.6055 22.9015 40.6336C22.1984 41.1117 22.5921 42.9398 22.6203 43.4742C22.6765 44.2336 21.9171 44.1492 21.8328 44.1211C21.8046 44.1211 21.7765 44.1211 21.8328 44.1773C22.3671 44.8242 23.0421 44.2336 23.0421 44.2336C23.5484 44.4023 23.239 44.8242 22.9015 45.0492C22.8453 45.0773 22.8453 45.1336 22.9015 45.1336C22.9859 45.1336 23.7734 45.218 23.914 44.5711C24.2796 44.993 24.7859 44.8242 24.8703 44.7961C25.0109 44.7117 25.7421 44.4586 25.8265 45.2742C25.8265 45.3305 25.8828 45.3023 25.8828 45.2742C26.4453 44.5711 25.8265 44.1492 25.5171 44.093C25.5453 44.0367 25.9953 43.6992 26.389 44.2055C26.4171 44.2336 26.4453 44.2617 26.4453 44.1773C26.5015 43.3055 25.7703 43.2211 25.2921 43.5867C25.264 43.5023 25.1234 42.9961 25.8265 43.0242C25.8546 43.0242 25.8828 42.9961 25.8265 42.968C25.2921 42.4055 24.814 42.9117 24.7296 43.0523C24.4765 43.3336 23.8859 43.2211 23.8296 43.2211C24.0265 40.1555 26.7265 41.2242 27.0921 39.7336C27.1203 39.6492 27.1484 39.6773 27.1484 39.7055C27.2609 40.0711 28.1609 40.1273 28.3296 39.3961C28.3296 39.3398 28.3296 39.3117 28.3015 39.3398C27.514 40.1273 25.7421 37.6805 28.1609 35.6836C30.214 33.9961 32.0703 34.9242 32.7734 35.4867C32.8015 35.7398 32.6609 35.8242 32.5765 35.8523C32.5484 35.8523 32.5203 35.9086 32.5765 35.9086C32.7734 35.993 33.0546 35.9648 33.1953 35.768C33.6453 36.0773 33.2515 36.4711 33.0828 36.5836C33.0265 36.6117 33.0546 36.6398 33.0828 36.6398C33.4765 36.7242 33.814 36.3023 33.8421 36.0773L33.8984 36.1336V37.8773C33.8984 40.3805 36.7671 40.718 39.9171 42.8273C43.0671 40.718 45.9359 40.3523 45.9359 37.8773V36.1336L45.9921 36.0773C46.0203 36.3023 46.3578 36.7242 46.7515 36.6398C46.8078 36.6398 46.8078 36.6117 46.7515 36.5836C46.5828 36.4711 46.189 36.0773 46.639 35.768C46.7796 35.9367 47.0328 35.9648 47.2578 35.9086C47.314 35.8805 47.314 35.8523 47.2578 35.8523C47.1734 35.8242 47.0046 35.7398 47.0609 35.4867C47.764 34.9242 49.6203 33.9961 51.6734 35.6836C54.0921 37.6805 52.3203 40.1273 51.5328 39.3398C51.5046 39.3117 51.4765 39.3398 51.5046 39.3961C51.6734 40.1273 52.6015 40.0711 52.6859 39.7055C52.6859 39.6773 52.7421 39.6492 52.7421 39.7336C53.1078 41.2242 55.8359 40.1273 56.0046 43.2211C55.9484 43.2211 55.3578 43.3336 55.1046 43.0523C54.9921 42.9117 54.5421 42.4055 54.0078 42.968C53.9796 42.9961 54.0078 43.0242 54.0078 43.0242C54.7109 42.9961 54.5703 43.5023 54.5421 43.5867C54.064 43.193 53.3609 43.2773 53.389 44.1773C53.389 44.2617 53.4171 44.2336 53.4453 44.2055C53.839 43.6992 54.289 44.0648 54.3171 44.093C53.9796 44.1492 53.389 44.5711 53.9515 45.2742C53.9796 45.3023 54.0078 45.3586 54.0078 45.2742C54.0921 44.4305 54.8234 44.7117 54.964 44.7961C55.0765 44.8523 55.5828 44.993 55.9203 44.5711C56.0609 45.1898 56.8484 45.1336 56.9328 45.1336C56.989 45.1336 56.989 45.0773 56.9328 45.0492C56.5953 44.8242 56.2859 44.4023 56.7921 44.2336C56.7921 44.2336 57.4671 44.8523 58.0015 44.1773C58.0578 44.1211 58.0296 44.093 58.0015 44.1211C57.9453 44.1492 57.1578 44.2336 57.214 43.4742C57.2421 42.9398 57.6359 41.1117 56.9046 40.6617C56.8484 40.6336 56.8203 40.6055 56.8765 40.5773C57.6078 40.4086 57.7203 39.9023 57.4671 39.3117C57.439 39.2273 57.3828 39.2555 57.3828 39.3117C57.3265 40.493 55.4421 39.9305 55.3859 38.2711C56.3984 38.5242 58.1421 38.1867 58.1421 36.5273C58.1421 34.8961 56.0609 34.0242 56.0609 32.8711C56.0609 32.6742 56.0609 31.8586 57.0171 31.8586C57.8046 31.8586 58.3671 32.4492 58.5359 33.068C58.5359 33.0961 58.5921 33.1242 58.5921 33.068C58.7046 32.9273 58.6765 32.3086 58.3953 31.9711C58.3671 31.943 58.3953 31.8867 58.4515 31.9148C58.5359 31.9711 58.8171 32.0555 59.0984 32.0555C59.7453 32.0555 60.0828 31.6898 60.0828 31.1273C60.0828 30.7617 59.9421 30.5648 59.9984 30.4523C60.0265 30.3961 59.9421 30.368 59.914 30.4242C59.8296 30.593 59.6609 31.0711 58.9859 31.0711C58.9859 31.0711 57.6359 31.0711 57.4109 31.0711C55.639 31.0711 55.4703 32.5055 55.4703 32.843C55.4703 34.3055 57.3265 34.9242 57.3265 36.3867C57.3265 36.7242 57.1578 37.3148 56.2015 37.3148C55.8078 37.3148 55.414 37.2023 55.1328 37.0898C55.1328 37.0898 54.7109 34.5023 53.4734 33.6023C53.4734 33.6023 52.0109 34.3055 50.5765 33.518C49.4796 32.9273 48.9453 32.5055 47.989 33.1805C47.0328 33.8555 46.1609 34.5867 46.0765 34.5586L45.8515 34.5023V28.7086C46.3015 28.6523 46.3296 29.0742 46.3015 29.1586C46.2734 29.2992 46.1328 29.4117 46.4421 29.8617C46.4703 29.8898 46.4984 29.8898 46.4984 29.8336C46.4984 29.7211 46.5828 29.5242 46.7234 29.5242C46.864 29.5242 47.5671 30.0586 48.1578 30.6211C48.1578 30.6211 48.4953 29.6086 49.3109 29.2992C48.8609 29.2148 46.864 28.7367 46.864 27.893C46.864 27.6117 46.5265 27.5273 46.3296 27.5555C46.3296 27.5273 45.9921 26.768 45.4015 27.1617C45.3734 27.1898 45.3734 27.218 45.4015 27.2461C45.6546 27.3023 45.7953 27.5836 45.7953 27.893C45.2328 27.7242 42.7578 27.0211 39.8328 27.0211C38.4265 27.0211 37.1046 27.1898 36.064 27.3867V29.4117H35.2765V27.4992H35.4171ZM30.0171 48.0867C29.7921 48.0023 29.6515 47.8617 29.6515 47.5805V46.3148C29.2859 46.1742 28.3296 45.8086 26.3609 45.8086C24.7296 45.8086 24.2234 46.1742 24.1953 46.2867L23.7734 48.6492C23.7734 48.6492 24.4203 48.0586 26.7828 48.1992C29.6234 48.368 32.5484 50.0555 32.5484 48.2836V47.243C30.3546 47.2711 30.0171 47.9742 30.0171 48.0867ZM47.4265 47.2711V48.3117C47.4265 50.0836 50.3515 48.4242 53.1921 48.2273C55.5265 48.0867 56.2015 48.6773 56.2015 48.6773L55.7796 46.3148C55.7515 46.1742 55.2453 45.8367 53.614 45.8367C51.6734 45.8367 50.689 46.2023 50.3234 46.343V47.5805C50.3234 47.8617 50.1828 48.0023 49.9578 48.0867C49.9859 47.9742 49.6484 47.2711 47.4265 47.2711ZM40.0015 46.2023C44.5578 46.2023 49.1984 46.4273 49.789 47.1305C49.8453 47.1867 49.8453 47.1305 49.8453 47.0742V44.6555C49.8453 43.9523 45.064 43.5305 40.0015 43.5305C34.939 43.5305 30.1578 43.9242 30.1578 44.6555V47.0742C30.1578 47.1305 30.1859 47.1586 30.214 47.1305C30.8046 46.4273 35.4453 46.2023 40.0015 46.2023ZM35.9515 34.8117L35.5015 34.6992L35.4453 34.7555L34.9109 34.5305C34.9109 34.5305 35.3046 34.5305 35.389 34.5305C35.4453 34.5305 35.4453 34.5023 35.4171 34.4742C35.1921 34.2492 35.0234 34.0805 35.0234 34.0805C35.0234 34.0805 35.2484 34.1648 35.5578 34.2773C35.5859 34.2773 35.614 34.2773 35.5859 34.2492C35.4453 34.0242 35.2203 33.743 35.2203 33.743C35.2203 33.743 35.6421 34.0242 35.7546 34.1086C35.7828 34.1367 35.8109 34.1086 35.8109 34.0805C35.6984 33.7992 35.5578 33.4617 35.5578 33.4617L36.0359 33.9117C36.064 33.9398 36.0921 33.9117 36.0921 33.8836C36.0359 33.6586 35.9515 33.2648 35.9515 33.2648L36.3171 33.7711C36.3453 33.7992 36.3734 33.7992 36.3734 33.7711C36.3734 33.6867 36.3734 33.2086 36.3734 33.2086C36.3734 33.2086 36.514 33.5461 36.5984 33.7148C36.5984 33.743 36.6546 33.743 36.6546 33.7148C36.6828 33.6586 36.8234 33.293 36.8234 33.293L36.8515 33.8555H36.7671L36.6828 34.5586C37.3859 34.3898 38.2296 33.2086 38.8765 33.2086C39.664 33.2086 39.9453 34.1367 41.3796 33.6586C41.7453 34.193 41.8578 34.6711 41.9984 35.318C42.5609 35.8523 43.3484 35.6836 43.3484 35.1211C43.3484 34.3617 42.5328 34.2211 42.5328 33.4617C42.5328 33.0961 42.7859 32.618 43.4609 32.618C43.8265 32.618 44.3328 32.7586 44.6421 32.7586C45.0078 32.7586 45.064 32.5055 45.1203 32.393C45.1484 32.3086 45.2609 32.3367 45.2328 32.393C45.2328 32.4773 45.289 32.5617 45.289 32.7305C45.289 33.2086 44.5578 33.293 44.4734 33.2367C44.4453 33.2086 44.4171 33.2367 44.4453 33.2648C44.5578 33.3492 44.5296 33.6586 44.389 33.8273C44.389 33.8555 44.3609 33.8555 44.3328 33.8273C44.2484 33.4617 43.8546 33.0398 43.4609 33.0398C43.3203 33.0398 43.0671 33.1242 43.0671 33.4336C43.0671 33.8836 43.9671 34.2773 43.9671 35.2055C43.9671 36.1617 43.0109 36.3867 42.0546 36.1617C42.0828 37.0617 43.4328 37.6242 43.4609 36.9492C43.4609 36.893 43.489 36.9211 43.5171 36.9492C43.714 37.2305 43.6296 37.4273 43.3765 37.5398C43.6015 37.6523 43.6578 38.1305 43.7421 38.4117C43.8546 38.8336 44.3046 38.6086 44.3046 38.5805C44.3328 38.5805 44.3328 38.5805 44.3328 38.6086C44.164 39.0586 43.714 38.8898 43.714 38.8898C43.489 39.0586 43.7703 39.1992 43.9671 39.2836C43.9953 39.2836 43.9953 39.3117 43.9671 39.3398C43.7984 39.3961 43.4609 39.5086 43.3203 39.2273C43.2078 39.5367 42.9546 39.5086 42.8421 39.5086C42.6734 39.5086 42.5609 39.6773 42.589 39.9305C42.589 39.9586 42.589 39.9586 42.5609 39.9305C42.139 39.6492 42.3921 39.3398 42.5609 39.2555C42.5328 39.2273 42.2515 39.1148 42.1109 39.4523C42.1109 39.4805 42.0828 39.4805 42.0828 39.4523C41.914 38.9742 42.3078 38.8336 42.589 38.9461C42.5609 38.8898 42.4203 38.6367 42.0546 38.7211C42.0265 38.7211 42.0265 38.7211 42.0265 38.693C42.0828 38.5523 42.2796 38.3273 42.6171 38.5523C42.7859 38.6648 43.0953 38.4961 43.1234 38.4961C42.5046 37.2867 41.3515 38.2992 41.0703 37.343C41.0703 37.3148 41.0421 37.3148 41.014 37.343C40.9578 37.5398 40.4515 37.568 40.339 37.1742C40.339 37.1461 40.339 37.1461 40.3671 37.1742C40.4515 37.2586 40.5921 37.3148 40.8171 37.0055C40.9578 36.8086 40.9859 36.5273 40.9859 36.3586C40.9859 35.6273 40.2546 34.3898 39.1015 34.3898C38.3703 34.3898 37.6109 34.6711 37.0203 35.093L37.5546 35.2336C37.4984 35.768 36.9921 36.1055 36.4859 35.9648L36.5703 35.3461C36.4859 35.3742 36.2609 35.4305 36.1765 35.5992H36.1484C36.064 35.2336 36.3453 35.0648 36.4296 35.0367C36.1765 35.0367 36.0359 35.2055 35.9796 35.2898H35.9515C35.8671 35.1211 35.8109 34.9242 35.9515 34.8117ZM37.5265 39.0023C37.3296 39.2555 37.1328 39.0023 36.8796 39.0023C36.6265 39.0023 36.5703 39.2273 36.5703 39.3117C36.5703 39.3117 36.5703 39.3398 36.5421 39.3117C36.2609 38.918 36.5703 38.693 36.7671 38.6648C36.739 38.6367 36.4578 38.4398 36.289 38.7211C36.289 38.7492 36.2609 38.7211 36.2609 38.7211C36.2609 38.243 36.6265 38.1867 36.8796 38.4117C36.9359 38.243 36.7953 38.1023 36.5984 38.1023C36.5703 38.1023 36.5703 38.0742 36.5703 38.0742C36.6546 37.9898 36.739 37.9336 36.8234 37.9336C37.0765 37.9336 37.1328 38.2711 37.3015 38.2711C37.5546 38.2711 37.9484 37.9055 37.9765 37.8773C37.9765 37.8492 37.7234 37.1742 37.7515 36.7523C37.7515 36.7242 37.7515 36.7242 37.7234 36.7523C37.5828 36.8367 37.2734 36.8367 37.2734 36.4148C37.2734 36.3867 37.2734 36.3867 37.3015 36.4148C37.4421 36.6117 37.6671 36.3867 37.7796 36.2461C37.9203 36.1055 38.5671 35.1492 39.4671 35.1492C39.664 35.1492 39.9171 35.2617 40.114 35.4023C39.8046 35.768 40.114 36.1336 40.339 36.1055C40.3671 36.1055 40.3671 36.1336 40.339 36.1336C39.1578 36.5836 38.6234 36.7523 38.6234 37.7367C38.6234 38.243 38.7921 38.5242 39.1015 38.468C39.1296 38.468 39.1296 38.468 39.1015 38.4961C38.989 38.6367 38.8765 38.6648 38.764 38.6648C38.5109 38.6648 38.4828 38.5242 38.3421 38.5242C38.2015 38.5242 37.7796 38.7773 37.7796 39.0023C37.7796 39.0867 37.8359 39.1992 37.9765 39.3117C37.9765 39.3117 37.9765 39.3117 37.9765 39.3398C37.9484 39.3117 37.6109 39.3117 37.5265 39.0023ZM40.6484 29.3836C40.2828 29.3555 40.0296 29.4398 40.0578 29.5523C40.2265 29.7773 40.4515 29.7492 40.6484 29.3836ZM39.2703 30.3117C39.5234 30.2555 39.8046 30.2836 39.8328 30.2836C39.889 30.2836 39.889 30.368 39.8328 30.368C39.2984 30.4523 39.2703 30.6773 38.9046 30.6773C38.6796 30.6773 38.4265 30.4523 38.5109 30.1148C38.5109 30.0586 38.5671 30.0586 38.5671 30.1148C38.6515 30.2555 38.8484 30.4242 39.2703 30.3117ZM32.2109 42.3492C32.5765 42.7992 32.914 42.3773 33.3921 42.3773C33.6171 42.3773 33.8984 42.4617 33.9546 42.9117C33.9546 42.9398 33.9828 42.9398 34.0109 42.9117C34.5171 42.2086 33.9265 41.8148 33.6171 41.7586C33.7015 41.7023 34.1796 41.393 34.5171 41.843C34.5453 41.8711 34.5734 41.8711 34.5734 41.8148C34.5734 40.943 33.8984 40.8586 33.4203 41.2523C33.3359 40.8867 33.589 40.6898 33.9265 40.6898C33.9828 40.6898 33.9828 40.6617 33.9546 40.6336C33.364 39.9867 32.914 40.8023 32.8015 40.9148C32.5765 41.2242 31.7046 40.6336 31.3671 40.2961C31.3671 40.2961 32.1265 39.5086 32.1265 38.7773C32.1265 38.7211 32.1265 38.6648 32.1265 38.6367C32.1265 38.6086 32.1265 38.6086 32.1546 38.6086C32.239 38.6648 32.3234 38.693 32.4359 38.693C32.6046 38.693 32.9421 38.6367 32.9421 38.0461C32.9421 37.9898 32.914 37.9898 32.8859 38.018C32.8015 38.1586 32.689 38.1867 32.6328 38.1867C32.014 38.1867 30.7484 36.1617 29.2578 36.1617C28.864 36.1617 28.1328 36.443 27.7671 36.8367C27.9359 36.9492 27.9921 37.1742 27.964 37.3148C27.9359 37.568 27.739 37.7086 27.514 37.7648C27.4859 37.7648 27.4578 37.793 27.514 37.8211C28.2734 38.1023 29.6515 38.6367 29.9609 38.8898C30.3265 39.1992 30.2703 39.818 30.0453 40.6617C29.8484 41.4492 29.3984 41.3648 29.2296 41.3086C29.2015 41.3086 29.2015 41.3086 29.2015 41.3367C29.3984 41.5898 29.6515 41.6742 29.8484 41.6742C30.2421 41.6742 30.3828 41.4211 30.6078 41.4211C30.9453 41.4211 31.6765 41.8992 31.6765 42.293C31.6765 42.518 31.5078 42.6867 31.3109 42.8273V42.8555C31.4234 42.8836 32.0984 42.9398 32.2109 42.3492ZM48.7484 42.8836C48.7765 42.8836 48.7765 42.8555 48.7484 42.8555C48.5234 42.7148 48.3828 42.518 48.3828 42.3211C48.3828 41.9555 49.0859 41.4492 49.4515 41.4492C49.6484 41.4492 49.8171 41.7023 50.2109 41.7023C50.4078 41.7023 50.6609 41.618 50.8578 41.3648C50.8578 41.3367 50.8578 41.3367 50.8296 41.3367C50.6609 41.3648 50.2109 41.4773 50.014 40.6898C49.789 39.8461 49.7328 39.2555 50.0984 38.918C50.4078 38.6648 51.7859 38.1305 52.5453 37.8492C52.6015 37.8211 52.5734 37.793 52.5453 37.793C52.3203 37.7367 52.1234 37.6242 52.0953 37.343C52.0671 37.1742 52.0953 36.9492 52.2921 36.8648C51.9265 36.4711 51.1953 36.1898 50.8015 36.1898C49.3109 36.1898 48.0453 38.2148 47.4265 38.2148C47.3421 38.2148 47.2578 38.1867 47.1734 38.0461C47.1453 38.018 47.1171 38.018 47.1171 38.0742C47.1171 38.693 47.4265 38.7211 47.6234 38.7211C47.7078 38.7211 47.8203 38.693 47.9046 38.6367C47.9328 38.6367 47.9328 38.6367 47.9328 38.6648C47.9328 38.693 47.9328 38.7492 47.9328 38.8055C47.9328 39.5367 48.6921 40.3242 48.6921 40.3242C48.3546 40.6898 47.5109 41.2805 47.2578 40.943C47.1453 40.8023 46.7234 40.0148 46.1046 40.6617C46.0765 40.6898 46.1046 40.718 46.1328 40.718C46.4703 40.718 46.7234 40.943 46.639 41.2805C46.1609 40.8867 45.4859 40.9711 45.4859 41.843C45.4859 41.8711 45.514 41.8992 45.5421 41.8711C45.8515 41.4211 46.3578 41.7305 46.4421 41.7867C46.1046 41.843 45.514 42.2367 46.0484 42.9398C46.0765 42.968 46.1046 42.968 46.1046 42.9398C46.1609 42.4898 46.4421 42.4055 46.6671 42.4055C47.1453 42.4055 47.4828 42.8555 47.8484 42.3773C47.9046 42.9398 48.5796 42.8836 48.7484 42.8836ZM36.6546 31.1836C36.5984 31.2398 36.4578 31.1836 36.4015 31.1555C36.3734 31.1555 36.4015 31.1555 36.4015 31.1555C36.4578 31.2398 36.5984 31.493 36.8234 31.493C36.9359 31.493 37.0765 31.4367 37.1046 31.3523C37.1046 31.3523 37.9765 31.6336 38.4265 31.7461C38.2578 31.9711 38.1453 32.2523 38.1171 32.5336C37.7515 32.3086 36.3453 31.5773 36.3453 31.5773L35.8953 32.168C35.8109 32.2523 35.4734 31.9992 35.5296 31.9148L35.8671 31.4648C35.7546 31.3523 35.5015 31.4086 35.4171 31.4367C35.4171 31.4367 35.389 31.4367 35.4171 31.4086C35.4734 31.3242 35.614 31.043 36.0359 31.1555C36.0359 30.9023 35.6703 30.9867 35.5578 31.0148C35.6703 30.9023 35.9515 30.6492 36.3171 30.8742L36.4578 30.6773L36.1484 30.368L36.3453 30.1148L36.5703 30.3961L38.2015 28.1742C38.2578 28.118 38.5671 28.0336 38.6796 28.0055C38.6796 28.1461 38.7078 28.4555 38.6796 28.5117L37.0765 30.7617L37.414 30.8742L37.2453 31.1273L36.8515 30.9586L36.6546 31.1836ZM42.3359 30.818C42.3359 31.0148 42.4765 31.3242 42.7296 31.2398H42.7578C42.7015 31.4648 42.3078 31.6898 42.139 31.4086C41.9703 31.7742 41.9984 32.0836 42.364 32.2805C42.3921 32.2805 42.3921 32.3086 42.364 32.3367C42.139 32.4773 41.8296 32.4492 41.6609 32.168C41.3796 32.393 41.4078 32.843 41.5765 33.0117C41.5765 33.0117 40.7609 33.4898 40.0296 33.1523C39.5515 32.9273 39.1578 32.618 38.539 32.6742C38.6234 31.8023 39.0734 31.5773 39.8609 31.4367C40.5078 31.3242 40.5921 31.043 40.4796 30.818C40.2546 30.7617 39.8609 30.9586 39.8609 30.9586C39.7765 30.8461 39.889 30.7055 39.889 30.7055C39.8328 30.6492 39.8328 30.4805 39.8328 30.4805C40.2828 30.4805 40.3671 30.3961 40.3671 30.3961C40.4515 29.918 39.9734 29.8617 39.6078 30.143C39.439 30.0023 39.4671 29.7773 39.4671 29.7773C39.4109 29.7492 39.3828 29.6648 39.3828 29.6367C39.3828 29.5242 39.9171 29.2148 40.0578 29.1867C40.0859 29.018 40.2828 28.8211 40.8453 28.8773C40.9015 28.7367 40.789 28.1742 40.7328 28.0336C40.7046 27.9773 40.7328 27.9492 40.789 27.9773C40.9859 28.118 41.1828 28.568 41.3234 28.568C41.3234 28.568 41.9703 28.2305 41.9984 28.2586C42.0265 28.2867 42.1109 28.9898 42.1109 28.9898C42.1953 29.1023 42.6734 28.9898 42.8984 29.0742C42.9546 29.1023 42.9546 29.1305 42.8984 29.1586C42.7296 29.1867 42.2234 29.4117 42.139 29.5523C42.4765 30.0023 42.3359 30.6492 42.3359 30.818Z" fill="white"/>
</g>
<defs>
<clipPath id="clip0_3422_604">
<rect y="0.501953" width="80" height="80" rx="40" fill="white"/>
</clipPath>
</defs>
</svg>
