<svg width="80" height="80" viewBox="0 0 80 80" fill="none" xmlns="http://www.w3.org/2000/svg">
<g clip-path="url(#clip0_3178_11073)">
<path d="M96.25 -20H-16.25V92.5H96.25V-20Z" fill="white"/>
<path d="M63.4286 -20H16.5442V62.0406H63.4286V-20Z" fill="#154373"/>
<path d="M40.8171 40.7499H40.0015V38.4999H40.8171V40.7499ZM44.5015 30.7937H43.6859V28.5437H44.5015V30.7937ZM29.3984 26.8843C29.3421 26.8843 28.9203 26.8843 28.9203 26.9687C28.9203 27.053 29.1171 27.0249 29.3984 27.053C30.0453 27.1655 30.2984 27.503 30.7484 27.503C31.1703 27.503 31.5921 27.2218 31.4234 26.6312C31.3953 26.5468 31.339 26.5468 31.339 26.6312C31.2828 26.8843 30.9453 27.053 30.5796 27.053C30.1578 27.0249 30.0734 26.8843 29.3984 26.8843ZM24.9265 29.1343C25.0109 29.2186 25.7703 30.2311 24.589 30.6249C24.5328 30.653 24.5046 30.6811 24.589 30.7374C25.4609 31.103 25.8828 30.428 25.8828 30.428C26.3328 31.4405 25.6578 31.9749 25.6578 31.9749C25.7421 32.1437 26.164 32.453 26.8109 32.5936C27.0359 32.453 27.3734 32.228 27.514 31.8343C27.514 31.8343 27.6828 32.2843 27.514 32.678C29.2859 32.8468 29.9328 31.4124 31.3109 31.6655C31.3671 31.6655 31.3671 31.6374 31.3671 31.6093C31.3671 30.7374 30.8328 29.1343 29.1171 28.7968C27.4296 28.4593 27.8796 27.7843 27.8796 27.7843C28.5828 27.7561 29.0046 28.0655 29.0046 28.0655C29.1453 27.8405 28.9484 27.6155 28.9484 27.6155C29.0046 27.5312 29.0609 27.2499 29.0609 27.2499C28.2734 27.2499 28.0484 27.0811 28.0484 27.0811C27.9078 26.603 28.2734 25.928 29.4546 26.6593C29.764 26.4061 29.7359 25.9843 29.7359 25.9843C29.8203 25.928 29.8765 25.8155 29.8765 25.7312C29.8765 25.5343 28.9203 24.9999 28.6671 24.9437C28.6109 24.6624 28.2453 24.2405 27.1203 24.3812C26.5859 24.4374 26.1921 24.2968 26.389 23.9874C26.4171 23.9311 26.3328 23.9311 26.2765 23.9874C26.1359 24.128 25.9953 24.4655 26.4453 24.6905C26.9515 24.9436 26.9796 25.478 27.0078 25.5343C27.0078 25.6468 26.8671 25.6468 26.8671 25.5343C26.6421 24.6624 25.4328 24.4655 24.7296 24.9437C24.7859 25.4218 25.264 25.7312 25.5453 25.7312C25.714 25.7312 25.9109 25.5624 25.9109 25.3655C25.9109 25.253 25.9671 25.2812 25.9953 25.3655C26.1078 25.6749 25.6578 26.3218 24.9828 25.928C24.2796 26.6312 24.5609 27.4749 24.6171 27.7843C24.7578 28.3468 24.4765 28.9093 23.9703 28.6561C23.9421 28.6561 23.914 28.628 23.914 28.7124C23.914 29.0499 24.364 29.4436 24.9265 29.1343ZM28.7234 25.6468C28.414 26.0124 27.8796 25.928 27.739 25.3374C28.414 25.3093 28.6953 25.3655 28.7234 25.6468ZM49.3953 27.0249C49.0296 27.0249 48.7203 26.8843 48.6359 26.603C48.6359 26.5468 48.5515 26.5187 48.5515 26.603C48.3828 27.1936 48.8046 27.4749 49.2265 27.4749C49.6765 27.4749 49.9296 27.1374 50.5765 27.0249C50.8578 26.9686 51.0546 27.0249 51.0546 26.9405C51.0546 26.8561 50.6328 26.8562 50.5765 26.8562C49.9296 26.8843 49.8453 27.0249 49.3953 27.0249ZM56.089 28.6843C56.089 28.628 56.0609 28.628 56.0328 28.628C55.5265 28.8811 55.2453 28.3187 55.3859 27.7562C55.4703 27.4468 55.7515 26.5749 55.0203 25.8999C54.3453 26.2936 53.8671 25.6468 54.0078 25.3374C54.0359 25.253 54.0921 25.253 54.0921 25.3374C54.0921 25.5624 54.3171 25.703 54.4578 25.703C54.739 25.703 55.2453 25.3937 55.2734 24.9155C54.5703 24.4655 53.389 24.6343 53.1359 25.5062C53.1078 25.6187 52.9671 25.5905 52.9953 25.5062C52.9953 25.4218 53.0234 24.9155 53.5578 24.6624C54.0359 24.4374 53.8671 24.0999 53.7265 23.9593C53.6703 23.903 53.5859 23.903 53.614 23.9593C53.7828 24.2687 53.4171 24.4093 52.8828 24.353C51.7578 24.2124 51.3921 24.6062 51.3359 24.9155C51.0828 24.9718 50.1265 25.5062 50.1265 25.703C50.1265 25.7593 50.1828 25.8999 50.2671 25.9561C50.2671 25.9561 50.239 26.3499 50.5484 26.6312C51.7296 25.8999 52.0671 26.5749 51.9546 27.053C51.9546 27.053 51.7296 27.2218 50.9421 27.2218C50.9421 27.2218 50.9984 27.503 51.0546 27.5874C51.0546 27.5874 50.8859 27.8124 50.9984 28.0374C50.9984 28.0374 51.4203 27.728 52.1234 27.7562C52.1234 27.7562 52.5734 28.4593 50.8859 28.7686C49.1984 29.078 48.6359 30.7093 48.6359 31.5811C48.6359 31.6374 48.664 31.6374 48.6921 31.6374C50.0703 31.3843 50.689 32.8186 52.489 32.6499C52.3203 32.228 52.489 31.8061 52.489 31.8061C52.6296 32.1718 52.9671 32.4249 53.1921 32.5655C53.8109 32.4249 54.2328 32.1155 54.3453 31.9468C54.3453 31.9468 53.6703 31.3843 54.1203 30.3999C54.1203 30.3999 54.5421 31.0749 55.414 30.7093C55.4984 30.6812 55.4703 30.6249 55.414 30.5968C54.2328 30.203 54.9921 29.2187 55.0765 29.1062C55.639 29.4437 56.089 29.0499 56.089 28.6843ZM52.2359 25.3374C52.0953 25.928 51.589 26.0124 51.2515 25.6468C51.3078 25.3655 51.589 25.3093 52.2359 25.3374ZM39.6921 15.3249C39.6921 15.4655 39.7484 15.6062 39.8046 15.6905C39.9171 15.8312 39.889 15.9155 39.8609 15.9718C39.8046 16.028 39.7203 16.028 39.5796 15.9155C39.4953 15.8593 39.3828 15.803 39.214 15.803C38.9609 15.803 38.8203 15.9718 38.8203 16.1124C38.8203 16.253 38.9609 16.4218 39.214 16.4218C39.3546 16.4218 39.4953 16.3655 39.5796 16.3093C39.7203 16.1968 39.8046 16.2249 39.8609 16.253C39.9171 16.3093 39.8328 16.8155 39.7765 17.2093C39.3546 17.2937 39.1578 17.6312 39.1578 17.828C39.1578 18.3343 39.6921 18.6437 40.0296 18.8124C40.339 18.6437 40.9015 18.3343 40.9015 17.828C40.9015 17.6312 40.7046 17.2937 40.2828 17.2093C40.2265 16.8155 40.1421 16.2812 40.1984 16.253C40.2546 16.1968 40.339 16.1968 40.4796 16.3093C40.564 16.3655 40.6765 16.4218 40.8453 16.4218C41.0984 16.4218 41.239 16.253 41.239 16.1124C41.239 15.9718 41.0984 15.803 40.8453 15.803C40.7046 15.803 40.564 15.8593 40.4796 15.9155C40.339 16.028 40.2546 15.9999 40.1984 15.9718C40.1421 15.9155 40.1421 15.8312 40.2546 15.6905C40.3109 15.6062 40.3671 15.4937 40.3671 15.3249C40.3671 15.0718 40.1984 14.9312 40.0578 14.9312C39.8609 14.9312 39.6921 15.0718 39.6921 15.3249ZM40.0015 19.1218C39.664 19.1218 39.3828 19.403 39.3828 19.7405C39.3828 20.078 39.664 20.3593 40.0015 20.3593C40.339 20.3593 40.6203 20.078 40.6203 19.7405C40.6203 19.403 40.339 19.1218 40.0015 19.1218ZM40.0015 25.1405C42.5046 25.1405 43.9109 25.6187 43.9109 25.6187C43.9109 24.353 43.9109 23.6499 44.6421 23.7624C44.2484 22.6937 45.964 22.2718 45.964 20.8937C45.964 19.9937 45.3171 19.8812 45.1203 19.8812C44.5578 19.8812 44.6421 20.2468 44.164 20.2468C44.1078 20.2468 44.0515 20.2468 44.0515 20.2749C44.0515 20.4437 44.1921 20.6968 44.4171 20.6968C44.7265 20.6968 44.7265 20.3874 44.9515 20.3874C45.0359 20.3874 45.1765 20.4718 45.1765 20.7812C45.1765 21.3718 44.7828 22.0187 44.3328 22.5249C44.2203 22.3843 44.0796 22.2999 43.9109 22.2999C43.6578 22.2999 43.4046 22.5812 43.4046 22.9187C43.4046 23.0593 43.4328 23.1437 43.4609 23.2562C43.3203 23.3405 43.1796 23.3968 43.0671 23.3968C42.8703 23.3968 42.5609 23.3124 42.5609 22.8624C42.5609 21.8499 43.9109 20.978 43.9109 19.7124C43.9109 19.0937 43.5171 18.503 42.6734 18.503C41.7734 18.503 41.9421 19.3468 41.1546 19.3468C41.1265 19.3468 41.0984 19.3468 41.0984 19.403C41.0984 19.4593 41.239 19.9093 41.6328 19.9093C42.0828 19.9093 42.1953 19.1499 42.5609 19.1499C42.7015 19.1499 42.9265 19.2343 42.9265 19.7405C42.9265 20.1343 42.7296 20.7812 42.4484 21.3999C42.3359 21.2874 42.1953 21.2312 42.0546 21.2312C41.7171 21.2312 41.4921 21.5687 41.4921 21.9343C41.4921 22.1874 41.5765 22.4124 41.7453 22.5812C41.5484 22.8343 41.3515 23.0312 41.0703 23.0312C40.5359 23.0312 40.2828 22.7218 40.2828 22.3843C40.2828 22.0187 40.9296 21.9061 40.9296 21.3155C40.9296 20.9218 40.6765 20.6968 40.4515 20.6968C40.1984 20.6968 40.0578 20.8655 40.0296 20.8655C40.0015 20.8655 39.8609 20.6968 39.6078 20.6968C39.3546 20.6968 39.1296 20.9218 39.1296 21.3155C39.1296 21.878 39.7765 22.0187 39.7765 22.3843C39.7765 22.7218 39.5515 23.0312 38.989 23.0312C38.7078 23.0312 38.5109 22.8343 38.314 22.5812C38.4828 22.4124 38.5671 22.1874 38.5671 21.9343C38.5671 21.5405 38.314 21.2312 38.0046 21.2312C37.8359 21.2312 37.6953 21.3155 37.6109 21.3999C37.3296 20.7812 37.1328 20.1343 37.1328 19.7405C37.1328 19.2343 37.3578 19.1499 37.4984 19.1499C37.8921 19.1499 38.0046 19.9093 38.4265 19.9093C38.8203 19.9093 38.9609 19.4593 38.9609 19.403C38.9609 19.3749 38.9328 19.3468 38.9046 19.3468C38.1171 19.3468 38.2859 18.503 37.3859 18.503C36.5421 18.503 36.1484 19.1218 36.1484 19.7124C36.1484 20.978 37.4984 21.878 37.4984 22.8624C37.4984 23.3124 37.189 23.3968 36.9921 23.3968C36.8796 23.3968 36.7671 23.3405 36.5984 23.2562C36.6546 23.1437 36.6546 23.0593 36.6546 22.9187C36.6546 22.553 36.4296 22.2999 36.1484 22.2999C35.9796 22.2999 35.839 22.3843 35.7265 22.5249C35.2765 22.0187 34.8828 21.3718 34.8828 20.7812C34.8828 20.4718 35.0234 20.3874 35.1078 20.3874C35.3328 20.3874 35.3328 20.6968 35.6421 20.6968C35.8671 20.6968 36.0078 20.4155 36.0078 20.2749C36.0078 20.2187 35.9515 20.2468 35.8953 20.2468C35.4171 20.2468 35.5015 19.8812 34.939 19.8812C34.7421 19.8812 34.0953 19.9937 34.0953 20.8937C34.0953 22.2718 35.8109 22.6937 35.4171 23.7624C36.1484 23.6499 36.1203 24.353 36.1484 25.6187C36.0921 25.6187 37.4984 25.1405 40.0015 25.1405ZM35.4171 26.9968C34.7421 27.1374 34.2359 27.278 34.039 27.3624C34.039 27.053 34.1796 26.7999 34.4328 26.7155C34.4609 26.7155 34.489 26.6593 34.4328 26.6312C33.814 26.2374 33.5046 26.9968 33.5046 27.0249C33.2796 26.9968 32.9703 27.0811 32.9703 27.3624C32.9703 28.2343 31.0015 28.7124 30.5234 28.7686C31.339 29.078 31.6765 30.0905 31.6765 30.0905C32.2671 29.4999 32.9421 28.9936 33.1109 28.9936C33.2796 28.9936 33.3359 29.1905 33.3359 29.303C33.3359 29.3593 33.3921 29.3593 33.3921 29.3311C33.7015 28.8811 33.5609 28.7686 33.5328 28.628C33.5046 28.5155 33.5328 28.1218 33.9828 28.178V33.9718L33.7578 34.028C33.6453 34.0562 32.8015 33.3249 31.8171 32.6499C30.8609 31.9749 30.3265 32.3968 29.2296 32.9874C27.7671 33.7749 26.3328 33.0718 26.3328 33.0718C25.0953 33.9718 24.6734 36.5593 24.6734 36.5593C24.4203 36.6718 24.0265 36.7843 23.6046 36.7843C22.6484 36.7843 22.4796 36.2218 22.4796 35.8561C22.4796 34.3937 24.3359 33.7468 24.3359 32.3124C24.3359 31.9468 24.1671 30.5405 22.3953 30.5405C22.1703 30.5405 20.8203 30.5405 20.8203 30.5405C20.1734 30.5405 19.9765 30.0624 19.8921 29.8936C19.864 29.8374 19.8078 29.8655 19.8078 29.9218C19.864 30.0343 19.7234 30.2311 19.7234 30.5968C19.7234 31.1874 20.0609 31.5249 20.7078 31.5249C21.0171 31.5249 21.2703 31.4405 21.3546 31.3843C21.4109 31.3561 21.439 31.4124 21.4109 31.4405C21.1296 31.778 21.1015 32.3687 21.214 32.5374C21.2421 32.5655 21.2703 32.5655 21.2703 32.5374C21.439 31.9186 22.0015 31.328 22.789 31.328C23.7453 31.328 23.7453 32.1437 23.7453 32.3405C23.7453 33.5218 21.664 34.3937 21.664 35.9968C21.664 37.6562 23.4078 37.9936 24.4203 37.7405C24.364 39.3999 22.4796 39.9343 22.4234 38.7811C22.4234 38.7249 22.3671 38.6968 22.339 38.7811C22.114 39.3718 22.1984 39.878 22.9296 40.0468C22.9859 40.0468 22.9578 40.103 22.9015 40.1311C22.1984 40.6093 22.5921 42.4374 22.6203 42.9718C22.6765 43.7311 21.9171 43.6468 21.8328 43.6186C21.8046 43.6186 21.7765 43.6186 21.8328 43.6749C22.3671 44.3218 23.0421 43.7311 23.0421 43.7311C23.5484 43.8999 23.239 44.3218 22.9015 44.5468C22.8453 44.5749 22.8453 44.6311 22.9015 44.6311C22.9859 44.6311 23.7734 44.7155 23.914 44.0686C24.2796 44.4905 24.7859 44.3218 24.8703 44.2936C25.0109 44.2093 25.7421 43.9561 25.8265 44.7718C25.8265 44.828 25.8828 44.7999 25.8828 44.7718C26.4453 44.0686 25.8265 43.6468 25.5171 43.5905C25.5453 43.5343 25.9953 43.1968 26.389 43.703C26.4171 43.7311 26.4453 43.7593 26.4453 43.6749C26.5015 42.803 25.7703 42.7186 25.2921 43.0843C25.264 42.9999 25.1234 42.4936 25.8265 42.5218C25.8546 42.5218 25.8828 42.4936 25.8265 42.4655C25.2921 41.903 24.814 42.4093 24.7296 42.5499C24.4765 42.8311 23.8859 42.7186 23.8296 42.7186C24.0265 39.653 26.7265 40.7218 27.0921 39.2311C27.1203 39.1468 27.1484 39.1749 27.1484 39.203C27.2609 39.5686 28.1609 39.6249 28.3296 38.8936C28.3296 38.8374 28.3296 38.8093 28.3015 38.8374C27.514 39.6249 25.7421 37.178 28.1609 35.1811C30.214 33.4936 32.0703 34.4218 32.7734 34.9843C32.8015 35.2374 32.6609 35.3218 32.5765 35.3499C32.5484 35.3499 32.5203 35.4061 32.5765 35.4061C32.7734 35.4905 33.0546 35.4624 33.1953 35.2655C33.6453 35.5749 33.2515 35.9686 33.0828 36.0811C33.0265 36.1093 33.0546 36.1374 33.0828 36.1374C33.4765 36.2218 33.814 35.7999 33.8421 35.5749L33.8984 35.6311V37.3749C33.8984 39.878 36.7671 40.2155 39.9171 42.3249C43.0671 40.2155 45.9359 39.8499 45.9359 37.3749V35.6311L45.9921 35.5749C46.0203 35.7999 46.3578 36.2218 46.7515 36.1374C46.8078 36.1374 46.8078 36.1093 46.7515 36.0811C46.5828 35.9686 46.189 35.5749 46.639 35.2655C46.7796 35.4343 47.0328 35.4624 47.2578 35.4061C47.314 35.378 47.314 35.3499 47.2578 35.3499C47.1734 35.3218 47.0046 35.2374 47.0609 34.9843C47.764 34.4218 49.6203 33.4936 51.6734 35.1811C54.0921 37.178 52.3203 39.6249 51.5328 38.8374C51.5046 38.8093 51.4765 38.8374 51.5046 38.8936C51.6734 39.6249 52.6015 39.5686 52.6859 39.203C52.6859 39.1749 52.7421 39.1468 52.7421 39.2311C53.1078 40.7218 55.8359 39.6249 56.0046 42.7186C55.9484 42.7186 55.3578 42.8311 55.1046 42.5499C54.9921 42.4093 54.5421 41.903 54.0078 42.4655C53.9796 42.4936 54.0078 42.5218 54.0078 42.5218C54.7109 42.4936 54.5703 42.9999 54.5421 43.0843C54.064 42.6905 53.3609 42.7749 53.389 43.6749C53.389 43.7593 53.4171 43.7311 53.4453 43.703C53.839 43.1968 54.289 43.5624 54.3171 43.5905C53.9796 43.6468 53.389 44.0686 53.9515 44.7718C53.9796 44.7999 54.0078 44.8561 54.0078 44.7718C54.0921 43.928 54.8234 44.2093 54.964 44.2936C55.0765 44.3499 55.5828 44.4905 55.9203 44.0686C56.0609 44.6874 56.8484 44.6311 56.9328 44.6311C56.989 44.6311 56.989 44.5749 56.9328 44.5468C56.5953 44.3218 56.2859 43.8999 56.7921 43.7311C56.7921 43.7311 57.4671 44.3499 58.0015 43.6749C58.0578 43.6186 58.0296 43.5905 58.0015 43.6186C57.9453 43.6468 57.1578 43.7311 57.214 42.9718C57.2421 42.4374 57.6359 40.6093 56.9046 40.1593C56.8484 40.1311 56.8203 40.103 56.8765 40.0749C57.6078 39.9061 57.7203 39.3999 57.4671 38.8093C57.439 38.7249 57.3828 38.753 57.3828 38.8093C57.3265 39.9905 55.4421 39.428 55.3859 37.7686C56.3984 38.0218 58.1421 37.6843 58.1421 36.0249C58.1421 34.3936 56.0609 33.5218 56.0609 32.3686C56.0609 32.1718 56.0609 31.3562 57.0171 31.3562C57.8046 31.3562 58.3671 31.9468 58.5359 32.5655C58.5359 32.5936 58.5921 32.6218 58.5921 32.5655C58.7046 32.4249 58.6765 31.8062 58.3953 31.4686C58.3671 31.4405 58.3953 31.3843 58.4515 31.4124C58.5359 31.4687 58.8171 31.553 59.0984 31.553C59.7453 31.553 60.0828 31.1874 60.0828 30.6249C60.0828 30.2593 59.9421 30.0624 59.9984 29.9499C60.0265 29.8937 59.9421 29.8655 59.914 29.9218C59.8296 30.0905 59.6609 30.5687 58.9859 30.5687C58.9859 30.5687 57.6359 30.5687 57.4109 30.5687C55.639 30.5687 55.4703 32.003 55.4703 32.3405C55.4703 33.803 57.3265 34.4218 57.3265 35.8843C57.3265 36.2218 57.1578 36.8124 56.2015 36.8124C55.8078 36.8124 55.414 36.6999 55.1328 36.5874C55.1328 36.5874 54.7109 33.9999 53.4734 33.0999C53.4734 33.0999 52.0109 33.803 50.5765 33.0155C49.4796 32.4249 48.9453 32.003 47.989 32.678C47.0328 33.353 46.1609 34.0843 46.0765 34.0561L45.8515 33.9999V28.2061C46.3015 28.1499 46.3296 28.5718 46.3015 28.6561C46.2734 28.7968 46.1328 28.9093 46.4421 29.3593C46.4703 29.3874 46.4984 29.3874 46.4984 29.3311C46.4984 29.2186 46.5828 29.0218 46.7234 29.0218C46.864 29.0218 47.5671 29.5561 48.1578 30.1186C48.1578 30.1186 48.4953 29.1062 49.3109 28.7968C48.8609 28.7124 46.864 28.2343 46.864 27.3905C46.864 27.1093 46.5265 27.0249 46.3296 27.053C46.3296 27.0249 45.9921 26.2655 45.4015 26.6593C45.3734 26.6874 45.3734 26.7155 45.4015 26.7436C45.6546 26.7999 45.7953 27.0812 45.7953 27.3905C45.2328 27.2218 42.7578 26.5186 39.8328 26.5186C38.4265 26.5186 37.1046 26.6874 36.064 26.8843V28.9093H35.2765V26.9968H35.4171ZM30.0171 47.5843C29.7921 47.4999 29.6515 47.3593 29.6515 47.078V45.8124C29.2859 45.6718 28.3296 45.3061 26.3609 45.3061C24.7296 45.3061 24.2234 45.6718 24.1953 45.7843L23.7734 48.1468C23.7734 48.1468 24.4203 47.5561 26.7828 47.6968C29.6234 47.8655 32.5484 49.553 32.5484 47.7811V46.7405C30.3546 46.7686 30.0171 47.4718 30.0171 47.5843ZM47.4265 46.7686V47.8093C47.4265 49.5811 50.3515 47.9218 53.1921 47.7249C55.5265 47.5843 56.2015 48.1749 56.2015 48.1749L55.7796 45.8124C55.7515 45.6718 55.2453 45.3343 53.614 45.3343C51.6734 45.3343 50.689 45.6999 50.3234 45.8405V47.078C50.3234 47.3593 50.1828 47.4999 49.9578 47.5843C49.9859 47.4718 49.6484 46.7686 47.4265 46.7686ZM40.0015 45.6999C44.5578 45.6999 49.1984 45.9249 49.789 46.628C49.8453 46.6843 49.8453 46.628 49.8453 46.5718V44.153C49.8453 43.4499 45.064 43.028 40.0015 43.028C34.939 43.028 30.1578 43.4218 30.1578 44.153V46.5718C30.1578 46.628 30.1859 46.6561 30.214 46.628C30.8046 45.9249 35.4453 45.6999 40.0015 45.6999ZM35.9515 34.3093L35.5015 34.1968L35.4453 34.253L34.9109 34.028C34.9109 34.028 35.3046 34.028 35.389 34.028C35.4453 34.028 35.4453 33.9999 35.4171 33.9718C35.1921 33.7468 35.0234 33.578 35.0234 33.578C35.0234 33.578 35.2484 33.6624 35.5578 33.7749C35.5859 33.7749 35.614 33.7749 35.5859 33.7468C35.4453 33.5218 35.2203 33.2405 35.2203 33.2405C35.2203 33.2405 35.6421 33.5218 35.7546 33.6062C35.7828 33.6343 35.8109 33.6061 35.8109 33.578C35.6984 33.2968 35.5578 32.9593 35.5578 32.9593L36.0359 33.4093C36.064 33.4374 36.0921 33.4093 36.0921 33.3811C36.0359 33.1562 35.9515 32.7624 35.9515 32.7624L36.3171 33.2686C36.3453 33.2968 36.3734 33.2968 36.3734 33.2686C36.3734 33.1843 36.3734 32.7061 36.3734 32.7061C36.3734 32.7061 36.514 33.0436 36.5984 33.2124C36.5984 33.2405 36.6546 33.2405 36.6546 33.2124C36.6828 33.1561 36.8234 32.7905 36.8234 32.7905L36.8515 33.353H36.7671L36.6828 34.0561C37.3859 33.8874 38.2296 32.7061 38.8765 32.7061C39.664 32.7061 39.9453 33.6343 41.3796 33.1561C41.7453 33.6905 41.8578 34.1686 41.9984 34.8155C42.5609 35.3499 43.3484 35.1811 43.3484 34.6186C43.3484 33.8593 42.5328 33.7187 42.5328 32.9593C42.5328 32.5937 42.7859 32.1155 43.4609 32.1155C43.8265 32.1155 44.3328 32.2562 44.6421 32.2562C45.0078 32.2562 45.064 32.003 45.1203 31.8905C45.1484 31.8062 45.2609 31.8343 45.2328 31.8905C45.2328 31.9749 45.289 32.0593 45.289 32.228C45.289 32.7061 44.5578 32.7905 44.4734 32.7343C44.4453 32.7062 44.4171 32.7343 44.4453 32.7624C44.5578 32.8468 44.5296 33.1562 44.389 33.3249C44.389 33.353 44.3609 33.353 44.3328 33.3249C44.2484 32.9593 43.8546 32.5374 43.4609 32.5374C43.3203 32.5374 43.0671 32.6218 43.0671 32.9311C43.0671 33.3811 43.9671 33.7749 43.9671 34.703C43.9671 35.6593 43.0109 35.8843 42.0546 35.6593C42.0828 36.5593 43.4328 37.1218 43.4609 36.4468C43.4609 36.3905 43.489 36.4186 43.5171 36.4468C43.714 36.728 43.6296 36.9249 43.3765 37.0374C43.6015 37.1499 43.6578 37.628 43.7421 37.9093C43.8546 38.3311 44.3046 38.1061 44.3046 38.078C44.3328 38.078 44.3328 38.078 44.3328 38.1061C44.164 38.5562 43.714 38.3874 43.714 38.3874C43.489 38.5562 43.7703 38.6968 43.9671 38.7811C43.9953 38.7811 43.9953 38.8093 43.9671 38.8374C43.7984 38.8936 43.4609 39.0061 43.3203 38.7249C43.2078 39.0343 42.9546 39.0061 42.8421 39.0061C42.6734 39.0061 42.5609 39.1749 42.589 39.428C42.589 39.4561 42.589 39.4561 42.5609 39.428C42.139 39.1468 42.3921 38.8374 42.5609 38.753C42.5328 38.7249 42.2515 38.6124 42.1109 38.9499C42.1109 38.978 42.0828 38.978 42.0828 38.9499C41.914 38.4718 42.3078 38.3311 42.589 38.4436C42.5609 38.3874 42.4203 38.1343 42.0546 38.2186C42.0265 38.2186 42.0265 38.2186 42.0265 38.1905C42.0828 38.0499 42.2796 37.8249 42.6171 38.0499C42.7859 38.1624 43.0953 37.9936 43.1234 37.9936C42.5046 36.7843 41.3515 37.7968 41.0703 36.8405C41.0703 36.8124 41.0421 36.8124 41.014 36.8405C40.9578 37.0374 40.4515 37.0655 40.339 36.6718C40.339 36.6436 40.339 36.6436 40.3671 36.6718C40.4515 36.7561 40.5921 36.8124 40.8171 36.503C40.9578 36.3061 40.9859 36.0249 40.9859 35.8561C40.9859 35.1249 40.2546 33.8874 39.1015 33.8874C38.3703 33.8874 37.6109 34.1687 37.0203 34.5905L37.5546 34.7312C37.4984 35.2655 36.9921 35.603 36.4859 35.4624L36.5703 34.8436C36.4859 34.8718 36.2609 34.928 36.1765 35.0968H36.1484C36.064 34.7311 36.3453 34.5624 36.4296 34.5343C36.1765 34.5343 36.0359 34.703 35.9796 34.7874H35.9515C35.8671 34.6187 35.8109 34.4218 35.9515 34.3093ZM37.5265 38.4999C37.3296 38.753 37.1328 38.4999 36.8796 38.4999C36.6265 38.4999 36.5703 38.7249 36.5703 38.8093C36.5703 38.8093 36.5703 38.8374 36.5421 38.8093C36.2609 38.4155 36.5703 38.1905 36.7671 38.1624C36.739 38.1343 36.4578 37.9374 36.289 38.2186C36.289 38.2468 36.2609 38.2186 36.2609 38.2186C36.2609 37.7405 36.6265 37.6843 36.8796 37.9093C36.9359 37.7405 36.7953 37.5999 36.5984 37.5999C36.5703 37.5999 36.5703 37.5718 36.5703 37.5718C36.6546 37.4874 36.739 37.4311 36.8234 37.4311C37.0765 37.4311 37.1328 37.7686 37.3015 37.7686C37.5546 37.7686 37.9484 37.403 37.9765 37.3749C37.9765 37.3468 37.7234 36.6718 37.7515 36.2499C37.7515 36.2218 37.7515 36.2218 37.7234 36.2499C37.5828 36.3343 37.2734 36.3343 37.2734 35.9124C37.2734 35.8843 37.2734 35.8843 37.3015 35.9124C37.4421 36.1093 37.6671 35.8843 37.7796 35.7436C37.9203 35.603 38.5671 34.6468 39.4671 34.6468C39.664 34.6468 39.9171 34.7593 40.114 34.8999C39.8046 35.2655 40.114 35.6311 40.339 35.603C40.3671 35.603 40.3671 35.6311 40.339 35.6311C39.1578 36.0812 38.6234 36.2499 38.6234 37.2343C38.6234 37.7405 38.7921 38.0218 39.1015 37.9655C39.1296 37.9655 39.1296 37.9655 39.1015 37.9936C38.989 38.1343 38.8765 38.1624 38.764 38.1624C38.5109 38.1624 38.4828 38.0218 38.3421 38.0218C38.2015 38.0218 37.7796 38.2749 37.7796 38.4999C37.7796 38.5843 37.8359 38.6968 37.9765 38.8093C37.9765 38.8093 37.9765 38.8093 37.9765 38.8374C37.9484 38.8093 37.6109 38.8093 37.5265 38.4999ZM40.6484 28.8812C40.2828 28.853 40.0296 28.9374 40.0578 29.0499C40.2265 29.2749 40.4515 29.2468 40.6484 28.8812ZM39.2703 29.8093C39.5234 29.753 39.8046 29.7811 39.8328 29.7811C39.889 29.7811 39.889 29.8655 39.8328 29.8655C39.2984 29.9499 39.2703 30.1749 38.9046 30.1749C38.6796 30.1749 38.4265 29.9499 38.5109 29.6124C38.5109 29.5561 38.5671 29.5561 38.5671 29.6124C38.6515 29.753 38.8484 29.9218 39.2703 29.8093ZM32.2109 41.8468C32.5765 42.2968 32.914 41.8749 33.3921 41.8749C33.6171 41.8749 33.8984 41.9593 33.9546 42.4093C33.9546 42.4374 33.9828 42.4374 34.0109 42.4093C34.5171 41.7061 33.9265 41.3124 33.6171 41.2561C33.7015 41.1999 34.1796 40.8905 34.5171 41.3405C34.5453 41.3686 34.5734 41.3686 34.5734 41.3124C34.5734 40.4405 33.8984 40.3561 33.4203 40.7499C33.3359 40.3843 33.589 40.1874 33.9265 40.1874C33.9828 40.1874 33.9828 40.1593 33.9546 40.1311C33.364 39.4843 32.914 40.2999 32.8015 40.4124C32.5765 40.7218 31.7046 40.1311 31.3671 39.7936C31.3671 39.7936 32.1265 39.0061 32.1265 38.2749C32.1265 38.2186 32.1265 38.1624 32.1265 38.1343C32.1265 38.1061 32.1265 38.1061 32.1546 38.1061C32.239 38.1624 32.3234 38.1905 32.4359 38.1905C32.6046 38.1905 32.9421 38.1343 32.9421 37.5436C32.9421 37.4874 32.914 37.4874 32.8859 37.5155C32.8015 37.6561 32.689 37.6843 32.6328 37.6843C32.014 37.6843 30.7484 35.6593 29.2578 35.6593C28.864 35.6593 28.1328 35.9405 27.7671 36.3343C27.9359 36.4468 27.9921 36.6718 27.964 36.8124C27.9359 37.0655 27.739 37.2062 27.514 37.2624C27.4859 37.2624 27.4578 37.2905 27.514 37.3186C28.2734 37.5999 29.6515 38.1343 29.9609 38.3874C30.3265 38.6968 30.2703 39.3155 30.0453 40.1593C29.8484 40.9468 29.3984 40.8624 29.2296 40.8061C29.2015 40.8061 29.2015 40.8061 29.2015 40.8343C29.3984 41.0874 29.6515 41.1718 29.8484 41.1718C30.2421 41.1718 30.3828 40.9186 30.6078 40.9186C30.9453 40.9186 31.6765 41.3968 31.6765 41.7905C31.6765 42.0155 31.5078 42.1843 31.3109 42.3249V42.353C31.4234 42.3811 32.0984 42.4374 32.2109 41.8468ZM48.7484 42.3811C48.7765 42.3811 48.7765 42.353 48.7484 42.353C48.5234 42.2124 48.3828 42.0155 48.3828 41.8186C48.3828 41.453 49.0859 40.9468 49.4515 40.9468C49.6484 40.9468 49.8171 41.1999 50.2109 41.1999C50.4078 41.1999 50.6609 41.1155 50.8578 40.8624C50.8578 40.8343 50.8578 40.8343 50.8296 40.8343C50.6609 40.8624 50.2109 40.9749 50.014 40.1874C49.789 39.3436 49.7328 38.753 50.0984 38.4155C50.4078 38.1624 51.7859 37.628 52.5453 37.3468C52.6015 37.3186 52.5734 37.2905 52.5453 37.2905C52.3203 37.2343 52.1234 37.1218 52.0953 36.8405C52.0671 36.6718 52.0953 36.4468 52.2921 36.3624C51.9265 35.9686 51.1953 35.6874 50.8015 35.6874C49.3109 35.6874 48.0453 37.7124 47.4265 37.7124C47.3421 37.7124 47.2578 37.6843 47.1734 37.5436C47.1453 37.5155 47.1171 37.5155 47.1171 37.5718C47.1171 38.1905 47.4265 38.2186 47.6234 38.2186C47.7078 38.2186 47.8203 38.1905 47.9046 38.1343C47.9328 38.1343 47.9328 38.1343 47.9328 38.1624C47.9328 38.1905 47.9328 38.2468 47.9328 38.303C47.9328 39.0343 48.6921 39.8218 48.6921 39.8218C48.3546 40.1874 47.5109 40.778 47.2578 40.4405C47.1453 40.2999 46.7234 39.5124 46.1046 40.1593C46.0765 40.1874 46.1046 40.2155 46.1328 40.2155C46.4703 40.2155 46.7234 40.4405 46.639 40.778C46.1609 40.3843 45.4859 40.4686 45.4859 41.3405C45.4859 41.3686 45.514 41.3968 45.5421 41.3686C45.8515 40.9186 46.3578 41.228 46.4421 41.2843C46.1046 41.3405 45.514 41.7343 46.0484 42.4374C46.0765 42.4655 46.1046 42.4655 46.1046 42.4374C46.1609 41.9874 46.4421 41.903 46.6671 41.903C47.1453 41.903 47.4828 42.353 47.8484 41.8749C47.9046 42.4374 48.5796 42.3811 48.7484 42.3811ZM36.6546 30.6811C36.5984 30.7374 36.4578 30.6812 36.4015 30.653C36.3734 30.653 36.4015 30.653 36.4015 30.653C36.4578 30.7374 36.5984 30.9905 36.8234 30.9905C36.9359 30.9905 37.0765 30.9343 37.1046 30.8499C37.1046 30.8499 37.9765 31.1311 38.4265 31.2436C38.2578 31.4686 38.1453 31.7499 38.1171 32.0311C37.7515 31.8062 36.3453 31.0749 36.3453 31.0749L35.8953 31.6655C35.8109 31.7499 35.4734 31.4968 35.5296 31.4124L35.8671 30.9624C35.7546 30.8499 35.5015 30.9062 35.4171 30.9343C35.4171 30.9343 35.389 30.9343 35.4171 30.9061C35.4734 30.8218 35.614 30.5405 36.0359 30.653C36.0359 30.3999 35.6703 30.4843 35.5578 30.5124C35.6703 30.3999 35.9515 30.1468 36.3171 30.3718L36.4578 30.1749L36.1484 29.8655L36.3453 29.6124L36.5703 29.8936L38.2015 27.6718C38.2578 27.6155 38.5671 27.5311 38.6796 27.503C38.6796 27.6436 38.7078 27.953 38.6796 28.0093L37.0765 30.2593L37.414 30.3718L37.2453 30.6249L36.8515 30.4561L36.6546 30.6811ZM42.3359 30.3155C42.3359 30.5124 42.4765 30.8218 42.7296 30.7374H42.7578C42.7015 30.9624 42.3078 31.1874 42.139 30.9061C41.9703 31.2718 41.9984 31.5812 42.364 31.778C42.3921 31.778 42.3921 31.8062 42.364 31.8343C42.139 31.9749 41.8296 31.9468 41.6609 31.6655C41.3796 31.8905 41.4078 32.3405 41.5765 32.5093C41.5765 32.5093 40.7609 32.9874 40.0296 32.6499C39.5515 32.4249 39.1578 32.1155 38.539 32.1718C38.6234 31.2999 39.0734 31.0749 39.8609 30.9343C40.5078 30.8218 40.5921 30.5405 40.4796 30.3155C40.2546 30.2593 39.8609 30.4561 39.8609 30.4561C39.7765 30.3436 39.889 30.203 39.889 30.203C39.8328 30.1468 39.8328 29.978 39.8328 29.978C40.2828 29.978 40.3671 29.8936 40.3671 29.8936C40.4515 29.4155 39.9734 29.3593 39.6078 29.6405C39.439 29.4999 39.4671 29.2749 39.4671 29.2749C39.4109 29.2468 39.3828 29.1624 39.3828 29.1343C39.3828 29.0218 39.9171 28.7124 40.0578 28.6843C40.0859 28.5155 40.2828 28.3187 40.8453 28.3749C40.9015 28.2343 40.789 27.6718 40.7328 27.5312C40.7046 27.4749 40.7328 27.4468 40.789 27.4749C40.9859 27.6155 41.1828 28.0655 41.3234 28.0655C41.3234 28.0655 41.9703 27.728 41.9984 27.7562C42.0265 27.7843 42.1109 28.4874 42.1109 28.4874C42.1953 28.5999 42.6734 28.4874 42.8984 28.5718C42.9546 28.5999 42.9546 28.628 42.8984 28.6561C42.7296 28.6843 42.2234 28.9093 42.139 29.0499C42.4765 29.4999 42.3359 30.1468 42.3359 30.3155Z" fill="white"/>
</g>
<defs>
<clipPath id="clip0_3178_11073">
<rect width="80" height="80" rx="40" fill="white"/>
</clipPath>
</defs>
</svg>
