<svg width="80" height="80" viewBox="0 0 80 80" fill="none" xmlns="http://www.w3.org/2000/svg">
<g clip-path="url(#clip0_3473_880)">
<path d="M96.25 -20H-16.25V92.5H96.25V-20Z" fill="white"/>
<path d="M63.4283 -20H16.5439V62.0406H63.4283V-20Z" fill="#154373"/>
<path d="M40.8164 40.7504H40.0008V38.5004H40.8164V40.7504ZM44.5008 30.7941H43.6852V28.5441H44.5008V30.7941ZM29.3977 26.8848C29.3414 26.8848 28.9195 26.8848 28.9195 26.9691C28.9195 27.0535 29.1164 27.0254 29.3977 27.0535C30.0445 27.166 30.2977 27.5035 30.7477 27.5035C31.1695 27.5035 31.5914 27.2223 31.4227 26.6316C31.3945 26.5473 31.3383 26.5473 31.3383 26.6316C31.282 26.8848 30.9445 27.0535 30.5789 27.0535C30.157 27.0254 30.0727 26.8848 29.3977 26.8848ZM24.9258 29.1348C25.0102 29.2191 25.7695 30.2316 24.5883 30.6254C24.532 30.6535 24.5039 30.6816 24.5883 30.7379C25.4602 31.1035 25.882 30.4285 25.882 30.4285C26.332 31.441 25.657 31.9754 25.657 31.9754C25.7414 32.1441 26.1633 32.4535 26.8102 32.5941C27.0352 32.4535 27.3727 32.2285 27.5133 31.8348C27.5133 31.8348 27.682 32.2848 27.5133 32.6785C29.2852 32.8473 29.932 31.4129 31.3102 31.666C31.3664 31.666 31.3664 31.6379 31.3664 31.6098C31.3664 30.7379 30.832 29.1348 29.1164 28.7973C27.4289 28.4598 27.8789 27.7848 27.8789 27.7848C28.582 27.7566 29.0039 28.066 29.0039 28.066C29.1445 27.841 28.9477 27.616 28.9477 27.616C29.0039 27.5316 29.0602 27.2504 29.0602 27.2504C28.2727 27.2504 28.0477 27.0816 28.0477 27.0816C27.907 26.6035 28.2727 25.9285 29.4539 26.6598C29.7633 26.4066 29.7352 25.9848 29.7352 25.9848C29.8195 25.9285 29.8758 25.816 29.8758 25.7316C29.8758 25.5348 28.9195 25.0004 28.6664 24.9441C28.6102 24.6629 28.2445 24.241 27.1195 24.3816C26.5852 24.4379 26.1914 24.2973 26.3883 23.9879C26.4164 23.9316 26.332 23.9316 26.2758 23.9879C26.1352 24.1285 25.9945 24.466 26.4445 24.691C26.9508 24.9441 26.9789 25.4785 27.007 25.5348C27.007 25.6473 26.8664 25.6473 26.8664 25.5348C26.6414 24.6629 25.432 24.466 24.7289 24.9441C24.7852 25.4223 25.2633 25.7316 25.5445 25.7316C25.7133 25.7316 25.9102 25.5629 25.9102 25.366C25.9102 25.2535 25.9664 25.2816 25.9945 25.366C26.107 25.6754 25.657 26.3223 24.982 25.9285C24.2789 26.6316 24.5602 27.4754 24.6164 27.7848C24.757 28.3473 24.4758 28.9098 23.9695 28.6566C23.9414 28.6566 23.9133 28.6285 23.9133 28.7129C23.9133 29.0504 24.3633 29.4441 24.9258 29.1348ZM28.7227 25.6473C28.4133 26.0129 27.8789 25.9285 27.7383 25.3379C28.4133 25.3098 28.6945 25.366 28.7227 25.6473ZM49.3945 27.0254C49.0289 27.0254 48.7195 26.8848 48.6351 26.6035C48.6351 26.5473 48.5508 26.5191 48.5508 26.6035C48.382 27.1941 48.8039 27.4754 49.2258 27.4754C49.6758 27.4754 49.9289 27.1379 50.5758 27.0254C50.857 26.9691 51.0539 27.0254 51.0539 26.941C51.0539 26.8566 50.632 26.8566 50.5758 26.8566C49.9289 26.8848 49.8445 27.0254 49.3945 27.0254ZM56.0883 28.6848C56.0883 28.6285 56.0602 28.6285 56.032 28.6285C55.5258 28.8816 55.2445 28.3191 55.3851 27.7566C55.4695 27.4473 55.7508 26.5754 55.0195 25.9004C54.3445 26.2941 53.8664 25.6473 54.007 25.3379C54.0351 25.2535 54.0914 25.2535 54.0914 25.3379C54.0914 25.5629 54.3164 25.7035 54.457 25.7035C54.7383 25.7035 55.2445 25.3941 55.2726 24.916C54.5695 24.466 53.3883 24.6348 53.1351 25.5066C53.107 25.6191 52.9664 25.591 52.9945 25.5066C52.9945 25.4223 53.0226 24.916 53.557 24.6629C54.0351 24.4379 53.8664 24.1004 53.7258 23.9598C53.6695 23.9035 53.5851 23.9035 53.6133 23.9598C53.782 24.2691 53.4164 24.4098 52.882 24.3535C51.757 24.2129 51.3914 24.6066 51.3351 24.916C51.082 24.9723 50.1258 25.5066 50.1258 25.7035C50.1258 25.7598 50.182 25.9004 50.2664 25.9566C50.2664 25.9566 50.2383 26.3504 50.5476 26.6316C51.7289 25.9004 52.0664 26.5754 51.9539 27.0535C51.9539 27.0535 51.7289 27.2223 50.9414 27.2223C50.9414 27.2223 50.9977 27.5035 51.0539 27.5879C51.0539 27.5879 50.8852 27.8129 50.9977 28.0379C50.9977 28.0379 51.4195 27.7285 52.1227 27.7566C52.1227 27.7566 52.5726 28.4598 50.8851 28.7691C49.1976 29.0785 48.6351 30.7098 48.6351 31.5816C48.6351 31.6379 48.6633 31.6379 48.6914 31.6379C50.0695 31.3848 50.6883 32.8191 52.4883 32.6504C52.3195 32.2285 52.4883 31.8066 52.4883 31.8066C52.6289 32.1723 52.9664 32.4254 53.1914 32.566C53.8101 32.4254 54.232 32.116 54.3445 31.9473C54.3445 31.9473 53.6695 31.3848 54.1195 30.4004C54.1195 30.4004 54.5414 31.0754 55.4133 30.7098C55.4977 30.6816 55.4695 30.6254 55.4133 30.5973C54.232 30.2035 54.9914 29.2191 55.0758 29.1066C55.6383 29.4441 56.0883 29.0504 56.0883 28.6848ZM52.2351 25.3379C52.0945 25.9285 51.5883 26.0129 51.2508 25.6473C51.307 25.366 51.5883 25.3098 52.2351 25.3379ZM39.6914 15.3254C39.6914 15.466 39.7477 15.6066 39.8039 15.691C39.9164 15.8316 39.8883 15.916 39.8602 15.9723C39.8039 16.0285 39.7195 16.0285 39.5789 15.916C39.4945 15.8598 39.382 15.8035 39.2133 15.8035C38.9602 15.8035 38.8195 15.9723 38.8195 16.1129C38.8195 16.2535 38.9602 16.4223 39.2133 16.4223C39.3539 16.4223 39.4945 16.366 39.5789 16.3098C39.7195 16.1973 39.8039 16.2254 39.8602 16.2535C39.9164 16.3098 39.832 16.816 39.7758 17.2098C39.3539 17.2941 39.157 17.6316 39.157 17.8285C39.157 18.3348 39.6914 18.6441 40.0289 18.8129C40.3383 18.6441 40.9008 18.3348 40.9008 17.8285C40.9008 17.6316 40.7039 17.2941 40.282 17.2098C40.2258 16.816 40.1414 16.2816 40.1977 16.2535C40.2539 16.1973 40.3383 16.1973 40.4789 16.3098C40.5633 16.366 40.6758 16.4223 40.8445 16.4223C41.0977 16.4223 41.2383 16.2535 41.2383 16.1129C41.2383 15.9723 41.0977 15.8035 40.8445 15.8035C40.7039 15.8035 40.5633 15.8598 40.4789 15.916C40.3383 16.0285 40.2539 16.0004 40.1977 15.9723C40.1414 15.916 40.1414 15.8316 40.2539 15.691C40.3102 15.6066 40.3664 15.4941 40.3664 15.3254C40.3664 15.0723 40.1977 14.9316 40.057 14.9316C39.8602 14.9316 39.6914 15.0723 39.6914 15.3254ZM40.0008 19.1223C39.6633 19.1223 39.382 19.4035 39.382 19.741C39.382 20.0785 39.6633 20.3598 40.0008 20.3598C40.3383 20.3598 40.6195 20.0785 40.6195 19.741C40.6195 19.4035 40.3383 19.1223 40.0008 19.1223ZM40.0008 25.141C42.5039 25.141 43.9101 25.6191 43.9101 25.6191C43.9101 24.3535 43.9102 23.6504 44.6414 23.7629C44.2477 22.6941 45.9633 22.2723 45.9633 20.8941C45.9633 19.9941 45.3164 19.8816 45.1195 19.8816C44.557 19.8816 44.6414 20.2473 44.1633 20.2473C44.107 20.2473 44.0508 20.2473 44.0508 20.2754C44.0508 20.4441 44.1914 20.6973 44.4164 20.6973C44.7258 20.6973 44.7258 20.3879 44.9508 20.3879C45.0352 20.3879 45.1758 20.4723 45.1758 20.7816C45.1758 21.3723 44.782 22.0191 44.332 22.5254C44.2195 22.3848 44.0789 22.3004 43.9101 22.3004C43.657 22.3004 43.4039 22.5816 43.4039 22.9191C43.4039 23.0598 43.432 23.1441 43.4602 23.2566C43.3195 23.341 43.1789 23.3973 43.0664 23.3973C42.8695 23.3973 42.5602 23.3129 42.5602 22.8629C42.5602 21.8504 43.9101 20.9785 43.9101 19.7129C43.9101 19.0941 43.5164 18.5035 42.6727 18.5035C41.7727 18.5035 41.9414 19.3473 41.1539 19.3473C41.1258 19.3473 41.0977 19.3473 41.0977 19.4035C41.0977 19.4598 41.2383 19.9098 41.632 19.9098C42.082 19.9098 42.1945 19.1504 42.5602 19.1504C42.7008 19.1504 42.9258 19.2348 42.9258 19.741C42.9258 20.1348 42.7289 20.7816 42.4477 21.4004C42.3351 21.2879 42.1945 21.2316 42.0539 21.2316C41.7164 21.2316 41.4914 21.5691 41.4914 21.9348C41.4914 22.1879 41.5758 22.4129 41.7445 22.5816C41.5477 22.8348 41.3508 23.0316 41.0695 23.0316C40.5352 23.0316 40.282 22.7223 40.282 22.3848C40.282 22.0191 40.9289 21.9066 40.9289 21.316C40.9289 20.9223 40.6758 20.6973 40.4508 20.6973C40.1977 20.6973 40.057 20.866 40.0289 20.866C40.0008 20.866 39.8602 20.6973 39.607 20.6973C39.3539 20.6973 39.1289 20.9223 39.1289 21.316C39.1289 21.8785 39.7758 22.0191 39.7758 22.3848C39.7758 22.7223 39.5508 23.0316 38.9883 23.0316C38.707 23.0316 38.5102 22.8348 38.3133 22.5816C38.482 22.4129 38.5664 22.1879 38.5664 21.9348C38.5664 21.541 38.3133 21.2316 38.0039 21.2316C37.8351 21.2316 37.6945 21.316 37.6102 21.4004C37.3289 20.7816 37.132 20.1348 37.132 19.741C37.132 19.2348 37.357 19.1504 37.4977 19.1504C37.8914 19.1504 38.0039 19.9098 38.4258 19.9098C38.8195 19.9098 38.9602 19.4598 38.9602 19.4035C38.9602 19.3754 38.932 19.3473 38.9039 19.3473C38.1164 19.3473 38.2852 18.5035 37.3852 18.5035C36.5414 18.5035 36.1477 19.1223 36.1477 19.7129C36.1477 20.9785 37.4977 21.8785 37.4977 22.8629C37.4977 23.3129 37.1883 23.3973 36.9914 23.3973C36.8789 23.3973 36.7664 23.341 36.5977 23.2566C36.6539 23.1441 36.6539 23.0598 36.6539 22.9191C36.6539 22.5535 36.4289 22.3004 36.1477 22.3004C35.9789 22.3004 35.8383 22.3848 35.7258 22.5254C35.2758 22.0191 34.882 21.3723 34.882 20.7816C34.882 20.4723 35.0227 20.3879 35.107 20.3879C35.332 20.3879 35.332 20.6973 35.6414 20.6973C35.8664 20.6973 36.007 20.416 36.007 20.2754C36.007 20.2191 35.9508 20.2473 35.8945 20.2473C35.4164 20.2473 35.5008 19.8816 34.9383 19.8816C34.7414 19.8816 34.0945 19.9941 34.0945 20.8941C34.0945 22.2723 35.8102 22.6941 35.4164 23.7629C36.1477 23.6504 36.1195 24.3535 36.1477 25.6191C36.0914 25.6191 37.4977 25.141 40.0008 25.141ZM35.4164 26.9973C34.7414 27.1379 34.2352 27.2785 34.0383 27.3629C34.0383 27.0535 34.1789 26.8004 34.432 26.716C34.4602 26.716 34.4883 26.6598 34.432 26.6316C33.8133 26.2379 33.5039 26.9973 33.5039 27.0254C33.2789 26.9973 32.9695 27.0816 32.9695 27.3629C32.9695 28.2348 31.0008 28.7129 30.5227 28.7691C31.3383 29.0785 31.6758 30.091 31.6758 30.091C32.2664 29.5004 32.9414 28.9941 33.1102 28.9941C33.2789 28.9941 33.3352 29.191 33.3352 29.3035C33.3352 29.3598 33.3914 29.3598 33.3914 29.3316C33.7008 28.8816 33.5602 28.7691 33.532 28.6285C33.5039 28.516 33.532 28.1223 33.982 28.1785V33.9723L33.757 34.0285C33.6445 34.0566 32.8008 33.3254 31.8164 32.6504C30.8602 31.9754 30.3258 32.3973 29.2289 32.9879C27.7664 33.7754 26.332 33.0723 26.332 33.0723C25.0945 33.9723 24.6727 36.5598 24.6727 36.5598C24.4195 36.6723 24.0258 36.7848 23.6039 36.7848C22.6477 36.7848 22.4789 36.2223 22.4789 35.8566C22.4789 34.3941 24.3352 33.7473 24.3352 32.3129C24.3352 31.9473 24.1664 30.541 22.3945 30.541C22.1695 30.541 20.8195 30.541 20.8195 30.541C20.1727 30.541 19.9758 30.0629 19.8914 29.8941C19.8633 29.8379 19.807 29.866 19.807 29.9223C19.8633 30.0348 19.7227 30.2316 19.7227 30.5973C19.7227 31.1879 20.0602 31.5254 20.707 31.5254C21.0164 31.5254 21.2695 31.441 21.3539 31.3848C21.4102 31.3566 21.4383 31.4129 21.4102 31.441C21.1289 31.7785 21.1008 32.3691 21.2133 32.5379C21.2414 32.566 21.2695 32.566 21.2695 32.5379C21.4383 31.9191 22.0008 31.3285 22.7883 31.3285C23.7445 31.3285 23.7445 32.1441 23.7445 32.341C23.7445 33.5223 21.6633 34.3941 21.6633 35.9973C21.6633 37.6566 23.407 37.9941 24.4195 37.741C24.3633 39.4004 22.4789 39.9348 22.4227 38.7816C22.4227 38.7254 22.3664 38.6973 22.3383 38.7816C22.1133 39.3723 22.1977 39.8785 22.9289 40.0473C22.9852 40.0473 22.957 40.1035 22.9008 40.1316C22.1977 40.6098 22.5914 42.4379 22.6195 42.9723C22.6758 43.7316 21.9164 43.6473 21.832 43.6191C21.8039 43.6191 21.7758 43.6191 21.832 43.6754C22.3664 44.3223 23.0414 43.7316 23.0414 43.7316C23.5477 43.9004 23.2383 44.3223 22.9008 44.5473C22.8445 44.5754 22.8445 44.6316 22.9008 44.6316C22.9852 44.6316 23.7727 44.716 23.9133 44.0691C24.2789 44.491 24.7852 44.3223 24.8695 44.2941C25.0102 44.2098 25.7414 43.9566 25.8258 44.7723C25.8258 44.8285 25.882 44.8004 25.882 44.7723C26.4445 44.0691 25.8258 43.6473 25.5164 43.591C25.5445 43.5348 25.9945 43.1973 26.3883 43.7035C26.4164 43.7316 26.4445 43.7598 26.4445 43.6754C26.5008 42.8035 25.7695 42.7191 25.2914 43.0848C25.2633 43.0004 25.1227 42.4941 25.8258 42.5223C25.8539 42.5223 25.882 42.4941 25.8258 42.466C25.2914 41.9035 24.8133 42.4098 24.7289 42.5504C24.4758 42.8316 23.8852 42.7191 23.8289 42.7191C24.0258 39.6535 26.7258 40.7223 27.0914 39.2316C27.1195 39.1473 27.1477 39.1754 27.1477 39.2035C27.2602 39.5691 28.1602 39.6254 28.3289 38.8941C28.3289 38.8379 28.3289 38.8098 28.3008 38.8379C27.5133 39.6254 25.7414 37.1785 28.1602 35.1816C30.2133 33.4941 32.0695 34.4223 32.7727 34.9848C32.8008 35.2379 32.6602 35.3223 32.5758 35.3504C32.5477 35.3504 32.5195 35.4066 32.5758 35.4066C32.7727 35.491 33.0539 35.4629 33.1945 35.266C33.6445 35.5754 33.2508 35.9691 33.082 36.0816C33.0258 36.1098 33.0539 36.1379 33.082 36.1379C33.4758 36.2223 33.8133 35.8004 33.8414 35.5754L33.8977 35.6316V37.3754C33.8977 39.8785 36.7664 40.216 39.9164 42.3254C43.0664 40.216 45.9352 39.8504 45.9352 37.3754V35.6316L45.9914 35.5754C46.0195 35.8004 46.357 36.2223 46.7508 36.1379C46.807 36.1379 46.807 36.1098 46.7508 36.0816C46.582 35.9691 46.1883 35.5754 46.6383 35.266C46.7789 35.4348 47.032 35.4629 47.257 35.4066C47.3133 35.3785 47.3133 35.3504 47.257 35.3504C47.1727 35.3223 47.0039 35.2379 47.0602 34.9848C47.7633 34.4223 49.6195 33.4941 51.6726 35.1816C54.0914 37.1785 52.3195 39.6254 51.532 38.8379C51.5039 38.8098 51.4758 38.8379 51.5039 38.8941C51.6726 39.6254 52.6008 39.5691 52.6852 39.2035C52.6852 39.1754 52.7414 39.1473 52.7414 39.2316C53.107 40.7223 55.8351 39.6254 56.0039 42.7191C55.9476 42.7191 55.357 42.8316 55.1039 42.5504C54.9914 42.4098 54.5414 41.9035 54.007 42.466C53.9789 42.4941 54.007 42.5223 54.007 42.5223C54.7101 42.4941 54.5695 43.0004 54.5414 43.0848C54.0633 42.691 53.3601 42.7754 53.3883 43.6754C53.3883 43.7598 53.4164 43.7316 53.4445 43.7035C53.8383 43.1973 54.2883 43.5629 54.3164 43.591C53.9789 43.6473 53.3883 44.0691 53.9508 44.7723C53.9789 44.8004 54.007 44.8566 54.007 44.7723C54.0914 43.9285 54.8226 44.2098 54.9633 44.2941C55.0758 44.3504 55.582 44.491 55.9195 44.0691C56.0602 44.6879 56.8477 44.6316 56.932 44.6316C56.9883 44.6316 56.9883 44.5754 56.932 44.5473C56.5945 44.3223 56.2852 43.9004 56.7914 43.7316C56.7914 43.7316 57.4664 44.3504 58.0008 43.6754C58.057 43.6191 58.0289 43.591 58.0008 43.6191C57.9445 43.6473 57.157 43.7316 57.2133 42.9723C57.2414 42.4379 57.6352 40.6098 56.9039 40.1598C56.8477 40.1316 56.8195 40.1035 56.8758 40.0754C57.607 39.9066 57.7195 39.4004 57.4664 38.8098C57.4383 38.7254 57.382 38.7535 57.382 38.8098C57.3258 39.991 55.4414 39.4285 55.3851 37.7691C56.3976 38.0223 58.1414 37.6848 58.1414 36.0254C58.1414 34.3941 56.0602 33.5223 56.0602 32.3691C56.0602 32.1723 56.0602 31.3566 57.0164 31.3566C57.8039 31.3566 58.3664 31.9473 58.5351 32.566C58.5351 32.5941 58.5914 32.6223 58.5914 32.566C58.7039 32.4254 58.6758 31.8066 58.3945 31.4691C58.3664 31.441 58.3945 31.3848 58.4508 31.4129C58.5352 31.4691 58.8164 31.5535 59.0976 31.5535C59.7445 31.5535 60.082 31.1879 60.082 30.6254C60.082 30.2598 59.9414 30.0629 59.9977 29.9504C60.0258 29.8941 59.9414 29.866 59.9133 29.9223C59.8289 30.091 59.6601 30.5691 58.9851 30.5691C58.9851 30.5691 57.6351 30.5691 57.4101 30.5691C55.6383 30.5691 55.4695 32.0035 55.4695 32.341C55.4695 33.8035 57.3258 34.4223 57.3258 35.8848C57.3258 36.2223 57.157 36.8129 56.2008 36.8129C55.807 36.8129 55.4133 36.7004 55.132 36.5879C55.132 36.5879 54.7101 34.0004 53.4726 33.1004C53.4726 33.1004 52.0102 33.8035 50.5758 33.016C49.4789 32.4254 48.9445 32.0035 47.9883 32.6785C47.032 33.3535 46.1602 34.0848 46.0758 34.0566L45.8508 34.0004V28.2066C46.3008 28.1504 46.3289 28.5723 46.3008 28.6566C46.2726 28.7973 46.132 28.9098 46.4414 29.3598C46.4695 29.3879 46.4977 29.3879 46.4977 29.3316C46.4977 29.2191 46.582 29.0223 46.7226 29.0223C46.8633 29.0223 47.5664 29.5566 48.157 30.1191C48.157 30.1191 48.4945 29.1066 49.3102 28.7973C48.8602 28.7129 46.8633 28.2348 46.8633 27.391C46.8633 27.1098 46.5258 27.0254 46.3289 27.0535C46.3289 27.0254 45.9914 26.266 45.4008 26.6598C45.3727 26.6879 45.3727 26.716 45.4008 26.7441C45.6539 26.8004 45.7945 27.0816 45.7945 27.391C45.232 27.2223 42.757 26.5191 39.832 26.5191C38.4258 26.5191 37.1039 26.6879 36.0633 26.8848V28.9098H35.2758V26.9973H35.4164ZM30.0164 47.5848C29.7914 47.5004 29.6508 47.3598 29.6508 47.0785V45.8129C29.2852 45.6723 28.3289 45.3066 26.3602 45.3066C24.7289 45.3066 24.2227 45.6723 24.1945 45.7848L23.7727 48.1473C23.7727 48.1473 24.4195 47.5566 26.782 47.6973C29.6227 47.866 32.5477 49.5535 32.5477 47.7816V46.741C30.3539 46.7691 30.0164 47.4723 30.0164 47.5848ZM47.4258 46.7691V47.8098C47.4258 49.5816 50.3508 47.9223 53.1914 47.7254C55.5258 47.5848 56.2008 48.1754 56.2008 48.1754L55.7789 45.8129C55.7508 45.6723 55.2445 45.3348 53.6133 45.3348C51.6726 45.3348 50.6883 45.7004 50.3226 45.841V47.0785C50.3226 47.3598 50.182 47.5004 49.957 47.5848C49.9851 47.4723 49.6476 46.7691 47.4258 46.7691ZM40.0008 45.7004C44.557 45.7004 49.1977 45.9254 49.7883 46.6285C49.8445 46.6848 49.8445 46.6285 49.8445 46.5723V44.1535C49.8445 43.4504 45.0633 43.0285 40.0008 43.0285C34.9383 43.0285 30.157 43.4223 30.157 44.1535V46.5723C30.157 46.6285 30.1852 46.6566 30.2133 46.6285C30.8039 45.9254 35.4445 45.7004 40.0008 45.7004ZM35.9508 34.3098L35.5008 34.1973L35.4445 34.2535L34.9102 34.0285C34.9102 34.0285 35.3039 34.0285 35.3883 34.0285C35.4445 34.0285 35.4445 34.0004 35.4164 33.9723C35.1914 33.7473 35.0227 33.5785 35.0227 33.5785C35.0227 33.5785 35.2477 33.6629 35.557 33.7754C35.5852 33.7754 35.6133 33.7754 35.5852 33.7473C35.4445 33.5223 35.2195 33.241 35.2195 33.241C35.2195 33.241 35.6414 33.5223 35.7539 33.6066C35.782 33.6348 35.8102 33.6066 35.8102 33.5785C35.6977 33.2973 35.557 32.9598 35.557 32.9598L36.0352 33.4098C36.0633 33.4379 36.0914 33.4098 36.0914 33.3816C36.0352 33.1566 35.9508 32.7629 35.9508 32.7629L36.3164 33.2691C36.3445 33.2973 36.3727 33.2973 36.3727 33.2691C36.3727 33.1848 36.3727 32.7066 36.3727 32.7066C36.3727 32.7066 36.5133 33.0441 36.5977 33.2129C36.5977 33.241 36.6539 33.241 36.6539 33.2129C36.682 33.1566 36.8227 32.791 36.8227 32.791L36.8508 33.3535H36.7664L36.682 34.0566C37.3852 33.8879 38.2289 32.7066 38.8758 32.7066C39.6633 32.7066 39.9445 33.6348 41.3789 33.1566C41.7445 33.691 41.857 34.1691 41.9977 34.816C42.5602 35.3504 43.3476 35.1816 43.3476 34.6191C43.3476 33.8598 42.532 33.7191 42.532 32.9598C42.532 32.5941 42.7852 32.116 43.4602 32.116C43.8258 32.116 44.332 32.2566 44.6414 32.2566C45.007 32.2566 45.0633 32.0035 45.1195 31.891C45.1476 31.8066 45.2602 31.8348 45.232 31.891C45.232 31.9754 45.2883 32.0598 45.2883 32.2285C45.2883 32.7066 44.557 32.791 44.4726 32.7348C44.4445 32.7066 44.4164 32.7348 44.4445 32.7629C44.557 32.8473 44.5289 33.1566 44.3883 33.3254C44.3883 33.3535 44.3601 33.3535 44.332 33.3254C44.2476 32.9598 43.8539 32.5379 43.4602 32.5379C43.3195 32.5379 43.0664 32.6223 43.0664 32.9316C43.0664 33.3816 43.9664 33.7754 43.9664 34.7035C43.9664 35.6598 43.0102 35.8848 42.0539 35.6598C42.082 36.5598 43.432 37.1223 43.4602 36.4473C43.4602 36.391 43.4883 36.4191 43.5164 36.4473C43.7133 36.7285 43.6289 36.9254 43.3758 37.0379C43.6008 37.1504 43.657 37.6285 43.7414 37.9098C43.8539 38.3316 44.3039 38.1066 44.3039 38.0785C44.332 38.0785 44.332 38.0785 44.332 38.1066C44.1633 38.5566 43.7133 38.3879 43.7133 38.3879C43.4883 38.5566 43.7695 38.6973 43.9664 38.7816C43.9945 38.7816 43.9945 38.8098 43.9664 38.8379C43.7977 38.8941 43.4602 39.0066 43.3195 38.7254C43.207 39.0348 42.9539 39.0066 42.8414 39.0066C42.6727 39.0066 42.5602 39.1754 42.5883 39.4285C42.5883 39.4566 42.5883 39.4566 42.5602 39.4285C42.1383 39.1473 42.3914 38.8379 42.5602 38.7535C42.532 38.7254 42.2508 38.6129 42.1102 38.9504C42.1102 38.9785 42.082 38.9785 42.082 38.9504C41.9133 38.4723 42.307 38.3316 42.5883 38.4441C42.5602 38.3879 42.4195 38.1348 42.0539 38.2191C42.0258 38.2191 42.0258 38.2191 42.0258 38.191C42.082 38.0504 42.2789 37.8254 42.6164 38.0504C42.7852 38.1629 43.0945 37.9941 43.1227 37.9941C42.5039 36.7848 41.3508 37.7973 41.0695 36.841C41.0695 36.8129 41.0414 36.8129 41.0133 36.841C40.957 37.0379 40.4508 37.066 40.3383 36.6723C40.3383 36.6441 40.3383 36.6441 40.3664 36.6723C40.4508 36.7566 40.5914 36.8129 40.8164 36.5035C40.957 36.3066 40.9852 36.0254 40.9852 35.8566C40.9852 35.1254 40.2539 33.8879 39.1008 33.8879C38.3695 33.8879 37.6101 34.1691 37.0195 34.591L37.5539 34.7316C37.4977 35.266 36.9914 35.6035 36.4852 35.4629L36.5695 34.8441C36.4852 34.8723 36.2602 34.9285 36.1758 35.0973H36.1477C36.0633 34.7316 36.3445 34.5629 36.4289 34.5348C36.1758 34.5348 36.0352 34.7035 35.9789 34.7879H35.9508C35.8664 34.6191 35.8102 34.4223 35.9508 34.3098ZM37.5258 38.5004C37.3289 38.7535 37.132 38.5004 36.8789 38.5004C36.6258 38.5004 36.5695 38.7254 36.5695 38.8098C36.5695 38.8098 36.5695 38.8379 36.5414 38.8098C36.2602 38.416 36.5695 38.191 36.7664 38.1629C36.7383 38.1348 36.457 37.9379 36.2883 38.2191C36.2883 38.2473 36.2602 38.2191 36.2602 38.2191C36.2602 37.741 36.6258 37.6848 36.8789 37.9098C36.9352 37.741 36.7945 37.6004 36.5977 37.6004C36.5695 37.6004 36.5695 37.5723 36.5695 37.5723C36.6539 37.4879 36.7383 37.4316 36.8227 37.4316C37.0758 37.4316 37.132 37.7691 37.3008 37.7691C37.5539 37.7691 37.9477 37.4035 37.9758 37.3754C37.9758 37.3473 37.7227 36.6723 37.7508 36.2504C37.7508 36.2223 37.7508 36.2223 37.7227 36.2504C37.582 36.3348 37.2727 36.3348 37.2727 35.9129C37.2727 35.8848 37.2726 35.8848 37.3008 35.9129C37.4414 36.1098 37.6664 35.8848 37.7789 35.7441C37.9195 35.6035 38.5664 34.6473 39.4664 34.6473C39.6633 34.6473 39.9164 34.7598 40.1133 34.9004C39.8039 35.266 40.1133 35.6316 40.3383 35.6035C40.3664 35.6035 40.3664 35.6316 40.3383 35.6316C39.157 36.0816 38.6227 36.2504 38.6227 37.2348C38.6227 37.741 38.7914 38.0223 39.1008 37.966C39.1289 37.966 39.1289 37.966 39.1008 37.9941C38.9883 38.1348 38.8758 38.1629 38.7633 38.1629C38.5102 38.1629 38.482 38.0223 38.3414 38.0223C38.2008 38.0223 37.7789 38.2754 37.7789 38.5004C37.7789 38.5848 37.8352 38.6973 37.9758 38.8098C37.9758 38.8098 37.9758 38.8098 37.9758 38.8379C37.9477 38.8098 37.6102 38.8098 37.5258 38.5004ZM40.6477 28.8816C40.282 28.8535 40.0289 28.9379 40.057 29.0504C40.2258 29.2754 40.4508 29.2473 40.6477 28.8816ZM39.2695 29.8098C39.5226 29.7535 39.8039 29.7816 39.832 29.7816C39.8883 29.7816 39.8883 29.866 39.832 29.866C39.2976 29.9504 39.2695 30.1754 38.9039 30.1754C38.6789 30.1754 38.4258 29.9504 38.5102 29.6129C38.5102 29.5566 38.5664 29.5566 38.5664 29.6129C38.6508 29.7535 38.8477 29.9223 39.2695 29.8098ZM32.2102 41.8473C32.5758 42.2973 32.9133 41.8754 33.3914 41.8754C33.6164 41.8754 33.8977 41.9598 33.9539 42.4098C33.9539 42.4379 33.982 42.4379 34.0102 42.4098C34.5164 41.7066 33.9258 41.3129 33.6164 41.2566C33.7008 41.2004 34.1789 40.891 34.5164 41.341C34.5445 41.3691 34.5727 41.3691 34.5727 41.3129C34.5727 40.441 33.8977 40.3566 33.4195 40.7504C33.3352 40.3848 33.5883 40.1879 33.9258 40.1879C33.982 40.1879 33.982 40.1598 33.9539 40.1316C33.3633 39.4848 32.9133 40.3004 32.8008 40.4129C32.5758 40.7223 31.7039 40.1316 31.3664 39.7941C31.3664 39.7941 32.1258 39.0066 32.1258 38.2754C32.1258 38.2191 32.1258 38.1629 32.1258 38.1348C32.1258 38.1066 32.1258 38.1066 32.1539 38.1066C32.2383 38.1629 32.3227 38.191 32.4352 38.191C32.6039 38.191 32.9414 38.1348 32.9414 37.5441C32.9414 37.4879 32.9133 37.4879 32.8852 37.516C32.8008 37.6566 32.6883 37.6848 32.632 37.6848C32.0133 37.6848 30.7477 35.6598 29.257 35.6598C28.8633 35.6598 28.132 35.941 27.7664 36.3348C27.9352 36.4473 27.9914 36.6723 27.9633 36.8129C27.9352 37.066 27.7383 37.2066 27.5133 37.2629C27.4852 37.2629 27.457 37.291 27.5133 37.3191C28.2727 37.6004 29.6508 38.1348 29.9602 38.3879C30.3258 38.6973 30.2695 39.316 30.0445 40.1598C29.8477 40.9473 29.3977 40.8629 29.2289 40.8066C29.2008 40.8066 29.2008 40.8066 29.2008 40.8348C29.3977 41.0879 29.6508 41.1723 29.8477 41.1723C30.2414 41.1723 30.382 40.9191 30.607 40.9191C30.9445 40.9191 31.6758 41.3973 31.6758 41.791C31.6758 42.016 31.507 42.1848 31.3102 42.3254V42.3535C31.4227 42.3816 32.0977 42.4379 32.2102 41.8473ZM48.7477 42.3816C48.7758 42.3816 48.7758 42.3535 48.7477 42.3535C48.5227 42.2129 48.382 42.016 48.382 41.8191C48.382 41.4535 49.0852 40.9473 49.4508 40.9473C49.6477 40.9473 49.8164 41.2004 50.2101 41.2004C50.407 41.2004 50.6602 41.116 50.857 40.8629C50.857 40.8348 50.857 40.8348 50.8289 40.8348C50.6601 40.8629 50.2102 40.9754 50.0133 40.1879C49.7883 39.3441 49.732 38.7535 50.0976 38.416C50.407 38.1629 51.7852 37.6285 52.5445 37.3473C52.6008 37.3191 52.5727 37.291 52.5445 37.291C52.3195 37.2348 52.1227 37.1223 52.0945 36.841C52.0664 36.6723 52.0945 36.4473 52.2914 36.3629C51.9258 35.9691 51.1945 35.6879 50.8008 35.6879C49.3101 35.6879 48.0445 37.7129 47.4258 37.7129C47.3414 37.7129 47.257 37.6848 47.1726 37.5441C47.1445 37.516 47.1164 37.516 47.1164 37.5723C47.1164 38.191 47.4258 38.2191 47.6227 38.2191C47.707 38.2191 47.8195 38.191 47.9039 38.1348C47.932 38.1348 47.932 38.1348 47.932 38.1629C47.932 38.191 47.932 38.2473 47.932 38.3035C47.932 39.0348 48.6914 39.8223 48.6914 39.8223C48.3539 40.1879 47.5102 40.7785 47.257 40.441C47.1445 40.3004 46.7226 39.5129 46.1039 40.1598C46.0758 40.1879 46.1039 40.216 46.132 40.216C46.4695 40.216 46.7227 40.441 46.6383 40.7785C46.1602 40.3848 45.4852 40.4691 45.4852 41.341C45.4852 41.3691 45.5133 41.3973 45.5414 41.3691C45.8508 40.9191 46.357 41.2285 46.4414 41.2848C46.1039 41.341 45.5133 41.7348 46.0476 42.4379C46.0758 42.466 46.1039 42.466 46.1039 42.4379C46.1601 41.9879 46.4414 41.9035 46.6664 41.9035C47.1445 41.9035 47.482 42.3535 47.8476 41.8754C47.9039 42.4379 48.5789 42.3816 48.7477 42.3816ZM36.6539 30.6816C36.5977 30.7379 36.457 30.6816 36.4008 30.6535C36.3727 30.6535 36.4008 30.6535 36.4008 30.6535C36.457 30.7379 36.5977 30.991 36.8227 30.991C36.9352 30.991 37.0758 30.9348 37.1039 30.8504C37.1039 30.8504 37.9758 31.1316 38.4258 31.2441C38.257 31.4691 38.1445 31.7504 38.1164 32.0316C37.7508 31.8066 36.3445 31.0754 36.3445 31.0754L35.8945 31.666C35.8102 31.7504 35.4727 31.4973 35.5289 31.4129L35.8664 30.9629C35.7539 30.8504 35.5008 30.9066 35.4164 30.9348C35.4164 30.9348 35.3883 30.9348 35.4164 30.9066C35.4727 30.8223 35.6133 30.541 36.0352 30.6535C36.0352 30.4004 35.6695 30.4848 35.557 30.5129C35.6695 30.4004 35.9508 30.1473 36.3164 30.3723L36.457 30.1754L36.1477 29.866L36.3445 29.6129L36.5695 29.8941L38.2008 27.6723C38.257 27.616 38.5664 27.5316 38.6789 27.5035C38.6789 27.6441 38.707 27.9535 38.6789 28.0098L37.0758 30.2598L37.4133 30.3723L37.2445 30.6254L36.8508 30.4566L36.6539 30.6816ZM42.3352 30.316C42.3352 30.5129 42.4758 30.8223 42.7289 30.7379H42.757C42.7008 30.9629 42.307 31.1879 42.1383 30.9066C41.9695 31.2723 41.9977 31.5816 42.3633 31.7785C42.3914 31.7785 42.3914 31.8066 42.3633 31.8348C42.1383 31.9754 41.8289 31.9473 41.6601 31.666C41.3789 31.891 41.407 32.341 41.5758 32.5098C41.5758 32.5098 40.7602 32.9879 40.0289 32.6504C39.5508 32.4254 39.157 32.116 38.5383 32.1723C38.6227 31.3004 39.0727 31.0754 39.8602 30.9348C40.507 30.8223 40.5914 30.541 40.4789 30.316C40.2539 30.2598 39.8602 30.4566 39.8602 30.4566C39.7758 30.3441 39.8883 30.2035 39.8883 30.2035C39.832 30.1473 39.832 29.9785 39.832 29.9785C40.282 29.9785 40.3664 29.8941 40.3664 29.8941C40.4508 29.416 39.9727 29.3598 39.607 29.641C39.4383 29.5004 39.4664 29.2754 39.4664 29.2754C39.4102 29.2473 39.382 29.1629 39.382 29.1348C39.382 29.0223 39.9164 28.7129 40.057 28.6848C40.0851 28.516 40.282 28.3191 40.8445 28.3754C40.9008 28.2348 40.7883 27.6723 40.732 27.5316C40.7039 27.4754 40.732 27.4473 40.7883 27.4754C40.9852 27.616 41.182 28.066 41.3227 28.066C41.3227 28.066 41.9695 27.7285 41.9977 27.7566C42.0258 27.7848 42.1102 28.4879 42.1102 28.4879C42.1945 28.6004 42.6727 28.4879 42.8977 28.5723C42.9539 28.6004 42.9539 28.6285 42.8977 28.6566C42.7289 28.6848 42.2227 28.9098 42.1383 29.0504C42.4758 29.5004 42.3352 30.1473 42.3352 30.316Z" fill="white"/>
</g>
<defs>
<clipPath id="clip0_3473_880">
<rect width="80" height="80" rx="40" fill="white"/>
</clipPath>
</defs>
</svg>
