<svg width="80" height="81" viewBox="0 0 80 81" fill="none" xmlns="http://www.w3.org/2000/svg">
<g clip-path="url(#clip0_3473_269)">
<path d="M96.25 -19.498H-16.25V93.002H96.25V-19.498Z" fill="white"/>
<path d="M63.4286 -19.498H16.5442V62.5426H63.4286V-19.498Z" fill="#154373"/>
<path d="M40.8171 41.2519H40.0015V39.0019H40.8171V41.2519ZM44.5015 31.2956H43.6859V29.0456H44.5015V31.2956ZM29.3984 27.3862C29.3421 27.3862 28.9203 27.3862 28.9203 27.4706C28.9203 27.555 29.1171 27.5269 29.3984 27.555C30.0453 27.6675 30.2984 28.005 30.7484 28.005C31.1703 28.005 31.5921 27.7237 31.4234 27.1331C31.3953 27.0487 31.339 27.0487 31.339 27.1331C31.2828 27.3862 30.9453 27.555 30.5796 27.555C30.1578 27.5269 30.0734 27.3862 29.3984 27.3862ZM24.9265 29.6362C25.0109 29.7206 25.7703 30.7331 24.589 31.1269C24.5328 31.155 24.5046 31.1831 24.589 31.2394C25.4609 31.605 25.8828 30.93 25.8828 30.93C26.3328 31.9425 25.6578 32.4769 25.6578 32.4769C25.7421 32.6456 26.164 32.955 26.8109 33.0956C27.0359 32.955 27.3734 32.73 27.514 32.3362C27.514 32.3362 27.6828 32.7862 27.514 33.18C29.2859 33.3487 29.9328 31.9144 31.3109 32.1675C31.3671 32.1675 31.3671 32.1394 31.3671 32.1112C31.3671 31.2394 30.8328 29.6362 29.1171 29.2987C27.4296 28.9612 27.8796 28.2862 27.8796 28.2862C28.5828 28.2581 29.0046 28.5675 29.0046 28.5675C29.1453 28.3425 28.9484 28.1175 28.9484 28.1175C29.0046 28.0331 29.0609 27.7519 29.0609 27.7519C28.2734 27.7519 28.0484 27.5831 28.0484 27.5831C27.9078 27.105 28.2734 26.43 29.4546 27.1612C29.764 26.9081 29.7359 26.4862 29.7359 26.4862C29.8203 26.43 29.8765 26.3175 29.8765 26.2331C29.8765 26.0362 28.9203 25.5019 28.6671 25.4456C28.6109 25.1644 28.2453 24.7425 27.1203 24.8831C26.5859 24.9394 26.1921 24.7987 26.389 24.4894C26.4171 24.4331 26.3328 24.4331 26.2765 24.4894C26.1359 24.63 25.9953 24.9675 26.4453 25.1925C26.9515 25.4456 26.9796 25.98 27.0078 26.0362C27.0078 26.1487 26.8671 26.1487 26.8671 26.0362C26.6421 25.1644 25.4328 24.9675 24.7296 25.4456C24.7859 25.9237 25.264 26.2331 25.5453 26.2331C25.714 26.2331 25.9109 26.0644 25.9109 25.8675C25.9109 25.755 25.9671 25.7831 25.9953 25.8675C26.1078 26.1769 25.6578 26.8237 24.9828 26.43C24.2796 27.1331 24.5609 27.9769 24.6171 28.2862C24.7578 28.8487 24.4765 29.4112 23.9703 29.1581C23.9421 29.1581 23.914 29.13 23.914 29.2144C23.914 29.5519 24.364 29.9456 24.9265 29.6362ZM28.7234 26.1487C28.414 26.5144 27.8796 26.43 27.739 25.8394C28.414 25.8112 28.6953 25.8675 28.7234 26.1487ZM49.3953 27.5269C49.0296 27.5269 48.7203 27.3862 48.6359 27.105C48.6359 27.0487 48.5515 27.0206 48.5515 27.105C48.3828 27.6956 48.8046 27.9769 49.2265 27.9769C49.6765 27.9769 49.9296 27.6394 50.5765 27.5269C50.8578 27.4706 51.0546 27.5269 51.0546 27.4425C51.0546 27.3581 50.6328 27.3581 50.5765 27.3581C49.9296 27.3862 49.8453 27.5269 49.3953 27.5269ZM56.089 29.1862C56.089 29.13 56.0609 29.13 56.0328 29.13C55.5265 29.3831 55.2453 28.8206 55.3859 28.2581C55.4703 27.9487 55.7515 27.0769 55.0203 26.4019C54.3453 26.7956 53.8671 26.1487 54.0078 25.8394C54.0359 25.755 54.0921 25.755 54.0921 25.8394C54.0921 26.0644 54.3171 26.205 54.4578 26.205C54.739 26.205 55.2453 25.8956 55.2734 25.4175C54.5703 24.9675 53.389 25.1362 53.1359 26.0081C53.1078 26.1206 52.9671 26.0925 52.9953 26.0081C52.9953 25.9237 53.0234 25.4175 53.5578 25.1644C54.0359 24.9394 53.8671 24.6019 53.7265 24.4612C53.6703 24.405 53.5859 24.405 53.614 24.4612C53.7828 24.7706 53.4171 24.9112 52.8828 24.855C51.7578 24.7144 51.3921 25.1081 51.3359 25.4175C51.0828 25.4737 50.1265 26.0081 50.1265 26.205C50.1265 26.2612 50.1828 26.4019 50.2671 26.4581C50.2671 26.4581 50.239 26.8519 50.5484 27.1331C51.7296 26.4019 52.0671 27.0769 51.9546 27.555C51.9546 27.555 51.7296 27.7237 50.9421 27.7237C50.9421 27.7237 50.9984 28.005 51.0546 28.0894C51.0546 28.0894 50.8859 28.3144 50.9984 28.5394C50.9984 28.5394 51.4203 28.23 52.1234 28.2581C52.1234 28.2581 52.5734 28.9612 50.8859 29.2706C49.1984 29.58 48.6359 31.2112 48.6359 32.0831C48.6359 32.1394 48.664 32.1394 48.6921 32.1394C50.0703 31.8862 50.689 33.3206 52.489 33.1519C52.3203 32.73 52.489 32.3081 52.489 32.3081C52.6296 32.6737 52.9671 32.9269 53.1921 33.0675C53.8109 32.9269 54.2328 32.6175 54.3453 32.4487C54.3453 32.4487 53.6703 31.8862 54.1203 30.9019C54.1203 30.9019 54.5421 31.5769 55.414 31.2112C55.4984 31.1831 55.4703 31.1269 55.414 31.0987C54.2328 30.705 54.9921 29.7206 55.0765 29.6081C55.639 29.9456 56.089 29.5519 56.089 29.1862ZM52.2359 25.8394C52.0953 26.43 51.589 26.5144 51.2515 26.1487C51.3078 25.8675 51.589 25.8112 52.2359 25.8394ZM39.6921 15.8269C39.6921 15.9675 39.7484 16.1081 39.8046 16.1925C39.9171 16.3331 39.889 16.4175 39.8609 16.4737C39.8046 16.53 39.7203 16.53 39.5796 16.4175C39.4953 16.3612 39.3828 16.305 39.214 16.305C38.9609 16.305 38.8203 16.4737 38.8203 16.6144C38.8203 16.755 38.9609 16.9237 39.214 16.9237C39.3546 16.9237 39.4953 16.8675 39.5796 16.8112C39.7203 16.6987 39.8046 16.7269 39.8609 16.755C39.9171 16.8112 39.8328 17.3175 39.7765 17.7112C39.3546 17.7956 39.1578 18.1331 39.1578 18.33C39.1578 18.8362 39.6921 19.1456 40.0296 19.3144C40.339 19.1456 40.9015 18.8362 40.9015 18.33C40.9015 18.1331 40.7046 17.7956 40.2828 17.7112C40.2265 17.3175 40.1421 16.7831 40.1984 16.755C40.2546 16.6987 40.339 16.6987 40.4796 16.8112C40.564 16.8675 40.6765 16.9237 40.8453 16.9237C41.0984 16.9237 41.239 16.755 41.239 16.6144C41.239 16.4737 41.0984 16.305 40.8453 16.305C40.7046 16.305 40.564 16.3612 40.4796 16.4175C40.339 16.53 40.2546 16.5019 40.1984 16.4737C40.1421 16.4175 40.1421 16.3331 40.2546 16.1925C40.3109 16.1081 40.3671 15.9956 40.3671 15.8269C40.3671 15.5737 40.1984 15.4331 40.0578 15.4331C39.8609 15.4331 39.6921 15.5737 39.6921 15.8269ZM40.0015 19.6237C39.664 19.6237 39.3828 19.905 39.3828 20.2425C39.3828 20.58 39.664 20.8612 40.0015 20.8612C40.339 20.8612 40.6203 20.58 40.6203 20.2425C40.6203 19.905 40.339 19.6237 40.0015 19.6237ZM40.0015 25.6425C42.5046 25.6425 43.9109 26.1206 43.9109 26.1206C43.9109 24.855 43.9109 24.1519 44.6421 24.2644C44.2484 23.1956 45.964 22.7737 45.964 21.3956C45.964 20.4956 45.3171 20.3831 45.1203 20.3831C44.5578 20.3831 44.6421 20.7487 44.164 20.7487C44.1078 20.7487 44.0515 20.7487 44.0515 20.7769C44.0515 20.9456 44.1921 21.1987 44.4171 21.1987C44.7265 21.1987 44.7265 20.8894 44.9515 20.8894C45.0359 20.8894 45.1765 20.9737 45.1765 21.2831C45.1765 21.8737 44.7828 22.5206 44.3328 23.0269C44.2203 22.8862 44.0796 22.8019 43.9109 22.8019C43.6578 22.8019 43.4046 23.0831 43.4046 23.4206C43.4046 23.5612 43.4328 23.6456 43.4609 23.7581C43.3203 23.8425 43.1796 23.8987 43.0671 23.8987C42.8703 23.8987 42.5609 23.8144 42.5609 23.3644C42.5609 22.3519 43.9109 21.48 43.9109 20.2144C43.9109 19.5956 43.5171 19.005 42.6734 19.005C41.7734 19.005 41.9421 19.8487 41.1546 19.8487C41.1265 19.8487 41.0984 19.8487 41.0984 19.905C41.0984 19.9612 41.239 20.4112 41.6328 20.4112C42.0828 20.4112 42.1953 19.6519 42.5609 19.6519C42.7015 19.6519 42.9265 19.7362 42.9265 20.2425C42.9265 20.6362 42.7296 21.2831 42.4484 21.9019C42.3359 21.7894 42.1953 21.7331 42.0546 21.7331C41.7171 21.7331 41.4921 22.0706 41.4921 22.4362C41.4921 22.6894 41.5765 22.9144 41.7453 23.0831C41.5484 23.3362 41.3515 23.5331 41.0703 23.5331C40.5359 23.5331 40.2828 23.2237 40.2828 22.8862C40.2828 22.5206 40.9296 22.4081 40.9296 21.8175C40.9296 21.4237 40.6765 21.1987 40.4515 21.1987C40.1984 21.1987 40.0578 21.3675 40.0296 21.3675C40.0015 21.3675 39.8609 21.1987 39.6078 21.1987C39.3546 21.1987 39.1296 21.4237 39.1296 21.8175C39.1296 22.38 39.7765 22.5206 39.7765 22.8862C39.7765 23.2237 39.5515 23.5331 38.989 23.5331C38.7078 23.5331 38.5109 23.3362 38.314 23.0831C38.4828 22.9144 38.5671 22.6894 38.5671 22.4362C38.5671 22.0425 38.314 21.7331 38.0046 21.7331C37.8359 21.7331 37.6953 21.8175 37.6109 21.9019C37.3296 21.2831 37.1328 20.6362 37.1328 20.2425C37.1328 19.7362 37.3578 19.6519 37.4984 19.6519C37.8921 19.6519 38.0046 20.4112 38.4265 20.4112C38.8203 20.4112 38.9609 19.9612 38.9609 19.905C38.9609 19.8769 38.9328 19.8487 38.9046 19.8487C38.1171 19.8487 38.2859 19.005 37.3859 19.005C36.5421 19.005 36.1484 19.6237 36.1484 20.2144C36.1484 21.48 37.4984 22.38 37.4984 23.3644C37.4984 23.8144 37.189 23.8987 36.9921 23.8987C36.8796 23.8987 36.7671 23.8425 36.5984 23.7581C36.6546 23.6456 36.6546 23.5612 36.6546 23.4206C36.6546 23.055 36.4296 22.8019 36.1484 22.8019C35.9796 22.8019 35.839 22.8862 35.7265 23.0269C35.2765 22.5206 34.8828 21.8737 34.8828 21.2831C34.8828 20.9737 35.0234 20.8894 35.1078 20.8894C35.3328 20.8894 35.3328 21.1987 35.6421 21.1987C35.8671 21.1987 36.0078 20.9175 36.0078 20.7769C36.0078 20.7206 35.9515 20.7487 35.8953 20.7487C35.4171 20.7487 35.5015 20.3831 34.939 20.3831C34.7421 20.3831 34.0953 20.4956 34.0953 21.3956C34.0953 22.7737 35.8109 23.1956 35.4171 24.2644C36.1484 24.1519 36.1203 24.855 36.1484 26.1206C36.0921 26.1206 37.4984 25.6425 40.0015 25.6425ZM35.4171 27.4987C34.7421 27.6394 34.2359 27.78 34.039 27.8644C34.039 27.555 34.1796 27.3019 34.4328 27.2175C34.4609 27.2175 34.489 27.1612 34.4328 27.1331C33.814 26.7394 33.5046 27.4987 33.5046 27.5269C33.2796 27.4987 32.9703 27.5831 32.9703 27.8644C32.9703 28.7362 31.0015 29.2144 30.5234 29.2706C31.339 29.58 31.6765 30.5925 31.6765 30.5925C32.2671 30.0019 32.9421 29.4956 33.1109 29.4956C33.2796 29.4956 33.3359 29.6925 33.3359 29.805C33.3359 29.8612 33.3921 29.8612 33.3921 29.8331C33.7015 29.3831 33.5609 29.2706 33.5328 29.13C33.5046 29.0175 33.5328 28.6237 33.9828 28.68V34.4737L33.7578 34.53C33.6453 34.5581 32.8015 33.8269 31.8171 33.1519C30.8609 32.4769 30.3265 32.8987 29.2296 33.4894C27.7671 34.2768 26.3328 33.5737 26.3328 33.5737C25.0953 34.4737 24.6734 37.0612 24.6734 37.0612C24.4203 37.1737 24.0265 37.2862 23.6046 37.2862C22.6484 37.2862 22.4796 36.7237 22.4796 36.3581C22.4796 34.8956 24.3359 34.2487 24.3359 32.8144C24.3359 32.4487 24.1671 31.0425 22.3953 31.0425C22.1703 31.0425 20.8203 31.0425 20.8203 31.0425C20.1734 31.0425 19.9765 30.5644 19.8921 30.3956C19.864 30.3394 19.8078 30.3675 19.8078 30.4237C19.864 30.5362 19.7234 30.7331 19.7234 31.0987C19.7234 31.6894 20.0609 32.0269 20.7078 32.0269C21.0171 32.0269 21.2703 31.9425 21.3546 31.8862C21.4109 31.8581 21.439 31.9144 21.4109 31.9425C21.1296 32.28 21.1015 32.8706 21.214 33.0394C21.2421 33.0675 21.2703 33.0675 21.2703 33.0394C21.439 32.4206 22.0015 31.83 22.789 31.83C23.7453 31.83 23.7453 32.6456 23.7453 32.8425C23.7453 34.0237 21.664 34.8956 21.664 36.4987C21.664 38.1581 23.4078 38.4956 24.4203 38.2425C24.364 39.9019 22.4796 40.4362 22.4234 39.2831C22.4234 39.2269 22.3671 39.1987 22.339 39.2831C22.114 39.8737 22.1984 40.38 22.9296 40.5487C22.9859 40.5487 22.9578 40.605 22.9015 40.6331C22.1984 41.1112 22.5921 42.9393 22.6203 43.4737C22.6765 44.2331 21.9171 44.1487 21.8328 44.1206C21.8046 44.1206 21.7765 44.1206 21.8328 44.1768C22.3671 44.8237 23.0421 44.2331 23.0421 44.2331C23.5484 44.4019 23.239 44.8237 22.9015 45.0487C22.8453 45.0769 22.8453 45.1331 22.9015 45.1331C22.9859 45.1331 23.7734 45.2175 23.914 44.5706C24.2796 44.9925 24.7859 44.8237 24.8703 44.7956C25.0109 44.7112 25.7421 44.4581 25.8265 45.2737C25.8265 45.33 25.8828 45.3019 25.8828 45.2737C26.4453 44.5706 25.8265 44.1487 25.5171 44.0925C25.5453 44.0362 25.9953 43.6987 26.389 44.205C26.4171 44.2331 26.4453 44.2612 26.4453 44.1768C26.5015 43.305 25.7703 43.2206 25.2921 43.5862C25.264 43.5019 25.1234 42.9956 25.8265 43.0237C25.8546 43.0237 25.8828 42.9956 25.8265 42.9675C25.2921 42.405 24.814 42.9112 24.7296 43.0518C24.4765 43.3331 23.8859 43.2206 23.8296 43.2206C24.0265 40.155 26.7265 41.2237 27.0921 39.7331C27.1203 39.6487 27.1484 39.6769 27.1484 39.705C27.2609 40.0706 28.1609 40.1269 28.3296 39.3956C28.3296 39.3393 28.3296 39.3112 28.3015 39.3393C27.514 40.1269 25.7421 37.68 28.1609 35.6831C30.214 33.9956 32.0703 34.9237 32.7734 35.4862C32.8015 35.7394 32.6609 35.8237 32.5765 35.8519C32.5484 35.8519 32.5203 35.9081 32.5765 35.9081C32.7734 35.9925 33.0546 35.9644 33.1953 35.7675C33.6453 36.0769 33.2515 36.4706 33.0828 36.5831C33.0265 36.6112 33.0546 36.6394 33.0828 36.6394C33.4765 36.7237 33.814 36.3019 33.8421 36.0769L33.8984 36.1331V37.8769C33.8984 40.38 36.7671 40.7175 39.9171 42.8269C43.0671 40.7175 45.9359 40.3519 45.9359 37.8769V36.1331L45.9921 36.0769C46.0203 36.3019 46.3578 36.7237 46.7515 36.6394C46.8078 36.6394 46.8078 36.6112 46.7515 36.5831C46.5828 36.4706 46.189 36.0769 46.639 35.7675C46.7796 35.9362 47.0328 35.9644 47.2578 35.9081C47.314 35.88 47.314 35.8519 47.2578 35.8519C47.1734 35.8237 47.0046 35.7394 47.0609 35.4862C47.764 34.9237 49.6203 33.9956 51.6734 35.6831C54.0921 37.68 52.3203 40.1269 51.5328 39.3393C51.5046 39.3112 51.4765 39.3393 51.5046 39.3956C51.6734 40.1269 52.6015 40.0706 52.6859 39.705C52.6859 39.6769 52.7421 39.6487 52.7421 39.7331C53.1078 41.2237 55.8359 40.1269 56.0046 43.2206C55.9484 43.2206 55.3578 43.3331 55.1046 43.0518C54.9921 42.9112 54.5421 42.405 54.0078 42.9675C53.9796 42.9956 54.0078 43.0237 54.0078 43.0237C54.7109 42.9956 54.5703 43.5019 54.5421 43.5862C54.064 43.1925 53.3609 43.2768 53.389 44.1768C53.389 44.2612 53.4171 44.2331 53.4453 44.205C53.839 43.6987 54.289 44.0644 54.3171 44.0925C53.9796 44.1487 53.389 44.5706 53.9515 45.2737C53.9796 45.3019 54.0078 45.3581 54.0078 45.2737C54.0921 44.43 54.8234 44.7112 54.964 44.7956C55.0765 44.8519 55.5828 44.9925 55.9203 44.5706C56.0609 45.1894 56.8484 45.1331 56.9328 45.1331C56.989 45.1331 56.989 45.0769 56.9328 45.0487C56.5953 44.8237 56.2859 44.4019 56.7921 44.2331C56.7921 44.2331 57.4671 44.8518 58.0015 44.1768C58.0578 44.1206 58.0296 44.0925 58.0015 44.1206C57.9453 44.1487 57.1578 44.2331 57.214 43.4737C57.2421 42.9393 57.6359 41.1112 56.9046 40.6612C56.8484 40.6331 56.8203 40.605 56.8765 40.5769C57.6078 40.4081 57.7203 39.9019 57.4671 39.3112C57.439 39.2269 57.3828 39.255 57.3828 39.3112C57.3265 40.4925 55.4421 39.93 55.3859 38.2706C56.3984 38.5237 58.1421 38.1862 58.1421 36.5269C58.1421 34.8956 56.0609 34.0237 56.0609 32.8706C56.0609 32.6737 56.0609 31.8581 57.0171 31.8581C57.8046 31.8581 58.3671 32.4487 58.5359 33.0675C58.5359 33.0956 58.5921 33.1237 58.5921 33.0675C58.7046 32.9269 58.6765 32.3081 58.3953 31.9706C58.3671 31.9425 58.3953 31.8862 58.4515 31.9144C58.5359 31.9706 58.8171 32.055 59.0984 32.055C59.7453 32.055 60.0828 31.6894 60.0828 31.1269C60.0828 30.7612 59.9421 30.5644 59.9984 30.4519C60.0265 30.3956 59.9421 30.3675 59.914 30.4237C59.8296 30.5925 59.6609 31.0706 58.9859 31.0706C58.9859 31.0706 57.6359 31.0706 57.4109 31.0706C55.639 31.0706 55.4703 32.505 55.4703 32.8425C55.4703 34.305 57.3265 34.9237 57.3265 36.3862C57.3265 36.7237 57.1578 37.3144 56.2015 37.3144C55.8078 37.3144 55.414 37.2019 55.1328 37.0894C55.1328 37.0894 54.7109 34.5019 53.4734 33.6019C53.4734 33.6019 52.0109 34.305 50.5765 33.5175C49.4796 32.9269 48.9453 32.505 47.989 33.18C47.0328 33.855 46.1609 34.5862 46.0765 34.5581L45.8515 34.5019V28.7081C46.3015 28.6519 46.3296 29.0737 46.3015 29.1581C46.2734 29.2987 46.1328 29.4112 46.4421 29.8612C46.4703 29.8894 46.4984 29.8894 46.4984 29.8331C46.4984 29.7206 46.5828 29.5237 46.7234 29.5237C46.864 29.5237 47.5671 30.0581 48.1578 30.6206C48.1578 30.6206 48.4953 29.6081 49.3109 29.2987C48.8609 29.2144 46.864 28.7362 46.864 27.8925C46.864 27.6112 46.5265 27.5269 46.3296 27.555C46.3296 27.5269 45.9921 26.7675 45.4015 27.1612C45.3734 27.1894 45.3734 27.2175 45.4015 27.2456C45.6546 27.3019 45.7953 27.5831 45.7953 27.8925C45.2328 27.7237 42.7578 27.0206 39.8328 27.0206C38.4265 27.0206 37.1046 27.1894 36.064 27.3862V29.4112H35.2765V27.4987H35.4171ZM30.0171 48.0862C29.7921 48.0019 29.6515 47.8612 29.6515 47.58V46.3144C29.2859 46.1737 28.3296 45.8081 26.3609 45.8081C24.7296 45.8081 24.2234 46.1737 24.1953 46.2862L23.7734 48.6487C23.7734 48.6487 24.4203 48.0581 26.7828 48.1987C29.6234 48.3675 32.5484 50.055 32.5484 48.2831V47.2425C30.3546 47.2706 30.0171 47.9737 30.0171 48.0862ZM47.4265 47.2706V48.3112C47.4265 50.0831 50.3515 48.4237 53.1921 48.2268C55.5265 48.0862 56.2015 48.6768 56.2015 48.6768L55.7796 46.3144C55.7515 46.1737 55.2453 45.8362 53.614 45.8362C51.6734 45.8362 50.689 46.2019 50.3234 46.3425V47.58C50.3234 47.8612 50.1828 48.0019 49.9578 48.0862C49.9859 47.9737 49.6484 47.2706 47.4265 47.2706ZM40.0015 46.2019C44.5578 46.2019 49.1984 46.4268 49.789 47.13C49.8453 47.1862 49.8453 47.13 49.8453 47.0737V44.655C49.8453 43.9519 45.064 43.53 40.0015 43.53C34.939 43.53 30.1578 43.9237 30.1578 44.655V47.0737C30.1578 47.13 30.1859 47.1581 30.214 47.13C30.8046 46.4268 35.4453 46.2019 40.0015 46.2019ZM35.9515 34.8112L35.5015 34.6987L35.4453 34.755L34.9109 34.53C34.9109 34.53 35.3046 34.53 35.389 34.53C35.4453 34.53 35.4453 34.5019 35.4171 34.4737C35.1921 34.2487 35.0234 34.08 35.0234 34.08C35.0234 34.08 35.2484 34.1644 35.5578 34.2769C35.5859 34.2769 35.614 34.2769 35.5859 34.2487C35.4453 34.0237 35.2203 33.7425 35.2203 33.7425C35.2203 33.7425 35.6421 34.0237 35.7546 34.1081C35.7828 34.1362 35.8109 34.1081 35.8109 34.08C35.6984 33.7987 35.5578 33.4612 35.5578 33.4612L36.0359 33.9112C36.064 33.9394 36.0921 33.9112 36.0921 33.8831C36.0359 33.6581 35.9515 33.2644 35.9515 33.2644L36.3171 33.7706C36.3453 33.7987 36.3734 33.7987 36.3734 33.7706C36.3734 33.6862 36.3734 33.2081 36.3734 33.2081C36.3734 33.2081 36.514 33.5456 36.5984 33.7144C36.5984 33.7425 36.6546 33.7425 36.6546 33.7144C36.6828 33.6581 36.8234 33.2925 36.8234 33.2925L36.8515 33.855H36.7671L36.6828 34.5581C37.3859 34.3894 38.2296 33.2081 38.8765 33.2081C39.664 33.2081 39.9453 34.1362 41.3796 33.6581C41.7453 34.1925 41.8578 34.6706 41.9984 35.3175C42.5609 35.8519 43.3484 35.6831 43.3484 35.1206C43.3484 34.3612 42.5328 34.2206 42.5328 33.4612C42.5328 33.0956 42.7859 32.6175 43.4609 32.6175C43.8265 32.6175 44.3328 32.7581 44.6421 32.7581C45.0078 32.7581 45.064 32.505 45.1203 32.3925C45.1484 32.3081 45.2609 32.3362 45.2328 32.3925C45.2328 32.4769 45.289 32.5612 45.289 32.73C45.289 33.2081 44.5578 33.2925 44.4734 33.2362C44.4453 33.2081 44.4171 33.2362 44.4453 33.2644C44.5578 33.3487 44.5296 33.6581 44.389 33.8269C44.389 33.855 44.3609 33.855 44.3328 33.8269C44.2484 33.4612 43.8546 33.0394 43.4609 33.0394C43.3203 33.0394 43.0671 33.1237 43.0671 33.4331C43.0671 33.8831 43.9671 34.2769 43.9671 35.205C43.9671 36.1612 43.0109 36.3862 42.0546 36.1612C42.0828 37.0612 43.4328 37.6237 43.4609 36.9487C43.4609 36.8925 43.489 36.9206 43.5171 36.9487C43.714 37.23 43.6296 37.4269 43.3765 37.5394C43.6015 37.6519 43.6578 38.13 43.7421 38.4112C43.8546 38.8331 44.3046 38.6081 44.3046 38.58C44.3328 38.58 44.3328 38.58 44.3328 38.6081C44.164 39.0581 43.714 38.8894 43.714 38.8894C43.489 39.0581 43.7703 39.1987 43.9671 39.2831C43.9953 39.2831 43.9953 39.3112 43.9671 39.3393C43.7984 39.3956 43.4609 39.5081 43.3203 39.2269C43.2078 39.5362 42.9546 39.5081 42.8421 39.5081C42.6734 39.5081 42.5609 39.6769 42.589 39.93C42.589 39.9581 42.589 39.9581 42.5609 39.93C42.139 39.6487 42.3921 39.3393 42.5609 39.255C42.5328 39.2269 42.2515 39.1144 42.1109 39.4519C42.1109 39.48 42.0828 39.48 42.0828 39.4519C41.914 38.9737 42.3078 38.8331 42.589 38.9456C42.5609 38.8894 42.4203 38.6362 42.0546 38.7206C42.0265 38.7206 42.0265 38.7206 42.0265 38.6925C42.0828 38.5518 42.2796 38.3268 42.6171 38.5518C42.7859 38.6644 43.0953 38.4956 43.1234 38.4956C42.5046 37.2862 41.3515 38.2987 41.0703 37.3425C41.0703 37.3144 41.0421 37.3144 41.014 37.3425C40.9578 37.5394 40.4515 37.5675 40.339 37.1737C40.339 37.1456 40.339 37.1456 40.3671 37.1737C40.4515 37.2581 40.5921 37.3144 40.8171 37.005C40.9578 36.8081 40.9859 36.5269 40.9859 36.3581C40.9859 35.6269 40.2546 34.3894 39.1015 34.3894C38.3703 34.3894 37.6109 34.6706 37.0203 35.0925L37.5546 35.2331C37.4984 35.7675 36.9921 36.105 36.4859 35.9644L36.5703 35.3456C36.4859 35.3737 36.2609 35.43 36.1765 35.5987H36.1484C36.064 35.2331 36.3453 35.0644 36.4296 35.0362C36.1765 35.0362 36.0359 35.205 35.9796 35.2894H35.9515C35.8671 35.1206 35.8109 34.9237 35.9515 34.8112ZM37.5265 39.0019C37.3296 39.255 37.1328 39.0019 36.8796 39.0019C36.6265 39.0019 36.5703 39.2269 36.5703 39.3112C36.5703 39.3112 36.5703 39.3394 36.5421 39.3112C36.2609 38.9175 36.5703 38.6925 36.7671 38.6644C36.739 38.6362 36.4578 38.4394 36.289 38.7206C36.289 38.7487 36.2609 38.7206 36.2609 38.7206C36.2609 38.2425 36.6265 38.1862 36.8796 38.4112C36.9359 38.2425 36.7953 38.1019 36.5984 38.1019C36.5703 38.1019 36.5703 38.0737 36.5703 38.0737C36.6546 37.9894 36.739 37.9331 36.8234 37.9331C37.0765 37.9331 37.1328 38.2706 37.3015 38.2706C37.5546 38.2706 37.9484 37.905 37.9765 37.8769C37.9765 37.8487 37.7234 37.1737 37.7515 36.7519C37.7515 36.7237 37.7515 36.7237 37.7234 36.7519C37.5828 36.8362 37.2734 36.8362 37.2734 36.4144C37.2734 36.3862 37.2734 36.3862 37.3015 36.4144C37.4421 36.6112 37.6671 36.3862 37.7796 36.2456C37.9203 36.105 38.5671 35.1487 39.4671 35.1487C39.664 35.1487 39.9171 35.2612 40.114 35.4019C39.8046 35.7675 40.114 36.1331 40.339 36.105C40.3671 36.105 40.3671 36.1331 40.339 36.1331C39.1578 36.5831 38.6234 36.7519 38.6234 37.7362C38.6234 38.2425 38.7921 38.5237 39.1015 38.4675C39.1296 38.4675 39.1296 38.4675 39.1015 38.4956C38.989 38.6362 38.8765 38.6644 38.764 38.6644C38.5109 38.6644 38.4828 38.5237 38.3421 38.5237C38.2015 38.5237 37.7796 38.7769 37.7796 39.0019C37.7796 39.0862 37.8359 39.1987 37.9765 39.3112C37.9765 39.3112 37.9765 39.3112 37.9765 39.3393C37.9484 39.3112 37.6109 39.3112 37.5265 39.0019ZM40.6484 29.3831C40.2828 29.355 40.0296 29.4394 40.0578 29.5519C40.2265 29.7769 40.4515 29.7487 40.6484 29.3831ZM39.2703 30.3112C39.5234 30.255 39.8046 30.2831 39.8328 30.2831C39.889 30.2831 39.889 30.3675 39.8328 30.3675C39.2984 30.4519 39.2703 30.6769 38.9046 30.6769C38.6796 30.6769 38.4265 30.4519 38.5109 30.1144C38.5109 30.0581 38.5671 30.0581 38.5671 30.1144C38.6515 30.255 38.8484 30.4237 39.2703 30.3112ZM32.2109 42.3487C32.5765 42.7987 32.914 42.3769 33.3921 42.3769C33.6171 42.3769 33.8984 42.4612 33.9546 42.9112C33.9546 42.9393 33.9828 42.9393 34.0109 42.9112C34.5171 42.2081 33.9265 41.8144 33.6171 41.7581C33.7015 41.7019 34.1796 41.3925 34.5171 41.8425C34.5453 41.8706 34.5734 41.8706 34.5734 41.8144C34.5734 40.9425 33.8984 40.8581 33.4203 41.2519C33.3359 40.8862 33.589 40.6894 33.9265 40.6894C33.9828 40.6894 33.9828 40.6612 33.9546 40.6331C33.364 39.9862 32.914 40.8019 32.8015 40.9144C32.5765 41.2237 31.7046 40.6331 31.3671 40.2956C31.3671 40.2956 32.1265 39.5081 32.1265 38.7768C32.1265 38.7206 32.1265 38.6644 32.1265 38.6362C32.1265 38.6081 32.1265 38.6081 32.1546 38.6081C32.239 38.6644 32.3234 38.6925 32.4359 38.6925C32.6046 38.6925 32.9421 38.6362 32.9421 38.0456C32.9421 37.9894 32.914 37.9894 32.8859 38.0175C32.8015 38.1581 32.689 38.1862 32.6328 38.1862C32.014 38.1862 30.7484 36.1612 29.2578 36.1612C28.864 36.1612 28.1328 36.4425 27.7671 36.8362C27.9359 36.9487 27.9921 37.1737 27.964 37.3144C27.9359 37.5675 27.739 37.7081 27.514 37.7644C27.4859 37.7644 27.4578 37.7925 27.514 37.8206C28.2734 38.1019 29.6515 38.6362 29.9609 38.8894C30.3265 39.1987 30.2703 39.8175 30.0453 40.6612C29.8484 41.4487 29.3984 41.3643 29.2296 41.3081C29.2015 41.3081 29.2015 41.3081 29.2015 41.3362C29.3984 41.5894 29.6515 41.6737 29.8484 41.6737C30.2421 41.6737 30.3828 41.4206 30.6078 41.4206C30.9453 41.4206 31.6765 41.8987 31.6765 42.2925C31.6765 42.5175 31.5078 42.6862 31.3109 42.8269V42.855C31.4234 42.8831 32.0984 42.9393 32.2109 42.3487ZM48.7484 42.8831C48.7765 42.8831 48.7765 42.855 48.7484 42.855C48.5234 42.7143 48.3828 42.5175 48.3828 42.3206C48.3828 41.955 49.0859 41.4487 49.4515 41.4487C49.6484 41.4487 49.8171 41.7019 50.2109 41.7019C50.4078 41.7019 50.6609 41.6175 50.8578 41.3643C50.8578 41.3362 50.8578 41.3362 50.8296 41.3362C50.6609 41.3644 50.2109 41.4769 50.014 40.6894C49.789 39.8456 49.7328 39.255 50.0984 38.9175C50.4078 38.6644 51.7859 38.13 52.5453 37.8487C52.6015 37.8206 52.5734 37.7925 52.5453 37.7925C52.3203 37.7362 52.1234 37.6237 52.0953 37.3425C52.0671 37.1737 52.0953 36.9487 52.2921 36.8643C51.9265 36.4706 51.1953 36.1894 50.8015 36.1894C49.3109 36.1894 48.0453 38.2143 47.4265 38.2143C47.3421 38.2143 47.2578 38.1862 47.1734 38.0456C47.1453 38.0175 47.1171 38.0175 47.1171 38.0737C47.1171 38.6925 47.4265 38.7206 47.6234 38.7206C47.7078 38.7206 47.8203 38.6925 47.9046 38.6362C47.9328 38.6362 47.9328 38.6362 47.9328 38.6644C47.9328 38.6925 47.9328 38.7487 47.9328 38.805C47.9328 39.5362 48.6921 40.3237 48.6921 40.3237C48.3546 40.6894 47.5109 41.28 47.2578 40.9425C47.1453 40.8018 46.7234 40.0143 46.1046 40.6612C46.0765 40.6894 46.1046 40.7175 46.1328 40.7175C46.4703 40.7175 46.7234 40.9425 46.639 41.28C46.1609 40.8862 45.4859 40.9706 45.4859 41.8425C45.4859 41.8706 45.514 41.8987 45.5421 41.8706C45.8515 41.4206 46.3578 41.73 46.4421 41.7862C46.1046 41.8425 45.514 42.2362 46.0484 42.9394C46.0765 42.9675 46.1046 42.9675 46.1046 42.9394C46.1609 42.4894 46.4421 42.405 46.6671 42.405C47.1453 42.405 47.4828 42.855 47.8484 42.3769C47.9046 42.9394 48.5796 42.8831 48.7484 42.8831ZM36.6546 31.1831C36.5984 31.2394 36.4578 31.1831 36.4015 31.155C36.3734 31.155 36.4015 31.155 36.4015 31.155C36.4578 31.2394 36.5984 31.4925 36.8234 31.4925C36.9359 31.4925 37.0765 31.4362 37.1046 31.3519C37.1046 31.3519 37.9765 31.6331 38.4265 31.7456C38.2578 31.9706 38.1453 32.2519 38.1171 32.5331C37.7515 32.3081 36.3453 31.5769 36.3453 31.5769L35.8953 32.1675C35.8109 32.2519 35.4734 31.9987 35.5296 31.9144L35.8671 31.4644C35.7546 31.3519 35.5015 31.4081 35.4171 31.4362C35.4171 31.4362 35.389 31.4362 35.4171 31.4081C35.4734 31.3237 35.614 31.0425 36.0359 31.155C36.0359 30.9019 35.6703 30.9862 35.5578 31.0144C35.6703 30.9019 35.9515 30.6487 36.3171 30.8737L36.4578 30.6769L36.1484 30.3675L36.3453 30.1144L36.5703 30.3956L38.2015 28.1737C38.2578 28.1175 38.5671 28.0331 38.6796 28.005C38.6796 28.1456 38.7078 28.455 38.6796 28.5112L37.0765 30.7612L37.414 30.8737L37.2453 31.1269L36.8515 30.9581L36.6546 31.1831ZM42.3359 30.8175C42.3359 31.0144 42.4765 31.3237 42.7296 31.2394H42.7578C42.7015 31.4644 42.3078 31.6894 42.139 31.4081C41.9703 31.7737 41.9984 32.0831 42.364 32.28C42.3921 32.28 42.3921 32.3081 42.364 32.3362C42.139 32.4769 41.8296 32.4487 41.6609 32.1675C41.3796 32.3925 41.4078 32.8425 41.5765 33.0112C41.5765 33.0112 40.7609 33.4894 40.0296 33.1519C39.5515 32.9269 39.1578 32.6175 38.539 32.6737C38.6234 31.8019 39.0734 31.5769 39.8609 31.4362C40.5078 31.3237 40.5921 31.0425 40.4796 30.8175C40.2546 30.7612 39.8609 30.9581 39.8609 30.9581C39.7765 30.8456 39.889 30.705 39.889 30.705C39.8328 30.6487 39.8328 30.48 39.8328 30.48C40.2828 30.48 40.3671 30.3956 40.3671 30.3956C40.4515 29.9175 39.9734 29.8612 39.6078 30.1425C39.439 30.0019 39.4671 29.7769 39.4671 29.7769C39.4109 29.7487 39.3828 29.6644 39.3828 29.6362C39.3828 29.5237 39.9171 29.2144 40.0578 29.1862C40.0859 29.0175 40.2828 28.8206 40.8453 28.8769C40.9015 28.7362 40.789 28.1737 40.7328 28.0331C40.7046 27.9769 40.7328 27.9487 40.789 27.9769C40.9859 28.1175 41.1828 28.5675 41.3234 28.5675C41.3234 28.5675 41.9703 28.23 41.9984 28.2581C42.0265 28.2862 42.1109 28.9894 42.1109 28.9894C42.1953 29.1019 42.6734 28.9894 42.8984 29.0737C42.9546 29.1019 42.9546 29.13 42.8984 29.1581C42.7296 29.1862 42.2234 29.4112 42.139 29.5519C42.4765 30.0019 42.3359 30.6487 42.3359 30.8175Z" fill="white"/>
</g>
<defs>
<clipPath id="clip0_3473_269">
<rect y="0.501953" width="80" height="80" rx="40" fill="white"/>
</clipPath>
</defs>
</svg>
