<svg width="65" height="64" viewBox="0 0 65 64" fill="none" xmlns="http://www.w3.org/2000/svg">
<g clip-path="url(#clip0_3422_1060)">
<path d="M77.5459 -16H-12.4541V74H77.5459V-16Z" fill="white"/>
<path d="M51.289 -16H13.7815V49.6325H51.289V-16Z" fill="#154373"/>
<path d="M33.2002 32.6003H32.5477V30.8003H33.2002V32.6003ZM36.1477 24.6353H35.4952V22.8353H36.1477V24.6353ZM24.0652 21.5078C24.0202 21.5078 23.6827 21.5078 23.6827 21.5753C23.6827 21.6428 23.8402 21.6203 24.0652 21.6428C24.5827 21.7328 24.7852 22.0028 25.1452 22.0028C25.4827 22.0028 25.8202 21.7778 25.6852 21.3053C25.6627 21.2378 25.6177 21.2378 25.6177 21.3053C25.5727 21.5078 25.3027 21.6428 25.0102 21.6428C24.6727 21.6203 24.6052 21.5078 24.0652 21.5078ZM20.4877 23.3078C20.5552 23.3753 21.1627 24.1853 20.2177 24.5003C20.1727 24.5228 20.1502 24.5453 20.2177 24.5903C20.9152 24.8828 21.2527 24.3428 21.2527 24.3428C21.6127 25.1528 21.0727 25.5803 21.0727 25.5803C21.1402 25.7153 21.4777 25.9628 21.9952 26.0753C22.1752 25.9628 22.4452 25.7828 22.5577 25.4678C22.5577 25.4678 22.6927 25.8278 22.5577 26.1428C23.9752 26.2778 24.4927 25.1303 25.5952 25.3328C25.6402 25.3328 25.6402 25.3103 25.6402 25.2878C25.6402 24.5903 25.2127 23.3078 23.8402 23.0378C22.4902 22.7678 22.8502 22.2278 22.8502 22.2278C23.4127 22.2053 23.7502 22.4528 23.7502 22.4528C23.8627 22.2728 23.7052 22.0928 23.7052 22.0928C23.7502 22.0253 23.7952 21.8003 23.7952 21.8003C23.1652 21.8003 22.9852 21.6653 22.9852 21.6653C22.8727 21.2828 23.1652 20.7428 24.1102 21.3278C24.3577 21.1253 24.3352 20.7878 24.3352 20.7878C24.4027 20.7428 24.4477 20.6528 24.4477 20.5853C24.4477 20.4278 23.6827 20.0003 23.4802 19.9553C23.4352 19.7303 23.1427 19.3928 22.2427 19.5053C21.8152 19.5503 21.5002 19.4378 21.6577 19.1903C21.6802 19.1453 21.6127 19.1453 21.5677 19.1903C21.4552 19.3028 21.3427 19.5728 21.7027 19.7528C22.1077 19.9553 22.1302 20.3828 22.1527 20.4278C22.1527 20.5178 22.0402 20.5178 22.0402 20.4278C21.8602 19.7303 20.8927 19.5728 20.3302 19.9553C20.3752 20.3378 20.7577 20.5853 20.9827 20.5853C21.1177 20.5853 21.2752 20.4503 21.2752 20.2928C21.2752 20.2028 21.3202 20.2253 21.3427 20.2928C21.4327 20.5403 21.0727 21.0578 20.5327 20.7428C19.9702 21.3053 20.1952 21.9803 20.2402 22.2278C20.3527 22.6778 20.1277 23.1278 19.7227 22.9253C19.7002 22.9253 19.6777 22.9028 19.6777 22.9703C19.6777 23.2403 20.0377 23.5553 20.4877 23.3078ZM23.5252 20.5178C23.2777 20.8103 22.8502 20.7428 22.7377 20.2703C23.2777 20.2478 23.5027 20.2928 23.5252 20.5178ZM40.0627 21.6203C39.7702 21.6203 39.5227 21.5078 39.4552 21.2828C39.4552 21.2378 39.3877 21.2153 39.3877 21.2828C39.2527 21.7553 39.5902 21.9803 39.9277 21.9803C40.2877 21.9803 40.4902 21.7103 41.0077 21.6203C41.2327 21.5753 41.3902 21.6203 41.3902 21.5528C41.3902 21.4853 41.0527 21.4853 41.0077 21.4853C40.4902 21.5078 40.4227 21.6203 40.0627 21.6203ZM45.4177 22.9478C45.4177 22.9028 45.3952 22.9028 45.3727 22.9028C44.9677 23.1053 44.7427 22.6553 44.8552 22.2053C44.9227 21.9578 45.1477 21.2603 44.5627 20.7203C44.0227 21.0353 43.6402 20.5178 43.7527 20.2703C43.7752 20.2028 43.8202 20.2028 43.8202 20.2703C43.8202 20.4503 44.0002 20.5628 44.1127 20.5628C44.3377 20.5628 44.7427 20.3153 44.7652 19.9328C44.2027 19.5728 43.2577 19.7078 43.0552 20.4053C43.0327 20.4953 42.9202 20.4728 42.9427 20.4053C42.9427 20.3378 42.9652 19.9328 43.3927 19.7303C43.7752 19.5503 43.6402 19.2803 43.5277 19.1678C43.4827 19.1228 43.4152 19.1228 43.4377 19.1678C43.5727 19.4153 43.2802 19.5278 42.8527 19.4828C41.9527 19.3703 41.6602 19.6853 41.6152 19.9328C41.4127 19.9778 40.6477 20.4053 40.6477 20.5628C40.6477 20.6078 40.6927 20.7203 40.7602 20.7653C40.7602 20.7653 40.7377 21.0803 40.9852 21.3053C41.9302 20.7203 42.2002 21.2603 42.1102 21.6428C42.1102 21.6428 41.9302 21.7778 41.3002 21.7778C41.3002 21.7778 41.3452 22.0028 41.3902 22.0703C41.3902 22.0703 41.2552 22.2503 41.3452 22.4303C41.3452 22.4303 41.6827 22.1828 42.2452 22.2053C42.2452 22.2053 42.6052 22.7678 41.2552 23.0153C39.9052 23.2628 39.4552 24.5678 39.4552 25.2653C39.4552 25.3103 39.4777 25.3103 39.5002 25.3103C40.6027 25.1078 41.0977 26.2553 42.5377 26.1203C42.4027 25.7828 42.5377 25.4453 42.5377 25.4453C42.6502 25.7378 42.9202 25.9403 43.1002 26.0528C43.5952 25.9403 43.9327 25.6928 44.0227 25.5578C44.0227 25.5578 43.4827 25.1078 43.8427 24.3203C43.8427 24.3203 44.1802 24.8603 44.8777 24.5678C44.9452 24.5453 44.9227 24.5003 44.8777 24.4778C43.9327 24.1628 44.5402 23.3753 44.6077 23.2853C45.0577 23.5553 45.4177 23.2403 45.4177 22.9478ZM42.3352 20.2703C42.2227 20.7428 41.8177 20.8103 41.5477 20.5178C41.5927 20.2928 41.8177 20.2478 42.3352 20.2703ZM32.3002 12.2603C32.3002 12.3728 32.3452 12.4853 32.3902 12.5528C32.4802 12.6653 32.4577 12.7328 32.4352 12.7778C32.3902 12.8228 32.3227 12.8228 32.2102 12.7328C32.1427 12.6878 32.0527 12.6428 31.9177 12.6428C31.7152 12.6428 31.6027 12.7778 31.6027 12.8903C31.6027 13.0028 31.7152 13.1378 31.9177 13.1378C32.0302 13.1378 32.1427 13.0928 32.2102 13.0478C32.3227 12.9578 32.3902 12.9803 32.4352 13.0028C32.4802 13.0478 32.4127 13.4528 32.3677 13.7678C32.0302 13.8353 31.8727 14.1053 31.8727 14.2628C31.8727 14.6678 32.3002 14.9153 32.5702 15.0503C32.8177 14.9153 33.2677 14.6678 33.2677 14.2628C33.2677 14.1053 33.1102 13.8353 32.7727 13.7678C32.7277 13.4528 32.6602 13.0253 32.7052 13.0028C32.7502 12.9578 32.8177 12.9578 32.9302 13.0478C32.9977 13.0928 33.0877 13.1378 33.2227 13.1378C33.4252 13.1378 33.5377 13.0028 33.5377 12.8903C33.5377 12.7778 33.4252 12.6428 33.2227 12.6428C33.1102 12.6428 32.9977 12.6878 32.9302 12.7328C32.8177 12.8228 32.7502 12.8003 32.7052 12.7778C32.6602 12.7328 32.6602 12.6653 32.7502 12.5528C32.7952 12.4853 32.8402 12.3953 32.8402 12.2603C32.8402 12.0578 32.7052 11.9453 32.5927 11.9453C32.4352 11.9453 32.3002 12.0578 32.3002 12.2603ZM32.5477 15.2978C32.2777 15.2978 32.0527 15.5228 32.0527 15.7928C32.0527 16.0628 32.2777 16.2878 32.5477 16.2878C32.8177 16.2878 33.0427 16.0628 33.0427 15.7928C33.0427 15.5228 32.8177 15.2978 32.5477 15.2978ZM32.5477 20.1128C34.5502 20.1128 35.6752 20.4953 35.6752 20.4953C35.6752 19.4828 35.6752 18.9203 36.2602 19.0103C35.9452 18.1553 37.3177 17.8178 37.3177 16.7153C37.3177 15.9953 36.8002 15.9053 36.6427 15.9053C36.1927 15.9053 36.2602 16.1978 35.8777 16.1978C35.8327 16.1978 35.7877 16.1978 35.7877 16.2203C35.7877 16.3553 35.9002 16.5578 36.0802 16.5578C36.3277 16.5578 36.3277 16.3103 36.5077 16.3103C36.5752 16.3103 36.6877 16.3778 36.6877 16.6253C36.6877 17.0978 36.3727 17.6153 36.0127 18.0203C35.9227 17.9078 35.8102 17.8403 35.6752 17.8403C35.4727 17.8403 35.2702 18.0653 35.2702 18.3353C35.2702 18.4478 35.2927 18.5153 35.3152 18.6053C35.2027 18.6728 35.0902 18.7178 35.0002 18.7178C34.8427 18.7178 34.5952 18.6503 34.5952 18.2903C34.5952 17.4803 35.6752 16.7828 35.6752 15.7703C35.6752 15.2753 35.3602 14.8028 34.6852 14.8028C33.9652 14.8028 34.1002 15.4778 33.4702 15.4778C33.4477 15.4778 33.4252 15.4778 33.4252 15.5228C33.4252 15.5678 33.5377 15.9278 33.8527 15.9278C34.2127 15.9278 34.3027 15.3203 34.5952 15.3203C34.7077 15.3203 34.8877 15.3878 34.8877 15.7928C34.8877 16.1078 34.7302 16.6253 34.5052 17.1203C34.4152 17.0303 34.3027 16.9853 34.1902 16.9853C33.9202 16.9853 33.7402 17.2553 33.7402 17.5478C33.7402 17.7503 33.8077 17.9303 33.9427 18.0653C33.7852 18.2678 33.6277 18.4253 33.4027 18.4253C32.9752 18.4253 32.7727 18.1778 32.7727 17.9078C32.7727 17.6153 33.2902 17.5253 33.2902 17.0528C33.2902 16.7378 33.0877 16.5578 32.9077 16.5578C32.7052 16.5578 32.5927 16.6928 32.5702 16.6928C32.5477 16.6928 32.4352 16.5578 32.2327 16.5578C32.0302 16.5578 31.8502 16.7378 31.8502 17.0528C31.8502 17.5028 32.3677 17.6153 32.3677 17.9078C32.3677 18.1778 32.1877 18.4253 31.7377 18.4253C31.5127 18.4253 31.3552 18.2678 31.1977 18.0653C31.3327 17.9303 31.4002 17.7503 31.4002 17.5478C31.4002 17.2328 31.1977 16.9853 30.9502 16.9853C30.8152 16.9853 30.7027 17.0528 30.6352 17.1203C30.4102 16.6253 30.2527 16.1078 30.2527 15.7928C30.2527 15.3878 30.4327 15.3203 30.5452 15.3203C30.8602 15.3203 30.9502 15.9278 31.2877 15.9278C31.6027 15.9278 31.7152 15.5678 31.7152 15.5228C31.7152 15.5003 31.6927 15.4778 31.6702 15.4778C31.0402 15.4778 31.1752 14.8028 30.4552 14.8028C29.7802 14.8028 29.4652 15.2978 29.4652 15.7703C29.4652 16.7828 30.5452 17.5028 30.5452 18.2903C30.5452 18.6503 30.2977 18.7178 30.1402 18.7178C30.0502 18.7178 29.9602 18.6728 29.8252 18.6053C29.8702 18.5153 29.8702 18.4478 29.8702 18.3353C29.8702 18.0428 29.6902 17.8403 29.4652 17.8403C29.3302 17.8403 29.2177 17.9078 29.1277 18.0203C28.7677 17.6153 28.4527 17.0978 28.4527 16.6253C28.4527 16.3778 28.5652 16.3103 28.6327 16.3103C28.8127 16.3103 28.8127 16.5578 29.0602 16.5578C29.2402 16.5578 29.3527 16.3328 29.3527 16.2203C29.3527 16.1753 29.3077 16.1978 29.2627 16.1978C28.8802 16.1978 28.9477 15.9053 28.4977 15.9053C28.3402 15.9053 27.8227 15.9953 27.8227 16.7153C27.8227 17.8178 29.1952 18.1553 28.8802 19.0103C29.4652 18.9203 29.4427 19.4828 29.4652 20.4953C29.4202 20.4953 30.5452 20.1128 32.5477 20.1128ZM28.8802 21.5978C28.3402 21.7103 27.9352 21.8228 27.7777 21.8903C27.7777 21.6428 27.8902 21.4403 28.0927 21.3728C28.1152 21.3728 28.1377 21.3278 28.0927 21.3053C27.5977 20.9903 27.3502 21.5978 27.3502 21.6203C27.1702 21.5978 26.9227 21.6653 26.9227 21.8903C26.9227 22.5878 25.3477 22.9703 24.9652 23.0153C25.6177 23.2628 25.8877 24.0728 25.8877 24.0728C26.3602 23.6003 26.9002 23.1953 27.0352 23.1953C27.1702 23.1953 27.2152 23.3528 27.2152 23.4428C27.2152 23.4878 27.2602 23.4878 27.2602 23.4653C27.5077 23.1053 27.3952 23.0153 27.3727 22.9028C27.3502 22.8128 27.3727 22.4978 27.7327 22.5428V27.1778L27.5527 27.2228C27.4627 27.2453 26.7877 26.6603 26.0002 26.1203C25.2352 25.5803 24.8077 25.9178 23.9302 26.3903C22.7602 27.0203 21.6127 26.4578 21.6127 26.4578C20.6227 27.1778 20.2852 29.2478 20.2852 29.2478C20.0827 29.3378 19.7677 29.4278 19.4302 29.4278C18.6652 29.4278 18.5302 28.9778 18.5302 28.6853C18.5302 27.5153 20.0152 26.9978 20.0152 25.8503C20.0152 25.5578 19.8802 24.4328 18.4627 24.4328C18.2827 24.4328 17.2027 24.4328 17.2027 24.4328C16.6852 24.4328 16.5277 24.0503 16.4602 23.9153C16.4377 23.8703 16.3927 23.8928 16.3927 23.9378C16.4377 24.0278 16.3252 24.1853 16.3252 24.4778C16.3252 24.9503 16.5952 25.2203 17.1127 25.2203C17.3602 25.2203 17.5627 25.1528 17.6302 25.1078C17.6752 25.0853 17.6977 25.1303 17.6752 25.1528C17.4502 25.4228 17.4277 25.8953 17.5177 26.0303C17.5402 26.0528 17.5627 26.0528 17.5627 26.0303C17.6977 25.5353 18.1477 25.0628 18.7777 25.0628C19.5427 25.0628 19.5427 25.7153 19.5427 25.8728C19.5427 26.8178 17.8777 27.5153 17.8777 28.7978C17.8777 30.1253 19.2727 30.3953 20.0827 30.1928C20.0377 31.5203 18.5302 31.9478 18.4852 31.0253C18.4852 30.9803 18.4402 30.9578 18.4177 31.0253C18.2377 31.4978 18.3052 31.9028 18.8902 32.0378C18.9352 32.0378 18.9127 32.0828 18.8677 32.1053C18.3052 32.4878 18.6202 33.9503 18.6427 34.3778C18.6877 34.9853 18.0802 34.9178 18.0127 34.8953C17.9902 34.8953 17.9677 34.8953 18.0127 34.9403C18.4402 35.4578 18.9802 34.9853 18.9802 34.9853C19.3852 35.1203 19.1377 35.4578 18.8677 35.6378C18.8227 35.6603 18.8227 35.7053 18.8677 35.7053C18.9352 35.7053 19.5652 35.7728 19.6777 35.2553C19.9702 35.5928 20.3752 35.4578 20.4427 35.4353C20.5552 35.3678 21.1402 35.1653 21.2077 35.8178C21.2077 35.8628 21.2527 35.8403 21.2527 35.8178C21.7027 35.2553 21.2077 34.9178 20.9602 34.8728C20.9827 34.8278 21.3427 34.5578 21.6577 34.9628C21.6802 34.9853 21.7027 35.0078 21.7027 34.9403C21.7477 34.2428 21.1627 34.1753 20.7802 34.4678C20.7577 34.4003 20.6452 33.9953 21.2077 34.0178C21.2302 34.0178 21.2527 33.9953 21.2077 33.9728C20.7802 33.5228 20.3977 33.9278 20.3302 34.0403C20.1277 34.2653 19.6552 34.1753 19.6102 34.1753C19.7677 31.7228 21.9277 32.5778 22.2202 31.3853C22.2427 31.3178 22.2652 31.3403 22.2652 31.3628C22.3552 31.6553 23.0752 31.7003 23.2102 31.1153C23.2102 31.0703 23.2102 31.0478 23.1877 31.0703C22.5577 31.7003 21.1402 29.7428 23.0752 28.1453C24.7177 26.7953 26.2027 27.5378 26.7652 27.9878C26.7877 28.1903 26.6752 28.2578 26.6077 28.2803C26.5852 28.2803 26.5627 28.3253 26.6077 28.3253C26.7652 28.3928 26.9902 28.3703 27.1027 28.2128C27.4627 28.4603 27.1477 28.7753 27.0127 28.8653C26.9677 28.8878 26.9902 28.9103 27.0127 28.9103C27.3277 28.9778 27.5977 28.6403 27.6202 28.4603L27.6652 28.5053V29.9003C27.6652 31.9028 29.9602 32.1728 32.4802 33.8603C35.0002 32.1728 37.2952 31.8803 37.2952 29.9003V28.5053L37.3402 28.4603C37.3627 28.6403 37.6327 28.9778 37.9477 28.9103C37.9927 28.9103 37.9927 28.8878 37.9477 28.8653C37.8127 28.7753 37.4977 28.4603 37.8577 28.2128C37.9702 28.3478 38.1727 28.3703 38.3527 28.3253C38.3977 28.3028 38.3977 28.2803 38.3527 28.2803C38.2852 28.2578 38.1502 28.1903 38.1952 27.9878C38.7577 27.5378 40.2427 26.7953 41.8852 28.1453C43.8202 29.7428 42.4027 31.7003 41.7727 31.0703C41.7502 31.0478 41.7277 31.0703 41.7502 31.1153C41.8852 31.7003 42.6277 31.6553 42.6952 31.3628C42.6952 31.3403 42.7402 31.3178 42.7402 31.3853C43.0327 32.5778 45.2152 31.7003 45.3502 34.1753C45.3052 34.1753 44.8327 34.2653 44.6302 34.0403C44.5402 33.9278 44.1802 33.5228 43.7527 33.9728C43.7302 33.9953 43.7527 34.0178 43.7527 34.0178C44.3152 33.9953 44.2027 34.4003 44.1802 34.4678C43.7977 34.1528 43.2352 34.2203 43.2577 34.9403C43.2577 35.0078 43.2802 34.9853 43.3027 34.9628C43.6177 34.5578 43.9777 34.8503 44.0002 34.8728C43.7302 34.9178 43.2577 35.2553 43.7077 35.8178C43.7302 35.8403 43.7527 35.8853 43.7527 35.8178C43.8202 35.1428 44.4052 35.3678 44.5177 35.4353C44.6077 35.4803 45.0127 35.5928 45.2827 35.2553C45.3952 35.7503 46.0252 35.7053 46.0927 35.7053C46.1377 35.7053 46.1377 35.6603 46.0927 35.6378C45.8227 35.4578 45.5752 35.1203 45.9802 34.9853C45.9802 34.9853 46.5202 35.4803 46.9477 34.9403C46.9927 34.8953 46.9702 34.8728 46.9477 34.8953C46.9027 34.9178 46.2727 34.9853 46.3177 34.3778C46.3402 33.9503 46.6552 32.4878 46.0702 32.1278C46.0252 32.1053 46.0027 32.0828 46.0477 32.0603C46.6327 31.9253 46.7227 31.5203 46.5202 31.0478C46.4977 30.9803 46.4527 31.0028 46.4527 31.0478C46.4077 31.9928 44.9002 31.5428 44.8552 30.2153C45.6652 30.4178 47.0602 30.1478 47.0602 28.8203C47.0602 27.5153 45.3952 26.8178 45.3952 25.8953C45.3952 25.7378 45.3952 25.0853 46.1602 25.0853C46.7902 25.0853 47.2402 25.5578 47.3752 26.0528C47.3752 26.0753 47.4202 26.0978 47.4202 26.0528C47.5102 25.9403 47.4877 25.4453 47.2627 25.1753C47.2402 25.1528 47.2627 25.1078 47.3077 25.1303C47.3752 25.1753 47.6002 25.2428 47.8252 25.2428C48.3427 25.2428 48.6127 24.9503 48.6127 24.5003C48.6127 24.2078 48.5002 24.0503 48.5452 23.9603C48.5677 23.9153 48.5002 23.8928 48.4777 23.9378C48.4102 24.0728 48.2752 24.4553 47.7352 24.4553C47.7352 24.4553 46.6552 24.4553 46.4752 24.4553C45.0577 24.4553 44.9227 25.6028 44.9227 25.8728C44.9227 27.0428 46.4077 27.5378 46.4077 28.7078C46.4077 28.9778 46.2727 29.4503 45.5077 29.4503C45.1927 29.4503 44.8777 29.3603 44.6527 29.2703C44.6527 29.2703 44.3152 27.2003 43.3252 26.4803C43.3252 26.4803 42.1552 27.0428 41.0077 26.4128C40.1302 25.9403 39.7027 25.6028 38.9377 26.1428C38.1727 26.6828 37.4752 27.2678 37.4077 27.2453L37.2277 27.2003V22.5653C37.5877 22.5203 37.6102 22.8578 37.5877 22.9253C37.5652 23.0378 37.4527 23.1278 37.7002 23.4878C37.7227 23.5103 37.7452 23.5103 37.7452 23.4653C37.7452 23.3753 37.8127 23.2178 37.9252 23.2178C38.0377 23.2178 38.6002 23.6453 39.0727 24.0953C39.0727 24.0953 39.3427 23.2853 39.9952 23.0378C39.6352 22.9703 38.0377 22.5878 38.0377 21.9128C38.0377 21.6878 37.7677 21.6203 37.6102 21.6428C37.6102 21.6203 37.3402 21.0128 36.8677 21.3278C36.8452 21.3503 36.8452 21.3728 36.8677 21.3953C37.0702 21.4403 37.1827 21.6653 37.1827 21.9128C36.7327 21.7778 34.7527 21.2153 32.4127 21.2153C31.2877 21.2153 30.2302 21.3503 29.3977 21.5078V23.1278H28.7677V21.5978H28.8802ZM24.5602 38.0678C24.3802 38.0003 24.2677 37.8878 24.2677 37.6628V36.6503C23.9752 36.5378 23.2102 36.2453 21.6352 36.2453C20.3302 36.2453 19.9252 36.5378 19.9027 36.6278L19.5652 38.5178C19.5652 38.5178 20.0827 38.0453 21.9727 38.1578C24.2452 38.2928 26.5852 39.6428 26.5852 38.2253V37.3928C24.8302 37.4153 24.5602 37.9778 24.5602 38.0678ZM38.4877 37.4153V38.2478C38.4877 39.6653 40.8277 38.3378 43.1002 38.1803C44.9677 38.0678 45.5077 38.5403 45.5077 38.5403L45.1702 36.6503C45.1477 36.5378 44.7427 36.2678 43.4377 36.2678C41.8852 36.2678 41.0977 36.5603 40.8052 36.6728V37.6628C40.8052 37.8878 40.6927 38.0003 40.5127 38.0678C40.5352 37.9778 40.2652 37.4153 38.4877 37.4153ZM32.5477 36.5603C36.1927 36.5603 39.9052 36.7403 40.3777 37.3028C40.4227 37.3478 40.4227 37.3028 40.4227 37.2578V35.3228C40.4227 34.7603 36.5977 34.4228 32.5477 34.4228C28.4977 34.4228 24.6727 34.7378 24.6727 35.3228V37.2578C24.6727 37.3028 24.6952 37.3253 24.7177 37.3028C25.1902 36.7403 28.9027 36.5603 32.5477 36.5603ZM29.3077 27.4478L28.9477 27.3578L28.9027 27.4028L28.4752 27.2228C28.4752 27.2228 28.7902 27.2228 28.8577 27.2228C28.9027 27.2228 28.9027 27.2003 28.8802 27.1778C28.7002 26.9978 28.5652 26.8628 28.5652 26.8628C28.5652 26.8628 28.7452 26.9303 28.9927 27.0203C29.0152 27.0203 29.0377 27.0203 29.0152 26.9978C28.9027 26.8178 28.7227 26.5928 28.7227 26.5928C28.7227 26.5928 29.0602 26.8178 29.1502 26.8853C29.1727 26.9078 29.1952 26.8853 29.1952 26.8628C29.1052 26.6378 28.9927 26.3678 28.9927 26.3678L29.3752 26.7278C29.3977 26.7503 29.4202 26.7278 29.4202 26.7053C29.3752 26.5253 29.3077 26.2103 29.3077 26.2103L29.6002 26.6153C29.6227 26.6378 29.6452 26.6378 29.6452 26.6153C29.6452 26.5478 29.6452 26.1653 29.6452 26.1653C29.6452 26.1653 29.7577 26.4353 29.8252 26.5703C29.8252 26.5928 29.8702 26.5928 29.8702 26.5703C29.8927 26.5253 30.0052 26.2328 30.0052 26.2328L30.0277 26.6828H29.9602L29.8927 27.2453C30.4552 27.1103 31.1302 26.1653 31.6477 26.1653C32.2777 26.1653 32.5027 26.9078 33.6502 26.5253C33.9427 26.9528 34.0327 27.3353 34.1452 27.8528C34.5952 28.2803 35.2252 28.1453 35.2252 27.6953C35.2252 27.0878 34.5727 26.9753 34.5727 26.3678C34.5727 26.0753 34.7752 25.6928 35.3152 25.6928C35.6077 25.6928 36.0127 25.8053 36.2602 25.8053C36.5527 25.8053 36.5977 25.6028 36.6427 25.5128C36.6652 25.4453 36.7552 25.4678 36.7327 25.5128C36.7327 25.5803 36.7777 25.6478 36.7777 25.7828C36.7777 26.1653 36.1927 26.2328 36.1252 26.1878C36.1027 26.1653 36.0802 26.1878 36.1027 26.2103C36.1927 26.2778 36.1702 26.5253 36.0577 26.6603C36.0577 26.6828 36.0352 26.6828 36.0127 26.6603C35.9452 26.3678 35.6302 26.0303 35.3152 26.0303C35.2027 26.0303 35.0002 26.0978 35.0002 26.3453C35.0002 26.7053 35.7202 27.0203 35.7202 27.7628C35.7202 28.5278 34.9552 28.7078 34.1902 28.5278C34.2127 29.2478 35.2927 29.6978 35.3152 29.1578C35.3152 29.1128 35.3377 29.1353 35.3602 29.1578C35.5177 29.3828 35.4502 29.5403 35.2477 29.6303C35.4277 29.7203 35.4727 30.1028 35.5402 30.3278C35.6302 30.6653 35.9902 30.4853 35.9902 30.4628C36.0127 30.4628 36.0127 30.4628 36.0127 30.4853C35.8777 30.8453 35.5177 30.7103 35.5177 30.7103C35.3377 30.8453 35.5627 30.9578 35.7202 31.0253C35.7427 31.0253 35.7427 31.0478 35.7202 31.0703C35.5852 31.1153 35.3152 31.2053 35.2027 30.9803C35.1127 31.2278 34.9102 31.2053 34.8202 31.2053C34.6852 31.2053 34.5952 31.3403 34.6177 31.5428C34.6177 31.5653 34.6177 31.5653 34.5952 31.5428C34.2577 31.3178 34.4602 31.0703 34.5952 31.0028C34.5727 30.9803 34.3477 30.8903 34.2352 31.1603C34.2352 31.1828 34.2127 31.1828 34.2127 31.1603C34.0777 30.7778 34.3927 30.6653 34.6177 30.7553C34.5952 30.7103 34.4827 30.5078 34.1902 30.5753C34.1677 30.5753 34.1677 30.5753 34.1677 30.5528C34.2127 30.4403 34.3702 30.2603 34.6402 30.4403C34.7752 30.5303 35.0227 30.3953 35.0452 30.3953C34.5502 29.4278 33.6277 30.2378 33.4027 29.4728C33.4027 29.4503 33.3802 29.4503 33.3577 29.4728C33.3127 29.6303 32.9077 29.6528 32.8177 29.3378C32.8177 29.3153 32.8177 29.3153 32.8402 29.3378C32.9077 29.4053 33.0202 29.4503 33.2002 29.2028C33.3127 29.0453 33.3352 28.8203 33.3352 28.6853C33.3352 28.1003 32.7502 27.1103 31.8277 27.1103C31.2427 27.1103 30.6352 27.3353 30.1627 27.6728L30.5902 27.7853C30.5452 28.2128 30.1402 28.4828 29.7352 28.3703L29.8027 27.8753C29.7352 27.8978 29.5552 27.9428 29.4877 28.0778H29.4652C29.3977 27.7853 29.6227 27.6503 29.6902 27.6278C29.4877 27.6278 29.3752 27.7628 29.3302 27.8303H29.3077C29.2402 27.6953 29.1952 27.5378 29.3077 27.4478ZM30.5677 30.8003C30.4102 31.0028 30.2527 30.8003 30.0502 30.8003C29.8477 30.8003 29.8027 30.9803 29.8027 31.0478C29.8027 31.0478 29.8027 31.0703 29.7802 31.0478C29.5552 30.7328 29.8027 30.5528 29.9602 30.5303C29.9377 30.5078 29.7127 30.3503 29.5777 30.5753C29.5777 30.5978 29.5552 30.5753 29.5552 30.5753C29.5552 30.1928 29.8477 30.1478 30.0502 30.3278C30.0952 30.1928 29.9827 30.0803 29.8252 30.0803C29.8027 30.0803 29.8027 30.0578 29.8027 30.0578C29.8702 29.9903 29.9377 29.9453 30.0052 29.9453C30.2077 29.9453 30.2527 30.2153 30.3877 30.2153C30.5902 30.2153 30.9052 29.9228 30.9277 29.9003C30.9277 29.8778 30.7252 29.3378 30.7477 29.0003C30.7477 28.9778 30.7477 28.9778 30.7252 29.0003C30.6127 29.0678 30.3652 29.0678 30.3652 28.7303C30.3652 28.7078 30.3652 28.7078 30.3877 28.7303C30.5002 28.8878 30.6802 28.7078 30.7702 28.5953C30.8827 28.4828 31.4002 27.7178 32.1202 27.7178C32.2777 27.7178 32.4802 27.8078 32.6377 27.9203C32.3902 28.2128 32.6377 28.5053 32.8177 28.4828C32.8402 28.4828 32.8402 28.5053 32.8177 28.5053C31.8727 28.8653 31.4452 29.0003 31.4452 29.7878C31.4452 30.1928 31.5802 30.4178 31.8277 30.3728C31.8502 30.3728 31.8502 30.3728 31.8277 30.3953C31.7377 30.5078 31.6477 30.5303 31.5577 30.5303C31.3552 30.5303 31.3327 30.4178 31.2202 30.4178C31.1077 30.4178 30.7702 30.6203 30.7702 30.8003C30.7702 30.8678 30.8152 30.9578 30.9277 31.0478C30.9277 31.0478 30.9277 31.0478 30.9277 31.0703C30.9052 31.0478 30.6352 31.0478 30.5677 30.8003ZM33.0652 23.1053C32.7727 23.0828 32.5702 23.1503 32.5927 23.2403C32.7277 23.4203 32.9077 23.3978 33.0652 23.1053ZM31.9627 23.8478C32.1652 23.8028 32.3902 23.8253 32.4127 23.8253C32.4577 23.8253 32.4577 23.8928 32.4127 23.8928C31.9852 23.9603 31.9627 24.1403 31.6702 24.1403C31.4902 24.1403 31.2877 23.9603 31.3552 23.6903C31.3552 23.6453 31.4002 23.6453 31.4002 23.6903C31.4677 23.8028 31.6252 23.9378 31.9627 23.8478ZM26.3152 33.4778C26.6077 33.8378 26.8777 33.5003 27.2602 33.5003C27.4402 33.5003 27.6652 33.5678 27.7102 33.9278C27.7102 33.9503 27.7327 33.9503 27.7552 33.9278C28.1602 33.3653 27.6877 33.0503 27.4402 33.0053C27.5077 32.9603 27.8902 32.7128 28.1602 33.0728C28.1827 33.0953 28.2052 33.0953 28.2052 33.0503C28.2052 32.3528 27.6652 32.2853 27.2827 32.6003C27.2152 32.3078 27.4177 32.1503 27.6877 32.1503C27.7327 32.1503 27.7327 32.1278 27.7102 32.1053C27.2377 31.5878 26.8777 32.2403 26.7877 32.3303C26.6077 32.5778 25.9102 32.1053 25.6402 31.8353C25.6402 31.8353 26.2477 31.2053 26.2477 30.6203C26.2477 30.5753 26.2477 30.5303 26.2477 30.5078C26.2477 30.4853 26.2477 30.4853 26.2702 30.4853C26.3377 30.5303 26.4052 30.5528 26.4952 30.5528C26.6302 30.5528 26.9002 30.5078 26.9002 30.0353C26.9002 29.9903 26.8777 29.9903 26.8552 30.0128C26.7877 30.1253 26.6977 30.1478 26.6527 30.1478C26.1577 30.1478 25.1452 28.5278 23.9527 28.5278C23.6377 28.5278 23.0527 28.7528 22.7602 29.0678C22.8952 29.1578 22.9402 29.3378 22.9177 29.4503C22.8952 29.6528 22.7377 29.7653 22.5577 29.8103C22.5352 29.8103 22.5127 29.8328 22.5577 29.8553C23.1652 30.0803 24.2677 30.5078 24.5152 30.7103C24.8077 30.9578 24.7627 31.4528 24.5827 32.1278C24.4252 32.7578 24.0652 32.6903 23.9302 32.6453C23.9077 32.6453 23.9077 32.6453 23.9077 32.6678C24.0652 32.8703 24.2677 32.9378 24.4252 32.9378C24.7402 32.9378 24.8527 32.7353 25.0327 32.7353C25.3027 32.7353 25.8877 33.1178 25.8877 33.4328C25.8877 33.6128 25.7527 33.7478 25.5952 33.8603V33.8828C25.6852 33.9053 26.2252 33.9503 26.3152 33.4778ZM39.5452 33.9053C39.5677 33.9053 39.5677 33.8828 39.5452 33.8828C39.3652 33.7703 39.2527 33.6128 39.2527 33.4553C39.2527 33.1628 39.8152 32.7578 40.1077 32.7578C40.2652 32.7578 40.4002 32.9603 40.7152 32.9603C40.8727 32.9603 41.0752 32.8928 41.2327 32.6903C41.2327 32.6678 41.2327 32.6678 41.2102 32.6678C41.0752 32.6903 40.7152 32.7803 40.5577 32.1503C40.3777 31.4753 40.3327 31.0028 40.6252 30.7328C40.8727 30.5303 41.9752 30.1028 42.5827 29.8778C42.6277 29.8553 42.6052 29.8328 42.5827 29.8328C42.4027 29.7878 42.2452 29.6978 42.2227 29.4728C42.2002 29.3378 42.2227 29.1578 42.3802 29.0903C42.0877 28.7753 41.5027 28.5503 41.1877 28.5503C39.9952 28.5503 38.9827 30.1703 38.4877 30.1703C38.4202 30.1703 38.3527 30.1478 38.2852 30.0353C38.2627 30.0128 38.2402 30.0128 38.2402 30.0578C38.2402 30.5528 38.4877 30.5753 38.6452 30.5753C38.7127 30.5753 38.8027 30.5528 38.8702 30.5078C38.8927 30.5078 38.8927 30.5078 38.8927 30.5303C38.8927 30.5528 38.8927 30.5978 38.8927 30.6428C38.8927 31.2278 39.5002 31.8578 39.5002 31.8578C39.2302 32.1503 38.5552 32.6228 38.3527 32.3528C38.2627 32.2403 37.9252 31.6103 37.4302 32.1278C37.4077 32.1503 37.4302 32.1728 37.4527 32.1728C37.7227 32.1728 37.9252 32.3528 37.8577 32.6228C37.4752 32.3078 36.9352 32.3753 36.9352 33.0728C36.9352 33.0953 36.9577 33.1178 36.9802 33.0953C37.2277 32.7353 37.6327 32.9828 37.7002 33.0278C37.4302 33.0728 36.9577 33.3878 37.3852 33.9503C37.4077 33.9728 37.4302 33.9728 37.4302 33.9503C37.4752 33.5903 37.7002 33.5228 37.8802 33.5228C38.2627 33.5228 38.5327 33.8828 38.8252 33.5003C38.8702 33.9503 39.4102 33.9053 39.5452 33.9053ZM29.8702 24.5453C29.8252 24.5903 29.7127 24.5453 29.6677 24.5228C29.6452 24.5228 29.6677 24.5228 29.6677 24.5228C29.7127 24.5903 29.8252 24.7928 30.0052 24.7928C30.0952 24.7928 30.2077 24.7478 30.2302 24.6803C30.2302 24.6803 30.9277 24.9053 31.2877 24.9953C31.1527 25.1753 31.0627 25.4003 31.0402 25.6253C30.7477 25.4453 29.6227 24.8603 29.6227 24.8603L29.2627 25.3328C29.1952 25.4003 28.9252 25.1978 28.9702 25.1303L29.2402 24.7703C29.1502 24.6803 28.9477 24.7253 28.8802 24.7478C28.8802 24.7478 28.8577 24.7478 28.8802 24.7253C28.9252 24.6578 29.0377 24.4328 29.3752 24.5228C29.3752 24.3203 29.0827 24.3878 28.9927 24.4103C29.0827 24.3203 29.3077 24.1178 29.6002 24.2978L29.7127 24.1403L29.4652 23.8928L29.6227 23.6903L29.8027 23.9153L31.1077 22.1378C31.1527 22.0928 31.4002 22.0253 31.4902 22.0028C31.4902 22.1153 31.5127 22.3628 31.4902 22.4078L30.2077 24.2078L30.4777 24.2978L30.3427 24.5003L30.0277 24.3653L29.8702 24.5453ZM34.4152 24.2528C34.4152 24.4103 34.5277 24.6578 34.7302 24.5903H34.7527C34.7077 24.7703 34.3927 24.9503 34.2577 24.7253C34.1227 25.0178 34.1452 25.2653 34.4377 25.4228C34.4602 25.4228 34.4602 25.4453 34.4377 25.4678C34.2577 25.5803 34.0102 25.5578 33.8752 25.3328C33.6502 25.5128 33.6727 25.8728 33.8077 26.0078C33.8077 26.0078 33.1552 26.3903 32.5702 26.1203C32.1877 25.9403 31.8727 25.6928 31.3777 25.7378C31.4452 25.0403 31.8052 24.8603 32.4352 24.7478C32.9527 24.6578 33.0202 24.4328 32.9302 24.2528C32.7502 24.2078 32.4352 24.3653 32.4352 24.3653C32.3677 24.2753 32.4577 24.1628 32.4577 24.1628C32.4127 24.1178 32.4127 23.9828 32.4127 23.9828C32.7727 23.9828 32.8402 23.9153 32.8402 23.9153C32.9077 23.5328 32.5252 23.4878 32.2327 23.7128C32.0977 23.6003 32.1202 23.4203 32.1202 23.4203C32.0752 23.3978 32.0527 23.3303 32.0527 23.3078C32.0527 23.2178 32.4802 22.9703 32.5927 22.9478C32.6152 22.8128 32.7727 22.6553 33.2227 22.7003C33.2677 22.5878 33.1777 22.1378 33.1327 22.0253C33.1102 21.9803 33.1327 21.9578 33.1777 21.9803C33.3352 22.0928 33.4927 22.4528 33.6052 22.4528C33.6052 22.4528 34.1227 22.1828 34.1452 22.2053C34.1677 22.2278 34.2352 22.7903 34.2352 22.7903C34.3027 22.8803 34.6852 22.7903 34.8652 22.8578C34.9102 22.8803 34.9102 22.9028 34.8652 22.9253C34.7302 22.9478 34.3252 23.1278 34.2577 23.2403C34.5277 23.6003 34.4152 24.1178 34.4152 24.2528Z" fill="white"/>
</g>
<defs>
<clipPath id="clip0_3422_1060">
<rect x="0.545898" width="64" height="64" rx="32" fill="white"/>
</clipPath>
</defs>
</svg>
