<svg width="80" height="80" viewBox="0 0 80 80" fill="none" xmlns="http://www.w3.org/2000/svg">
<g clip-path="url(#clip0_3178_11073)">
<path d="M96.25 -20H-16.25V92.5H96.25V-20Z" fill="white"/>
<path d="M63.4286 -20H16.5442V62.0406H63.4286V-20Z" fill="#154373"/>
<path d="M40.8171 40.7504H40.0015V38.5004H40.8171V40.7504ZM44.5015 30.7941H43.6859V28.5441H44.5015V30.7941ZM29.3984 26.8848C29.3421 26.8848 28.9203 26.8848 28.9203 26.9691C28.9203 27.0535 29.1171 27.0254 29.3984 27.0535C30.0453 27.166 30.2984 27.5035 30.7484 27.5035C31.1703 27.5035 31.5921 27.2223 31.4234 26.6316C31.3953 26.5473 31.339 26.5473 31.339 26.6316C31.2828 26.8848 30.9453 27.0535 30.5796 27.0535C30.1578 27.0254 30.0734 26.8848 29.3984 26.8848ZM24.9265 29.1348C25.0109 29.2191 25.7703 30.2316 24.589 30.6254C24.5328 30.6535 24.5046 30.6816 24.589 30.7379C25.4609 31.1035 25.8828 30.4285 25.8828 30.4285C26.3328 31.441 25.6578 31.9754 25.6578 31.9754C25.7421 32.1441 26.164 32.4535 26.8109 32.5941C27.0359 32.4535 27.3734 32.2285 27.514 31.8348C27.514 31.8348 27.6828 32.2848 27.514 32.6785C29.2859 32.8473 29.9328 31.4129 31.3109 31.666C31.3671 31.666 31.3671 31.6379 31.3671 31.6098C31.3671 30.7379 30.8328 29.1348 29.1171 28.7973C27.4296 28.4598 27.8796 27.7848 27.8796 27.7848C28.5828 27.7566 29.0046 28.066 29.0046 28.066C29.1453 27.841 28.9484 27.616 28.9484 27.616C29.0046 27.5316 29.0609 27.2504 29.0609 27.2504C28.2734 27.2504 28.0484 27.0816 28.0484 27.0816C27.9078 26.6035 28.2734 25.9285 29.4546 26.6598C29.764 26.4066 29.7359 25.9848 29.7359 25.9848C29.8203 25.9285 29.8765 25.816 29.8765 25.7316C29.8765 25.5348 28.9203 25.0004 28.6671 24.9441C28.6109 24.6629 28.2453 24.241 27.1203 24.3816C26.5859 24.4379 26.1921 24.2973 26.389 23.9879C26.4171 23.9316 26.3328 23.9316 26.2765 23.9879C26.1359 24.1285 25.9953 24.466 26.4453 24.691C26.9515 24.9441 26.9796 25.4785 27.0078 25.5348C27.0078 25.6473 26.8671 25.6473 26.8671 25.5348C26.6421 24.6629 25.4328 24.466 24.7296 24.9441C24.7859 25.4223 25.264 25.7316 25.5453 25.7316C25.714 25.7316 25.9109 25.5629 25.9109 25.366C25.9109 25.2535 25.9671 25.2816 25.9953 25.366C26.1078 25.6754 25.6578 26.3223 24.9828 25.9285C24.2796 26.6316 24.5609 27.4754 24.6171 27.7848C24.7578 28.3473 24.4765 28.9098 23.9703 28.6566C23.9421 28.6566 23.914 28.6285 23.914 28.7129C23.914 29.0504 24.364 29.4441 24.9265 29.1348ZM28.7234 25.6473C28.414 26.0129 27.8796 25.9285 27.739 25.3379C28.414 25.3098 28.6953 25.366 28.7234 25.6473ZM49.3953 27.0254C49.0296 27.0254 48.7203 26.8848 48.6359 26.6035C48.6359 26.5473 48.5515 26.5191 48.5515 26.6035C48.3828 27.1941 48.8046 27.4754 49.2265 27.4754C49.6765 27.4754 49.9296 27.1379 50.5765 27.0254C50.8578 26.9691 51.0546 27.0254 51.0546 26.941C51.0546 26.8566 50.6328 26.8566 50.5765 26.8566C49.9296 26.8848 49.8453 27.0254 49.3953 27.0254ZM56.089 28.6848C56.089 28.6285 56.0609 28.6285 56.0328 28.6285C55.5265 28.8816 55.2453 28.3191 55.3859 27.7566C55.4703 27.4473 55.7515 26.5754 55.0203 25.9004C54.3453 26.2941 53.8671 25.6473 54.0078 25.3379C54.0359 25.2535 54.0921 25.2535 54.0921 25.3379C54.0921 25.5629 54.3171 25.7035 54.4578 25.7035C54.739 25.7035 55.2453 25.3941 55.2734 24.916C54.5703 24.466 53.389 24.6348 53.1359 25.5066C53.1078 25.6191 52.9671 25.591 52.9953 25.5066C52.9953 25.4223 53.0234 24.916 53.5578 24.6629C54.0359 24.4379 53.8671 24.1004 53.7265 23.9598C53.6703 23.9035 53.5859 23.9035 53.614 23.9598C53.7828 24.2691 53.4171 24.4098 52.8828 24.3535C51.7578 24.2129 51.3921 24.6066 51.3359 24.916C51.0828 24.9723 50.1265 25.5066 50.1265 25.7035C50.1265 25.7598 50.1828 25.9004 50.2671 25.9566C50.2671 25.9566 50.239 26.3504 50.5484 26.6316C51.7296 25.9004 52.0671 26.5754 51.9546 27.0535C51.9546 27.0535 51.7296 27.2223 50.9421 27.2223C50.9421 27.2223 50.9984 27.5035 51.0546 27.5879C51.0546 27.5879 50.8859 27.8129 50.9984 28.0379C50.9984 28.0379 51.4203 27.7285 52.1234 27.7566C52.1234 27.7566 52.5734 28.4598 50.8859 28.7691C49.1984 29.0785 48.6359 30.7098 48.6359 31.5816C48.6359 31.6379 48.664 31.6379 48.6921 31.6379C50.0703 31.3848 50.689 32.8191 52.489 32.6504C52.3203 32.2285 52.489 31.8066 52.489 31.8066C52.6296 32.1723 52.9671 32.4254 53.1921 32.566C53.8109 32.4254 54.2328 32.116 54.3453 31.9473C54.3453 31.9473 53.6703 31.3848 54.1203 30.4004C54.1203 30.4004 54.5421 31.0754 55.414 30.7098C55.4984 30.6816 55.4703 30.6254 55.414 30.5973C54.2328 30.2035 54.9921 29.2191 55.0765 29.1066C55.639 29.4441 56.089 29.0504 56.089 28.6848ZM52.2359 25.3379C52.0953 25.9285 51.589 26.0129 51.2515 25.6473C51.3078 25.366 51.589 25.3098 52.2359 25.3379ZM39.6921 15.3254C39.6921 15.466 39.7484 15.6066 39.8046 15.691C39.9171 15.8316 39.889 15.916 39.8609 15.9723C39.8046 16.0285 39.7203 16.0285 39.5796 15.916C39.4953 15.8598 39.3828 15.8035 39.214 15.8035C38.9609 15.8035 38.8203 15.9723 38.8203 16.1129C38.8203 16.2535 38.9609 16.4223 39.214 16.4223C39.3546 16.4223 39.4953 16.366 39.5796 16.3098C39.7203 16.1973 39.8046 16.2254 39.8609 16.2535C39.9171 16.3098 39.8328 16.816 39.7765 17.2098C39.3546 17.2941 39.1578 17.6316 39.1578 17.8285C39.1578 18.3348 39.6921 18.6441 40.0296 18.8129C40.339 18.6441 40.9015 18.3348 40.9015 17.8285C40.9015 17.6316 40.7046 17.2941 40.2828 17.2098C40.2265 16.816 40.1421 16.2816 40.1984 16.2535C40.2546 16.1973 40.339 16.1973 40.4796 16.3098C40.564 16.366 40.6765 16.4223 40.8453 16.4223C41.0984 16.4223 41.239 16.2535 41.239 16.1129C41.239 15.9723 41.0984 15.8035 40.8453 15.8035C40.7046 15.8035 40.564 15.8598 40.4796 15.916C40.339 16.0285 40.2546 16.0004 40.1984 15.9723C40.1421 15.916 40.1421 15.8316 40.2546 15.691C40.3109 15.6066 40.3671 15.4941 40.3671 15.3254C40.3671 15.0723 40.1984 14.9316 40.0578 14.9316C39.8609 14.9316 39.6921 15.0723 39.6921 15.3254ZM40.0015 19.1223C39.664 19.1223 39.3828 19.4035 39.3828 19.741C39.3828 20.0785 39.664 20.3598 40.0015 20.3598C40.339 20.3598 40.6203 20.0785 40.6203 19.741C40.6203 19.4035 40.339 19.1223 40.0015 19.1223ZM40.0015 25.141C42.5046 25.141 43.9109 25.6191 43.9109 25.6191C43.9109 24.3535 43.9109 23.6504 44.6421 23.7629C44.2484 22.6941 45.964 22.2723 45.964 20.8941C45.964 19.9941 45.3171 19.8816 45.1203 19.8816C44.5578 19.8816 44.6421 20.2473 44.164 20.2473C44.1078 20.2473 44.0515 20.2473 44.0515 20.2754C44.0515 20.4441 44.1921 20.6973 44.4171 20.6973C44.7265 20.6973 44.7265 20.3879 44.9515 20.3879C45.0359 20.3879 45.1765 20.4723 45.1765 20.7816C45.1765 21.3723 44.7828 22.0191 44.3328 22.5254C44.2203 22.3848 44.0796 22.3004 43.9109 22.3004C43.6578 22.3004 43.4046 22.5816 43.4046 22.9191C43.4046 23.0598 43.4328 23.1441 43.4609 23.2566C43.3203 23.341 43.1796 23.3973 43.0671 23.3973C42.8703 23.3973 42.5609 23.3129 42.5609 22.8629C42.5609 21.8504 43.9109 20.9785 43.9109 19.7129C43.9109 19.0941 43.5171 18.5035 42.6734 18.5035C41.7734 18.5035 41.9421 19.3473 41.1546 19.3473C41.1265 19.3473 41.0984 19.3473 41.0984 19.4035C41.0984 19.4598 41.239 19.9098 41.6328 19.9098C42.0828 19.9098 42.1953 19.1504 42.5609 19.1504C42.7015 19.1504 42.9265 19.2348 42.9265 19.741C42.9265 20.1348 42.7296 20.7816 42.4484 21.4004C42.3359 21.2879 42.1953 21.2316 42.0546 21.2316C41.7171 21.2316 41.4921 21.5691 41.4921 21.9348C41.4921 22.1879 41.5765 22.4129 41.7453 22.5816C41.5484 22.8348 41.3515 23.0316 41.0703 23.0316C40.5359 23.0316 40.2828 22.7223 40.2828 22.3848C40.2828 22.0191 40.9296 21.9066 40.9296 21.316C40.9296 20.9223 40.6765 20.6973 40.4515 20.6973C40.1984 20.6973 40.0578 20.866 40.0296 20.866C40.0015 20.866 39.8609 20.6973 39.6078 20.6973C39.3546 20.6973 39.1296 20.9223 39.1296 21.316C39.1296 21.8785 39.7765 22.0191 39.7765 22.3848C39.7765 22.7223 39.5515 23.0316 38.989 23.0316C38.7078 23.0316 38.5109 22.8348 38.314 22.5816C38.4828 22.4129 38.5671 22.1879 38.5671 21.9348C38.5671 21.541 38.314 21.2316 38.0046 21.2316C37.8359 21.2316 37.6953 21.316 37.6109 21.4004C37.3296 20.7816 37.1328 20.1348 37.1328 19.741C37.1328 19.2348 37.3578 19.1504 37.4984 19.1504C37.8921 19.1504 38.0046 19.9098 38.4265 19.9098C38.8203 19.9098 38.9609 19.4598 38.9609 19.4035C38.9609 19.3754 38.9328 19.3473 38.9046 19.3473C38.1171 19.3473 38.2859 18.5035 37.3859 18.5035C36.5421 18.5035 36.1484 19.1223 36.1484 19.7129C36.1484 20.9785 37.4984 21.8785 37.4984 22.8629C37.4984 23.3129 37.189 23.3973 36.9921 23.3973C36.8796 23.3973 36.7671 23.341 36.5984 23.2566C36.6546 23.1441 36.6546 23.0598 36.6546 22.9191C36.6546 22.5535 36.4296 22.3004 36.1484 22.3004C35.9796 22.3004 35.839 22.3848 35.7265 22.5254C35.2765 22.0191 34.8828 21.3723 34.8828 20.7816C34.8828 20.4723 35.0234 20.3879 35.1078 20.3879C35.3328 20.3879 35.3328 20.6973 35.6421 20.6973C35.8671 20.6973 36.0078 20.416 36.0078 20.2754C36.0078 20.2191 35.9515 20.2473 35.8953 20.2473C35.4171 20.2473 35.5015 19.8816 34.939 19.8816C34.7421 19.8816 34.0953 19.9941 34.0953 20.8941C34.0953 22.2723 35.8109 22.6941 35.4171 23.7629C36.1484 23.6504 36.1203 24.3535 36.1484 25.6191C36.0921 25.6191 37.4984 25.141 40.0015 25.141ZM35.4171 26.9973C34.7421 27.1379 34.2359 27.2785 34.039 27.3629C34.039 27.0535 34.1796 26.8004 34.4328 26.716C34.4609 26.716 34.489 26.6598 34.4328 26.6316C33.814 26.2379 33.5046 26.9973 33.5046 27.0254C33.2796 26.9973 32.9703 27.0816 32.9703 27.3629C32.9703 28.2348 31.0015 28.7129 30.5234 28.7691C31.339 29.0785 31.6765 30.091 31.6765 30.091C32.2671 29.5004 32.9421 28.9941 33.1109 28.9941C33.2796 28.9941 33.3359 29.191 33.3359 29.3035C33.3359 29.3598 33.3921 29.3598 33.3921 29.3316C33.7015 28.8816 33.5609 28.7691 33.5328 28.6285C33.5046 28.516 33.5328 28.1223 33.9828 28.1785V33.9723L33.7578 34.0285C33.6453 34.0566 32.8015 33.3254 31.8171 32.6504C30.8609 31.9754 30.3265 32.3973 29.2296 32.9879C27.7671 33.7754 26.3328 33.0723 26.3328 33.0723C25.0953 33.9723 24.6734 36.5598 24.6734 36.5598C24.4203 36.6723 24.0265 36.7848 23.6046 36.7848C22.6484 36.7848 22.4796 36.2223 22.4796 35.8566C22.4796 34.3941 24.3359 33.7473 24.3359 32.3129C24.3359 31.9473 24.1671 30.541 22.3953 30.541C22.1703 30.541 20.8203 30.541 20.8203 30.541C20.1734 30.541 19.9765 30.0629 19.8921 29.8941C19.864 29.8379 19.8078 29.866 19.8078 29.9223C19.864 30.0348 19.7234 30.2316 19.7234 30.5973C19.7234 31.1879 20.0609 31.5254 20.7078 31.5254C21.0171 31.5254 21.2703 31.441 21.3546 31.3848C21.4109 31.3566 21.439 31.4129 21.4109 31.441C21.1296 31.7785 21.1015 32.3691 21.214 32.5379C21.2421 32.566 21.2703 32.566 21.2703 32.5379C21.439 31.9191 22.0015 31.3285 22.789 31.3285C23.7453 31.3285 23.7453 32.1441 23.7453 32.341C23.7453 33.5223 21.664 34.3941 21.664 35.9973C21.664 37.6566 23.4078 37.9941 24.4203 37.741C24.364 39.4004 22.4796 39.9348 22.4234 38.7816C22.4234 38.7254 22.3671 38.6973 22.339 38.7816C22.114 39.3723 22.1984 39.8785 22.9296 40.0473C22.9859 40.0473 22.9578 40.1035 22.9015 40.1316C22.1984 40.6098 22.5921 42.4379 22.6203 42.9723C22.6765 43.7316 21.9171 43.6473 21.8328 43.6191C21.8046 43.6191 21.7765 43.6191 21.8328 43.6754C22.3671 44.3223 23.0421 43.7316 23.0421 43.7316C23.5484 43.9004 23.239 44.3223 22.9015 44.5473C22.8453 44.5754 22.8453 44.6316 22.9015 44.6316C22.9859 44.6316 23.7734 44.716 23.914 44.0691C24.2796 44.491 24.7859 44.3223 24.8703 44.2941C25.0109 44.2098 25.7421 43.9566 25.8265 44.7723C25.8265 44.8285 25.8828 44.8004 25.8828 44.7723C26.4453 44.0691 25.8265 43.6473 25.5171 43.591C25.5453 43.5348 25.9953 43.1973 26.389 43.7035C26.4171 43.7316 26.4453 43.7598 26.4453 43.6754C26.5015 42.8035 25.7703 42.7191 25.2921 43.0848C25.264 43.0004 25.1234 42.4941 25.8265 42.5223C25.8546 42.5223 25.8828 42.4941 25.8265 42.466C25.2921 41.9035 24.814 42.4098 24.7296 42.5504C24.4765 42.8316 23.8859 42.7191 23.8296 42.7191C24.0265 39.6535 26.7265 40.7223 27.0921 39.2316C27.1203 39.1473 27.1484 39.1754 27.1484 39.2035C27.2609 39.5691 28.1609 39.6254 28.3296 38.8941C28.3296 38.8379 28.3296 38.8098 28.3015 38.8379C27.514 39.6254 25.7421 37.1785 28.1609 35.1816C30.214 33.4941 32.0703 34.4223 32.7734 34.9848C32.8015 35.2379 32.6609 35.3223 32.5765 35.3504C32.5484 35.3504 32.5203 35.4066 32.5765 35.4066C32.7734 35.491 33.0546 35.4629 33.1953 35.266C33.6453 35.5754 33.2515 35.9691 33.0828 36.0816C33.0265 36.1098 33.0546 36.1379 33.0828 36.1379C33.4765 36.2223 33.814 35.8004 33.8421 35.5754L33.8984 35.6316V37.3754C33.8984 39.8785 36.7671 40.216 39.9171 42.3254C43.0671 40.216 45.9359 39.8504 45.9359 37.3754V35.6316L45.9921 35.5754C46.0203 35.8004 46.3578 36.2223 46.7515 36.1379C46.8078 36.1379 46.8078 36.1098 46.7515 36.0816C46.5828 35.9691 46.189 35.5754 46.639 35.266C46.7796 35.4348 47.0328 35.4629 47.2578 35.4066C47.314 35.3785 47.314 35.3504 47.2578 35.3504C47.1734 35.3223 47.0046 35.2379 47.0609 34.9848C47.764 34.4223 49.6203 33.4941 51.6734 35.1816C54.0921 37.1785 52.3203 39.6254 51.5328 38.8379C51.5046 38.8098 51.4765 38.8379 51.5046 38.8941C51.6734 39.6254 52.6015 39.5691 52.6859 39.2035C52.6859 39.1754 52.7421 39.1473 52.7421 39.2316C53.1078 40.7223 55.8359 39.6254 56.0046 42.7191C55.9484 42.7191 55.3578 42.8316 55.1046 42.5504C54.9921 42.4098 54.5421 41.9035 54.0078 42.466C53.9796 42.4941 54.0078 42.5223 54.0078 42.5223C54.7109 42.4941 54.5703 43.0004 54.5421 43.0848C54.064 42.691 53.3609 42.7754 53.389 43.6754C53.389 43.7598 53.4171 43.7316 53.4453 43.7035C53.839 43.1973 54.289 43.5629 54.3171 43.591C53.9796 43.6473 53.389 44.0691 53.9515 44.7723C53.9796 44.8004 54.0078 44.8566 54.0078 44.7723C54.0921 43.9285 54.8234 44.2098 54.964 44.2941C55.0765 44.3504 55.5828 44.491 55.9203 44.0691C56.0609 44.6879 56.8484 44.6316 56.9328 44.6316C56.989 44.6316 56.989 44.5754 56.9328 44.5473C56.5953 44.3223 56.2859 43.9004 56.7921 43.7316C56.7921 43.7316 57.4671 44.3504 58.0015 43.6754C58.0578 43.6191 58.0296 43.591 58.0015 43.6191C57.9453 43.6473 57.1578 43.7316 57.214 42.9723C57.2421 42.4379 57.6359 40.6098 56.9046 40.1598C56.8484 40.1316 56.8203 40.1035 56.8765 40.0754C57.6078 39.9066 57.7203 39.4004 57.4671 38.8098C57.439 38.7254 57.3828 38.7535 57.3828 38.8098C57.3265 39.991 55.4421 39.4285 55.3859 37.7691C56.3984 38.0223 58.1421 37.6848 58.1421 36.0254C58.1421 34.3941 56.0609 33.5223 56.0609 32.3691C56.0609 32.1723 56.0609 31.3566 57.0171 31.3566C57.8046 31.3566 58.3671 31.9473 58.5359 32.566C58.5359 32.5941 58.5921 32.6223 58.5921 32.566C58.7046 32.4254 58.6765 31.8066 58.3953 31.4691C58.3671 31.441 58.3953 31.3848 58.4515 31.4129C58.5359 31.4691 58.8171 31.5535 59.0984 31.5535C59.7453 31.5535 60.0828 31.1879 60.0828 30.6254C60.0828 30.2598 59.9421 30.0629 59.9984 29.9504C60.0265 29.8941 59.9421 29.866 59.914 29.9223C59.8296 30.091 59.6609 30.5691 58.9859 30.5691C58.9859 30.5691 57.6359 30.5691 57.4109 30.5691C55.639 30.5691 55.4703 32.0035 55.4703 32.341C55.4703 33.8035 57.3265 34.4223 57.3265 35.8848C57.3265 36.2223 57.1578 36.8129 56.2015 36.8129C55.8078 36.8129 55.414 36.7004 55.1328 36.5879C55.1328 36.5879 54.7109 34.0004 53.4734 33.1004C53.4734 33.1004 52.0109 33.8035 50.5765 33.016C49.4796 32.4254 48.9453 32.0035 47.989 32.6785C47.0328 33.3535 46.1609 34.0848 46.0765 34.0566L45.8515 34.0004V28.2066C46.3015 28.1504 46.3296 28.5723 46.3015 28.6566C46.2734 28.7973 46.1328 28.9098 46.4421 29.3598C46.4703 29.3879 46.4984 29.3879 46.4984 29.3316C46.4984 29.2191 46.5828 29.0223 46.7234 29.0223C46.864 29.0223 47.5671 29.5566 48.1578 30.1191C48.1578 30.1191 48.4953 29.1066 49.3109 28.7973C48.8609 28.7129 46.864 28.2348 46.864 27.391C46.864 27.1098 46.5265 27.0254 46.3296 27.0535C46.3296 27.0254 45.9921 26.266 45.4015 26.6598C45.3734 26.6879 45.3734 26.716 45.4015 26.7441C45.6546 26.8004 45.7953 27.0816 45.7953 27.391C45.2328 27.2223 42.7578 26.5191 39.8328 26.5191C38.4265 26.5191 37.1046 26.6879 36.064 26.8848V28.9098H35.2765V26.9973H35.4171ZM30.0171 47.5848C29.7921 47.5004 29.6515 47.3598 29.6515 47.0785V45.8129C29.2859 45.6723 28.3296 45.3066 26.3609 45.3066C24.7296 45.3066 24.2234 45.6723 24.1953 45.7848L23.7734 48.1473C23.7734 48.1473 24.4203 47.5566 26.7828 47.6973C29.6234 47.866 32.5484 49.5535 32.5484 47.7816V46.741C30.3546 46.7691 30.0171 47.4723 30.0171 47.5848ZM47.4265 46.7691V47.8098C47.4265 49.5816 50.3515 47.9223 53.1921 47.7254C55.5265 47.5848 56.2015 48.1754 56.2015 48.1754L55.7796 45.8129C55.7515 45.6723 55.2453 45.3348 53.614 45.3348C51.6734 45.3348 50.689 45.7004 50.3234 45.841V47.0785C50.3234 47.3598 50.1828 47.5004 49.9578 47.5848C49.9859 47.4723 49.6484 46.7691 47.4265 46.7691ZM40.0015 45.7004C44.5578 45.7004 49.1984 45.9254 49.789 46.6285C49.8453 46.6848 49.8453 46.6285 49.8453 46.5723V44.1535C49.8453 43.4504 45.064 43.0285 40.0015 43.0285C34.939 43.0285 30.1578 43.4223 30.1578 44.1535V46.5723C30.1578 46.6285 30.1859 46.6566 30.214 46.6285C30.8046 45.9254 35.4453 45.7004 40.0015 45.7004ZM35.9515 34.3098L35.5015 34.1973L35.4453 34.2535L34.9109 34.0285C34.9109 34.0285 35.3046 34.0285 35.389 34.0285C35.4453 34.0285 35.4453 34.0004 35.4171 33.9723C35.1921 33.7473 35.0234 33.5785 35.0234 33.5785C35.0234 33.5785 35.2484 33.6629 35.5578 33.7754C35.5859 33.7754 35.614 33.7754 35.5859 33.7473C35.4453 33.5223 35.2203 33.241 35.2203 33.241C35.2203 33.241 35.6421 33.5223 35.7546 33.6066C35.7828 33.6348 35.8109 33.6066 35.8109 33.5785C35.6984 33.2973 35.5578 32.9598 35.5578 32.9598L36.0359 33.4098C36.064 33.4379 36.0921 33.4098 36.0921 33.3816C36.0359 33.1566 35.9515 32.7629 35.9515 32.7629L36.3171 33.2691C36.3453 33.2973 36.3734 33.2973 36.3734 33.2691C36.3734 33.1848 36.3734 32.7066 36.3734 32.7066C36.3734 32.7066 36.514 33.0441 36.5984 33.2129C36.5984 33.241 36.6546 33.241 36.6546 33.2129C36.6828 33.1566 36.8234 32.791 36.8234 32.791L36.8515 33.3535H36.7671L36.6828 34.0566C37.3859 33.8879 38.2296 32.7066 38.8765 32.7066C39.664 32.7066 39.9453 33.6348 41.3796 33.1566C41.7453 33.691 41.8578 34.1691 41.9984 34.816C42.5609 35.3504 43.3484 35.1816 43.3484 34.6191C43.3484 33.8598 42.5328 33.7191 42.5328 32.9598C42.5328 32.5941 42.7859 32.116 43.4609 32.116C43.8265 32.116 44.3328 32.2566 44.6421 32.2566C45.0078 32.2566 45.064 32.0035 45.1203 31.891C45.1484 31.8066 45.2609 31.8348 45.2328 31.891C45.2328 31.9754 45.289 32.0598 45.289 32.2285C45.289 32.7066 44.5578 32.791 44.4734 32.7348C44.4453 32.7066 44.4171 32.7348 44.4453 32.7629C44.5578 32.8473 44.5296 33.1566 44.389 33.3254C44.389 33.3535 44.3609 33.3535 44.3328 33.3254C44.2484 32.9598 43.8546 32.5379 43.4609 32.5379C43.3203 32.5379 43.0671 32.6223 43.0671 32.9316C43.0671 33.3816 43.9671 33.7754 43.9671 34.7035C43.9671 35.6598 43.0109 35.8848 42.0546 35.6598C42.0828 36.5598 43.4328 37.1223 43.4609 36.4473C43.4609 36.391 43.489 36.4191 43.5171 36.4473C43.714 36.7285 43.6296 36.9254 43.3765 37.0379C43.6015 37.1504 43.6578 37.6285 43.7421 37.9098C43.8546 38.3316 44.3046 38.1066 44.3046 38.0785C44.3328 38.0785 44.3328 38.0785 44.3328 38.1066C44.164 38.5566 43.714 38.3879 43.714 38.3879C43.489 38.5566 43.7703 38.6973 43.9671 38.7816C43.9953 38.7816 43.9953 38.8098 43.9671 38.8379C43.7984 38.8941 43.4609 39.0066 43.3203 38.7254C43.2078 39.0348 42.9546 39.0066 42.8421 39.0066C42.6734 39.0066 42.5609 39.1754 42.589 39.4285C42.589 39.4566 42.589 39.4566 42.5609 39.4285C42.139 39.1473 42.3921 38.8379 42.5609 38.7535C42.5328 38.7254 42.2515 38.6129 42.1109 38.9504C42.1109 38.9785 42.0828 38.9785 42.0828 38.9504C41.914 38.4723 42.3078 38.3316 42.589 38.4441C42.5609 38.3879 42.4203 38.1348 42.0546 38.2191C42.0265 38.2191 42.0265 38.2191 42.0265 38.191C42.0828 38.0504 42.2796 37.8254 42.6171 38.0504C42.7859 38.1629 43.0953 37.9941 43.1234 37.9941C42.5046 36.7848 41.3515 37.7973 41.0703 36.841C41.0703 36.8129 41.0421 36.8129 41.014 36.841C40.9578 37.0379 40.4515 37.066 40.339 36.6723C40.339 36.6441 40.339 36.6441 40.3671 36.6723C40.4515 36.7566 40.5921 36.8129 40.8171 36.5035C40.9578 36.3066 40.9859 36.0254 40.9859 35.8566C40.9859 35.1254 40.2546 33.8879 39.1015 33.8879C38.3703 33.8879 37.6109 34.1691 37.0203 34.591L37.5546 34.7316C37.4984 35.266 36.9921 35.6035 36.4859 35.4629L36.5703 34.8441C36.4859 34.8723 36.2609 34.9285 36.1765 35.0973H36.1484C36.064 34.7316 36.3453 34.5629 36.4296 34.5348C36.1765 34.5348 36.0359 34.7035 35.9796 34.7879H35.9515C35.8671 34.6191 35.8109 34.4223 35.9515 34.3098ZM37.5265 38.5004C37.3296 38.7535 37.1328 38.5004 36.8796 38.5004C36.6265 38.5004 36.5703 38.7254 36.5703 38.8098C36.5703 38.8098 36.5703 38.8379 36.5421 38.8098C36.2609 38.416 36.5703 38.191 36.7671 38.1629C36.739 38.1348 36.4578 37.9379 36.289 38.2191C36.289 38.2473 36.2609 38.2191 36.2609 38.2191C36.2609 37.741 36.6265 37.6848 36.8796 37.9098C36.9359 37.741 36.7953 37.6004 36.5984 37.6004C36.5703 37.6004 36.5703 37.5723 36.5703 37.5723C36.6546 37.4879 36.739 37.4316 36.8234 37.4316C37.0765 37.4316 37.1328 37.7691 37.3015 37.7691C37.5546 37.7691 37.9484 37.4035 37.9765 37.3754C37.9765 37.3473 37.7234 36.6723 37.7515 36.2504C37.7515 36.2223 37.7515 36.2223 37.7234 36.2504C37.5828 36.3348 37.2734 36.3348 37.2734 35.9129C37.2734 35.8848 37.2734 35.8848 37.3015 35.9129C37.4421 36.1098 37.6671 35.8848 37.7796 35.7441C37.9203 35.6035 38.5671 34.6473 39.4671 34.6473C39.664 34.6473 39.9171 34.7598 40.114 34.9004C39.8046 35.266 40.114 35.6316 40.339 35.6035C40.3671 35.6035 40.3671 35.6316 40.339 35.6316C39.1578 36.0816 38.6234 36.2504 38.6234 37.2348C38.6234 37.741 38.7921 38.0223 39.1015 37.966C39.1296 37.966 39.1296 37.966 39.1015 37.9941C38.989 38.1348 38.8765 38.1629 38.764 38.1629C38.5109 38.1629 38.4828 38.0223 38.3421 38.0223C38.2015 38.0223 37.7796 38.2754 37.7796 38.5004C37.7796 38.5848 37.8359 38.6973 37.9765 38.8098C37.9765 38.8098 37.9765 38.8098 37.9765 38.8379C37.9484 38.8098 37.6109 38.8098 37.5265 38.5004ZM40.6484 28.8816C40.2828 28.8535 40.0296 28.9379 40.0578 29.0504C40.2265 29.2754 40.4515 29.2473 40.6484 28.8816ZM39.2703 29.8098C39.5234 29.7535 39.8046 29.7816 39.8328 29.7816C39.889 29.7816 39.889 29.866 39.8328 29.866C39.2984 29.9504 39.2703 30.1754 38.9046 30.1754C38.6796 30.1754 38.4265 29.9504 38.5109 29.6129C38.5109 29.5566 38.5671 29.5566 38.5671 29.6129C38.6515 29.7535 38.8484 29.9223 39.2703 29.8098ZM32.2109 41.8473C32.5765 42.2973 32.914 41.8754 33.3921 41.8754C33.6171 41.8754 33.8984 41.9598 33.9546 42.4098C33.9546 42.4379 33.9828 42.4379 34.0109 42.4098C34.5171 41.7066 33.9265 41.3129 33.6171 41.2566C33.7015 41.2004 34.1796 40.891 34.5171 41.341C34.5453 41.3691 34.5734 41.3691 34.5734 41.3129C34.5734 40.441 33.8984 40.3566 33.4203 40.7504C33.3359 40.3848 33.589 40.1879 33.9265 40.1879C33.9828 40.1879 33.9828 40.1598 33.9546 40.1316C33.364 39.4848 32.914 40.3004 32.8015 40.4129C32.5765 40.7223 31.7046 40.1316 31.3671 39.7941C31.3671 39.7941 32.1265 39.0066 32.1265 38.2754C32.1265 38.2191 32.1265 38.1629 32.1265 38.1348C32.1265 38.1066 32.1265 38.1066 32.1546 38.1066C32.239 38.1629 32.3234 38.191 32.4359 38.191C32.6046 38.191 32.9421 38.1348 32.9421 37.5441C32.9421 37.4879 32.914 37.4879 32.8859 37.516C32.8015 37.6566 32.689 37.6848 32.6328 37.6848C32.014 37.6848 30.7484 35.6598 29.2578 35.6598C28.864 35.6598 28.1328 35.941 27.7671 36.3348C27.9359 36.4473 27.9921 36.6723 27.964 36.8129C27.9359 37.066 27.739 37.2066 27.514 37.2629C27.4859 37.2629 27.4578 37.291 27.514 37.3191C28.2734 37.6004 29.6515 38.1348 29.9609 38.3879C30.3265 38.6973 30.2703 39.316 30.0453 40.1598C29.8484 40.9473 29.3984 40.8629 29.2296 40.8066C29.2015 40.8066 29.2015 40.8066 29.2015 40.8348C29.3984 41.0879 29.6515 41.1723 29.8484 41.1723C30.2421 41.1723 30.3828 40.9191 30.6078 40.9191C30.9453 40.9191 31.6765 41.3973 31.6765 41.791C31.6765 42.016 31.5078 42.1848 31.3109 42.3254V42.3535C31.4234 42.3816 32.0984 42.4379 32.2109 41.8473ZM48.7484 42.3816C48.7765 42.3816 48.7765 42.3535 48.7484 42.3535C48.5234 42.2129 48.3828 42.016 48.3828 41.8191C48.3828 41.4535 49.0859 40.9473 49.4515 40.9473C49.6484 40.9473 49.8171 41.2004 50.2109 41.2004C50.4078 41.2004 50.6609 41.116 50.8578 40.8629C50.8578 40.8348 50.8578 40.8348 50.8296 40.8348C50.6609 40.8629 50.2109 40.9754 50.014 40.1879C49.789 39.3441 49.7328 38.7535 50.0984 38.416C50.4078 38.1629 51.7859 37.6285 52.5453 37.3473C52.6015 37.3191 52.5734 37.291 52.5453 37.291C52.3203 37.2348 52.1234 37.1223 52.0953 36.841C52.0671 36.6723 52.0953 36.4473 52.2921 36.3629C51.9265 35.9691 51.1953 35.6879 50.8015 35.6879C49.3109 35.6879 48.0453 37.7129 47.4265 37.7129C47.3421 37.7129 47.2578 37.6848 47.1734 37.5441C47.1453 37.516 47.1171 37.516 47.1171 37.5723C47.1171 38.191 47.4265 38.2191 47.6234 38.2191C47.7078 38.2191 47.8203 38.191 47.9046 38.1348C47.9328 38.1348 47.9328 38.1348 47.9328 38.1629C47.9328 38.191 47.9328 38.2473 47.9328 38.3035C47.9328 39.0348 48.6921 39.8223 48.6921 39.8223C48.3546 40.1879 47.5109 40.7785 47.2578 40.441C47.1453 40.3004 46.7234 39.5129 46.1046 40.1598C46.0765 40.1879 46.1046 40.216 46.1328 40.216C46.4703 40.216 46.7234 40.441 46.639 40.7785C46.1609 40.3848 45.4859 40.4691 45.4859 41.341C45.4859 41.3691 45.514 41.3973 45.5421 41.3691C45.8515 40.9191 46.3578 41.2285 46.4421 41.2848C46.1046 41.341 45.514 41.7348 46.0484 42.4379C46.0765 42.466 46.1046 42.466 46.1046 42.4379C46.1609 41.9879 46.4421 41.9035 46.6671 41.9035C47.1453 41.9035 47.4828 42.3535 47.8484 41.8754C47.9046 42.4379 48.5796 42.3816 48.7484 42.3816ZM36.6546 30.6816C36.5984 30.7379 36.4578 30.6816 36.4015 30.6535C36.3734 30.6535 36.4015 30.6535 36.4015 30.6535C36.4578 30.7379 36.5984 30.991 36.8234 30.991C36.9359 30.991 37.0765 30.9348 37.1046 30.8504C37.1046 30.8504 37.9765 31.1316 38.4265 31.2441C38.2578 31.4691 38.1453 31.7504 38.1171 32.0316C37.7515 31.8066 36.3453 31.0754 36.3453 31.0754L35.8953 31.666C35.8109 31.7504 35.4734 31.4973 35.5296 31.4129L35.8671 30.9629C35.7546 30.8504 35.5015 30.9066 35.4171 30.9348C35.4171 30.9348 35.389 30.9348 35.4171 30.9066C35.4734 30.8223 35.614 30.541 36.0359 30.6535C36.0359 30.4004 35.6703 30.4848 35.5578 30.5129C35.6703 30.4004 35.9515 30.1473 36.3171 30.3723L36.4578 30.1754L36.1484 29.866L36.3453 29.6129L36.5703 29.8941L38.2015 27.6723C38.2578 27.616 38.5671 27.5316 38.6796 27.5035C38.6796 27.6441 38.7078 27.9535 38.6796 28.0098L37.0765 30.2598L37.414 30.3723L37.2453 30.6254L36.8515 30.4566L36.6546 30.6816ZM42.3359 30.316C42.3359 30.5129 42.4765 30.8223 42.7296 30.7379H42.7578C42.7015 30.9629 42.3078 31.1879 42.139 30.9066C41.9703 31.2723 41.9984 31.5816 42.364 31.7785C42.3921 31.7785 42.3921 31.8066 42.364 31.8348C42.139 31.9754 41.8296 31.9473 41.6609 31.666C41.3796 31.891 41.4078 32.341 41.5765 32.5098C41.5765 32.5098 40.7609 32.9879 40.0296 32.6504C39.5515 32.4254 39.1578 32.116 38.539 32.1723C38.6234 31.3004 39.0734 31.0754 39.8609 30.9348C40.5078 30.8223 40.5921 30.541 40.4796 30.316C40.2546 30.2598 39.8609 30.4566 39.8609 30.4566C39.7765 30.3441 39.889 30.2035 39.889 30.2035C39.8328 30.1473 39.8328 29.9785 39.8328 29.9785C40.2828 29.9785 40.3671 29.8941 40.3671 29.8941C40.4515 29.416 39.9734 29.3598 39.6078 29.641C39.439 29.5004 39.4671 29.2754 39.4671 29.2754C39.4109 29.2473 39.3828 29.1629 39.3828 29.1348C39.3828 29.0223 39.9171 28.7129 40.0578 28.6848C40.0859 28.516 40.2828 28.3191 40.8453 28.3754C40.9015 28.2348 40.789 27.6723 40.7328 27.5316C40.7046 27.4754 40.7328 27.4473 40.789 27.4754C40.9859 27.616 41.1828 28.066 41.3234 28.066C41.3234 28.066 41.9703 27.7285 41.9984 27.7566C42.0265 27.7848 42.1109 28.4879 42.1109 28.4879C42.1953 28.6004 42.6734 28.4879 42.8984 28.5723C42.9546 28.6004 42.9546 28.6285 42.8984 28.6566C42.7296 28.6848 42.2234 28.9098 42.139 29.0504C42.4765 29.5004 42.3359 30.1473 42.3359 30.316Z" fill="white"/>
</g>
<defs>
<clipPath id="clip0_3178_11073">
<rect width="80" height="80" rx="40" fill="white"/>
</clipPath>
</defs>
</svg>
