<svg width="33" height="32" viewBox="0 0 33 32" fill="none" xmlns="http://www.w3.org/2000/svg">
<g clip-path="url(#clip0_3399_6420)">
<path d="M29.2819 9.45708C29.3012 9.73708 29.3012 10.0171 29.3012 10.2997C29.3012 18.91 22.7464 28.8403 10.7606 28.8403V28.8351C7.21996 28.8403 3.75286 27.8261 0.772217 25.9139C1.28706 25.9758 1.80447 26.0068 2.32318 26.0081C5.25738 26.0106 8.1077 25.0261 10.4161 23.2132C7.6277 23.1603 5.18254 21.3422 4.32835 18.6881C5.30512 18.8764 6.31157 18.8377 7.27028 18.5758C4.23028 17.9616 2.04318 15.2906 2.04318 12.1887V12.1061C2.94899 12.6106 3.96318 12.8906 5.0006 12.9216C2.13738 11.008 1.2548 7.19902 2.98383 4.22095C6.29222 8.29192 11.1735 10.7668 16.4135 11.0287C15.8883 8.76547 16.6058 6.39386 18.2987 4.80289C20.9232 2.33579 25.0509 2.46224 27.518 5.08547C28.9774 4.79773 30.3761 4.26224 31.6561 3.50353C31.1696 5.01192 30.1516 6.29321 28.7916 7.1074C30.0832 6.95515 31.3451 6.60934 32.5335 6.0816C31.6587 7.39257 30.5567 8.5345 29.2819 9.45708Z" fill="white"/>
</g>
<defs>
<clipPath id="clip0_3399_6420">
<rect width="32" height="32" fill="white" transform="translate(0.5)"/>
</clipPath>
</defs>
</svg>
