<svg width="24" height="24" viewBox="0 0 24 24" fill="none" xmlns="http://www.w3.org/2000/svg">
<g clip-path="url(#clip0_3482_26669)">
<path fill-rule="evenodd" clip-rule="evenodd" d="M11.9632 -0.000305176C5.35774 -0.000305176 -5.34058e-05 5.35749 -5.34058e-05 11.963C-5.34058e-05 17.2474 3.44949 21.7245 8.14674 23.3391C8.73389 23.4125 8.95407 23.0456 8.95407 22.752C8.95407 22.4584 8.95407 21.7245 8.95407 20.6969C5.65132 21.4309 4.91738 19.0823 4.91738 19.0823C4.40362 17.6878 3.59628 17.3208 3.59628 17.3208C2.49536 16.5869 3.66967 16.5869 3.66967 16.5869C4.84398 16.6602 5.50453 17.8346 5.50453 17.8346C6.60545 19.6694 8.29352 19.1557 8.95407 18.8621C9.02747 18.0547 9.39444 17.541 9.68802 17.2474C7.04582 16.9538 4.25683 15.9263 4.25683 11.3024C4.25683 9.98135 4.69719 8.95382 5.50453 8.07309C5.43114 7.85291 4.99077 6.6052 5.65132 4.99052C5.65132 4.99052 6.67885 4.69694 8.95407 6.23823C9.9082 5.94465 10.9357 5.87125 11.9632 5.87125C12.9908 5.87125 14.0183 6.01804 14.9724 6.23823C17.2477 4.69694 18.2752 4.99052 18.2752 4.99052C18.9357 6.6052 18.4954 7.85291 18.422 8.14648C19.1559 8.95382 19.6697 10.0547 19.6697 11.3758C19.6697 15.9997 16.8807 16.9538 14.2385 17.2474C14.6788 17.6144 15.0458 18.3483 15.0458 19.4492C15.0458 21.0639 15.0458 22.3116 15.0458 22.752C15.0458 23.0456 15.266 23.4125 15.8532 23.3391C20.6238 21.7245 23.9999 17.2474 23.9999 11.963C23.9266 5.35749 18.5688 -0.000305176 11.9632 -0.000305176Z" fill="black"/>
</g>
<defs>
<clipPath id="clip0_3482_26669">
<rect width="24" height="24" fill="white"/>
</clipPath>
</defs>
</svg>
