<svg fill="none" height="56" viewBox="0 0 48 56" width="48" xmlns="http://www.w3.org/2000/svg" xmlns:xlink="http://www.w3.org/1999/xlink"><clipPath id="a"><path d="m0 .270142h47.6631v55h-47.6631z"/></clipPath><g clip-path="url(#a)"><path d="m23.806.270142 23.8059 13.744358v27.4888l-23.8059 13.7441-23.806-13.7441v-27.4888z" fill="#fff"/><g fill="#000"><path d="m39.958 41.5109 3.8532-2.2278v-16.4744l-3.8532 2.2278z"/><path d="m37.107 43.1586-3.8004 2.1973v-16.4744l3.8004-2.1973z"/><path d="m26.6562 49.2011v-16.4744l3.8004-2.1973v16.4745z"/><path clip-rule="evenodd" d="m23.806.270142 23.8059 13.744358v27.4888l-23.8059 13.7441-23.806-13.7441v-27.4888zm-.0001 1.108448 22.8557 13.19581h-11.0019l-11.8538 13.1957-22.855799-13.1957zm-22.855804 16.46831.000005 23.119 22.855799 13.1958 22.8557-13.1958v-23.119l-22.8557 13.1958z" fill-rule="evenodd"/></g></g></svg>