<svg width="48" height="55" viewBox="0 0 48 55" fill="none" xmlns="http://www.w3.org/2000/svg">
<g clip-path="url(#clip0_3527_2553)">
<path d="M23.806 0.00195312L47.6119 13.7464V41.2351L23.806 54.9792L0 41.2351V13.7464L23.806 0.00195312Z" fill="white"/>
<path d="M39.957 41.2425L43.8102 39.0147V22.5403L39.957 24.7681V41.2425Z" fill="black"/>
<path d="M37.107 42.8905L33.3066 45.0878V28.6134L37.107 26.4161V42.8905Z" fill="black"/>
<path d="M26.6562 48.933V32.4585L30.4566 30.2613V46.7357L26.6562 48.933Z" fill="black"/>
<path fill-rule="evenodd" clip-rule="evenodd" d="M23.806 0.00195312L47.6119 13.7464V41.2351L23.806 54.9792L0 41.2351V13.7464L23.806 0.00195312ZM23.8059 1.1104L46.6616 14.3062H35.6597L23.8059 27.502L0.950101 14.3062L23.8059 1.1104ZM0.950096 17.5787L0.950101 40.6977L23.8059 53.8935L46.6616 40.6977V17.5787L23.8059 30.7745L0.950096 17.5787Z" fill="black"/>
</g>
<defs>
<clipPath id="clip0_3527_2553">
<rect width="47.6631" height="55" fill="white" transform="translate(0 0.00195312)"/>
</clipPath>
</defs>
</svg>
