<svg fill="none" height="32" viewBox="0 0 32 32" width="32" xmlns="http://www.w3.org/2000/svg" xmlns:xlink="http://www.w3.org/1999/xlink"><clipPath id="a"><path d="m0 0h32v32h-32z"/></clipPath><g clip-path="url(#a)"><path clip-rule="evenodd" d="m15.9511-.00024414c-8.80737 0-15.9511 7.14373414-15.9511 15.95104414 0 7.0459 4.59939 13.0153 10.8624 15.1682.7829.0979 1.0764-.3914 1.0764-.7829 0-.3914 0-1.37 0-2.74-4.40363.9786-5.38223-2.1529-5.38223-2.1529-.68501-1.8593-1.76146-2.3486-1.76146-2.3486-1.46789-.9786.09786-.9786.09786-.9786 1.56575.0978 2.44648 1.6636 2.44648 1.6636 1.46789 2.4465 3.71865 1.7614 4.59935 1.37.0979-1.0764.5872-1.7615.9786-2.1529-3.52291-.3914-7.24156-1.7615-7.24156-7.9266 0-1.7615.58716-3.1315 1.66361-4.3058-.09786-.2936-.68502-1.9572.19572-4.11011 0 0 1.37003-.39144 4.40363 1.66361 1.2722-.39144 2.6422-.4893 4.0123-.4893 1.37 0 2.74.19572 4.0122.4893 3.0336-2.05505 4.4037-1.66361 4.4037-1.66361.8807 2.15291.2935 3.81651.1957 4.20791.9786 1.0765 1.6636 2.5444 1.6636 4.3059 0 6.1651-3.7187 7.4373-7.2416 7.8287.5872.4893 1.0765 1.4679 1.0765 2.9358v4.4036c0 .3915.2935.8808 1.0764.7829 6.3609-2.1529 10.8624-8.1223 10.8624-15.1682-.0979-8.80731-7.2416-15.95104414-16.0489-15.95104414z" fill="#fff" fill-rule="evenodd"/></g></svg>