<svg width="32" height="32" viewBox="0 0 32 32" fill="none" xmlns="http://www.w3.org/2000/svg">
<g clip-path="url(#clip0_3470_10776)">
<path d="M28.7821 9.45708C28.8015 9.73708 28.8015 10.0171 28.8015 10.2997C28.8015 18.91 22.2467 28.8403 10.2608 28.8403V28.8351C6.7202 28.8403 3.25311 27.8261 0.272461 25.9139C0.7873 25.9758 1.30472 26.0068 1.82343 26.0081C4.75762 26.0106 7.60794 25.0261 9.91633 23.2132C7.12794 23.1603 4.68278 21.3422 3.82859 18.6881C4.80536 18.8764 5.81182 18.8377 6.77053 18.5758C3.73053 17.9616 1.54343 15.2906 1.54343 12.1887V12.1061C2.44924 12.6106 3.46343 12.8906 4.50085 12.9216C1.63762 11.008 0.755042 7.19902 2.48407 4.22095C5.79246 8.29192 10.6738 10.7668 15.9138 11.0287C15.3886 8.76547 16.106 6.39386 17.7989 4.80289C20.4234 2.33579 24.5512 2.46224 27.0183 5.08547C28.4776 4.79773 29.8763 4.26224 31.1563 3.50353C30.6699 5.01192 29.6518 6.29321 28.2918 7.1074C29.5834 6.95515 30.8454 6.60934 32.0337 6.0816C31.1589 7.39257 30.057 8.5345 28.7821 9.45708Z" fill="white"/>
</g>
<defs>
<clipPath id="clip0_3470_10776">
<rect width="32" height="32" fill="white"/>
</clipPath>
</defs>
</svg>
