<svg width="24" height="25" viewBox="0 0 24 25" fill="none" xmlns="http://www.w3.org/2000/svg">
<g clip-path="url(#clip0_3184_12015)">
<path fill-rule="evenodd" clip-rule="evenodd" d="M11.9632 0.49968C5.35774 0.49968 -6.10352e-05 5.85748 -6.10352e-05 12.463C-6.10352e-05 17.7474 3.44948 22.2244 8.14673 23.8391C8.73388 23.9125 8.95407 23.5456 8.95407 23.252C8.95407 22.9584 8.95407 22.2245 8.95407 21.1969C5.65131 21.9309 4.91737 19.5822 4.91737 19.5822C4.40361 18.1878 3.59627 17.8208 3.59627 17.8208C2.49535 17.0868 3.66966 17.0868 3.66966 17.0868C4.84398 17.1602 5.50453 18.3345 5.50453 18.3345C6.60544 20.1694 8.29352 19.6556 8.95407 19.3621C9.02746 18.5547 9.39443 18.041 9.68801 17.7474C7.04581 17.4538 4.25682 16.4263 4.25682 11.8024C4.25682 10.4813 4.69719 9.45381 5.50453 8.57307C5.43113 8.35289 4.99076 7.10518 5.65131 5.49051C5.65131 5.49051 6.67884 5.19693 8.95407 6.73821C9.9082 6.44463 10.9357 6.37124 11.9632 6.37124C12.9908 6.37124 14.0183 6.51803 14.9724 6.73821C17.2476 5.19693 18.2752 5.49051 18.2752 5.49051C18.9357 7.10518 18.4954 8.35289 18.422 8.64647C19.1559 9.45381 19.6697 10.5547 19.6697 11.8758C19.6697 16.4997 16.8807 17.4538 14.2385 17.7474C14.6788 18.1144 15.0458 18.8483 15.0458 19.9492C15.0458 21.5639 15.0458 22.8116 15.0458 23.252C15.0458 23.5456 15.266 23.9125 15.8532 23.8391C20.6238 22.2244 23.9999 17.7474 23.9999 12.463C23.9265 5.85748 18.5687 0.49968 11.9632 0.49968Z" fill="black"/>
</g>
<defs>
<clipPath id="clip0_3184_12015">
<rect width="24" height="24" fill="white" transform="translate(0 0.5)"/>
</clipPath>
</defs>
</svg>
