<svg width="48" height="55" viewBox="0 0 48 55" fill="none" xmlns="http://www.w3.org/2000/svg">
<g clip-path="url(#clip0_3288_2090)">
<path d="M23.806 0L47.6119 13.7444V41.2332L23.806 54.9773L0 41.2332V13.7444L23.806 0Z" fill="white"/>
<path d="M39.9575 41.2402L43.8107 39.0125V22.5381L39.9575 24.7658V41.2402Z" fill="black"/>
<path d="M37.1072 42.8885L33.3068 45.0857V28.6113L37.1072 26.4141V42.8885Z" fill="black"/>
<path d="M26.6562 48.9315V32.457L30.4566 30.2598V46.7342L26.6562 48.9315Z" fill="black"/>
<path fill-rule="evenodd" clip-rule="evenodd" d="M23.806 0L47.6119 13.7444V41.2332L23.806 54.9773L0 41.2332V13.7444L23.806 0ZM23.8059 1.10845L46.6616 14.3042H35.6597L23.8059 27.5L0.950101 14.3042L23.8059 1.10845ZM0.950096 17.5768L0.950101 40.6958L23.8059 53.8916L46.6616 40.6958V17.5768L23.8059 30.7726L0.950096 17.5768Z" fill="black"/>
</g>
<defs>
<clipPath id="clip0_3288_2090">
<rect width="47.6631" height="55" fill="white"/>
</clipPath>
</defs>
</svg>
