<svg width="33" height="38" viewBox="0 0 33 38" fill="none" xmlns="http://www.w3.org/2000/svg">
<g clip-path="url(#clip0_3289_4185)">
<path d="M16.2577 0L32.5155 9.38642V28.1592L16.2577 37.5455L0 28.1592V9.38642L16.2577 0Z" fill="white"/>
<path d="M27.2881 28.1643L29.9195 26.6429V15.3921L27.2881 16.9135V28.1643Z" fill="black"/>
<path d="M25.3415 29.2897L22.7461 30.7903V19.5395L25.3415 18.0389V29.2897Z" fill="black"/>
<path d="M18.2042 33.4163V22.1655L20.7996 20.6649V31.9158L18.2042 33.4163Z" fill="black"/>
<path fill-rule="evenodd" clip-rule="evenodd" d="M16.2577 0L32.5155 9.38642V28.1592L16.2577 37.5455L0 28.1592V9.38642L16.2577 0ZM16.2577 0.756987L31.8665 9.76874H24.353L16.2577 18.7805L0.64885 9.76874L16.2577 0.756987ZM0.648846 12.0037L0.64885 27.7922L16.2577 36.804L31.8665 27.7922V12.0037L16.2577 21.0154L0.648846 12.0037Z" fill="black"/>
</g>
<defs>
<clipPath id="clip0_3289_4185">
<rect width="32.5504" height="37.561" fill="white"/>
</clipPath>
</defs>
</svg>
