<svg fill="none" height="25" viewBox="0 0 24 25" width="24" xmlns="http://www.w3.org/2000/svg" xmlns:xlink="http://www.w3.org/1999/xlink"><clipPath id="a"><path d="m0 .768555h24v24h-24z"/></clipPath><g clip-path="url(#a)"><path clip-rule="evenodd" d="m11.9633.768066c-6.6055 0-11.9633 5.357794-11.9633 11.963334 0 5.2844 3.44954 9.7614 8.14679 11.3761.58715.0734.80734-.2936.80734-.5871 0-.2936 0-1.0276 0-2.0551-3.30275.734-4.0367-1.6147-4.0367-1.6147-.51376-1.3945-1.3211-1.7614-1.3211-1.7614-1.10092-.734.07339-.734.07339-.734 1.17432.0734 1.83487 1.2477 1.83487 1.2477 1.10091 1.8349 2.78899 1.3211 3.44954 1.0276.07339-.8074.44037-1.3211.73394-1.6147-2.6422-.2936-5.43119-1.3211-5.43119-5.945 0-1.3211.44037-2.34861 1.24771-3.22934-.0734-.22018-.51376-1.46789.14679-3.08257 0 0 1.02752-.29358 3.30275 1.24771.95413-.29358 1.98167-.36697 3.00917-.36697s2.055.14679 3.0092.36697c2.2752-1.54129 3.3027-1.24771 3.3027-1.24771.6606 1.61468.2202 2.86239.1468 3.15597.734.80733 1.2477 1.90824 1.2477 3.22934 0 4.6239-2.789 5.578-5.4312 5.8716.4404.3669.8074 1.1009.8074 2.2018v3.3028c0 .2935.2202.6605.8073.5871 4.7707-1.6147 8.1468-6.0917 8.1468-11.3761-.0734-6.60554-5.4312-11.963334-12.0367-11.963334z" fill="#000" fill-rule="evenodd"/></g></svg>