<svg width="49" height="55" viewBox="0 0 49 55" fill="none" xmlns="http://www.w3.org/2000/svg">
<g clip-path="url(#clip0_3527_2187)">
<path d="M24.5579 0L48.3639 13.7444V41.2332L24.5579 54.9773L0.751953 41.2332V13.7444L24.5579 0Z" fill="white"/>
<path d="M40.709 41.2405L44.5622 39.0128V22.5384L40.709 24.7661V41.2405Z" fill="black"/>
<path d="M37.859 42.8885L34.0586 45.0858V28.6114L37.859 26.4141V42.8885Z" fill="black"/>
<path d="M27.4082 48.931V32.4566L31.2085 30.2593V46.7338L27.4082 48.931Z" fill="black"/>
<path fill-rule="evenodd" clip-rule="evenodd" d="M24.5579 0L48.3639 13.7444V41.2332L24.5579 54.9773L0.751953 41.2332V13.7444L24.5579 0ZM24.5578 1.10845L47.4135 14.3042H36.4117L24.5578 27.5L1.70205 14.3042L24.5578 1.10845ZM1.70205 17.5768L1.70205 40.6958L24.5578 53.8916L47.4135 40.6958V17.5768L24.5578 30.7726L1.70205 17.5768Z" fill="black"/>
</g>
<defs>
<clipPath id="clip0_3527_2187">
<rect width="47.6631" height="55" fill="white" transform="translate(0.751953)"/>
</clipPath>
</defs>
</svg>
