<svg fill="none" height="25" viewBox="0 0 25 25" width="25" xmlns="http://www.w3.org/2000/svg" xmlns:xlink="http://www.w3.org/1999/xlink"><clipPath id="a"><path d="m.773438.501953h24v24h-24z"/></clipPath><g clip-path="url(#a)"><path d="m22.3598 7.59466c.0145.21.0145.42.0145.63194 0 6.4577-4.9161 13.9055-13.90547 13.9055v-.0039c-2.65548.0039-5.25581-.7568-7.491291-2.191.386131.0465.774191.0697 1.163221.0707 2.20065.0019 4.33839-.7365 6.06968-2.0961-2.09129-.0397-3.92516-1.4033-4.5658-3.3939.73258.1413 1.48742.1122 2.20645-.0842-2.28-.4607-3.92033-2.4639-3.92033-4.79033v-.06193c.67936.37838 1.44.58836 2.21807.61156-2.14742-1.43511-2.80936-4.29189-1.51258-6.52544 2.48129 3.05323 6.14226 4.90936 10.07225 5.10581-.3939-1.69742.1442-3.47613 1.4139-4.66935 1.9684-1.85033 5.0642-1.75549 6.9145.21193 1.0945-.21581 2.1435-.61742 3.1035-1.18645-.3648 1.13129-1.1283 2.09226-2.1483 2.7029.9687-.11419 1.9151-.37355 2.8064-.76935-.6561.98322-1.4826 1.83968-2.4387 2.53161z" fill="#000"/></g></svg>