<svg width="32" height="32" viewBox="0 0 32 32" fill="none" xmlns="http://www.w3.org/2000/svg">
<g clip-path="url(#clip0_3482_22207)">
<path fill-rule="evenodd" clip-rule="evenodd" d="M15.9511 -0.000488281C7.14373 -0.000488281 0 7.14324 0 15.9506C0 22.9965 4.59939 28.9659 10.8624 31.1188C11.6453 31.2166 11.9388 30.7273 11.9388 30.3359C11.9388 29.9445 11.9388 28.9659 11.9388 27.5958C7.53517 28.5744 6.55657 25.4429 6.55657 25.4429C5.87156 23.5836 4.79511 23.0943 4.79511 23.0943C3.32722 22.1157 4.89297 22.1157 4.89297 22.1157C6.45872 22.2136 7.33945 23.7793 7.33945 23.7793C8.80734 26.2258 11.0581 25.5408 11.9388 25.1494C12.0367 24.0729 12.526 23.3879 12.9174 22.9965C9.3945 22.605 5.67584 21.235 5.67584 15.0698C5.67584 13.3084 6.263 11.9383 7.33945 10.764C7.24159 10.4705 6.65443 8.80685 7.53517 6.65395C7.53517 6.65395 8.9052 6.26251 11.9388 8.31755C13.211 7.92612 14.581 7.82826 15.9511 7.82826C17.3211 7.82826 18.6911 8.02398 19.9633 8.31755C22.9969 6.26251 24.367 6.65395 24.367 6.65395C25.2477 8.80685 24.6605 10.4705 24.5627 10.8619C25.5413 11.9384 26.2263 13.4062 26.2263 15.1677C26.2263 21.3328 22.5076 22.605 18.9847 22.9965C19.5719 23.4858 20.0612 24.4643 20.0612 25.9322C20.0612 28.0851 20.0612 29.7487 20.0612 30.3359C20.0612 30.7273 20.3547 31.2166 21.1376 31.1188C27.4985 28.9659 32 22.9965 32 15.9506C31.9021 7.14324 24.7584 -0.000488281 15.9511 -0.000488281Z" fill="#0080FF"/>
</g>
<defs>
<clipPath id="clip0_3482_22207">
<rect width="32" height="32" fill="white"/>
</clipPath>
</defs>
</svg>
