<svg fill="none" height="24" viewBox="0 0 25 24" width="25" xmlns="http://www.w3.org/2000/svg" xmlns:xlink="http://www.w3.org/1999/xlink"><clipPath id="a"><path d="m.756348 0h24v24h-24z"/></clipPath><g clip-path="url(#a)"><path d="m22.3427 7.09306c.0145.21.0145.41999.0145.63193 0 6.45771-4.9161 13.90551-13.90546 13.90551v-.0039c-2.65548.0039-5.25581-.7568-7.491291-2.191.386131.0465.774191.0697 1.163221.0707 2.20065.0019 4.33839-.7365 6.06968-2.0961-2.09129-.0397-3.92516-1.4033-4.5658-3.3939.73258.1413 1.48742.1122 2.20645-.0842-2.28-.4607-3.92032-2.4639-3.92032-4.79034v-.06193c.67935.37839 1.43999.58839 2.21806.61161-2.14742-1.43516-2.80936-4.29193-1.51258-6.52548 2.48129 3.05322 6.14226 4.90935 10.07224 5.1058-.3939-1.69741.1442-3.47612 1.4139-4.66935 1.9684-1.85032 5.0642-1.75548 6.9145.21194 1.0945-.21581 2.1436-.61742 3.1036-1.18646-.3649 1.13129-1.1284 2.09226-2.1484 2.70291.9687-.1142 1.9151-.37355 2.8064-.76936-.6561.98323-1.4826 1.83968-2.4387 2.53162z" fill="#000"/></g></svg>