<svg width="24" height="25" viewBox="0 0 24 25" fill="none" xmlns="http://www.w3.org/2000/svg">
<g clip-path="url(#clip0_3399_6094)">
<path fill-rule="evenodd" clip-rule="evenodd" d="M11.9633 0.499634C5.3578 0.499634 0 5.85743 0 12.4629C0 17.7473 3.44954 22.2244 8.14679 23.8391C8.73394 23.9125 8.95413 23.5455 8.95413 23.2519C8.95413 22.9583 8.95413 22.2244 8.95413 21.1969C5.65138 21.9308 4.91743 19.5822 4.91743 19.5822C4.40367 18.1877 3.59633 17.8207 3.59633 17.8207C2.49541 17.0868 3.66972 17.0868 3.66972 17.0868C4.84404 17.1602 5.50459 18.3345 5.50459 18.3345C6.6055 20.1694 8.29358 19.6556 8.95413 19.362C9.02752 18.5547 9.3945 18.0409 9.68807 17.7473C7.04587 17.4538 4.25688 16.4262 4.25688 11.8024C4.25688 10.4813 4.69725 9.45376 5.50459 8.57303C5.43119 8.35284 4.99083 7.10514 5.65138 5.49046C5.65138 5.49046 6.6789 5.19688 8.95413 6.73817C9.90826 6.44459 10.9358 6.37119 11.9633 6.37119C12.9908 6.37119 14.0183 6.51798 14.9725 6.73817C17.2477 5.19688 18.2752 5.49046 18.2752 5.49046C18.9358 7.10514 18.4954 8.35285 18.422 8.64642C19.156 9.45376 19.6697 10.5547 19.6697 11.8758C19.6697 16.4996 16.8807 17.4538 14.2385 17.7473C14.6789 18.1143 15.0459 18.8483 15.0459 19.9492C15.0459 21.5639 15.0459 22.8116 15.0459 23.2519C15.0459 23.5455 15.2661 23.9125 15.8532 23.8391C20.6239 22.2244 24 17.7473 24 12.4629C23.9266 5.85743 18.5688 0.499634 11.9633 0.499634Z" fill="black"/>
</g>
<defs>
<clipPath id="clip0_3399_6094">
<rect width="24" height="24" fill="white" transform="translate(0 0.5)"/>
</clipPath>
</defs>
</svg>
