<svg fill="none" height="32" viewBox="0 0 33 32" width="33" xmlns="http://www.w3.org/2000/svg" xmlns:xlink="http://www.w3.org/1999/xlink"><clipPath id="a"><path d="m.773438.001953h32v32h-32z"/></clipPath><g clip-path="url(#a)"><path clip-rule="evenodd" d="m16.7245.00195312c-8.80733 0-15.951062 7.14372688-15.951062 15.95104688 0 7.0459 4.599392 13.0153 10.862362 15.1682.7829.0979 1.0765-.3914 1.0765-.7829 0-.3914 0-1.37 0-2.74-4.40369.9786-5.38229-2.1529-5.38229-2.1529-.68501-1.8593-1.76147-2.3486-1.76147-2.3486-1.46789-.9786.09786-.9786.09786-.9786 1.56575.0978 2.44649 1.6636 2.44649 1.6636 1.46789 2.4465 3.71861 1.7614 4.59941 1.37.0978-1.0765.5871-1.7615.9786-2.1529-3.523-.3914-7.24162-1.7615-7.24162-7.9266 0-1.7615.58715-3.1315 1.66361-4.3058-.09786-.2936-.68502-1.95721.19572-4.11011 0 0 1.37003-.39144 4.40369 1.66361 1.2721-.39144 2.6422-.4893 4.0122-.4893s2.7401.19572 4.0122.4893c3.0337-2.05505 4.4037-1.66361 4.4037-1.66361.8807 2.1529.2936 3.81651.1957 4.20791.9786 1.0765 1.6636 2.5444 1.6636 4.3058 0 6.1652-3.7186 7.4374-7.2416 7.8288.5872.4893 1.0765 1.4679 1.0765 2.9358v4.4036c0 .3915.2936.8808 1.0765.7829 6.3608-2.1529 10.8623-8.1223 10.8623-15.1682-.0978-8.80732-7.2416-15.95104688-16.0489-15.95104688z" fill="#fff" fill-rule="evenodd"/></g></svg>