<svg fill="none" height="55" viewBox="0 0 48 55" width="48" xmlns="http://www.w3.org/2000/svg" xmlns:xlink="http://www.w3.org/1999/xlink"><clipPath id="a"><path d="m0 .001953h47.6631v55h-47.6631z"/></clipPath><g clip-path="url(#a)"><path d="m23.806.00195312 23.8059 13.74444688v27.4887l-23.8059 13.7441-23.806-13.7441v-27.4887z" fill="#fff"/><g fill="#000"><path d="m39.9575 41.2427 3.8532-2.2278v-16.4744l-3.8532 2.2278z"/><path d="m37.1073 42.8909-3.8004 2.1973v-16.4744l3.8004-2.1973z"/><path d="m26.6562 48.9329v-16.4744l3.8004-2.1973v16.4745z"/><path clip-rule="evenodd" d="m23.806.00195312 23.8059 13.74444688v27.4887l-23.8059 13.7441-23.806-13.7441v-27.4887zm-.0001 1.10844688 22.8557 13.1958h-11.0019l-11.8538 13.1958-22.855799-13.1958zm-22.855804 16.4683.000005 23.119 22.855799 13.1958 22.8557-13.1958v-23.119l-22.8557 13.1958z" fill-rule="evenodd"/></g></g></svg>