<svg width="24" height="25" viewBox="0 0 24 25" fill="none" xmlns="http://www.w3.org/2000/svg">
<g clip-path="url(#clip0_3527_3468)">
<path d="M21.5873 7.59271C21.6019 7.80271 21.6019 8.01271 21.6019 8.22464C21.6019 14.6824 16.6857 22.1301 7.69637 22.1301V22.1263C5.04088 22.1301 2.44056 21.3695 0.205078 19.9353C0.591207 19.9817 0.979272 20.005 1.3683 20.0059C3.56895 20.0079 5.70669 19.2695 7.43798 17.9098C5.34669 17.8701 3.51282 16.5066 2.87217 14.5159C3.60476 14.6572 4.35959 14.6282 5.07863 14.4317C2.79863 13.9711 1.1583 11.9679 1.1583 9.64142V9.57948C1.83766 9.95787 2.5983 10.1679 3.37637 10.1911C1.22895 8.75593 0.567014 5.89916 1.86379 3.66561C4.34508 6.71884 8.00605 8.57497 11.936 8.77142C11.5422 7.074 12.0802 5.29529 13.3499 4.10206C15.3183 2.25174 18.4141 2.34658 20.2644 4.314C21.3589 4.09819 22.408 3.69658 23.368 3.12755C23.0031 4.25884 22.2396 5.21981 21.2196 5.83045C22.1883 5.71626 23.1348 5.4569 24.026 5.06109C23.3699 6.04432 22.5435 6.90077 21.5873 7.59271Z" fill="black"/>
</g>
<defs>
<clipPath id="clip0_3527_3468">
<rect width="24" height="24" fill="white" transform="translate(0 0.5)"/>
</clipPath>
</defs>
</svg>
