<svg width="24" height="25" viewBox="0 0 24 25" fill="none" xmlns="http://www.w3.org/2000/svg">
<g clip-path="url(#clip0_3422_1328)">
<path d="M21.5864 7.59306C21.6009 7.80306 21.6009 8.01305 21.6009 8.22499C21.6009 14.6827 16.6847 22.1305 7.69539 22.1305V22.1266C5.03991 22.1305 2.43959 21.3698 0.204102 19.9356C0.590231 19.9821 0.978295 20.0053 1.36733 20.0063C3.56797 20.0082 5.70571 19.2698 7.437 17.9102C5.34571 17.8705 3.51184 16.5069 2.8712 14.5163C3.60378 14.6576 4.35862 14.6285 5.07765 14.4321C2.79765 13.9714 1.15733 11.9682 1.15733 9.64176V9.57983C1.83668 9.95822 2.59733 10.1682 3.37539 10.1914C1.22797 8.75628 0.566037 5.89951 1.86281 3.66596C4.3441 6.71918 8.00507 8.57531 11.9351 8.77176C11.5412 7.07435 12.0793 5.29564 13.3489 4.10241C15.3173 2.25209 18.4131 2.34693 20.2635 4.31435C21.358 4.09854 22.407 3.69693 23.367 3.12789C23.0022 4.25918 22.2386 5.22015 21.2186 5.8308C22.1873 5.7166 23.1338 5.45725 24.0251 5.06144C23.3689 6.04467 22.5425 6.90112 21.5864 7.59306Z" fill="black"/>
</g>
<defs>
<clipPath id="clip0_3422_1328">
<rect width="24" height="24" fill="white" transform="translate(0 0.5)"/>
</clipPath>
</defs>
</svg>
