<svg fill="none" height="24" viewBox="0 0 25 24" width="25" xmlns="http://www.w3.org/2000/svg" xmlns:xlink="http://www.w3.org/1999/xlink"><clipPath id="a"><path d="m.756348 0h24v24h-24z"/></clipPath><g clip-path="url(#a)"><path clip-rule="evenodd" d="m12.7197-.00048828c-6.60555 0-11.963352 5.35779828-11.963352 11.96328828 0 5.2844 3.449542 9.7615 8.146792 11.3762.58715.0734.80734-.2936.80734-.5872s0-1.0275 0-2.055c-3.30276.7339-4.0367-1.6147-4.0367-1.6147-.51376-1.3945-1.3211-1.7615-1.3211-1.7615-1.10092-.7339.07339-.7339.07339-.7339 1.17431.0734 1.83486 1.2477 1.83486 1.2477 1.10092 1.8348 2.789 1.3211 3.44955 1.0275.07339-.8073.44032-1.3211.73392-1.6147-2.64218-.2936-5.43117-1.3211-5.43117-5.9449 0-1.32114.44037-2.34866 1.2477-3.22939-.07339-.22019-.51376-1.46789.14679-3.08257 0 0 1.02753-.29358 3.30276 1.2477.95412-.29357 1.98162-.36697 3.00922-.36697 1.0275 0 2.055.14679 3.0091.36697 2.2753-1.54128 3.3028-1.2477 3.3028-1.2477.6605 1.61468.2202 2.86238.1468 3.15596.7339.80734 1.2477 1.9083 1.2477 3.2294 0 4.6238-2.789 5.5779-5.4312 5.8715.4403.367.8073 1.1009.8073 2.2019v3.3027c0 .2936.2202.6606.8074.5872 4.7706-1.6147 8.1467-6.0918 8.1467-11.3762-.0733-6.60549-5.4311-11.96328828-12.0366-11.96328828z" fill="#000" fill-rule="evenodd"/></g></svg>