<svg fill="none" height="25" viewBox="0 0 24 25" width="24" xmlns="http://www.w3.org/2000/svg" xmlns:xlink="http://www.w3.org/1999/xlink"><clipPath id="a"><path d="m0 .5h24v24h-24z"/></clipPath><g clip-path="url(#a)"><path clip-rule="evenodd" d="m11.9633.5c-6.6055 0-11.9633 5.3578-11.9633 11.9633 0 5.2844 3.44954 9.7615 8.14679 11.3761.58715.0734.80734-.2935.80734-.5871s0-1.0275 0-2.0551c-3.30275.734-4.0367-1.6146-4.0367-1.6146-.51376-1.3945-1.3211-1.7615-1.3211-1.7615-1.10092-.7339.07339-.7339.07339-.7339 1.17432.0734 1.83487 1.2477 1.83487 1.2477 1.10091 1.8348 2.78899 1.3211 3.44954 1.0275.07339-.8074.44037-1.3211.73394-1.6147-2.6422-.2936-5.43119-1.3211-5.43119-5.9449 0-1.3211.44037-2.34867 1.24771-3.22941-.0734-.22018-.51376-1.46789.14679-3.08256 0 0 1.02752-.29358 3.30275 1.2477.95413-.29358 1.98167-.36697 3.00917-.36697s2.055.14679 3.0092.36697c2.2752-1.54128 3.3027-1.2477 3.3027-1.2477.6606 1.61467.2202 2.86238.1468 3.15596.734.80734 1.2477 1.90821 1.2477 3.22931 0 4.6239-2.789 5.578-5.4312 5.8716.4404.367.8074 1.1009.8074 2.2018v3.3028c0 .2936.2202.6605.8073.5871 4.7707-1.6146 8.1468-6.0917 8.1468-11.3761-.0734-6.6055-5.4312-11.9633-12.0367-11.9633z" fill="#000" fill-rule="evenodd"/></g></svg>