<svg width="32" height="32" viewBox="0 0 32 32" fill="none" xmlns="http://www.w3.org/2000/svg">
<g clip-path="url(#clip0_3399_6427)">
<path fill-rule="evenodd" clip-rule="evenodd" d="M15.9511 -0.000244141C7.14373 -0.000244141 0 7.14349 0 15.9508C0 22.9967 4.59939 28.9661 10.8624 31.119C11.6453 31.2169 11.9388 30.7276 11.9388 30.3361C11.9388 29.9447 11.9388 28.9661 11.9388 27.5961C7.53517 28.5747 6.55657 25.4432 6.55657 25.4432C5.87156 23.5839 4.79511 23.0946 4.79511 23.0946C3.32722 22.116 4.89297 22.116 4.89297 22.116C6.45872 22.2138 7.33945 23.7796 7.33945 23.7796C8.80734 26.2261 11.0581 25.541 11.9388 25.1496C12.0367 24.0732 12.526 23.3881 12.9174 22.9967C9.39449 22.6053 5.67584 21.2352 5.67584 15.0701C5.67584 13.3086 6.263 11.9386 7.33945 10.7643C7.24159 10.4707 6.65443 8.8071 7.53517 6.65419C7.53517 6.65419 8.9052 6.26275 11.9388 8.3178C13.211 7.92636 14.581 7.8285 15.9511 7.8285C17.3211 7.8285 18.6911 8.02422 19.9633 8.3178C22.9969 6.26275 24.367 6.65419 24.367 6.65419C25.2477 8.8071 24.6605 10.4707 24.5627 10.8621C25.5413 11.9386 26.2263 13.4065 26.2263 15.168C26.2263 21.3331 22.5076 22.6053 18.9847 22.9967C19.5719 23.486 20.0612 24.4646 20.0612 25.9325C20.0612 28.0854 20.0612 29.749 20.0612 30.3361C20.0612 30.7276 20.3547 31.2169 21.1376 31.119C27.4985 28.9661 32 22.9967 32 15.9508C31.9021 7.14349 24.7584 -0.000244141 15.9511 -0.000244141Z" fill="white"/>
</g>
<defs>
<clipPath id="clip0_3399_6427">
<rect width="32" height="32" fill="white"/>
</clipPath>
</defs>
</svg>
