<svg width="48" height="55" viewBox="0 0 48 55" fill="none" xmlns="http://www.w3.org/2000/svg">
<g clip-path="url(#clip0_4228_876)">
<path d="M23.806 0.000732422L47.6119 13.7451V41.2339L23.806 54.978L0 41.2339V13.7451L23.806 0.000732422Z" fill="white"/>
<path d="M39.957 41.2412L43.8102 39.0135V22.5391L39.957 24.7668V41.2412Z" fill="black"/>
<path d="M37.107 42.8892L33.3066 45.0864V28.6121L37.107 26.4148V42.8892Z" fill="black"/>
<path d="M26.6562 48.9317V32.4573L30.4566 30.26V46.7345L26.6562 48.9317Z" fill="black"/>
<path fill-rule="evenodd" clip-rule="evenodd" d="M23.806 0.000732422L47.6119 13.7451V41.2339L23.806 54.978L0 41.2339V13.7451L23.806 0.000732422ZM23.8059 1.10918L46.6616 14.305H35.6597L23.8059 27.5007L0.950101 14.305L23.8059 1.10918ZM0.950096 17.5775L0.950101 40.6965L23.8059 53.8923L46.6616 40.6965V17.5775L23.8059 30.7733L0.950096 17.5775Z" fill="black"/>
</g>
<defs>
<clipPath id="clip0_4228_876">
<rect width="47.6631" height="55" fill="white" transform="translate(0 0.000732422)"/>
</clipPath>
</defs>
</svg>
