<svg width="48" height="56" viewBox="0 0 48 56" fill="none" xmlns="http://www.w3.org/2000/svg">
<g clip-path="url(#clip0_4131_3071)">
<path d="M23.806 0.124268L47.6119 13.8687V41.3574L23.806 55.1016L0 41.3574V13.8687L23.806 0.124268Z" fill="white"/>
<path d="M39.957 41.3645L43.8102 39.1367V22.6624L39.957 24.8901V41.3645Z" fill="black"/>
<path d="M37.107 43.0125L33.3066 45.2097V28.7353L37.107 26.5381V43.0125Z" fill="black"/>
<path d="M26.6562 49.0553V32.5808L30.4566 30.3835V46.858L26.6562 49.0553Z" fill="black"/>
<path fill-rule="evenodd" clip-rule="evenodd" d="M23.806 0.124268L47.6119 13.8687V41.3574L23.806 55.1016L0 41.3574V13.8687L23.806 0.124268ZM23.8059 1.23271L46.6616 14.4285H35.6597L23.8059 27.6243L0.950101 14.4285L23.8059 1.23271ZM0.950096 17.701L0.950101 40.82L23.8059 54.0158L46.6616 40.82V17.701L23.8059 30.8968L0.950096 17.701Z" fill="black"/>
</g>
<defs>
<clipPath id="clip0_4131_3071">
<rect width="47.6631" height="55" fill="white" transform="translate(0 0.124268)"/>
</clipPath>
</defs>
</svg>
