<svg fill="none" height="25" viewBox="0 0 25 25" width="25" xmlns="http://www.w3.org/2000/svg" xmlns:xlink="http://www.w3.org/1999/xlink"><clipPath id="a"><path d="m.751953.5h24v24h-24z"/></clipPath><g clip-path="url(#a)"><path clip-rule="evenodd" d="m12.7153.49968c-6.60555 0-11.963347 5.3578-11.963347 11.96332 0 5.2844 3.449537 9.7614 8.146787 11.3761.58716.0734.80734-.2935.80734-.5871s0-1.0275 0-2.0551c-3.30275.734-4.0367-1.6147-4.0367-1.6147-.51376-1.3944-1.3211-1.7614-1.3211-1.7614-1.10091-.734.0734-.734.0734-.734 1.17431.0734 1.83486 1.2477 1.83486 1.2477 1.10092 1.8349 2.78899 1.3211 3.44954 1.0276.0734-.8074.44032-1.3211.73392-1.6147-2.64218-.2936-5.43117-1.3211-5.43117-5.945 0-1.3211.44037-2.34859 1.24771-3.22933-.07339-.22018-.51376-1.46789.14679-3.08256 0 0 1.02752-.29358 3.30275 1.2477.95412-.29358 1.98162-.36697 3.00922-.36697 1.0275 0 2.055.14679 3.0091.36697 2.2753-1.54128 3.3028-1.2477 3.3028-1.2477.6605 1.61467.2202 2.86238.1468 3.15596.7339.80734 1.2477 1.90823 1.2477 3.22933 0 4.6239-2.789 5.578-5.4312 5.8716.4404.367.8073 1.1009.8073 2.2018v3.3028c0 .2936.2202.6605.8074.5871 4.7706-1.6147 8.1468-6.0917 8.1468-11.3761-.0734-6.60552-5.4312-11.96332-12.0367-11.96332z" fill="#000" fill-rule="evenodd"/></g></svg>