<svg width="33" height="32" viewBox="0 0 33 32" fill="none" xmlns="http://www.w3.org/2000/svg">
<g clip-path="url(#clip0_3399_6433)">
<path d="M29.2819 9.45904C29.3012 9.73904 29.3012 10.019 29.3012 10.3016C29.3012 18.9119 22.7464 28.8423 10.7606 28.8423V28.8371C7.21996 28.8423 3.75286 27.8281 0.772217 25.9158C1.28706 25.9777 1.80447 26.0087 2.32318 26.01C5.25738 26.0126 8.1077 25.0281 10.4161 23.2152C7.6277 23.1623 5.18254 21.3442 4.32835 18.69C5.30512 18.8784 6.31157 18.8397 7.27028 18.5777C4.23028 17.9636 2.04318 15.2926 2.04318 12.1906V12.1081C2.94899 12.6126 3.96318 12.8926 5.0006 12.9236C2.13738 11.01 1.2548 7.20097 2.98383 4.22291C6.29222 8.29387 11.1735 10.7687 16.4135 11.0306C15.8883 8.76742 16.6058 6.39581 18.2987 4.80484C20.9232 2.33774 25.0509 2.4642 27.518 5.08742C28.9774 4.79968 30.3761 4.2642 31.6561 3.50549C31.1696 5.01387 30.1516 6.29516 28.7916 7.10936C30.0832 6.9571 31.3451 6.61129 32.5335 6.08355C31.6587 7.39452 30.5567 8.53645 29.2819 9.45904Z" fill="white"/>
</g>
<defs>
<clipPath id="clip0_3399_6433">
<rect width="32" height="32" fill="white" transform="translate(0.5 0.00195312)"/>
</clipPath>
</defs>
</svg>
