<svg width="48" height="56" viewBox="0 0 48 56" fill="none" xmlns="http://www.w3.org/2000/svg">
<g clip-path="url(#clip0_4228_2785)">
<path d="M23.806 0.928711L47.6119 14.6731V42.1619L23.806 55.906L0 42.1619V14.6731L23.806 0.928711Z" fill="white"/>
<path d="M39.9575 42.1694L43.8107 39.9417V23.4673L39.9575 25.695V42.1694Z" fill="black"/>
<path d="M37.107 43.8172L33.3066 46.0144V29.54L37.107 27.3428V43.8172Z" fill="black"/>
<path d="M26.6562 49.8597V33.3852L30.4566 31.188V47.6624L26.6562 49.8597Z" fill="black"/>
<path fill-rule="evenodd" clip-rule="evenodd" d="M23.806 0.928711L47.6119 14.6731V42.1619L23.806 55.906L0 42.1619V14.6731L23.806 0.928711ZM23.8059 2.03716L46.6616 15.2329H35.6597L23.8059 28.4287L0.950101 15.2329L23.8059 2.03716ZM0.950096 18.5055L0.950101 41.6245L23.8059 54.8203L46.6616 41.6245V18.5055L23.8059 31.7013L0.950096 18.5055Z" fill="black"/>
</g>
<defs>
<clipPath id="clip0_4228_2785">
<rect width="47.6631" height="55" fill="white" transform="translate(0 0.928711)"/>
</clipPath>
</defs>
</svg>
