<svg width="33" height="32" viewBox="0 0 33 32" fill="none" xmlns="http://www.w3.org/2000/svg">
<g clip-path="url(#clip0_3399_6435)">
<path fill-rule="evenodd" clip-rule="evenodd" d="M16.4511 0.00195312C7.64373 0.00195312 0.5 7.14568 0.5 15.953C0.5 22.9989 5.09939 28.9683 11.3624 31.1212C12.1453 31.2191 12.4388 30.7298 12.4388 30.3383C12.4388 29.9469 12.4388 28.9683 12.4388 27.5983C8.03517 28.5769 7.05657 25.4454 7.05657 25.4454C6.37156 23.5861 5.29511 23.0968 5.29511 23.0968C3.82722 22.1182 5.39297 22.1182 5.39297 22.1182C6.95872 22.216 7.83945 23.7818 7.83945 23.7818C9.30734 26.2283 11.5581 25.5432 12.4388 25.1518C12.5367 24.0753 13.026 23.3903 13.4174 22.9989C9.8945 22.6075 6.17584 21.2374 6.17584 15.0723C6.17584 13.3108 6.763 11.9408 7.83945 10.7665C7.74159 10.4729 7.15443 8.80929 8.03517 6.65639C8.03517 6.65639 9.4052 6.26495 12.4388 8.32C13.711 7.92856 15.081 7.8307 16.4511 7.8307C17.8211 7.8307 19.1911 8.02642 20.4633 8.32C23.4969 6.26495 24.867 6.65639 24.867 6.65639C25.7477 8.80929 25.1605 10.4729 25.0627 10.8643C26.0413 11.9408 26.7263 13.4087 26.7263 15.1701C26.7263 21.3353 23.0076 22.6075 19.4847 22.9989C20.0719 23.4882 20.5612 24.4668 20.5612 25.9347C20.5612 28.0876 20.5612 29.7512 20.5612 30.3383C20.5612 30.7298 20.8547 31.2191 21.6376 31.1212C27.9985 28.9683 32.5 22.9989 32.5 15.953C32.4021 7.14568 25.2584 0.00195312 16.4511 0.00195312Z" fill="white"/>
</g>
<defs>
<clipPath id="clip0_3399_6435">
<rect width="32" height="32" fill="white" transform="translate(0.5 0.00195312)"/>
</clipPath>
</defs>
</svg>
