<svg fill="none" height="24" viewBox="0 0 24 24" width="24" xmlns="http://www.w3.org/2000/svg" xmlns:xlink="http://www.w3.org/1999/xlink"><clipPath id="a"><path d="m0 0h24v24h-24z"/></clipPath><g clip-path="url(#a)"><path clip-rule="evenodd" d="m11.9632-.00030518c-6.60546 0-11.96325341 5.35779518-11.96325341 11.96330518 0 5.2844 3.44954341 9.7615 8.14679341 11.3761.58715.0734.80733-.2935.80733-.5871s0-1.0275 0-2.0551c-3.30275.734-4.03669-1.6146-4.03669-1.6146-.51376-1.3945-1.3211-1.7615-1.3211-1.7615-1.10092-.7339.07339-.7339.07339-.7339 1.17431.0733 1.83486 1.2477 1.83486 1.2477 1.10092 1.8348 2.78899 1.3211 3.44954 1.0275.0734-.8074.44037-1.3211.73395-1.6147-2.6422-.2936-5.43119-1.3211-5.43119-5.945 0-1.32105.44036-2.34858 1.2477-3.22931-.07339-.22018-.51376-1.46789.14679-3.08257 0 0 1.02753-.29358 3.30275 1.24771.95413-.29358 1.98163-.36698 3.00913-.36698 1.0276 0 2.0551.14679 3.0092.36698 2.2753-1.54129 3.3028-1.24771 3.3028-1.24771.6605 1.61468.2202 2.86239.1468 3.15596.7339.80734 1.2477 1.90822 1.2477 3.22932 0 4.6239-2.789 5.578-5.4312 5.8716.4403.367.8073 1.1009.8073 2.2018v3.3028c0 .2936.2202.6605.8074.5871 4.7706-1.6146 8.1467-6.0917 8.1467-11.3761-.0733-6.60551-5.4311-11.96330518-12.0367-11.96330518z" fill="#000" fill-rule="evenodd"/></g></svg>