<svg width="48" height="56" viewBox="0 0 48 56" fill="none" xmlns="http://www.w3.org/2000/svg">
<g clip-path="url(#clip0_3482_26752)">
<path d="M23.806 0.270142L47.6119 14.0145V41.5033L23.806 55.2474L0 41.5033V14.0145L23.806 0.270142Z" fill="white"/>
<path d="M39.958 41.5109L43.8112 39.2831V22.8087L39.958 25.0365V41.5109Z" fill="black"/>
<path d="M37.107 43.1586L33.3066 45.3559V28.8815L37.107 26.6842V43.1586Z" fill="black"/>
<path d="M26.6562 49.2011V32.7267L30.4566 30.5294V47.0039L26.6562 49.2011Z" fill="black"/>
<path fill-rule="evenodd" clip-rule="evenodd" d="M23.806 0.270142L47.6119 14.0145V41.5033L23.806 55.2474L0 41.5033V14.0145L23.806 0.270142ZM23.8059 1.37859L46.6616 14.5744H35.6597L23.8059 27.7701L0.950101 14.5744L23.8059 1.37859ZM0.950096 17.8469L0.950101 40.9659L23.8059 54.1617L46.6616 40.9659V17.8469L23.8059 31.0427L0.950096 17.8469Z" fill="black"/>
</g>
<defs>
<clipPath id="clip0_3482_26752">
<rect width="47.6631" height="55" fill="white" transform="translate(0 0.270142)"/>
</clipPath>
</defs>
</svg>
