<svg fill="none" height="25" viewBox="0 0 24 25" width="24" xmlns="http://www.w3.org/2000/svg" xmlns:xlink="http://www.w3.org/1999/xlink"><clipPath id="a"><path d="m0 .501953h24v24h-24z"/></clipPath><g clip-path="url(#a)"><path d="m21.5864 7.59466c.0145.21.0145.42.0145.63194 0 6.4577-4.9162 13.9055-13.90551 13.9055v-.0039c-2.65548.0039-5.2558-.7568-7.491288-2.191.386129.0465.774193.0697 1.163228.0707 2.20064.0019 4.33838-.7365 6.06967-2.0961-2.09129-.0397-3.92516-1.4033-4.5658-3.3939.73258.1413 1.48742.1122 2.20645-.0842-2.28-.4607-3.92032-2.4639-3.92032-4.79033v-.06193c.67935.37838 1.44.58836 2.21806.61156-2.14742-1.43511-2.809353-4.29189-1.51258-6.52544 2.48129 3.05323 6.14226 4.90936 10.07229 5.10581-.3939-1.69742.1442-3.47613 1.4138-4.66935 1.9684-1.85033 5.0642-1.75549 6.9146.21193 1.0945-.21581 2.1435-.61742 3.1035-1.18645-.3648 1.13129-1.1284 2.09226-2.1484 2.7029.9687-.11419 1.9152-.37355 2.8065-.76935-.6562.98322-1.4826 1.83968-2.4387 2.53161z" fill="#000"/></g></svg>