<svg width="25" height="25" viewBox="0 0 25 25" fill="none" xmlns="http://www.w3.org/2000/svg">
<g clip-path="url(#clip0_3527_2210)">
<path fill-rule="evenodd" clip-rule="evenodd" d="M12.7153 0.49968C6.10975 0.49968 0.751953 5.85748 0.751953 12.463C0.751953 17.7474 4.20149 22.2244 8.89874 23.8391C9.4859 23.9125 9.70608 23.5456 9.70608 23.252C9.70608 22.9584 9.70608 22.2245 9.70608 21.1969C6.40333 21.9309 5.66938 19.5822 5.66938 19.5822C5.15562 18.1878 4.34828 17.8208 4.34828 17.8208C3.24737 17.0868 4.42168 17.0868 4.42168 17.0868C5.59599 17.1602 6.25654 18.3345 6.25654 18.3345C7.35746 20.1694 9.04553 19.6556 9.70608 19.3621C9.77948 18.5547 10.1464 18.041 10.44 17.7474C7.79782 17.4538 5.00883 16.4263 5.00883 11.8024C5.00883 10.4813 5.4492 9.45381 6.25654 8.57307C6.18315 8.35289 5.74278 7.10518 6.40333 5.49051C6.40333 5.49051 7.43085 5.19693 9.70608 6.73821C10.6602 6.44463 11.6877 6.37124 12.7153 6.37124C13.7428 6.37124 14.7703 6.51803 15.7244 6.73821C17.9997 5.19693 19.0272 5.49051 19.0272 5.49051C19.6877 7.10518 19.2474 8.35289 19.174 8.64647C19.9079 9.45381 20.4217 10.5547 20.4217 11.8758C20.4217 16.4997 17.6327 17.4538 14.9905 17.7474C15.4309 18.1144 15.7978 18.8483 15.7978 19.9492C15.7978 21.5639 15.7978 22.8116 15.7978 23.252C15.7978 23.5456 16.018 23.9125 16.6052 23.8391C21.3758 22.2244 24.752 17.7474 24.752 12.463C24.6786 5.85748 19.3208 0.49968 12.7153 0.49968Z" fill="black"/>
</g>
<defs>
<clipPath id="clip0_3527_2210">
<rect width="24" height="24" fill="white" transform="translate(0.751953 0.5)"/>
</clipPath>
</defs>
</svg>
