<svg width="48" height="56" viewBox="0 0 48 56" fill="none" xmlns="http://www.w3.org/2000/svg">
<g clip-path="url(#clip0_3473_3124)">
<path d="M23.806 0.779297L47.6119 14.5237V42.0125L23.806 55.7566L0 42.0125V14.5237L23.806 0.779297Z" fill="white"/>
<path d="M39.957 42.0195L43.8102 39.7918V23.3174L39.957 25.5451V42.0195Z" fill="black"/>
<path d="M37.107 43.6678L33.3066 45.865V29.3906L37.107 27.1934V43.6678Z" fill="black"/>
<path d="M26.6562 49.7108V33.2363L30.4566 31.0391V47.5135L26.6562 49.7108Z" fill="black"/>
<path fill-rule="evenodd" clip-rule="evenodd" d="M23.806 0.779297L47.6119 14.5237V42.0125L23.806 55.7566L0 42.0125V14.5237L23.806 0.779297ZM23.8059 1.88774L46.6616 15.0835H35.6597L23.8059 28.2793L0.950101 15.0835L23.8059 1.88774ZM0.950096 18.3561L0.950101 41.4751L23.8059 54.6708L46.6616 41.4751V18.3561L23.8059 31.5518L0.950096 18.3561Z" fill="black"/>
</g>
<defs>
<clipPath id="clip0_3473_3124">
<rect width="47.6631" height="55" fill="white" transform="translate(0 0.779297)"/>
</clipPath>
</defs>
</svg>
