<svg width="24" height="25" viewBox="0 0 24 25" fill="none" xmlns="http://www.w3.org/2000/svg">
<g clip-path="url(#clip0_3527_1356)">
<path d="M21.5864 7.59466C21.6009 7.80466 21.6009 8.01466 21.6009 8.2266C21.6009 14.6843 16.6847 22.1321 7.69539 22.1321V22.1282C5.03991 22.1321 2.43959 21.3714 0.204102 19.9372C0.590231 19.9837 0.978295 20.0069 1.36733 20.0079C3.56797 20.0098 5.70571 19.2714 7.437 17.9118C5.34571 17.8721 3.51184 16.5085 2.8712 14.5179C3.60378 14.6592 4.35862 14.6301 5.07765 14.4337C2.79765 13.973 1.15733 11.9698 1.15733 9.64337V9.58144C1.83668 9.95982 2.59733 10.1698 3.37539 10.193C1.22797 8.75789 0.566037 5.90111 1.86281 3.66756C4.3441 6.72079 8.00507 8.57692 11.9351 8.77337C11.5412 7.07595 12.0793 5.29724 13.3489 4.10402C15.3173 2.25369 18.4131 2.34853 20.2635 4.31595C21.358 4.10014 22.407 3.69853 23.367 3.1295C23.0022 4.26079 22.2386 5.22176 21.2186 5.8324C22.1873 5.71821 23.1338 5.45885 24.0251 5.06305C23.3689 6.04627 22.5425 6.90273 21.5864 7.59466Z" fill="black"/>
</g>
<defs>
<clipPath id="clip0_3527_1356">
<rect width="24" height="24" fill="white" transform="translate(0 0.501953)"/>
</clipPath>
</defs>
</svg>
