<svg width="25" height="25" viewBox="0 0 25 25" fill="none" xmlns="http://www.w3.org/2000/svg">
<g clip-path="url(#clip0_3399_6113)">
<path fill-rule="evenodd" clip-rule="evenodd" d="M12.8847 0.0465088C6.27918 0.0465088 0.921387 5.40431 0.921387 12.0098C0.921387 17.2942 4.37093 21.7713 9.06818 23.386C9.65533 23.4594 9.87551 23.0924 9.87551 22.7988C9.87551 22.5052 9.87551 21.7713 9.87551 20.7438C6.57276 21.4777 5.83882 19.1291 5.83882 19.1291C5.32506 17.7346 4.51772 17.3676 4.51772 17.3676C3.4168 16.6337 4.59111 16.6337 4.59111 16.6337C5.76542 16.7071 6.42597 17.8814 6.42597 17.8814C7.52689 19.7162 9.21496 19.2025 9.87551 18.9089C9.94891 18.1016 10.3159 17.5878 10.6095 17.2942C7.96726 17.0006 5.17827 15.9731 5.17827 11.3493C5.17827 10.0282 5.61863 9.00064 6.42597 8.1199C6.35258 7.89972 5.91221 6.65201 6.57276 5.03733C6.57276 5.03733 7.60029 4.74376 9.87551 6.28504C10.8296 5.99146 11.8572 5.91807 12.8847 5.91807C13.9122 5.91807 14.9397 6.06486 15.8939 6.28504C18.1691 4.74376 19.1966 5.03733 19.1966 5.03733C19.8572 6.65201 19.4168 7.89972 19.3434 8.1933C20.0774 9.00064 20.5911 10.1016 20.5911 11.4227C20.5911 16.0465 17.8021 17.0006 15.1599 17.2942C15.6003 17.6612 15.9673 18.3951 15.9673 19.496C15.9673 21.1107 15.9673 22.3584 15.9673 22.7988C15.9673 23.0924 16.1874 23.4594 16.7746 23.386C21.5452 21.7713 24.9214 17.2942 24.9214 12.0098C24.848 5.40431 19.4902 0.0465088 12.8847 0.0465088Z" fill="black"/>
</g>
<defs>
<clipPath id="clip0_3399_6113">
<rect width="24" height="24" fill="white" transform="translate(0.921387 0.046875)"/>
</clipPath>
</defs>
</svg>
