<svg fill="none" height="38" viewBox="0 0 33 38" width="33" xmlns="http://www.w3.org/2000/svg" xmlns:xlink="http://www.w3.org/1999/xlink"><clipPath id="a"><path d="m0 0h32.5504v37.561h-32.5504z"/></clipPath><g clip-path="url(#a)"><path d="m16.2577 0 16.2578 9.38642v18.77278l-16.2578 9.3863-16.2577-9.3863v-18.77278z" fill="#fff"/><g fill="#000"><path d="m27.2881 28.1643 2.6314-1.5214v-11.2508l-2.6314 1.5214z"/><path d="m25.3415 29.2897-2.5954 1.5006v-11.2508l2.5954-1.5006z"/><path d="m18.2042 33.4163v-11.2508l2.5954-1.5006v11.2509z"/><path clip-rule="evenodd" d="m16.2577 0 16.2578 9.38642v18.77278l-16.2578 9.3863-16.2577-9.3863v-18.77278zm0 .756987 15.6088 9.011753h-7.5135l-8.0953 9.01176-15.60885-9.01176zm-15.608854 11.246713.000004 15.7885 15.60885 9.0118 15.6088-9.0118v-15.7885l-15.6088 9.0117z" fill-rule="evenodd"/></g></g></svg>