<svg width="32" height="32" viewBox="0 0 32 32" fill="none" xmlns="http://www.w3.org/2000/svg">
<g clip-path="url(#clip0_3470_10698)">
<path d="M28.7819 9.45659C28.8012 9.73659 28.8012 10.0166 28.8012 10.2992C28.8012 18.9095 22.2464 28.8398 10.2606 28.8398V28.8347C6.71996 28.8398 3.25286 27.8256 0.272217 25.9134C0.787055 25.9753 1.30447 26.0063 1.82318 26.0076C4.75738 26.0101 7.6077 25.0256 9.91609 23.2127C7.1277 23.1598 4.68254 21.3418 3.82835 18.6876C4.80512 18.8759 5.81157 18.8372 6.77028 18.5753C3.73028 17.9611 1.54318 15.2901 1.54318 12.1882V12.1056C2.44899 12.6101 3.46318 12.8901 4.5006 12.9211C1.63738 11.0076 0.754797 7.19853 2.48383 4.22046C5.79222 8.29143 10.6735 10.7663 15.9135 11.0282C15.3883 8.76498 16.1058 6.39337 17.7987 4.8024C20.4232 2.3353 24.5509 2.46175 27.018 5.08498C28.4774 4.79724 29.8761 4.26175 31.1561 3.50304C30.6696 5.01143 29.6516 6.29272 28.2916 7.10692C29.5832 6.95466 30.8451 6.60885 32.0335 6.08111C31.1587 7.39208 30.0567 8.53401 28.7819 9.45659Z" fill="white"/>
</g>
<defs>
<clipPath id="clip0_3470_10698">
<rect width="32" height="32" fill="white"/>
</clipPath>
</defs>
</svg>
