<svg width="33" height="32" viewBox="0 0 33 32" fill="none" xmlns="http://www.w3.org/2000/svg">
<g clip-path="url(#clip0_3399_6427)">
<path fill-rule="evenodd" clip-rule="evenodd" d="M16.4511 0C7.64373 0 0.5 7.14373 0.5 15.9511C0.5 22.9969 5.09939 28.9664 11.3624 31.1193C12.1453 31.2171 12.4388 30.7278 12.4388 30.3364C12.4388 29.945 12.4388 28.9664 12.4388 27.5963C8.03517 28.5749 7.05657 25.4434 7.05657 25.4434C6.37156 23.5841 5.29511 23.0948 5.29511 23.0948C3.82722 22.1162 5.39297 22.1162 5.39297 22.1162C6.95872 22.2141 7.83945 23.7798 7.83945 23.7798C9.30734 26.2263 11.5581 25.5413 12.4388 25.1498C12.5367 24.0734 13.026 23.3884 13.4174 22.9969C9.8945 22.6055 6.17584 21.2355 6.17584 15.0703C6.17584 13.3089 6.763 11.9388 7.83945 10.7645C7.74159 10.4709 7.15443 8.80734 8.03517 6.65443C8.03517 6.65443 9.4052 6.263 12.4388 8.31804C13.711 7.92661 15.081 7.82875 16.4511 7.82875C17.8211 7.82875 19.1911 8.02446 20.4633 8.31804C23.4969 6.263 24.867 6.65443 24.867 6.65443C25.7477 8.80734 25.1605 10.4709 25.0627 10.8624C26.0413 11.9388 26.7263 13.4067 26.7263 15.1682C26.7263 21.3333 23.0076 22.6055 19.4847 22.9969C20.0719 23.4862 20.5612 24.4648 20.5612 25.9327C20.5612 28.0856 20.5612 29.7492 20.5612 30.3364C20.5612 30.7278 20.8547 31.2171 21.6376 31.1193C27.9985 28.9664 32.5 22.9969 32.5 15.9511C32.4021 7.14373 25.2584 0 16.4511 0Z" fill="white"/>
</g>
<defs>
<clipPath id="clip0_3399_6427">
<rect width="32" height="32" fill="white" transform="translate(0.5)"/>
</clipPath>
</defs>
</svg>
