<svg width="24" height="25" viewBox="0 0 24 25" fill="none" xmlns="http://www.w3.org/2000/svg">
<g clip-path="url(#clip0_3399_6093)">
<path d="M21.5864 7.5927C21.6009 7.8027 21.6009 8.0127 21.6009 8.22464C21.6009 14.6824 16.6848 22.1301 7.69542 22.1301V22.1263C5.03994 22.1301 2.43962 21.3695 0.204132 19.9353C0.590261 19.9817 0.978326 20.005 1.36736 20.0059C3.568 20.0079 5.70574 19.2695 7.43704 17.9098C5.34574 17.8701 3.51187 16.5066 2.87123 14.5159C3.60381 14.6572 4.35865 14.6282 5.07768 14.4317C2.79768 13.9711 1.15736 11.9679 1.15736 9.64141V9.57948C1.83671 9.95787 2.59736 10.1679 3.37542 10.1911C1.228 8.75593 0.566068 5.89916 1.86284 3.66561C4.34413 6.71883 8.0051 8.57496 11.9351 8.77141C11.5412 7.07399 12.0793 5.29528 13.349 4.10206C15.3174 2.25174 18.4132 2.34658 20.2635 4.31399C21.358 4.09819 22.407 3.69658 23.367 3.12754C23.0022 4.25883 22.2386 5.2198 21.2186 5.83045C22.1874 5.71625 23.1338 5.4569 24.0251 5.06109C23.369 6.04432 22.5425 6.90077 21.5864 7.5927Z" fill="black"/>
</g>
<defs>
<clipPath id="clip0_3399_6093">
<rect width="24" height="24" fill="white" transform="translate(0 0.5)"/>
</clipPath>
</defs>
</svg>
