<svg fill="none" height="25" viewBox="0 0 25 25" width="25" xmlns="http://www.w3.org/2000/svg" xmlns:xlink="http://www.w3.org/1999/xlink"><clipPath id="a"><path d="m.773438.501953h24v24h-24z"/></clipPath><g clip-path="url(#a)"><path clip-rule="evenodd" d="m12.7367.501465c-6.60546 0-11.963262 5.357795-11.963262 11.963335 0 5.2844 3.449542 9.7614 8.146792 11.3761.58715.0734.80734-.2936.80734-.5871 0-.2936 0-1.0276 0-2.0551-3.30276.734-4.0367-1.6147-4.0367-1.6147-.51376-1.3945-1.3211-1.7614-1.3211-1.7614-1.10092-.734.07339-.734.07339-.734 1.17431.0734 1.83486 1.2477 1.83486 1.2477 1.10092 1.8349 2.789 1.3211 3.44955 1.0276.07339-.8074.44033-1.3212.73393-1.6147-2.64219-.2936-5.43118-1.3211-5.43118-5.945 0-1.3211.44037-2.34861 1.2477-3.22934-.07339-.22018-.51376-1.46789.14679-3.08257 0 0 1.02753-.29358 3.30276 1.24771.95413-.29358 1.98163-.36698 3.00913-.36698 1.0276 0 2.0551.14679 3.0092.36698 2.2752-1.54129 3.3028-1.24771 3.3028-1.24771.6605 1.61468.2202 2.86239.1468 3.15596.7339.80734 1.2477 1.90825 1.2477 3.22935 0 4.6239-2.789 5.578-5.4312 5.8716.4403.3669.8073 1.1009.8073 2.2018v3.3028c0 .2935.2202.6605.8073.5871 4.7707-1.6147 8.1468-6.0917 8.1468-11.3761-.0734-6.60554-5.4312-11.963335-12.0367-11.963335z" fill="#000" fill-rule="evenodd"/></g></svg>