<svg fill="none" height="32" viewBox="0 0 32 32" width="32" xmlns="http://www.w3.org/2000/svg" xmlns:xlink="http://www.w3.org/1999/xlink"><clipPath id="a"><path d="m0 0h32v32h-32z"/></clipPath><g clip-path="url(#a)"><path d="m28.7819 9.45659c.0193.28.0193.56001.0193.84261 0 8.6103-6.5548 18.5406-18.5406 18.5406v-.0051c-3.54064.0051-7.00774-1.0091-9.988383-2.9213.514838.0619 1.032253.0929 1.550963.0942 2.9342.0025 5.78452-.982 8.09291-2.7949-2.78839-.0529-5.23355-1.8709-6.08774-4.5251.97677.1883 1.98322.1496 2.94193-.1123-3.04-.6142-5.2271-3.2852-5.2271-6.3871v-.0826c.90581.5045 1.92.7845 2.95742.8155-2.86322-1.9135-3.745803-5.72257-2.01677-8.70064 3.30839 4.07097 8.18967 6.54584 13.42967 6.80774-.5252-2.26322.1923-4.63483 1.8852-6.2258 2.6245-2.4671 6.7522-2.34065 9.2193.28258 1.4594-.28774 2.8581-.82323 4.1381-1.58194-.4865 1.50839-1.5045 2.78968-2.8645 3.60388 1.2916-.15226 2.5535-.49807 3.7419-1.02581-.8748 1.31097-1.9768 2.4529-3.2516 3.37548z" fill="#fff"/></g></svg>