<svg width="33" height="32" viewBox="0 0 33 32" fill="none" xmlns="http://www.w3.org/2000/svg">
<g clip-path="url(#clip0_3470_10750)">
<path d="M29.5556 9.45904C29.5749 9.73904 29.5749 10.019 29.5749 10.3016C29.5749 18.9119 23.0201 28.8423 11.0343 28.8423V28.8371C7.49364 28.8423 4.02654 27.8281 1.0459 25.9158C1.56074 25.9777 2.07816 26.0087 2.59687 26.01C5.53106 26.0126 8.38138 25.0281 10.6898 23.2152C7.90138 23.1623 5.45622 21.3442 4.60203 18.69C5.5788 18.8784 6.58525 18.8397 7.54396 18.5777C4.50396 17.9636 2.31687 15.2926 2.31687 12.1906V12.1081C3.22267 12.6126 4.23687 12.8926 5.27429 12.9236C2.41106 11.01 1.52848 7.20097 3.25751 4.22291C6.5659 8.29387 11.4472 10.7687 16.6872 11.0306C16.162 8.76742 16.8794 6.39581 18.5723 4.80484C21.1969 2.33774 25.3246 2.4642 27.7917 5.08742C29.2511 4.79968 30.6498 4.2642 31.9298 3.50549C31.4433 5.01387 30.4253 6.29516 29.0653 7.10936C30.3569 6.9571 31.6188 6.61129 32.8072 6.08355C31.9323 7.39452 30.8304 8.53645 29.5556 9.45904Z" fill="white"/>
</g>
<defs>
<clipPath id="clip0_3470_10750">
<rect width="32" height="32" fill="white" transform="translate(0.773438 0.00195312)"/>
</clipPath>
</defs>
</svg>
