<svg width="48" height="56" viewBox="0 0 48 56" fill="none" xmlns="http://www.w3.org/2000/svg">
<g clip-path="url(#clip0_4228_267)">
<path d="M23.806 0.659668L47.6119 14.4041V41.8928L23.806 55.637L0 41.8928V14.4041L23.806 0.659668Z" fill="white"/>
<path d="M39.957 41.9002L43.8102 39.6724V23.198L39.957 25.4258V41.9002Z" fill="black"/>
<path d="M37.107 43.5481L33.3066 45.7454V29.271L37.107 27.0737V43.5481Z" fill="black"/>
<path d="M26.6562 49.5907V33.1162L30.4566 30.9189V47.3934L26.6562 49.5907Z" fill="black"/>
<path fill-rule="evenodd" clip-rule="evenodd" d="M23.806 0.659668L47.6119 14.4041V41.8928L23.806 55.637L0 41.8928V14.4041L23.806 0.659668ZM23.8059 1.76811L46.6616 14.9639H35.6597L23.8059 28.1597L0.950101 14.9639L23.8059 1.76811ZM0.950096 18.2364L0.950101 41.3554L23.8059 54.5512L46.6616 41.3554V18.2364L23.8059 31.4322L0.950096 18.2364Z" fill="black"/>
</g>
<defs>
<clipPath id="clip0_4228_267">
<rect width="47.6631" height="55" fill="white" transform="translate(0 0.659668)"/>
</clipPath>
</defs>
</svg>
