<svg fill="none" height="55" viewBox="0 0 48 55" width="48" xmlns="http://www.w3.org/2000/svg" xmlns:xlink="http://www.w3.org/1999/xlink"><clipPath id="a"><path d="m0 0h47.6631v55h-47.6631z"/></clipPath><g clip-path="url(#a)"><path d="m23.806 0 23.8059 13.7444v27.4888l-23.8059 13.7441-23.806-13.7441v-27.4888z" fill="#fff"/><g fill="#000"><path d="m39.9575 41.2407 3.8532-2.2277v-16.4744l-3.8532 2.2277z"/><path d="m37.1073 42.889-3.8004 2.1972v-16.4744l3.8004-2.1972z"/><path d="m26.6562 48.931v-16.4745l3.8004-2.1972v16.4744z"/><path clip-rule="evenodd" d="m23.806 0 23.8059 13.7444v27.4888l-23.8059 13.7441-23.806-13.7441v-27.4888zm-.0001 1.10845 22.8557 13.19575h-11.0019l-11.8538 13.1958-22.855799-13.1958zm-22.855804 16.46835.000005 23.119 22.855799 13.1958 22.8557-13.1958v-23.119l-22.8557 13.1958z" fill-rule="evenodd"/></g></g></svg>