<svg fill="none" height="24" viewBox="0 0 24 24" width="24" xmlns="http://www.w3.org/2000/svg" xmlns:xlink="http://www.w3.org/1999/xlink"><clipPath id="a"><path d="m0 0h24v24h-24z"/></clipPath><g clip-path="url(#a)"><path d="m21.5864 7.0927c.0145.21.0145.42.0145.63194 0 6.45776-4.9162 13.90546-13.90551 13.90546v-.0038c-2.65548.0038-5.2558-.7568-7.491288-2.191.386129.0464.774193.0697 1.163228.0706 2.20064.002 4.33838-.7364 6.06967-2.0961-2.09129-.0397-3.92516-1.4032-4.5658-3.3939.73258.1413 1.48742.1123 2.20645-.0842-2.28-.4606-3.92032-2.4638-3.92032-4.79029v-.06193c.67935.37839 1.44.58839 2.21806.61161-2.14742-1.43516-2.809353-4.29193-1.51258-6.52548 2.48129 3.05322 6.14226 4.90935 10.07229 5.1058-.3939-1.69742.1442-3.47613 1.4138-4.66935 1.9684-1.85032 5.0642-1.75548 6.9146.21193 1.0945-.2158 2.1435-.61741 3.1035-1.18645-.3648 1.13129-1.1284 2.09226-2.1484 2.70291.9687-.1142 1.9152-.37355 2.8065-.76936-.6562.98323-1.4826 1.83968-2.4387 2.53161z" fill="#000"/></g></svg>