<svg fill="none" height="25" viewBox="0 0 25 25" width="25" xmlns="http://www.w3.org/2000/svg" xmlns:xlink="http://www.w3.org/1999/xlink"><clipPath id="a"><path d="m.751953.5h24v24h-24z"/></clipPath><g clip-path="url(#a)"><path d="m22.3393 7.59257c.0145.21.0145.42.0145.63193 0 6.4577-4.9161 13.9055-13.90548 13.9055v-.0039c-2.65548.0039-5.2558-.7568-7.491289-2.191.386129.0465.774189.0697 1.163229.0707 2.20064.0019 4.33838-.7365 6.06967-2.0961-2.09129-.0397-3.92516-1.4033-4.5658-3.3939.73258.1413 1.48742.1122 2.20645-.0842-2.28-.4606-3.92032-2.4639-3.92032-4.79032v-.06194c.67935.37839 1.44.58836 2.21806.61166-2.14742-1.43521-2.80935-4.29198-1.51258-6.52553 2.48129 3.05323 6.14226 4.90935 10.07226 5.10581-.3939-1.69742.1442-3.47613 1.4139-4.66936 1.9684-1.85032 5.0642-1.75548 6.9145.21194 1.0945-.21581 2.1435-.61742 3.1035-1.18645-.3648 1.13129-1.1284 2.09225-2.1484 2.7029.9688-.11419 1.9152-.37355 2.8065-.76936-.6561.98323-1.4826 1.83968-2.4387 2.53162z" fill="#000"/></g></svg>