<svg fill="none" height="55" viewBox="0 0 49 55" width="49" xmlns="http://www.w3.org/2000/svg" xmlns:xlink="http://www.w3.org/1999/xlink"><clipPath id="a"><path d="m.773438.001953h47.6631v55h-47.6631z"/></clipPath><g clip-path="url(#a)"><path d="m24.5794.00195312 23.806 13.74444688v27.4887l-23.806 13.7441-23.805962-13.7441v-27.4887z" fill="#fff"/><g fill="#000"><path d="m40.7305 41.2422 3.8531-2.2278v-16.4744l-3.8531 2.2278z"/><path d="m37.8805 42.8904-3.8004 2.1973v-16.4744l3.8004-2.1973z"/><path d="m27.4297 48.9334v-16.4744l3.8003-2.1973v16.4745z"/><path clip-rule="evenodd" d="m24.5794.00195312 23.806 13.74444688v27.4887l-23.806 13.7441-23.805962-13.7441v-27.4887zm-.0001 1.10844688 22.8557 13.1958h-11.0018l-11.8539 13.1958-22.85576-13.1958zm-22.85577 16.4683.00001 23.119 22.85576 13.1958 22.8557-13.1958v-23.119l-22.8557 13.1958z" fill-rule="evenodd"/></g></g></svg>