<svg width="24" height="25" viewBox="0 0 24 25" fill="none" xmlns="http://www.w3.org/2000/svg">
<g clip-path="url(#clip0_3422_4796)">
<path d="M21.5873 7.59501C21.6019 7.80501 21.6019 8.01501 21.6019 8.22694C21.6019 14.6847 16.6857 22.1324 7.69637 22.1324V22.1286C5.04088 22.1324 2.44056 21.3718 0.205078 19.9376C0.591207 19.984 0.979272 20.0073 1.3683 20.0082C3.56895 20.0102 5.70669 19.2718 7.43798 17.9121C5.34669 17.8724 3.51282 16.5089 2.87217 14.5182C3.60476 14.6595 4.35959 14.6305 5.07863 14.434C2.79863 13.9734 1.1583 11.9702 1.1583 9.64372V9.58178C1.83766 9.96017 2.5983 10.1702 3.37637 10.1934C1.22895 8.75823 0.567014 5.90146 1.86379 3.66791C4.34508 6.72114 8.00605 8.57727 11.936 8.77372C11.5422 7.0763 12.0802 5.29759 13.3499 4.10436C15.3183 2.25404 18.4141 2.34888 20.2644 4.3163C21.3589 4.10049 22.408 3.69888 23.368 3.12985C23.0031 4.26114 22.2396 5.22211 21.2196 5.83275C22.1883 5.71856 23.1348 5.4592 24.026 5.0634C23.3699 6.04662 22.5435 6.90307 21.5873 7.59501Z" fill="black"/>
</g>
<defs>
<clipPath id="clip0_3422_4796">
<rect width="24" height="24" fill="white" transform="translate(0 0.501953)"/>
</clipPath>
</defs>
</svg>
