<svg width="24" height="25" viewBox="0 0 24 25" fill="none" xmlns="http://www.w3.org/2000/svg">
<g clip-path="url(#clip0_3422_4304)">
<path fill-rule="evenodd" clip-rule="evenodd" d="M11.9633 0.499023C5.3578 0.499023 0 5.85682 0 12.4623C0 17.7467 3.44954 22.2238 8.14679 23.8385C8.73394 23.9119 8.95413 23.5449 8.95413 23.2513C8.95413 22.9577 8.95413 22.2238 8.95413 21.1963C5.65138 21.9302 4.91743 19.5816 4.91743 19.5816C4.40367 18.1871 3.59633 17.8201 3.59633 17.8201C2.49541 17.0862 3.66972 17.0862 3.66972 17.0862C4.84404 17.1596 5.50459 18.3339 5.50459 18.3339C6.6055 20.1687 8.29358 19.655 8.95413 19.3614C9.02752 18.5541 9.3945 18.0403 9.68807 17.7467C7.04587 17.4532 4.25688 16.4256 4.25688 11.8018C4.25688 10.4807 4.69725 9.45315 5.50459 8.57242C5.43119 8.35223 4.99083 7.10453 5.65138 5.48985C5.65138 5.48985 6.6789 5.19627 8.95413 6.73756C9.90826 6.44398 10.9358 6.37058 11.9633 6.37058C12.9908 6.37058 14.0183 6.51737 14.9725 6.73756C17.2477 5.19627 18.2752 5.48985 18.2752 5.48985C18.9358 7.10453 18.4954 8.35223 18.422 8.64581C19.156 9.45315 19.6697 10.5541 19.6697 11.8752C19.6697 16.499 16.8807 17.4532 14.2385 17.7467C14.6789 18.1137 15.0459 18.8476 15.0459 19.9486C15.0459 21.5632 15.0459 22.8109 15.0459 23.2513C15.0459 23.5449 15.2661 23.9119 15.8532 23.8385C20.6239 22.2238 24 17.7467 24 12.4623C23.9266 5.85682 18.5688 0.499023 11.9633 0.499023Z" fill="black"/>
</g>
<defs>
<clipPath id="clip0_3422_4304">
<rect width="24" height="24" fill="white" transform="translate(0 0.5)"/>
</clipPath>
</defs>
</svg>
