<svg fill="none" height="25" viewBox="0 0 25 25" width="25" xmlns="http://www.w3.org/2000/svg" xmlns:xlink="http://www.w3.org/1999/xlink"><clipPath id="a"><path d="m.773438.501953h24v24h-24z"/></clipPath><g clip-path="url(#a)"><path d="m22.3598 7.59452c.0145.21.0145.42.0145.63194 0 6.45774-4.9161 13.90544-13.90547 13.90544v-.0038c-2.65548.0038-5.25581-.7568-7.491291-2.191.386131.0465.774191.0697 1.163221.0706 2.20065.002 4.33839-.7364 6.06968-2.0961-2.09129-.0397-3.92516-1.4032-4.5658-3.3939.73258.1413 1.48742.1123 2.20645-.0841-2.28-.4607-3.92033-2.4639-3.92033-4.79037v-.06194c.67936.37839 1.44.58841 2.21807.61161-2.14742-1.43515-2.80936-4.29193-1.51258-6.52548 2.48129 3.05323 6.14226 4.90936 10.07225 5.10581-.3939-1.69742.1442-3.47613 1.4139-4.66936 1.9684-1.85032 5.0642-1.75548 6.9145.21194 1.0945-.21581 2.1435-.61742 3.1035-1.18645-.3648 1.13129-1.1283 2.09226-2.1483 2.7029.9687-.11419 1.9151-.37355 2.8064-.76935-.6561.98322-1.4826 1.83967-2.4387 2.53161z" fill="#000"/></g></svg>