<svg fill="none" height="33" viewBox="0 0 29 33" width="29" xmlns="http://www.w3.org/2000/svg" xmlns:xlink="http://www.w3.org/1999/xlink"><clipPath id="a"><path d="m0 0h28.5979v33h-28.5979z"/></clipPath><g clip-path="url(#a)"><path d="m14.2836 0 14.2836 8.24664v16.49326l-14.2836 8.2465-14.2836-8.2465v-16.49326z" fill="#fff"/><g fill="#000"><path d="m23.9746 24.7442 2.3119-1.3366v-9.8847l-2.3119 1.3367z"/><path d="m22.2641 25.7333-2.2802 1.3183v-9.8846l2.2802-1.3184z"/><path d="m15.9937 29.3588v-9.8847l2.2802-1.3183v9.8846z"/><path clip-rule="evenodd" d="m14.2836 0 14.2836 8.24664v16.49326l-14.2836 8.2465-14.2836-8.2465v-16.49326zm-.0001.665067 13.7135 7.917463h-6.6012l-7.1123 7.91747-13.713439-7.91747zm-13.713442 9.881033.000003 13.8714 13.713439 7.9174 13.7135-7.9174v-13.8714l-13.7135 7.9174z" fill-rule="evenodd"/></g></g></svg>