<svg width="24" height="25" viewBox="0 0 24 25" fill="none" xmlns="http://www.w3.org/2000/svg">
<g clip-path="url(#clip0_3527_1359)">
<path fill-rule="evenodd" clip-rule="evenodd" d="M11.9633 0.501633C5.3578 0.501633 0 5.85943 0 12.4649C0 17.7493 3.44954 22.2264 8.14679 23.8411C8.73394 23.9145 8.95413 23.5475 8.95413 23.2539C8.95413 22.9603 8.95413 22.2264 8.95413 21.1989C5.65138 21.9328 4.91743 19.5842 4.91743 19.5842C4.40367 18.1897 3.59633 17.8227 3.59633 17.8227C2.49541 17.0888 3.66972 17.0888 3.66972 17.0888C4.84404 17.1622 5.50459 18.3365 5.50459 18.3365C6.6055 20.1714 8.29358 19.6576 8.95413 19.364C9.02752 18.5567 9.3945 18.0429 9.68807 17.7493C7.04587 17.4558 4.25688 16.4282 4.25688 11.8044C4.25688 10.4833 4.69725 9.45576 5.50459 8.57503C5.43119 8.35484 4.99083 7.10714 5.65138 5.49246C5.65138 5.49246 6.6789 5.19888 8.95413 6.74016C9.90826 6.44659 10.9358 6.37319 11.9633 6.37319C12.9908 6.37319 14.0183 6.51998 14.9725 6.74016C17.2477 5.19888 18.2752 5.49246 18.2752 5.49246C18.9358 7.10714 18.4954 8.35484 18.422 8.64842C19.156 9.45576 19.6697 10.5567 19.6697 11.8778C19.6697 16.5016 16.8807 17.4558 14.2385 17.7493C14.6789 18.1163 15.0459 18.8503 15.0459 19.9512C15.0459 21.5659 15.0459 22.8136 15.0459 23.2539C15.0459 23.5475 15.2661 23.9145 15.8532 23.8411C20.6239 22.2264 24 17.7493 24 12.4649C23.9266 5.85943 18.5688 0.501633 11.9633 0.501633Z" fill="black"/>
</g>
<defs>
<clipPath id="clip0_3527_1359">
<rect width="24" height="24" fill="white" transform="translate(0 0.501953)"/>
</clipPath>
</defs>
</svg>
