<svg width="29" height="33" viewBox="0 0 29 33" fill="none" xmlns="http://www.w3.org/2000/svg">
<g clip-path="url(#clip0_4228_492)">
<path d="M14.2836 0L28.5672 8.24664V24.7399L14.2836 32.9864L0 24.7399V8.24664L14.2836 0Z" fill="white"/>
<path d="M23.9746 24.7442L26.2865 23.4076V13.5229L23.9746 14.8596V24.7442Z" fill="black"/>
<path d="M22.2644 25.7333L19.9841 27.0516V17.167L22.2644 15.8486V25.7333Z" fill="black"/>
<path d="M15.9937 29.3588V19.4741L18.2739 18.1558V28.0404L15.9937 29.3588Z" fill="black"/>
<path fill-rule="evenodd" clip-rule="evenodd" d="M14.2836 0L28.5672 8.24664V24.7399L14.2836 32.9864L0 24.7399V8.24664L14.2836 0ZM14.2835 0.665067L27.997 8.58253H21.3958L14.2835 16.5L0.570061 8.58253L14.2835 0.665067ZM0.570058 10.5461L0.570061 24.4175L14.2835 32.3349L27.997 24.4175V10.5461L14.2835 18.4635L0.570058 10.5461Z" fill="black"/>
</g>
<defs>
<clipPath id="clip0_4228_492">
<rect width="28.5979" height="33" fill="white"/>
</clipPath>
</defs>
</svg>
