<svg width="24" height="25" viewBox="0 0 24 25" fill="none" xmlns="http://www.w3.org/2000/svg">
<g clip-path="url(#clip0_3527_3400)">
<path d="M21.5864 7.59271C21.6009 7.80271 21.6009 8.01271 21.6009 8.22464C21.6009 14.6824 16.6847 22.1301 7.69539 22.1301V22.1263C5.03991 22.1301 2.43959 21.3695 0.204102 19.9353C0.590231 19.9817 0.978295 20.005 1.36733 20.0059C3.56797 20.0079 5.70571 19.2695 7.437 17.9098C5.34571 17.8701 3.51184 16.5066 2.8712 14.5159C3.60378 14.6572 4.35862 14.6282 5.07765 14.4317C2.79765 13.9711 1.15733 11.9679 1.15733 9.64142V9.57948C1.83668 9.95787 2.59733 10.1679 3.37539 10.1911C1.22797 8.75593 0.566037 5.89916 1.86281 3.66561C4.3441 6.71884 8.00507 8.57497 11.9351 8.77142C11.5412 7.074 12.0793 5.29529 13.3489 4.10206C15.3173 2.25174 18.4131 2.34658 20.2635 4.314C21.358 4.09819 22.407 3.69658 23.367 3.12755C23.0022 4.25884 22.2386 5.21981 21.2186 5.83045C22.1873 5.71626 23.1338 5.4569 24.0251 5.06109C23.3689 6.04432 22.5425 6.90077 21.5864 7.59271Z" fill="black"/>
</g>
<defs>
<clipPath id="clip0_3527_3400">
<rect width="24" height="24" fill="white" transform="translate(0 0.5)"/>
</clipPath>
</defs>
</svg>
