<svg width="48" height="56" viewBox="0 0 48 56" fill="none" xmlns="http://www.w3.org/2000/svg">
<g clip-path="url(#clip0_3422_4921)">
<path d="M23.806 0.472656L47.6119 14.2171V41.7058L23.806 55.45L0 41.7058V14.2171L23.806 0.472656Z" fill="white"/>
<path d="M39.9575 41.7129L43.8107 39.4851V23.0107L39.9575 25.2385V41.7129Z" fill="black"/>
<path d="M37.107 43.3611L33.3066 45.5584V29.084L37.107 26.8867V43.3611Z" fill="black"/>
<path d="M26.6562 49.4041V32.9297L30.4566 30.7324V47.2069L26.6562 49.4041Z" fill="black"/>
<path fill-rule="evenodd" clip-rule="evenodd" d="M23.806 0.472656L47.6119 14.2171V41.7058L23.806 55.45L0 41.7058V14.2171L23.806 0.472656ZM23.8059 1.5811L46.6616 14.7769H35.6597L23.8059 27.9727L0.950101 14.7769L23.8059 1.5811ZM0.950096 18.0494L0.950101 41.1684L23.8059 54.3642L46.6616 41.1684V18.0494L23.8059 31.2452L0.950096 18.0494Z" fill="black"/>
</g>
<defs>
<clipPath id="clip0_3422_4921">
<rect width="47.6631" height="55" fill="white" transform="translate(0 0.472656)"/>
</clipPath>
</defs>
</svg>
