<svg width="24" height="24" viewBox="0 0 24 24" fill="none" xmlns="http://www.w3.org/2000/svg">
<g clip-path="url(#clip0_3482_26669)">
<path fill-rule="evenodd" clip-rule="evenodd" d="M11.9633 -0.000305176C5.3578 -0.000305176 0 5.35749 0 11.963C0 17.2474 3.44954 21.7245 8.14679 23.3391C8.73394 23.4125 8.95413 23.0456 8.95413 22.752C8.95413 22.4584 8.95413 21.7245 8.95413 20.6969C5.65138 21.4309 4.91743 19.0823 4.91743 19.0823C4.40367 17.6878 3.59633 17.3208 3.59633 17.3208C2.49541 16.5869 3.66972 16.5869 3.66972 16.5869C4.84404 16.6602 5.50459 17.8346 5.50459 17.8346C6.6055 19.6694 8.29358 19.1557 8.95413 18.8621C9.02752 18.0547 9.3945 17.541 9.68807 17.2474C7.04587 16.9538 4.25688 15.9263 4.25688 11.3024C4.25688 9.98135 4.69725 8.95382 5.50459 8.07309C5.43119 7.85291 4.99083 6.6052 5.65138 4.99052C5.65138 4.99052 6.6789 4.69694 8.95413 6.23823C9.90826 5.94465 10.9358 5.87125 11.9633 5.87125C12.9908 5.87125 14.0183 6.01804 14.9725 6.23823C17.2477 4.69694 18.2752 4.99052 18.2752 4.99052C18.9358 6.6052 18.4954 7.85291 18.422 8.14648C19.156 8.95382 19.6697 10.0547 19.6697 11.3758C19.6697 15.9997 16.8807 16.9538 14.2385 17.2474C14.6789 17.6144 15.0459 18.3483 15.0459 19.4492C15.0459 21.0639 15.0459 22.3116 15.0459 22.752C15.0459 23.0456 15.2661 23.4125 15.8532 23.3391C20.6239 21.7245 24 17.2474 24 11.963C23.9266 5.35749 18.5688 -0.000305176 11.9633 -0.000305176Z" fill="black"/>
</g>
<defs>
<clipPath id="clip0_3482_26669">
<rect width="24" height="24" fill="white"/>
</clipPath>
</defs>
</svg>
