<svg width="29" height="33" viewBox="0 0 29 33" fill="none" xmlns="http://www.w3.org/2000/svg">
<g clip-path="url(#clip0_4228_8663)">
<path d="M14.2836 0L28.5672 8.24664V24.7399L14.2836 32.9864L0 24.7399V8.24664L14.2836 0Z" fill="white"/>
<path d="M23.9746 24.7443L26.2865 23.4077V13.523L23.9746 14.8597V24.7443Z" fill="black"/>
<path d="M22.2641 25.7331L19.9839 27.0515V17.1668L22.2641 15.8485V25.7331Z" fill="black"/>
<path d="M15.9937 29.3586V19.474L18.2739 18.1556V28.0403L15.9937 29.3586Z" fill="black"/>
<path fill-rule="evenodd" clip-rule="evenodd" d="M14.2836 0L28.5672 8.24664V24.7399L14.2836 32.9864L0 24.7399V8.24664L14.2836 0ZM14.2835 0.665067L27.997 8.58253H21.3958L14.2835 16.5L0.570061 8.58253L14.2835 0.665067ZM0.570058 10.5461L0.570061 24.4175L14.2835 32.3349L27.997 24.4175V10.5461L14.2835 18.4635L0.570058 10.5461Z" fill="black"/>
</g>
<defs>
<clipPath id="clip0_4228_8663">
<rect width="28.5979" height="33" fill="white"/>
</clipPath>
</defs>
</svg>
