<svg fill="none" height="32" viewBox="0 0 33 32" width="33" xmlns="http://www.w3.org/2000/svg" xmlns:xlink="http://www.w3.org/1999/xlink"><clipPath id="a"><path d="m.751953 0h32v32h-32z"/></clipPath><g clip-path="url(#a)"><path d="m29.5351 9.45659c.0193.28.0193.56001.0193.84261 0 8.6103-6.5548 18.5406-18.5406 18.5406v-.0051c-3.54067.0051-7.00776-1.0091-9.98841-2.9213.51484.0619 1.03226.0929 1.55097.0942 2.93419.0025 5.78451-.982 8.09294-2.7949-2.78843-.0529-5.23359-1.8709-6.08778-4.5251.97677.1883 1.98323.1496 2.94194-.1123-3.04-.6142-5.2271-3.2852-5.2271-6.3871v-.0826c.9058.5045 1.92.7845 2.95742.8155-2.86323-1.9135-3.74581-5.72257-2.01678-8.70064 3.30839 4.07097 8.1897 6.54584 13.4297 6.80774-.5252-2.26322.1922-4.63483 1.8851-6.2258 2.6246-2.4671 6.7523-2.34065 9.2194.28258 1.4594-.28774 2.8581-.82323 4.1381-1.58194-.4865 1.50839-1.5046 2.78968-2.8646 3.60388 1.2917-.15226 2.5536-.49807 3.742-1.02581-.8749 1.31097-1.9768 2.4529-3.2516 3.37548z" fill="#fff"/></g></svg>