<svg fill="none" height="99" viewBox="0 0 86 99" width="86" xmlns="http://www.w3.org/2000/svg" xmlns:xlink="http://www.w3.org/1999/xlink"><clipPath id="a"><path d="m0 0h85.7937v99h-85.7937z"/></clipPath><g clip-path="url(#a)"><path d="m42.8508 0 42.8507 24.7399v49.4798l-42.8507 24.7394-42.8508-24.7394v-49.4798z" fill="#fff"/><g fill="#000"><path d="m71.9235 74.233 6.9357-4.01v-29.6539l-6.9357 4.01z"/><path d="m66.793 77.1994-6.8407 3.9551v-29.654l6.8407-3.955z"/><path d="m47.9812 88.0759v-29.654l6.8406-3.9551v29.654z"/><path clip-rule="evenodd" d="m42.8508 0 42.8507 24.7399v49.4798l-42.8507 24.7394-42.8508-24.7394v-49.4798zm-.0002 1.9952 41.1403 23.7524h-19.8034l-21.3369 23.7524-41.14042-23.7524zm-41.14043 29.643.00001 41.6142 41.14042 23.7524 41.1403-23.7524v-41.6142l-41.1403 23.7524z" fill-rule="evenodd"/></g></g></svg>