<svg width="32" height="32" viewBox="0 0 32 32" fill="none" xmlns="http://www.w3.org/2000/svg">
<g clip-path="url(#clip0_3399_6420)">
<path d="M28.7819 9.45708C28.8012 9.73708 28.8012 10.0171 28.8012 10.2997C28.8012 18.91 22.2464 28.8403 10.2606 28.8403V28.8351C6.71996 28.8403 3.25286 27.8261 0.272217 25.9139C0.787055 25.9758 1.30447 26.0068 1.82318 26.0081C4.75738 26.0106 7.6077 25.0261 9.91609 23.2132C7.1277 23.1603 4.68254 21.3422 3.82835 18.6881C4.80512 18.8764 5.81157 18.8377 6.77028 18.5758C3.73028 17.9616 1.54318 15.2906 1.54318 12.1887V12.1061C2.44899 12.6106 3.46318 12.8906 4.5006 12.9216C1.63738 11.008 0.754797 7.19902 2.48383 4.22095C5.79222 8.29192 10.6735 10.7668 15.9135 11.0287C15.3883 8.76547 16.1058 6.39386 17.7987 4.80289C20.4232 2.33579 24.5509 2.46224 27.018 5.08547C28.4774 4.79773 29.8761 4.26224 31.1561 3.50353C30.6696 5.01192 29.6516 6.29321 28.2916 7.1074C29.5832 6.95515 30.8451 6.60934 32.0335 6.0816C31.1587 7.39257 30.0567 8.5345 28.7819 9.45708Z" fill="white"/>
</g>
<defs>
<clipPath id="clip0_3399_6420">
<rect width="32" height="32" fill="white"/>
</clipPath>
</defs>
</svg>
