<svg width="24" height="25" viewBox="0 0 24 25" fill="none" xmlns="http://www.w3.org/2000/svg">
<g clip-path="url(#clip0_3473_4653)">
<path fill-rule="evenodd" clip-rule="evenodd" d="M11.9633 0.499512C5.3578 0.499512 0 5.85731 0 12.4628C0 17.7472 3.44954 22.2243 8.14679 23.839C8.73394 23.9124 8.95413 23.5454 8.95413 23.2518C8.95413 22.9582 8.95413 22.2243 8.95413 21.1968C5.65138 21.9307 4.91743 19.5821 4.91743 19.5821C4.40367 18.1876 3.59633 17.8206 3.59633 17.8206C2.49541 17.0867 3.66972 17.0867 3.66972 17.0867C4.84404 17.1601 5.50459 18.3344 5.50459 18.3344C6.6055 20.1692 8.29358 19.6555 8.95413 19.3619C9.02752 18.5546 9.3945 18.0408 9.68807 17.7472C7.04587 17.4536 4.25688 16.4261 4.25688 11.8023C4.25688 10.4812 4.69725 9.45364 5.50459 8.57291C5.43119 8.35272 4.99083 7.10502 5.65138 5.49034C5.65138 5.49034 6.6789 5.19676 8.95413 6.73804C9.90826 6.44447 10.9358 6.37107 11.9633 6.37107C12.9908 6.37107 14.0183 6.51786 14.9725 6.73804C17.2477 5.19676 18.2752 5.49034 18.2752 5.49034C18.9358 7.10502 18.4954 8.35272 18.422 8.6463C19.156 9.45364 19.6697 10.5546 19.6697 11.8757C19.6697 16.4995 16.8807 17.4536 14.2385 17.7472C14.6789 18.1142 15.0459 18.8481 15.0459 19.9491C15.0459 21.5637 15.0459 22.8114 15.0459 23.2518C15.0459 23.5454 15.2661 23.9124 15.8532 23.839C20.6239 22.2243 24 17.7472 24 12.4628C23.9266 5.85731 18.5688 0.499512 11.9633 0.499512Z" fill="black"/>
</g>
<defs>
<clipPath id="clip0_3473_4653">
<rect width="24" height="24" fill="white" transform="translate(0 0.5)"/>
</clipPath>
</defs>
</svg>
