<svg fill="none" height="32" viewBox="0 0 32 32" width="32" xmlns="http://www.w3.org/2000/svg" xmlns:xlink="http://www.w3.org/1999/xlink"><clipPath id="a"><path d="m0 0h32v32h-32z"/></clipPath><g clip-path="url(#a)"><path d="m28.7831 9.45708c.0194.28.0194.56002.0194.84262 0 8.6103-6.5549 18.5406-18.5407 18.5406v-.0052c-3.54062.0052-7.00772-1.009-9.988362-2.9212.514838.0619 1.032262.0929 1.550972.0942 2.93419.0025 5.78451-.982 8.0929-2.7949-2.78839-.0529-5.23355-1.871-6.08774-4.5251.97677.1883 1.98322.1496 2.94193-.1123-3.04-.6142-5.22709-3.2852-5.22709-6.3871v-.0826c.9058.5045 1.92.7845 2.95741.8155-2.86322-1.9136-3.745802-5.72258-2.01677-8.70065 3.30839 4.07097 8.18965 6.54585 13.42965 6.80775-.5251-2.26323.1923-4.63484 1.8852-6.22581 2.6245-2.4671 6.7522-2.34065 9.2193.28258 1.4594-.28774 2.8581-.82323 4.1381-1.58194-.4864 1.50839-1.5045 2.78968-2.8645 3.60387 1.2916-.15225 2.5535-.49806 3.7419-1.0258-.8748 1.31097-1.9767 2.4529-3.2516 3.37548z" fill="#fff"/></g></svg>