<svg fill="none" height="24" viewBox="0 0 25 24" width="25" xmlns="http://www.w3.org/2000/svg" xmlns:xlink="http://www.w3.org/1999/xlink"><clipPath id="a"><path d="m.756348 0h24v24h-24z"/></clipPath><g clip-path="url(#a)"><path clip-rule="evenodd" d="m12.7197 0c-6.60555 0-11.963352 5.3578-11.963352 11.9633 0 5.2844 3.449542 9.7615 8.146792 11.3761.58715.0734.80734-.2935.80734-.5871s0-1.0275 0-2.0551c-3.30276.734-4.0367-1.6146-4.0367-1.6146-.51376-1.3945-1.3211-1.7615-1.3211-1.7615-1.10092-.7339.07339-.7339.07339-.7339 1.17431.0734 1.83486 1.2477 1.83486 1.2477 1.10092 1.8348 2.789 1.3211 3.44955 1.0275.07339-.8074.44032-1.3211.73392-1.6147-2.64218-.2936-5.43117-1.3211-5.43117-5.9449 0-1.32115.44037-2.34867 1.2477-3.22941-.07339-.22018-.51376-1.46789.14679-3.08256 0 0 1.02753-.29358 3.30276 1.2477.95412-.29358 1.98162-.36697 3.00922-.36697 1.0275 0 2.055.14679 3.0091.36697 2.2753-1.54128 3.3028-1.2477 3.3028-1.2477.6605 1.61467.2202 2.86238.1468 3.15596.7339.80734 1.2477 1.90821 1.2477 3.22931 0 4.6239-2.789 5.578-5.4312 5.8716.4403.367.8073 1.1009.8073 2.2018v3.3028c0 .2936.2202.6605.8074.5871 4.7706-1.6146 8.1467-6.0917 8.1467-11.3761-.0733-6.6055-5.4311-11.9633-12.0366-11.9633z" fill="#000" fill-rule="evenodd"/></g></svg>