<svg fill="none" height="32" viewBox="0 0 32 32" width="32" xmlns="http://www.w3.org/2000/svg" xmlns:xlink="http://www.w3.org/1999/xlink"><clipPath id="a"><path d="m0 0h32v32h-32z"/></clipPath><g clip-path="url(#a)"><path d="m28.7816 9.45708c.0194.28.0194.56002.0194.84262 0 8.6103-6.5548 18.5406-18.5406 18.5406v-.0052c-3.54069.0052-7.00778-1.009-9.988427-2.9212.514838.0619 1.032257.0929 1.550967.0942 2.93419.0025 5.78452-.982 8.0929-2.7949-2.78838-.0529-5.23354-1.871-6.08774-4.5251.97678.1883 1.98323.1496 2.94194-.1123-3.04-.6142-5.2271-3.2852-5.2271-6.3871v-.0826c.90581.5045 1.92.7845 2.95742.8155-2.86323-1.9136-3.745807-5.72258-2.01677-8.70065 3.30838 4.07097 8.18971 6.54585 13.42971 6.80775-.5252-2.26323.1922-4.63484 1.8851-6.22581 2.6245-2.4671 6.7523-2.34065 9.2194.28258 1.4593-.28774 2.858-.82323 4.138-1.58194-.4864 1.50839-1.5045 2.78968-2.8645 3.60387 1.2916-.15225 2.5536-.49806 3.742-1.0258-.8749 1.31097-1.9768 2.4529-3.2517 3.37548z" fill="#fff"/></g></svg>