<svg width="25" height="25" viewBox="0 0 25 25" fill="none" xmlns="http://www.w3.org/2000/svg">
<g clip-path="url(#clip0_3473_3979)">
<path d="M22.3598 7.59452C22.3743 7.80452 22.3743 8.01452 22.3743 8.22646C22.3743 14.6842 17.4582 22.1319 8.46883 22.1319V22.1281C5.81335 22.1319 3.21302 21.3713 0.977539 19.9371C1.36367 19.9836 1.75173 20.0068 2.14076 20.0077C4.34141 20.0097 6.47915 19.2713 8.21044 17.9116C6.11915 17.8719 4.28528 16.5084 3.64464 14.5177C4.37722 14.659 5.13206 14.63 5.85109 14.4336C3.57109 13.9729 1.93076 11.9697 1.93076 9.64323V9.58129C2.61012 9.95968 3.37076 10.1697 4.14883 10.1929C2.00141 8.75775 1.33947 5.90097 2.63625 3.66742C5.11754 6.72065 8.77851 8.57678 12.7085 8.77323C12.3146 7.07581 12.8527 5.2971 14.1224 4.10387C16.0908 2.25355 19.1866 2.34839 21.0369 4.31581C22.1314 4.1 23.1804 3.69839 24.1404 3.12936C23.7756 4.26065 23.0121 5.22162 21.9921 5.83226C22.9608 5.71807 23.9072 5.45871 24.7985 5.06291C24.1424 6.04613 23.3159 6.90258 22.3598 7.59452Z" fill="black"/>
</g>
<defs>
<clipPath id="clip0_3473_3979">
<rect width="24" height="24" fill="white" transform="translate(0.773438 0.501953)"/>
</clipPath>
</defs>
</svg>
