<svg fill="none" height="56" viewBox="0 0 48 56" width="48" xmlns="http://www.w3.org/2000/svg" xmlns:xlink="http://www.w3.org/1999/xlink"><clipPath id="a"><path d="m0 .779297h47.6631v55h-47.6631z"/></clipPath><g clip-path="url(#a)"><path d="m23.806.779297 23.8059 13.744403v27.4888l-23.8059 13.7441-23.806-13.7441v-27.4888z" fill="#fff"/><g fill="#000"><path d="m39.957 42.0195 3.8532-2.2277v-16.4744l-3.8532 2.2277z"/><path d="m37.107 43.6678-3.8004 2.1972v-16.4744l3.8004-2.1972z"/><path d="m26.6562 49.7108v-16.4745l3.8004-2.1972v16.4744z"/><path clip-rule="evenodd" d="m23.806.779297 23.8059 13.744403v27.4888l-23.8059 13.7441-23.806-13.7441v-27.4888zm-.0001 1.108443 22.8557 13.19576h-11.0019l-11.8538 13.1958-22.855799-13.1958zm-22.855804 16.46836.000005 23.119 22.855799 13.1957 22.8557-13.1957v-23.119l-22.8557 13.1957z" fill-rule="evenodd"/></g></g></svg>