<svg width="32" height="33" viewBox="0 0 32 33" fill="none" xmlns="http://www.w3.org/2000/svg">
<g clip-path="url(#clip0_4131_3097)">
<path fill-rule="evenodd" clip-rule="evenodd" d="M15.9511 0.124268C7.14373 0.124268 0 7.268 0 16.0753C0 23.1212 4.59939 29.0906 10.8624 31.2435C11.6453 31.3414 11.9388 30.8521 11.9388 30.4607C11.9388 30.0692 11.9388 29.0906 11.9388 27.7206C7.53517 28.6992 6.55657 25.5677 6.55657 25.5677C5.87156 23.7084 4.79511 23.2191 4.79511 23.2191C3.32722 22.2405 4.89297 22.2405 4.89297 22.2405C6.45872 22.3383 7.33945 23.9041 7.33945 23.9041C8.80734 26.3506 11.0581 25.6656 11.9388 25.2741C12.0367 24.1977 12.526 23.5126 12.9174 23.1212C9.3945 22.7298 5.67584 21.3597 5.67584 15.1946C5.67584 13.4331 6.263 12.0631 7.33945 10.8888C7.24159 10.5952 6.65443 8.93161 7.53517 6.7787C7.53517 6.7787 8.9052 6.38726 11.9388 8.44231C13.211 8.05087 14.581 7.95301 15.9511 7.95301C17.3211 7.95301 18.6911 8.14873 19.9633 8.44231C22.9969 6.38726 24.367 6.7787 24.367 6.7787C25.2477 8.93161 24.6605 10.5952 24.5627 10.9867C25.5413 12.0631 26.2263 13.531 26.2263 15.2925C26.2263 21.4576 22.5076 22.7298 18.9847 23.1212C19.5719 23.6105 20.0612 24.5891 20.0612 26.057C20.0612 28.2099 20.0612 29.8735 20.0612 30.4607C20.0612 30.8521 20.3547 31.3414 21.1376 31.2435C27.4985 29.0906 32 23.1212 32 16.0753C31.9021 7.268 24.7584 0.124268 15.9511 0.124268Z" fill="black"/>
</g>
<defs>
<clipPath id="clip0_4131_3097">
<rect width="32" height="32" fill="white" transform="translate(0 0.124268)"/>
</clipPath>
</defs>
</svg>
