<svg fill="none" height="55" viewBox="0 0 49 55" width="49" xmlns="http://www.w3.org/2000/svg" xmlns:xlink="http://www.w3.org/1999/xlink"><clipPath id="a"><path d="m.751953 0h47.6631v55h-47.6631z"/></clipPath><g clip-path="url(#a)"><path d="m24.5579 0 23.806 13.7444v27.4888l-23.806 13.7441-23.805947-13.7441v-27.4888z" fill="#fff"/><g fill="#000"><path d="m40.709 41.2407 3.8532-2.2277v-16.4744l-3.8532 2.2277z"/><path d="m37.859 42.889-3.8004 2.1972v-16.4744l3.8004-2.1972z"/><path d="m27.4082 48.931v-16.4745l3.8003-2.1972v16.4744z"/><path clip-rule="evenodd" d="m24.5579 0 23.806 13.7444v27.4888l-23.806 13.7441-23.805947-13.7441v-27.4888zm-.0001 1.10845 22.8557 13.19575h-11.0018l-11.8539 13.1958-22.85575-13.1958zm-22.85575 16.46835v23.119l22.85575 13.1958 22.8557-13.1958v-23.119l-22.8557 13.1958z" fill-rule="evenodd"/></g></g></svg>