<svg width="32" height="32" viewBox="0 0 32 32" fill="none" xmlns="http://www.w3.org/2000/svg">
<path d="M28.0703 18.7065C27.6973 20.6252 24.7299 22.7251 21.3219 23.132C19.5447 23.3441 17.795 23.539 15.9292 23.4534C12.8778 23.3136 10.47 22.7251 10.47 22.7251C10.47 23.0221 10.4884 23.305 10.525 23.5695C10.9217 26.5808 13.511 26.7612 15.9637 26.8454C18.4393 26.9301 20.6437 26.235 20.6437 26.235L20.7454 28.473C20.7454 28.473 19.0138 29.4029 15.9292 29.5739C14.2282 29.6674 12.1162 29.5311 9.65627 28.88C4.32114 27.4679 3.40362 21.7809 3.26322 16.0105C3.22043 14.2973 3.24681 12.6817 3.24681 11.3306C3.24681 5.43007 7.11283 3.70054 7.11283 3.70054C9.06218 2.8053 12.4071 2.42882 15.8845 2.40039H15.9699C19.4473 2.42882 22.7944 2.8053 24.7436 3.70054C24.7436 3.70054 28.6094 5.43007 28.6094 11.3306C28.6094 11.3306 28.6579 15.684 28.0703 18.7065Z" fill="#2B90D9"/>
<path d="M24.0494 11.7883V18.9328H21.2188V11.9983C21.2188 10.5365 20.6038 9.79452 19.3735 9.79452C18.0133 9.79452 17.3316 10.6747 17.3316 12.415V16.2107H14.5177V12.415C14.5177 10.6747 13.8359 9.79452 12.4756 9.79452C11.2454 9.79452 10.6303 10.5365 10.6303 11.9983V18.9328H7.7998V11.7883C7.7998 10.3281 8.17159 9.16775 8.91839 8.30928C9.68848 7.45082 10.697 7.01074 11.9489 7.01074C13.3974 7.01074 14.4943 7.56747 15.2196 8.68107L15.9246 9.86296L16.6298 8.68107C17.3549 7.56747 18.4518 7.01074 19.9004 7.01074C21.1522 7.01074 22.1607 7.45082 22.9309 8.30928C23.6776 9.16775 24.0494 10.3281 24.0494 11.7883Z" fill="white"/>
</svg>
