<svg width="32" height="32" viewBox="0 0 32 32" fill="none" xmlns="http://www.w3.org/2000/svg">
<path d="M28.0698 18.7065C27.6969 20.6252 24.7295 22.7251 21.3214 23.132C19.5442 23.3441 17.7945 23.539 15.9287 23.4534C12.8773 23.3136 10.4696 22.7251 10.4696 22.7251C10.4696 23.0221 10.4879 23.305 10.5245 23.5695C10.9212 26.5808 13.5105 26.7612 15.9633 26.8454C18.4388 26.9301 20.6432 26.235 20.6432 26.235L20.7449 28.473C20.7449 28.473 19.0133 29.4029 15.9287 29.5739C14.2277 29.6674 12.1157 29.5311 9.65578 28.88C4.32065 27.4679 3.40313 21.7809 3.26274 16.0105C3.21994 14.2973 3.24632 12.6817 3.24632 11.3306C3.24632 5.43007 7.11234 3.70054 7.11234 3.70054C9.06169 2.8053 12.4066 2.42882 15.884 2.40039H15.9694C19.4468 2.42882 22.7939 2.8053 24.7431 3.70054C24.7431 3.70054 28.609 5.43007 28.609 11.3306C28.609 11.3306 28.6575 15.684 28.0698 18.7065Z" fill="#2B90D9"/>
<path d="M24.0494 11.7883V18.9328H21.2188V11.9983C21.2188 10.5365 20.6038 9.79452 19.3735 9.79452C18.0133 9.79452 17.3316 10.6747 17.3316 12.415V16.2107H14.5177V12.415C14.5177 10.6747 13.8359 9.79452 12.4756 9.79452C11.2454 9.79452 10.6303 10.5365 10.6303 11.9983V18.9328H7.7998V11.7883C7.7998 10.3281 8.17159 9.16775 8.91839 8.30928C9.68848 7.45082 10.697 7.01074 11.9489 7.01074C13.3974 7.01074 14.4943 7.56747 15.2196 8.68107L15.9246 9.86296L16.6298 8.68107C17.3549 7.56747 18.4518 7.01074 19.9004 7.01074C21.1522 7.01074 22.1607 7.45082 22.9309 8.30928C23.6776 9.16775 24.0494 10.3281 24.0494 11.7883Z" fill="white"/>
</svg>
