<svg fill="none" height="25" viewBox="0 0 24 25" width="24" xmlns="http://www.w3.org/2000/svg" xmlns:xlink="http://www.w3.org/1999/xlink"><clipPath id="a"><path d="m0 .5h24v24h-24z"/></clipPath><g clip-path="url(#a)"><path clip-rule="evenodd" d="m15.2169.5-.3553.030096c-.7704.444446-1.5704.918404-2.3704 1.362854-.2666.14815-.5631.23669-.8594.38484-.3259.14815-.6522.32616-.9485.53357-.1481.11851-.2961.20717-.4739.20717-.2074 0-.38521.0301-.59261.0301-1.12593-.02963-2.22189-.05938-3.34782-.11864-.20741-.02963-.35591.0294-.50405.20718-.53334.62222-1.0367 1.2147-1.57003 1.8073-.94816 1.06667-1.9558 2.01506-3.0521 2.90395-.237038.17778-.355442.3853-.325812.71123.088887.77037.177895 1.54055.266782 2.28125.02963.4148.11829.83.20718 1.2448.05925.2963.02963.6811 0 .9774.00025.001.00032.0012.00059.0022.14815.4741.58762 4.0161.67651 4.3421.23704.9481.47407 1.9257.74074 2.8738.05926.1778.20776.3559.35591.5041.35555.3259.77002.5923 1.12558.9479.88889.8889 2.0786 1.7594 2.84897 2.7668.05926 0 .08889.0001.14815-.0295 1.06667-.4445 2.19226-.7701 3.34781-.9775.2963-.0592.5929-.178.6522-.5335.1778-.9185.3553-1.8073.5035-2.6962-.8297-.5037-1.6889-.5336-2.51855-.5336.11852.6222-.17743 1.1259-.38484 1.6296-.05926.0889-.23738.1481-.3559.1777-.23704.0593-.50371.0297-.74075.1187-.26666.0889-.44433.0298-.62211-.2072-.38518-.5036-.77025-.978-1.2147-1.4224-.26667-.2667-.17766-.9483-.17766-1.0075 2.7504-2.7829 3.30803-2.5584 6.69621-3.3183.2667.2074.5627.385.7998.6221.5037.4444 1.4522 1.7184 1.5411 1.8073.1777.1778.3596-.2651.2411-.028 4.034-6.2074 4.9745-7.5363 8.2328-11.67577-1.0666 0-2.1629-.0294-3.2592-.05903-.1283.01376-.3717.02989-.4445.02951-.4331-.05005-1.249-.101-1.555-.63386-.2074-.29629-2.4155-4.877363-2.7118-5.26255z" fill="#000" fill-rule="evenodd"/></g></svg>