<svg fill="none" height="25" viewBox="0 0 24 25" width="24" xmlns="http://www.w3.org/2000/svg" xmlns:xlink="http://www.w3.org/1999/xlink"><clipPath id="a"><path d="m0 .501953h24v24h-24z"/></clipPath><g clip-path="url(#a)"><path clip-rule="evenodd" d="m15.2169.501953-.3553.030096c-.7704.444446-1.5704.918411-2.3704 1.362851-.2666.14815-.5631.23669-.8594.38484-.3259.14815-.6522.32616-.9485.53357-.1481.11852-.2961.20718-.4739.20718-.2074 0-.38521.03009-.59261.03009-1.12593-.02963-2.22189-.05938-3.34782-.11863-.20741-.02964-.35591.0294-.50405.20717-.53334.62223-1.0367 1.21471-1.57003 1.8073-.94816 1.06667-1.9558 2.01506-3.0521 2.90395-.237038.17778-.355442.3853-.325812.71123.088887.77037.177895 1.5405.266782 2.2813.02963.4148.11829.8299.20718 1.2448.05925.2963.02963.6811 0 .9774.00025.001.00032.0011.00059.0022.14815.4741.58762 4.0161.67651 4.342.23704.9482.47407 1.9257.74074 2.8739.05926.1778.20776.3559.35591.504.35555.326.77002.5924 1.12558.948.88889.8888 2.0786 1.7593 2.84897 2.7668.05926 0 .08889.0001.14815-.0296 1.06667-.4444 2.19226-.77 3.34781-.9774.2963-.0593.5929-.178.6522-.5336.1778-.9185.3553-1.8073.5035-2.6962-.8297-.5037-1.6889-.5335-2.51855-.5335.11852.6222-.17743 1.1259-.38484 1.6296-.05926.0889-.23738.148-.3559.1777-.23704.0592-.50371.0297-.74075.1186-.26666.0889-.44433.0299-.62211-.2071-.38518-.5037-.77025-.978-1.2147-1.4224-.26667-.2667-.17766-.9483-.17766-1.0076 2.7504-2.7828 3.30803-2.5584 6.69621-3.3183.2667.2074.5627.3851.7998.6221.5037.4445 1.4522 1.7184 1.5411 1.8073.1777.1778.3596-.265.2411-.028 4.034-6.2074 4.9745-7.5362 8.2328-11.67572-1.0666 0-2.1629-.0294-3.2592-.05902-.1283.01376-.3717.02988-.4445.02951-.4331-.05006-1.249-.10101-1.555-.63386-.2074-.2963-2.4155-4.87737-2.7118-5.262557z" fill="#000" fill-rule="evenodd"/></g></svg>