<svg width="32" height="32" viewBox="0 0 32 32" fill="none" xmlns="http://www.w3.org/2000/svg">
<path d="M28.0702 18.7065C27.6973 20.6252 24.7299 22.7251 21.3218 23.132C19.5446 23.3441 17.7949 23.539 15.9291 23.4534C12.8777 23.3136 10.4699 22.7251 10.4699 22.7251C10.4699 23.0221 10.4883 23.305 10.5249 23.5695C10.9216 26.5808 13.5109 26.7612 15.9636 26.8454C18.4392 26.9301 20.6436 26.235 20.6436 26.235L20.7453 28.473C20.7453 28.473 19.0137 29.4029 15.9291 29.5739C14.2281 29.6674 12.1161 29.5311 9.65618 28.88C4.32105 27.4679 3.40352 21.7809 3.26313 16.0105C3.22034 14.2973 3.24672 12.6817 3.24672 11.3306C3.24672 5.43007 7.11274 3.70054 7.11274 3.70054C9.06209 2.8053 12.407 2.42882 15.8844 2.40039H15.9698C19.4472 2.42882 22.7943 2.8053 24.7435 3.70054C24.7435 3.70054 28.6094 5.43007 28.6094 11.3306C28.6094 11.3306 28.6579 15.684 28.0702 18.7065Z" fill="#2B90D9"/>
<path d="M24.0493 11.7883V18.9328H21.2188V11.9983C21.2188 10.5365 20.6037 9.79452 19.3735 9.79452C18.0132 9.79452 17.3315 10.6747 17.3315 12.415V16.2107H14.5177V12.415C14.5177 10.6747 13.8358 9.79452 12.4756 9.79452C11.2453 9.79452 10.6303 10.5365 10.6303 11.9983V18.9328H7.79974V11.7883C7.79974 10.3281 8.17153 9.16775 8.91833 8.30928C9.68842 7.45082 10.6969 7.01074 11.9489 7.01074C13.3973 7.01074 14.4942 7.56747 15.2195 8.68107L15.9245 9.86296L16.6297 8.68107C17.3548 7.56747 18.4517 7.01074 19.9003 7.01074C21.1521 7.01074 22.1606 7.45082 22.9309 8.30928C23.6775 9.16775 24.0493 10.3281 24.0493 11.7883Z" fill="white"/>
</svg>
