<svg width="24" height="25" viewBox="0 0 24 25" fill="none" xmlns="http://www.w3.org/2000/svg">
<g clip-path="url(#clip0_3184_12013)">
<path fill-rule="evenodd" clip-rule="evenodd" d="M15.2169 0.501953L14.8616 0.532049C14.0912 0.976495 13.2912 1.45046 12.4912 1.8949C12.2246 2.04305 11.9281 2.13159 11.6318 2.27974C11.3059 2.42789 10.9796 2.6059 10.6833 2.81331C10.5352 2.93183 10.3872 3.02049 10.2094 3.02049C10.002 3.02049 9.82419 3.05058 9.61679 3.05058C8.49086 3.02095 7.3949 2.9912 6.26897 2.93195C6.06156 2.90231 5.91306 2.96135 5.76492 3.13912C5.23158 3.76135 4.72822 4.35383 4.19489 4.94642C3.24673 6.01309 2.23909 6.96148 1.14279 7.85037C0.905752 8.02815 0.787348 8.23567 0.816978 8.5616C0.905865 9.33197 0.994873 10.1021 1.08376 10.8429C1.11339 11.2577 1.20205 11.6728 1.29094 12.0877C1.35019 12.384 1.32057 12.7688 1.29094 13.0651C1.29119 13.0661 1.29126 13.0662 1.29153 13.0673C1.43968 13.5414 1.87915 17.0834 1.96804 17.4093C2.20508 18.3575 2.44211 19.335 2.70878 20.2832C2.76804 20.461 2.91654 20.6391 3.06469 20.7872C3.42024 21.1132 3.83471 21.3796 4.19027 21.7352C5.07916 22.624 6.26887 23.4945 7.03924 24.502C7.0985 24.502 7.12813 24.5021 7.18739 24.4724C8.25406 24.028 9.37965 23.7024 10.5352 23.495C10.8315 23.4357 11.1281 23.317 11.1874 22.9614C11.3652 22.0429 11.5427 21.1541 11.6909 20.2652C10.8612 19.7615 10.002 19.7317 9.17235 19.7317C9.29087 20.3539 8.99492 20.8576 8.78751 21.3613C8.72825 21.4502 8.55013 21.5093 8.43161 21.539C8.19457 21.5982 7.9279 21.5687 7.69086 21.6576C7.4242 21.7465 7.24653 21.6875 7.06875 21.4505C6.68357 20.9468 6.2985 20.4725 5.85405 20.0281C5.58738 19.7614 5.67639 19.0798 5.67639 19.0205C8.42679 16.2377 8.98442 16.4621 12.3726 15.7022C12.6393 15.9096 12.9353 16.0873 13.1724 16.3243C13.6761 16.7688 14.6246 18.0427 14.7135 18.1316C14.8912 18.3094 15.0731 17.8666 14.9546 18.1036C18.9886 11.8962 19.9291 10.5674 23.1874 6.42788C22.1208 6.42788 21.0245 6.39848 19.9282 6.36886C19.7999 6.38262 19.5565 6.39874 19.4837 6.39837C19.0506 6.34831 18.2347 6.29736 17.9287 5.76451C17.7213 5.46821 15.5132 0.88714 15.2169 0.501953Z" fill="black"/>
</g>
<defs>
<clipPath id="clip0_3184_12013">
<rect width="24" height="24" fill="white" transform="translate(0 0.501953)"/>
</clipPath>
</defs>
</svg>
