<svg fill="none" height="32" viewBox="0 0 32 32" width="32" xmlns="http://www.w3.org/2000/svg"><path d="m28.0698 18.7065c-.3729 1.9187-3.3403 4.0186-6.7484 4.4255-1.7772.2121-3.5269.407-5.3927.3214-3.0514-.1398-5.4591-.7283-5.4591-.7283 0 .297.0183.5799.0549.8444.3967 3.0113 2.986 3.1917 5.4388 3.2759 2.4755.0847 4.6799-.6104 4.6799-.6104l.1017 2.238s-1.7316.9299-4.8162 1.1009c-1.701.0935-3.813-.0428-6.27292-.6939-5.33513-1.4121-6.25265-7.0991-6.39304-12.8695-.0428-1.7132-.01642-3.3288-.01642-4.6799 0-5.90053 3.86602-7.63006 3.86602-7.63006 1.94935-.89524 5.29426-1.27172 8.77166-1.30015h.0854c3.4774.02843 6.8245.40491 8.7737 1.30015 0 0 3.8659 1.72953 3.8659 7.63006 0 0 .0485 4.3534-.5392 7.3759z" fill="#2b90d9"/><path d="m24.0494 11.7883v7.1445h-2.8306v-6.9345c0-1.4618-.615-2.20378-1.8453-2.20378-1.3602 0-2.0419.88018-2.0419 2.62048v3.7957h-2.8139v-3.7957c0-1.7403-.6818-2.62048-2.0421-2.62048-1.2302 0-1.8453.74198-1.8453 2.20378v6.9345h-2.8305v-7.1445c0-1.4602.37179-2.62055 1.11859-3.47902.77009-.85846 1.77861-1.29854 3.03051-1.29854 1.4485 0 2.5454.55673 3.2707 1.67033l.705 1.18189.7052-1.18189c.7251-1.1136 1.822-1.67033 3.2706-1.67033 1.2518 0 2.2603.44008 3.0305 1.29854.7467.85847 1.1185 2.01882 1.1185 3.47902z" fill="#fff"/></svg>