<svg fill="none" height="24" viewBox="0 0 24 24" width="24" xmlns="http://www.w3.org/2000/svg" xmlns:xlink="http://www.w3.org/1999/xlink"><clipPath id="a"><path d="m0 0h24v24h-24z"/></clipPath><g clip-path="url(#a)"><path clip-rule="evenodd" d="m15.2169-.00004876-.3553.03009586c-.7703.4444459-1.5704.9184069-2.3704 1.3628529-.2666.14815-.563.23669-.8593.38484-.326.14815-.6522.32616-.9485.53357-.1482.11852-.2962.20717-.474.20717-.2074 0-.38518.0301-.59259.0301-1.12593-.02963-2.22189-.05938-3.34782-.11864-.2074-.02963-.3559.02941-.50405.20718-.53333.62223-1.03669 1.21471-1.57003 1.8073-.94815 1.06667-1.95579 2.01506-3.05209 2.90395-.237042.17778-.355446.3853-.325816.71123.088887.77037.177895 1.54052.266786 2.2813.02963.4148.11828.8299.20717 1.2448.05926.2963.02964.6811 0 .9774.00026.001.00033.0011.0006.0022.14814.4741.58761 4.0161.6765 4.342.23704.9482.47408 1.9257.74075 2.8739.05925.1778.20775.3559.3559.504.35556.326.77003.5924 1.12559.948.88889.8888 2.07859 1.7593 2.84897 2.7667.05925 0 .08889.0002.14815-.0295 1.06667-.4444 2.19225-.77 3.34778-.9774.2963-.0593.593-.178.6522-.5336.1778-.9185.3554-1.8073.5035-2.6962-.8296-.5037-1.6889-.5335-2.51852-.5335.11852.6222-.17743 1.1259-.38484 1.6296-.05926.0889-.23739.148-.35591.1777-.23703.0592-.5037.0297-.74074.1186-.26667.0889-.44433.0299-.62211-.2071-.38519-.5037-.77026-.978-1.2147-1.4225-.26667-.2666-.17767-.9482-.17767-1.0075 2.75041-2.7828 3.30803-2.5584 6.69619-3.3183.2667.2074.5627.3851.7998.6221.5037.4445 1.4522 1.7184 1.5411 1.8073.1778.1778.3597-.265.2412-.028 4.0339-6.2074 4.9745-7.5362 8.2328-11.67572-1.0667 0-2.163-.0294-3.2593-.05903-.1283.01376-.3717.02989-.4445.02952-.4331-.05006-1.2489-.10101-1.5549-.63386-.2074-.2963-2.4156-4.877372-2.7119-5.26255876z" fill="#000" fill-rule="evenodd"/></g></svg>