<svg fill="none" height="32" viewBox="0 0 32 32" width="32" xmlns="http://www.w3.org/2000/svg"><path d="m28.0702 18.7061c-.3729 1.9187-3.3403 4.0186-6.7484 4.4255-1.7772.2121-3.5269.407-5.3927.3214-3.0514-.1398-5.4592-.7283-5.4592-.7283 0 .297.0184.5799.055.8444.3967 3.0114 2.986 3.1917 5.4387 3.2759 2.4756.0847 4.68-.6104 4.68-.6104l.1017 2.238s-1.7316.9299-4.8162 1.1009c-1.701.0935-3.813-.0428-6.27292-.6939-5.33513-1.4121-6.25266-7.0991-6.39305-12.8695-.04279-1.7132-.01641-3.3288-.01641-4.6799 0-5.90052 3.86602-7.63005 3.86602-7.63005 1.94935-.89525 5.29426-1.27173 8.77166-1.30016h.0854c3.4774.02843 6.8245.40491 8.7737 1.30016 0 0 3.8659 1.72953 3.8659 7.63005 0 0 .0485 4.3534-.5392 7.3759z" fill="#2b90d9"/><path d="m24.0493 11.7879v7.1446h-2.8305v-6.9346c0-1.4618-.6151-2.20373-1.8453-2.20373-1.3603 0-2.042.88013-2.042 2.62053v3.7957h-2.8138v-3.7957c0-1.7404-.6819-2.62053-2.0421-2.62053-1.2303 0-1.8453.74193-1.8453 2.20373v6.9346h-2.83056v-7.1446c0-1.4602.37179-2.6205 1.11859-3.47897.77009-.85846 1.77857-1.29854 3.03057-1.29854 1.4484 0 2.5453.55673 3.2706 1.67033l.705 1.18189.7052-1.18189c.7251-1.1136 1.822-1.67033 3.2706-1.67033 1.2518 0 2.2603.44008 3.0306 1.29854.7466.85847 1.1184 2.01877 1.1184 3.47897z" fill="#fff"/></svg>