<svg fill="none" height="33" viewBox="0 0 32 33" width="32" xmlns="http://www.w3.org/2000/svg"><path d="m28.0703 19.1792c-.373 1.9187-3.3404 4.0185-6.7484 4.4255-1.7772.2121-3.5269.407-5.3927.3214-3.0514-.1398-5.4592-.7284-5.4592-.7284 0 .2971.0184.5799.055.8444.3967 3.0114 2.986 3.1918 5.4387 3.2759 2.4756.0847 4.68-.6103 4.68-.6103l.1017 2.238s-1.7316.9298-4.8162 1.1009c-1.701.0934-3.813-.0428-6.27293-.6939-5.33513-1.4122-6.25265-7.0991-6.39305-12.8695-.04279-1.7133-.01641-3.3288-.01641-4.68 0-5.90047 3.86602-7.63 3.86602-7.63 1.94935-.89525 5.29427-1.27172 8.77167-1.30015h.0854c3.4774.02843 6.8245.4049 8.7737 1.30015 0 0 3.8658 1.72953 3.8658 7.63 0 0 .0485 4.3535-.5391 7.376z" fill="#2b90d9"/><path d="m24.0494 12.2609v7.1446h-2.8306v-6.9346c0-1.4618-.615-2.2037-1.8453-2.2037-1.3602 0-2.0419.8801-2.0419 2.6205v3.7957h-2.8139v-3.7957c0-1.7404-.6818-2.6205-2.0421-2.6205-1.2302 0-1.8453.7419-1.8453 2.2037v6.9346h-2.8305v-7.1446c0-1.4601.37179-2.6205 1.11859-3.47896.77009-.85847 1.77861-1.29854 3.03051-1.29854 1.4485 0 2.5454.55673 3.2707 1.67032l.705 1.18188.7052-1.18188c.7251-1.11359 1.822-1.67032 3.2706-1.67032 1.2518 0 2.2603.44007 3.0305 1.29854.7467.85846 1.1185 2.01886 1.1185 3.47896z" fill="#fff"/></svg>