<svg width="42" height="34" viewBox="0 0 42 34" fill="none" xmlns="http://www.w3.org/2000/svg">
<path opacity="0.35" d="M13.005 0.98877L17.085 4.58877C15.645 5.94877 14.325 7.42877 13.125 9.02877C11.925 10.6288 10.965 12.1488 10.245 13.5888C9.60504 14.9488 9.28504 16.1488 9.28504 17.1888C9.28504 17.9888 9.56504 18.7488 10.125 19.4688C10.765 20.1888 11.485 20.8688 12.285 21.5088C13.165 22.1488 13.885 22.8688 14.445 23.6688C15.085 24.4688 15.405 25.3888 15.405 26.4288C15.405 28.4288 14.725 30.1088 13.365 31.4688C12.085 32.8288 10.405 33.5088 8.32504 33.5088C6.24504 33.5088 4.36504 32.5888 2.68504 30.7488C1.00504 28.9088 0.165039 26.5088 0.165039 23.5488C0.165039 21.3888 0.645039 19.1488 1.60504 16.8288C2.56504 14.4288 4.00504 11.9088 5.92504 9.26877C7.84504 6.62877 10.205 3.86877 13.005 0.98877ZM37.605 0.98877L41.685 4.58877C40.245 5.94877 38.925 7.42877 37.725 9.02877C36.525 10.6288 35.565 12.1488 34.845 13.5888C34.205 14.9488 33.885 16.1488 33.885 17.1888C33.885 17.9888 34.165 18.7488 34.725 19.4688C35.365 20.1888 36.085 20.8688 36.885 21.5088C37.765 22.1488 38.485 22.8688 39.045 23.6688C39.685 24.4688 40.005 25.3888 40.005 26.4288C40.005 28.4288 39.325 30.1088 37.965 31.4688C36.685 32.8288 35.005 33.5088 32.925 33.5088C30.845 33.5088 28.965 32.5888 27.285 30.7488C25.605 28.9088 24.765 26.5088 24.765 23.5488C24.765 21.3888 25.245 19.1488 26.205 16.8288C27.165 14.4288 28.605 11.9088 30.525 9.26877C32.445 6.62877 34.805 3.86877 37.605 0.98877Z" fill="#FFF500"/>
</svg>
