<svg width="42" height="34" viewBox="0 0 42 34" fill="none" xmlns="http://www.w3.org/2000/svg">
<path opacity="0.35" d="M13.245 0.98877L17.325 4.58877C15.885 5.94877 14.565 7.42877 13.365 9.02877C12.165 10.6288 11.205 12.1488 10.485 13.5888C9.84503 14.9488 9.52503 16.1488 9.52503 17.1888C9.52503 17.9888 9.80503 18.7488 10.365 19.4688C11.005 20.1888 11.725 20.8688 12.525 21.5088C13.405 22.1488 14.125 22.8688 14.685 23.6688C15.325 24.4688 15.645 25.3888 15.645 26.4288C15.645 28.4288 14.965 30.1088 13.605 31.4688C12.325 32.8288 10.645 33.5088 8.56503 33.5088C6.48503 33.5088 4.60503 32.5888 2.92503 30.7488C1.24503 28.9088 0.405029 26.5088 0.405029 23.5488C0.405029 21.3888 0.885029 19.1488 1.84503 16.8288C2.80503 14.4288 4.24503 11.9088 6.16503 9.26877C8.08503 6.62877 10.445 3.86877 13.245 0.98877ZM37.845 0.98877L41.925 4.58877C40.485 5.94877 39.165 7.42877 37.965 9.02877C36.765 10.6288 35.805 12.1488 35.085 13.5888C34.445 14.9488 34.125 16.1488 34.125 17.1888C34.125 17.9888 34.405 18.7488 34.965 19.4688C35.605 20.1888 36.325 20.8688 37.125 21.5088C38.005 22.1488 38.725 22.8688 39.285 23.6688C39.925 24.4688 40.245 25.3888 40.245 26.4288C40.245 28.4288 39.565 30.1088 38.205 31.4688C36.925 32.8288 35.245 33.5088 33.165 33.5088C31.085 33.5088 29.205 32.5888 27.525 30.7488C25.845 28.9088 25.005 26.5088 25.005 23.5488C25.005 21.3888 25.485 19.1488 26.445 16.8288C27.405 14.4288 28.845 11.9088 30.765 9.26877C32.685 6.62877 35.045 3.86877 37.845 0.98877Z" fill="#FFF500"/>
</svg>
