<svg width="42" height="34" viewBox="0 0 42 34" fill="none" xmlns="http://www.w3.org/2000/svg">
<path opacity="0.35" d="M13.0802 0.564209L17.1602 4.16421C15.7202 5.52421 14.4002 7.00421 13.2002 8.60421C12.0002 10.2042 11.0402 11.7242 10.3202 13.1642C9.68023 14.5242 9.36023 15.7242 9.36023 16.7642C9.36023 17.5642 9.64023 18.3242 10.2002 19.0442C10.8402 19.7642 11.5602 20.4442 12.3602 21.0842C13.2402 21.7242 13.9602 22.4442 14.5202 23.2442C15.1602 24.0442 15.4802 24.9642 15.4802 26.0042C15.4802 28.0042 14.8002 29.6842 13.4402 31.0442C12.1602 32.4042 10.4802 33.0842 8.40023 33.0842C6.32023 33.0842 4.44023 32.1642 2.76023 30.3242C1.08023 28.4842 0.240234 26.0842 0.240234 23.1242C0.240234 20.9642 0.720235 18.7242 1.68023 16.4042C2.64023 14.0042 4.08023 11.4842 6.00023 8.84421C7.92023 6.20421 10.2802 3.44421 13.0802 0.564209ZM37.6802 0.564209L41.7602 4.16421C40.3202 5.52421 39.0002 7.00421 37.8002 8.60421C36.6002 10.2042 35.6402 11.7242 34.9202 13.1642C34.2802 14.5242 33.9602 15.7242 33.9602 16.7642C33.9602 17.5642 34.2402 18.3242 34.8002 19.0442C35.4402 19.7642 36.1602 20.4442 36.9602 21.0842C37.8402 21.7242 38.5602 22.4442 39.1202 23.2442C39.7602 24.0442 40.0802 24.9642 40.0802 26.0042C40.0802 28.0042 39.4002 29.6842 38.0402 31.0442C36.7602 32.4042 35.0802 33.0842 33.0002 33.0842C30.9202 33.0842 29.0402 32.1642 27.3602 30.3242C25.6802 28.4842 24.8402 26.0842 24.8402 23.1242C24.8402 20.9642 25.3202 18.7242 26.2802 16.4042C27.2402 14.0042 28.6802 11.4842 30.6002 8.84421C32.5202 6.20421 34.8802 3.44421 37.6802 0.564209Z" fill="#56CCF2"/>
</svg>
