<svg width="42" height="33" viewBox="0 0 42 33" fill="none" xmlns="http://www.w3.org/2000/svg">
<path opacity="0.35" d="M12.84 0.439941L16.92 4.03994C15.48 5.39994 14.16 6.87994 12.96 8.47994C11.76 10.0799 10.8 11.5999 10.08 13.0399C9.44 14.3999 9.12 15.5999 9.12 16.6399C9.12 17.4399 9.4 18.1999 9.96 18.9199C10.6 19.6399 11.32 20.3199 12.12 20.9599C13 21.5999 13.72 22.3199 14.28 23.1199C14.92 23.9199 15.24 24.8399 15.24 25.8799C15.24 27.8799 14.56 29.5599 13.2 30.9199C11.92 32.2799 10.24 32.9599 8.16 32.9599C6.08 32.9599 4.2 32.0399 2.52 30.1999C0.84 28.3599 0 25.9599 0 22.9999C0 20.8399 0.48 18.5999 1.44 16.2799C2.4 13.8799 3.84 11.3599 5.76 8.71994C7.68 6.07994 10.04 3.31994 12.84 0.439941ZM37.44 0.439941L41.52 4.03994C40.08 5.39994 38.76 6.87994 37.56 8.47994C36.36 10.0799 35.4 11.5999 34.68 13.0399C34.04 14.3999 33.72 15.5999 33.72 16.6399C33.72 17.4399 34 18.1999 34.56 18.9199C35.2 19.6399 35.92 20.3199 36.72 20.9599C37.6 21.5999 38.32 22.3199 38.88 23.1199C39.52 23.9199 39.84 24.8399 39.84 25.8799C39.84 27.8799 39.16 29.5599 37.8 30.9199C36.52 32.2799 34.84 32.9599 32.76 32.9599C30.68 32.9599 28.8 32.0399 27.12 30.1999C25.44 28.3599 24.6 25.9599 24.6 22.9999C24.6 20.8399 25.08 18.5999 26.04 16.2799C27 13.8799 28.44 11.3599 30.36 8.71994C32.28 6.07994 34.64 3.31994 37.44 0.439941Z" fill="#56CCF2"/>
</svg>
