<svg width="43" height="33" viewBox="0 0 43 33" fill="none" xmlns="http://www.w3.org/2000/svg">
<path opacity="0.35" d="M13.34 0.439941L17.42 4.03994C15.98 5.39994 14.66 6.87994 13.46 8.47994C12.26 10.0799 11.3 11.5999 10.58 13.0399C9.94 14.3999 9.62 15.5999 9.62 16.6399C9.62 17.4399 9.9 18.1999 10.46 18.9199C11.1 19.6399 11.82 20.3199 12.62 20.9599C13.5 21.5999 14.22 22.3199 14.78 23.1199C15.42 23.9199 15.74 24.8399 15.74 25.8799C15.74 27.8799 15.06 29.5599 13.7 30.9199C12.42 32.2799 10.74 32.9599 8.66 32.9599C6.58 32.9599 4.7 32.0399 3.02 30.1999C1.34 28.3599 0.5 25.9599 0.5 22.9999C0.5 20.8399 0.98 18.5999 1.94 16.2799C2.9 13.8799 4.34 11.3599 6.26 8.71994C8.18 6.07994 10.54 3.31994 13.34 0.439941ZM37.94 0.439941L42.02 4.03994C40.58 5.39994 39.26 6.87994 38.06 8.47994C36.86 10.0799 35.9 11.5999 35.18 13.0399C34.54 14.3999 34.22 15.5999 34.22 16.6399C34.22 17.4399 34.5 18.1999 35.06 18.9199C35.7 19.6399 36.42 20.3199 37.22 20.9599C38.1 21.5999 38.82 22.3199 39.38 23.1199C40.02 23.9199 40.34 24.8399 40.34 25.8799C40.34 27.8799 39.66 29.5599 38.3 30.9199C37.02 32.2799 35.34 32.9599 33.26 32.9599C31.18 32.9599 29.3 32.0399 27.62 30.1999C25.94 28.3599 25.1 25.9599 25.1 22.9999C25.1 20.8399 25.58 18.5999 26.54 16.2799C27.5 13.8799 28.94 11.3599 30.86 8.71994C32.78 6.07994 35.14 3.31994 37.94 0.439941Z" fill="#00BA8D"/>
</svg>
