<svg fill="none" height="112" viewBox="0 0 77 112" width="77" xmlns="http://www.w3.org/2000/svg"><path d="m56.4055 94.2862-.0003-.0001-.9966-.1282.1788.988v.0004l.0001.0001.0001.0006.0008.0046.0045.0273c.0041.0257.0103.066.0177.12.015.1081.035.2706.0536.4799.0374.4188.0694 1.0226.0454 1.7489-.048 1.457-.32 3.3823-1.2018 5.2953-.8772 1.904-2.3637 3.811-4.8725 5.249-2.5159 1.442-6.104 2.439-11.2183 2.439h-.0874-.0876-.0877-.088-.0881-.0883-.0886-.0886-.0889-.0891-.0892-.0894-.0895-.0898-.0899-.0901-.0903-.0904-.0906-.0907-.0909-.0911-.0913-.0914-.0915-.0917-.0919-.092-.0922-.0923-.0925-.0926-.0927-.0929-.0931-.0932-.0933-.0935-.0936-.0937-.0939-.094-.0942-.0942-.0944-.0946-.0946-.0948-.0949-.095-.0952-.0952-.0954-.0955-.0956-.0958-.0958-.096-.096-.0962-.0963-.0963-.0965-.0966-.0967-.0968-.0969-.097-.097-.0972-.0973-.0973-.0975-.0975-.0976-.0977-.0978-.0979-.0979-.098-.0981-.0982-.0983-.0983-.0984-.0985-.0985-.0987-.0986-.0988-.0988-.0989-.0989-.099-.099-.0992-.0991-.0992-.0993-.0993-.0994-.0994-.0995-.0995-.0996-.0996-.0996-.0997-.0997-.0998-.0998-.0998-.0999-.0998-.1-.0999-.1-.1-.1-.1001-.1001-.1001-.1001-.1001-.1002-.1001-.1002-.1002-.1002-.1002-.1002-.1002-.1002-.1003-.1002-.1002-.1002-.1003-.1002-.1002-.1002-.1002-.1002-.1002-.1002-.1001-.1002-.1001-.1001-.1001-.1-.1001-.1-.1-.1-.0999-.0999-.0999-.0999-.0998-.0998-.0997-.0997-.0997-.0996-.0996-.0995-.0995-.0995-.0994-.0993-.0994-.0992-.0992-.0992-.099-.0991-.0989-.099-.0988-.0988-.0987-.0987-.0986-.0985-.0984-.0984-.0983-.0983-.0981-.0981-.098-.0979-.0978-.0978-.0977-.0976-.0975-.0974-.0973-.0972-.0971-.0971-.0969-.0969-.0967-.0967-.0965-.0965-.0963-.0963-.0961-.096-.0959-.0958-.0957-.0956-.0954-.0954-.0952-.0951-.095-.0949-.0947-.0946-.0945-.0943-.0943-.0941-.0939-.0939-.0937-.0935-.0934-.0933-.0932-.093-.0928-.0927-.0926-.0924-.0923-.0921-.0919-.0918-.0917-.0915-.0913-.0912-.091-.0909-.0907-.0905-.0904-.0902-.09-.0899-.0896-.0896-.0893-.0891-.089-.0888-.0887-.0884-.0883-.088-.0879-.0877-.0875-.0874-.0871-.0869-.0868-.0865-.0864-.0861-.086-.0857-.0855-.0854-.0851-.0849-.0848-.0845-.0843-.0841-.0838-.0837-.0834-.0832-.083-.0828-.0826-.0823-.0821-.0819-.0816-.0814-.08124-.08095-.08073-.08048-.08025-.08001-.07977-.07953-.07929-.07904-.0788-.07855-.07831-.07805-.0778-.07755-.0773-.07704-.07678-.07653-.07627-.076-.07575-.07548-.07521-.07495-.07468-.07441-.07414-.07387-.07359-.07332-.07304-.07277-.07248-.07221-.07192-.07164-.07135-.07107-.07078-.07049-.0702-.06991-.06962-.06932-.06902-.06873-.06842-.06813-.06782-.06753-.06721-.06691-.06661-.06629-.06598-.06568-.06535-.06505-.06473-.06441-.06409-.06377-.06345-.06313-.0628-.06248-.06215-.06182-.06149-.06115-.06083-.06049-.06016-.05982-.05948-.05914-.05879-.05846-.05811-.05777-.05741-.05707-.05672-.05637-.05602-.05566-.05531-.05495-.05459-.05423-.05387-.0535-.05315-.05277-.05242-.05204-.05167-.0513-.05093-.05056-.05018-.0498-.04942-.04905-.04866-.04828-.0479-.04752-.04712-.04674-.04635-.04596-.04556-.04517-.04478-.04438-.04398-.04358-.04319-.04278-.04237-.04197-.04157-.04115-.04075-.04034-.03992-.03951-.0391-.03868-.03826-.03785-.03742-.037-.03658-.03615-.03572-.0353-.03487-.03444-.03401-.03357-.03314-.0327-.03227-.03183-.03138-.03095-.0305-.03006-.02961-.02916-.02871-.02827-.02781-.02736-.02691-.00305v-108.89607h75.0498v.00453.04464.04589.04713.04837.04961.05085.05207.05329.05451.05572.05694.05813.05933.06053.06172.0629.06408.06526.06643.06759.06875.06991.07107.0722.07336.07448.07562.07675.07787.07899.08011.08121.08232.08341.08451.0856.08669.08777.08884.08991.09098.09205.0931.09415.09519.09625.09727.09832.09934.10036.10139.10239.10341.10442.10541.10641.10739.10839.10937.11034.11131.11228.11325.1142.11515.11611.11704.11799.11891.11985.12077.1217.1226.12352.12442.12533.12622.12711.12799.12888.12976.13063.1315.13236.13321.13408.13492.13576.1366.1374.1383.1391.1399.1407.1416.1423.1432.1439.1448.1455.1463.1471.1478.1487.1494.1501.1509.1517.1524.1531.1539.1546.1553.1561.1567.1575.1582.1589.1596.1602.161.1616.1624.163.1636.1644.165.1656.1663.167.1676.1682.1688.1695.1701.1707.1714.1719.1725.1732.1737.1743.1749.1755.1761.1766.1772.1777.1784.1788.1794.18.1805.181.1815.1821.1826.1831.1836.1841.1846.1851.1856.186.1866.187.1875.188.1884.1889.1893.1898.1902.1907.1911.1915.192.1923.1928.1932.1936.194.1943.1948.1952.1955.1959.1963.1967.197.1974.1977.1981.1984.1987.1991.1994.1998.2.2004.2007.2009.2013.2016.2019.2021.2025.2027.203.2032.2036.2037.2041.2042.2046.2047.205.2052.2055.2056.2059.2061.2063.2065.2067.2069.207.2073.2074.2076.2078.2079.2081.2083.2083.2086.2087.2088.2089.2091.2092.2093.2094.2095.2096.2097.2098.2099.21.2101.2101.2102.2103.2103.2104.2104.2105.2105.2105.2106.2106.2106.2106.2107.2107.2106.2107.2106.2107.2106.2106.2106.2105.2105.2105.2104.2104.2103.2102.2102.2102.21.21.2099.2098.2097.2096.2095.2094.2093.2092.209.209.2088.2086.2086.2083.2083.208.208.2077.2076.2074.2073.207.2069.2067.2064.2063.2061.2059.2056.2054.2052.205.2047.2045.2043.204.2037.2035.2033.2029.2027.2024.2022.2018.2016.2012.201.2007.2003.2.1997.1994.1991.1987.1984.198.1977.1974.197.1966.1963.1958.1955.1952.1947.1944.1939.1936.1931.1928.1923.1919.1915.1911.1906.1902.1897.1893.1889.1883.188.1874.187.1865.1861.1855.1851.1846.184.1836.183.1826.182.1815.181.1804.1799.1794.1788.1783.1777.1771.1766.176.1755.1748.1743.1737.1731.1725.1718.1713.1707.17.1695.1688.1681.1676.1669.1662.1656.1649.1643.1636.163.1623.1616.1609.1602.1595.1588.1582.1574.1567.156.1553.1545.1538.1531.1523.1516.1509.1501.1493.1486.1477.1471.1462.1455.1446.1439.1431.1423.1415.1406.1399.139.1382.1374.1365.1357.1349.134.1331.1323.1314.1306.1297.1288.1279.127.1262.1252.1244.1234.1226.1216.1207.1198.1188.1179.117.116.1151.1141.1132.1122.1112.1103.1092.1084.1073.1063.1053.1044.1033c0 4.2332-1.2304 7.1814-3.0205 9.2521-1.8005 2.0827-4.2208 3.3387-6.6938 4.08-2.4729.7414-4.9596.956-6.8383.9825-.9369.0133-1.7165-.0203-2.2598-.057-.2714-.0183-.4835-.0374-.6261-.0517-.0713-.0071-.1253-.013-.1606-.0171l-.0388-.0046-.0087-.0011z" stroke="#fff500" stroke-width="1.47156"/></svg>