<svg width="32" height="47" viewBox="0 0 32 47" fill="none" xmlns="http://www.w3.org/2000/svg">
<path d="M23.4977 39.4242L23.4975 39.4242L22.9988 39.3598L23.088 39.8543L23.088 39.8543L23.0881 39.8545L23.0881 39.8548L23.0883 39.8561L23.0901 39.8669C23.0917 39.8771 23.0942 39.8933 23.0972 39.9153C23.1033 39.9591 23.1114 40.0255 23.1191 40.1112C23.1343 40.2827 23.1474 40.5304 23.1376 40.8286C23.1179 41.427 23.0065 42.2162 22.6466 42.9996C22.2889 43.7781 21.6831 44.5579 20.659 45.1467C19.6314 45.7377 18.1604 46.1489 16.0551 46.1489H16.019H15.9828H15.9465H15.9101H15.8737H15.8372H15.8006H15.764H15.7273H15.6905H15.6536H15.6166H15.5796H15.5425H15.5054H15.4681H15.4308H15.3935H15.356H15.3185H15.2809H15.2433H15.2056H15.1678H15.13H15.0921H15.0541H15.0161H14.978H14.9398H14.9016H14.8634H14.825H14.7866H14.7482H14.7097H14.6711H14.6325H14.5938H14.555H14.5162H14.4774H14.4385H14.3995H14.3605H14.3214H14.2823H14.2431H14.2039H14.1646H14.1253H14.0859H14.0465H14.0071H13.9675H13.928H13.8884H13.8487H13.809H13.7693H13.7295H13.6896H13.6498H13.6099H13.5699H13.5299H13.4899H13.4498H13.4097H13.3695H13.3293H13.2891H13.2488H13.2085H13.1682H13.1278H13.0874H13.0469H13.0064H12.9659H12.9254H12.8848H12.8442H12.8036H12.7629H12.7222H12.6815H12.6407H12.5999H12.5591H12.5183H12.4774H12.4365H12.3956H12.3547H12.3137H12.2727H12.2317H12.1907H12.1497H12.1086H12.0675H12.0264H11.9853H11.9441H11.903H11.8618H11.8206H11.7794H11.7381H11.6969H11.6556H11.6144H11.5731H11.5318H11.4905H11.4492H11.4078H11.3665H11.3251H11.2838H11.2424H11.201H11.1597H11.1183H11.0769H11.0355H10.9941H10.9527H10.9112H10.8698H10.8284H10.787H10.7456H10.7041H10.6627H10.6213H10.5799H10.5385H10.497H10.4556H10.4142H10.3728H10.3314H10.29H10.2486H10.2072H10.1659H10.1245H10.0831H10.0418H10.0004H9.95908H9.91775H9.87644H9.83513H9.79384H9.75256H9.7113H9.67004H9.62881H9.58758H9.54638H9.50519H9.46401H9.42285H9.38171H9.3406H9.29949H9.25841H9.21735H9.17631H9.13529H9.09429H9.05332H9.01237H8.97144H8.93054H8.88966H8.84881H8.80798H8.76718H8.72641H8.68566H8.64494H8.60426H8.5636H8.52297H8.48237H8.44181H8.40127H8.36077H8.3203H8.27987H8.23947H8.19911H8.15878H8.11848H8.07822H8.038H7.99782H7.95768H7.91757H7.87751H7.83748H7.7975H7.75755H7.71765H7.67779H7.63798H7.5982H7.55847H7.51879H7.47915H7.43956H7.40001H7.36052H7.32106H7.28166H7.24231H7.203H7.16375H7.12455H7.08539H7.04629H7.00724H6.96825H6.92931H6.89042H6.85158H6.81281H6.77408H6.73542H6.69681H6.65826H6.61977H6.58133H6.54296H6.50464H6.46639H6.4282H6.39006H6.352H6.31399H6.27605H6.23817H6.20035H6.1626H6.12492H6.08731H6.04976H6.01227H5.97486H5.93751H5.90024H5.86303H5.8259H5.78883H5.75184H5.71492H5.67807H5.6413H5.60459H5.56797H5.53142H5.49494H5.45854H5.42222H5.38598H5.34981H5.31372H5.27771H5.24178H5.20594H5.17017H5.13448H5.09888H5.06336H5.02792H4.99257H4.9573H4.92211H4.88701H4.852H4.81708H4.78224H4.74749H4.71283H4.67825H4.64377H4.60938H4.57508H4.54087H4.50675H4.47272H4.43879H4.40495H4.37121H4.33756H4.30401H4.27055H4.23719H4.20392H4.17076H4.13769H4.10472H4.07186H4.03909H4.00642H3.97386H3.94139H3.90903H3.87677H3.84462H3.81257H3.78062H3.74878H3.71705H3.68542H3.6539H3.62249H3.59119H3.56H3.52891H3.49794H3.46707H3.43632H3.40568H3.37515H3.34474H3.31444H3.28425H3.25418H3.22422H3.19438H3.16466H3.13505H3.10556H3.07619H3.04694H3.0178H2.98879H2.9599H2.93113H2.90248H2.87396H2.84555H2.81727H2.78912H2.76109H2.73318H2.7054H2.67775H2.65022H2.62283H2.59556H2.56842H2.5414H2.51452H2.48777H2.46115H2.43467H2.40831H2.38209H2.356H2.33004H2.30422H2.27854H2.25299H2.22758H2.2023H2.17716H2.15216H2.1273H2.10258H2.078H2.05356H2.02926H2.0051H1.98108H1.95721H1.93348H1.90989H1.88645H1.86316H1.84001H1.817H1.79415H1.77144H1.74888H1.72646H1.7042H1.68209H1.66012H1.63831H1.61665H1.59514H1.57379H1.55259H1.53154H1.51065H1.48991H1.46932H1.4489H1.42863H1.40852H1.38856H1.36877H1.34913H1.32966H1.31034H1.29118H1.27219H1.25336H1.23469H1.21619H1.19785H1.17967H1.16166H1.14381H1.12613H1.10862H1.09127H1.07409H1.05708H1.04024H1.02357H1.00707H0.990745H0.974588H0.958602H0.942789H0.927149H0.911683H0.896392H0.881275H0.866334H0.851569H0.836981H0.82257H0.808338H0.794283H0.780408H0.766712H0.753196H0.739862H0.726708H0.713737H0.700948H0.688343H0.675921H0.663683H0.65708V1.13682H31.5452V1.15254V1.1731V1.19418V1.21576V1.23785V1.26044V1.28354V1.30714V1.33124V1.35583V1.38092V1.40651V1.43258V1.45914V1.48619V1.51373V1.54175V1.57024V1.59922V1.62868V1.65861V1.68902V1.71989V1.75124V1.78305V1.81533V1.84807V1.88128V1.91494V1.94906V1.98364V2.01867V2.05415V2.09008V2.12646V2.16329V2.20056V2.23827V2.27643V2.31502V2.35404V2.3935V2.4334V2.47372V2.51447V2.55565V2.59725V2.63928V2.68172V2.72459V2.76787V2.81156V2.85567V2.90019V2.94512V2.99045V3.03619V3.08233V3.12887V3.17581V3.22315V3.27088V3.31901V3.36753V3.41643V3.46572V3.5154V3.56546V3.61591V3.66673V3.71793V3.7695V3.82145V3.87377V3.92646V3.97952V4.03294V4.08673V4.14087V4.19538V4.25024V4.30547V4.36104V4.41697V4.47324V4.52987V4.58684V4.64415V4.70181V4.7598V4.81814V4.87681V4.93581V4.99515V5.05482V5.11481V5.17513V5.23578V5.29675V5.35804V5.41964V5.48157V5.54381V5.60636V5.66922V5.73239V5.79587V5.85965V5.92374V5.98812V6.05281V6.11779V6.18306V6.24863V6.3145V6.38065V6.44708V6.5138V6.58081V6.6481V6.71566V6.78351V6.85163V6.92002V6.98868V7.05761V7.12681V7.19628V7.26601V7.336V7.40625V7.47676V7.54753V7.61855V7.68982V7.76134V7.83311V7.90512V7.97738V8.04988V8.12262V8.1956V8.26881V8.34226V8.41594V8.48985V8.56399V8.63836V8.71295V8.78776V8.86279V8.93805V9.01352V9.0892V9.16509V9.2412V9.31752V9.39404V9.47076V9.54769V9.62482V9.70215V9.77968V9.8574V9.93532V10.0134V10.0917V10.1702V10.2489V10.3277V10.4067V10.486V10.5653V10.6449V10.7246V10.8046V10.8846V10.9649V11.0453V11.1259V11.2066V11.2875V11.3685V11.4498V11.5311V11.6126V11.6943V11.7761V11.8581V11.9402V12.0224V12.1048V12.1873V12.27V12.3528V12.4357V12.5188V12.6019V12.6853V12.7687V12.8523V12.9359V13.0197V13.1036V13.1877V13.2718V13.3561V13.4404V13.5249V13.6095V13.6941V13.7789V13.8638V13.9488V14.0338V14.119V14.2042V14.2896V14.375V14.4605V14.5461V14.6318V14.7175V14.8034V14.8893V14.9753V15.0613V15.1474V15.2336V15.3199V15.4062V15.4926V15.579V15.6655V15.7521V15.8387V15.9253V16.0121V16.0988V16.1856V16.2725V16.3594V16.4463V16.5333V16.6203V16.7073V16.7944V16.8815V16.9686V17.0558V17.1429V17.2301V17.3174V17.4046V17.4919V17.5791V17.6664V17.7537V17.841V17.9283V18.0157V18.103V18.1903V18.2776V18.3649V18.4523V18.5396V18.6269V18.7141V18.8014V18.8887V18.9759V19.0631V19.1503V19.2375V19.3247V19.4118V19.4989V19.586V19.673V19.76V19.847V19.9339V20.0208V20.1076V20.1944V20.2812V20.3679V20.4545V20.5411V20.6277V20.7142V20.8006V20.887V20.9733V21.0596V21.1458V21.2319V21.3179V21.4039V21.4898V21.5756V21.6614V21.747V21.8326V21.9181V22.0036V22.0889V22.1741V22.2593V22.3443V22.4293V22.5142V22.5989V22.6836V22.7682V22.8526V22.937V23.0212V23.1054V23.1894V23.2733V23.3571V23.4407V23.5243V23.6077V23.691V23.7742V23.8572V23.9401V24.0229V24.1056V24.1881V24.2705V24.3527V24.4348V24.5167V24.5985V24.6802V24.7617V24.843V24.9242V25.0053V25.0862V25.1669V25.2474V25.3278V25.4081V25.4881V25.568V25.6478V25.7273V25.8067V25.8859V25.9649V26.0437V26.1224V26.2008V26.2791V26.3572V26.4351V26.5128V26.5903V26.6676V26.7448V26.8217V26.8984V26.9749V27.0512V27.1273V27.2032V27.2788V27.3543V27.4295V27.5045V27.5793V27.6539V27.7282V27.8024V27.8762V27.9499V28.0233V28.0965V28.1695V28.2422V28.3147V28.3869V28.4589V28.5307V28.6022V28.6734V28.7444V28.8152V28.8857V28.9559V29.0259V29.0956V29.165V29.2342V29.3031V29.3717V29.4401V29.5082V29.576V29.6436V29.7108V29.7778V29.8445V29.9109V29.9771V30.0429V30.1084V30.1737V30.2387V30.3033V30.3677V30.4317V30.4955V30.5589V30.6221V30.6849V30.7475V30.8097V30.8716V30.9331V30.9944V31.0554V31.116V31.1763V31.2362V31.2959V31.3552V31.4142V31.4728V31.5311V31.5891V31.6467V31.704V31.7609V31.8175V31.8738V31.9297V31.9852V32.0404V32.0953V32.1497V32.2038V32.2576V32.311V32.364V32.4167V32.469V32.5209V32.5724V32.6236V32.6744V32.7248V32.7748V32.8245V32.8737V32.9226V32.9711V33.0192V33.0669V33.1142V33.1611V33.2076V33.2537V33.2994V33.3447V33.3896V33.4341V33.4782V33.5219V33.5651V33.6079C31.5452 35.3497 31.0409 36.5567 30.3122 37.4021C29.5784 38.2534 28.5903 38.7688 27.576 39.0738C26.5616 39.3787 25.5404 39.4673 24.7676 39.4783C24.3825 39.4837 24.0621 39.4699 23.839 39.4548C23.7276 39.4472 23.6407 39.4394 23.5824 39.4335C23.5532 39.4306 23.5313 39.4282 23.517 39.4265L23.5014 39.4247L23.498 39.4243L23.4977 39.4242Z" stroke="#FFF500" stroke-width="0.736523"/>
</svg>
