<svg fill="none" height="47" viewBox="0 0 33 47" width="33" xmlns="http://www.w3.org/2000/svg"><path d="m24.039 38.9462h-.0002l-.5022-.0648.0898.498v.0001l.0001.0004.0002.0013.0018.0108c.0016.0103.0041.0267.0072.0488.0061.0441.0143.111.022.1973.0153.1727.0285.4222.0186.7225-.0198.6027-.132 1.3974-.4944 2.1864-.3603.7841-.9704 1.5694-2.0018 2.1624-1.0349.5952-2.5164 1.0094-4.6367 1.0094h-.0363-.0365-.0365-.0366-.0367-.0368-.0368-.0369-.037-.0371-.0371-.0372-.0373-.0374-.0374-.0375-.0376-.0376-.0377-.0378-.0378-.0379-.038-.038-.0381-.0382-.0382-.0383-.0384-.0384-.0385-.0386-.0386-.0386-.0388-.0388-.0388-.0389-.039-.039-.0391-.0391-.0392-.0392-.0393-.0394-.0394-.0394-.0395-.0396-.0396-.0396-.0397-.0398-.0398-.0398-.0399-.0399-.04-.04-.0401-.0401-.0402-.0402-.0402-.0403-.0403-.0404-.0404-.0404-.0405-.0405-.0406-.0406-.0406-.0407-.0407-.0407-.0408-.0408-.0408-.0409-.0409-.0409-.041-.041-.041-.041-.0411-.0411-.0411-.0412-.0412-.0412-.0412-.0412-.0413-.0413-.0413-.0414-.0413-.0414-.0414-.0414-.0415-.0414-.0415-.0415-.0415-.0415-.0415-.0416-.0416-.0415-.0416-.0416-.0416-.0417-.0416-.0416-.0417-.0417-.0416-.0417-.0417-.0417-.0417-.0417-.0417-.0417-.0417-.0417-.0417-.0417-.0418-.0417-.0417-.0417-.0417-.0417-.0417-.0417-.0417-.0417-.0417-.0417-.0417-.0417-.0416-.0417-.0417-.0416-.0416-.0416-.0417-.0416-.0415-.0416-.0416-.0415-.0415-.0416-.04146-.04148-.04147-.04145-.04143-.04142-.04139-.04137-.04136-.04133-.04131-.04129-.04126-.04125-.04122-.04119-.04117-.04114-.04112-.04109-.04106-.04104-.041-.04098-.04095-.04091-.04089-.04085-.04083-.04079-.04075-.04072-.04069-.04065-.04062-.04058-.04054-.04051-.04047-.04043-.04039-.04035-.04031-.04027-.04023-.04018-.04015-.04009-.04006-.04001-.03997-.03992-.03987-.03983-.03978-.03973-.03968-.03964-.03958-.03953-.03949-.03943-.03938-.03932-.03928-.03921-.03917-.03911-.03905-.039-.03894-.03888-.03883-.03877-.0387-.03865-.03859-.03852-.03847-.0384-.03834-.03828-.03821-.03815-.03808-.03802-.03795-.03788-.03782-.03775-.03768-.03761-.03754-.03747-.0374-.03733-.03726-.03718-.03711-.03704-.03696-.03688-.03681-.03674-.03666-.03658-.0365-.03642-.03635-.03626-.03619-.0361-.03602-.03594-.03586-.03577-.03569-.03561-.03552-.03543-.03535-.03526-.03518-.03508-.035-.03491-.03482-.03473-.03463-.03455-.03445-.03436-.03427-.03417-.03408-.03399-.03388-.0338-.03369-.0336-.0335-.0334-.0333-.03321-.0331-.033-.0329-.03279-.0327-.03259-.03249-.03238-.03228-.03217-.03207-.03196-.03185-.03174-.03164-.03152-.03142-.0313-.0312-.03108-.03097-.03086-.03075-.03063-.03051-.03041-.03028-.03017-.03005-.02994-.02982-.0297-.02958-.02946-.02934-.02921-.0291-.02898-.02885-.02873-.0286-.02848-.02836-.02823-.0281-.02798-.02785-.02772-.02759-.02747-.02733-.0272-.02708-.02694-.02681-.02667-.02654-.02641-.02628-.02614-.026-.02587-.02573-.02559-.02546-.02532-.02517-.02504-.0249-.02476-.02461-.02447-.02433-.02419-.02404-.0239-.02376-.0236-.02347-.02331-.02317-.02302-.02287-.02272-.02257-.02242-.02227-.02212-.02197-.02181-.02166-.02151-.02135-.0212-.02104-.02089-.02073-.02057-.02041-.02026-.02009-.01994-.01978-.01961-.01945-.0193-.01912-.01897-.0188-.01864-.01847-.0183-.01814-.01798-.0178-.01764-.01747-.0173-.01713-.01696-.01679-.01662-.01644-.01627-.0161-.01593-.01575-.01558-.0154-.01522-.01505-.01487-.01469-.01451-.01434-.01415-.01398-.01379-.01361-.01343-.01325-.01306-.01288-.01269-.01252-.01232-.00665v-45.332295h31.10778v.015832.020711.021225.021737.022247.022756.023263.023766.024269.02477.025268.025765.026259.026751.027242.027731.028218.028702.029185.029665.030145.03062.031096.031572.03204.0325.03298.03344.0339.03437.03482.03528.03574.03618.03664.03709.03754.03798.03842.03887.0393.03974.04018.04061.04104.04147.0419.04232.04275.04317.04359.044.04442.04484.04525.04565.04607.04647.04687.04727.04768.04807.04847.04886.04925.04965.05003.05042.0508.05118.05157.05194.05232.05269.05306.05343.05381.05417.05453.05489.05526.05561.05597.05632.05668.05703.05737.05772.05807.05841.05875.05909.05942.05976.06009.06042.06075.06108.0614.06173.06204.06237.06268.063.06331.06362.06392.06424.06454.06485.06514.06544.06575.06603.06633.06662.06691.0672.06748.06776.06805.06833.0686.06888.06915.06942.0697.06996.07022.07049.07075.07101.07127.07153.07177.07203.07228.07253.07277.07302.07325.0735.07374.07397.0742.07444.07467.07489.07512.07535.07556.07579.07601.07622.07643.07665.07686.07706.07728.07747.07768.07788.07808.07827.07847.07866.07885.07904.07923.07941.0796.07977.07995.08013.08028.0805.0806.0809.0809.0812.0813.0815.0816.0818.0819.0821.0823.0824.0825.0827.0828.083.0831.0833.0833.0836.0836.0838.0839.084.0842.0842.0844.0845.0847.0847.0849.0849.0851.0852.0852.0854.0855.0856.0856.0858.0859.0859.086.0862.0862.0863.0863.0865.0865.0866.0866.0868.0868.0868.087.087.087.0871.0872.0872.0873.0873.0874.0874.0875.0875.0876.0876.0876.0876.0877.0877.0878.0878.0878.0878.0878.0879.0879.0879.0879.0879.0879.088.0879.0879.088.0879.088.0879.0879.0879.0879.0879.0879.0879.0878.0878.0878.0878.0878.0877.0877.0876.0876.0876.0876.0875.0874.0875.0873.0874.0872.0873.0871.0871.0871.087.0869.0869.0868.0867.0866.0866.0865.0865.0863.0863.0862.0861.0861.0859.0859.0857.0857.0855.0855.0854.0852.0852.0851.0849.0849.0847.0846.0845.0844.0843.0841.084.0839.0838.0836.0835.0834.0832.0831.083.0828.0827.0825.0824.0822.0821.0819.0818.0816.0815.0813.0811.081.0808.0806.0805.0803.0801.0799.0798.0796.0794.0792.079.0788.0787.0784.0783.0781.0778.0777.0774.0773.077.0769.0766.0764.0762.076.0758.0755.0754.0751.0748.0747.0744.0742.074.0737.0735.0732.073.0727.0725.0723.072.0718.0715.0712.071.0707.0705.0702.0699.0697.0694.0691.0689.0686.0683.068.0678.0674.0672.0669.0666.0663.066.0657.0654.0651.0649.0645.0642.0639.0636.0633.0629.0627.0623.0621.0617.0613.0611.0607.0604.0601.0597.0594.0591.0587.0584.058.0577.0573.057.0567.0563.0559.0556.0552.0549.0545.0541.0538.0534.053.0527.0523.0519.0515.0512.0508.0503.05.0497.0492.0488.0484.0481.0476.0473.0468.0464.0461.0456.0452.0448.0444.044.0435.0432c0 1.7541-.5079 2.9697-1.2418 3.8211-.739.8574-1.7341 1.3764-2.7556 1.6836-1.0216.3071-2.0501.3963-2.8283.4074-.3879.0054-.7106-.0085-.9352-.0237-.1123-.0076-.1998-.0155-.2585-.0214-.0294-.0029-.0515-.0054-.0659-.0071l-.0157-.0018-.0034-.0004z" stroke="#fff500" stroke-width=".741761"/></svg>