<svg width="32" height="47" viewBox="0 0 32 47" fill="none" xmlns="http://www.w3.org/2000/svg">
<path d="M23.4975 39.4242L23.4973 39.4242L22.9986 39.3598L23.0878 39.8543L23.0878 39.8543L23.0879 39.8545L23.0879 39.8548L23.0882 39.8561L23.0899 39.8669C23.0915 39.8771 23.094 39.8933 23.0971 39.9153C23.1031 39.9591 23.1112 40.0255 23.1189 40.1112C23.1341 40.2827 23.1472 40.5304 23.1374 40.8286C23.1177 41.427 23.0064 42.2162 22.6464 42.9996C22.2888 43.7781 21.683 44.5579 20.6589 45.1467C19.6312 45.7377 18.1602 46.1489 16.0549 46.1489H16.0188H15.9826H15.9463H15.91H15.8735H15.837H15.8005H15.7638H15.7271H15.6903H15.6534H15.6164H15.5794H15.5423H15.5052H15.4679H15.4306H15.3933H15.3558H15.3183H15.2808H15.2431H15.2054H15.1676H15.1298H15.0919H15.0539H15.0159H14.9778H14.9397H14.9014H14.8632H14.8248H14.7864H14.748H14.7095H14.6709H14.6323H14.5936H14.5548H14.516H14.4772H14.4383H14.3993H14.3603H14.3212H14.2821H14.2429H14.2037H14.1645H14.1251H14.0858H14.0463H14.0069H13.9674H13.9278H13.8882H13.8485H13.8088H13.7691H13.7293H13.6895H13.6496H13.6097H13.5697H13.5297H13.4897H13.4496H13.4095H13.3693H13.3291H13.2889H13.2486H13.2083H13.168H13.1276H13.0872H13.0467H13.0063H12.9657H12.9252H12.8846H12.844H12.8034H12.7627H12.722H12.6813H12.6405H12.5997H12.5589H12.5181H12.4772H12.4363H12.3954H12.3545H12.3135H12.2726H12.2315H12.1905H12.1495H12.1084H12.0673H12.0262H11.9851H11.9439H11.9028H11.8616H11.8204H11.7792H11.738H11.6967H11.6555H11.6142H11.5729H11.5316H11.4903H11.449H11.4076H11.3663H11.325H11.2836H11.2422H11.2009H11.1595H11.1181H11.0767H11.0353H10.9939H10.9525H10.9111H10.8696H10.8282H10.7868H10.7454H10.704H10.6625H10.6211H10.5797H10.5383H10.4969H10.4554H10.414H10.3726H10.3312H10.2898H10.2484H10.207H10.1657H10.1243H10.0829H10.0416H10.0002H9.95889H9.91757H9.87625H9.83495H9.79366H9.75238H9.71111H9.66986H9.62862H9.5874H9.54619H9.505H9.46383H9.42267H9.38153H9.34041H9.29931H9.25823H9.21717H9.17613H9.13511H9.09411H9.05314H9.01219H8.97126H8.93035H8.88948H8.84862H8.8078H8.767H8.72622H8.68548H8.64476H8.60407H8.56342H8.52279H8.48219H8.44163H8.40109H8.36059H8.32012H8.27969H8.23929H8.19892H8.15859H8.1183H8.07804H8.03782H7.99764H7.95749H7.91739H7.87732H7.8373H7.79731H7.75737H7.71747H7.67761H7.63779H7.59802H7.55829H7.51861H7.47897H7.43938H7.39983H7.36033H7.32088H7.28148H7.24212H7.20282H7.16357H7.12436H7.08521H7.04611H7.00706H6.96806H6.92912H6.89023H6.8514H6.81262H6.7739H6.73524H6.69663H6.65808H6.61958H6.58115H6.54277H6.50446H6.46621H6.42801H6.38988H6.35181H6.31381H6.27586H6.23798H6.20017H6.16242H6.12474H6.08712H6.04957H6.01209H5.97468H5.93733H5.90005H5.86285H5.82571H5.78865H5.75166H5.71473H5.67789H5.64111H5.60441H5.56779H5.53123H5.49476H5.45836H5.42204H5.38579H5.34963H5.31354H5.27753H5.2416H5.20575H5.16999H5.1343H5.0987H5.06317H5.02774H4.99238H4.95711H4.92193H4.88683H4.85182H4.81689H4.78205H4.7473H4.71264H4.67807H4.64359H4.60919H4.57489H4.54068H4.50656H4.47254H4.43861H4.40477H4.37102H4.33738H4.30382H4.27036H4.237H4.20374H4.17058H4.13751H4.10454H4.07167H4.0389H4.00624H3.97367H3.94121H3.90885H3.87659H3.84444H3.81239H3.78044H3.7486H3.71687H3.68524H3.65372H3.62231H3.59101H3.55981H3.52873H3.49775H3.46689H3.43614H3.4055H3.37497H3.34455H3.31425H3.28407H3.25399H3.22404H3.1942H3.16447H3.13487H3.10538H3.07601H3.04675H3.01762H2.98861H2.95972H2.93095H2.9023H2.87377H2.84537H2.81709H2.78893H2.7609H2.733H2.70522H2.67757H2.65004H2.62264H2.59537H2.56823H2.54122H2.51434H2.48759H2.46097H2.43448H2.40813H2.3819H2.35582H2.32986H2.30404H2.27836H2.25281H2.22739H2.20212H2.17698H2.15198H2.12712H2.1024H2.07782H2.05337H2.02907H2.00492H1.9809H1.95703H1.9333H1.90971H1.88627H1.86297H1.83982H1.81682H1.79396H1.77125H1.74869H1.72628H1.70402H1.6819H1.65994H1.63813H1.61647H1.59496H1.57361H1.5524H1.53136H1.51046H1.48972H1.46914H1.44872H1.42845H1.40833H1.38838H1.36858H1.34895H1.32947H1.31016H1.291H1.27201H1.25318H1.23451H1.216H1.19766H1.17949H1.16147H1.14363H1.12595H1.10843H1.09109H1.07391H1.0569H1.04006H1.02339H1.00689H0.990562H0.974405H0.958419H0.942606H0.926966H0.9115H0.896209H0.881092H0.866151H0.851386H0.836798H0.822387H0.808154H0.7941H0.780225H0.766529H0.753013H0.739679H0.726525H0.713554H0.700765H0.68816H0.675738H0.6635H0.656897V1.13682H31.545V1.15254V1.1731V1.19418V1.21576V1.23785V1.26044V1.28354V1.30714V1.33124V1.35583V1.38092V1.40651V1.43258V1.45914V1.48619V1.51373V1.54175V1.57024V1.59922V1.62868V1.65861V1.68902V1.71989V1.75124V1.78305V1.81533V1.84807V1.88128V1.91494V1.94906V1.98364V2.01867V2.05415V2.09008V2.12646V2.16329V2.20056V2.23827V2.27643V2.31502V2.35404V2.3935V2.4334V2.47372V2.51447V2.55565V2.59725V2.63928V2.68172V2.72459V2.76787V2.81156V2.85567V2.90019V2.94512V2.99045V3.03619V3.08233V3.12887V3.17581V3.22315V3.27088V3.31901V3.36753V3.41643V3.46572V3.5154V3.56546V3.61591V3.66673V3.71793V3.7695V3.82145V3.87377V3.92646V3.97952V4.03294V4.08673V4.14087V4.19538V4.25024V4.30547V4.36104V4.41697V4.47324V4.52987V4.58684V4.64415V4.70181V4.7598V4.81814V4.87681V4.93581V4.99515V5.05482V5.11481V5.17513V5.23578V5.29675V5.35804V5.41964V5.48157V5.54381V5.60636V5.66922V5.73239V5.79587V5.85965V5.92374V5.98812V6.05281V6.11779V6.18307V6.24863V6.3145V6.38065V6.44708V6.51381V6.58081V6.6481V6.71566V6.78351V6.85163V6.92002V6.98868V7.05761V7.12682V7.19628V7.26601V7.336V7.40625V7.47676V7.54753V7.61855V7.68982V7.76134V7.83311V7.90512V7.97738V8.04988V8.12262V8.1956V8.26881V8.34226V8.41594V8.48985V8.56399V8.63836V8.71295V8.78776V8.86279V8.93805V9.01352V9.0892V9.16509V9.2412V9.31752V9.39404V9.47076V9.54769V9.62482V9.70215V9.77968V9.8574V9.93532V10.0134V10.0917V10.1702V10.2489V10.3277V10.4067V10.486V10.5653V10.6449V10.7246V10.8046V10.8846V10.9649V11.0453V11.1259V11.2066V11.2875V11.3685V11.4498V11.5311V11.6126V11.6943V11.7761V11.8581V11.9402V12.0224V12.1048V12.1873V12.27V12.3528V12.4357V12.5188V12.6019V12.6853V12.7687V12.8523V12.9359V13.0197V13.1036V13.1877V13.2718V13.3561V13.4404V13.5249V13.6095V13.6941V13.7789V13.8638V13.9488V14.0338V14.119V14.2042V14.2896V14.375V14.4605V14.5461V14.6318V14.7175V14.8034V14.8893V14.9753V15.0613V15.1474V15.2336V15.3199V15.4062V15.4926V15.579V15.6655V15.7521V15.8387V15.9253V16.0121V16.0988V16.1856V16.2725V16.3594V16.4463V16.5333V16.6203V16.7073V16.7944V16.8815V16.9686V17.0558V17.1429V17.2301V17.3174V17.4046V17.4919V17.5791V17.6664V17.7537V17.841V17.9283V18.0157V18.103V18.1903V18.2776V18.3649V18.4523V18.5396V18.6269V18.7141V18.8014V18.8887V18.9759V19.0631V19.1503V19.2375V19.3247V19.4118V19.4989V19.586V19.673V19.76V19.847V19.9339V20.0208V20.1076V20.1944V20.2812V20.3679V20.4545V20.5412V20.6277V20.7142V20.8006V20.887V20.9733V21.0596V21.1458V21.2319V21.3179V21.4039V21.4898V21.5756V21.6614V21.747V21.8326V21.9181V22.0036V22.0889V22.1741V22.2593V22.3443V22.4293V22.5142V22.5989V22.6836V22.7682V22.8526V22.937V23.0212V23.1054V23.1894V23.2733V23.3571V23.4407V23.5243V23.6077V23.691V23.7742V23.8572V23.9401V24.0229V24.1056V24.1881V24.2705V24.3527V24.4348V24.5167V24.5985V24.6802V24.7617V24.843V24.9242V25.0053V25.0862V25.1669V25.2474V25.3278V25.4081V25.4881V25.568V25.6478V25.7273V25.8067V25.8859V25.9649V26.0437V26.1224V26.2008V26.2791V26.3572V26.4351V26.5128V26.5903V26.6676V26.7448V26.8217V26.8984V26.9749V27.0512V27.1273V27.2032V27.2788V27.3543V27.4295V27.5045V27.5793V27.6539V27.7282V27.8024V27.8762V27.9499V28.0233V28.0965V28.1695V28.2422V28.3147V28.3869V28.4589V28.5307V28.6022V28.6734V28.7444V28.8152V28.8857V28.9559V29.0259V29.0956V29.165V29.2342V29.3031V29.3717V29.4401V29.5082V29.576V29.6436V29.7108V29.7778V29.8445V29.9109V29.9771V30.0429V30.1084V30.1737V30.2387V30.3033V30.3677V30.4317V30.4955V30.5589V30.6221V30.6849V30.7475V30.8097V30.8716V30.9331V30.9944V31.0554V31.116V31.1763V31.2362V31.2959V31.3552V31.4142V31.4728V31.5311V31.5891V31.6467V31.704V31.7609V31.8175V31.8738V31.9297V31.9852V32.0404V32.0953V32.1497V32.2038V32.2576V32.311V32.364V32.4167V32.469V32.5209V32.5724V32.6236V32.6744V32.7248V32.7748V32.8245V32.8737V32.9226V32.9711V33.0192V33.0669V33.1142V33.1611V33.2076V33.2537V33.2994V33.3447V33.3896V33.4341V33.4782V33.5219V33.5651V33.6079C31.545 35.3497 31.0407 36.5567 30.312 37.4021C29.5782 38.2534 28.5901 38.7688 27.5758 39.0738C26.5615 39.3787 25.5402 39.4673 24.7675 39.4783C24.3823 39.4837 24.0619 39.4699 23.8389 39.4548C23.7274 39.4472 23.6405 39.4394 23.5822 39.4335C23.553 39.4306 23.5311 39.4282 23.5168 39.4265L23.5012 39.4247L23.4978 39.4243L23.4975 39.4242Z" stroke="#FFF500" stroke-width="0.736523"/>
</svg>
