<svg fill="none" height="47" viewBox="0 0 32 47" width="32" xmlns="http://www.w3.org/2000/svg"><path d="m23.4975 39.4242h-.0002l-.4987-.0644.0892.4945.0001.0002v.0003l.0003.0013.0017.0108c.0016.0102.0041.0264.0072.0484.006.0438.0141.1102.0218.1959.0152.1715.0283.4192.0185.7174-.0197.5984-.131 1.3876-.491 2.171-.3576.7785-.9634 1.5583-1.9875 2.1471-1.0277.591-2.4987 1.0022-4.604 1.0022h-.0361-.0362-.0363-.0363-.0365-.0365-.0365-.0367-.0367-.0368-.0369-.037-.037-.0371-.0371-.0373-.0373-.0373-.0375-.0375-.0375-.0377-.0377-.0378-.0378-.0379-.038-.038-.0381-.0381-.0383-.0382-.0384-.0384-.0384-.0385-.0386-.0386-.0387-.0388-.0388-.0388-.0389-.039-.039-.0391-.0391-.0392-.0392-.0392-.0394-.0393-.0395-.0394-.0395-.0396-.0396-.0397-.0397-.0397-.0398-.0398-.0399-.0399-.04-.04-.04-.0401-.0401-.0402-.0402-.0402-.0403-.0403-.0403-.0404-.0404-.0405-.0404-.0406-.0405-.0406-.0406-.0406-.0407-.0407-.0407-.0408-.0408-.0408-.0408-.0409-.0409-.0409-.0409-.041-.0409-.0411-.041-.041-.0411-.0411-.0411-.0411-.0412-.0411-.0412-.0412-.0412-.0412-.0413-.0412-.0413-.0413-.0413-.0413-.0413-.0414-.0413-.0413-.0414-.0414-.0413-.0414-.0414-.0414-.0414-.0414-.0414-.0414-.0415-.0414-.0414-.0414-.0414-.0415-.0414-.0414-.0414-.0414-.0415-.0414-.0414-.0414-.0414-.0414-.0414-.0413-.0414-.0414-.0413-.0414-.04131-.04132-.04132-.0413-.04129-.04128-.04127-.04125-.04124-.04122-.04121-.04119-.04117-.04116-.04114-.04112-.0411-.04108-.04106-.04104-.04102-.041-.04097-.04095-.04093-.04091-.04087-.04086-.04082-.0408-.04078-.04074-.04072-.04069-.04065-.04063-.0406-.04056-.04054-.0405-.04047-.04043-.0404-.04037-.04033-.04029-.04026-.04022-.04018-.04015-.0401-.04007-.04002-.03999-.03994-.0399-.03986-.03982-.03977-.03973-.03968-.03964-.03959-.03955-.0395-.03945-.0394-.03936-.0393-.03925-.03921-.03915-.0391-.03905-.039-.03894-.03889-.03883-.03878-.03872-.03866-.03861-.03855-.0385-.03843-.03838-.03831-.03825-.0382-.03813-.03807-.038-.03795-.03788-.03781-.03775-.03768-.03762-.03755-.03748-.03741-.03735-.03728-.0372-.03714-.03706-.03699-.03693-.03684-.03678-.0367-.03662-.03656-.03647-.0364-.03632-.03625-.03616-.03609-.03601-.03593-.03585-.03576-.03569-.0356-.03553-.03543-.03536-.03527-.03518-.0351-.03501-.03493-.03484-.03475-.03466-.03457-.03448-.0344-.0343-.03421-.03412-.03402-.03393-.03384-.03375-.03364-.03356-.03346-.03336-.03326-.03316-.03307-.03297-.03287-.03277-.03266-.03257-.03246-.03236-.03226-.03215-.03205-.03195-.03184-.03173-.03163-.03152-.03141-.0313-.0312-.03108-.03098-.03086-.03075-.03064-.03053-.03042-.0303-.03018-.03008-.02995-.02984-.02973-.0296-.02949-.02937-.02926-.02913-.02901-.02889-.02877-.02865-.02853-.0284-.02828-.02816-.02803-.0279-.02778-.02765-.02753-.0274-.02727-.02714-.02701-.02688-.02675-.02662-.02649-.02635-.02623-.02608-.02596-.02582-.02568-.02555-.02542-.02527-.02514-.025-.02486-.02472-.02458-.02445-.0243-.02415-.02402-.02387-.02373-.02359-.02344-.0233-.02315-.023-.02286-.02271-.02256-.02241-.02226-.02212-.02196-.02181-.02166-.02151-.02135-.02121-.02104-.0209-.02074-.02058-.02042-.02027-.02012-.01995-.0198-.01963-.01948-.01931-.01916-.01899-.01883-.01867-.01851-.01834-.01817-.01802-.01784-.01768-.01752-.01734-.01718-.01701-.01684-.01667-.0165-.016328-.016157-.015986-.015813-.01564-.015466-.015291-.015117-.014941-.014765-.014588-.014411-.014233-.014054-.013875-.013696-.013516-.013334-.013154-.012971-.012789-.012605-.012422-.012238-.006603v-45.01208h30.888103v.01572.02056.02108.02158.02209.02259.0231.0236.0241.02459.02509.02559.02607.02656.02705.02754.02802.02849.02898.02946.02993.03041.03087.03135.03181.03228.03274.03321.03366.03412.03458.03503.03548.03593.03638.03683.03727.03771.03816.03859.03902.03946.0399.04032.04075.04118.0416.04203.04244.04287.04328.04369.04411.04452.04493.04533.04574.04614.04654.04694.04734.04773.04813.04852.0489.04929.04968.05006.05045.05082.0512.05157.05195.05232.05269.05306.05342.05379.05414.05451.05486.05523.05557.05593.05627.05663.05697.05731.05766.05799.05834.05867.059.05934.05967.05999.06032.06065.06097.06129.0616.06193.06224.06255.06286.06317.06348.06378.06409.06438.06469.06498.06528.06556.06587.06615.06643.06673.067.06729.06756.06785.06812.06839.06866.06893.06921.06946.06973.06999.07025.07051.07077.07102.07127.07152.07177.07201.07226.0725.07274.07298.07321.07345.07368.07391.07414.07437.07459.07481.07503.07526.07547.07568.07589.07611.07632.07652.07672.07693.07713.07733.07753.07772.07792.07808.0783.0785.0787.0788.079.0793.0793.0796.0797.08.08.0803.0804.0806.0807.0809.081.0813.0813.0815.0817.0818.082.0821.0822.0824.0825.0827.0828.0829.0831.0831.0834.0834.0836.0836.0838.0839.0841.0841.0843.0843.0845.0846.0846.0848.0849.085.085.0852.0852.0854.0854.0855.0856.0857.0857.0859.0859.086.086.0861.0862.0863.0863.0864.0864.0865.0866.0866.0866.0868.0867.0868.0869.0869.0869.087.087.087.0871.0871.0871.0872.0871.0872.0873.0872.0873.0872.0873.0873.0873.0873.0874.0873.0873.0873.0873.0874.0873.0873.0872.0873.0873.0872.0872.0872.0872.0872.0871.0871.0871.087.087.087.0869.0869.0868.0868.0868.0867.0866.0867.0865.0865.0864.0864.0863.0863.0862.0861.086.086.0859.0858.0858.0856.0856.0855.0855.0853.0852.0852.085.085.0849.0847.0847.0846.0844.0844.0842.0842.084.0839.0838.0836.0836.0834.0833.0832.083.0829.0828.0827.0825.0824.0822.0821.0819.0818.0817.0815.0813.0812.0811.0809.0807.0805.0804.0803.08.0799.0798.0795.0794.0792.079.0788.0787.0784.0783.0781.0779.0777.0775.0773.0772.0769.0767.0765.0763.0761.0759.0756.0755.0752.075.0748.0746.0743.0742.0738.0737.0734.0732.073.0727.0725.0722.072.0718.0715.0712.071.0708.0705.0702.07.0697.0694.0692.0689.0686.0684.0681.0678.0676.0672.067.0667.0664.0662.0658.0655.0653.065.0646.0644.064.0638.0634.0632.0628.0626.0622.0619.0615.0613.061.0606.0603.0599.0597.0593.059.0586.0583.058.0576.0573.0569.0566.0563.0559.0555.0552.0549.0544.0541.0538.0534.053.0527.0523.0519.0515.0512.0508.0504.05.0497.0492.0489.0485.0481.0477.0473.0469.0465.0461.0457.0453.0449.0445.0441.0437.0432.0428c0 1.7418-.5043 2.9488-1.233 3.7942-.7338.8513-1.7219 1.3667-2.7362 1.6717-1.0143.3049-2.0356.3935-2.8083.4045-.3852.0054-.7056-.0084-.9286-.0235-.1115-.0076-.1984-.0154-.2567-.0213-.0292-.0029-.0511-.0053-.0654-.007l-.0156-.0018-.0034-.0004z" stroke="#fff500" stroke-width=".736523"/></svg>