<svg fill="none" height="47" viewBox="0 0 32 47" width="32" xmlns="http://www.w3.org/2000/svg"><path d="m23.4977 39.4237h-.0002l-.4987-.0644.0892.4945.0001.0002v.0003l.0002.0014.0018.0107c.0016.0102.0041.0265.0071.0484.0061.0438.0142.1102.0219.1959.0152.1715.0283.4192.0185.7174-.0197.5985-.1311 1.3876-.491 2.171-.3577.7785-.9635 1.5583-1.9876 2.1472-1.0276.5909-2.4986 1.0022-4.6039 1.0022h-.0361-.0362-.0363-.0364-.0364-.0365-.0366-.0366-.0367-.0368-.0369-.037-.037-.0371-.0371-.0373-.0373-.0373-.0375-.0375-.0376-.0376-.0377-.0378-.0378-.0379-.038-.038-.0381-.0382-.0382-.0382-.0384-.0384-.0384-.0385-.0386-.0386-.0387-.0388-.0388-.0388-.0389-.039-.039-.0391-.0391-.0392-.0392-.0393-.0393-.0394-.0394-.0394-.0396-.0395-.0396-.0397-.0397-.0397-.0398-.0399-.0398-.0399-.04-.04-.04-.0401-.0401-.0402-.0402-.0402-.0403-.0403-.0403-.0404-.0404-.0405-.0405-.0405-.0405-.0406-.0406-.0406-.0407-.0407-.0407-.0408-.0408-.0408-.0408-.0409-.0409-.0409-.0409-.041-.041-.041-.041-.041-.0411-.0411-.0411-.0411-.0412-.0411-.0412-.0412-.0412-.0413-.0412-.0413-.0412-.0413-.0413-.0413-.0413-.0414-.0413-.0414-.0413-.0414-.0414-.0413-.0414-.0414-.0414-.0414-.0414-.0415-.0414-.0414-.0414-.0414-.0415-.0414-.0414-.0414-.0414-.0415-.0414-.0414-.0414-.0414-.0414-.0414-.0414-.0413-.0414-.0414-.0413-.0414-.04132-.04133-.04131-.04131-.04129-.04128-.04126-.04126-.04123-.04123-.0412-.04119-.04118-.04116-.04114-.04111-.04111-.04108-.04106-.04104-.04102-.041-.04097-.04095-.04093-.0409-.04088-.04085-.04083-.0408-.04077-.04075-.04072-.04068-.04066-.04063-.0406-.04056-.04054-.0405-.04047-.04043-.0404-.04036-.04033-.0403-.04026-.04022-.04018-.04014-.04011-.04006-.04003-.03998-.03995-.0399-.03986-.03981-.03978-.03973-.03968-.03964-.03959-.03955-.03949-.03946-.0394-.03935-.03931-.03925-.0392-.03916-.0391-.03905-.03899-.03894-.03889-.03884-.03877-.03873-.03866-.03861-.03855-.03849-.03844-.03837-.03832-.03825-.03819-.03814-.03806-.03801-.03794-.03788-.03782-.03775-.03768-.03761-.03755-.03749-.03741-.03735-.03727-.03721-.03713-.03707-.03699-.03692-.03685-.03677-.03671-.03662-.03655-.03648-.0364-.03632-.03624-.03617-.03609-.03601-.03593-.03584-.03577-.03569-.0356-.03552-.03544-.03535-.03527-.03519-.0351-.03501-.03492-.03484-.03475-.03466-.03458-.03448-.03439-.0343-.03421-.03412-.03403-.03393-.03384-.03374-.03365-.03355-.03346-.03336-.03327-.03316-.03307-.03297-.03286-.03277-.03267-.03256-.03247-.03236-.03226-.03215-.03205-.03195-.03184-.03173-.03163-.03152-.03141-.0313-.03119-.03109-.03097-.03087-.03075-.03064-.03053-.03041-.0303-.03019-.03007-.02996-.02984-.02972-.02961-.02949-.02937-.02925-.02914-.02901-.02889-.02877-.02865-.02852-.02841-.02828-.02815-.02803-.02791-.02778-.02765-.02753-.02739-.02727-.02714-.02702-.02688-.02675-.02662-.02648-.02636-.02622-.02609-.02596-.02582-.02568-.02555-.02541-.02528-.02514-.025-.02486-.02472-.02458-.02444-.0243-.02416-.02402-.02387-.02373-.02359-.02344-.02329-.02315-.02301-.02285-.02271-.02256-.02242-.02226-.02211-.02197-.02181-.02166-.02151-.02135-.0212-.02105-.02089-.02074-.02059-.02042-.02027-.02011-.01996-.01979-.01964-.01947-.01932-.01916-.01899-.01883-.01867-.0185-.01834-.01818-.01801-.01785-.01768-.01751-.01735-.01718-.01701-.01684-.01667-.0165-.016325-.016157-.015986-.015813-.01564-.015466-.015291-.015117-.014941-.014765-.014588-.014411-.014232-.014055-.013875-.013696-.013516-.013334-.013154-.012971-.012789-.012605-.012422-.012238-.006603v-45.01217h30.88812v.01572.02056.02108.02158.02209.0226.02309.0236.0241.0246.02509.02558.02607.02656.02705.02754.02802.0285.02898.02945.02993.03041.03087.03135.03181.03228.03274.03321.03366.03412.03458.03503.03548.03594.03638.03682.03727.03772.03815.03859.03903.03946.03989.04032.04075.04118.04161.04202.04245.04286.04328.04369.04411.04452.04493.04533.04574.04614.04654.04694.04734.04773.04813.04852.0489.0493.04967.05007.05044.05082.0512.05158.05194.05232.05269.05306.05342.05379.05414.05451.05487.05522.05557.05593.05627.05663.05697.05731.05766.05799.05834.05867.059.05934.05967.05999.06032.06065.06097.06129.06161.06192.06224.06255.06286.06317.06348.06378.06409.06438.06469.06498.06528.06557.06586.06615.06643.06673.067.06729.06756.06785.06812.06839.06866.06894.0692.06946.06973.06999.07026.0705.07077.07102.07127.07152.07177.07201.07226.0725.07274.07298.07321.07345.07368.07391.07414.07437.07459.07481.07504.07525.07547.07568.0759.0761.07632.07652.07673.07692.07714.07732.07753.07772.07792.07807.0783.0785.0787.0788.0791.0792.0794.0795.0798.0799.08.0803.0804.0806.0807.0809.0811.0812.0813.0815.0817.0818.082.0821.0822.0824.0825.0827.0828.0829.0831.0832.0833.0834.0836.0836.0838.084.084.0841.0843.0843.0845.0846.0846.0848.0849.085.085.0852.0852.0854.0854.0855.0856.0857.0857.0859.0859.086.086.0861.0862.0863.0863.0864.0864.0865.0866.0866.0867.0867.0867.0868.0869.0869.0869.087.087.087.0871.0871.0871.0872.0872.0872.0872.0872.0873.0873.0872.0873.0873.0874.0873.0873.0873.0873.0874.0873.0873.0873.0873.0872.0873.0872.0872.0872.0872.0872.0871.0871.0871.087.087.087.0869.0869.0868.0868.0868.0867.0867.0866.0865.0865.0864.0864.0863.0863.0862.0861.086.086.0859.0858.0858.0857.0855.0856.0854.0853.0852.0852.0851.0849.0849.0848.0846.0846.0844.0844.0842.0842.084.0839.0838.0836.0836.0834.0833.0832.083.083.0827.0827.0825.0824.0822.0821.0819.0818.0817.0815.0814.0811.0811.0809.0807.0806.0804.0802.0801.0798.0798.0795.0794.0792.079.0788.0787.0785.0782.0781.0779.0777.0775.0774.0771.0769.0767.0765.0763.0761.0759.0756.0755.0752.075.0748.0746.0743.0742.0739.0736.0735.0731.073.0727.0725.0722.072.0718.0715.0712.071.0708.0705.0702.07.0697.0694.0692.0689.0687.0683.0681.0678.0676.0672.067.0667.0664.0662.0658.0656.0652.065.0646.0644.064.0638.0635.0631.0628.0626.0622.0619.0616.0612.061.0606.0603.0599.0597.0593.059.0586.0583.058.0576.0573.057.0565.0563.0559.0555.0552.0549.0544.0542.0537.0534.053.0527.0523.0519.0515.0512.0508.0504.05.0497.0493.0488.0485.0481.0477.0473.0469.0465.0461.0458.0452.0449.0445.0441.0437.0432.0428c0 1.7418-.5043 2.9488-1.233 3.7942-.7338.8513-1.7219 1.3667-2.7362 1.6717-1.0144.3049-2.0356.3935-2.8084.4045-.3851.0054-.7055-.0084-.9286-.0235-.1114-.0076-.1983-.0154-.2566-.0213-.0292-.0029-.0511-.0053-.0654-.007l-.0156-.0018-.0034-.0004z" stroke="#fff500" stroke-width=".736523"/></svg>