<svg fill="none" height="46" viewBox="0 0 32 46" width="32" xmlns="http://www.w3.org/2000/svg"><path d="m23.4979 38.6923h-.0002l-.4986-.0644.0892.4944v.0001.0001l.0001.0004.0002.0013.0017.0107c.0017.0102.0042.0265.0072.0484.006.0439.0142.1103.0218.196.0153.1715.0283.4192.0185.7173-.0196.5985-.131 1.3876-.4909 2.1711-.3577.7785-.9635 1.5582-1.9876 2.1471-1.0277.5909-2.4987 1.0022-4.604 1.0022h-.0361-.0362-.0363-.0363-.0364-.0365-.0366-.0367-.0367-.0368-.0369-.0369-.037-.0371-.0372-.0372-.0373-.0374-.0374-.0375-.0376-.0377-.0377-.0377-.0379-.0379-.0379-.0381-.0381-.0381-.0382-.0383-.0383-.0384-.0385-.0385-.0386-.0386-.0387-.0387-.0388-.0389-.0389-.039-.039-.039-.0392-.0391-.0392-.0393-.0393-.0394-.0394-.0395-.0395-.0396-.0396-.0396-.0397-.0398-.0398-.0398-.0399-.0399-.04-.04-.04-.0401-.0401-.0402-.0402-.0402-.0403-.0403-.0403-.0404-.0404-.0404-.0405-.0405-.0406-.0406-.0406-.0406-.0407-.0407-.0407-.0408-.0407-.0408-.0409-.0408-.0409-.0409-.041-.0409-.041-.041-.0411-.041-.0411-.0411-.0411-.0411-.0411-.0412-.0412-.0412-.0412-.0412-.0413-.0412-.0413-.0413-.0413-.0413-.0413-.0413-.0414-.0413-.0414-.0413-.0414-.0414-.0414-.0414-.0414-.0414-.0414-.0414-.0414-.0414-.0415-.0414-.0414-.0414-.0415-.0414-.0414-.0414-.0414-.0414-.0414-.0414-.0414-.0414-.0414-.0414-.0414-.0413-.0414-.0413-.04138-.04133-.04131-.0413-.0413-.04128-.04126-.04125-.04124-.04122-.04121-.04119-.04117-.04116-.04114-.04112-.0411-.04108-.04106-.04105-.04101-.041-.04098-.04095-.04093-.0409-.04088-.04085-.04083-.0408-.04077-.04074-.04072-.04069-.04066-.04062-.0406-.04057-.04053-.0405-.04047-.04043-.04041-.04036-.04033-.04029-.04026-.04022-.04018-.04015-.0401-.04007-.04002-.03999-.03994-.0399-.03986-.03982-.03977-.03973-.03969-.03963-.0396-.03954-.0395-.03945-.0394-.03936-.0393-.03926-.0392-.03915-.0391-.03905-.039-.03894-.03889-.03883-.03878-.03872-.03867-.03861-.03855-.03849-.03843-.03838-.03831-.03826-.03819-.03813-.03807-.03801-.03794-.03788-.03781-.03775-.03768-.03762-.03755-.03748-.03742-.03734-.03728-.0372-.03714-.03706-.037-.03692-.03685-.03677-.0367-.03663-.03655-.03647-.0364-.03632-.03625-.03617-.03608-.03601-.03593-.03585-.03577-.03568-.03561-.03552-.03544-.03535-.03527-.03518-.0351-.03501-.03493-.03484-.03475-.03466-.03457-.03449-.03439-.0343-.03421-.03412-.03402-.03394-.03383-.03375-.03365-.03355-.03346-.03336-.03326-.03317-.03306-.03297-.03287-.03277-.03267-.03256-.03246-.03237-.03225-.03216-.03205-.03194-.03184-.03173-.03163-.03152-.03141-.03131-.03119-.03108-.03098-.03086-.03076-.03064-.03052-.03042-.0303-.03019-.03007-.02996-.02984-.02972-.02961-.02949-.02937-.02925-.02913-.02901-.0289-.02877-.02864-.02853-.0284-.02828-.02816-.02803-.0279-.02778-.02766-.02752-.0274-.02727-.02714-.02701-.02688-.02675-.02662-.02649-.02636-.02622-.02609-.02595-.02582-.02569-.02555-.02541-.02527-.02514-.025-.02486-.02473-.02458-.02444-.0243-.02416-.02401-.02388-.02373-.02358-.02344-.0233-.02315-.023-.02286-.02271-.02256-.02241-.02227-.02211-.02196-.02181-.02166-.02151-.02136-.0212-.02105-.02089-.02074-.02058-.02043-.02027-.02011-.01995-.0198-.01963-.01948-.01932-.01915-.01899-.01884-.01866-.01851-.01834-.01818-.01801-.01785-.01768-.01751-.01734-.01718-.01701-.01684-.01667-.0165-.01633-.016158-.015986-.015813-.01564-.015465-.015292-.015117-.014941-.014764-.014589-.01441-.014233-.014055-.013875-.013696-.013515-.013335-.013153-.012972-.012788-.012606-.012422-.012237-.006604v-45.012118h30.888076v.01572.020565.021075.021583.022091.022595.023098.023599.024097.024595.02509.025582.026074.026563.02705.027535.028018.028499.028979.029456.029931.030405.030876.031342.03182.03228.03274.0332.03367.03412.03457.03504.03548.03593.03638.03683.03727.03771.03815.03859.03903.03946.03989.04033.04075.04118.0416.04202.04245.04286.04328.0437.04411.04451.04493.04534.04573.04614.04655.04694.04734.04773.04812.04852.04891.04929.04968.05006.05044.05083.0512.05157.05195.05232.05269.05305.05343.05378.05415.05451.05486.05522.05558.05592.05628.05662.05697.05732.05765.058.05833.05867.05901.05933.05967.06.06032.06065.06096.06129.06161.06192.06224.06255.06287.06317.06347.06379.06408.06439.06468.06498.06528.06557.06586.06615.06644.06672.06701.06728.06757.06784.06812.06839.06867.06893.0692.06947.06973.06999.07025.07051.07076.07102.07127.07152.07177.07202.07225.0725.07274.07298.07322.07345.07368.07391.07414.07436.07459.07482.07503.07525.07547.07568.0759.07611.07631.07652.07673.07693.07713.07733.07753.07772.07791.07811.07829.07848.07867.07885.07903.07921.07939.07956.07974.07989.0801.0802.0805.0805.0808.0809.081.0812.0814.0815.0817.0818.0819.0821.0823.0824.0825.0827.0827.083.083.0832.0833.0835.0835.0837.0838.0839.084.0842.0842.0844.0845.0845.0847.0848.0848.085.0851.0851.0853.0853.0855.0855.0856.0856.0858.0858.0859.086.0861.0861.0862.0862.0864.0864.0864.0865.0865.0867.0866.0867.0868.0868.0868.0869.087.0869.087.0871.087.0871.0872.0871.0872.0872.0872.0873.0872.0873.0873.0873.0873.0873.0873.0873.0874.0873.0873.0873.0873.0873.0873.0873.0872.0873.0872.0872.0872.0871.0872.0871.087.0871.087.0869.087.0868.0869.0868.0867.0868.0866.0866.0866.0865.0864.0864.0863.0862.0862.0861.0861.086.0859.0858.0857.0857.0856.0855.0854.0854.0852.0852.085.085.0848.0848.0847.0845.0845.0843.0843.0841.084.0839.0838.0837.0836.0834.0833.0832.083.0829.0828.0826.0826.0823.0823.0821.0819.0818.0817.0815.0813.0812.081.0809.0808.0805.0804.0802.0801.0799.0797.0796.0793.0792.0791.0788.0786.0785.0783.0781.0779.0777.0775.0773.0771.0769.0767.0766.0763.076.0759.0757.0754.0753.075.0748.0746.0743.0741.0739.0737.0734.0732.073.0727.0725.0722.072.0717.0715.0713.071.0707.0705.0703.0699.0697.0695.0692.0689.0686.0684.0681.0678.0675.0673.067.0667.0664.0661.0659.0655.0653.0649.0647.0643.0641.0638.0634.0632.0628.0625.0622.0619.0616.0613.0609.0606.0603.06.0596.0594.0589.0587.0583.0579.0577.0573.0569.0566.0562.0559.0556.0552.0548.0545.0541.0538.0534.053.0526.0523.052.0515.0512.0508.0504.05.0497.0492.0489.0485.0481.0477.0473.0469.0465.0461.0457.0453.0449.0445.0441.0436.0433.0428c0 1.7418-.5043 2.9487-1.233 3.7941-.7338.8514-1.7218 1.3667-2.7362 1.6717-1.0143.305-2.0355.3936-2.8083.4045-.3852.0055-.7056-.0084-.9286-.0235-.1115-.0075-.1984-.0153-.2567-.0212-.0291-.0029-.0511-.0054-.0654-.007l-.0156-.0019-.0034-.0004z" stroke="#fff500" stroke-width=".736523"/></svg>