<svg width="32" height="47" viewBox="0 0 32 47" fill="none" xmlns="http://www.w3.org/2000/svg">
<path d="M23.4977 39.4236L23.4975 39.4236L22.9988 39.3592L23.088 39.8537L23.088 39.8537L23.0881 39.8539L23.0881 39.8542L23.0883 39.8555L23.0901 39.8662C23.0917 39.8765 23.0942 39.8927 23.0972 39.9147C23.1033 39.9585 23.1114 40.0249 23.1191 40.1106C23.1343 40.2821 23.1474 40.5298 23.1376 40.828C23.1179 41.4264 23.0065 42.2156 22.6466 42.999C22.2889 43.7775 21.6831 44.5573 20.659 45.1461C19.6314 45.737 18.1604 46.1483 16.0551 46.1483H16.019H15.9828H15.9465H15.9101H15.8737H15.8372H15.8006H15.764H15.7273H15.6905H15.6536H15.6166H15.5796H15.5425H15.5054H15.4681H15.4308H15.3935H15.356H15.3185H15.2809H15.2433H15.2056H15.1678H15.13H15.0921H15.0541H15.0161H14.978H14.9398H14.9016H14.8634H14.825H14.7866H14.7482H14.7097H14.6711H14.6325H14.5938H14.555H14.5162H14.4774H14.4385H14.3995H14.3605H14.3214H14.2823H14.2431H14.2039H14.1646H14.1253H14.0859H14.0465H14.0071H13.9675H13.928H13.8884H13.8487H13.809H13.7693H13.7295H13.6896H13.6498H13.6099H13.5699H13.5299H13.4899H13.4498H13.4097H13.3695H13.3293H13.2891H13.2488H13.2085H13.1682H13.1278H13.0874H13.0469H13.0064H12.9659H12.9254H12.8848H12.8442H12.8036H12.7629H12.7222H12.6815H12.6407H12.5999H12.5591H12.5183H12.4774H12.4365H12.3956H12.3547H12.3137H12.2727H12.2317H12.1907H12.1497H12.1086H12.0675H12.0264H11.9853H11.9441H11.903H11.8618H11.8206H11.7794H11.7381H11.6969H11.6556H11.6144H11.5731H11.5318H11.4905H11.4492H11.4078H11.3665H11.3251H11.2838H11.2424H11.201H11.1597H11.1183H11.0769H11.0355H10.9941H10.9527H10.9112H10.8698H10.8284H10.787H10.7456H10.7041H10.6627H10.6213H10.5799H10.5385H10.497H10.4556H10.4142H10.3728H10.3314H10.29H10.2486H10.2072H10.1659H10.1245H10.0831H10.0418H10.0004H9.95908H9.91775H9.87644H9.83513H9.79384H9.75256H9.7113H9.67004H9.62881H9.58758H9.54638H9.50519H9.46401H9.42285H9.38171H9.3406H9.29949H9.25841H9.21735H9.17631H9.13529H9.09429H9.05332H9.01237H8.97144H8.93054H8.88966H8.84881H8.80798H8.76718H8.72641H8.68566H8.64494H8.60426H8.5636H8.52297H8.48237H8.44181H8.40127H8.36077H8.3203H8.27987H8.23947H8.19911H8.15878H8.11848H8.07822H8.038H7.99782H7.95768H7.91757H7.87751H7.83748H7.7975H7.75755H7.71765H7.67779H7.63798H7.5982H7.55847H7.51879H7.47915H7.43956H7.40001H7.36052H7.32106H7.28166H7.24231H7.203H7.16375H7.12455H7.08539H7.04629H7.00724H6.96825H6.92931H6.89042H6.85158H6.81281H6.77408H6.73542H6.69681H6.65826H6.61977H6.58133H6.54296H6.50464H6.46639H6.4282H6.39006H6.352H6.31399H6.27605H6.23817H6.20035H6.1626H6.12492H6.08731H6.04976H6.01227H5.97486H5.93751H5.90024H5.86303H5.8259H5.78883H5.75184H5.71492H5.67807H5.6413H5.60459H5.56797H5.53142H5.49494H5.45854H5.42222H5.38598H5.34981H5.31372H5.27771H5.24178H5.20594H5.17017H5.13448H5.09888H5.06336H5.02792H4.99257H4.9573H4.92211H4.88701H4.852H4.81708H4.78224H4.74749H4.71283H4.67825H4.64377H4.60938H4.57508H4.54087H4.50675H4.47272H4.43879H4.40495H4.37121H4.33756H4.30401H4.27055H4.23719H4.20392H4.17076H4.13769H4.10472H4.07186H4.03909H4.00642H3.97386H3.94139H3.90903H3.87677H3.84462H3.81257H3.78062H3.74878H3.71705H3.68542H3.6539H3.62249H3.59119H3.56H3.52891H3.49794H3.46707H3.43632H3.40568H3.37515H3.34474H3.31444H3.28425H3.25418H3.22422H3.19438H3.16466H3.13505H3.10556H3.07619H3.04694H3.0178H2.98879H2.9599H2.93113H2.90248H2.87396H2.84555H2.81727H2.78912H2.76109H2.73318H2.7054H2.67775H2.65022H2.62283H2.59556H2.56842H2.5414H2.51452H2.48777H2.46115H2.43467H2.40831H2.38209H2.356H2.33004H2.30422H2.27854H2.25299H2.22758H2.2023H2.17716H2.15216H2.1273H2.10258H2.078H2.05356H2.02926H2.0051H1.98108H1.95721H1.93348H1.90989H1.88645H1.86316H1.84001H1.817H1.79415H1.77144H1.74888H1.72646H1.7042H1.68209H1.66012H1.63831H1.61665H1.59514H1.57379H1.55259H1.53154H1.51065H1.48991H1.46932H1.4489H1.42863H1.40852H1.38856H1.36877H1.34913H1.32966H1.31034H1.29118H1.27219H1.25336H1.23469H1.21619H1.19785H1.17967H1.16166H1.14381H1.12613H1.10862H1.09127H1.07409H1.05708H1.04024H1.02357H1.00707H0.990745H0.974588H0.958602H0.942789H0.927149H0.911683H0.896392H0.881275H0.866334H0.851569H0.836981H0.82257H0.808338H0.794283H0.780408H0.766712H0.753196H0.739862H0.726708H0.713737H0.700948H0.688343H0.675921H0.663683H0.65708V1.13621H31.5452V1.15193V1.17249V1.19356V1.21515V1.23724V1.25983V1.28293V1.30653V1.33063V1.35522V1.38031V1.4059V1.43197V1.45853V1.48558V1.51312V1.54113V1.56963V1.59861V1.62807V1.658V1.68841V1.71928V1.75063V1.78244V1.81472V1.84746V1.88067V1.91433V1.94845V1.98303V2.01806V2.05354V2.08947V2.12585V2.16268V2.19995V2.23766V2.27582V2.31441V2.35343V2.39289V2.43279V2.47311V2.51386V2.55504V2.59664V2.63867V2.68111V2.72398V2.76726V2.81095V2.85506V2.89958V2.9445V2.98984V3.03558V3.08172V3.12826V3.1752V3.22254V3.27027V3.3184V3.36691V3.41582V3.46511V3.51479V3.56485V3.6153V3.66612V3.71732V3.76889V3.82084V3.87316V3.92585V3.97891V4.03233V4.08611V4.14026V4.19477V4.24963V4.30485V4.36043V4.41636V4.47263V4.52926V4.58623V4.64354V4.7012V4.75919V4.81753V4.8762V4.9352V4.99454V5.0542V5.1142V5.17452V5.23517V5.29614V5.35743V5.41903V5.48096V5.5432V5.60575V5.66861V5.73178V5.79526V5.85904V5.92313V5.98751V6.0522V6.11718V6.18245V6.24802V6.31389V6.38003V6.44647V6.51319V6.5802V6.64749V6.71505V6.7829V6.85102V6.91941V6.98807V7.057V7.1262V7.19567V7.2654V7.33539V7.40564V7.47615V7.54692V7.61794V7.68921V7.76073V7.83249V7.90451V7.97677V8.04927V8.12201V8.19499V8.2682V8.34165V8.41533V8.48924V8.56338V8.63775V8.71234V8.78715V8.86218V8.93744V9.01291V9.08859V9.16448V9.24059V9.31691V9.39343V9.47015V9.54708V9.62421V9.70154V9.77907V9.85679V9.9347V10.0128V10.0911V10.1696V10.2483V10.3271V10.4061V10.4853V10.5647V10.6443V10.724V10.8039V10.884V10.9643V11.0447V11.1252V11.206V11.2869V11.3679V11.4491V11.5305V11.612V11.6937V11.7755V11.8575V11.9396V12.0218V12.1042V12.1867V12.2694V12.3522V12.4351V12.5182V12.6013V12.6846V12.7681V12.8516V12.9353V13.0191V13.103V13.1871V13.2712V13.3554V13.4398V13.5243V13.6088V13.6935V13.7783V13.8632V13.9481V14.0332V14.1184V14.2036V14.289V14.3744V14.4599V14.5455V14.6312V14.7169V14.8028V14.8887V14.9746V15.0607V15.1468V15.233V15.3193V15.4056V15.492V15.5784V15.6649V15.7515V15.8381V15.9247V16.0114V16.0982V16.185V16.2719V16.3587V16.4457V16.5326V16.6197V16.7067V16.7938V16.8809V16.968V17.0552V17.1423V17.2295V17.3168V17.404V17.4913V17.5785V17.6658V17.7531V17.8404V17.9277V18.0151V18.1024V18.1897V18.277V18.3643V18.4516V18.5389V18.6262V18.7135V18.8008V18.8881V18.9753V19.0625V19.1497V19.2369V19.3241V19.4112V19.4983V19.5854V19.6724V19.7594V19.8464V19.9333V20.0202V20.107V20.1938V20.2806V20.3673V20.4539V20.5405V20.6271V20.7136V20.8V20.8864V20.9727V21.059V21.1451V21.2313V21.3173V21.4033V21.4892V21.575V21.6608V21.7464V21.832V21.9175V22.003V22.0883V22.1735V22.2587V22.3437V22.4287V22.5136V22.5983V22.683V22.7676V22.852V22.9364V23.0206V23.1047V23.1888V23.2727V23.3565V23.4401V23.5237V23.6071V23.6904V23.7736V23.8566V23.9395V24.0223V24.105V24.1875V24.2699V24.3521V24.4342V24.5161V24.5979V24.6796V24.7611V24.8424V24.9236V25.0047V25.0856V25.1663V25.2468V25.3272V25.4075V25.4875V25.5674V25.6471V25.7267V25.8061V25.8853V25.9643V26.0431V26.1218V26.2002V26.2785V26.3566V26.4345V26.5122V26.5897V26.667V26.7441V26.8211V26.8978V26.9743V27.0506V27.1267V27.2025V27.2782V27.3537V27.4289V27.5039V27.5787V27.6533V27.7276V27.8017V27.8756V27.9493V28.0227V28.0959V28.1689V28.2416V28.3141V28.3863V28.4583V28.5301V28.6016V28.6728V28.7438V28.8146V28.885V28.9553V29.0252V29.095V29.1644V29.2336V29.3025V29.3711V29.4395V29.5076V29.5754V29.643V29.7102V29.7772V29.8439V29.9103V29.9764V30.0423V30.1078V30.1731V30.238V30.3027V30.3671V30.4311V30.4949V30.5583V30.6215V30.6843V30.7468V30.8091V30.871V30.9325V30.9938V31.0547V31.1154V31.1757V31.2356V31.2953V31.3546V31.4136V31.4722V31.5305V31.5885V31.6461V31.7034V31.7603V31.8169V31.8732V31.9291V31.9846V32.0398V32.0946V32.1491V32.2032V32.257V32.3104V32.3634V32.4161V32.4684V32.5203V32.5718V32.623V32.6738V32.7242V32.7742V32.8239V32.8731V32.922V32.9705V33.0186V33.0663V33.1136V33.1605V33.207V33.2531V33.2988V33.3441V33.389V33.4335V33.4776V33.5212V33.5645V33.6073C31.5452 35.3491 31.0409 36.5561 30.3122 37.4015C29.5784 38.2528 28.5903 38.7682 27.576 39.0732C26.5616 39.3781 25.5404 39.4667 24.7676 39.4777C24.3825 39.4831 24.0621 39.4693 23.839 39.4542C23.7276 39.4466 23.6407 39.4388 23.5824 39.4329C23.5532 39.43 23.5313 39.4276 23.517 39.4259L23.5014 39.4241L23.498 39.4237L23.4977 39.4236Z" stroke="#FFF500" stroke-width="0.736523"/>
</svg>
