<svg width="33" height="47" viewBox="0 0 33 47" fill="none" xmlns="http://www.w3.org/2000/svg">
<path d="M24.039 38.9462L24.0388 38.9462L23.5366 38.8814L23.6264 39.3794L23.6264 39.3795L23.6265 39.3799L23.6267 39.3812L23.6285 39.392C23.6301 39.4023 23.6326 39.4187 23.6357 39.4408C23.6418 39.4849 23.65 39.5518 23.6577 39.6381C23.673 39.8108 23.6862 40.0603 23.6763 40.3606C23.6565 40.9633 23.5443 41.758 23.1819 42.547C22.8216 43.3311 22.2115 44.1164 21.1801 44.7094C20.1452 45.3046 18.6637 45.7188 16.5434 45.7188H16.5071H16.4706H16.4341H16.3975H16.3608H16.324H16.2872H16.2503H16.2133H16.1762H16.1391H16.1019H16.0646H16.0272H15.9898H15.9523H15.9147H15.8771H15.8394H15.8016H15.7638H15.7259H15.6879H15.6499H15.6118H15.5736H15.5354H15.4971H15.4587H15.4203H15.3818H15.3432H15.3046H15.266H15.2272H15.1884H15.1496H15.1107H15.0717H15.0327H14.9936H14.9545H14.9153H14.8761H14.8368H14.7974H14.758H14.7186H14.6791H14.6395H14.5999H14.5603H14.5206H14.4808H14.441H14.4012H14.3613H14.3214H14.2814H14.2414H14.2013H14.1612H14.121H14.0808H14.0406H14.0003H13.96H13.9196H13.8792H13.8388H13.7983H13.7578H13.7172H13.6766H13.636H13.5953H13.5546H13.5139H13.4731H13.4323H13.3915H13.3506H13.3097H13.2688H13.2278H13.1868H13.1458H13.1048H13.0637H13.0226H12.9815H12.9403H12.8991H12.8579H12.8167H12.7755H12.7342H12.6929H12.6516H12.6102H12.5689H12.5275H12.4861H12.4447H12.4032H12.3618H12.3203H12.2788H12.2373H12.1958H12.1543H12.1127H12.0711H12.0296H11.988H11.9464H11.9048H11.8631H11.8215H11.7799H11.7382H11.6965H11.6549H11.6132H11.5715H11.5298H11.4881H11.4464H11.4047H11.363H11.3213H11.2796H11.2379H11.1962H11.1544H11.1127H11.071H11.0293H10.9876H10.9459H10.9042H10.8625H10.8208H10.7791H10.7374H10.6957H10.654H10.6123H10.5707H10.529H10.4873H10.4457H10.4041H10.3625H10.3208H10.2792H10.2377H10.1961H10.1545H10.113H10.0715H10.0299H9.98844H9.94696H9.90549H9.86404H9.82261H9.78119H9.7398H9.69843H9.65707H9.61574H9.57443H9.53314H9.49188H9.45063H9.40941H9.36822H9.32705H9.28591H9.24479H9.2037H9.16264H9.1216H9.0806H9.03962H8.99867H8.95776H8.91687H8.87602H8.83519H8.7944H8.75365H8.71293H8.67224H8.63159H8.59097H8.55039H8.50985H8.46934H8.42887H8.38844H8.34805H8.3077H8.26739H8.22712H8.18689H8.14671H8.10656H8.06647H8.02641H7.9864H7.94643H7.90651H7.86664H7.82681H7.78703H7.7473H7.70762H7.66798H7.6284H7.58887H7.54938H7.50995H7.47057H7.43125H7.39197H7.35276H7.31359H7.27448H7.23543H7.19643H7.15749H7.11861H7.07978H7.04101H7.00231H6.96366H6.92507H6.88655H6.84808H6.80968H6.77134H6.73306H6.69485H6.6567H6.61862H6.5806H6.54265H6.50477H6.46695H6.4292H6.39152H6.35391H6.31637H6.2789H6.2415H6.20417H6.16691H6.12973H6.09262H6.05558H6.01862H5.98174H5.94493H5.90819H5.87153H5.83495H5.79845H5.76203H5.72568H5.68942H5.65323H5.61713H5.58111H5.54517H5.50931H5.47354H5.43785H5.40224H5.36672H5.33129H5.29594H5.26068H5.2255H5.19042H5.15542H5.12051H5.08569H5.05096H5.01633H4.98178H4.94733H4.91297H4.8787H4.84453H4.81045H4.77646H4.74258H4.70878H4.67509H4.64149H4.60799H4.57459H4.54129H4.50808H4.47498H4.44198H4.40908H4.37629H4.34359H4.311H4.27851H4.24613H4.21385H4.18168H4.14961H4.11765H4.0858H4.05406H4.02242H3.9909H3.95948H3.92818H3.89698H3.8659H3.83493H3.80407H3.77332H3.74269H3.71218H3.68177H3.65149H3.62132H3.59127H3.56133H3.53151H3.50181H3.47223H3.44277H3.41343H3.38422H3.35512H3.32614H3.29729H3.26856H3.23996H3.21148H3.18312H3.15489H3.12679H3.09881H3.07096H3.04324H3.01565H2.98818H2.96085H2.93365H2.90657H2.87963H2.85282H2.82615H2.79961H2.7732H2.74692H2.72078H2.69478H2.66891H2.64318H2.61759H2.59213H2.56681H2.54164H2.5166H2.4917H2.46694H2.44233H2.41786H2.39353H2.36934H2.3453H2.3214H2.29764H2.27404H2.25057H2.22726H2.20409H2.18107H2.1582H2.13548H2.11291H2.09049H2.06822H2.0461H2.02413H2.00232H1.98066H1.95915H1.9378H1.9166H1.89556H1.87467H1.85394H1.83337H1.81296H1.7927H1.77261H1.75267H1.73289H1.71328H1.69383H1.67453H1.65541H1.63644H1.61764H1.599H1.58053H1.56223H1.54409H1.52611H1.50831H1.49067H1.4732H1.4559H1.43877H1.42181H1.40502H1.3884H1.37196H1.35569H1.33959H1.32366H1.30791H1.29233H1.27693H1.26171H1.24666H1.23179H1.2171H1.20259H1.18825H1.1741H1.16012H1.14633H1.13272H1.11929H1.10604H1.09298H1.0801H1.06741H1.05489H1.04257H1.03592V0.386505H32.1437V0.402337V0.423048V0.444273V0.46601V0.488257V0.511013V0.534276V0.558042V0.582311V0.607081V0.632349V0.658114V0.684373V0.711124V0.738366V0.766097V0.794315V0.823017V0.852202V0.881867V0.912012V0.942632V0.973728V1.0053V1.03734V1.06984V1.10282V1.13626V1.17016V1.20453V1.23935V1.27463V1.31037V1.34655V1.38319V1.42028V1.45782V1.4958V1.53422V1.57309V1.61239V1.65213V1.69231V1.73292V1.77396V1.81543V1.85733V1.89965V1.9424V1.98557V2.02916V2.07316V2.11758V2.16242V2.20767V2.25332V2.29939V2.34586V2.39273V2.44V2.48768V2.53575V2.58422V2.63308V2.68233V2.73198V2.78201V2.83243V2.88323V2.93441V2.98598V3.03792V3.09024V3.14293V3.19599V3.24942V3.30323V3.3574V3.41193V3.46682V3.52208V3.57769V3.63366V3.68998V3.74666V3.80369V3.86106V3.91878V3.97685V4.03526V4.09401V4.1531V4.21252V4.27228V4.33237V4.39279V4.45354V4.51462V4.57602V4.63775V4.69979V4.76216V4.82484V4.88784V4.95115V5.01477V5.07869V5.14293V5.20747V5.27232V5.33746V5.4029V5.46865V5.53468V5.60101V5.66763V5.73454V5.80174V5.86922V5.93698V6.00503V6.07336V6.14196V6.21084V6.27999V6.34941V6.41911V6.48907V6.55929V6.62978V6.70053V6.77154V6.84281V6.91434V6.98611V7.05814V7.13042V7.20295V7.27572V7.34874V7.42199V7.49549V7.56923V7.6432V7.7174V7.79184V7.86651V7.9414V8.01652V8.09187V8.16743V8.24322V8.31923V8.39545V8.47188V8.54853V8.62539V8.70245V8.77973V8.8572V8.93488V9.01276V9.09084V9.16911V9.24758V9.32624V9.40509V9.48413V9.56336V9.64277V9.72237V9.80214V9.88209V9.96222V10.0425V10.123V10.2036V10.2845V10.3654V10.4466V10.5279V10.6094V10.691V10.7728V10.8547V10.9368V11.0191V11.1015V11.184V11.2667V11.3495V11.4325V11.5156V11.5989V11.6822V11.7658V11.8494V11.9332V12.0171V12.1011V12.1853V12.2695V12.3539V12.4384V12.5231V12.6078V12.6927V12.7776V12.8627V12.9479V13.0331V13.1185V13.204V13.2896V13.3752V13.461V13.5469V13.6328V13.7188V13.805V13.8912V13.9775V14.0638V14.1503V14.2368V14.3234V14.41V14.4968V14.5836V14.6704V14.7574V14.8444V14.9314V15.0185V15.1057V15.1929V15.2802V15.3675V15.4549V15.5423V15.6298V15.7173V15.8049V15.8925V15.9801V16.0677V16.1554V16.2431V16.3309V16.4187V16.5065V16.5943V16.6821V16.77V16.8579V16.9458V17.0337V17.1216V17.2095V17.2975V17.3854V17.4733V17.5613V17.6492V17.7372V17.8251V17.913V18.0009V18.0888V18.1767V18.2646V18.3525V18.4403V18.5281V18.6159V18.7037V18.7915V18.8792V18.9669V19.0545V19.1421V19.2297V19.3173V19.4048V19.4922V19.5797V19.667V19.7544V19.8416V19.9289V20.016V20.1031V20.1902V20.2772V20.3641V20.451V20.5378V20.6245V20.7111V20.7977V20.8842V20.9707V21.057V21.1433V21.2295V21.3156V21.4017V21.4876V21.5735V21.6592V21.7449V21.8304V21.9159V22.0013V22.0865V22.1717V22.2568V22.3417V22.4266V22.5113V22.5959V22.6804V22.7648V22.8491V22.9332V23.0172V23.1011V23.1849V23.2685V23.352V23.4354V23.5186V23.6017V23.6847V23.7675V23.8502V23.9327V24.0151V24.0973V24.1794V24.2613V24.3431V24.4247V24.5062V24.5875V24.6686V24.7496V24.8304V24.911V24.9915V25.0718V25.1519V25.2318V25.3116V25.3912V25.4706V25.5498V25.6288V25.7076V25.7863V25.8647V25.943V26.0211V26.0989V26.1766V26.254V26.3313V26.4083V26.4852V26.5618V26.6382V26.7144V26.7904V26.8662V26.9417V27.0171V27.0922V27.167V27.2417V27.3161V27.3903V27.4643V27.538V27.6115V27.6847V27.7577V27.8304V27.9029V27.9752V28.0472V28.119V28.1905V28.2617V28.3327V28.4034V28.4739V28.5441V28.614V28.6837V28.7531V28.8222V28.8911V28.9597V29.028V29.096V29.1638V29.2312V29.2984V29.3653V29.4319V29.4982V29.5642V29.6299V29.6953V29.7604V29.8253V29.8898V29.954V30.0179V30.0815V30.1448V30.2077V30.2704V30.3327V30.3948V30.4565V30.5178V30.5789V30.6396V30.7V30.7601V30.8198V30.8792V30.9383V30.997V31.0554V31.1134V31.1711V31.2284V31.2854V31.3421V31.3984V31.4543V31.5099V31.5651V31.62V31.6745V31.7286V31.7824V31.8358V31.8888V31.9415V31.9938V32.0457V32.0972V32.1484V32.1992V32.2495V32.2995V32.3492V32.3984V32.4472V32.4956V32.5437V32.5913V32.6386V32.6854V32.7318V32.7779V32.8235V32.8687V32.9135V32.9579V33.0019V33.0454V33.0886C32.1437 34.8427 31.6358 36.0583 30.9019 36.9097C30.1629 37.7671 29.1678 38.2861 28.1463 38.5933C27.1247 38.9004 26.0962 38.9896 25.318 39.0007C24.9301 39.0061 24.6074 38.9922 24.3828 38.977C24.2705 38.9694 24.183 38.9615 24.1243 38.9556C24.0949 38.9527 24.0728 38.9502 24.0584 38.9485L24.0427 38.9467L24.0393 38.9463L24.039 38.9462Z" stroke="#FFF500" stroke-width="0.741761"/>
</svg>
