<svg width="73" height="104" viewBox="0 0 73 104" fill="none" xmlns="http://www.w3.org/2000/svg">
<path d="M53.0007 87.8672L53.0002 87.8671L51.867 87.7208L52.0697 88.8445L52.0697 88.8446L52.0698 88.845L52.07 88.8458L52.0704 88.8488L52.0744 88.8731C52.0762 88.884 52.0783 88.8978 52.0809 88.9146C52.0837 88.9337 52.087 88.9566 52.0907 88.9831C52.1044 89.0828 52.1229 89.2337 52.1403 89.4284C52.175 89.8182 52.2047 90.3811 52.1824 91.0587C52.1377 92.4188 51.8845 94.2122 51.0666 95.9926C50.2537 97.7619 48.877 99.534 46.5496 100.872C44.2141 102.215 40.8711 103.15 36.0865 103.15H36.0044H35.9222H35.8398H35.7571H35.6744H35.5914H35.5083H35.425H35.3415H35.2579H35.1741H35.0901H35.006H34.9217H34.8372H34.7526H34.6679H34.5829H34.4978H34.4126H34.3272H34.2417H34.156H34.0701H33.9841H33.898H33.8117H33.7253H33.6387H33.552H33.4652H33.3782H33.2911H33.2038H33.1164H33.0289H32.9412H32.8534H32.7655H32.6775H32.5893H32.501H32.4126H32.324H32.2354H32.1466H32.0577H31.9687H31.8795H31.7903H31.7009H31.6114H31.5219H31.4322H31.3424H31.2524H31.1624H31.0723H30.9821H30.8918H30.8013H30.7108H30.6202H30.5295H30.4387H30.3478H30.2568H30.1657H30.0745H29.9832H29.8919H29.8005H29.7089H29.6173H29.5257H29.4339H29.342H29.2501H29.1581H29.0661H28.9739H28.8817H28.7894H28.6971H28.6046H28.5121H28.4196H28.327H28.2343H28.1415H28.0487H27.9559H27.8629H27.77H27.6769H27.5839H27.4907H27.3975H27.3043H27.211H27.1177H27.0243H26.9309H26.8374H26.7439H26.6503H26.5568H26.4631H26.3695H26.2758H26.182H26.0883H25.9945H25.9007H25.8068H25.7129H25.619H25.5251H25.4312H25.3372H25.2432H25.1492H25.0552H24.9611H24.8671H24.773H24.6789H24.5848H24.4907H24.3966H24.3025H24.2083H24.1142H24.0201H23.9259H23.8318H23.7376H23.6435H23.5494H23.4552H23.3611H23.267H23.1729H23.0788H22.9847H22.8907H22.7966H22.7026H22.6086H22.5145H22.4206H22.3266H22.2327H22.1387H22.0448H21.951H21.8571H21.7633H21.6695H21.5758H21.4821H21.3884H21.2947H21.2011H21.1076H21.014H20.9205H20.8271H20.7337H20.6403H20.547H20.4537H20.3605H20.2673H20.1742H20.0811H19.9881H19.8952H19.8023H19.7094H19.6167H19.5239H19.4313H19.3387H19.2461H19.1537H19.0613H18.9689H18.8767H18.7845H18.6924H18.6003H18.5084H18.4165H18.3246H18.2329H18.1413H18.0497H17.9582H17.8668H17.7755H17.6842H17.5931H17.502H17.4111H17.3202H17.2294H17.1388H17.0482H16.9577H16.8673H16.777H16.6868H16.5967H16.5068H16.4169H16.3271H16.2375H16.1479H16.0585H15.9692H15.8799H15.7908H15.7019H15.613H15.5243H15.4356H15.3471H15.2588H15.1705H15.0824H14.9944H14.9065H14.8188H14.7312H14.6437H14.5563H14.4691H14.382H14.2951H14.2083H14.1217H14.0351H13.9488H13.8625H13.7765H13.6905H13.6047H13.5191H13.4336H13.3483H13.2631H13.1781H13.0932H13.0085H12.9239H12.8395H12.7553H12.6712H12.5873H12.5036H12.42H12.3366H12.2533H12.1703H12.0874H12.0047H11.9221H11.8397H11.7576H11.6755H11.5937H11.5121H11.4306H11.3493H11.2682H11.1873H11.1066H11.026H10.9457H10.8655H10.7856H10.7058H10.6262H10.5469H10.4677H10.3887H10.3099H10.2314H10.153H10.0748H9.99688H9.91914H9.8416H9.76427H9.68716H9.61025H9.53357H9.4571H9.38084H9.30481H9.22899H9.1534H9.07802H9.00288H8.92795H8.85326H8.77879H8.70455H8.63054H8.55676H8.48322H8.40991H8.33683H8.264H8.1914H8.11904H8.04692H7.97504H7.90341H7.83203H7.76089H7.68999H7.61935H7.54896H7.47882H7.40893H7.33929H7.26992H7.20079H7.13193H7.06333H6.99499H6.92691H6.85909H6.79154H6.72425H6.65723H6.59049H6.52401H6.4578H6.39187H6.32621H6.26082H6.19572H6.13089H6.06634H6.00207H5.93808H5.87438H5.81096H5.74783H5.68499H5.62243H5.56017H5.49819H5.43651H5.37513H5.31404H5.25324H5.19275H5.13255H5.07265H5.01306H4.95377H4.89478H4.8361H4.77773H4.71967H4.66191H4.60447H4.54734H4.49053H4.43403H4.37785H4.32198H4.26644H4.21121H4.15631H4.10173H4.04747H3.99355H3.93994H3.88667H3.83373H3.78112H3.72884H3.67689H3.62528H3.57401H3.52308H3.47248H3.42222H3.37231H3.32274H3.27352H3.22464H3.1761H3.12792H3.08009H3.0326H2.98547H2.9387H2.89228H2.84621H2.80051H2.75516H2.71017H2.66555H2.62128H2.57739H2.53385H2.49069H2.44789H2.40547H2.36341H2.32173H2.28042H2.23949H2.19893H2.15875H2.11895H2.07953H2.04049H2.00184H1.96356H1.92568H1.88818H1.85107H1.81435H1.77802H1.74208H1.70654H1.67139H1.63664H1.60229H1.56833H1.53478H1.50162H1.46887H1.43653H1.40459H1.37305H1.34193H1.31121H1.28091H1.25102H1.22154H1.19247H1.16383H1.1356H1.10778H1.09278V0.854541H71.2897V0.890266V0.937001V0.984896V1.03395V1.08415V1.1355V1.18799V1.24163V1.29639V1.35228V1.4093V1.46744V1.5267V1.58707V1.64854V1.71112V1.77479V1.83956V1.90542V1.97236V2.04038V2.10948V2.17965V2.25089V2.32319V2.39654V2.47095V2.54641V2.62292V2.70046V2.77904V2.85865V2.93929V3.02095V3.10363V3.18733V3.27203V3.35773V3.44444V3.53214V3.62083V3.71051V3.80118V3.89282V3.98543V4.07901V4.17356V4.26906V4.36553V4.46294V4.5613V4.6606V4.76084V4.86201V4.96411V5.06714V5.17109V5.27595V5.38172V5.4884V5.59598V5.70446V5.81383V5.92409V6.03523V6.14726V6.26016V6.37393V6.48857V6.60407V6.72042V6.83763V6.95569V7.07459V7.19434V7.31491V7.43632V7.55856V7.68161V7.80549V7.93017V8.05567V8.18197V8.30907V8.43696V8.56565V8.69512V8.82537V8.9564V9.0882V9.22077V9.35411V9.4882V9.62305V9.75866V9.895V10.0321V10.1699V10.3085V10.4478V10.5878V10.7285V10.8699V11.0121V11.155V11.2985V11.4428V11.5877V11.7334V11.8797V12.0267V12.1744V12.3227V12.4718V12.6214V12.7718V12.9227V13.0744V13.2267V13.3796V13.5331V13.6873V13.8421V13.9975V14.1536V14.3103V14.4675V14.6254V14.7839V14.9429V15.1026V15.2628V15.4236V15.585V15.747V15.9095V16.0726V16.2363V16.4005V16.5653V16.7306V16.8965V17.0628V17.2298V17.3972V17.5652V17.7337V17.9027V18.0722V18.2422V18.4127V18.5838V18.7553V18.9273V19.0997V19.2727V19.4461V19.62V19.7944V19.9692V20.1445V20.3203V20.4965V20.6731V20.8502V21.0277V21.2056V21.384V21.5627V21.7419V21.9215V22.1016V22.282V22.4628V22.644V22.8256V23.0076V23.19V23.3727V23.5558V23.7393V23.9231V24.1073V24.2919V24.4768V24.6621V24.8477V25.0336V25.2199V25.4064V25.5934V25.7806V25.9681V26.156V26.3441V26.5326V26.7214V26.9104V27.0997V27.2894V27.4792V27.6694V27.8599V28.0506V28.2415V28.4327V28.6242V28.8159V29.0079V29.2001V29.3925V29.5852V29.7781V29.9712V30.1645V30.358V30.5518V30.7457V30.9399V31.1342V31.3287V31.5234V31.7183V31.9134V32.1086V32.304V32.4996V32.6953V32.8912V33.0872V33.2834V33.4797V33.6762V33.8727V34.0694V34.2663V34.4632V34.6603V34.8574V35.0547V35.2521V35.4496V35.6471V35.8448V36.0425V36.2403V36.4382V36.6361V36.8341V37.0322V37.2303V37.4285V37.6268V37.825V38.0233V38.2217V38.42V38.6184V38.8168V39.0153V39.2137V39.4122V39.6106V39.809V40.0075V40.2059V40.4043V40.6027V40.8011V40.9994V41.1977V41.396V41.5942V41.7924V41.9905V42.1886V42.3866V42.5845V42.7824V42.9802V43.1779V43.3756V43.5731V43.7706V43.9679V44.1652V44.3624V44.5594V44.7564V44.9532V45.1499V45.3464V45.5429V45.7392V45.9353V46.1313V46.3272V46.5229V46.7185V46.9139V47.1091V47.3041V47.499V47.6937V47.8882V48.0825V48.2767V48.4706V48.6643V48.8578V49.0512V49.2442V49.4371V49.6298V49.8222V50.0143V50.2063V50.398V50.5894V50.7806V50.9716V51.1623V51.3527V51.5428V51.7327V51.9223V52.1116V52.3006V52.4894V52.6778V52.8659V53.0537V53.2413V53.4285V53.6154V53.8019V53.9882V54.1741V54.3596V54.5448V54.7297V54.9143V55.0984V55.2822V55.4657V55.6488V55.8315V56.0138V56.1958V56.3774V56.5585V56.7393V56.9197V57.0997V57.2793V57.4584V57.6372V57.8155V57.9934V58.1709V58.3479V58.5245V58.7006V58.8763V59.0516V59.2264V59.4007V59.5746V59.748V59.9209V60.0934V60.2653V60.4368V60.6078V60.7782V60.9482V61.1177V61.2867V61.4551V61.623V61.7904V61.9573V62.1237V62.2895V62.4547V62.6195V62.7836V62.9473V63.1103V63.2728V63.4347V63.5961V63.7569V63.917V64.0766V64.2357V64.3941V64.5519V64.7091V64.8657V65.0217V65.1771V65.3319V65.486V65.6395V65.7924V65.9446V66.0962V66.2471V66.3974V66.547V66.696V66.8443V66.9919V67.1388V67.2851V67.4307V67.5756V67.7198V67.8633V68.0061V68.1482V68.2896V68.4303V68.5702V68.7094V68.8479V68.9857V69.1227V69.259V69.3946V69.5293V69.6634V69.7966V69.9292V70.0609V70.1919V70.3221V70.4515V70.5801V70.7079V70.8349V70.9612V71.0866V71.2112V71.335V71.458V71.5802V71.7015V71.822V71.9417V72.0606V72.1785V72.2957V72.412V72.5274V72.642V72.7557V72.8685V72.9804V73.0915V73.2017V73.311V73.4194V73.5269V73.6335V73.7392V73.844V73.9479V74.0508V74.1529V74.254V74.3541V74.4533V74.5516V74.649C71.2897 78.6073 70.1435 81.3503 68.4875 83.2716C66.8198 85.2064 64.5743 86.3776 62.2691 87.0707C59.9639 87.7638 57.6431 87.9651 55.8869 87.99C55.0116 88.0024 54.2833 87.9709 53.7765 87.9366C53.5232 87.9194 53.3257 87.9016 53.1932 87.8883C53.127 87.8817 53.077 87.8762 53.0445 87.8724L53.0091 87.8682L53.0015 87.8673L53.0007 87.8672Z" stroke="#FFF500" stroke-width="1.67383"/>
</svg>
