<svg width="32" height="47" viewBox="0 0 32 47" fill="none" xmlns="http://www.w3.org/2000/svg">
<path d="M23.4977 39.4237L23.4975 39.4237L22.9988 39.3593L23.088 39.8538L23.088 39.8538L23.0881 39.854L23.0881 39.8543L23.0883 39.8557L23.0901 39.8664C23.0917 39.8766 23.0942 39.8929 23.0972 39.9148C23.1033 39.9586 23.1114 40.025 23.1191 40.1107C23.1343 40.2822 23.1474 40.5299 23.1376 40.8281C23.1179 41.4266 23.0065 42.2157 22.6466 42.9991C22.2889 43.7776 21.6831 44.5574 20.659 45.1463C19.6314 45.7372 18.1604 46.1485 16.0551 46.1485H16.019H15.9828H15.9465H15.9101H15.8737H15.8372H15.8006H15.764H15.7273H15.6905H15.6536H15.6166H15.5796H15.5425H15.5054H15.4681H15.4308H15.3935H15.356H15.3185H15.2809H15.2433H15.2056H15.1678H15.13H15.0921H15.0541H15.0161H14.978H14.9398H14.9016H14.8634H14.825H14.7866H14.7482H14.7097H14.6711H14.6325H14.5938H14.555H14.5162H14.4774H14.4385H14.3995H14.3605H14.3214H14.2823H14.2431H14.2039H14.1646H14.1253H14.0859H14.0465H14.0071H13.9675H13.928H13.8884H13.8487H13.809H13.7693H13.7295H13.6896H13.6498H13.6099H13.5699H13.5299H13.4899H13.4498H13.4097H13.3695H13.3293H13.2891H13.2488H13.2085H13.1682H13.1278H13.0874H13.0469H13.0064H12.9659H12.9254H12.8848H12.8442H12.8036H12.7629H12.7222H12.6815H12.6407H12.5999H12.5591H12.5183H12.4774H12.4365H12.3956H12.3547H12.3137H12.2727H12.2317H12.1907H12.1497H12.1086H12.0675H12.0264H11.9853H11.9441H11.903H11.8618H11.8206H11.7794H11.7381H11.6969H11.6556H11.6144H11.5731H11.5318H11.4905H11.4492H11.4078H11.3665H11.3251H11.2838H11.2424H11.201H11.1597H11.1183H11.0769H11.0355H10.9941H10.9527H10.9112H10.8698H10.8284H10.787H10.7456H10.7041H10.6627H10.6213H10.5799H10.5385H10.497H10.4556H10.4142H10.3728H10.3314H10.29H10.2486H10.2072H10.1659H10.1245H10.0831H10.0418H10.0004H9.95908H9.91775H9.87644H9.83513H9.79384H9.75256H9.7113H9.67004H9.62881H9.58758H9.54638H9.50519H9.46401H9.42285H9.38171H9.3406H9.29949H9.25841H9.21735H9.17631H9.13529H9.09429H9.05332H9.01237H8.97144H8.93054H8.88966H8.84881H8.80798H8.76718H8.72641H8.68566H8.64494H8.60426H8.5636H8.52297H8.48237H8.44181H8.40127H8.36077H8.3203H8.27987H8.23947H8.19911H8.15878H8.11848H8.07822H8.038H7.99782H7.95768H7.91757H7.87751H7.83748H7.7975H7.75755H7.71765H7.67779H7.63798H7.5982H7.55847H7.51879H7.47915H7.43956H7.40001H7.36052H7.32106H7.28166H7.24231H7.203H7.16375H7.12455H7.08539H7.04629H7.00724H6.96825H6.92931H6.89042H6.85158H6.81281H6.77408H6.73542H6.69681H6.65826H6.61977H6.58133H6.54296H6.50464H6.46639H6.4282H6.39006H6.352H6.31399H6.27605H6.23817H6.20035H6.1626H6.12492H6.08731H6.04976H6.01227H5.97486H5.93751H5.90024H5.86303H5.8259H5.78883H5.75184H5.71492H5.67807H5.6413H5.60459H5.56797H5.53142H5.49494H5.45854H5.42222H5.38598H5.34981H5.31372H5.27771H5.24178H5.20594H5.17017H5.13448H5.09888H5.06336H5.02792H4.99257H4.9573H4.92211H4.88701H4.852H4.81708H4.78224H4.74749H4.71283H4.67825H4.64377H4.60938H4.57508H4.54087H4.50675H4.47272H4.43879H4.40495H4.37121H4.33756H4.30401H4.27055H4.23719H4.20392H4.17076H4.13769H4.10472H4.07186H4.03909H4.00642H3.97386H3.94139H3.90903H3.87677H3.84462H3.81257H3.78062H3.74878H3.71705H3.68542H3.6539H3.62249H3.59119H3.56H3.52891H3.49794H3.46707H3.43632H3.40568H3.37515H3.34474H3.31444H3.28425H3.25418H3.22422H3.19438H3.16466H3.13505H3.10556H3.07619H3.04694H3.0178H2.98879H2.9599H2.93113H2.90248H2.87396H2.84555H2.81727H2.78912H2.76109H2.73318H2.7054H2.67775H2.65022H2.62283H2.59556H2.56842H2.5414H2.51452H2.48777H2.46115H2.43467H2.40831H2.38209H2.356H2.33004H2.30422H2.27854H2.25299H2.22758H2.2023H2.17716H2.15216H2.1273H2.10258H2.078H2.05356H2.02926H2.0051H1.98108H1.95721H1.93348H1.90989H1.88645H1.86316H1.84001H1.817H1.79415H1.77144H1.74888H1.72646H1.7042H1.68209H1.66012H1.63831H1.61665H1.59514H1.57379H1.55259H1.53154H1.51065H1.48991H1.46932H1.4489H1.42863H1.40852H1.38856H1.36877H1.34913H1.32966H1.31034H1.29118H1.27219H1.25336H1.23469H1.21619H1.19785H1.17967H1.16166H1.14381H1.12613H1.10862H1.09127H1.07409H1.05708H1.04024H1.02357H1.00707H0.990745H0.974588H0.958602H0.942789H0.927149H0.911683H0.896392H0.881275H0.866334H0.851569H0.836981H0.82257H0.808338H0.794283H0.780408H0.766712H0.753196H0.739862H0.726708H0.713737H0.700948H0.688343H0.675921H0.663683H0.65708V1.13633H31.5452V1.15205V1.17261V1.19369V1.21527V1.23736V1.25996V1.28305V1.30665V1.33075V1.35535V1.38044V1.40602V1.43209V1.45865V1.4857V1.51324V1.54126V1.56976V1.59874V1.62819V1.65812V1.68853V1.7194V1.75075V1.78256V1.81484V1.84758V1.88079V1.91445V1.94857V1.98315V2.01818V2.05366V2.0896V2.12598V2.1628V2.20007V2.23779V2.27594V2.31453V2.35356V2.39302V2.43291V2.47323V2.51398V2.55516V2.59677V2.63879V2.68124V2.7241V2.76738V2.81107V2.85518V2.8997V2.94463V2.98996V3.0357V3.08184V3.12838V3.17532V3.22266V3.27039V3.31852V3.36704V3.41594V3.46524V3.51491V3.56498V3.61542V3.66624V3.71744V3.76902V3.82096V3.87328V3.92597V3.97903V4.03245V4.08624V4.14038V4.19489V4.24976V4.30498V4.36055V4.41648V4.47275V4.52938V4.58635V4.64366V4.70132V4.75931V4.81765V4.87632V4.93532V4.99466V5.05433V5.11432V5.17464V5.23529V5.29626V5.35755V5.41916V5.48108V5.54332V5.60587V5.66873V5.7319V5.79538V5.85916V5.92325V5.98763V6.05232V6.1173V6.18258V6.24815V6.31401V6.38016V6.44659V6.51332V6.58032V6.64761V6.71517V6.78302V6.85114V6.91953V6.98819V7.05713V7.12633V7.19579V7.26552V7.33551V7.40577V7.47627V7.54704V7.61806V7.68933V7.76085V7.83262V7.90463V7.97689V8.04939V8.12213V8.19511V8.26832V8.34177V8.41545V8.48936V8.5635V8.63787V8.71246V8.78727V8.86231V8.93756V9.01303V9.08871V9.16461V9.24071V9.31703V9.39355V9.47028V9.5472V9.62434V9.70166V9.77919V9.85691V9.93483V10.0129V10.0912V10.1697V10.2484V10.3272V10.4063V10.4855V10.5649V10.6444V10.7242V10.8041V10.8841V10.9644V11.0448V11.1254V11.2061V11.287V11.3681V11.4493V11.5306V11.6121V11.6938V11.7756V11.8576V11.9397V12.0219V12.1043V12.1868V12.2695V12.3523V12.4352V12.5183V12.6015V12.6848V12.7682V12.8518V12.9354V13.0192V13.1032V13.1872V13.2713V13.3556V13.4399V13.5244V13.609V13.6936V13.7784V13.8633V13.9483V14.0333V14.1185V14.2037V14.2891V14.3745V14.46V14.5456V14.6313V14.717V14.8029V14.8888V14.9748V15.0608V15.1469V15.2331V15.3194V15.4057V15.4921V15.5785V15.665V15.7516V15.8382V15.9249V16.0116V16.0983V16.1851V16.272V16.3589V16.4458V16.5328V16.6198V16.7068V16.7939V16.881V16.9681V17.0553V17.1425V17.2297V17.3169V17.4041V17.4914V17.5787V17.6659V17.7532V17.8405V17.9279V18.0152V18.1025V18.1898V18.2771V18.3645V18.4518V18.5391V18.6264V18.7137V18.8009V18.8882V18.9754V19.0626V19.1498V19.237V19.3242V19.4113V19.4984V19.5855V19.6725V19.7595V19.8465V19.9334V20.0203V20.1071V20.1939V20.2807V20.3674V20.4541V20.5407V20.6272V20.7137V20.8001V20.8865V20.9728V21.0591V21.1453V21.2314V21.3174V21.4034V21.4893V21.5751V21.6609V21.7466V21.8321V21.9177V22.0031V22.0884V22.1736V22.2588V22.3439V22.4288V22.5137V22.5985V22.6831V22.7677V22.8521V22.9365V23.0207V23.1049V23.1889V23.2728V23.3566V23.4402V23.5238V23.6072V23.6905V23.7737V23.8567V23.9397V24.0224V24.1051V24.1876V24.27V24.3522V24.4343V24.5162V24.598V24.6797V24.7612V24.8426V24.9237V25.0048V25.0857V25.1664V25.247V25.3274V25.4076V25.4877V25.5675V25.6473V25.7268V25.8062V25.8854V25.9644V26.0432V26.1219V26.2004V26.2786V26.3567V26.4346V26.5123V26.5898V26.6672V26.7443V26.8212V26.8979V26.9744V27.0507V27.1268V27.2027V27.2783V27.3538V27.429V27.504V27.5788V27.6534V27.7277V27.8019V27.8758V27.9494V28.0229V28.096V28.169V28.2417V28.3142V28.3864V28.4584V28.5302V28.6017V28.6729V28.7439V28.8147V28.8852V28.9554V29.0254V29.0951V29.1645V29.2337V29.3026V29.3713V29.4396V29.5077V29.5755V29.6431V29.7103V29.7773V29.844V29.9104V29.9766V30.0424V30.108V30.1732V30.2382V30.3028V30.3672V30.4312V30.495V30.5585V30.6216V30.6844V30.747V30.8092V30.8711V30.9327V30.9939V31.0549V31.1155V31.1758V31.2357V31.2954V31.3547V31.4137V31.4723V31.5306V31.5886V31.6462V31.7035V31.7605V31.817V31.8733V31.9292V31.9847V32.0399V32.0948V32.1492V32.2034V32.2571V32.3105V32.3635V32.4162V32.4685V32.5204V32.5719V32.6231V32.6739V32.7243V32.7743V32.824V32.8733V32.9221V32.9706V33.0187V33.0664V33.1137V33.1606V33.2071V33.2532V33.299V33.3442V33.3891V33.4336V33.4777V33.5214V33.5646V33.6074C31.5452 35.3492 31.0409 36.5562 30.3122 37.4016C29.5784 38.2529 28.5903 38.7683 27.576 39.0733C26.5616 39.3782 25.5404 39.4668 24.7676 39.4778C24.3825 39.4832 24.0621 39.4694 23.839 39.4543C23.7276 39.4467 23.6407 39.4389 23.5824 39.433C23.5532 39.4301 23.5313 39.4277 23.517 39.426L23.5014 39.4242L23.498 39.4238L23.4977 39.4237Z" stroke="#FFF500" stroke-width="0.736523"/>
</svg>
