<svg fill="none" height="240" viewBox="0 0 240 240" width="240" xmlns="http://www.w3.org/2000/svg" xmlns:xlink="http://www.w3.org/1999/xlink"><clipPath id="a"><path d="m0 0h240v240h-240z"/></clipPath><g clip-path="url(#a)"><path d="m93.5389 63.6898.3879 61.4192c.0266 4.2-3.3571 7.627-7.5577 7.654-4.5133.028-8.0584-3.857-7.6176-8.349l5.9992-61.1266c.2203-2.2446 2.1005-3.9602 4.3558-3.9744 2.4326-.0154 4.4171 1.9442 4.4324 4.3768z" fill="#0d06c1"/><path d="m88.4881 82.759 5.0549 27.135c.8695 4.667-2.0673 9.198-6.6827 10.31-5.5876 1.346-10.9723-2.863-11.0146-8.61l-.1792-24.3643c-.0065-.8812-.1148-1.7586-.3229-2.6149l-7.1167-29.283c-.6983-2.8733 1.0683-5.7678 3.943-6.4605 2.707-.6523 5.4614.8822 6.3315 3.5272z" fill="#241ed3"/><path d="m81.5942 80.3315 11.0316 25.0865c1.9194 4.364.1686 9.471-4.0249 11.741-5.1127 2.766-11.4759.131-13.1352-5.441l-7.1743-24.0887c-.2516-.8447-.6-1.6574-1.0383-2.422l-18.6562-32.5422c-1.5108-2.6354-.5544-5.9979 2.1173-7.4436 2.3876-1.292 5.363-.6129 6.9538 1.5869l22.7254 31.4268c.4732.6543.8758 1.357 1.2008 2.0963z" fill="#403add"/><path d="m68.4904 83.7327 19.579 17.1723c3.5305 3.097 5.6361 7.506 5.8251 12.198l.9404 23.35c.2441 6.061 2.9426 11.762 7.4751 15.793l4.472 3.978c7.033 6.254 8.856 16.517 4.408 24.812-6.207 11.573-21.5919 14.318-31.4187 5.606l-18.6445-16.531-32.7348-29.205c-2.7884-2.488-4.1845-6.181-3.7386-9.892l1.9561-16.275c.3004-2.498 2.4795-4.341 4.9935-4.222 2.2604.106 4.1393 1.777 4.5097 4.009l1.1871 7.153c.5452 3.286 2.4963 6.17 5.3429 7.898l5.8016 3.523c3.8375 2.33 8.6925 2.157 12.3547-.44 6.6353-4.705 8.9733-13.472 5.5623-20.856l-3.762-8.145c-1.8436-3.9907-6.731-5.5165-10.5178-3.283l-15.781 9.308c-2.0185 1.191-4.6126.636-5.9681-1.275-1.3607-1.919-1.0173-4.562.7887-6.069l22.5101-18.7892c4.3218-3.6073 10.627-3.5302 14.8592.1819z" fill="#5b57ca"/><path clip-rule="evenodd" d="m159.305 135.486h-55.265c-.316 0-.572-.256-.572-.571v-55.2656s0 0 0-.0001c0-30.8379 24.999-55.8369 55.837-55.8369s55.837 24.999 55.837 55.8369c0 30.8377-24.999 55.8367-55.837 55.8367z" fill="#f55c5c" fill-rule="evenodd"/><path clip-rule="evenodd" d="m194.389 96.9615c.338-1.2737-.828-2.4365-2.101-2.0955l-8.066 2.1612c-.567.1519-1.183.0124-1.562-.4362-1.423-1.6873-2.023-3.9252-1.634-6.0979.104-.5778.568-1.007 1.135-1.1589l7.972-2.136c1.272-.341 1.7-1.9309.771-2.865l-3.033-3.0484c-.433-.4352-1.066-.6055-1.659-.4466l-10.532 2.8219c-.593.1589-1.056.6228-1.213 1.2163l-.782 2.9463c-.525 1.9781-2.067 3.5245-4.044 4.0542l-47.809 12.8101c-2.587.693-4.123 3.353-3.429 5.941.693 2.587 3.353 4.123 5.94 3.429l47.807-12.809c1.977-.53 4.086.038 5.53 1.488l2.152 2.163c.433.435 1.066.606 1.659.447l10.531-2.822c.593-.159 1.056-.623 1.214-1.217z" fill="#fff500" fill-rule="evenodd"/><rect fill="#f3e900" height="55.1563" rx="2.77167" transform="matrix(-.258819 -.965926 -.965926 .258819 174.359 98.3613)" width="5.54335"/><path d="m193.143 215.241v.286h.286v-.286zm-68.286-34.286c0-18.777 15.222-34 34-34v-.571c-19.093 0-34.571 15.478-34.571 34.571zm34 34c-18.778 0-34-15.222-34-34h-.571c0 19.094 15.478 34.572 34.571 34.572zm34.286 0h-34.286v.572h34.286zm-.286-34v34.286h.572v-34.286zm-34-34c18.778 0 34 15.223 34 34h.572c0-19.093-15.479-34.571-34.572-34.571z" fill="#fdbbab"/><path d="m200.414 64.1098c0-3.829-3.104-6.933-6.933-6.933h-32.086v13.866h32.086c3.829 0 6.933-3.104 6.933-6.933z" fill="#fff500"/><rect fill="#f3ea00" height="30.3118" rx=".806165" transform="matrix(-.00000004 1 1 .00000004 164.297 60.0781)" width="1.61233"/><rect fill="#f3ea00" height="30.3118" rx=".806165" transform="matrix(-.00000004 1 1 .00000004 164.297 66.5283)" width="1.61233"/><rect fill="#f3ea00" height="30.3118" rx=".806165" transform="matrix(-.00000004 1 1 .00000004 164.297 63.3027)" width="1.61233"/><path d="m123.361 61.474c-.347-.0555-.662.2127-.662.5643v4.4641c0 .3516.315.6198.662.5643l7.355-1.1768c.03-.0048.06-.0072.091-.0072h28.654c.89 0 1.612-.7219 1.612-1.6123 0-.8905-.722-1.6124-1.612-1.6124h-28.654c-.031 0-.061-.0024-.091-.0071z" fill="#e6e6e6"/><path d="m123.361 61.474c-.347-.0555-.662.2127-.662.5643v4.4641c0 .3516.315.6198.662.5643l6.919-1.107c.277-.0444.481-.2835.481-.5643v-2.2501c0-.2807-.204-.5199-.481-.5643z" fill="#fff"/><rect fill="#f3ea00" height="2.90219" rx="1.4511" transform="matrix(-.00000004 1 1 .00000004 159.461 55.2412)" width="17.7356"/><g fill="#f55c5c"><path clip-rule="evenodd" d="m173.037 182.703c-.197-.053-.407.003-.552.148l-6.846 6.846c-.144.144-.2.354-.148.551l2.506 9.352c.053.197.207.351.404.404l9.352 2.506c.197.053.408-.003.552-.148l6.846-6.846c.144-.144.201-.355.148-.552l-2.506-9.352c-.053-.197-.207-.351-.404-.404zm8.258 8.356c-.899-3.353-4.345-5.343-7.699-4.444-3.353.898-5.343 4.345-4.444 7.698.898 3.353 4.345 5.343 7.698 4.445 3.353-.899 5.343-4.345 4.445-7.699z" fill-rule="evenodd"/><path d="m147.215 178.438c-.272.159-.622.068-.782-.205l-3.753-6.41c-.16-.273-.068-.623.204-.782l18.246-10.682c.272-.16.622-.068.782.204l3.753 6.411c.16.272.068.622-.204.782z"/><rect height="5.38939" rx=".571429" transform="matrix(-.50525076 -.86297258 .86297258 -.50525076 57.78854 406.136643)" width="20.1667" x="145.315" y="186.503"/></g><rect fill="#fdbbab" height="5.38939" rx=".571429" transform="matrix(-.50525076 -.86297258 .86297258 -.50525076 57.707307 397.086071)" width="9.73567" x="142.68" y="182.001"/></g></svg>