<svg fill="none" height="584" viewBox="0 0 681 584" width="681" xmlns="http://www.w3.org/2000/svg" xmlns:xlink="http://www.w3.org/1999/xlink"><clipPath id="a"><path d="m.195312.195312h680v680h-680z"/></clipPath><g clip-path="url(#a)"><path d="m265.221 180.652 1.099 174.02c.076 11.902-9.512 21.611-21.413 21.686-12.788.081-22.832-10.927-21.583-23.654l16.997-173.193c.625-6.359 5.952-11.22 12.342-11.26 6.892-.044 12.515 5.508 12.558 12.401z" fill="#0d06c1"/><path d="m250.912 234.681 14.322 76.881c2.464 13.224-5.857 26.062-18.934 29.213-15.832 3.815-31.088-8.112-31.208-24.396l-.508-69.031c-.018-2.497-.325-4.983-.915-7.409l-20.164-82.968c-1.978-8.141 3.027-16.343 11.172-18.305 7.67-1.848 15.474 2.499 17.939 9.994z" fill="#241ed3"/><path d="m231.382 227.802 31.256 71.078c5.438 12.366.478 26.836-11.404 33.265-14.486 7.839-32.515.372-37.216-15.414l-20.327-68.252c-.713-2.393-1.7-4.696-2.942-6.862l-52.859-92.203c-4.281-7.467-1.571-16.994 5.999-21.09 6.764-3.661 15.195-1.737 19.702 4.496l64.389 89.043c1.34 1.854 2.481 3.845 3.402 5.939z" fill="#403add"/><path d="m194.251 237.44 55.473 48.655c10.003 8.774 15.969 21.267 16.505 34.562l2.664 66.156c.692 17.173 8.338 33.327 21.18 44.749l12.671 11.269c19.927 17.722 25.092 46.8 12.488 70.301-17.586 32.792-61.176 40.569-89.019 15.884l-52.826-46.837-92.7487-82.748c-7.9005-7.048-11.856-17.514-10.5925-28.026l5.5422-46.113c.851-7.08 7.0251-12.301 14.1483-11.964 6.4043.302 11.7277 5.036 12.7777 11.361l3.363 20.266c1.545 9.308 7.073 17.48 15.139 22.377l16.437 9.981c10.873 6.602 24.629 6.112 35.005-1.246 18.8-13.331 25.425-38.17 15.76-59.093l-10.659-23.075c-5.223-11.308-19.071-15.631-29.8-9.303l-44.713 26.373c-5.7193 3.373-13.0691 1.802-16.9098-3.614-3.8554-5.437-2.8824-12.925 2.2346-17.196l63.7782-53.234c12.246-10.221 30.11-10.003 42.102.515z" fill="#5b57ca"/><path clip-rule="evenodd" d="m451.562 384.076h-156.586c-.894 0-1.619-.725-1.619-1.619l.001-156.397c-.001-.063 0-.126 0-.189-.001-87.374 70.83-158.2044 158.204-158.2044s158.205 70.8304 158.205 158.2044-70.831 158.205-158.205 158.205z" fill="#f55c5c" fill-rule="evenodd"/><path clip-rule="evenodd" d="m550.966 274.918c.957-3.608-2.345-6.903-5.952-5.937l-22.851 6.123c-1.607.431-3.354.035-4.426-1.236-4.032-4.78-5.731-11.121-4.63-17.277.293-1.637 1.609-2.853 3.215-3.284l22.587-6.052c3.607-.966 4.82-5.471 2.186-8.118l-8.596-8.638c-1.227-1.233-3.02-1.716-4.7-1.266l-29.84 7.996c-1.68.45-2.992 1.764-3.438 3.446l-2.215 8.349c-1.487 5.605-5.858 9.986-11.459 11.487l-135.462 36.297c-7.332 1.964-11.682 9.5-9.718 16.832 1.965 7.331 9.5 11.682 16.832 9.717l135.46-36.296c5.601-1.501 11.577.108 15.667 4.218l6.096 6.127c1.227 1.233 3.02 1.715 4.7 1.265l29.84-7.995c1.68-.451 2.992-1.765 3.438-3.446z" fill="#fff500" fill-rule="evenodd"/><rect fill="#f3e900" height="156.276" rx="7.85307" transform="matrix(-.258819 -.965926 -.965926 .258819 494.209 278.882)" width="15.7061"/><path d="m450.291 610.047v.809zm97.143 0v.809h.809v-.809zm-193.477-97.143c0-53.203 43.13-96.333 96.334-96.333v-1.619c-54.098 0-97.953 43.854-97.953 97.952zm96.334 96.333c-53.204 0-96.334-43.13-96.334-96.333h-1.619c0 54.098 43.855 97.952 97.953 97.952zm97.143 0h-97.143v1.619h97.143zm-.81-96.333v97.143h1.619v-97.143zm-96.333-96.333c53.203 0 96.333 43.13 96.333 96.333h1.619c0-54.098-43.855-97.952-97.952-97.952z" fill="#fff"/><path d="m568.035 181.839c0-10.849-8.795-19.644-19.643-19.644h-90.909v39.287h90.909c10.848 0 19.643-8.794 19.643-19.643z" fill="#fff500"/><rect fill="#f3ea00" height="85.8834" rx="2.28413" transform="matrix(-.00000004 1 1 .00000004 465.705 170.419)" width="4.56827"/><rect fill="#f3ea00" height="85.8834" rx="2.28413" transform="matrix(-.00000004 1 1 .00000004 465.705 188.691)" width="4.56827"/><rect fill="#f3ea00" height="85.8834" rx="2.28413" transform="matrix(-.00000004 1 1 .00000004 465.705 179.556)" width="4.56827"/><path d="m349.719 174.373c-.984-.157-1.875.603-1.875 1.599v12.648c0 .997.891 1.756 1.875 1.599l20.839-3.334c.085-.014.17-.021.256-.021h81.186c2.523 0 4.569-2.045 4.569-4.568s-2.046-4.568-4.569-4.568h-81.186c-.086 0-.171-.007-.256-.02z" fill="#e6e6e6"/><path d="m349.719 174.373c-.984-.157-1.875.603-1.875 1.599v12.648c0 .997.891 1.756 1.875 1.599l19.603-3.136c.785-.126 1.363-.804 1.363-1.599v-6.376c0-.795-.578-1.473-1.363-1.598z" fill="#fff"/><rect fill="#f3ea00" height="8.22288" rx="4.11144" transform="matrix(-.00000004 1 1 .00000004 452 156.714)" width="50.2509"/><g fill="#fff500"><path clip-rule="evenodd" d="m490.46 517.853c-.559-.15-1.155.01-1.564.419l-19.397 19.397c-.409.409-.569 1.005-.419 1.564l7.1 26.497c.149.558.586.995 1.144 1.145l26.497 7.099c.559.15 1.155-.01 1.564-.419l19.397-19.397c.409-.409.569-1.005.419-1.564l-7.1-26.496c-.149-.559-.586-.995-1.145-1.145zm23.396 23.676c-2.546-9.5-12.311-15.139-21.812-12.593s-15.139 12.311-12.594 21.812c2.546 9.501 12.312 15.139 21.813 12.593 9.5-2.545 15.139-12.311 12.593-21.812z" fill-rule="evenodd"/><path d="m417.302 505.771c-.772.452-1.764.192-2.216-.579l-10.634-18.164c-.452-.772-.192-1.763.579-2.215l51.697-30.267c.771-.451 1.763-.192 2.215.58l10.634 18.163c.452.772.193 1.764-.579 2.215z"/><rect height="15.2699" rx="1.61905" transform="matrix(-.50525076 -.86297258 .86297258 -.50525076 163.856606 1151.184332)" width="57.1391" x="411.92" y="528.622"/></g><rect fill="#f3ea00" height="15.2699" rx="1.61905" transform="matrix(-.50525076 -.86297258 .86297258 -.50525076 163.619377 1125.542327)" width="27.5844" x="404.451" y="515.869"/></g></svg>