<svg fill="none" height="160" viewBox="0 0 160 160" width="160" xmlns="http://www.w3.org/2000/svg" xmlns:xlink="http://www.w3.org/1999/xlink"><clipPath id="a"><path d="m0 .001953h160v160h-160z"/></clipPath><g clip-path="url(#a)"><path d="m0 0h160v160h-160z" fill="#fff500" transform="translate(0 .001953)"/><path d="m62.3596 42.4628.2586 40.9461c.0177 2.8003-2.2381 5.0848-5.0385 5.1025-3.0088.019-5.3722-2.5712-5.0783-5.5658l3.9994-40.7511c.1468-1.4964 1.4003-2.6401 2.9039-2.6496 1.6217-.0102 2.9447 1.2961 2.9549 2.9179z" fill="#0d06c1"/><path d="m58.9921 55.1753 3.37 18.0897c.5796 3.1115-1.3782 6.1321-4.4551 6.8736-3.7251.8976-7.3149-1.9086-7.3431-5.7402l-.1195-16.2427c-.0043-.5874-.0765-1.1724-.2153-1.7432l-4.7444-19.522c-.4655-1.9155.7122-3.8452 2.6286-4.307 1.8047-.4349 3.641.5881 4.221 2.3515z" fill="#241ed3"/><path d="m54.3963 53.5572 7.3544 16.7242c1.2796 2.9097.1124 6.3145-2.6832 7.8272-3.4085 1.8444-7.6507.0874-8.7569-3.6269l-4.7828-16.0593c-.1677-.563-.4-1.1049-.6922-1.6146l-12.4375-21.6948c-1.0072-1.7569-.3696-3.9986 1.4116-4.9624 1.5917-.8613 3.5753-.4086 4.6358 1.0579l15.1503 20.9512c.3155.4363.5838.9047.8005 1.3975z" fill="#403add"/><path d="m45.6605 55.8248 13.0526 11.4483c2.3536 2.0644 3.7574 5.0039 3.8834 8.132l.6269 15.5662c.1628 4.0407 1.9617 7.8416 4.9836 10.5287l2.9814 2.652c4.6886 4.17 5.904 11.012 2.9384 16.541-4.1381 7.716-14.3946 9.546-20.9458 3.738l-12.4296-11.021-21.8233-19.4697c-1.8589-1.6585-2.7896-4.121-2.4923-6.5944l1.304-10.85c.2003-1.6659 1.653-2.8944 3.329-2.8152 1.5069.0712 2.7595 1.1849 3.0065 2.6732l.7914 4.7685c.3634 2.1902 1.6642 4.113 3.562 5.2652l3.8676 2.3484c2.5584 1.5533 5.7951 1.4382 8.2365-.2931 4.4235-3.1367 5.9822-8.9813 3.7082-13.9042l-2.508-5.4295c-1.229-2.6608-4.4873-3.6779-7.0118-2.1889l-10.5207 6.2053c-1.3457.7937-3.075.4241-3.9787-.8503-.9072-1.2793-.6783-3.0411.5257-4.046l15.0068-12.5258c2.8812-2.4049 7.0846-2.3535 9.9062.1213z" fill="#5b57ca"/><path clip-rule="evenodd" d="m106.203 90.3262h-36.8433c-.2104 0-.3809-.1706-.3809-.381v-36.8436c0-.0001 0-.0001 0-.0001h.0001c0-20.5586 16.666-37.2246 37.2251-37.2246 20.558 0 37.224 16.666 37.224 37.2246s-16.666 37.2247-37.224 37.2247c-.001 0-.001 0-.001 0z" fill="#f55c5c" fill-rule="evenodd"/><path clip-rule="evenodd" d="m129.592 64.6414c.226-.8492-.551-1.6244-1.4-1.397l-5.377 1.4407c-.378.1013-.789.0083-1.041-.2908-.949-1.1248-1.349-2.6168-1.09-4.0653.069-.3851.379-.6713.757-.7725l5.314-1.424c.849-.2274 1.134-1.2873.514-1.91l-2.022-2.0323c-.289-.2901-.71-.4037-1.106-.2978l-7.021 1.8813c-.395.106-.704.4153-.809.8109l-.521 1.9646c-.35 1.3187-1.378 2.3496-2.696 2.7028l-31.8724 8.5401c-1.725.4622-2.7487 2.2353-2.2865 3.9603.4623 1.7251 2.2354 2.7488 3.9604 2.2866l31.8715-8.5401c1.318-.3531 2.724.0255 3.687.9927l1.434 1.4414c.289.2901.71.4037 1.106.2978l7.021-1.8813c.395-.106.704-.4152.809-.8109z" fill="#fff500" fill-rule="evenodd"/><rect fill="#f3e900" height="36.7709" rx="1.84778" transform="matrix(-.258819 -.965926 -.965926 .258819 116.239 65.5752)" width="3.69556"/><path d="m128.762 143.496v.191h.19v-.191zm-45.5239-22.857c.0001-12.519 10.1483-22.6667 22.6669-22.6667v-.381c-12.729 0-23.0478 10.3187-23.0478 23.0477zm22.6669 22.667c-12.5186 0-22.6669-10.149-22.6669-22.667h-.3809c0 12.729 10.3188 23.048 23.0478 23.048zm22.857 0h-22.857v.381h22.857zm-.191-22.667v22.857h.381v-22.857zm-22.666-22.6667c12.518 0 22.666 10.1477 22.666 22.6667h.381c0-12.729-10.318-23.0477-23.047-23.0477z" fill="#fdbbab"/><path d="m133.609 42.7421c0-2.5526-2.069-4.622-4.622-4.622h-21.39v9.244h21.39c2.553 0 4.622-2.0693 4.622-4.622z" fill="#fff500"/><rect fill="#f3ea00" height="20.2079" rx=".537443" transform="matrix(-.00000004 1 1 .00000004 109.532 40.0547)" width="1.07489"/><rect fill="#f3ea00" height="20.2079" rx=".537443" transform="matrix(-.00000004 1 1 .00000004 109.532 44.3545)" width="1.07489"/><rect fill="#f3ea00" height="20.2079" rx=".537443" transform="matrix(-.00000004 1 1 .00000004 109.532 42.2041)" width="1.07489"/><path d="m82.2409 40.9856c-.2314-.037-.4411.1418-.4411.3762v2.9761c0 .2344.2097.4132.4411.3761l4.9034-.7845c.0199-.0032.0401-.0048.0602-.0048h19.1025c.594 0 1.075-.4812 1.075-1.0749 0-.5936-.481-1.0749-1.075-1.0749h-19.1025c-.0201 0-.0403-.0016-.0602-.0047z" fill="#e6e6e6"/><path d="m82.2409 40.9856c-.2314-.037-.4411.1418-.4411.3762v2.9761c0 .2344.2097.4132.4411.3761l4.6126-.738c.1848-.0295.3207-.189.3207-.3761v-1.5001c0-.1872-.1359-.3466-.3207-.3762z" fill="#fff"/><rect fill="#f3ea00" height="1.9348" rx=".967398" transform="matrix(-.00000004 1 1 .00000004 106.307 36.8301)" width="11.8238"/><g fill="#f55c5c"><path clip-rule="evenodd" d="m115.358 121.804c-.131-.035-.271.003-.368.099l-4.564 4.564c-.096.096-.134.236-.098.368l1.67 6.234c.035.132.138.235.27.27l6.234 1.67c.132.036.272-.002.368-.098l4.564-4.564c.096-.096.134-.237.099-.368l-1.671-6.235c-.035-.131-.138-.234-.269-.269zm5.505 5.572c-.599-2.236-2.896-3.563-5.132-2.964-2.235.599-3.562 2.897-2.963 5.133.599 2.235 2.897 3.562 5.132 2.963 2.236-.599 3.562-2.897 2.963-5.132z" fill-rule="evenodd"/><path d="m98.143 118.961c-.1816.106-.415.045-.5213-.136l-2.5021-4.274c-.1063-.182-.0453-.415.1363-.521l12.1641-7.122c.181-.106.415-.045.521.136l2.502 4.274c.106.182.045.415-.136.521z"/><rect height="3.59293" rx=".380952" transform="matrix(-.50525076 -.86297258 .86297258 -.50525076 38.523141 270.761632)" width="13.4445" x="96.8765" y="124.338"/></g><rect fill="#fdbbab" height="3.59293" rx=".380952" transform="matrix(-.50525076 -.86297258 .86297258 -.50525076 38.468799 264.728477)" width="6.49045" x="95.1199" y="121.337"/></g></svg>