<svg width="681" height="584" viewBox="0 0 681 584" fill="none" xmlns="http://www.w3.org/2000/svg">
<g clip-path="url(#clip0_3189_2880)">
<path d="M265.221 180.652L266.32 354.672C266.396 366.574 256.808 376.283 244.907 376.358C232.119 376.439 222.075 365.431 223.324 352.704L240.321 179.511C240.946 173.152 246.273 168.291 252.663 168.251C259.555 168.207 265.178 173.759 265.221 180.652Z" fill="#0D06C1"/>
<path d="M250.912 234.681L265.234 311.562C267.698 324.786 259.377 337.624 246.3 340.775C230.468 344.59 215.212 332.663 215.092 316.379L214.584 247.348C214.566 244.851 214.259 242.365 213.669 239.939L193.505 156.971C191.527 148.83 196.532 140.628 204.677 138.666C212.347 136.818 220.151 141.165 222.616 148.66L250.912 234.681Z" fill="#241ED3"/>
<path d="M231.382 227.802L262.638 298.88C268.076 311.246 263.116 325.716 251.234 332.145C236.748 339.984 218.719 332.517 214.018 316.731L193.691 248.479C192.978 246.086 191.991 243.783 190.749 241.617L137.89 149.414C133.609 141.947 136.319 132.42 143.889 128.324C150.653 124.663 159.084 126.587 163.591 132.82L227.98 221.863C229.32 223.717 230.461 225.708 231.382 227.802Z" fill="#403ADD"/>
<path d="M194.251 237.44L249.724 286.095C259.727 294.869 265.693 307.362 266.229 320.657L268.893 386.813C269.585 403.986 277.231 420.14 290.073 431.562L302.744 442.831C322.671 460.553 327.836 489.631 315.232 513.132C297.646 545.924 254.056 553.701 226.213 529.016L173.387 482.179L80.6383 399.431C72.7378 392.383 68.7823 381.917 70.0458 371.405L75.588 325.292C76.439 318.212 82.6131 312.991 89.7363 313.328C96.1406 313.63 101.464 318.364 102.514 324.689L105.877 344.955C107.422 354.263 112.95 362.435 121.016 367.332L137.453 377.313C148.326 383.915 162.082 383.425 172.458 376.067C191.258 362.736 197.883 337.897 188.218 316.974L177.559 293.899C172.336 282.591 158.488 278.268 147.759 284.596L103.046 310.969C97.3267 314.342 89.9769 312.771 86.1362 307.355C82.2808 301.918 83.2538 294.43 88.3708 290.159L152.149 236.925C164.395 226.704 182.259 226.922 194.251 237.44Z" fill="#5B57CA"/>
<path fill-rule="evenodd" clip-rule="evenodd" d="M451.562 384.076L294.976 384.076C294.082 384.076 293.357 383.351 293.357 382.457L293.358 226.06C293.357 225.997 293.358 225.934 293.358 225.871C293.357 138.497 364.188 67.6666 451.562 67.6666C538.936 67.6666 609.767 138.497 609.767 225.871C609.767 313.245 538.936 384.076 451.562 384.076C451.562 384.076 451.562 384.076 451.562 384.076Z" fill="#F55C5C"/>
<path fill-rule="evenodd" clip-rule="evenodd" d="M550.966 274.918C551.923 271.31 548.621 268.015 545.014 268.981L522.163 275.104C520.556 275.535 518.809 275.139 517.737 273.868C513.705 269.088 512.006 262.747 513.107 256.591C513.4 254.954 514.716 253.738 516.322 253.307L538.909 247.255C542.516 246.289 543.729 241.784 541.095 239.137L532.499 230.499C531.272 229.266 529.479 228.783 527.799 229.233L497.959 237.229C496.279 237.679 494.967 238.993 494.521 240.675L492.306 249.024C490.819 254.629 486.448 259.01 480.847 260.511L345.385 296.808C338.053 298.772 333.703 306.308 335.667 313.64C337.632 320.971 345.167 325.322 352.499 323.357L487.959 287.061C493.56 285.56 499.536 287.169 503.626 291.279L509.722 297.406C510.949 298.639 512.742 299.121 514.422 298.671L544.262 290.676C545.942 290.225 547.254 288.911 547.7 287.23L550.966 274.918Z" fill="#FFF500"/>
<rect width="15.7061" height="156.276" rx="7.85307" transform="matrix(-0.258819 -0.965926 -0.965926 0.258819 494.209 278.882)" fill="#F3E900"/>
<path d="M450.291 610.047L450.291 610.856L450.291 610.047ZM547.434 610.047L547.434 610.856L548.243 610.856L548.243 610.047L547.434 610.047ZM353.957 512.904C353.957 459.701 397.087 416.571 450.291 416.571L450.291 414.952C396.193 414.952 352.338 458.806 352.338 512.904L353.957 512.904ZM450.291 609.237C397.087 609.237 353.957 566.107 353.957 512.904L352.338 512.904C352.338 567.002 396.193 610.856 450.291 610.856L450.291 609.237ZM547.434 609.237L450.291 609.237L450.291 610.856L547.434 610.856L547.434 609.237ZM546.624 512.904L546.624 610.047L548.243 610.047L548.243 512.904L546.624 512.904ZM450.291 416.571C503.494 416.571 546.624 459.701 546.624 512.904L548.243 512.904C548.243 458.806 504.388 414.952 450.291 414.952L450.291 416.571Z" fill="white"/>
<path d="M568.035 181.839C568.035 170.99 559.24 162.195 548.392 162.195L457.483 162.195L457.483 201.482L548.392 201.482C559.24 201.482 568.035 192.688 568.035 181.839Z" fill="#FFF500"/>
<rect width="4.56827" height="85.8834" rx="2.28413" transform="matrix(-3.85215e-08 1 1 3.85215e-08 465.705 170.419)" fill="#F3EA00"/>
<rect width="4.56827" height="85.8834" rx="2.28413" transform="matrix(-3.85215e-08 1 1 3.85215e-08 465.705 188.691)" fill="#F3EA00"/>
<rect width="4.56827" height="85.8834" rx="2.28413" transform="matrix(-3.85215e-08 1 1 3.85215e-08 465.705 179.556)" fill="#F3EA00"/>
<path d="M349.719 174.373C348.735 174.216 347.844 174.976 347.844 175.972L347.844 188.62C347.844 189.617 348.735 190.376 349.719 190.219L370.558 186.885C370.643 186.871 370.728 186.864 370.814 186.864L452 186.864C454.523 186.864 456.569 184.819 456.569 182.296C456.569 179.773 454.523 177.728 452 177.728L370.814 177.728C370.728 177.728 370.643 177.721 370.558 177.708L349.719 174.373Z" fill="#E6E6E6"/>
<path d="M349.719 174.373C348.735 174.216 347.844 174.976 347.844 175.972L347.844 188.62C347.844 189.617 348.735 190.376 349.719 190.219L369.322 187.083C370.107 186.957 370.685 186.279 370.685 185.484L370.685 179.108C370.685 178.313 370.107 177.635 369.322 177.51L349.719 174.373Z" fill="white"/>
<rect width="50.2509" height="8.22288" rx="4.11144" transform="matrix(-3.85215e-08 1 1 3.85215e-08 452 156.714)" fill="#F3EA00"/>
<path fill-rule="evenodd" clip-rule="evenodd" d="M490.46 517.853C489.901 517.703 489.305 517.863 488.896 518.272L469.499 537.669C469.09 538.078 468.93 538.674 469.08 539.233L476.18 565.73C476.329 566.288 476.766 566.725 477.324 566.875L503.821 573.974C504.38 574.124 504.976 573.964 505.385 573.555L524.782 554.158C525.191 553.749 525.351 553.153 525.201 552.594L518.101 526.098C517.952 525.539 517.515 525.103 516.956 524.953L490.46 517.853ZM513.856 541.529C511.31 532.029 501.545 526.39 492.044 528.936C482.543 531.482 476.905 541.247 479.45 550.748C481.996 560.249 491.762 565.887 501.263 563.341C510.763 560.796 516.402 551.03 513.856 541.529Z" fill="#FFF500"/>
<path d="M417.302 505.771C416.53 506.223 415.538 505.963 415.086 505.192L404.452 487.028C404 486.256 404.26 485.265 405.031 484.813L456.728 454.546C457.499 454.095 458.491 454.354 458.943 455.126L469.577 473.289C470.029 474.061 469.77 475.053 468.998 475.504L417.302 505.771Z" fill="#FFF500"/>
<rect x="411.92" y="528.622" width="57.1391" height="15.2699" rx="1.61905" transform="rotate(-120.348 411.92 528.622)" fill="#FFF500"/>
<rect x="404.451" y="515.869" width="27.5844" height="15.2699" rx="1.61905" transform="rotate(-120.348 404.451 515.869)" fill="#F3EA00"/>
</g>
<defs>
<clipPath id="clip0_3189_2880">
<rect width="680" height="680" fill="white" transform="translate(0.195312 0.195312)"/>
</clipPath>
</defs>
</svg>
