<svg width="653" height="553" viewBox="0 0 653 553" fill="none" xmlns="http://www.w3.org/2000/svg">
<path fill-rule="evenodd" clip-rule="evenodd" d="M501.236 631.943C604.029 574.246 673.506 464.061 673.506 337.619C673.506 151.424 522.848 0.48291 337.001 0.48291C151.155 0.48291 0.496094 151.424 0.496094 337.619C0.496094 447.415 52.8842 544.952 133.983 606.509L146.327 591.047C162.792 570.423 171.25 544.526 170.139 518.14L162.369 333.714C162.056 326.291 163.258 318.882 165.897 311.94L216.355 179.289C219.232 171.721 227.359 167.559 235.168 169.656C243.397 171.865 248.386 180.222 246.435 188.531L216.106 317.703C214.125 326.142 214.174 334.933 216.253 343.351L240.421 441.231C242.568 449.925 254.636 450.623 257.769 442.233L263.862 425.909C268.771 412.755 271.507 398.887 271.964 384.851L273.504 337.501C273.824 327.616 282.141 319.897 292.003 320.329C300.612 320.708 307.704 327.23 308.814 335.791L323.134 446.237C327.8 482.223 321.637 518.785 305.432 551.239L249.51 663.247C277.408 670.752 306.738 674.754 337.001 674.754C344.826 674.754 352.588 674.487 360.279 673.96L354.28 651.528C348.126 628.514 346.534 604.513 349.598 580.887L366.437 451.015C367.547 442.453 374.639 435.931 383.248 435.554C393.11 435.122 401.427 442.841 401.747 452.726L403.287 500.076C403.742 514.112 406.48 527.98 411.389 541.134L417.482 557.458C420.615 565.847 432.683 565.149 434.83 556.454L458.998 458.574C461.077 450.158 461.126 441.367 459.145 432.926L428.816 303.756C426.864 295.447 431.854 287.088 440.083 284.88C447.891 282.784 456.017 286.944 458.896 294.513L509.354 427.164C511.993 434.107 513.193 441.515 512.881 448.937L506.301 605.144C505.909 614.451 504.163 623.456 501.236 631.943Z" fill="#FF6666"/>
</svg>
