<svg fill="none" height="32" viewBox="0 0 31 32" width="31" xmlns="http://www.w3.org/2000/svg"><path clip-rule="evenodd" d="m22.1004 24.3899c4.0095-.4787 7.5006-2.9491 7.9393-5.2065.6914-3.5559.6343-8.6775.6343-8.6775 0-6.94181-4.5481-8.97655-4.5481-8.97655-2.2931-1.053235-6.2309-1.4961473-10.3219-1.52959414h-.1005c-4.0911.03344684-8.02626.47635914-10.31961 1.52959414 0 0-4.548257 2.03474-4.548257 8.97655 0 .4208-.002175.8634-.00444 1.3242-.006288 1.2798-.013265 2.6996.023749 4.1816.165168 6.7887 1.244608 13.4792 7.521238 15.1405 2.89402.766 5.37872.9264 7.37982.8164 3.629-.2012 5.6662-1.2951 5.6662-1.2951l-.1197-2.633s-2.5933.8177-5.5058.718c-2.8855-.0989-5.93179-.3111-6.3985-3.8539-.0431-.3112-.06465-.644-.06465-.9934 0 0 2.83265.6924 6.42245.8568 2.1951.1007 4.2537-.1286 6.3444-.3781zm3.2101-4.9404v-8.4053c0-1.71785-.4374-3.08296-1.3158-4.09292-.9062-1.00996-2.0927-1.5277-3.5654-1.5277-1.7042 0-2.9947.65498-3.8478 1.96509l-.8296 1.39046-.8294-1.39046c-.8533-1.31011-2.1437-1.96509-3.8478-1.96509-1.47286 0-2.65936.51774-3.56536 1.5277-.87858 1.00996-1.31598 2.37507-1.31598 4.09292v8.4053h3.33003v-8.1582c0-1.71979.72361-2.59268 2.17091-2.59268 1.6003 0 2.4025 1.03547 2.4025 3.08298v4.4655h3.3104v-4.4655c0-2.04751.802-3.08298 2.4023-3.08298 1.4474 0 2.171.87289 2.171 2.59268v8.1582z" fill="#fff" fill-rule="evenodd"/></svg>