<svg fill="none" height="163" viewBox="0 0 163 163" width="163" xmlns="http://www.w3.org/2000/svg"><path clip-rule="evenodd" d="m121.014 152.226c24.671-13.847 41.345-40.292 41.345-70.6376 0-44.6868-36.158-80.912619-80.7611-80.912619-44.6032 0-80.76123 36.225819-80.76123 80.912619 0 26.3506 12.57313 49.7596 32.03693 64.5336l2.9625-3.711c3.9517-4.95 5.9816-11.165 5.7149-17.498l-1.865-44.2618c-.075-1.7814.2135-3.5597.8469-5.2256l12.1099-31.8363c.6906-1.8163 2.6411-2.8153 4.5152-2.3119 1.9749.5301 3.1723 2.5359 2.7039 4.5298l-7.279 31.0013c-.4754 2.0255-.4636 4.1353.0354 6.1555l5.8004 23.491c.5151 2.087 3.4116 2.255 4.1634.241l1.4624-3.918c1.1782-3.1569 1.8348-6.4853 1.9444-9.8539l.3697-11.364c.0769-2.3723 2.0727-4.225 4.4397-4.1213 2.0662.091 3.7683 1.6563 4.0346 3.711l3.4369 26.5072c1.1197 8.636-.3593 17.411-4.2485 25.2l-13.4214 26.882c6.6956 1.801 13.7348 2.762 20.998 2.762 1.8779 0 3.7408-.064 5.5867-.191l-1.4399-5.383c-1.4768-5.524-1.8588-11.284-1.1237-16.954l4.0416-31.169c.2663-2.055 1.9684-3.621 4.0345-3.711 2.367-.104 4.3629 1.749 4.4397 4.121l.3698 11.364c.1091 3.369.7661 6.697 1.9444 9.854l1.462 3.918c.752 2.013 3.649 1.846 4.164-.241l5.8-23.491c.499-2.02.511-4.13.035-6.156l-7.278-31.0007c-.469-1.9939.729-4.0001 2.703-4.5302 1.875-.503 3.825.4955 4.516 2.3119l12.109 31.836c.634 1.667.922 3.445.847 5.226l-1.579 37.49c-.094 2.233-.513 4.394-1.216 6.431z" fill="#f66" fill-rule="evenodd"/></svg>