<svg fill="none" height="25" viewBox="0 0 24 25" width="24" xmlns="http://www.w3.org/2000/svg"><path clip-rule="evenodd" d="m16.7623 18.7946c3.0071-.3591 5.6254-2.2119 5.9545-3.9049.5185-2.6669.4757-6.50816.4757-6.50816 0-5.20634-3.411-6.73239-3.411-6.73239-1.7199-.789927-4.6732-1.122112-7.7415-1.147197h-.0754c-3.06827.025085-6.01966.35727-7.73967 1.147197 0 0-3.411194 1.52605-3.411194 6.73239 0 .31562-.001631.6476-.003329.9932-.004717.95976-.00995 2.02466.017812 3.13616.123874 5.0915.933451 10.1094 5.640931 11.3554 2.17051.5745 4.03405.6948 5.53485.6123 2.7218-.1509 4.2496-.9714 4.2496-.9714l-.0897-1.9747s-1.945.6133-4.1293.5385c-2.16422-.0742-4.44891-.2333-4.79894-2.8904-.03232-.2334-.04848-.483-.04848-.7451 0 0 2.12448.5193 4.81682.6427 1.6464.0755 3.1903-.0965 4.7583-.2836zm2.4067-3.7053v-6.30401c0-1.28839-.3281-2.31223-.9869-3.06969-.6796-.75747-1.5695-1.14578-2.674-1.14578-1.2782 0-2.246.49123-2.8858 1.47382l-.6222 1.04285-.6221-1.04285c-.6399-.98259-1.60779-1.47382-2.88584-1.47382-1.10466 0-1.99453.38831-2.67403 1.14578-.65894.75746-.98698 1.7813-.98698 3.06969v6.30401h2.49752v-6.11871c0-1.28982.54269-1.94449 1.62821-1.94449 1.20022 0 1.80182.77661 1.80182 2.31223v3.34917h2.4828v-3.34917c0-1.53562.6016-2.31223 1.8018-2.31223 1.0855 0 1.6282.65467 1.6282 1.94449v6.11871z" fill="#000" fill-rule="evenodd"/></svg>