<svg fill="none" height="553" viewBox="0 0 653 553" width="653" xmlns="http://www.w3.org/2000/svg"><path clip-rule="evenodd" d="m501.236 631.943c102.793-57.697 172.27-167.882 172.27-294.324 0-186.195-150.658-337.13609-336.505-337.13609-185.846 0-336.504906 150.94109-336.504906 337.13609 0 109.796 52.388106 207.333 133.486906 268.89l12.344-15.462c16.465-20.624 24.923-46.521 23.812-72.907l-7.77-184.426c-.313-7.423.889-14.832 3.528-21.774l50.458-132.651c2.877-7.568 11.004-11.73 18.813-9.633 8.229 2.209 13.218 10.566 11.267 18.875l-30.329 129.172c-1.981 8.439-1.932 17.23.147 25.648l24.168 97.88c2.147 8.694 14.215 9.392 17.348 1.002l6.093-16.324c4.909-13.154 7.645-27.022 8.102-41.058l1.54-47.35c.32-9.885 8.637-17.604 18.499-17.172 8.609.379 15.701 6.901 16.811 15.462l14.32 110.446c4.666 35.986-1.497 72.548-17.702 105.002l-55.922 112.008c27.898 7.505 57.228 11.507 87.491 11.507 7.825 0 15.587-.267 23.278-.794l-5.999-22.432c-6.154-23.014-7.746-47.015-4.682-70.641l16.839-129.872c1.11-8.562 8.202-15.084 16.811-15.461 9.862-.432 18.179 7.287 18.499 17.172l1.54 47.35c.455 14.036 3.193 27.904 8.102 41.058l6.093 16.324c3.133 8.389 15.201 7.691 17.348-1.004l24.168-97.88c2.079-8.416 2.128-17.207.147-25.648l-30.329-129.17c-1.952-8.309 3.038-16.668 11.267-18.876 7.808-2.096 15.934 2.064 18.813 9.633l50.458 132.651c2.639 6.943 3.839 14.351 3.527 21.773l-6.58 156.207c-.392 9.307-2.138 18.312-5.065 26.799z" fill="#f66" fill-rule="evenodd"/></svg>