<svg fill="none" height="24" viewBox="0 0 23 24" width="23" xmlns="http://www.w3.org/2000/svg"><path clip-rule="evenodd" d="m16.5187 18.2926c3.0071-.359 5.6254-2.2119 5.9545-3.9048.5185-2.667.4757-6.50822.4757-6.50822 0-5.20633-3.4111-6.73239-3.4111-6.73239-1.7199-.789921-4.6732-1.1221048-7.7415-1.14719h-.0753c-3.06832.0250852-6.01971.357269-7.73972 1.14719 0 0-3.411196 1.52606-3.411196 6.73239 0 .31563-.001631.64761-.00333.99321-.004716.9598-.009949 2.02461.017812 3.13611.123874 5.0915.933454 10.1095 5.640924 11.3555 2.17052.5745 4.03401.6947 5.53491.6122 2.7217-.1509 4.2496-.9713 4.2496-.9713l-.0897-1.9748s-1.945.6133-4.1294.5386c-2.16417-.0742-4.44886-.2334-4.79889-2.8905-.03232-.2334-.04849-.4829-.04849-.745 0 0 2.12448.5192 4.81688.6426 1.6463.0755 3.1902-.0965 4.7583-.2836zm2.4066-3.7053v-6.30396c0-1.28839-.328-2.31223-.9868-3.0697-.6796-.75747-1.5695-1.14577-2.674-1.14577-1.2782 0-2.2461.49123-2.8859 1.47382l-.6222 1.04284-.6221-1.04284c-.6399-.98259-1.60775-1.47382-2.8858-1.47382-1.10465 0-1.99452.3883-2.67402 1.14577-.65894.75747-.98699 1.78131-.98699 3.0697v6.30396h2.49753v-6.11867c0-1.28981.54269-1.94448 1.62821-1.94448 1.2002 0 1.80187.7766 1.80187 2.31223v3.34912h2.4828v-3.34912c0-1.53563.6015-2.31223 1.8017-2.31223 1.0855 0 1.6282.65467 1.6282 1.94448v6.11867z" fill="#000" fill-rule="evenodd"/></svg>