<svg fill="none" height="123" viewBox="0 0 122 123" width="122" xmlns="http://www.w3.org/2000/svg"><path clip-rule="evenodd" d="m90.5622 114.438c18.5028-10.386 31.0088-30.219 31.0088-52.9787 0-33.5151-27.1185-60.684398-60.5709-60.684398s-60.570901 27.169298-60.570901 60.684398c0 19.7633 9.429821 37.32 24.027601 48.4007l2.222-2.784c2.9637-3.712 4.4862-8.3736 4.2861-13.123l-1.3987-33.1967c-.0563-1.336.1601-2.6698.6352-3.9192l9.0823-23.8772c.518-1.3623 1.9809-2.1115 3.3864-1.7339 1.4812.3975 2.3793 1.9019 2.028 3.3973l-5.4592 23.251c-.3566 1.5191-.3477 3.1015.0265 4.6166l4.3503 17.6185c.3863 1.565 2.5587 1.6906 3.1225.1804l1.0968-2.9384c.8837-2.3677 1.3761-4.864 1.4583-7.3904l.2773-8.523c.0577-1.7792 1.5546-3.1688 3.3298-3.091 1.5496.0682 2.8262 1.2422 3.0259 2.7833l2.5777 19.8802c.8398 6.4775-.2694 13.0586-3.1863 18.9004l-10.0662 20.1611c5.0218 1.351 10.3012 2.072 15.7486 2.072 1.4084 0 2.8056-.048 4.19-.143l-1.08-4.038c-1.1076-4.143-1.3941-8.463-.8428-12.715l3.0312-23.3774c.1997-1.5411 1.4763-2.7151 3.0259-2.783 1.7752-.0777 3.2722 1.3118 3.3298 3.091l.2773 8.5231c.0819 2.5264.5746 5.0227 1.4583 7.3903l1.0968 2.938c.5638 1.51 2.7362 1.385 3.1225-.18l4.3503-17.6188c.3742-1.5148.3831-3.0971.0265-4.6166l-5.4592-23.2506c-.3513-1.4955.5468-3.0001 2.028-3.3977 1.4055-.3772 2.8681.3717 3.3864 1.7339l9.0823 23.8772c.4751 1.2498.6912 2.5832.6349 3.9193l-1.1843 28.1173c-.0705 1.675-.3849 3.296-.9118 4.824z" fill="#f66" fill-rule="evenodd"/></svg>