<svg width="24" height="25" viewBox="0 0 24 25" fill="none" xmlns="http://www.w3.org/2000/svg">
<path fill-rule="evenodd" clip-rule="evenodd" d="M16.6837 18.3395C19.6908 17.9804 22.3091 16.1276 22.6382 14.4346C23.1567 11.7677 23.1139 7.92646 23.1139 7.92646C23.1139 2.72012 19.7029 1.19407 19.7029 1.19407C17.983 0.404144 15.0297 0.0719602 11.9614 0.046875H11.886C8.81771 0.0719602 5.86633 0.404144 4.14632 1.19407C4.14632 1.19407 0.735123 2.72012 0.735123 7.92646C0.735123 8.24209 0.733492 8.57406 0.731793 8.91966C0.727077 9.87946 0.721844 10.9443 0.749605 12.0558C0.873479 17.1473 1.68306 22.1653 6.39053 23.4112C8.56104 23.9857 10.4246 24.106 11.9254 24.0235C14.6472 23.8726 16.175 23.0522 16.175 23.0522L16.0853 21.0774C16.0853 21.0774 14.1403 21.6907 11.9559 21.616C9.79177 21.5417 7.50708 21.3826 7.15705 18.7255C7.12473 18.4921 7.10856 18.2425 7.10856 17.9804C7.10856 17.9804 9.23304 18.4997 11.9254 18.6231C13.5717 18.6986 15.1156 18.5266 16.6837 18.3395ZM19.0904 14.6342V8.33022C19.0904 7.04182 18.7623 6.01799 18.1035 5.26052C17.4239 4.50305 16.534 4.11475 15.4295 4.11475C14.1513 4.11475 13.1835 4.60598 12.5437 5.58856L11.9215 6.63141L11.2994 5.58856C10.6594 4.60598 9.69159 4.11475 8.41354 4.11475C7.30889 4.11475 6.41901 4.50305 5.73952 5.26052C5.08058 6.01799 4.75253 7.04182 4.75253 8.33022V14.6342H7.25006V8.51551C7.25006 7.22569 7.79275 6.57102 8.87827 6.57102C10.0785 6.57102 10.6801 7.34763 10.6801 8.88325V12.2324H13.1629V8.88325C13.1629 7.34763 13.7644 6.57102 14.9646 6.57102C16.0502 6.57102 16.5929 7.22569 16.5929 8.51551V14.6342H19.0904Z" fill="black"/>
</svg>
