<svg width="31" height="32" viewBox="0 0 31 32" fill="none" xmlns="http://www.w3.org/2000/svg">
<path fill-rule="evenodd" clip-rule="evenodd" d="M22.1239 24.3921C26.1334 23.9134 29.6244 21.4429 30.0632 19.1856C30.7545 15.6297 30.6975 10.5081 30.6975 10.5081C30.6975 3.56629 26.1494 1.53154 26.1494 1.53154C23.8562 0.478312 19.9184 0.0354 15.8274 0.00195312H15.7269C11.6359 0.0354 7.70068 0.478312 5.40733 1.53154C5.40733 1.53154 0.85907 3.56629 0.85907 10.5081C0.85907 10.9289 0.856895 11.3715 0.854631 11.8323C0.848342 13.1121 0.841365 14.5319 0.87838 16.0139C1.04355 22.8025 2.12298 29.4931 8.39962 31.1544C11.2936 31.9204 13.7784 32.0808 15.7795 31.9708C19.4085 31.7696 21.4456 30.6757 21.4456 30.6757L21.326 28.0427C21.326 28.0427 18.7326 28.8604 15.8202 28.7607C12.9346 28.6618 9.88835 28.4496 9.42164 24.9068C9.37854 24.5956 9.35699 24.2628 9.35699 23.9134C9.35699 23.9134 12.1896 24.6057 15.7795 24.7702C17.9746 24.8709 20.0331 24.6416 22.1239 24.3921ZM25.3326 19.4524V11.0471C25.3326 9.3292 24.8952 7.96409 24.0168 6.95413C23.1106 5.94417 21.9241 5.42643 20.4515 5.42643C18.7472 5.42643 17.4567 6.08141 16.6037 7.39152L15.7741 8.78198L14.9446 7.39152C14.0914 6.08141 12.8009 5.42643 11.0968 5.42643C9.62397 5.42643 8.43747 5.94417 7.53147 6.95413C6.65289 7.96409 6.21549 9.3292 6.21549 11.0471V19.4524H9.54553V11.2941C9.54553 9.57436 10.2691 8.70147 11.7165 8.70147C13.3167 8.70147 14.119 9.73694 14.119 11.7844V16.2499H17.4293V11.7844C17.4293 9.73694 18.2314 8.70147 19.8316 8.70147C21.279 8.70147 22.0026 9.57436 22.0026 11.2941V19.4524H25.3326Z" fill="white"/>
</svg>
