<svg fill="none" height="57" viewBox="0 0 57 57" width="57" xmlns="http://www.w3.org/2000/svg"><path clip-rule="evenodd" d="m21.4665.120989c-.5588-.1497092-1.1549.010028-1.5639.419036l-19.397005 19.396975c-.4090122.409-.5687494 1.0052-.4190407 1.5639l7.0997857 26.4968c.14971.5587.58612.9951 1.14484 1.1448l26.49682 7.0998c.5587.1497 1.1548-.01 1.5638-.419l19.397-19.397c.409-.409.5688-1.0052.4191-1.5639l-7.0998-26.49678c-.1497-.55872-.5861-.99513-1.1449-1.14484zm23.3962 23.677311c-2.5457-9.5007-12.3114-15.13892-21.8121-12.5932-9.5008 2.5457-15.13899 12.3113-12.5933 21.8121 2.5458 9.5008 12.3114 15.139 21.8122 12.5933 9.5007-2.5458 15.1389-12.3114 12.5932-21.8122z" fill="#fff500" fill-rule="evenodd"/></svg>