<svg width="31" height="32" viewBox="0 0 31 32" fill="none" xmlns="http://www.w3.org/2000/svg">
<path fill-rule="evenodd" clip-rule="evenodd" d="M21.8497 24.3902C25.8592 23.9114 29.3502 21.441 29.789 19.1837C30.4804 15.6278 30.4233 10.5061 30.4233 10.5061C30.4233 3.56433 25.8752 1.52959 25.8752 1.52959C23.582 0.476359 19.6443 0.0334469 15.5532 0H15.4527C11.3617 0.0334469 7.42651 0.476359 5.13316 1.52959C5.13316 1.52959 0.5849 3.56433 0.5849 10.5061C0.5849 10.9269 0.582725 11.3696 0.580461 11.8304C0.574172 13.1101 0.567195 14.5299 0.60421 16.0119C0.769375 22.8006 1.84881 29.4912 8.12545 31.1525C11.0195 31.9185 13.5042 32.0788 15.5053 31.9688C19.1343 31.7676 21.1714 30.6737 21.1714 30.6737L21.0518 28.0407C21.0518 28.0407 18.4585 28.8584 15.546 28.7588C12.6604 28.6598 9.61418 28.4476 9.14747 24.9048C9.10437 24.5936 9.08282 24.2609 9.08282 23.9114C9.08282 23.9114 11.9155 24.6038 15.5053 24.7683C17.7004 24.869 19.7589 24.6397 21.8497 24.3902ZM25.0585 19.4504V11.0451C25.0585 9.32725 24.6211 7.96213 23.7427 6.95217C22.8366 5.94222 21.6501 5.42448 20.1774 5.42448C18.4731 5.42448 17.1827 6.07945 16.3296 7.38957L15.5 8.78003L14.6705 7.38957C13.8173 6.07945 12.5268 5.42448 10.8228 5.42448C9.34988 5.42448 8.16338 5.94222 7.25739 6.95217C6.3788 7.96213 5.94141 9.32725 5.94141 11.0451V19.4504H9.27144V11.2922C9.27144 9.57241 9.99503 8.69951 11.4424 8.69951C13.0427 8.69951 13.8449 9.73499 13.8449 11.7825V16.248H17.1552V11.7825C17.1552 9.73499 17.9573 8.69951 19.5576 8.69951C21.0049 8.69951 21.7285 9.57241 21.7285 11.2922V19.4504H25.0585Z" fill="white"/>
</svg>
