<svg width="24" height="24" viewBox="0 0 24 24" fill="none" xmlns="http://www.w3.org/2000/svg">
<path fill-rule="evenodd" clip-rule="evenodd" d="M16.7623 18.2926C19.7694 17.9336 22.3877 16.0807 22.7168 14.3878C23.2353 11.7208 23.1925 7.87958 23.1925 7.87958C23.1925 2.67325 19.7815 1.14719 19.7815 1.14719C18.0616 0.357269 15.1083 0.0250852 12.04 0H11.9646C8.89633 0.0250852 5.94494 0.357269 4.22493 1.14719C4.22493 1.14719 0.813736 2.67325 0.813736 7.87958C0.813736 8.19521 0.812105 8.52719 0.810407 8.87279C0.80569 9.83259 0.800457 10.8974 0.828219 12.0089C0.952093 17.1004 1.76167 22.1184 6.46915 23.3644C8.63966 23.9389 10.5032 24.0591 12.004 23.9766C14.7258 23.8257 16.2536 23.0053 16.2536 23.0053L16.1639 21.0305C16.1639 21.0305 14.2189 21.6438 12.0346 21.5691C9.87038 21.4949 7.58569 21.3357 7.23566 18.6786C7.20334 18.4452 7.18718 18.1957 7.18718 17.9336C7.18718 17.9336 9.31166 18.4528 12.004 18.5762C13.6504 18.6517 15.1943 18.4797 16.7623 18.2926ZM19.169 14.5873V8.28334C19.169 6.99495 18.8409 5.97111 18.1821 5.21364C17.5025 4.45617 16.6126 4.06787 15.5081 4.06787C14.2299 4.06787 13.2621 4.5591 12.6223 5.54169L12.0001 6.58453L11.378 5.54169C10.7381 4.5591 9.77021 4.06787 8.49216 4.06787C7.3875 4.06787 6.49763 4.45617 5.81813 5.21364C5.15919 5.97111 4.83115 6.99495 4.83115 8.28334V14.5873H7.32867V8.46863C7.32867 7.17882 7.87136 6.52415 8.95688 6.52415C10.1571 6.52415 10.7587 7.30075 10.7587 8.83638V12.1855H13.2415V8.83638C13.2415 7.30075 13.8431 6.52415 15.0433 6.52415C16.1288 6.52415 16.6715 7.17882 16.6715 8.46863V14.5873H19.169Z" fill="black"/>
</svg>
