<svg fill="none" height="32" viewBox="0 0 30 32" width="30" xmlns="http://www.w3.org/2000/svg"><path clip-rule="evenodd" d="m21.3497 24.3902c4.0095-.4788 7.5005-2.9492 7.9393-5.2065.6914-3.5559.6343-8.6776.6343-8.6776 0-6.94177-4.5481-8.97651-4.5481-8.97651-2.2932-1.053231-6.2309-1.4961431-10.322-1.52959h-.1005c-4.091.0334469-8.02619.476359-10.31954 1.52959 0 0-4.5482596 2.03474-4.5482596 8.97651 0 .4208-.0021751.8635-.0044395 1.3243-.0062886 1.2797-.0132656 2.6995.0237491 4.1815.165165 6.7887 1.2446 13.4793 7.52124 15.1406 2.89405.766 5.37875.9263 7.37985.8163 3.629-.2012 5.6661-1.2951 5.6661-1.2951l-.1196-2.633s-2.5933.8177-5.5058.7181c-2.8856-.099-5.93182-.3112-6.39853-3.854-.0431-.3112-.06465-.6439-.06465-.9934 0 0 2.83268.6924 6.42248.8569 2.1951.1007 4.2536-.1286 6.3444-.3781zm3.2088-4.9404v-8.4053c0-1.7179-.4374-3.08302-1.3158-4.09298-.9061-1.00995-2.0926-1.52769-3.5653-1.52769-1.7043 0-2.9947.65497-3.8478 1.96509l-.8296 1.39046-.8295-1.39046c-.8532-1.31012-2.1437-1.96509-3.8477-1.96509-1.47292 0-2.65942.51774-3.56541 1.52769-.87859 1.00996-1.31598 2.37508-1.31598 4.09298v8.4053h3.33003v-8.1583c0-1.71974.72359-2.59264 2.17096-2.59264 1.6003 0 2.4025 1.03548 2.4025 3.08294v4.4655h3.3103v-4.4655c0-2.04746.8021-3.08294 2.4024-3.08294 1.4473 0 2.1709.8729 2.1709 2.59264v8.1583z" fill="#fff" fill-rule="evenodd"/></svg>