<svg fill="none" height="331" viewBox="0 0 330 331" width="330" xmlns="http://www.w3.org/2000/svg"><path clip-rule="evenodd" d="m245.476 309.462c50.368-28.272 84.412-82.262 84.412-144.219 0-91.2354-73.823-165.1963958-164.888-165.1963958-91.0643 0-164.886971 73.9609958-164.886971 165.1963958 0 53.8 25.670071 101.594 65.408571 131.756l6.0487-7.576c8.0679-10.106 12.2124-22.796 11.6678-35.725l-3.8076-90.369c-.1533-3.637.4359-7.267 1.7291-10.669l24.7244-64.9986c1.41-3.7084 5.392-5.7479 9.218-4.7201 4.033 1.0822 6.477 5.1773 5.521 9.2483l-14.861 63.2944c-.971 4.135-.947 8.443.072 12.567l11.842 47.962c1.052 4.26 6.966 4.602 8.501.491l2.985-7.999c2.406-6.445 3.746-13.241 3.97-20.118l.755-23.202c.157-4.843 4.232-8.626 9.064-8.414 4.219.185 7.694 3.381 8.238 7.576l7.017 54.119c2.286 17.633-.734 35.548-8.674 51.451l-27.402 54.884c13.67 3.677 28.042 5.639 42.87 5.639 3.835 0 7.638-.131 11.407-.389l-2.94-10.992c-3.015-11.277-3.795-23.037-2.294-34.615l8.251-63.637c.544-4.195 4.019-7.391 8.238-7.576 4.832-.211 8.907 3.571 9.064 8.415l.755 23.201c.223 6.878 1.564 13.673 3.97 20.119l2.985 7.999c1.535 4.11 7.449 3.768 8.501-.492l11.842-47.962c1.019-4.123 1.043-8.431.072-12.567l-14.861-63.294c-.956-4.071 1.488-8.167 5.521-9.249 3.826-1.027 7.807 1.012 9.218 4.72l24.724 64.999c1.294 3.402 1.882 7.032 1.728 10.669l-3.223 76.542c-.192 4.56-1.048 8.972-2.482 13.131z" fill="#f66" fill-rule="evenodd"/></svg>