<svg fill="none" height="36" viewBox="0 0 36 36" width="36" xmlns="http://www.w3.org/2000/svg"><path clip-rule="evenodd" d="m13.814.729577c-.3451-.092469-.7133.006192-.9659.258819l-11.98053 11.980504c-.252625.2526-.351286.6208-.258819.9659l4.385159 16.3657c.09247.3451.36202.6146.70711.7071l16.36568 4.3851c.3451.0925.7133-.0062.9659-.2588l11.9805-11.9805c.2526-.2526.3513-.6208.2588-.9659l-4.3851-16.36565c-.0925-.34509-.3621-.61464-.7072-.70711zm14.4504 14.624223c-1.5723-5.86811-7.604-9.35052-13.4722-7.77816-5.86809 1.57236-9.3505 7.60406-7.77814 13.47216 1.57236 5.8682 7.60404 9.3506 13.47224 7.7782 5.8681-1.5723 9.3505-7.6041 7.7781-13.4722z" fill="#fff500" fill-rule="evenodd"/></svg>