<svg width="30" height="32" viewBox="0 0 30 32" fill="none" xmlns="http://www.w3.org/2000/svg">
<path fill-rule="evenodd" clip-rule="evenodd" d="M21.3497 24.3902C25.3592 23.9114 28.8503 21.441 29.289 19.1837C29.9804 15.6278 29.9233 10.5061 29.9233 10.5061C29.9233 3.56433 25.3752 1.52959 25.3752 1.52959C23.0821 0.476359 19.1443 0.0334469 15.0533 0H14.9528C10.8617 0.0334469 6.92654 0.476359 4.63319 1.52959C4.63319 1.52959 0.084931 3.56433 0.084931 10.5061C0.084931 10.9269 0.0827558 11.3696 0.0804914 11.8304C0.0742028 13.1101 0.0672258 14.5299 0.10424 16.0119C0.269406 22.8006 1.34884 29.4912 7.62548 31.1525C10.5195 31.9185 13.0042 32.0788 15.0053 31.9688C18.6343 31.7676 20.6715 30.6737 20.6715 30.6737L20.5518 28.0407C20.5518 28.0407 17.9585 28.8584 15.046 28.7588C12.1605 28.6598 9.11421 28.4476 8.6475 24.9048C8.6044 24.5936 8.58285 24.2609 8.58285 23.9114C8.58285 23.9114 11.4155 24.6038 15.0053 24.7683C17.2004 24.869 19.259 24.6397 21.3497 24.3902ZM24.5586 19.4504V11.0451C24.5586 9.32725 24.1212 7.96213 23.2428 6.95217C22.3366 5.94222 21.1501 5.42448 19.6774 5.42448C17.9732 5.42448 16.6827 6.07945 15.8297 7.38957L15.0001 8.78003L14.1706 7.38957C13.3174 6.07945 12.0269 5.42448 10.3228 5.42448C8.84997 5.42448 7.66346 5.94222 6.75747 6.95217C5.87888 7.96213 5.44149 9.32725 5.44149 11.0451V19.4504H8.77152V11.2922C8.77152 9.57241 9.49511 8.69951 10.9425 8.69951C12.5427 8.69951 13.3449 9.73499 13.3449 11.7825V16.248H16.6553V11.7825C16.6553 9.73499 17.4574 8.69951 19.0576 8.69951C20.505 8.69951 21.2286 9.57241 21.2286 11.2922V19.4504H24.5586Z" fill="white"/>
</svg>
