<svg fill="none" height="32" viewBox="0 0 31 32" width="31" xmlns="http://www.w3.org/2000/svg"><path clip-rule="evenodd" d="m21.8497 24.3921c4.0095-.4787 7.5005-2.9492 7.9393-5.2065.6914-3.5559.6343-8.6775.6343-8.6775 0-6.94181-4.5481-8.97656-4.5481-8.97656-2.2932-1.053228-6.2309-1.49614-10.322-1.52958688h-.1005c-4.091.03344688-8.02619.47635888-10.31954 1.52958688 0 0-4.54826 2.03475-4.54826 8.97656 0 .4208-.002175.8634-.004439 1.3242-.006289 1.2798-.013266 2.6996.023749 4.1816.165165 6.7886 1.2446 13.4792 7.52124 15.1405 2.89405.766 5.37875.9264 7.37985.8164 3.629-.2012 5.6661-1.2951 5.6661-1.2951l-.1196-2.633s-2.5933.8177-5.5058.718c-2.8856-.0989-5.93182-.3111-6.39853-3.8539-.0431-.3112-.06465-.644-.06465-.9934 0 0 2.83268.6923 6.42248.8568 2.1951.1007 4.2536-.1286 6.3444-.3781zm3.2088-4.9397v-8.4053c0-1.7179-.4374-3.08301-1.3158-4.09297-.9061-1.00996-2.0926-1.5277-3.5653-1.5277-1.7043 0-2.9947.65498-3.8478 1.96509l-.8296 1.39046-.8295-1.39046c-.8532-1.31011-2.1437-1.96509-3.8477-1.96509-1.47292 0-2.65942.51774-3.56541 1.5277-.87859 1.00996-1.31598 2.37507-1.31598 4.09297v8.4053h3.33003v-8.1583c0-1.71974.72359-2.59263 2.17096-2.59263 1.6003 0 2.4025 1.03547 2.4025 3.08293v4.4655h3.3103v-4.4655c0-2.04746.8021-3.08293 2.4024-3.08293 1.4473 0 2.1709.87289 2.1709 2.59263v8.1583z" fill="#fff" fill-rule="evenodd"/></svg>