<svg fill="none" height="25" viewBox="0 0 24 25" width="24" xmlns="http://www.w3.org/2000/svg"><path clip-rule="evenodd" d="m16.7623 19.0628c3.0071-.3591 5.6254-2.2119 5.9545-3.9049.5185-2.6669.4757-6.50818.4757-6.50818 0-5.20633-3.411-6.73239-3.411-6.73239-1.7199-.78992-4.6732-1.122103-7.7415-1.147188h-.0754c-3.06827.025085-6.01966.357268-7.73967 1.147188 0 0-3.411194 1.52606-3.411194 6.73239 0 .31563-.001631.64761-.003329.99321-.004717.95977-.00995 2.02467.017812 3.13617.123874 5.0915.933451 10.1094 5.640931 11.3554 2.17051.5745 4.03405.6948 5.53485.6123 2.7218-.1509 4.2496-.9714 4.2496-.9714l-.0897-1.9747s-1.945.6133-4.1293.5385c-2.16422-.0742-4.44891-.2334-4.79894-2.8904-.03232-.2334-.04848-.483-.04848-.7451 0 0 2.12448.5193 4.81682.6426 1.6464.0756 3.1903-.0964 4.7583-.2835zm2.4067-3.7053v-6.30402c0-1.28839-.3281-2.31223-.9869-3.0697-.6796-.75746-1.5695-1.14577-2.674-1.14577-1.2782 0-2.246.49123-2.8858 1.47382l-.6222 1.04284-.6221-1.04284c-.6399-.98259-1.60779-1.47382-2.88584-1.47382-1.10466 0-1.99453.38831-2.67403 1.14577-.65894.75747-.98698 1.78131-.98698 3.0697v6.30402h2.49752v-6.11872c0-1.28982.54269-1.94449 1.62821-1.94449 1.20022 0 1.80182.7766 1.80182 2.31223v3.34908h2.4828v-3.34908c0-1.53563.6016-2.31223 1.8018-2.31223 1.0855 0 1.6282.65467 1.6282 1.94449v6.11872z" fill="#000" fill-rule="evenodd"/></svg>