<svg width="651" height="551" viewBox="0 0 651 551" fill="none" xmlns="http://www.w3.org/2000/svg">
<path fill-rule="evenodd" clip-rule="evenodd" d="M498.471 628.542C600.785 571.113 669.939 461.441 669.939 335.588C669.939 150.26 519.982 0.0220337 335.001 0.0220337C150.019 0.0220337 0.0625 150.26 0.0625 335.588C0.0625 444.873 52.2065 541.956 132.928 603.226L145.215 587.835C161.603 567.308 170.022 541.531 168.915 515.268L161.181 331.701C160.87 324.313 162.066 316.938 164.693 310.028L214.916 177.995C217.78 170.462 225.869 166.319 233.642 168.407C241.832 170.605 246.799 178.924 244.856 187.193L214.668 315.764C212.696 324.164 212.745 332.914 214.815 341.292L238.87 438.717C241.007 447.371 253.019 448.066 256.137 439.715L262.202 423.466C267.088 410.374 269.811 396.57 270.266 382.6L271.799 335.47C272.118 325.631 280.395 317.948 290.212 318.378C298.781 318.755 305.84 325.247 306.944 333.768L321.198 443.7C325.842 479.518 319.708 515.91 303.579 548.213L247.916 659.699C275.685 667.17 304.878 671.154 335.001 671.154C342.789 671.154 350.515 670.887 358.171 670.363L352.199 648.036C346.074 625.129 344.49 601.24 347.538 577.723L364.3 448.456C365.404 439.934 372.463 433.442 381.032 433.067C390.849 432.637 399.126 440.321 399.445 450.159L400.978 497.289C401.431 511.259 404.156 525.063 409.042 538.155L415.107 554.404C418.225 562.753 430.237 562.059 432.374 553.405L456.429 455.98C458.499 447.603 458.548 438.853 456.576 430.451L426.388 301.883C424.446 293.613 429.412 285.293 437.602 283.094C445.375 281.009 453.462 285.15 456.328 292.683L506.551 424.716C509.178 431.627 510.372 439 510.061 446.388L503.513 601.867C503.122 611.131 501.384 620.094 498.471 628.542Z" fill="#FF6666"/>
</svg>
