<svg fill="none" height="32" viewBox="0 0 30 32" width="30" xmlns="http://www.w3.org/2000/svg"><path clip-rule="evenodd" d="m21.3499 24.3902c4.0095-.4788 7.5006-2.9492 7.9394-5.2065.6913-3.5559.6342-8.6776.6342-8.6776 0-6.94177-4.548-8.97651-4.548-8.97651-2.2932-1.053231-6.231-1.4961431-10.322-1.52959h-.1005c-4.0911.0334469-8.02625.476359-10.3196 1.52959 0 0-4.5482554 2.03474-4.5482554 8.97651 0 .4208-.0021752.8635-.0044395 1.3243-.0062887 1.2797-.0132657 2.6995.0237489 4.1815.165166 6.7887 1.244606 13.4793 7.521236 15.1406 2.89401.766 5.37871.9263 7.37991.8163 3.6289-.2012 5.6661-1.2951 5.6661-1.2951l-.1197-2.633s-2.5933.8177-5.5058.7181c-2.8855-.099-5.93178-.3112-6.39848-3.854-.04311-.3112-.06466-.6439-.06466-.9934 0 0 2.83264.6924 6.42254.8569 2.195.1007 4.2536-.1286 6.3443-.3781zm3.2086-4.9404v-8.4053c0-1.7179-.4374-3.08302-1.3158-4.09298-.9061-1.00995-2.0926-1.52769-3.5653-1.52769-1.7043 0-2.9947.65497-3.8478 1.96509l-.8296 1.39046-.8295-1.39046c-.8532-1.31012-2.1437-1.96509-3.8477-1.96509-1.47292 0-2.65942.51774-3.56541 1.52769-.87859 1.00996-1.31598 2.37508-1.31598 4.09298v8.4053h3.33003v-8.1583c0-1.71974.72359-2.59264 2.17096-2.59264 1.6003 0 2.4025 1.03548 2.4025 3.08294v4.4655h3.3103v-4.4655c0-2.04746.8021-3.08294 2.4024-3.08294 1.4473 0 2.1709.8729 2.1709 2.59264v8.1583z" fill="#0080ff" fill-rule="evenodd"/></svg>