<svg fill="none" height="58" viewBox="0 0 57 58" width="57" xmlns="http://www.w3.org/2000/svg"><path clip-rule="evenodd" d="m21.4596.853044c-.5587-.149709-1.1548.010028-1.5639.419036l-19.396941 19.39702c-.4090122.409-.5687493 1.0051-.4190407 1.5638l7.0997817 26.4968c.14971.5587.58612.9952 1.14484 1.1449l26.49676 7.0998c.5587.1497 1.1549-.0101 1.5639-.4191l19.397-19.397c.409-.409.5687-1.0051.419-1.5638l-7.0998-26.49682c-.1497-.55872-.5861-.99513-1.1448-1.14484zm23.3963 23.676256c-2.5458-9.5007-12.3114-15.13893-21.8122-12.5932-9.5007 2.5457-15.13893 12.3113-12.5932 21.8121 2.5457 9.5008 12.3113 15.139 21.8121 12.5933 9.5008-2.5458 15.139-12.3114 12.5933-21.8122z" fill="#fff500" fill-rule="evenodd"/></svg>