<svg width="23" height="25" viewBox="0 0 23 25" fill="none" xmlns="http://www.w3.org/2000/svg">
<path fill-rule="evenodd" clip-rule="evenodd" d="M16.5358 18.7946C19.5429 18.4355 22.1612 16.5827 22.4903 14.8897C23.0088 12.2228 22.966 8.38154 22.966 8.38154C22.966 3.1752 19.5549 1.64915 19.5549 1.64915C17.835 0.859223 14.8817 0.527038 11.8134 0.501953H11.738C8.66977 0.527038 5.71838 0.859223 3.99837 1.64915C3.99837 1.64915 0.587174 3.1752 0.587174 8.38154C0.587174 8.69716 0.585543 9.02914 0.583844 9.37474C0.579128 10.3345 0.573895 11.3994 0.601656 12.5109C0.72553 17.6024 1.53511 22.6203 6.24258 23.8663C8.41309 24.4408 10.2766 24.5611 11.7775 24.4786C14.4992 24.3277 16.0271 23.5072 16.0271 23.5072L15.9373 21.5325C15.9373 21.5325 13.9923 22.1458 11.808 22.071C9.64382 21.9968 7.35913 21.8377 7.0091 19.1806C6.97678 18.9472 6.96061 18.6976 6.96061 18.4355C6.96061 18.4355 9.08509 18.9548 11.7775 19.0782C13.4238 19.1537 14.9677 18.9817 16.5358 18.7946ZM18.9424 15.0893V8.78529C18.9424 7.4969 18.6144 6.47306 17.9556 5.7156C17.2759 4.95813 16.3861 4.56982 15.2815 4.56982C14.0034 4.56982 13.0355 5.06105 12.3957 6.04364L11.7735 7.08649L11.1514 6.04364C10.5115 5.06105 9.54364 4.56982 8.26559 4.56982C7.16094 4.56982 6.27107 4.95813 5.59157 5.7156C4.93263 6.47306 4.60458 7.4969 4.60458 8.78529V15.0893H7.10211V8.97059C7.10211 7.68077 7.6448 7.0261 8.73032 7.0261C9.93052 7.0261 10.5322 7.80271 10.5322 9.33833V12.6875H13.015V9.33833C13.015 7.80271 13.6165 7.0261 14.8167 7.0261C15.9022 7.0261 16.4449 7.68077 16.4449 8.97059V15.0893H18.9424Z" fill="black"/>
</svg>
