<svg fill="none" height="21" viewBox="0 0 21 21" width="21" xmlns="http://www.w3.org/2000/svg"><path clip-rule="evenodd" d="m8.03719.702613c-.19719-.052838-.4076.00354-.55195.147896l-6.846001 6.845991c-.144357.14436-.200735.35477-.147897.55196l2.505808 9.35184c.05284.1972.20686.3512.40406.404l9.35179 2.5058c.1972.0529.4076-.0035.552-.1479l6.846-6.846c.1443-.1443.2007-.3547.1479-.5519l-2.5058-9.35182c-.0529-.19719-.2069-.35122-.4041-.40406zm8.25751 8.356757c-.8985-3.35321-4.3452-5.34316-7.69839-4.44467-3.35321.89849-5.34316 4.34518-4.44467 7.6984.89849 3.3532 4.34518 5.3432 7.69836 4.4447 3.3533-.8985 5.3432-4.3452 4.4447-7.69843z" fill="#f55c5c" fill-rule="evenodd"/></svg>