<svg width="30" height="32" viewBox="0 0 30 32" fill="none" xmlns="http://www.w3.org/2000/svg">
<path fill-rule="evenodd" clip-rule="evenodd" d="M21.3495 24.3902C25.3589 23.9114 28.85 21.441 29.2888 19.1837C29.9801 15.6278 29.9231 10.5061 29.9231 10.5061C29.9231 3.56433 25.375 1.52959 25.375 1.52959C23.0818 0.476359 19.144 0.0334469 15.053 0H14.9525C10.8614 0.0334469 6.92627 0.476359 4.63291 1.52959C4.63291 1.52959 0.0846563 3.56433 0.0846563 10.5061C0.0846563 10.9269 0.0824812 11.3696 0.0802168 11.8304C0.0739281 13.1101 0.0669511 14.5299 0.103966 16.0119C0.269131 22.8006 1.34857 29.4912 7.6252 31.1525C10.5192 31.9185 13.0039 32.0788 15.0051 31.9688C18.6341 31.7676 20.6712 30.6737 20.6712 30.6737L20.5516 28.0407C20.5516 28.0407 17.9582 28.8584 15.0458 28.7588C12.1602 28.6598 9.11393 28.4476 8.64723 24.9048C8.60413 24.5936 8.58257 24.2609 8.58257 23.9114C8.58257 23.9114 11.4152 24.6038 15.0051 24.7683C17.2001 24.869 19.2587 24.6397 21.3495 24.3902ZM24.5584 19.4504V11.0451C24.5584 9.32725 24.121 7.96213 23.2426 6.95217C22.3364 5.94222 21.1499 5.42448 19.6772 5.42448C17.973 5.42448 16.6825 6.07945 15.8294 7.38957L14.9998 8.78003L14.1704 7.38957C13.3171 6.07945 12.0267 5.42448 10.3226 5.42448C8.84974 5.42448 7.66324 5.94222 6.75724 6.95217C5.87866 7.96213 5.44126 9.32725 5.44126 11.0451V19.4504H8.7713V11.2922C8.7713 9.57241 9.49489 8.69951 10.9422 8.69951C12.5425 8.69951 13.3447 9.73499 13.3447 11.7825V16.248H16.6551V11.7825C16.6551 9.73499 17.4571 8.69951 19.0574 8.69951C20.5048 8.69951 21.2284 9.57241 21.2284 11.2922V19.4504H24.5584Z" fill="black"/>
</svg>
