<svg fill="none" height="24" viewBox="0 0 24 24" width="24" xmlns="http://www.w3.org/2000/svg"><path clip-rule="evenodd" d="m16.7623 18.2926c3.0071-.359 5.6254-2.2119 5.9545-3.9048.5185-2.667.4757-6.50822.4757-6.50822 0-5.20633-3.4111-6.73239-3.4111-6.73239-1.7198-.789921-4.6732-1.1221048-7.7414-1.14719h-.0754c-3.0683.0250852-6.01969.357269-7.7397 1.14719 0 0-3.411194 1.52606-3.411194 6.73239 0 .31563-.001632.64761-.00333.99321-.004716.9598-.009949 2.02461.017812 3.13611.123874 5.0915.933452 10.1095 5.640922 11.3555 2.17052.5745 4.03409.6947 5.53489.6122 2.7218-.1509 4.2496-.9713 4.2496-.9713l-.0897-1.9748s-1.945.6133-4.1294.5386c-2.16415-.0742-4.44884-.2334-4.79887-2.8905-.03232-.2334-.04849-.4829-.04849-.745 0 0 2.12449.5192 4.81686.6426 1.6463.0755 3.1902-.0965 4.7583-.2836zm2.4067-3.7053v-6.30396c0-1.28839-.3281-2.31223-.9869-3.0697-.6796-.75747-1.5695-1.14577-2.674-1.14577-1.2782 0-2.246.49123-2.8858 1.47382l-.6223 1.04284-.622-1.04284c-.64-.98259-1.60782-1.47382-2.88587-1.47382-1.10466 0-1.99453.3883-2.67403 1.14577-.65894.75747-.98698 1.78131-.98698 3.0697v6.30396h2.49752v-6.11867c0-1.28981.54269-1.94448 1.62821-1.94448 1.20025 0 1.80185.7766 1.80185 2.31223v3.34912h2.4828v-3.34912c0-1.53563.6015-2.31223 1.8017-2.31223 1.0855 0 1.6282.65467 1.6282 1.94448v6.11867z" fill="#000" fill-rule="evenodd"/></svg>