<svg fill="none" height="25" viewBox="0 0 23 25" width="23" xmlns="http://www.w3.org/2000/svg"><path clip-rule="evenodd" d="m16.5358 18.7946c3.0071-.3591 5.6254-2.2119 5.9545-3.9049.5185-2.6669.4757-6.50816.4757-6.50816 0-5.20634-3.4111-6.73239-3.4111-6.73239-1.7199-.789927-4.6732-1.122112-7.7415-1.147197h-.0754c-3.06823.025085-6.01962.35727-7.73963 1.147197 0 0-3.411196 1.52605-3.411196 6.73239 0 .31562-.001631.6476-.00333.9932-.004716.95976-.009949 2.02466.017812 3.13616.123874 5.0915.933454 10.1094 5.640924 11.3554 2.17051.5745 4.03402.6948 5.53492.6123 2.7217-.1509 4.2496-.9714 4.2496-.9714l-.0898-1.9747s-1.945.6133-4.1293.5385c-2.16418-.0742-4.44887-.2333-4.7989-2.8904-.03232-.2334-.04849-.483-.04849-.7451 0 0 2.12448.5193 4.81689.6427 1.6463.0755 3.1902-.0965 4.7583-.2836zm2.4066-3.7053v-6.30401c0-1.28839-.328-2.31223-.9868-3.06969-.6797-.75747-1.5695-1.14578-2.6741-1.14578-1.2781 0-2.246.49123-2.8858 1.47382l-.6222 1.04285-.6221-1.04285c-.6399-.98259-1.60776-1.47382-2.88581-1.47382-1.10465 0-1.99452.38831-2.67402 1.14578-.65894.75746-.98699 1.7813-.98699 3.06969v6.30401h2.49753v-6.11871c0-1.28982.54269-1.94449 1.62821-1.94449 1.2002 0 1.80188.77661 1.80188 2.31223v3.34917h2.4828v-3.34917c0-1.53562.6015-2.31223 1.8017-2.31223 1.0855 0 1.6282.65467 1.6282 1.94449v6.11871z" fill="#000" fill-rule="evenodd"/></svg>