<svg fill="none" height="32" viewBox="0 0 30 32" width="30" xmlns="http://www.w3.org/2000/svg"><path clip-rule="evenodd" d="m21.3497 24.3902c4.0095-.4788 7.5006-2.9492 7.9393-5.2065.6914-3.5559.6343-8.6776.6343-8.6776 0-6.94177-4.5481-8.97651-4.5481-8.97651-2.2931-1.053231-6.2309-1.4961431-10.3219-1.52959h-.1005c-4.0911.0334469-8.02626.476359-10.31961 1.52959 0 0-4.548259 2.03474-4.548259 8.97651 0 .4208-.0021752.8635-.0044396 1.3243-.0062886 1.2797-.0132656 2.6995.0237486 4.1815.165166 6.7887 1.2446 13.4793 7.52124 15.1406 2.89402.766 5.37872.9263 7.37982.8163 3.629-.2012 5.6662-1.2951 5.6662-1.2951l-.1197-2.633s-2.5933.8177-5.5058.7181c-2.8855-.099-5.93179-.3112-6.3985-3.854-.0431-.3112-.06465-.6439-.06465-.9934 0 0 2.83265.6924 6.42245.8569 2.1951.1007 4.2537-.1286 6.3444-.3781zm3.2089-4.9398v-8.4053c0-1.71785-.4374-3.08297-1.3158-4.09293-.9062-1.00995-2.0927-1.52769-3.5654-1.52769-1.7042 0-2.9947.65497-3.8477 1.96509l-.8296 1.39046-.8295-1.39046c-.8532-1.31012-2.1437-1.96509-3.8478-1.96509-1.47283 0-2.65934.51774-3.56533 1.52769-.87859 1.00996-1.31598 2.37508-1.31598 4.09293v8.4053h3.33003v-8.1582c0-1.71979.72359-2.59269 2.17098-2.59269 1.6002 0 2.4024 1.03548 2.4024 3.08299v4.4655h3.3104v-4.4655c0-2.04751.8021-3.08299 2.4023-3.08299 1.4474 0 2.171.8729 2.171 2.59269v8.1582z" fill="#fff" fill-rule="evenodd"/></svg>