<svg width="24" height="25" viewBox="0 0 24 25" fill="none" xmlns="http://www.w3.org/2000/svg">
<path fill-rule="evenodd" clip-rule="evenodd" d="M16.9274 18.8415C19.9345 18.4824 22.5528 16.6296 22.8819 14.9366C23.4004 12.2697 23.3576 8.42841 23.3576 8.42841C23.3576 3.22208 19.9465 1.69602 19.9465 1.69602C18.2266 0.906098 15.2733 0.573913 12.205 0.548828H12.1296C9.06137 0.573913 6.10998 0.906098 4.38997 1.69602C4.38997 1.69602 0.978775 3.22208 0.978775 8.42841C0.978775 8.74404 0.977144 9.07602 0.975446 9.42161C0.970729 10.3814 0.965497 11.4463 0.993258 12.5578C1.11713 17.6493 1.92671 22.6672 6.63418 23.9132C8.8047 24.4877 10.6682 24.6079 12.1691 24.5254C14.8908 24.3746 16.4187 23.5541 16.4187 23.5541L16.3289 21.5794C16.3289 21.5794 14.3839 22.1927 12.1996 22.1179C10.0354 22.0437 7.75073 21.8845 7.4007 19.2274C7.36838 18.994 7.35221 18.7445 7.35221 18.4824C7.35221 18.4824 9.4767 19.0017 12.1691 19.125C13.8154 19.2005 15.3593 19.0286 16.9274 18.8415ZM19.334 15.1362V8.83217C19.334 7.54378 19.006 6.51994 18.3472 5.76247C17.6675 5.005 16.7777 4.6167 15.6732 4.6167C14.395 4.6167 13.4271 5.10793 12.7873 6.09052L12.1651 7.13336L11.543 6.09052C10.9031 5.10793 9.93525 4.6167 8.6572 4.6167C7.55254 4.6167 6.66267 5.005 5.98317 5.76247C5.32423 6.51994 4.99619 7.54378 4.99619 8.83217V15.1362H7.49371V9.01746C7.49371 7.72765 8.0364 7.07298 9.12192 7.07298C10.3221 7.07298 10.9238 7.84958 10.9238 9.38521V12.7343H13.4066V9.38521C13.4066 7.84958 14.0081 7.07298 15.2083 7.07298C16.2938 7.07298 16.8365 7.72765 16.8365 9.01746V15.1362H19.334Z" fill="black"/>
</svg>
