<svg fill="none" height="33" viewBox="0 0 33 33" width="33" xmlns="http://www.w3.org/2000/svg"><path d="m27.9162 10.5453c.0188.266.0188.5332.0188.7992 0 8.1282-6.1864 17.4938-17.4932 17.4938-3.4834 0-6.71953-1.009-9.4418-2.7598.49512.0569.9709.0762 1.48477.0762 2.87402 0 5.52011-.9715 7.63303-2.6274-1.28295-.0235-2.5265-.4471-3.55701-1.2116-1.03051-.7646-1.79652-1.8318-2.19106-3.0528.38399.0606.772.0923 1.16074.0949.55195 0 1.10391-.0762 1.61777-.2092-1.39209-.2817-2.64373-1.0367-3.54233-2.1366-.89859-1.1-1.38873-2.477-1.38716-3.8974v-.0761c.85195.4754 1.80419.7429 2.7791.7804-.84382-.5612-1.53573-1.3224-2.01407-2.2158-.47835-.8934-.72828-1.89126-.72753-2.90466 0-1.14199.30469-2.18906.83789-3.10254 1.54437 1.90078 3.471 3.45574 5.65495 4.5641 2.18391 1.1083 4.57651 1.7452 7.02241 1.8695-.0949-.457-.1524-.9322-.1524-1.408 0-3.38849 2.7411-6.14884 6.1489-6.14884 1.7695 0 3.3691.74238 4.4924 1.94179 1.3769-.26517 2.6973-.76756 3.9023-1.48476-.4586 1.42098-1.4198 2.62582-2.7035 3.38847 1.2375-.13359 2.4369-.47636 3.5408-.95214-.8418 1.22568-1.8843 2.30053-3.0838 3.17928z" fill="#1d9bf0"/></svg>