<svg fill="none" height="25" viewBox="0 0 24 25" width="24" xmlns="http://www.w3.org/2000/svg"><path d="m9.89024 4.45602c-1.66834-2.06292-5.45504-1.94092-7.57145.82279-.38175.49843-.68046 1.14475-.90607 1.87871l-1.41272.58968 1.10626.68772c-.508832 2.79248-.213023 6.23768.49963 7.91518 2.18298 5.1384 9.24341 6.6003 13.34121 4.9837 5.9462-2.3461 9.0529-7.0948 9.0529-7.0948s-6.9411-.0738-14.10976-9.78298zm-4.88545 2.35001c-.08133.39917-.53062.64923-1.00362.55797-.473-.09102-.7906-.48874-.70926-.88791.08109-.39917.53061-.64923 1.00362-.55821.473.09126.79035.48874.70926.88815zm13.99601 9.34627c-.5824 1.5394-3.2779 1.9463-6.0196.9088-2.7419-1.0375-4.49254-3.1266-3.91012-4.6664.58242-1.5396 3.27762-1.9465 6.01982-.9087 2.7416 1.0375 4.4923 3.1268 3.9099 4.6663z" fill="#000"/></svg>