<svg fill="none" height="25" viewBox="0 0 24 25" width="24" xmlns="http://www.w3.org/2000/svg"><path d="m9.89024 4.45797c-1.66834-2.06292-5.45504-1.94091-7.57145.8228-.38175.49842-.68046 1.14474-.90607 1.8787l-1.41272.58968 1.10626.68772c-.508832 2.79253-.213023 6.23763.49963 7.91523 2.18298 5.1384 9.24341 6.6002 13.34121 4.9837 5.9462-2.3461 9.0529-7.0948 9.0529-7.0948s-6.9411-.0738-14.10976-9.78303zm-4.88545 2.35001c-.08133.39918-.53062.64924-1.00362.55798-.473-.09102-.7906-.48874-.70926-.88792.08109-.39917.53061-.64923 1.00362-.55821.473.09126.79035.48874.70926.88815zm13.99601 9.34632c-.5824 1.5393-3.2779 1.9462-6.0196.9087-2.7419-1.0375-4.49254-3.1265-3.91012-4.6664.58242-1.5395 3.27762-1.9464 6.01982-.9087 2.7416 1.0375 4.4923 3.1268 3.9099 4.6664z" fill="#fff"/></svg>