<svg fill="none" height="32" viewBox="0 0 33 32" width="33" xmlns="http://www.w3.org/2000/svg"><path d="m27.9162 10.0727c.0188.266.0188.5332.0188.7992 0 8.1281-6.1864 17.4937-17.4932 17.4937-3.4834 0-6.71953-1.009-9.4418-2.7597.49512.0568.9709.0761 1.48477.0761 2.87402 0 5.52011-.9715 7.63303-2.6273-1.28295-.0235-2.5265-.4471-3.55701-1.2117-1.03051-.7645-1.79652-1.8318-2.19106-3.0528.38399.0606.772.0924 1.16074.095.55195 0 1.10391-.0762 1.61777-.2092-1.39209-.2818-2.64373-1.0367-3.54233-2.1367-.89859-1.0999-1.38873-2.477-1.38716-3.8973v-.0762c.85195.4755 1.80419.7429 2.7791.7805-.84382-.5612-1.53573-1.3224-2.01407-2.2158-.47835-.8935-.72828-1.89131-.72753-2.90472 0-1.14199.30469-2.18906.83789-3.10254 1.54437 1.90078 3.471 3.45575 5.65495 4.56408 2.18391 1.10828 4.57651 1.74528 7.02241 1.86948-.0949-.457-.1524-.9322-.1524-1.408 0-3.38845 2.7411-6.1488 6.1489-6.1488 1.7695 0 3.3691.74238 4.4924 1.9418 1.3769-.26517 2.6973-.76756 3.9023-1.48477-.4586 1.42098-1.4198 2.62582-2.7035 3.38848 1.2375-.1336 2.4369-.47637 3.5408-.95215-.8418 1.22568-1.8843 2.30054-3.0838 3.17934z" fill="#1d9bf0"/></svg>