<svg width="24" height="25" viewBox="0 0 24 25" fill="none" xmlns="http://www.w3.org/2000/svg">
<path d="M9.89024 4.45797C8.2219 2.39505 4.4352 2.51706 2.31879 5.28077C1.93704 5.77919 1.63833 6.42551 1.41272 7.15947L0 7.74915L1.10626 8.43687C0.597428 11.2294 0.893237 14.6745 1.60589 16.3521C3.78887 21.4905 10.8493 22.9523 14.9471 21.3358C20.8933 18.9897 24 14.241 24 14.241C24 14.241 17.0589 14.1672 9.89024 4.45797ZM5.00479 6.80798C4.92346 7.20716 4.47417 7.45722 4.00117 7.36596C3.52817 7.27494 3.21057 6.87722 3.29191 6.47804C3.373 6.07887 3.82252 5.82881 4.29553 5.91983C4.76853 6.01109 5.08588 6.40857 5.00479 6.80798ZM19.0008 16.1543C18.4184 17.6936 15.7229 18.1005 12.9812 17.063C10.2393 16.0255 8.48866 13.9365 9.07108 12.3966C9.6535 10.8571 12.3487 10.4502 15.0909 11.4879C17.8325 12.5254 19.5832 14.6147 19.0008 16.1543Z" fill="black"/>
</svg>
