<svg fill="none" height="21" viewBox="0 0 21 21" width="21" xmlns="http://www.w3.org/2000/svg"><g fill="#bbb"><path d="m.125488 20.1543c0 .4142.335787.75.75.75h6.750002c.41421 0 .75-.3358.75-.75s-.33579-.75-.75-.75h-6v-6c0-.4142-.33579-.75-.750002-.75-.414214 0-.75.3358-.75.75zm8.943122-7.1325c.2929-.2929.2929-.7677 0-1.0606-.29289-.2929-.76776-.2929-1.06066 0zm-7.66279 7.6628 7.66279-7.6628-1.06066-1.0606-7.662792 7.6628z"/><path d="m20.7778 1c0-.414214-.3358-.75-.75-.75h-6.75c-.4142 0-.75.335786-.75.75 0 .41421.3358.75.75.75h6v6c0 .41421.3358.75.75.75s.75-.33579.75-.75zm-8.9431 7.13247c-.2929.29289-.2929.76776 0 1.06066.2929.29289.7678.29289 1.0607 0zm7.6628-7.6628-7.6628 7.6628 1.0607 1.06066 7.6628-7.6628z"/></g></svg>