<svg fill="none" height="22" viewBox="0 0 21 22" width="21" xmlns="http://www.w3.org/2000/svg"><g fill="#bbb"><path d="m.0976563 20.7793c0 .4142.3357867.75.7499997.75h6.750004c.41421 0 .75-.3358.75-.75s-.33579-.75-.75-.75h-6v-6c0-.4142-.33579-.75-.750004-.75s-.7499999.3358-.7499999.75zm8.9431237-7.1325c.2929-.2929.2929-.7677 0-1.0606-.29289-.2929-.76776-.2929-1.06066 0zm-7.66279 7.6628 7.66279-7.6628-1.06066-1.0606-7.662794 7.6628z"/><path d="m20.75 1.625c0-.41421-.3358-.75-.75-.75h-6.75c-.4142 0-.75.33579-.75.75s.3358.75.75.75h6v6c0 .41421.3358.75.75.75s.75-.33579.75-.75zm-8.9431 7.13247c-.2929.29289-.2929.76776 0 1.06066.2929.29287.7677.29287 1.0606 0zm7.6628-7.6628-7.6628 7.6628 1.0606 1.06066 7.6628-7.6628z"/></g></svg>