<svg width="21" height="21" viewBox="0 0 21 21" fill="none" xmlns="http://www.w3.org/2000/svg">
<path d="M0.290527 20.2012C0.290527 20.6154 0.626314 20.9512 1.04053 20.9512L7.79053 20.9512C8.20474 20.9512 8.54053 20.6154 8.54053 20.2012C8.54053 19.787 8.20474 19.4512 7.79053 19.4512L1.79053 19.4512L1.79053 13.4512C1.79053 13.037 1.45474 12.7012 1.04053 12.7012C0.626314 12.7012 0.290527 13.037 0.290527 13.4512L0.290527 20.2012ZM9.23365 13.0687C9.52655 12.7758 9.52655 12.3009 9.23365 12.008C8.94076 11.7152 8.46589 11.7152 8.17299 12.008L9.23365 13.0687ZM1.57086 20.7315L9.23365 13.0687L8.17299 12.008L0.510197 19.6708L1.57086 20.7315Z" fill="#BBBBBB"/>
<path d="M20.9429 1.04688C20.9429 0.632661 20.6071 0.296875 20.1929 0.296875L13.4429 0.296875C13.0287 0.296875 12.6929 0.632661 12.6929 1.04688C12.6929 1.46109 13.0287 1.79688 13.4429 1.79688L19.4429 1.79687L19.4429 7.79687C19.4429 8.21109 19.7787 8.54687 20.1929 8.54687C20.6071 8.54687 20.9429 8.21109 20.9429 7.79687L20.9429 1.04688ZM11.9997 8.17934C11.7069 8.47223 11.7069 8.94711 11.9997 9.24C12.2926 9.53289 12.7675 9.53289 13.0604 9.24L11.9997 8.17934ZM19.6625 0.516545L11.9997 8.17934L13.0604 9.24L20.7232 1.57721L19.6625 0.516545Z" fill="#BBBBBB"/>
</svg>
