<svg fill="none" height="21" viewBox="0 0 22 21" width="22" xmlns="http://www.w3.org/2000/svg"><g fill="#bbb"><path d="m.849611 20.1541c0 .4142.335789.75.749999.75h6.74999c.41421 0 .74999-.3358.74999-.75 0-.4143-.33578-.75-.74999-.75h-5.99999v-6c0-.4142-.33579-.75-.75-.75s-.749999.3358-.749999.75zm8.943119-7.1325c.29287-.2929.29287-.7678 0-1.0607-.29289-.2929-.76776-.2929-1.06065 0zm-7.66279 7.6628 7.66279-7.6628-1.06065-1.0607-7.6628 7.6628z"/><path d="m21.502.999756c0-.414213-.3358-.749999-.75-.749999h-6.75c-.4142 0-.75.335786-.75.749999 0 .414214.3358.749994.75.749994h6v5.99999c0 .41421.3357.75.75.75.4142 0 .75-.33579.75-.75zm-8.9432 7.132464c-.2929.2929-.2929.76777 0 1.06066s.7678.29289 1.0607 0zm7.6628-7.662793-7.6628 7.662793 1.0607 1.06066 7.6628-7.6628z"/></g></svg>