<svg width="22" height="21" viewBox="0 0 22 21" fill="none" xmlns="http://www.w3.org/2000/svg">
<path d="M0.849611 20.1541C0.849611 20.5683 1.1854 20.9041 1.59961 20.9041H8.3496C8.76381 20.9041 9.09959 20.5683 9.09959 20.1541C9.09959 19.7398 8.76381 19.4041 8.3496 19.4041H2.34961L2.34961 13.4041C2.34961 12.9899 2.01382 12.6541 1.59961 12.6541C1.1854 12.6541 0.849611 12.9899 0.849611 13.4041L0.849611 20.1541ZM9.79273 13.0216C10.0856 12.7287 10.0856 12.2538 9.79273 11.9609C9.49984 11.668 9.02497 11.668 8.73208 11.9609L9.79273 13.0216ZM2.12994 20.6844L9.79273 13.0216L8.73208 11.9609L1.06928 19.6237L2.12994 20.6844Z" fill="#BBBBBB"/>
<path d="M21.502 0.999756C21.502 0.585543 21.1662 0.249757 20.752 0.249757L14.002 0.249757C13.5878 0.249757 13.252 0.585543 13.252 0.999756C13.252 1.41397 13.5878 1.74975 14.002 1.74975L20.002 1.74975V7.74974C20.002 8.16395 20.3377 8.49974 20.752 8.49974C21.1662 8.49974 21.502 8.16395 21.502 7.74974V0.999756ZM12.5588 8.13222C12.2659 8.42512 12.2659 8.89999 12.5588 9.19288C12.8517 9.48577 13.3266 9.48577 13.6195 9.19288L12.5588 8.13222ZM20.2216 0.469427L12.5588 8.13222L13.6195 9.19288L21.2823 1.53008L20.2216 0.469427Z" fill="#BBBBBB"/>
</svg>
