<svg fill="none" height="21" viewBox="0 0 22 21" width="22" xmlns="http://www.w3.org/2000/svg"><g fill="#bbb"><path d="m.849609 20.1543c0 .4142.335791.75.750001.75h6.75c.41421 0 .75-.3358.75-.75s-.33579-.75-.75-.75h-6v-6c0-.4142-.33579-.75-.75-.75s-.750001.3358-.750001.75zm8.943131-7.1325c.29286-.2929.29286-.7677 0-1.0606-.2929-.2929-.76777-.2929-1.06066 0zm-7.6628 7.6628 7.6628-7.6628-1.06066-1.0606-7.6628 7.6628z"/><path d="m21.502 1c0-.414214-.3358-.75-.75-.75h-6.75c-.4143 0-.75.335786-.75.75 0 .41421.3357.75.75.75h6v6c0 .41421.3357.75.75.75.4142 0 .75-.33579.75-.75zm-8.9432 7.13247c-.2929.29289-.2929.76776 0 1.06066.2929.29289.7678.29289 1.0607 0zm7.6628-7.6628-7.6628 7.6628 1.0607 1.06066 7.6628-7.6628z"/></g></svg>