<svg fill="none" height="21" viewBox="0 0 22 21" width="22" xmlns="http://www.w3.org/2000/svg"><g fill="#bbb"><path d="m.849611 20.1538c0 .4142.335789.75.749999.75h6.74999c.41421 0 .74999-.3358.74999-.75s-.33578-.75-.74999-.75h-5.99999v-6c0-.4142-.33579-.75-.75-.75s-.749999.3358-.749999.75zm8.943119-7.1325c.29287-.2929.29287-.7677 0-1.0606-.29289-.2929-.76776-.2929-1.06065 0zm-7.66279 7.6628 7.66279-7.6628-1.06065-1.0606-7.6628 7.6628z"/><path d="m21.502 1c0-.414213-.3358-.749998-.75-.749998h-6.75c-.4142 0-.75.335785-.75.749998 0 .41421.3358.75.75.75h6v5.99999c0 .41421.3357.74999.75.74999.4142 0 .75-.33578.75-.74999zm-8.9432 7.13247c-.2929.29289-.2929.76776 0 1.06065.2929.2929.7678.2929 1.0607 0zm7.6628-7.662799-7.6628 7.662799 1.0607 1.06065 7.6628-7.66279z"/></g></svg>