<svg width="22" height="21" viewBox="0 0 22 21" fill="none" xmlns="http://www.w3.org/2000/svg">
<path d="M0.849609 20.1543C0.849609 20.5685 1.1854 20.9043 1.59961 20.9043L8.34961 20.9043C8.76382 20.9043 9.09961 20.5685 9.09961 20.1543C9.09961 19.7401 8.76382 19.4043 8.34961 19.4043L2.34961 19.4043L2.34961 13.4043C2.34961 12.9901 2.01382 12.6543 1.59961 12.6543C1.1854 12.6543 0.849609 12.9901 0.849609 13.4043L0.849609 20.1543ZM9.79274 13.0218C10.0856 12.7289 10.0856 12.2541 9.79274 11.9612C9.49984 11.6683 9.02497 11.6683 8.73208 11.9612L9.79274 13.0218ZM2.12994 20.6846L9.79274 13.0218L8.73208 11.9612L1.06928 19.624L2.12994 20.6846Z" fill="#BBBBBB"/>
<path d="M21.502 1C21.502 0.585786 21.1662 0.25 20.752 0.25L14.002 0.25C13.5877 0.25 13.252 0.585786 13.252 1C13.252 1.41421 13.5877 1.75 14.002 1.75L20.002 1.75L20.002 7.75C20.002 8.16421 20.3377 8.5 20.752 8.5C21.1662 8.5 21.502 8.16421 21.502 7.75L21.502 1ZM12.5588 8.13247C12.2659 8.42536 12.2659 8.90023 12.5588 9.19313C12.8517 9.48602 13.3266 9.48602 13.6195 9.19313L12.5588 8.13247ZM20.2216 0.46967L12.5588 8.13247L13.6195 9.19313L21.2823 1.53033L20.2216 0.46967Z" fill="#BBBBBB"/>
</svg>
