<svg fill="none" height="59" viewBox="0 0 135 59" width="135" xmlns="http://www.w3.org/2000/svg"><path clip-rule="evenodd" d="m134.178 28.6819c.591-2.229-1.449-4.264-3.676-3.6671l-14.115 3.782c-.992.2658-2.071.0216-2.733-.7635-2.491-2.9527-3.54-6.869-2.86-10.6714.181-1.0109.994-1.7621 1.986-2.0279l13.951-3.7382c2.228-.5968 2.977-3.37916 1.35-5.01384l-5.309-5.33562c-.758-.761611-1.866-1.059769-2.903-.781685l-18.431 4.938405c-1.038.27808-1.8474 1.08994-2.1229 2.12845l-1.3686 5.15829c-.9184 3.4617-3.618 6.1679-7.0774 7.0949l-83.6641 22.4177c-4.52818 1.2133-7.2154157 5.8677-6.00209 10.3959 1.21332 4.5282 5.86775 7.2154 10.39599 6.0021l83.6641-22.4177c3.4594-.927 7.15.0669 9.677 2.6056l3.764 3.7828c.758.7616 1.865 1.0598 2.903.7817l18.43-4.9384c1.038-.2781 1.848-1.09 2.123-2.1285z" fill="#fff500" fill-rule="evenodd"/></svg>