<svg fill="none" height="25" viewBox="0 0 25 25" width="25" xmlns="http://www.w3.org/2000/svg"><path d="m23.665 24.0146h.3709v.3709h-.3709zm-11.6373-22.97325c-6.22126 0-11.266467 5.05868-11.266467 11.30125h-.7417604c.0000003-6.65014 5.3752274-12.043006 12.0082274-12.043006zm11.2665 11.30125c0-6.24257-5.0452-11.30125-11.2665-11.30125v-.741756c6.633.000001 12.0082 5.392866 12.0082 12.043006zm0 11.672v-11.672h.7417v11.672zm-11.2665-.3708h11.6373v.7417h-11.6373zm-11.266467-11.3012c0 6.2425 5.045207 11.3012 11.266467 11.3012v.7417c-6.633 0-12.0082277-5.3928-12.0082274-12.0429z" fill="#fff500"/></svg>