<svg fill="none" height="95" viewBox="0 0 217 95" width="217" xmlns="http://www.w3.org/2000/svg"><path clip-rule="evenodd" d="m215.966 45.9184c.957-3.6089-2.345-6.9036-5.952-5.9372l-22.851 6.123c-1.607.4304-3.354.0351-4.426-1.236-4.032-4.7807-5.731-11.1213-4.63-17.2775.293-1.6368 1.609-2.853 3.215-3.2834l22.587-6.0521c3.607-.9664 4.82-5.4711 2.186-8.1177l-8.596-8.6387c-1.227-1.233081-3.02-1.715814-4.7-1.265583l-29.84 7.995513c-1.68.45023-2.992 1.76468-3.438 3.44607l-2.215 8.3492c-1.487 5.6047-5.858 9.9861-11.459 11.4869l-135.4622 36.2971c-7.33133 1.9644-11.68209 9.5002-9.717661 16.8315 1.964431 7.3314 9.500161 11.6821 16.831561 9.7177l135.4603-36.2965c5.601-1.5008 11.577.1084 15.667 4.2186l6.096 6.1263c1.227 1.2331 3.02 1.7158 4.7 1.2656l29.84-7.9956c1.68-.4502 2.992-1.7646 3.438-3.446z" fill="#fff500" fill-rule="evenodd"/></svg>