<svg fill="none" height="24" viewBox="0 0 52 24" width="52" xmlns="http://www.w3.org/2000/svg"><path clip-rule="evenodd" d="m51.5925 11.6418c.2253-.8491-.5519-1.6243-1.4005-1.397l-5.3771 1.4408c-.3779.1013-.7891.0083-1.0413-.2908-.9488-1.1249-1.3485-2.61677-1.0893-4.06529.0689-.38514.3785-.67129.7564-.77255l5.3143-1.42397c.8486-.22738 1.134-1.28731.5143-1.91005l-2.0222-2.03223c-.2887-.290138-.7106-.403723-1.1059-.297787l-7.0211 1.881297c-.3954.10594-.7039.41522-.8089.81084l-.5212 1.96458c-.3499 1.31874-1.3783 2.34968-2.6961 2.7028l-31.87225 8.54016c-1.72503.4622-2.748732 2.2353-2.286513 3.9603.462223 1.7251 2.235333 2.7488 3.960363 2.2865l31.8718-8.54c1.3178-.3531 2.7239.0255 3.6863.9926l1.4343 1.4415c.2888.2901.7106.4037 1.1059.2978l7.0211-1.8813c.3954-.106.7039-.4153.8089-.8109z" fill="#fff500" fill-rule="evenodd"/></svg>