<svg fill="none" height="25" viewBox="0 0 25 25" width="25" xmlns="http://www.w3.org/2000/svg"><path d="m24.2892 23.7666h.3682v.3683h-.3682zm-11.5552 0v.3683zm0-22.811051c-6.17729-.000001-11.18687 5.022951-11.18687 11.221351h-.736523c0-6.6031 5.337263-11.957874 11.923393-11.957874zm11.1869 11.221351c0-6.1984-5.0096-11.221351-11.1869-11.221351v-.736523c6.5862 0 11.9234 5.354774 11.9234 11.957874zm0 11.5897v-11.5897h.7365v11.5897zm-11.1869-.3683h11.5552v.7366h-11.5552zm-11.18687-11.2214c0 6.1985 5.00958 11.2214 11.18687 11.2214v.7366c-6.58613 0-11.923394-5.3548-11.923393-11.958z" fill="#fff500"/></svg>