<svg fill="none" height="25" viewBox="0 0 25 25" width="25" xmlns="http://www.w3.org/2000/svg"><path d="m24.2873 12.1779h-.3683zm0 11.5897h.3683v.3682h-.3683zm-11.5552-22.811077c-6.17728 0-11.18686 5.022957-11.18686 11.221377h-.736526c.000001-6.60312 5.337266-11.9579 11.923386-11.957899zm11.1869 11.221377c0-6.19842-5.0095-11.221376-11.1869-11.221377v-.736522c6.5862 0 11.9235 5.354779 11.9235 11.957899zm0 11.5897v-11.5897h.7366v11.5897zm-11.1869-.3683h11.5552v.7365h-11.5552zm-11.18686-11.2214c0 6.1985 5.00958 11.2214 11.18686 11.2214v.7365c-6.58612 0-11.923386-5.3547-11.923386-11.9579z" fill="#fff500"/></svg>