<svg fill="none" height="25" viewBox="0 0 25 25" width="25" xmlns="http://www.w3.org/2000/svg"><path d="m24.2881 12.447h.3682zm0 11.5896h.3682v.3683h-.3682zm-11.5552 0v-.3682zm0-22.81103c-6.17729 0-11.18687 5.02295-11.18687 11.22143h-.736522c0-6.60318 5.337262-11.957955 11.923392-11.957954zm11.1869 11.22143c0-6.19848-5.0096-11.22143-11.1869-11.22143v-.736524c6.5862 0 11.9234 5.354774 11.9234 11.957954zm0 11.5896v-11.5896h.7365v11.5896zm-11.1869-.3682h11.5552v.7365h-11.5552zm-11.18687-11.2214c0 6.1984 5.00958 11.2214 11.18687 11.2214v.7365c-6.58613 0-11.923392-5.3548-11.923392-11.9579z" fill="#fff500"/></svg>