<svg fill="none" height="32" viewBox="0 0 31 32" width="31" xmlns="http://www.w3.org/2000/svg"><path d="m.618652 15.8631h-.515597zm0 14.6945h-.515597v.5156h.515597zm14.694548 0v-.5156zm0-28.87342c7.8308 0 14.1789 6.34812 14.1789 14.17892h1.0312c0-8.40032-6.8098-15.210114-15.2101-15.210114zm-14.17895 14.17892c0-7.8308 6.34812-14.17892 14.17895-14.17892v-1.031194c-8.40035 0-15.210146 6.809804-15.210145 15.210114zm0 14.6945v-14.6945h-1.031195v14.6945zm14.17895-.5156h-14.694548v1.0312h14.694548zm14.1789-14.1789c0 7.8308-6.3481 14.1789-14.1789 14.1789v1.0312c8.4003 0 15.2101-6.8098 15.2101-15.2101z" fill="#5b57ca"/></svg>