<svg width="197" height="170" viewBox="0 0 197 170" fill="none" xmlns="http://www.w3.org/2000/svg">
<path d="M195.434 195.315L195.434 196.125L196.243 196.125L196.243 195.315L195.434 195.315ZM1.95739 98.1723C1.9574 44.9689 45.0873 1.83896 98.2907 1.83897L98.2907 0.219916C44.1931 0.219912 0.338346 44.0747 0.338342 98.1723L1.95739 98.1723ZM98.2907 194.506C45.0873 194.506 1.95739 151.376 1.95739 98.1723L0.338342 98.1723C0.338337 152.27 44.1931 196.125 98.2907 196.125L98.2907 194.506ZM195.434 194.506L98.2907 194.506L98.2907 196.125L195.434 196.125L195.434 194.506ZM194.624 98.1723L194.624 195.315L196.243 195.315L196.243 98.1723L194.624 98.1723ZM98.2907 1.83897C151.494 1.83897 194.624 44.9689 194.624 98.1723L196.243 98.1723C196.243 44.0747 152.388 0.219921 98.2907 0.219916L98.2907 1.83897Z" fill="white"/>
</svg>
