<svg fill="none" height="25" viewBox="0 0 25 25" width="25" xmlns="http://www.w3.org/2000/svg"><path d="m24.2891 23.7681h.3682v.3683h-.3682zm-11.5552-22.811025c-6.17731-.000001-11.18689 5.022955-11.18689 11.221425h-.736526c.000001-6.60317 5.337266-11.957948 11.923416-11.957948zm11.1869 11.221425c0-6.19847-5.0096-11.221425-11.1869-11.221425v-.736523c6.5862 0 11.9234 5.354778 11.9234 11.957948zm0 11.5896v-11.5896h.7365v11.5896zm-11.1869-.3682h11.5552v.7365h-11.5552zm-11.18689-11.2214c0 6.1984 5.00957 11.2214 11.18689 11.2214v.7365c-6.58615 0-11.923416-5.3548-11.923416-11.9579z" fill="#fff500"/></svg>