<svg width="56" height="55" viewBox="0 0 56 55" fill="none" xmlns="http://www.w3.org/2000/svg">
<path d="M54.2568 27.6794L53.4199 27.6794L54.2568 27.6794ZM54.2568 54.0182L55.0938 54.0182L55.0938 54.8551L54.2568 54.8551L54.2568 54.0182ZM27.9964 2.17742C13.9577 2.17742 2.57285 13.5927 2.57285 27.6794L0.899012 27.6794C0.899012 12.6729 13.0286 0.503585 27.9964 0.503586L27.9964 2.17742ZM53.4199 27.6794C53.4199 13.5927 42.0351 2.17742 27.9964 2.17742L27.9964 0.503586C42.9642 0.503586 55.0938 12.673 55.0938 27.6794L53.4199 27.6794ZM53.4199 54.0182L53.4199 27.6794L55.0938 27.6794L55.0938 54.0182L53.4199 54.0182ZM27.9964 53.1813L54.2568 53.1813L54.2568 54.8551L27.9964 54.8551L27.9964 53.1813ZM2.57285 27.6794C2.57285 41.766 13.9577 53.1813 27.9964 53.1813L27.9964 54.8551C13.0286 54.8551 0.899011 42.6858 0.899012 27.6794L2.57285 27.6794Z" fill="#FFF500"/>
</svg>
