<svg fill="none" height="58" viewBox="0 0 58 58" width="58" xmlns="http://www.w3.org/2000/svg"><path d="m1.13806 28.9196h.73578zm0 27.9597h-.73578v.7358h.73578zm27.95974-55.18361c15.0353 0 27.2239 12.18861 27.2239 27.22391h1.4716c0-15.8481-12.8474-28.695477-28.6955-28.695476zm-27.22396 27.22391c0-15.0353 12.18856-27.22391 27.22396-27.22391v-1.471566c-15.8481 0-28.695522 12.847376-28.695522 28.695476zm0 27.9597v-27.9597h-1.471562l.000002 27.9597zm27.22396-.7357h-27.95974v1.4715h27.95974zm27.2239-27.224c0 15.0354-12.1886 27.2239-27.2239 27.224v1.4715c15.8481 0 28.6955-12.8474 28.6955-28.6955z" fill="#5b57ca"/></svg>