<svg width="25" height="25" viewBox="0 0 25 25" fill="none" xmlns="http://www.w3.org/2000/svg">
<path d="M24.2892 23.7686L24.6574 23.7686L24.6574 24.1368L24.2892 24.1368L24.2892 23.7686ZM12.734 23.7686L12.734 23.4003L12.734 23.7686ZM12.734 0.957502C6.55671 0.957502 1.54713 5.98045 1.54713 12.1789L0.810607 12.1789C0.810607 5.57576 6.14787 0.220979 12.734 0.220979L12.734 0.957502ZM23.9209 12.1789C23.9209 5.98046 18.9113 0.957502 12.734 0.957502L12.734 0.220979C19.3202 0.22098 24.6574 5.57576 24.6574 12.1789L23.9209 12.1789ZM23.9209 23.7686L23.9209 12.1789L24.6574 12.1789L24.6574 23.7686L23.9209 23.7686ZM12.734 23.4003L24.2892 23.4003L24.2892 24.1368L12.734 24.1368L12.734 23.4003ZM1.54713 12.1789C1.54713 18.3773 6.55671 23.4003 12.734 23.4003L12.734 24.1368C6.14787 24.1368 0.810606 18.782 0.810607 12.1789L1.54713 12.1789Z" fill="#FFF500"/>
</svg>
