<svg width="25" height="25" viewBox="0 0 25 25" fill="none" xmlns="http://www.w3.org/2000/svg">
<path d="M24.2873 12.1779L23.919 12.1779L24.2873 12.1779ZM24.2873 23.7676L24.6556 23.7676L24.6556 24.1358L24.2873 24.1358L24.2873 23.7676ZM12.7321 0.956523C6.55482 0.956523 1.54524 5.97948 1.54524 12.1779L0.808714 12.1779C0.808715 5.57478 6.14598 0.22 12.7321 0.220001L12.7321 0.956523ZM23.919 12.1779C23.919 5.97948 18.9095 0.956524 12.7321 0.956523L12.7321 0.220001C19.3183 0.220001 24.6556 5.57478 24.6556 12.1779L23.919 12.1779ZM23.919 23.7676L23.919 12.1779L24.6556 12.1779L24.6556 23.7676L23.919 23.7676ZM12.7321 23.3993L24.2873 23.3993L24.2873 24.1358L12.7321 24.1358L12.7321 23.3993ZM1.54524 12.1779C1.54524 18.3764 6.55482 23.3993 12.7321 23.3993L12.7321 24.1358C6.14598 24.1358 0.808714 18.7811 0.808714 12.1779L1.54524 12.1779Z" fill="#FFF500"/>
</svg>
