<svg width="58" height="58" viewBox="0 0 58 58" fill="none" xmlns="http://www.w3.org/2000/svg">
<path d="M1.13806 28.9196L1.87384 28.9196L1.13806 28.9196ZM1.13806 56.8793L0.40228 56.8793L0.40228 57.6151L1.13806 57.6151L1.13806 56.8793ZM29.0978 1.69569C44.1331 1.69569 56.3217 13.8843 56.3217 28.9196L57.7933 28.9196C57.7933 13.0715 44.9459 0.224123 29.0978 0.224124L29.0978 1.69569ZM1.87384 28.9196C1.87384 13.8843 14.0624 1.69569 29.0978 1.69569L29.0978 0.224124C13.2497 0.224124 0.402278 13.0715 0.402278 28.9196L1.87384 28.9196ZM1.87384 56.8793L1.87384 28.9196L0.402278 28.9196L0.40228 56.8793L1.87384 56.8793ZM29.0978 56.1436L1.13806 56.1436L1.13806 57.6151L29.0978 57.6151L29.0978 56.1436ZM56.3217 28.9196C56.3217 43.955 44.1331 56.1435 29.0978 56.1436L29.0978 57.6151C44.9459 57.6151 57.7933 44.7677 57.7933 28.9196L56.3217 28.9196Z" fill="#5B57CA"/>
</svg>
