<svg width="52" height="24" viewBox="0 0 52 24" fill="none" xmlns="http://www.w3.org/2000/svg">
<path fill-rule="evenodd" clip-rule="evenodd" d="M51.5925 11.6418C51.8178 10.7927 51.0406 10.0175 50.192 10.2448L44.8149 11.6856C44.437 11.7869 44.0258 11.6939 43.7736 11.3948C42.8248 10.2699 42.4251 8.77803 42.6843 7.32951C42.7532 6.94437 43.0628 6.65822 43.4407 6.55696L48.755 5.13299C49.6036 4.90561 49.889 3.84568 49.2693 3.22294L47.2471 1.19071C46.9584 0.900572 46.5365 0.786987 46.1412 0.892923L39.1201 2.77422C38.7247 2.88016 38.4162 3.18944 38.3112 3.58506L37.79 5.54964C37.4401 6.86838 36.4117 7.89932 35.0939 8.25244L3.22165 16.7926C1.49662 17.2548 0.472918 19.0279 0.935137 20.7529C1.39736 22.478 3.17047 23.5017 4.8955 23.0394L36.7673 14.4994C38.0851 14.1463 39.4912 14.5249 40.4536 15.492L41.8879 16.9335C42.1767 17.2236 42.5985 17.3372 42.9938 17.2313L50.0149 15.35C50.4103 15.244 50.7188 14.9347 50.8238 14.5391L51.5925 11.6418Z" fill="#FFF500"/>
</svg>
