<svg fill="none" height="30" viewBox="0 0 29 30" width="29" xmlns="http://www.w3.org/2000/svg"><path d="m.373047 28.8574h-.37088061l.00000002.3709h.37088059zm14.093453 0v.3709zm0-27.81601c7.5788 0 13.7226 6.1438 13.7226 13.72261h.7417c0-7.98847-6.4759-14.464374-14.4643-14.464373zm-13.722573 13.72261c-.000001-7.57881 6.143803-13.72261 13.722573-13.72261v-.741763c-7.98843 0-14.46433457 6.475903-14.46433422 14.464373zm0 14.0934v-14.0934h-.74176122l.00000061 14.0934zm13.722573-.3709h-14.093453v.7418h14.093453zm13.7226-13.7225c0 7.5787-6.1438 13.7225-13.7226 13.7225v.7418c7.9884 0 14.4643-6.4759 14.4643-14.4643z" fill="#5b57ca"/></svg>