<svg width="58" height="58" viewBox="0 0 58 58" fill="none" xmlns="http://www.w3.org/2000/svg">
<path d="M57.2689 56.8798L58.0047 56.8798L58.0047 57.6155L57.2689 57.6155L57.2689 56.8798ZM29.3092 1.69612C14.2738 1.69612 2.08528 13.8847 2.08528 28.92L0.613714 28.92C0.613714 13.072 13.4611 0.22455 29.3092 0.224551L29.3092 1.69612ZM56.5331 28.92C56.5331 13.8847 44.3446 1.69612 29.3092 1.69612L29.3092 0.224551C45.1573 0.224552 58.0047 13.072 58.0047 28.92L56.5331 28.92ZM56.5331 56.8798L56.5331 28.92L58.0047 28.92L58.0047 56.8798L56.5331 56.8798ZM29.3092 56.144L57.2689 56.144L57.2689 57.6155L29.3092 57.6155L29.3092 56.144ZM2.08528 28.92C2.08528 43.9554 14.2738 56.144 29.3092 56.144L29.3092 57.6155C13.4611 57.6155 0.613713 44.7681 0.613714 28.92L2.08528 28.92Z" fill="#FFF500"/>
</svg>
