<svg fill="none" height="35" viewBox="0 0 77 35" width="77" xmlns="http://www.w3.org/2000/svg"><path clip-rule="evenodd" d="m76.3887 16.9615c.3379-1.2737-.8278-2.4365-2.1006-2.0955l-8.0658 2.1612c-.5669.1519-1.1837.0124-1.5621-.4362-1.4231-1.6873-2.0227-3.9252-1.6339-6.0979.1034-.57775.5678-1.00699 1.1346-1.15888l7.9716-2.13597c1.2729-.34107 1.701-1.93097.7715-2.86507l-3.0334-3.04833c-.4331-.435207-1.0658-.605585-1.6588-.44668l-10.5317 2.82194c-.593.15891-1.0558.62283-1.2133 1.21626l-.7816 2.94631c-.5249 1.9781-2.0675 3.52452-4.0443 4.05422l-47.80862 12.8103c-2.58753.6933-4.123093 3.3529-3.429764 5.9405.693324 2.5875 3.352994 4.1231 5.940534 3.4298l47.80735-12.81c1.9768-.5297 4.086.0383 5.5295 1.4889l2.152 2.1626c.4331.4352 1.0658.6056 1.6588.4467l10.5317-2.822c.593-.1589 1.0558-.6228 1.2133-1.2162z" fill="#fff500" fill-rule="evenodd"/></svg>