<svg width="25" height="25" viewBox="0 0 25 25" fill="none" xmlns="http://www.w3.org/2000/svg">
<path d="M23.665 24.0146L24.0359 24.0146L24.0359 24.3855L23.665 24.3855L23.665 24.0146ZM12.0277 1.04135C5.80644 1.04135 0.761233 6.10003 0.761233 12.3426L0.0194726 12.3426C0.0194729 5.69246 5.3947 0.299594 12.0277 0.299594L12.0277 1.04135ZM23.2942 12.3426C23.2942 6.10003 18.249 1.04135 12.0277 1.04135L12.0277 0.299594C18.6607 0.299595 24.0359 5.69246 24.0359 12.3426L23.2942 12.3426ZM23.2942 24.0146L23.2942 12.3426L24.0359 12.3426L24.0359 24.0146L23.2942 24.0146ZM12.0277 23.6438L23.665 23.6438L23.665 24.3855L12.0277 24.3855L12.0277 23.6438ZM0.761233 12.3426C0.761233 18.5851 5.80644 23.6438 12.0277 23.6438L12.0277 24.3855C5.3947 24.3855 0.0194723 18.9927 0.0194726 12.3426L0.761233 12.3426Z" fill="#FFF500"/>
</svg>
