<svg fill="none" height="30" viewBox="0 0 30 30" width="30" xmlns="http://www.w3.org/2000/svg"><path d="m1.26074 28.8447h-.368259v.3683h.368259zm13.99396-27.61957c7.5252 0 13.6256 6.10042 13.6256 13.62567h.7366c0-7.93202-6.4302-14.36219-14.3622-14.362189zm-13.6257 13.62567c0-7.52525 6.10042-13.62567 13.6257-13.62567v-.736519c-7.93205 0-14.36222 6.430169-14.36222 14.362189zm0 13.9939v-13.9939h-.73652l.000001 13.9939zm13.6257-.3682h-13.99396v.7365h13.99396zm13.6256-13.6257c0 7.5252-6.1004 13.6257-13.6256 13.6257v.7365c7.932 0 14.3622-6.4302 14.3622-14.3622z" fill="#5b57ca"/></svg>