<svg width="66" height="66" viewBox="0 0 66 66" fill="none" xmlns="http://www.w3.org/2000/svg">
<path d="M1.40137 33.143L2.23828 33.143L1.40137 33.143ZM1.40137 64.9458L0.56445 64.9458L0.56445 65.7827L1.40137 65.7827L1.40137 64.9458ZM33.2042 2.17703C50.3062 2.17703 64.1701 16.0409 64.1701 33.143L65.844 33.143C65.844 15.1165 51.2306 0.503202 33.2042 0.503203L33.2042 2.17703ZM2.23828 33.143C2.23828 16.041 16.1022 2.17704 33.2042 2.17703L33.2042 0.503203C15.1778 0.503204 0.564448 15.1165 0.564449 33.143L2.23828 33.143ZM2.23828 64.9458L2.23828 33.143L0.564449 33.143L0.56445 64.9458L2.23828 64.9458ZM33.2042 64.1089L1.40137 64.1089L1.40137 65.7827L33.2042 65.7827L33.2042 64.1089ZM64.1701 33.143C64.1701 50.245 50.3062 64.1089 33.2042 64.1089L33.2042 65.7827C51.2306 65.7827 65.844 51.1694 65.844 33.143L64.1701 33.143Z" fill="#5B57CA"/>
</svg>
