<svg width="30" height="29" viewBox="0 0 30 29" fill="none" xmlns="http://www.w3.org/2000/svg">
<path d="M1.26172 28.5762L0.893457 28.5762L0.893457 28.9444L1.26172 28.9444L1.26172 28.5762ZM15.2556 0.956579C22.7809 0.956578 28.8813 7.057 28.8813 14.5822L29.6178 14.5822C29.6178 6.65023 23.1877 0.220056 15.2556 0.220056L15.2556 0.956579ZM1.62998 14.5822C1.62998 7.057 7.7304 0.956579 15.2556 0.956579L15.2556 0.220056C7.32363 0.220056 0.893457 6.65023 0.893457 14.5822L1.62998 14.5822ZM1.62998 28.5762L1.62998 14.5822L0.893457 14.5822L0.893457 28.5762L1.62998 28.5762ZM15.2556 28.2079L1.26172 28.2079L1.26172 28.9444L15.2556 28.9444L15.2556 28.2079ZM28.8813 14.5822C28.8813 22.1075 22.7809 28.2079 15.2556 28.2079L15.2556 28.9444C23.1877 28.9444 29.6178 22.5143 29.6178 14.5822L28.8813 14.5822Z" fill="#5B57CA"/>
</svg>
