<svg fill="none" height="58" viewBox="0 0 58 58" width="58" xmlns="http://www.w3.org/2000/svg"><path d="m57.2689 56.8798h.7358v.7357h-.7358zm-27.9597-55.18368c-15.0354 0-27.22392 12.18858-27.22392 27.22388h-1.471566c0-15.848 12.847386-28.69545 28.695486-28.695449zm27.2239 27.22388c0-15.0353-12.1885-27.22388-27.2239-27.22388v-1.471569c15.8481.000001 28.6955 12.847449 28.6955 28.695449zm0 27.9598v-27.9598h1.4716v27.9598zm-27.2239-.7358h27.9597v1.4715h-27.9597zm-27.22392-27.224c0 15.0354 12.18852 27.224 27.22392 27.224v1.4715c-15.8481 0-28.695487-12.8474-28.695486-28.6955z" fill="#fff500"/></svg>