<svg fill="none" height="170" viewBox="0 0 197 170" width="197" xmlns="http://www.w3.org/2000/svg"><path d="m98.2907 196.047v.809zm97.1433 0v.809h.809v-.809zm-193.47661-97.143c.00001-53.2035 43.12991-96.33335 96.33331-96.33335v-1.619044c-54.0976-.000005-97.952354 43.854794-97.952358 97.952394zm96.33331 96.333c-53.2034 0-96.33331-43.13-96.33331-96.333h-1.619048c-.000005 54.098 43.854758 97.952 97.952358 97.952zm97.1433 0h-97.1433v1.619h97.1433zm-.81-96.333v97.143h1.619v-97.143zm-96.3333-96.33335c53.2033.00001 96.3333 43.12995 96.3333 96.33335h1.619c0-54.0976-43.855-97.952389-97.9523-97.952394z" fill="#fff"/></svg>