<svg fill="none" height="91" viewBox="0 0 91 91" width="91" xmlns="http://www.w3.org/2000/svg"><path d="m1.78631 45.2134h1.52925zm.00001 43.5837h-1.529254v1.5292h1.529254zm43.58358-85.63807c23.226 0 42.0544 18.82837 42.0544 42.05437h3.0585c0-24.9151-20.1977-45.11287-45.1129-45.112869zm-42.05434 42.05437c0-23.226 18.82844-42.05437 42.05434-42.05437v-3.058499c-24.9151.000001-45.112837 20.197769-45.112836 45.112869zm.00001 43.5837-.00001-43.5837h-3.058496l.000002 43.5837zm42.05443-1.5293h-43.58368v3.0585h43.58368zm42.0543-42.0544c0 23.226-18.8284 42.0544-42.0543 42.0544v3.0585c24.9151 0 45.1128-20.1977 45.1128-45.1129z" fill="#5b57ca"/></svg>