<svg width="122" height="122" viewBox="0 0 122 122" fill="none" xmlns="http://www.w3.org/2000/svg">
<path d="M121 120.673L121 121.173L121.5 121.173L121.5 120.673L121 120.673ZM121 60.6728L121.5 60.6728L121 60.6728ZM1.5 60.6728C1.5 27.8119 28.1391 1.17284 61 1.17284L61 0.172839C27.5868 0.172836 0.500001 27.2596 0.499998 60.6728L1.5 60.6728ZM61 120.173C28.1391 120.173 1.49999 93.5338 1.5 60.6728L0.499998 60.6728C0.499995 94.0861 27.5868 121.173 61 121.173L61 120.173ZM121 120.173L61 120.173L61 121.173L121 121.173L121 120.173ZM120.5 60.6728L120.5 120.673L121.5 120.673L121.5 60.6728L120.5 60.6728ZM61 1.17284C93.861 1.17284 120.5 27.8119 120.5 60.6728L121.5 60.6728C121.5 27.2596 94.4132 0.172842 61 0.172839L61 1.17284Z" fill="white"/>
</svg>
