<svg width="25" height="25" viewBox="0 0 25 25" fill="none" xmlns="http://www.w3.org/2000/svg">
<path d="M24.2881 12.447L24.6563 12.447L24.2881 12.447ZM24.2881 24.0366L24.6563 24.0366L24.6563 24.4049L24.2881 24.4049L24.2881 24.0366ZM12.7329 24.0366L12.7329 23.6684L12.7329 24.0366ZM12.7329 1.22557C6.55561 1.22557 1.54603 6.24852 1.54603 12.447L0.809508 12.447C0.809508 5.84382 6.14677 0.489045 12.7329 0.489046L12.7329 1.22557ZM23.9198 12.447C23.9198 6.24852 18.9102 1.22557 12.7329 1.22557L12.7329 0.489046C19.3191 0.489046 24.6563 5.84382 24.6563 12.447L23.9198 12.447ZM23.9198 24.0366L23.9198 12.447L24.6563 12.447L24.6563 24.0366L23.9198 24.0366ZM12.7329 23.6684L24.2881 23.6684L24.2881 24.4049L12.7329 24.4049L12.7329 23.6684ZM1.54603 12.447C1.54603 18.6454 6.55561 23.6684 12.7329 23.6684L12.7329 24.4049C6.14677 24.4049 0.809508 19.0501 0.809508 12.447L1.54603 12.447Z" fill="#FFF500"/>
</svg>
