<svg fill="none" height="70" viewBox="0 0 70 70" width="70" xmlns="http://www.w3.org/2000/svg"><path d="m69.1428 69.2412v.2857h.2857v-.2857zm-68.285696-34.2857c.000002-18.7777 15.222296-34.000015 33.999996-34.000013v-.571426c-19.0933-.000002-34.57142 15.478139-34.571422 34.571439zm33.999996 34c-18.7777 0-33.999997-15.2223-33.999996-34h-.571426c-.000002 19.0933 15.478122 34.5714 34.571422 34.5714zm34.2857 0h-34.2857v.5714h34.2857zm-.2857-34v34.2857h.5714v-34.2857zm-34-34.000013c18.7777.000002 34 15.222313 34 34.000013h.5714c0-19.0933-15.4781-34.571438-34.5714-34.571439z" fill="#fdbbab"/></svg>