<svg fill="none" height="29" viewBox="0 0 30 29" width="30" xmlns="http://www.w3.org/2000/svg"><path d="m1.26099 14.5813h-.368266zm0 13.9939h-.368265v.3683h.368265zm13.99391 0v.3683zm0-27.619598c7.5253 0 13.6257 6.100418 13.6257 13.625698h.7365c0-7.93205-6.4302-14.362221-14.3622-14.362221zm-13.62565 13.625698c0-7.52528 6.10041-13.625698 13.62565-13.625698v-.736523c-7.93201.000001-14.362176 6.430171-14.362176 14.362221zm0 13.9939v-13.9939h-.736526l.000001 13.9939zm13.62565-.3683h-13.99391v.7366h13.99391zm13.6257-13.6256c0 7.5252-6.1004 13.6256-13.6257 13.6256v.7366c7.932 0 14.3622-6.4302 14.3622-14.3622z" fill="#5b57ca"/></svg>