<svg width="25" height="25" viewBox="0 0 25 25" fill="none" xmlns="http://www.w3.org/2000/svg">
<path d="M24.2893 12.1779L23.921 12.1779L24.2893 12.1779ZM24.2893 23.7676L24.6576 23.7676L24.6576 24.1358L24.2893 24.1358L24.2893 23.7676ZM12.7341 23.7676L12.7341 24.1358L12.7341 23.7676ZM12.7341 0.956525C6.55683 0.956525 1.54725 5.97948 1.54725 12.1779L0.810729 12.1779C0.810729 5.57478 6.14799 0.220002 12.7341 0.220003L12.7341 0.956525ZM23.921 12.1779C23.921 5.97948 18.9115 0.956526 12.7341 0.956525L12.7341 0.220003C19.3203 0.220003 24.6576 5.57478 24.6576 12.1779L23.921 12.1779ZM23.921 23.7676L23.921 12.1779L24.6576 12.1779L24.6576 23.7676L23.921 23.7676ZM12.7341 23.3993L24.2893 23.3993L24.2893 24.1358L12.7341 24.1358L12.7341 23.3993ZM1.54725 12.1779C1.54725 18.3764 6.55683 23.3993 12.7341 23.3993L12.7341 24.1358C6.14799 24.1358 0.810728 18.7811 0.810729 12.1779L1.54725 12.1779Z" fill="#FFF500"/>
</svg>
