<svg fill="none" height="29" viewBox="0 0 30 29" width="30" xmlns="http://www.w3.org/2000/svg"><path d="m1.26099 28.5767h-.368265v.3682h.368265zm13.99391-27.619633c7.5253-.000001 13.6257 6.100423 13.6257 13.625633h.7365c0-7.93199-6.4302-14.362156-14.3622-14.362156zm-13.62565 13.625633c0-7.52521 6.10041-13.625633 13.62565-13.625633v-.736523c-7.93201.000001-14.362176 6.430176-14.362176 14.362156zm0 13.994v-13.994h-.736526l.000001 13.994zm13.62565-.3683h-13.99391v.7365h13.99391zm13.6257-13.6257c0 7.5253-6.1004 13.6257-13.6257 13.6257v.7365c7.932 0 14.3622-6.4302 14.3622-14.3622z" fill="#5b57ca"/></svg>