<svg width="91" height="91" viewBox="0 0 91 91" fill="none" xmlns="http://www.w3.org/2000/svg">
<path d="M1.78631 45.2134L3.31556 45.2134L1.78631 45.2134ZM1.78632 88.7971L0.257066 88.7971L0.257066 90.3263L1.78632 90.3263L1.78632 88.7971ZM45.3699 3.15903C68.5959 3.15903 87.4243 21.9874 87.4243 45.2134L90.4828 45.2134C90.4828 20.2983 70.2851 0.10053 45.3699 0.100531L45.3699 3.15903ZM3.31556 45.2134C3.31556 21.9874 22.144 3.15903 45.3699 3.15903L45.3699 0.100531C20.4548 0.100532 0.257063 20.2983 0.257064 45.2134L3.31556 45.2134ZM3.31557 88.7971L3.31556 45.2134L0.257064 45.2134L0.257066 88.7971L3.31557 88.7971ZM45.37 87.2678L1.78632 87.2678L1.78632 90.3263L45.37 90.3263L45.37 87.2678ZM87.4243 45.2134C87.4243 68.4394 68.5959 87.2678 45.37 87.2678L45.37 90.3263C70.2851 90.3263 90.4828 70.1286 90.4828 45.2134L87.4243 45.2134Z" fill="#5B57CA"/>
</svg>
