<svg width="30" height="29" viewBox="0 0 30 29" fill="none" xmlns="http://www.w3.org/2000/svg">
<path d="M1.26099 14.5813L0.892724 14.5813L1.26099 14.5813ZM1.26099 28.5752L0.892725 28.5752L0.892725 28.9435L1.26099 28.9435L1.26099 28.5752ZM15.2549 28.5752L15.2549 28.9435L15.2549 28.5752ZM15.2549 0.955602C22.7802 0.955602 28.8806 7.05602 28.8806 14.5813L29.6171 14.5813C29.6171 6.64925 23.1869 0.219079 15.2549 0.219079L15.2549 0.955602ZM1.62925 14.5813C1.62925 7.05602 7.72966 0.955602 15.2549 0.955602L15.2549 0.219079C7.32289 0.21908 0.892724 6.64925 0.892724 14.5813L1.62925 14.5813ZM1.62925 28.5752L1.62925 14.5813L0.892724 14.5813L0.892725 28.5752L1.62925 28.5752ZM15.2549 28.2069L1.26099 28.2069L1.26099 28.9435L15.2549 28.9435L15.2549 28.2069ZM28.8806 14.5813C28.8806 22.1065 22.7802 28.2069 15.2549 28.2069L15.2549 28.9435C23.1869 28.9435 29.6171 22.5133 29.6171 14.5813L28.8806 14.5813Z" fill="#5B57CA"/>
</svg>
