<svg width="30" height="29" viewBox="0 0 30 29" fill="none" xmlns="http://www.w3.org/2000/svg">
<path d="M1.26074 14.5823L1.629 14.5823L1.26074 14.5823ZM1.26074 28.5763L0.892481 28.5763L0.892481 28.9445L1.26074 28.9445L1.26074 28.5763ZM15.2547 28.5763L15.2547 28.208L15.2547 28.5763ZM15.2547 0.95667C22.7799 0.95667 28.8803 7.05709 28.8803 14.5823L29.6169 14.5823C29.6169 6.65032 23.1867 0.220147 15.2547 0.220148L15.2547 0.95667ZM1.629 14.5823C1.629 7.05709 7.72942 0.95667 15.2547 0.95667L15.2547 0.220148C7.32265 0.220148 0.89248 6.65032 0.89248 14.5823L1.629 14.5823ZM1.629 28.5763L1.629 14.5823L0.89248 14.5823L0.892481 28.5763L1.629 28.5763ZM15.2547 28.208L1.26074 28.208L1.26074 28.9445L15.2547 28.9445L15.2547 28.208ZM28.8803 14.5823C28.8803 22.1076 22.7799 28.208 15.2547 28.208L15.2547 28.9445C23.1867 28.9445 29.6169 22.5144 29.6169 14.5823L28.8803 14.5823Z" fill="#5B57CA"/>
</svg>
