<svg fill="none" height="24" viewBox="0 0 52 24" width="52" xmlns="http://www.w3.org/2000/svg"><path clip-rule="evenodd" d="m51.593 11.6428c.2253-.8492-.5519-1.6244-1.4004-1.397l-5.3768 1.4407c-.3779.1012-.7891.0082-1.0414-.2909-.9487-1.1248-1.3485-2.61673-1.0893-4.06525.069-.38513.3786-.67129.7565-.77255l5.314-1.4239c.8486-.22738 1.134-1.28731.5144-1.91004l-2.0224-2.03231c-.2887-.290137-.7105-.403722-1.1059-.297785l-7.0211 1.881295c-.3953.10594-.7039.41522-.8088.81084l-.5211 1.96414c-.3499 1.31873-1.3783 2.34967-2.6962 2.7028l-31.87278 8.54026c-1.72502.4622-2.748726 2.2353-2.286507 3.9604.462217 1.725 2.235337 2.7487 3.960357 2.2865l31.87193-8.5401c1.3178-.3531 2.7239.0255 3.6863.9927l1.4347 1.4417c.2887.2902.7105.4037 1.1059.2978l7.0211-1.8813c.3953-.1059.7039-.4152.8088-.8108z" fill="#fff500" fill-rule="evenodd"/></svg>