<svg width="25" height="25" viewBox="0 0 25 25" fill="none" xmlns="http://www.w3.org/2000/svg">
<path d="M24.2892 23.7666L24.6574 23.7666L24.6574 24.1349L24.2892 24.1349L24.2892 23.7666ZM12.734 23.7666L12.734 24.1349L12.734 23.7666ZM12.734 0.955549C6.55671 0.955548 1.54713 5.9785 1.54713 12.1769L0.810607 12.1769C0.810607 5.5738 6.14787 0.219026 12.734 0.219026L12.734 0.955549ZM23.9209 12.1769C23.9209 5.9785 18.9113 0.955549 12.734 0.955549L12.734 0.219026C19.3202 0.219026 24.6574 5.5738 24.6574 12.1769L23.9209 12.1769ZM23.9209 23.7666L23.9209 12.1769L24.6574 12.1769L24.6574 23.7666L23.9209 23.7666ZM12.734 23.3983L24.2892 23.3983L24.2892 24.1349L12.734 24.1349L12.734 23.3983ZM1.54713 12.1769C1.54713 18.3754 6.55671 23.3983 12.734 23.3983L12.734 24.1349C6.14787 24.1349 0.810606 18.7801 0.810607 12.1769L1.54713 12.1769Z" fill="#FFF500"/>
</svg>
