<svg width="30" height="29" viewBox="0 0 30 29" fill="none" xmlns="http://www.w3.org/2000/svg">
<path d="M1.26099 28.5767L0.892725 28.5767L0.892725 28.9449L1.26099 28.9449L1.26099 28.5767ZM15.2549 0.957067C22.7802 0.957066 28.8806 7.05749 28.8806 14.5827L29.6171 14.5827C29.6171 6.65071 23.1869 0.220544 15.2549 0.220544L15.2549 0.957067ZM1.62925 14.5827C1.62925 7.05749 7.72966 0.957067 15.2549 0.957067L15.2549 0.220544C7.32289 0.220545 0.892724 6.65072 0.892724 14.5827L1.62925 14.5827ZM1.62925 28.5767L1.62925 14.5827L0.892724 14.5827L0.892725 28.5767L1.62925 28.5767ZM15.2549 28.2084L1.26099 28.2084L1.26099 28.9449L15.2549 28.9449L15.2549 28.2084ZM28.8806 14.5827C28.8806 22.108 22.7802 28.2084 15.2549 28.2084L15.2549 28.9449C23.1869 28.9449 29.6171 22.5147 29.6171 14.5827L28.8806 14.5827Z" fill="#5B57CA"/>
</svg>
