<svg fill="none" height="29" viewBox="0 0 30 29" width="30" xmlns="http://www.w3.org/2000/svg"><path d="m1.26074 14.5823h.36826zm0 13.994h-.368259v.3682h.368259zm13.99396 0v-.3683zm0-27.61963c7.5252 0 13.6256 6.10042 13.6256 13.62563h.7366c0-7.93198-6.4302-14.362153-14.3622-14.362152zm-13.6257 13.62563c0-7.52521 6.10042-13.62563 13.6257-13.62563v-.736522c-7.93205 0-14.36222 6.430172-14.36222 14.362152zm0 13.994v-13.994h-.73652l.000001 13.994zm13.6257-.3683h-13.99396v.7365h13.99396zm13.6256-13.6257c0 7.5253-6.1004 13.6257-13.6256 13.6257v.7365c7.932 0 14.3622-6.4301 14.3622-14.3622z" fill="#5b57ca"/></svg>