<svg fill="none" height="29" viewBox="0 0 30 29" width="30" xmlns="http://www.w3.org/2000/svg"><path d="m1.26172 28.5762h-.368263v.3682h.368263zm13.99388-27.619621c7.5253-.000001 13.6257 6.100421 13.6257 13.625621h.7365c0-7.93197-6.4301-14.362144-14.3622-14.362144zm-13.62562 13.625621c0-7.5252 6.10042-13.625621 13.62562-13.625621v-.736523c-7.93197 0-14.362143 6.430174-14.362143 14.362144zm0 13.994v-13.994h-.736523v13.994zm13.62562-.3683h-13.99388v.7365h13.99388zm13.6257-13.6257c0 7.5253-6.1004 13.6257-13.6257 13.6257v.7365c7.9321 0 14.3622-6.4301 14.3622-14.3622z" fill="#5b57ca"/></svg>