<svg width="262" height="272" viewBox="0 0 262 272" fill="none" xmlns="http://www.w3.org/2000/svg">
<path fill-rule="evenodd" clip-rule="evenodd" d="M145.534 124.345C146.752 125.349 148.513 125.598 149.79 124.67L254.338 48.7118C254.785 48.3871 255.41 48.4862 255.734 48.933V48.933C256.059 49.3798 255.96 50.0052 255.513 50.3298L149.307 127.493C148.964 127.742 148.875 128.213 149.083 128.582V128.582C149.29 128.951 149.739 129.122 150.13 128.959L259.862 83.2716C260.372 83.0593 260.957 83.3006 261.169 83.8104V83.8104C261.382 84.3203 261.141 84.9057 260.631 85.118L152.795 130.016C151.338 130.623 150.634 132.256 150.853 133.82C150.95 134.508 151 135.211 151 135.925C151 137.313 150.812 138.657 150.459 139.932C150.049 141.416 150.5 143.08 151.81 143.889L183.674 163.549C184.144 163.839 184.29 164.455 184 164.925V164.925C183.71 165.395 183.094 165.541 182.624 165.251L150.982 145.728C149.605 144.878 147.82 145.301 146.684 146.454C145.92 147.229 145.073 147.921 144.157 148.515C142.833 149.375 142.063 150.978 142.561 152.476L180.129 265.379C180.303 265.903 180.02 266.47 179.496 266.644V266.644C178.972 266.818 178.406 266.535 178.231 266.011L140.002 151.121C139.876 150.741 139.479 150.525 139.087 150.607V150.607C138.696 150.689 138.415 151.045 138.449 151.443L143.822 212.85C143.87 213.4 143.463 213.885 142.913 213.933V213.933C142.363 213.981 141.878 213.574 141.829 213.024L136.431 151.315C136.411 151.093 136.223 150.925 136 150.925V150.925V150.925C135.556 150.925 135.171 151.247 135.119 151.687L120.913 270.256C120.847 270.804 120.349 271.195 119.801 271.13V271.13C119.252 271.064 118.861 270.566 118.927 270.018L132.892 153.459C133.08 151.89 132.001 150.473 130.529 149.896C129.045 149.315 127.676 148.503 126.466 147.506C125.248 146.502 123.487 146.252 122.21 147.18L17.6623 223.139C17.2155 223.463 16.5901 223.364 16.2655 222.917V222.917C15.9408 222.471 16.0399 221.845 16.4867 221.521L121.03 145.566C122.308 144.637 122.614 142.883 122.035 141.412C122.002 141.327 121.969 141.241 121.937 141.154C121.386 139.673 119.988 138.57 118.416 138.73L11.0862 149.717C10.5368 149.773 10.0458 149.373 9.98958 148.824V148.824C9.93334 148.275 10.3331 147.784 10.8826 147.727L120.483 136.508C120.779 136.478 121 136.223 121 135.925V135.925C121 134.783 121.128 133.671 121.369 132.602C121.718 131.061 121.152 129.374 119.749 128.648L1.13748 67.3211C0.646892 67.0674 0.454821 66.4641 0.708477 65.9735V65.9735C0.962133 65.4829 1.56546 65.2909 2.05605 65.5445L120.672 126.874C122.074 127.599 123.777 127.088 124.83 125.913C125.04 125.68 125.257 125.452 125.481 125.232C126.606 124.125 127.037 122.401 126.248 121.034L61.634 9.11949C61.3578 8.64119 61.5217 8.02961 62 7.75346V7.75346C62.4783 7.47732 63.0899 7.6412 63.366 8.11949L127.977 120.029C128.767 121.397 130.479 121.884 132.002 121.464C133.275 121.113 134.616 120.925 136 120.925V120.925C136.428 120.925 136.798 120.613 136.845 120.187L142.981 64.6896C143.042 64.1407 143.536 63.7448 144.085 63.8055V63.8055C144.634 63.8662 145.03 64.3604 144.969 64.9094L138.86 120.166C138.797 120.736 139.19 121.254 139.745 121.397V121.397C140.302 121.54 140.89 121.269 141.107 120.736L189.689 1.47396C189.898 0.962486 190.481 0.716755 190.993 0.925106V0.925106C191.504 1.13346 191.75 1.71699 191.542 2.22847L143.631 119.842C143.036 121.303 143.699 122.953 144.964 123.897C145.158 124.042 145.348 124.191 145.534 124.345Z" fill="#FFF500"/>
</svg>
