<svg fill="none" height="122" viewBox="0 0 122 122" width="122" xmlns="http://www.w3.org/2000/svg"><path d="m121 120.673v.5h.5v-.5zm0-60.0002h.5zm-119.5 0c0-32.8609 26.6391-59.49996 59.5-59.49996v-1.000001c-33.4132-.000003-60.499999 27.086761-60.500002 60.499961zm59.5 59.5002c-32.8609 0-59.50001-26.6392-59.5-59.5002h-1.000002c-.000003 33.4133 27.086802 60.5002 60.500002 60.5002zm60 0h-60v1h60zm-.5-59.5002v60.0002h1v-60.0002zm-59.5-59.49996c32.861 0 59.5 26.63906 59.5 59.49996h1c0-33.4132-27.0868-60.499958-60.5-60.499961z" fill="#fff"/></svg>