<svg fill="none" height="170" viewBox="0 0 197 170" width="197" xmlns="http://www.w3.org/2000/svg"><path d="m195.434 195.315v.81h.809v-.81zm-193.47661-97.1427c.00001-53.2034 43.12991-96.33334 96.33331-96.33333v-1.619054c-54.0976-.000004-97.952354 43.854784-97.952358 97.952384zm96.33331 96.3337c-53.2034 0-96.33331-43.13-96.33331-96.3337h-1.619048c-.000005 54.0977 43.854758 97.9527 97.952358 97.9527zm97.1433 0h-97.1433v1.619h97.1433zm-.81-96.3337v97.1427h1.619v-97.1427zm-96.3333-96.33333c53.2033 0 96.3333 43.12993 96.3333 96.33333h1.619c0-54.0976-43.855-97.952379-97.9523-97.952384z" fill="#fff"/></svg>