<svg fill="none" height="147" viewBox="0 0 181 147" width="181" xmlns="http://www.w3.org/2000/svg"><path d="m71.303 135.923c.5972-.597.5972-1.565 0-2.162l-9.7321-9.733c-.5972-.597-1.5655-.597-2.1627 0-.5972.598-.5972 1.566 0 2.163l8.6508 8.651-8.6508 8.651c-.5972.597-.5972 1.565 0 2.162s1.5655.597 2.1627 0zm-69.13299-67.6036h1.52925zm68.05169-66.52234v1.52925zm108.5763 1.52925c.845 0 1.53-.68467 1.53-1.52925 0-.844584-.685-1.529252-1.53-1.529252zm-108.5764 129.98669c-36.7722 0-66.52234-29.131-66.52234-64.9936h-3.058497c-.000007 37.6166 31.185337 68.0516 69.580837 68.0516zm-66.52234-64.9936c.00001-35.8561 30.16384-64.99313 66.52244-64.99309v-3.058502c-37.9695-.000038-69.58093 30.429092-69.580937 68.051592zm66.52244-64.99309h108.5763v-3.058502h-108.5763z" fill="#5b57ca"/></svg>