<svg fill="none" height="50" viewBox="0 0 61 50" width="61" xmlns="http://www.w3.org/2000/svg"><path d="m23.9324 45.7792c.2014-.2014.2014-.5279 0-.7292l-3.2812-3.2813c-.2014-.2013-.5278-.2013-.7292 0-.2013.2014-.2013.5279 0 .7292l2.9167 2.9167-2.9167 2.9166c-.2013.2014-.2013.5278 0 .7292.2014.2013.5278.2013.7292 0zm-23.308621-22.7931h.515601zm22.944121-22.428483v.515593zm36.6073.515593c.2848 0 .5156-.230836.5156-.515593 0-.284756-.2308-.5155969-.5156-.5155969zm-36.6074 43.82579c-12.398 0-22.42843-9.8218-22.42842-21.9129h-1.031198c-.000002 12.6826 10.514318 22.9441 23.459618 22.9441zm-22.42842-21.9129c0-12.0891 10.16992-21.9129 22.42852-21.91289v-1.0311899c-12.8017-.0000127-23.459716 10.2593799-23.459718 22.9440799zm22.42852-21.91289h36.6073v-1.0311899h-36.6073z" fill="#5b57ca"/></svg>