<svg fill="none" height="46" viewBox="0 0 81 46" width="81" xmlns="http://www.w3.org/2000/svg"><path d="m69.1773 23.0852 10.905 11.2502c.9077.9364.7006 2.4753-.4224 3.1384-.6812.4022-1.5347.3688-2.1824-.0856l-10.6263-7.455c-3.8883-2.7278-8.8142-3.518-13.3606-2.1432l-7.5329 2.2778c-2.2078.6676-2.5235 3.663-.5035 4.7763l10.0898 5.5606c1.5221.8389 1.9622 2.8233.9375 4.2269-.6814.9333-1.8539 1.3699-2.9796 1.1095l-17.5167-4.051c-7.8277-1.9996-14.9699-6.0766-20.6718-11.8002l-12.35897-12.4062c-4.56335-4.5807-3.586523-12.23436 1.98108-15.52212 3.41351-2.0157358 7.69999-1.802461 10.89659.54216l10.2092 7.48827c4.0238 2.95139 8.7019 4.88559 13.6352 5.63759l21.3552 3.2551c3.1012.4727 5.9622 1.9481 8.1456 4.2005z" fill="#5b57ca"/></svg>