<svg width="33" height="32" viewBox="0 0 33 32" fill="none" xmlns="http://www.w3.org/2000/svg">
<g clip-path="url(#clip0_3097_2416)">
<path d="M31.4074 8.31542C31.0339 6.93695 29.9566 5.85752 28.5755 5.48884C26.7205 4.774 8.75274 4.42375 3.54053 5.50932C2.1595 5.8821 1.07807 6.95743 0.708703 8.3359C-0.128533 12.0023 -0.192146 19.929 0.729224 23.6773C1.1027 25.0558 2.18002 26.1352 3.56105 26.5039C7.23422 27.3478 24.6972 27.4666 28.5961 26.5039C29.9771 26.1311 31.0585 25.0558 31.4279 23.6773C32.3205 19.6832 32.3841 12.2481 31.4074 8.31542Z" fill="#FF0000"/>
<path d="M21.3523 15.996L12.9799 11.2031V20.7889L21.3523 15.996Z" fill="white"/>
</g>
<defs>
<clipPath id="clip0_3097_2416">
<rect width="32.0594" height="32" fill="white" transform="translate(0.0593872)"/>
</clipPath>
</defs>
</svg>
