<svg fill="none" height="33" viewBox="0 0 33 33" width="33" xmlns="http://www.w3.org/2000/svg" xmlns:xlink="http://www.w3.org/1999/xlink"><clipPath id="a"><path d="m.05957.472656h32.0594v32h-32.0594z"/></clipPath><g clip-path="url(#a)"><path d="m31.4076 8.78808c-.3735-1.37847-1.4508-2.4579-2.8319-2.82659-1.855-.71484-19.82278-1.06509-25.03498.02049-1.38103.37278-2.46246 1.44811-2.831833 2.82658-.837237 3.66634-.90085 11.59314.02052 15.34144.373473 1.3784 1.450803 2.4579 2.831833 2.8265 3.67316.8439 21.13606.9627 25.03496 0 1.3811-.3727 2.4625-1.4481 2.8319-2.8265.8926-3.9941.9562-11.4293-.0205-15.36192z" fill="#f00"/><path d="m21.3523 16.4687-8.3723-4.7929v9.5858z" fill="#fff"/></g></svg>