<svg fill="none" height="32" viewBox="0 0 33 32" width="33" xmlns="http://www.w3.org/2000/svg" xmlns:xlink="http://www.w3.org/1999/xlink"><clipPath id="a"><path d="m.05957 0h32.0594v32h-32.0594z"/></clipPath><g clip-path="url(#a)"><path d="m31.4076 8.31542c-.3735-1.37847-1.4508-2.4579-2.8319-2.82658-1.855-.71484-19.82278-1.06509-25.03498.02048-1.38103.37278-2.46246 1.44811-2.831833 2.82658-.837237 3.6664-.90085 11.5931.02052 15.3414.373473 1.3785 1.450803 2.4579 2.831833 2.8266 3.67316.8439 21.13606.9627 25.03496 0 1.3811-.3728 2.4625-1.4481 2.8319-2.8266.8926-3.9941.9562-11.4292-.0205-15.36188z" fill="#f00"/><path d="m21.3528 15.996-8.3723-4.7929v9.5858z" fill="#fff"/></g></svg>