<svg width="33" height="32" viewBox="0 0 33 32" fill="none" xmlns="http://www.w3.org/2000/svg">
<g clip-path="url(#clip0_3280_4129)">
<path d="M31.4066 8.31542C31.0331 6.93695 29.9558 5.85752 28.5747 5.48884C26.7197 4.774 8.75195 4.42375 3.53974 5.50932C2.15871 5.8821 1.07728 6.95743 0.70791 8.3359C-0.129326 12.0023 -0.19294 19.929 0.72843 23.6773C1.1019 25.0558 2.17923 26.1352 3.56026 26.5039C7.23343 27.3478 24.6964 27.4666 28.5953 26.5039C29.9763 26.1311 31.0577 25.0558 31.4271 23.6773C32.3197 19.6832 32.3834 12.2481 31.4066 8.31542Z" fill="#FF0000"/>
<path d="M21.3509 15.996L12.9785 11.2031V20.7889L21.3509 15.996Z" fill="white"/>
</g>
<defs>
<clipPath id="clip0_3280_4129">
<rect width="32.0594" height="32" fill="white" transform="translate(0.0585938)"/>
</clipPath>
</defs>
</svg>
