<svg fill="none" height="32" viewBox="0 0 33 32" width="33" xmlns="http://www.w3.org/2000/svg" xmlns:xlink="http://www.w3.org/1999/xlink"><clipPath id="a"><path d="m.058594 0h32.0594v32h-32.0594z"/></clipPath><g clip-path="url(#a)"><path d="m31.4066 8.31542c-.3735-1.37847-1.4508-2.4579-2.8319-2.82658-1.855-.71484-19.82275-1.06509-25.03496.02048-1.38103.37278-2.46246 1.44811-2.83183 2.82658-.837236 3.6664-.90085 11.5931.02052 15.3414.37347 1.3785 1.4508 2.4579 2.83183 2.8266 3.67317.8439 21.13614.9627 25.03504 0 1.381-.3728 2.4624-1.4481 2.8318-2.8266.8926-3.9941.9563-11.4292-.0205-15.36188z" fill="#f00"/><path d="m21.3509 15.996-8.3724-4.7929v9.5858z" fill="#fff"/></g></svg>