<svg width="33" height="33" viewBox="0 0 33 33" fill="none" xmlns="http://www.w3.org/2000/svg">
<g clip-path="url(#clip0_3190_3496)">
<path d="M31.4076 8.78808C31.0341 7.40961 29.9568 6.33018 28.5757 5.96149C26.7207 5.24665 8.75292 4.8964 3.54072 5.98198C2.15969 6.35476 1.07826 7.43009 0.708887 8.80856C-0.12835 12.4749 -0.191963 20.4017 0.729407 24.15C1.10288 25.5284 2.18021 26.6079 3.56124 26.9765C7.2344 27.8204 24.6973 27.9392 28.5962 26.9765C29.9773 26.6038 31.0587 25.5284 31.4281 24.15C32.3207 20.1559 32.3843 12.7207 31.4076 8.78808Z" fill="#FF0000"/>
<path d="M21.3523 16.4687L12.98 11.6758V21.2616L21.3523 16.4687Z" fill="white"/>
</g>
<defs>
<clipPath id="clip0_3190_3496">
<rect width="32.0594" height="32" fill="white" transform="translate(0.0595703 0.472656)"/>
</clipPath>
</defs>
</svg>
