<svg fill="none" height="32" viewBox="0 0 32 32" width="32" xmlns="http://www.w3.org/2000/svg" xmlns:xlink="http://www.w3.org/1999/xlink"><clipPath id="a"><path d="m0 0h32v32h-32z"/></clipPath><g clip-path="url(#a)"><path d="m31.2899 8.31521c-.3727-1.37847-1.4481-2.4579-2.8266-2.82659-1.8516-.71484-19.78605-1.06509-24.9886.02049-1.37847.37278-2.4579 1.44811-2.826586 2.82658-.835686 3.66641-.899182 11.59311.020482 15.34141.372784 1.3785 1.448114 2.4579 2.826584 2.8266 3.66637.8438 21.09702.9626 24.98862 0 1.3785-.3728 2.4579-1.4481 2.8266-2.8266.891-3.9941.9545-11.4293-.0205-15.36189z" fill="#f00"/><path d="m21.2535 15.9961-8.3569-4.7929v9.5858z" fill="#fff"/></g></svg>